<?xml version="1.0" encoding="UTF-8" standalone="no"?>
<!-- Generator: Adobe Illustrator 26.0.3, SVG Export Plug-In . SVG Version: 6.00 Build 0)  -->

<svg
   version="1.1"
   id="Layer_1"
   x="0px"
   y="0px"
   viewBox="0 0 264.04401 45.0242"
   xml:space="preserve"
   sodipodi:docname="dreamcast.svg"
   width="264.04401"
   height="45.0242"
   inkscape:version="1.1.2 (b8e25be833, 2022-02-05)"
   xmlns:inkscape="http://www.inkscape.org/namespaces/inkscape"
   xmlns:sodipodi="http://sodipodi.sourceforge.net/DTD/sodipodi-0.dtd"
   xmlns="http://www.w3.org/2000/svg"
   xmlns:svg="http://www.w3.org/2000/svg"><defs
   id="defs18" /><sodipodi:namedview
   id="namedview16"
   pagecolor="#ffffff"
   bordercolor="#666666"
   borderopacity="1.0"
   inkscape:pageshadow="2"
   inkscape:pageopacity="0.0"
   inkscape:pagecheckerboard="0"
   showgrid="false"
   inkscape:zoom="0.55104167"
   inkscape:cx="959.09263"
   inkscape:cy="540.79395"
   inkscape:window-width="2560"
   inkscape:window-height="1387"
   inkscape:window-x="-8"
   inkscape:window-y="-8"
   inkscape:window-maximized="1"
   inkscape:current-layer="Layer_1" />
<style
   type="text/css"
   id="style2">
	.st0{fill:#E9E1D0;}
</style>
<g
   transform="matrix(0.44,0,0,0.436879,0,0.04745829)"
   id="g13"
   style="fill:#e9e1d0;fill-opacity:1">
	<path
   id="path11"
   class="st0"
   d="m 133.5,21 c 0,-2.6 -0.5,-6 -1.7,-7.4 7.6,0 23.9,0 31,0 16.1,0 40.5,9 40.5,39.2 0,22.4 -17.2,39.1 -40.5,39.1 -5.1,0 -24.6,-0.1 -31.6,-0.1 1.4,-2.6 2.3,-6.2 2.3,-9 z m 11.6,63.3 c 7.5,1 14.3,1.3 20.6,0.4 6,-0.9 26.3,-5.2 26.1,-32.1 -0.1,-25.5 -15.8,-31.3 -28,-32 -6.3,-0.4 -12.4,-0.1 -18.7,1 z"
   style="fill:#e9e1d0;fill-opacity:1" />
	<path
   id="path13"
   class="st0"
   d="m 209.9,37.6 11.6,-1.8 c 0,2.4 0,9.3 0,10.2 3,-7.4 12.2,-13.3 25.4,-8.1 l -3.1,8.1 c -12,-5.7 -22.3,-0.7 -22.3,12.7 v 27.6 c 0,1.3 0.3,4 1.1,5.7 h -12.1 c 1.2,-1.5 1.8,-4.4 1.8,-5.7 V 46.4 c 0,-2.8 -0.6,-7.3 -2.4,-8.8 z"
   style="fill:#e9e1d0;fill-opacity:1" />
	<path
   id="path15"
   class="st0"
   d="m 576.7,43.2 c 0,0.8 0,32.9 0,35.2 0,11.1 7.6,14 13.3,14 2.4,0.1 5.8,-0.4 8.1,-1 l 1.5,-6.8 c -2.8,1.1 -6,1.3 -7.9,1.3 -3.5,0 -6.1,-2.4 -6.1,-6 0,-3.3 -0.1,-35.7 0,-36.7 v 0 c 0.5,0 7.8,0 8.6,0 2.4,0.1 4.3,0.2 5.9,0.9 v -6.4 c 0,0 -14.1,0 -14.4,0 l 0.1,-16.5 -10.7,3 c 1.5,1.4 2,5.4 2,8.1 0,0 0,4.9 0,5.5 -0.5,0 -5.9,0 -6.8,0 v 5.4 c 0.8,0 6.4,0 6.4,0 z"
   style="fill:#e9e1d0;fill-opacity:1" />
	<path
   id="path17"
   class="st0"
   d="m 530.5,80.5 c 4.6,3.3 11.8,6.2 17.1,6.2 7.3,0 12.6,-3.6 12.6,-10.3 0,-12.4 -28.3,-10.3 -28.3,-26.1 0,-10.6 9.5,-14.6 18.6,-14.6 2.9,0 9.6,0.6 13.8,2.3 v 7.3 c -3.8,-3.2 -9.5,-4 -13.3,-4 -6,0 -10.5,3 -10.5,8.8 0,8.6 28.3,8.1 28.3,25.7 0,11.4 -9.9,16.7 -20.7,16.7 -5.3,0 -10.8,-0.9 -15.4,-2.2 z"
   style="fill:#e9e1d0;fill-opacity:1" />
	<path
   id="path19"
   class="st0"
   d="m 359.8,43.3 c 0,-0.6 0,-6.4 0,-7.1 L 348.1,38 c 1.4,1.5 2.5,6.1 2.5,9.4 v 38.5 c 0,1.3 -0.6,4.5 -1.8,6 h 12.8 c -1.2,-1.5 -1.8,-4.7 -1.8,-6 v -29 c 0,-10.6 6.6,-14.3 13.1,-14.3 5.9,0 11.2,2.6 11.2,14.3 v 29 c 0,1.3 -0.6,4.5 -1.8,6 h 12.4 c -1.2,-1.5 -1.8,-4.7 -1.8,-6 v -29 c 0,-11.7 7.3,-14.3 13.2,-14.3 5.9,0 12.1,3.7 12.1,14.3 v 29 c 0,1.3 -0.6,4.5 -1.8,6 h 12 c -1.2,-1.5 -1.8,-4.7 -1.8,-6 V 51.4 c 0,-5.9 -6,-15.3 -20,-15.3 -8.1,0 -12.8,3.6 -16.4,6.7 -3,-3.5 -8,-6.9 -15.9,-6.9 -7.7,0.1 -12.3,4.6 -14.5,7.4 z"
   style="fill:#e9e1d0;fill-opacity:1" />
	<path
   id="path21"
   class="st0"
   d="m 332.1,61.3 c -1.7,1.6 -5.2,2.8 -8.8,3.3 -9.5,1.2 -17.8,2.8 -17.8,12.1 0,5.5 6,9.8 10.8,9.8 12.6,0 15.8,-9.1 15.8,-16.2 v -9 z M 302.4,38.7 c 4.8,-1.9 12.6,-2.8 17.4,-2.8 12.4,0 20.7,6.2 20.7,20.6 v 23.9 c 0,4.4 0.1,8.6 1.6,11.6 h -10 l -0.4,-6.3 c -3.8,4.9 -8.3,7.1 -16,7.1 -15.1,0 -18.4,-10.3 -18.4,-15.3 0,-17.7 16.9,-17.9 24.2,-19 4.1,-0.6 9.3,-1.7 10,-5.5 1.3,-6.3 -3.2,-11 -12.4,-11 -6.7,0 -12.2,2 -16.9,4.8 z m 214.4,22.6 c -1.7,1.6 -5.2,2.8 -8.8,3.3 -9.5,1.2 -17.8,2.8 -17.8,12.1 0,5.5 6,9.8 10.7,9.8 12.6,0 15.8,-9.1 15.8,-16.2 v -9 z M 487.1,38.7 c 4.8,-1.9 12.6,-2.8 17.4,-2.8 12.4,0 20.6,6.2 20.6,20.6 v 23.9 c 0,4.4 -1,8.5 1.6,11.6 h -10 l -0.4,-6.3 c -3.8,4.9 -8.3,7.1 -15.9,7.1 -15.1,0 -18.4,-10.3 -18.4,-15.3 0,-17.7 16.9,-17.9 24.2,-19 4.1,-0.6 9.3,-1.7 10,-5.5 1.3,-6.3 -3.2,-11 -12.4,-11 -6.7,0 -12.2,2 -16.9,4.8 z"
   style="fill:#e9e1d0;fill-opacity:1" />
	<path
   id="path23"
   class="st0"
   d="m 476.5,46 c -3.7,-2.2 -9.6,-3.9 -13.8,-3.9 -14.5,0 -21.1,8.9 -21.1,21.7 0,12.7 6.5,22.4 20.6,22.4 4.8,0 11.4,-2.2 16.6,-5.3 l -2.1,9.3 c -5.2,1.6 -9.6,2.3 -15.4,2.3 -19.9,0 -29.2,-14.1 -29.2,-28.8 0,-16.2 12.5,-27.6 29.4,-27.6 7.4,0 12.8,1.8 15,2.4 z"
   style="fill:#e9e1d0;fill-opacity:1" />
	<path
   id="path25"
   class="st0"
   d="m 253.9,64.4 c 0,-1.3 0.2,-2.6 0.3,-3.9 h 38.5 c 0,-13.2 -6.6,-24.6 -22.3,-24.6 -16.3,0 -25.9,12.7 -25.9,28.9 0,14.7 10.7,27.8 29.2,27.8 5.8,0 10.7,-1.4 15.9,-3.3 l 1.8,-9.4 c -4.5,3.7 -11.8,5.9 -18.3,5.9 -11.7,0.2 -19.3,-8.4 -19.2,-21.4 z m 1.6,-9.7 c 1.2,-6.4 7.2,-13 14.3,-13 10.9,0 14,8.5 14,13 0,0 -28.3,0 -28.3,0 z"
   style="fill:#e9e1d0;fill-opacity:1" />
	<path
   id="path27"
   class="st0"
   d="m 70.7,1.4 c 4.3,0.6 8.7,2.2 11,2.9 4.6,1.4 12.1,5.8 14.8,7.9 1.3,1 3.9,3.6 4.9,4.9 1,1.3 2.9,4.1 4.1,5.8 1.9,2.8 4.2,7 6.1,10.9 2.2,4.3 2.3,5.6 3,9.2 l 1.4,6.4 c 0.1,1.1 0.2,5.1 -2.1,5.7 -2.4,0.6 -4.6,-0.5 -5.6,-2.1 -1.4,-2.2 -1.2,-5.4 -2.9,-8.9 -1.3,-2.9 -1.8,-7.1 -3.8,-10.2 L 100,31.2 C 97.2,26.9 94.3,23.5 92.6,21.3 91.1,19.4 88.2,16.9 85.5,15.1 83,13.6 78.9,11.8 76,11 75.1,10.7 71.1,9.5 68.6,9.2 65.2,8.8 63,8.3 59.8,8.1 56,7.6 54.1,7.2 49,7.8 47.1,8.3 44,8.5 41.2,9.6 39,10.5 35.9,12 32.8,13.8 c -3.3,1.8 -8.2,5.5 -11.5,8.6 -3.3,3.5 -5,5.4 -7.3,9.9 -1,2.2 -3,5.7 -3.8,8.1 -0.5,2.5 -1.6,7.1 -1.4,9.3 0.1,4 -0.3,4.8 0,8.1 0,2.9 1,5 1.4,7.4 0.3,1.7 1.9,7.4 2.9,8.8 4.5,9.7 10.5,13.9 17.2,16.9 1.9,1 7.8,2.5 9.5,3 2.9,0.5 6.8,0.9 10.5,1 3.9,0.1 9.3,-0.4 12.5,-1.7 3.5,-1.3 7.6,-3.1 7.6,-3.1 1.6,-0.9 4.1,-2.4 4.9,-3 1.5,-1 2.4,-1.3 3.3,-2.3 1.3,-1.1 2.1,-1.8 3,-3.2 0.5,-0.8 1.4,-2 2.2,-3 0.9,-1.5 1.4,-3 2.3,-5 1.1,-2.9 0.9,-2.7 1.1,-5.7 0.2,-0.9 0,-3.8 -0.2,-4.3 -0.5,-2.7 -0.3,-5.1 -0.9,-7.8 -0.8,-3.6 -1.5,-6.2 -2.6,-9.7 -1,-3.9 -4,-7.4 -6.2,-10 -1.4,-1.6 -5.7,-5.3 -11.6,-7.7 -1.7,-0.6 -4.4,-1.2 -6.1,-1.5 -3.7,-0.4 -4.3,-0.1 -7.9,0.1 -1.2,0.2 -4.1,0.8 -5.1,1.2 -3,1.1 -4.2,1.8 -7.3,3.7 -1.4,0.8 -2.5,1.5 -4,2.9 -1.2,1.1 -2,3 -3,4 -1.3,1.8 -2.8,4.2 -3.8,6.7 -1.1,2.6 -1.4,6.2 -1.2,8.5 0,1.8 0.5,5 0.7,5.7 0.2,0.7 0.7,2.9 0.8,3.3 0.1,0.4 1.2,2.8 1.4,3.1 0.6,1.4 1.9,3.3 3.9,5.3 1.5,1.7 4.5,3.3 6.7,3.9 2,1.1 5.3,1.3 7.2,1.3 0.9,-0.1 3.2,-0.2 4.5,-0.5 2.5,-0.6 2.9,-0.6 5.5,-1.7 2.3,-1.1 3.8,-1.4 5.4,-2.6 0,0 2.2,-1.7 3.2,-3 0.5,-0.7 1.4,-3.8 1.3,-5.8 -0.1,-2.7 0.3,-4.2 -0.2,-6.4 -0.5,-2.2 -1.5,-4.7 -2.5,-6.3 -1,-1.6 -3.2,-3.1 -5.7,-4.4 -1.4,-0.7 -4.7,-1.3 -6.1,-1.5 -2.7,-0.3 -4.9,0.9 -6.3,2.3 -1.2,1.3 -3.5,4.1 -2.6,7 0.8,2.6 1.9,5.4 5.8,5.2 2.7,0.6 5.8,-0.2 6.8,0.2 1.5,0.9 2.1,2.8 1.6,4.1 -0.4,2.6 -2.9,2.9 -5.5,3.1 -2.4,0.4 -8.4,-0.8 -9.7,-1.8 -0.9,-0.5 -2.2,-1.8 -3.2,-2.6 -0.7,-0.6 -1.5,-2 -2,-3 -0.6,-1.2 -1,-2.1 -1.1,-2.9 -0.2,-0.9 -0.6,-2.7 -0.5,-4.5 0.1,-1.2 0.4,-1.7 0.7,-3.5 0.6,-2 1.4,-3.5 2.7,-5.3 1.7,-1.7 3.8,-3.7 5.8,-4.6 1.8,-1 5,-1.3 7.9,-1.1 2.3,0.2 5.1,0.5 6.9,1.1 3.1,1.1 4,1.3 6.6,3 2.2,1.3 4.4,3.8 5.6,5.9 2.6,5.3 4.1,11.2 3,19.2 -0.1,1.3 -0.5,2.7 -1.3,4.4 -0.8,1.6 -2.1,3.6 -4.2,5.1 -0.8,0.8 -2.1,1.7 -3.2,2.2 -1.5,0.9 -2.5,1.4 -4.1,2.2 -1.4,0.6 -3,1.4 -5.1,2 C 55.7,83 54,83 51.2,83.4 48.7,84.5 41,84 36.5,82 33.4,80.7 29.9,78.4 27.3,75.6 25.8,74.1 24.4,71.3 24,70.7 21.9,66.6 21.5,62.8 21.1,62 20.6,60.9 20.4,58.5 20.1,56.8 19.8,54.9 20,47.1 21.9,42 c 1.1,-2 1.7,-3.8 2.4,-4.7 1.3,-1.8 1.9,-3 3,-4.3 1.7,-2 2.9,-3.7 4.5,-4.8 4.1,-3.4 7.6,-5.1 12.2,-7.3 5.8,-2.4 7.5,-1.9 13,-1.8 2.5,0 6,0.8 7.8,1.1 3.3,0.4 5.1,1.2 7.4,1.8 2.4,0.7 3.7,1.7 5.7,2.9 1.6,1 3.5,2.4 4.7,3.6 3.2,2.3 4.7,4.8 6.7,7.8 0.4,0.5 2.7,5.4 3,6.8 0.2,0.7 0.7,2.7 1,3.8 0.4,1.8 0.6,3.5 1.1,5.5 0.4,2.1 1.2,6.1 1.5,9.9 0.5,3.2 -0.3,9.8 -0.8,11.8 -1.1,3.8 -3.1,8.4 -7,12.8 -1.7,2 -3.4,3.5 -5.4,5.1 -1.5,1.3 -2.9,2 -5.3,3.5 -3.3,1.9 -5.7,3.2 -10.3,5 -1.9,0.6 -4.2,1.4 -6.7,1.9 -4.9,0.4 -9.9,0.9 -15.4,0.2 C 39.5,101.9 34,100.4 30.8,99.4 29,98.7 25.5,97.3 24.1,96.5 23.2,96 20,93.8 19.4,93.3 17.2,92 12.4,87.4 9.2,83.1 8.5,81.8 6,77.8 5.5,76.1 4.1,73.2 3.1,69.6 2.5,68.1 1.9,64.6 0.8,62.3 0.4,58.7 0.4,58 0.2,56 0,55 0.3,52.6 -0.1,50.3 0.4,47.6 0.8,45.4 1.4,44.4 1.5,42.4 1.6,41.6 2.7,39 3,37.8 3.9,35.9 4.1,34.3 5.3,32.2 7,28.9 8.7,25.1 11.5,21.7 c 0.8,-1 3,-3.5 3.7,-4.4 1.8,-1.8 2.8,-2 4.8,-3.8 0.2,-0.1 1.5,-1.6 2.9,-2.2 2.3,-1.8 4.3,-2.4 6.5,-4 4.4,-2.2 6,-2.9 10.3,-4.7 2.5,-0.9 6,-1.4 7.3,-1.9 2.4,-0.1 4.8,-0.9 7.4,-0.8 2.8,0 5.7,0.2 8.5,0.4 1.9,0.3 4.4,0.4 7.8,1.1 z"
   style="fill:#e9e1d0;fill-opacity:1" />
</g>
</svg>
