<?xml version="1.0" encoding="UTF-8" standalone="no"?>
<!-- Generator: Adobe Illustrator 26.0.3, SVG Export Plug-In . SVG Version: 6.00 Build 0)  -->

<svg
   version="1.1"
   id="Layer_1"
   x="0px"
   y="0px"
   viewBox="0 0 264.10001 63.099998"
   xml:space="preserve"
   sodipodi:docname="genesis.svg"
   width="264.10001"
   height="63.099998"
   inkscape:version="1.1.2 (b8e25be833, 2022-02-05)"
   xmlns:inkscape="http://www.inkscape.org/namespaces/inkscape"
   xmlns:sodipodi="http://sodipodi.sourceforge.net/DTD/sodipodi-0.dtd"
   xmlns="http://www.w3.org/2000/svg"
   xmlns:svg="http://www.w3.org/2000/svg"><defs
   id="defs24" /><sodipodi:namedview
   id="namedview22"
   pagecolor="#ffffff"
   bordercolor="#666666"
   borderopacity="1.0"
   inkscape:pageshadow="2"
   inkscape:pageopacity="0.0"
   inkscape:pagecheckerboard="0"
   showgrid="false"
   inkscape:zoom="0.55104167"
   inkscape:cx="959.09263"
   inkscape:cy="540.79395"
   inkscape:window-width="2560"
   inkscape:window-height="1387"
   inkscape:window-x="-8"
   inkscape:window-y="-8"
   inkscape:window-maximized="1"
   inkscape:current-layer="Layer_1" />
<style
   type="text/css"
   id="style2">
	.st0{fill-rule:evenodd;clip-rule:evenodd;fill:#E9E1D0;}
</style>
<g
   id="g3"
   transform="translate(-208.4,-398.7)"
   style="fill:#e9e1d0;fill-opacity:1">
	<path
   id="polygon9"
   class="st0"
   d="m 212.4,429.3 14.8,-8.6 h 72.9 l 13.2,-18.9 h 53.1 l 13.3,18.9 h 74 l 14.9,8.7 v 20.1 l -15.8,9.1 H 228.2 l -15.7,-9.1 v -20.2 z m 241.4,32.5 18.7,-10.8 v -23 l -17.9,-10.4 h -73.3 l -13.2,-18.9 h -56.4 l -13.3,18.9 h -72.1 l -17.9,10.3 v 23 l 18.8,10.8 h 226.6 z"
   style="fill:#e9e1d0;fill-opacity:1" />
	<path
   id="path11"
   class="st0"
   d="m 330.1,416.2 c 0,1 0.8,1.8 1.8,1.8 h 7.2 v -2.2 h -6.8 v -0.6 h 5.4 V 413 h -7.6 z"
   style="fill:#e9e1d0;fill-opacity:1" />
	<path
   id="path13"
   class="st0"
   d="m 330.1,408.9 c 0,-0.9 0.8,-1.8 1.8,-1.8 h 7.2 v 2.2 h -6.8 v 0.6 h 5.4 v 2.2 h -7.6 z"
   style="fill:#e9e1d0;fill-opacity:1" />
	<polygon
   id="polygon15"
   class="st0"
   points="401.3,446.2 393.1,451.8 367.8,451.8 376.2,446.2 391,446.2 391,442.7 368.1,442.7 368.1,433.8 376.6,428.1 376.6,428.1 401.8,428.1 393.5,433.7 378.4,433.7 378.4,437.1 401.3,437.1 "
   style="fill:#e9e1d0;fill-opacity:1" />
	<polygon
   id="polygon17"
   class="st0"
   points="414.8,428.1 414.8,451.8 404.5,451.8 404.5,428.1 "
   style="fill:#e9e1d0;fill-opacity:1" />
	<polygon
   id="polygon19"
   class="st0"
   points="452,446.2 443.8,451.8 418.5,451.8 426.9,446.2 441.7,446.2 441.7,442.7 418.8,442.7 418.8,433.8 427.2,428.1 427.2,428.1 452.5,428.1 444.2,433.7 429.1,433.7 429.1,437.1 452,437.1 "
   style="fill:#e9e1d0;fill-opacity:1" />
	<polygon
   id="polygon21"
   class="st0"
   points="355.7,442.7 364,437.1 345.8,437.1 345.8,433.7 360.7,433.7 369,428.1 344.5,428.1 335.5,433.6 335.5,433.6 335.5,451.8 360.5,451.8 368.9,446.2 345.8,446.2 345.8,442.7 "
   style="fill:#e9e1d0;fill-opacity:1" />
	<polygon
   id="polygon23"
   class="st0"
   points="283.6,442.7 292,437.1 273.8,437.1 273.8,433.7 288.6,433.7 297,428.1 272.4,428.1 263.5,433.6 263.5,433.6 263.5,451.8 288.4,451.8 296.8,446.2 273.8,446.2 273.8,442.7 "
   style="fill:#e9e1d0;fill-opacity:1" />
	<polygon
   id="polygon25"
   class="st0"
   points="309.6,451.8 299.3,451.8 299.3,428.1 309.7,428.1 322.3,435 322.3,428.1 322.3,428.1 332.6,428.1 332.6,451.8 322.3,451.8 322.3,443.9 309.6,436 "
   style="fill:#e9e1d0;fill-opacity:1" />
	<polygon
   id="polygon27"
   class="st0"
   points="250.5,446.2 250.5,442.7 240.1,442.7 248.4,437.1 260.8,437.1 260.8,446.5 252.9,451.8 227.5,451.8 227.5,433.8 227.5,433.8 236,428.1 263.9,428.1 255.6,433.7 237.7,433.7 237.7,446.2 "
   style="fill:#e9e1d0;fill-opacity:1" />
	<path
   id="path29"
   class="st0"
   d="m 331.6,404.2 c -2.5,0 -4.4,2 -4.4,4.4 v 7.8 c 0,2.5 2,4.4 4.4,4.4 h 7.5 v -2.2 h -7.3 c -1.3,0 -2.4,-1.2 -2.4,-2.5 v -7.3 c 0,-1.3 1.1,-2.5 2.4,-2.5 h 7.3 v -2.2 z"
   style="fill:#e9e1d0;fill-opacity:1" />
	<path
   id="path31"
   class="st0"
   d="m 345.8,415.8 v -6.4 h 7.1 v -2.2 h -7.5 c -1,0 -1.8,0.8 -1.8,1.8 v 7.3 c 0,1 0.8,1.8 1.8,1.8 H 350 V 413 h -3.5 v 2.2 h 1.3 v 0.7 z"
   style="fill:#e9e1d0;fill-opacity:1" />
	<path
   id="path33"
   class="st0"
   d="m 325,404.2 h -7.2 c -3,0 -5.5,2.5 -5.5,5.5 0,3 2.5,5.4 5.5,5.4 h 2.2 v 0.7 h -7.6 v 2.1 h 7.4 c 1.4,0 2.5,-1.1 2.5,-2.5 0,-1.4 -1.1,-2.5 -2.5,-2.5 h -1.9 c -1.8,0 -3.3,-1.5 -3.3,-3.3 0,-1.8 1.5,-3.3 3.3,-3.3 h 7.2 z"
   style="fill:#e9e1d0;fill-opacity:1" />
	<path
   id="path35"
   class="st0"
   d="m 325,409.3 h -7.5 v 0.7 h 2.2 c 3,0 5.5,2.4 5.5,5.4 0,3 -2.5,5.4 -5.5,5.4 h -7.4 v -2.2 h 7.4 c 1.8,0 3.3,-1.5 3.3,-3.3 0,-1.8 -1.5,-3.2 -3.3,-3.2 h -1.9 c -1.4,0 -2.5,-1.1 -2.5,-2.5 0,-1.4 1.1,-2.5 2.5,-2.5 h 7.2 z"
   style="fill:#e9e1d0;fill-opacity:1" />
	<path
   id="path37"
   class="st0"
   d="m 361.3,406.8 c -0.1,-0.2 -0.1,-0.3 -0.4,-0.3 -0.2,0 -0.3,0.1 -0.4,0.3 l -4.6,14 h 2.4 l 2.6,-7.8 0.8,2.6 H 360 v 2.2 h 4.8 z"
   style="fill:#e9e1d0;fill-opacity:1" />
	<path
   id="path39"
   class="st0"
   d="m 345.1,420.9 c -2.5,0 -4.4,-2 -4.4,-4.4 v -7.8 c 0,-2.5 2,-4.4 4.4,-4.4 h 7.8 v 2.2 h -7.6 c -1.3,0 -2.4,1.2 -2.4,2.5 v 7.3 c 0,1.3 1.1,2.5 2.4,2.5 h 5.4 v -6.5 h -4.2 V 410 h 6.4 v 10.4 l 4.6,-14.2 c 0.5,-1.4 1.8,-2.4 3.4,-2.4 1.6,0 3,1 3.4,2.5 l 4.8,14.6 h -9 v -2.2 h 5.9 l -4,-12.2 c -0.2,-0.7 -0.6,-0.7 -1.1,-0.7 -0.4,0 -0.8,0.2 -1.1,0.8 l -4.7,14.3 z"
   style="fill:#e9e1d0;fill-opacity:1" />
</g>
</svg>
