<?xml version="1.0" encoding="UTF-8" standalone="no"?>
<!-- Generator: Adobe Illustrator 26.0.3, SVG Export Plug-In . SVG Version: 6.00 Build 0)  -->

<svg
   version="1.1"
   id="Layer_1"
   x="0px"
   y="0px"
   viewBox="0 0 264 62.099998"
   xml:space="preserve"
   sodipodi:docname="genh.svg"
   width="264"
   height="62.099998"
   inkscape:version="1.1.2 (b8e25be833, 2022-02-05)"
   xmlns:inkscape="http://www.inkscape.org/namespaces/inkscape"
   xmlns:sodipodi="http://sodipodi.sourceforge.net/DTD/sodipodi-0.dtd"
   xmlns="http://www.w3.org/2000/svg"
   xmlns:svg="http://www.w3.org/2000/svg"><defs
   id="defs22" /><sodipodi:namedview
   id="namedview20"
   pagecolor="#ffffff"
   bordercolor="#666666"
   borderopacity="1.0"
   inkscape:pageshadow="2"
   inkscape:pageopacity="0.0"
   inkscape:pagecheckerboard="0"
   showgrid="false"
   inkscape:zoom="0.55104167"
   inkscape:cx="959.09263"
   inkscape:cy="540.79395"
   inkscape:window-width="2560"
   inkscape:window-height="1387"
   inkscape:window-x="-8"
   inkscape:window-y="-8"
   inkscape:window-maximized="1"
   inkscape:current-layer="Layer_1" />
<style
   type="text/css"
   id="style2">
	.st0{fill:#E9E1D0;}
</style>
<g
   transform="scale(0.44,0.44044)"
   id="g14"
   style="fill:#e9e1d0;fill-opacity:1">
	<path
   id="path16"
   class="st0"
   d="m 332.8,4.9 -8.5,25.8 h 4.2 L 337,5.8 c 0.3,-1.1 1.2,-2 2.3,-2 1.1,0 2,0.8 2.3,2 l 7.2,21.1 h -11.3 v 3.8 h 16.8 L 345.8,4.9 C 345,2 342.4,0 339.3,0 c -3.1,0 -5.7,2.1 -6.5,4.9 z m 5,16.1 1.5,-4.4 1.5,4.4 z m -0.7,-12.7 -7.6,22.4 h 4.9 l 3.1,-9.3 v 4.4 h 9.9 L 341.5,8.3 c -0.3,-1 -1.2,-3.8 -2.2,-3.8 -1,0 -1.9,2.8 -2.2,3.8 z M 310.3,4.9 H 325 V 0.7 h -15 c -4.1,0 -7.3,3.3 -7.3,7.3 v 15.4 c 0,4.1 3.3,7.3 7.3,7.3 h 15 V 11.2 H 313.1 V 15 h 7.7 v 11.5 h -10.5 c -1.9,0 -3.5,-1.6 -3.5,-3.5 V 8.4 c 0,-1.9 1.6,-3.5 3.5,-3.5 z m 2.8,11.2 v 4.2 h 2.4 v 1 h -2.4 c -0.6,0 -1,-0.5 -1,-1 v -9.1 c 0,-0.6 0.5,-1.1 1,-1.1 H 325 V 5.9 h -13.6 c -1.9,0 -3.5,1.6 -3.5,3.5 V 22 c 0,1.9 1.6,3.5 3.5,3.5 h 8.4 V 16.1 Z M 286.2,4.9 h 14.7 V 0.7 h -15 c -4.1,0 -7.3,3.3 -7.3,7.3 v 15.2 c 0,4 3.3,7.3 7.3,7.3 h 15 v -4.2 h -14.7 c -1.9,0 -3.5,-1.6 -3.5,-3.5 V 8.4 c 0,-1.9 1.6,-3.5 3.5,-3.5 z M 297.7,15 V 11.2 H 288 c 0,-0.6 0.5,-1.1 1,-1.1 h 11.9 V 5.9 h -13.6 c -1.9,0 -3.5,1.6 -3.5,3.5 V 15 Z m 0,1.4 v 3.8 H 288 c 0,0.6 0.5,1 1,1 h 11.9 v 4.2 h -13.6 c -1.9,0 -3.5,-1.6 -3.5,-3.5 v -5.6 z m -35.9,5.3 H 253 v 3.8 h 13.5 0.2 c 2.5,-0.1 4.5,-2.2 4.5,-4.7 0,-2.6 -2.1,-4.7 -4.7,-4.7 h -5.3 c -2.1,-0.8 -4,-2.9 -4,-5.4 0,-3.2 2.9,-5.8 6.1,-5.8 h 13.1 V 0.7 h -13.6 c -5.4,0 -9.8,4.4 -9.8,9.8 0,5.4 4.7,9.8 10.1,9.8 v 0 0 h 3.1 c 0.4,0 0.7,0.3 0.7,0.7 0,0.4 -0.3,0.7 -0.7,0.7 z m 5.8,-11.9 h 8.8 V 5.9 H 263 262.8 c -2.5,0.1 -4.5,2.2 -4.5,4.7 0,2.6 2.1,4.7 4.7,4.7 h 5.3 c 2.1,0.8 4,2.9 4,5.4 0,3.2 -2.9,5.8 -6.1,5.8 H 253 v 4.2 h 13.6 c 5.4,0 9.8,-4.4 9.8,-9.8 0,-5.4 -4.7,-9.8 -10.1,-9.8 v 0.1 -0.1 h -3.1 c -0.4,0 -0.7,-0.3 -0.7,-0.7 0,-0.4 0.3,-0.7 0.7,-0.7 z"
   style="fill:#e9e1d0;fill-opacity:1" />
	<polygon
   id="polygon37"
   class="st0"
   points="253.9,107.3 253.9,84.4 213.9,61.6 213.9,107.3 193,107.3 193,45.3 214.7,45.3 253.9,67.6 253.9,45.3 274.8,45.3 274.8,107.3 "
   style="fill:#e9e1d0;fill-opacity:1" />
	<rect
   id="rect58"
   x="480"
   y="45"
   class="st0"
   width="21.700001"
   height="62.400002"
   style="fill:#e9e1d0;fill-opacity:1" />
	<polygon
   id="polygon79"
   class="st0"
   points="310.7,70 353.5,70 333,82.5 310.7,82.5 310.7,95 368.7,95 348.2,107.4 289.3,107.4 289.3,59.3 310.7,45 366.9,45 346.4,57.5 310.7,57.5 "
   style="fill:#e9e1d0;fill-opacity:1" />
	<polygon
   id="polygon100"
   class="st0"
   points="121.3,70.1 163.8,70.1 143.4,82.6 121.3,82.6 121.3,95 178.9,95 158.5,107.4 100,107.4 100,59.5 121.3,45.3 177.1,45.3 156.7,57.7 121.3,57.7 "
   style="fill:#e9e1d0;fill-opacity:1" />
	<polygon
   id="polygon121"
   class="st0"
   points="86.1,45.3 65.6,57.7 21.3,57.7 21.3,95 61.2,95 61.2,79.9 36.4,79.9 56.8,67.5 82.5,67.5 82.5,93.2 61.2,107.4 0,107.4 0,59.5 21.3,45.3 "
   style="fill:#e9e1d0;fill-opacity:1" />
	<polygon
   id="polygon170"
   class="st0"
   points="381.6,107.4 402.5,94.8 443.2,94.8 443.2,82.1 381.6,82.1 381.6,57.7 402.5,45 467.6,45 446.8,57.7 404.3,57.7 404.3,69.4 466.7,69.4 466.7,94.8 445.9,107.4 "
   style="fill:#e9e1d0;fill-opacity:1" />
	<polygon
   id="polygon142"
   class="st0"
   points="381.6,82.1 381.6,57.7 402.5,45 467.6,45 446.8,57.7 404.3,57.7 404.3,69.4 466.7,69.4 466.7,94.8 445.9,107.4 381.6,107.4 402.5,94.8 443.2,94.8 443.2,82.1 "
   style="fill:#e9e1d0;fill-opacity:1" />
	<polygon
   id="polygon202"
   class="st0"
   points="514,107.4 534.9,94.8 575.6,94.8 575.6,82.1 514,82.1 514,57.7 534.9,45 600,45 579.2,57.7 536.7,57.7 536.7,69.4 599.1,69.4 599.1,94.8 578.3,107.4 "
   style="fill:#e9e1d0;fill-opacity:1" />
	<polygon
   id="polygon163"
   class="st0"
   points="514,82.1 514,57.7 534.9,45 600,45 579.2,57.7 536.7,57.7 536.7,69.4 599.1,69.4 599.1,94.8 578.3,107.4 514,107.4 534.9,94.8 575.6,94.8 575.6,82.1 "
   style="fill:#e9e1d0;fill-opacity:1" />
</g>
<path
   class="st0"
   d="m 83.6,61.8 h -2.5 v -2.7 h -1.8 v 2.7 h -2.5 v -7.7 h 2.5 v 2.7 h 1.8 v -2.7 h 2.5 z m 3.3,-1.2 -0.3,1.2 H 84 l 2,-7.7 h 3.8 l 2,7.7 H 89.2 L 89,60.6 Z M 88,56.5 h -0.1 l -0.5,2.2 h 1.1 z m 9.4,3.1 0.2,2.1 C 97.1,61.9 96.4,62 95.7,62 94.9,62 94.3,61.9 93.8,61.8 93.3,61.6 93,61.4 92.7,61 92.4,60.6 92.2,60.2 92.1,59.8 92,59.3 92,58.7 92,58 c 0,-0.7 0.1,-1.3 0.2,-1.8 0.1,-0.5 0.3,-0.9 0.6,-1.3 0.5,-0.7 1.5,-1 2.9,-1 0.3,0 0.7,0 1.1,0.1 0.4,0.1 0.7,0.1 0.9,0.2 l -0.4,1.9 c -0.5,-0.1 -1,-0.2 -1.5,-0.2 -0.4,0 -0.8,0 -0.9,0.1 -0.2,0.1 -0.3,0.2 -0.3,0.5 v 3.2 c 0.3,0.1 0.6,0.1 1,0.1 0.7,0.1 1.3,0 1.8,-0.2 z m 3.6,-1.1 v 0 3.4 h -2.5 v -7.7 h 2.5 v 3.1 0 c 0,-0.2 0.1,-0.4 0.1,-0.6 l 1.2,-2.6 h 2.7 l -1.8,3.8 1.9,3.9 h -2.7 L 101.1,59 c 0,-0.1 -0.1,-0.3 -0.1,-0.5 z m 4.5,3.2 0.3,-2 c 0.8,0.2 1.4,0.3 2,0.3 0.6,0 1.1,0 1.5,-0.1 v -0.6 l -1.1,-0.1 c -1,-0.1 -1.7,-0.3 -2.1,-0.7 -0.4,-0.4 -0.6,-1 -0.6,-1.7 0,-1.1 0.2,-1.8 0.7,-2.2 0.5,-0.4 1.2,-0.6 2.3,-0.6 1.1,0 2.1,0.1 3,0.3 l -0.3,2 c -0.8,-0.1 -1.4,-0.2 -1.8,-0.2 -0.4,0 -0.9,0 -1.2,0.1 v 0.6 l 0.9,0.1 c 1.1,0.1 1.8,0.4 2.2,0.8 0.4,0.4 0.6,1 0.6,1.7 0,0.5 -0.1,1 -0.2,1.3 -0.1,0.4 -0.3,0.6 -0.5,0.8 -0.2,0.2 -0.5,0.3 -0.8,0.4 -0.4,0.1 -0.7,0.2 -0.9,0.2 -0.3,0 -0.6,0 -1.1,0 -1,-0.1 -2,-0.2 -2.9,-0.4 z m 11.4,-2.8 H 115 v -1.8 h 1.9 v -1.9 h 1.8 v 1.9 h 1.9 v 1.8 h -1.9 v 1.9 h -1.8 z m 13.9,2.9 h -2.5 v -2.7 h -1.8 v 2.7 H 124 v -7.7 h 2.5 v 2.7 h 1.8 v -2.7 h 2.5 z m 0.8,-3.8 c 0,-1.4 0.3,-2.4 0.8,-3.1 0.5,-0.6 1.5,-1 2.8,-1 1.4,0 2.3,0.3 2.8,1 0.5,0.6 0.8,1.7 0.8,3.1 0,0.7 -0.1,1.3 -0.2,1.8 -0.1,0.5 -0.3,0.9 -0.6,1.2 -0.3,0.4 -0.6,0.6 -1.1,0.8 -0.5,0.2 -1.1,0.2 -1.8,0.2 -0.7,0 -1.3,-0.1 -1.8,-0.2 -0.5,-0.2 -0.9,-0.4 -1.1,-0.8 -0.3,-0.4 -0.5,-0.8 -0.6,-1.2 0.1,-0.5 0,-1.1 0,-1.8 z m 2.7,-1.3 v 3.2 h 1 c 0.3,0 0.6,0 0.7,-0.1 0.2,-0.1 0.2,-0.3 0.2,-0.5 V 56 h -1 c -0.3,0 -0.6,0 -0.7,0.1 -0.1,0.1 -0.2,0.3 -0.2,0.6 z m 7.9,1.4 -0.1,3.7 h -2.6 l 0.5,-7.7 h 3.2 l 1,3.9 h 0.1 l 1,-3.9 h 3.2 l 0.5,7.7 h -2.6 l -0.2,-3.7 H 146 l -0.9,3.7 h -1.9 z m 12.5,-1 v 1.8 h -2.5 v 0.9 h 3 v 2 h -5.5 v -7.7 h 5.4 l -0.3,2 h -2.6 v 1 z m 6,4.7 h -4.4 v -7.7 h 4 c 0.7,0 1.3,0.1 1.6,0.4 0.3,0.3 0.5,0.7 0.5,1.3 0,0.5 -0.1,1 -0.3,1.3 -0.2,0.3 -0.5,0.5 -0.8,0.6 v 0.1 c 1,0.2 1.5,0.9 1.5,2 0,0.6 -0.2,1.1 -0.5,1.5 -0.4,0.3 -0.9,0.5 -1.6,0.5 z m -1,-3.1 h -1 V 60 h 1 c 0.3,0 0.5,-0.2 0.5,-0.6 0,-0.4 -0.2,-0.7 -0.5,-0.7 z m -0.2,-2.9 h -0.8 v 1.1 h 0.8 c 0.3,0 0.5,-0.2 0.5,-0.6 0,-0.4 -0.2,-0.5 -0.5,-0.5 z m 9.5,3.5 1.3,2.6 h -2.7 l -1,-2.3 H 166 v 2.3 h -2.5 v -7.7 h 3.9 c 1.8,0 2.6,0.9 2.6,2.7 0.1,1.1 -0.3,2 -1,2.4 z m -2.4,-3.2 H 166 v 1.5 h 0.6 c 0.3,0 0.5,0 0.6,-0.1 0.1,-0.1 0.2,-0.2 0.2,-0.4 v -0.5 c 0,-0.2 -0.1,-0.4 -0.2,-0.4 -0.1,-0.1 -0.3,-0.1 -0.6,-0.1 z m 9.5,1 v 1.8 h -2.5 v 0.9 h 3 v 2 h -5.5 v -7.7 h 5.4 l -0.3,2 h -2.6 v 1 z m 7.9,1.3 0.6,-4.3 h 2.6 l -1.2,7.7 h -3.2 L 182.2,59 H 182 l -0.6,2.8 h -3.2 L 177,54.1 h 2.6 l 0.6,4.3 h 0.1 l 0.9,-4.3 h 1.9 z"
   id="path17"
   style="fill:#e9e1d0;fill-opacity:1" />
</svg>
