<?xml version="1.0" encoding="UTF-8" standalone="no"?>
<!-- Generator: Adobe Illustrator 26.0.3, SVG Export Plug-In . SVG Version: 6.00 Build 0)  -->

<svg
   version="1.1"
   id="Layer_1"
   x="0px"
   y="0px"
   viewBox="0 0 264.00046 44.203587"
   xml:space="preserve"
   sodipodi:docname="ggh.svg"
   width="264.00046"
   height="44.203587"
   inkscape:version="1.1.2 (b8e25be833, 2022-02-05)"
   xmlns:inkscape="http://www.inkscape.org/namespaces/inkscape"
   xmlns:sodipodi="http://sodipodi.sourceforge.net/DTD/sodipodi-0.dtd"
   xmlns="http://www.w3.org/2000/svg"
   xmlns:svg="http://www.w3.org/2000/svg"><defs
   id="defs23" /><sodipodi:namedview
   id="namedview21"
   pagecolor="#ffffff"
   bordercolor="#666666"
   borderopacity="1.0"
   inkscape:pageshadow="2"
   inkscape:pageopacity="0.0"
   inkscape:pagecheckerboard="0"
   showgrid="false"
   inkscape:zoom="0.55104167"
   inkscape:cx="959.09263"
   inkscape:cy="540.79395"
   inkscape:window-width="2560"
   inkscape:window-height="1387"
   inkscape:window-x="-8"
   inkscape:window-y="-8"
   inkscape:window-maximized="1"
   inkscape:current-layer="Layer_1" />
<style
   type="text/css"
   id="style2">
	.st0{fill:#E9E1D0;}
</style>
<g
   transform="matrix(0.44,0,0,0.435372,4.6201548e-4,0.00377016)"
   id="g15"
   style="fill:#e9e1d0;fill-opacity:1">
	<path
   id="path5"
   class="st0"
   d="m 225.7,59.6 c -5.1,6.9 -10.1,8.8 -12.3,9.9 -2.2,1.1 -5.5,1.9 -8.4,1.9 -8.1,0 -14.5,-2.7 -19.1,-7.9 -4.6,-5.3 -6.8,-12.7 -6.8,-22.4 0,-11.4 2.9,-21.1 8.7,-29.1 5.8,-8 13.4,-11.9 23,-11.9 7.2,0 13.2,2 17.8,6.1 4.6,4.1 6.9,10.5 6.9,19.2 h -14 c 0,-4.2 -0.9,-7.1 -2.8,-8.8 -1.8,-1.7 -4.5,-2.5 -7.9,-2.5 -5.6,0 -10,2.8 -13.1,8.2 -3.1,5.5 -4.6,11.8 -4.6,18.8 0,4.8 1,8.7 3,11.7 2,3.1 5,4.6 9,4.6 4.2,0 7.4,-1.2 9.7,-3.5 2.3,-2.3 4,-5.4 5.1,-9.1 H 207 l 2.1,-12.7 h 25.4 l -2.2,12.3 c 0.1,-0.1 -1.5,8.3 -6.6,15.2 z"
   style="fill:#e9e1d0;fill-opacity:1" />
	<polygon
   id="polygon9"
   class="st0"
   points="323.1,69.7 332.8,17 311.5,69.7 301.4,69.7 296.8,17.1 289.5,69.7 277.1,69.7 288.4,1.8 305.8,1.8 309.7,49.6 329.2,1.6 346.7,1.8 335.4,69.7 "
   style="fill:#e9e1d0;fill-opacity:1" />
	<polygon
   id="polygon11"
   class="st0"
   points="377.6,41.2 357.6,41.2 355.1,55.7 377.6,55.7 375.4,69.7 339.8,69.7 351.1,1.7 386.3,1.7 384.1,15.8 361.9,15.8 359.7,28.1 379.7,28.1 "
   style="fill:#e9e1d0;fill-opacity:1" />
	<path
   id="path13"
   class="st0"
   d="m 253,1.6 -27.4,68 H 239 l 4.9,-13.3 h 17.5 l 1.1,13.3 h 12.9 l -7.7,-68 z m -4.9,43.2 9.9,-27.1 2.3,27.1 z"
   style="fill:#e9e1d0;fill-opacity:1" />
	<path
   id="path5_1_"
   class="st0"
   d="m 455.4,59.6 c -5.1,6.9 -10.1,8.8 -12.3,9.9 -2.2,1.1 -5.5,1.9 -8.4,1.9 -8.1,0 -14.5,-2.7 -19,-7.9 -4.6,-5.3 -6.8,-12.8 -6.8,-22.4 0,-11.4 2.9,-21.1 8.7,-29.1 5.8,-8 13.4,-11.9 23,-11.9 7.2,0 13.2,2 17.8,6.1 4.6,4.1 6.9,10.5 6.9,19.2 h -14 c 0,-4.2 -0.9,-7.1 -2.8,-8.8 -1.8,-1.7 -4.5,-2.5 -7.9,-2.5 -5.6,0 -10,2.8 -13.1,8.2 -3.1,5.5 -4.6,11.8 -4.6,18.8 0,4.8 1,8.7 3,11.7 2,3.1 5,4.6 9,4.6 4.2,0 7.4,-1.2 9.7,-3.5 2.3,-2.3 4,-5.4 5.1,-9.1 h -13 l 2.1,-12.7 h 25.5 L 462,44.3 c 0,0 -1.6,8.4 -6.6,15.3 z"
   style="fill:#e9e1d0;fill-opacity:1" />
	<polygon
   id="polygon15"
   class="st0"
   points="499.5,41.2 479.4,41.2 476.8,55.7 499.5,55.7 497.2,69.7 461.6,69.7 472.9,1.7 508.1,1.7 505.9,15.8 483.8,15.8 481.5,28.1 501.5,28.1 "
   style="fill:#e9e1d0;fill-opacity:1" />
	<path
   id="path17"
   class="st0"
   d="m 525.8,1.7 -27.4,68 h 13.4 l 4.9,-13.3 h 17.5 l 1.1,13.3 h 12.9 l -7.7,-68 z m -4.9,43.1 9.9,-27.1 2.3,27.1 z"
   style="fill:#e9e1d0;fill-opacity:1" />
	<path
   id="path19"
   class="st0"
   d="m 568.8,31.6 3,-16.7 h 7.1 c 2.6,0 4.6,0.5 5.9,1.4 1.3,1 2,2.9 2,5.8 0,3.2 -1.1,5.6 -3.2,7.2 -2.1,1.6 -4.8,2.4 -8.1,2.4 h -6.7 z m -8,-29.9 -11.3,68 h 13 l 4.4,-25.9 h 6 L 583,69.7 h 14.9 L 586.8,41 c 3.9,-2 7.2,-5.3 9.6,-8.7 2.4,-3.5 3.6,-7.7 3.6,-12.4 0,-6.4 -1.4,-11 -4.3,-13.9 -2.9,-2.9 -7,-4.3 -12.2,-4.3 z"
   style="fill:#e9e1d0;fill-opacity:1" />
	<path
   id="path21"
   class="st0"
   d="M 10.9,27.8 C 22.4,8.5 38.2,-3.5 46.2,0.9 54.2,5.3 51.4,24.5 39.9,43.8 28.4,63 12.6,75.1 4.6,70.7 -3.5,66.3 -0.6,47.1 10.9,27.8 Z"
   style="fill:#e9e1d0;fill-opacity:1" />
	<path
   id="path21_2_"
   class="st0"
   d="M 62.3,27.8 C 73.8,8.5 89.6,-3.5 97.6,0.9 c 8,4.4 5.2,23.6 -6.3,42.9 C 79.8,63 64,75.1 56,70.7 47.9,66.3 50.8,47.1 62.3,27.8 Z"
   style="fill:#e9e1d0;fill-opacity:1" />
	<path
   id="path21_3_"
   class="st0"
   d="M 113.7,27.8 C 125.2,8.5 141,-3.5 149,0.9 c 8,4.4 5.2,23.6 -6.3,42.9 -11.5,19.3 -27.3,31.3 -35.3,26.9 -8.1,-4.4 -5.2,-23.6 6.3,-42.9 z"
   style="fill:#e9e1d0;fill-opacity:1" />
</g>
<path
   class="st0"
   d="m 83.60057,43.803585 h -2.5 v -2.7 h -1.8 v 2.7 h -2.5 v -7.6 h 2.5 v 2.7 h 1.8 v -2.7 h 2.5 z m 3.3,-1.2 -0.3,1.2 h -2.6 l 2,-7.6 h 3.8 l 2,7.6 h -2.6 l -0.2,-1.2 z m 1.1,-4.1 h -0.1 l -0.5,2.1 h 1.1 z m 9.4,3.1 0.2,2 c -0.5,0.2 -1.2,0.3 -1.9,0.3 -0.8,0 -1.4,-0.1 -1.9,-0.2 -0.5,-0.2 -0.8,-0.4 -1.1,-0.8 -0.3,-0.4 -0.5,-0.8 -0.6,-1.2 -0.1,-0.4 -0.1,-1 -0.1,-1.7 0,-0.7 0.1,-1.3 0.2,-1.7 0.1,-0.5 0.3,-0.9 0.6,-1.2 0.5,-0.7 1.5,-1 2.9,-1 0.3,0 0.7,0 1.1,0.1 0.4,0.1 0.7,0.1 0.9,0.2 l -0.4,1.9 c -0.5,-0.1 -1,-0.2 -1.5,-0.2 -0.4,0 -0.8,0 -0.9,0.1 -0.2,0.1 -0.3,0.2 -0.3,0.5 v 3.2 c 0.3,0.1 0.6,0.1 1,0.1 0.7,-0.1 1.3,-0.2 1.8,-0.4 z m 3.6,-1.1 v 0 3.3 h -2.5 v -7.6 h 2.5 v 3.1 0 c 0,-0.2 0.1,-0.4 0.1,-0.6 l 1.2,-2.5 h 2.7 l -1.8,3.7 1.9,3.9 h -2.7 l -1.3,-2.7 c 0,-0.2 -0.1,-0.4 -0.1,-0.6 z m 4.5,3.2 0.3,-2 c 0.8,0.2 1.4,0.3 2,0.3 0.6,0 1.1,0 1.5,-0.1 v -0.6 l -1.1,-0.1 c -1,-0.1 -1.7,-0.3 -2.1,-0.7 -0.4,-0.4 -0.6,-1 -0.6,-1.7 0,-1 0.2,-1.8 0.7,-2.1 0.5,-0.4 1.2,-0.6 2.3,-0.6 1.1,0 2.1,0.1 3,0.3 l -0.3,2 c -0.8,-0.1 -1.4,-0.2 -1.8,-0.2 -0.4,0 -0.9,0 -1.2,0.1 v 0.6 l 0.9,0.1 c 1.1,0.1 1.8,0.4 2.2,0.8 0.4,0.4 0.6,1 0.6,1.7 0,0.5 -0.1,0.9 -0.2,1.3 -0.1,0.4 -0.3,0.6 -0.5,0.8 -0.2,0.2 -0.5,0.3 -0.8,0.4 -0.4,0.1 -0.7,0.2 -0.9,0.2 -0.3,0 -0.6,0 -1.1,0 -1,-0.2 -2,-0.3 -2.9,-0.5 z m 11.4,-2.8 h -1.9 v -1.8 h 1.9 v -1.9 h 1.8 v 1.9 h 1.9 v 1.8 h -1.9 v 1.9 h -1.8 z m 13.9,2.9 h -2.5 v -2.7 h -1.8 v 2.7 h -2.5 v -7.6 h 2.5 v 2.7 h 1.8 v -2.7 h 2.5 z m 0.8,-3.8 c 0,-1.4 0.3,-2.4 0.8,-3 0.5,-0.6 1.5,-1 2.8,-1 1.4,0 2.3,0.3 2.8,1 0.5,0.6 0.8,1.7 0.8,3 0,0.7 -0.1,1.3 -0.2,1.7 -0.1,0.5 -0.3,0.9 -0.6,1.2 -0.3,0.3 -0.6,0.6 -1.1,0.8 -0.5,0.2 -1.1,0.2 -1.8,0.2 -0.7,0 -1.3,-0.1 -1.8,-0.2 -0.5,-0.2 -0.9,-0.4 -1.1,-0.8 -0.3,-0.4 -0.5,-0.8 -0.6,-1.2 0.1,-0.4 0,-1 0,-1.7 z m 2.7,-1.3 v 3.2 h 1 c 0.3,0 0.6,0 0.7,-0.1 0.2,-0.1 0.2,-0.3 0.2,-0.5 v -3.2 h -1 c -0.3,0 -0.6,0 -0.7,0.1 -0.1,0.1 -0.2,0.3 -0.2,0.5 z m 7.9,1.4 -0.1,3.7 h -2.6 l 0.5,-7.6 h 3.2 l 1,3.9 h 0.1 l 1,-3.9 h 3.2 l 0.5,7.6 h -2.6 l -0.2,-3.7 h -0.2 l -0.9,3.7 h -1.9 z m 12.5,-0.9 v 1.8 h -2.5 v 0.9 h 3 v 2 h -5.5 v -7.6 h 5.4 l -0.3,2 h -2.6 v 1 h 2.5 z m 6,4.6 h -4.4 v -7.6 h 4 c 0.7,0 1.3,0.1 1.6,0.4 0.3,0.3 0.5,0.7 0.5,1.2 0,0.5 -0.1,1 -0.3,1.3 -0.2,0.3 -0.5,0.5 -0.8,0.6 v 0.1 c 1,0.2 1.5,0.8 1.5,2 0,0.6 -0.2,1.1 -0.5,1.5 -0.4,0.3 -0.9,0.5 -1.6,0.5 z m -1,-3 h -1 v 1.2 h 1 c 0.3,0 0.5,-0.2 0.5,-0.6 0,-0.4 -0.2,-0.6 -0.5,-0.6 z m -0.2,-2.9 h -0.8 v 1.1 h 0.8 c 0.3,0 0.5,-0.2 0.5,-0.6 0,-0.3 -0.2,-0.5 -0.5,-0.5 z m 9.5,3.4 1.3,2.5 h -2.7 l -1,-2.3 h -0.6 v 2.3 h -2.5 v -7.6 h 3.9 c 1.8,0 2.6,0.9 2.6,2.7 0.1,1.2 -0.3,2 -1,2.4 z m -2.4,-3.2 h -0.6 v 1.5 h 0.6 c 0.3,0 0.5,0 0.6,-0.1 0.1,-0.1 0.2,-0.2 0.2,-0.4 v -0.5 c 0,-0.2 -0.1,-0.4 -0.2,-0.4 -0.1,0 -0.3,-0.1 -0.6,-0.1 z m 9.5,1.1 v 1.8 h -2.5 v 0.9 h 3 v 2 h -5.5 v -7.6 h 5.4 l -0.3,2 h -2.6 v 1 h 2.5 z m 7.9,1.3 0.6,-4.3 h 2.6 l -1.2,7.6 h -3.2 l -0.6,-2.8 h -0.2 l -0.6,2.8 h -3.2 l -1.2,-7.6 h 2.6 l 0.6,4.3 h 0.1 l 0.9,-4.3 h 1.9 z"
   id="path18"
   style="fill:#e9e1d0;fill-opacity:1" />
</svg>
