<?xml version="1.0" encoding="UTF-8" standalone="no"?>
<!-- Generator: Adobe Illustrator 26.0.3, SVG Export Plug-In . SVG Version: 6.00 Build 0)  -->

<svg
   version="1.1"
   id="Layer_1"
   x="0px"
   y="0px"
   viewBox="0 0 264 96.900002"
   xml:space="preserve"
   sodipodi:docname="mastersystem.svg"
   width="264"
   height="96.900002"
   inkscape:version="1.1.2 (b8e25be833, 2022-02-05)"
   xmlns:inkscape="http://www.inkscape.org/namespaces/inkscape"
   xmlns:sodipodi="http://sodipodi.sourceforge.net/DTD/sodipodi-0.dtd"
   xmlns="http://www.w3.org/2000/svg"
   xmlns:svg="http://www.w3.org/2000/svg"><defs
   id="defs28" /><sodipodi:namedview
   id="namedview26"
   pagecolor="#ffffff"
   bordercolor="#666666"
   borderopacity="1.0"
   inkscape:pageshadow="2"
   inkscape:pageopacity="0.0"
   inkscape:pagecheckerboard="0"
   showgrid="false"
   inkscape:zoom="0.55104167"
   inkscape:cx="959.09263"
   inkscape:cy="540.79395"
   inkscape:window-width="2560"
   inkscape:window-height="1387"
   inkscape:window-x="-8"
   inkscape:window-y="-8"
   inkscape:window-maximized="1"
   inkscape:current-layer="Layer_1" />
<style
   type="text/css"
   id="style2">
	.st0{fill:#E9E1D0;}
</style>
<path
   id="path5"
   class="st0"
   d="M 63.1,45.5 H 82.9 C 91,45.5 97.6,38.9 97.6,30.8 97.6,22.7 91,16.1 82.9,16.1 H 77.7 C 77.3,16.1 77,15.8 77,15.4 77,15 77.3,14.6 77.7,14.6 H 97.5 V 8.4 H 77.8 c -3.8,0 -6.9,3.1 -6.9,6.9 0,3.9 3.1,7 6.9,7 H 83 c 4.6,0 8.4,3.8 8.4,8.4 0,4.6 -3.8,8.4 -8.4,8.4 H 63.1 Z"
   style="fill:#e9e1d0;fill-opacity:1" />
<path
   id="path7"
   class="st0"
   d="m 63.1,37.8 h 19.8 c 3.9,0 7,-3.1 7,-7 0,-3.8 -3.1,-7 -7,-7 h -5.2 c -4.6,0 -8.4,-3.8 -8.4,-8.5 0,-4.6 3.7,-8.4 8.4,-8.4 H 97.5 V 0.6 H 77.8 c -8.1,0 -14.7,6.6 -14.7,14.7 0,8.1 6.6,14.7 14.7,14.7 h 5.1 c 0.4,0 0.7,0.3 0.7,0.7 0,0.4 -0.3,0.7 -0.7,0.7 H 63.1 Z"
   style="fill:#e9e1d0;fill-opacity:1" />
<path
   id="path9"
   class="st0"
   d="m 113,39.3 c -3.4,0 -6.2,-2.7 -6.2,-6.2 v -20 C 106.8,9.8 109.6,7 113,7 h 21.2 V 0.7 H 113 c -6.9,0 -12.5,5.6 -12.5,12.5 V 33 c 0,6.9 5.6,12.5 12.5,12.5 h 21.1 v -6.2 z"
   style="fill:#e9e1d0;fill-opacity:1" />
<path
   id="path11"
   class="st0"
   d="m 108.3,13.2 c 0,-2.6 2.1,-4.8 4.7,-4.8 h 21.2 v 6.2 H 116 c -1.5,0 -1.5,1.5 -1.5,1.5 h 15.2 v 6.2 h -21.4 z"
   style="fill:#e9e1d0;fill-opacity:1" />
<path
   id="path13"
   class="st0"
   d="m 113,37.8 c -2.6,0 -4.7,-2.1 -4.7,-4.7 v -9.2 h 21.4 v 6.2 h -15.2 c 0,1.5 1.5,1.5 1.5,1.5 h 18.2 v 6.2 z"
   style="fill:#e9e1d0;fill-opacity:1" />
<path
   id="path15"
   class="st0"
   d="m 149,39.3 c -3.5,0 -6.3,-2.8 -6.3,-6.2 V 13.2 c 0,-3.4 2.8,-6.2 6.2,-6.2 h 20.5 V 0.7 H 149 c -6.9,0 -12.5,5.6 -12.5,12.5 V 33 c 0,6.9 5.6,12.5 12.5,12.5 h 20.5 V 16.1 h -17.6 v 6.2 h 11.4 V 39.2 H 149 Z"
   style="fill:#e9e1d0;fill-opacity:1" />
<path
   id="path17"
   class="st0"
   d="m 144.2,33 c 0,2.6 2.2,4.8 4.8,4.8 h 12.8 v -14 h -9.9 v 6.3 h 3.7 v 1.5 h -3.7 c -0.8,0 -1.5,-0.7 -1.5,-1.5 v -14 c 0,0 0,-1.5 1.5,-1.5 h 17.6 V 8.4 H 149 c -2.6,0 -4.8,2.2 -4.8,4.8 z"
   style="fill:#e9e1d0;fill-opacity:1" />
<path
   id="path19"
   class="st0"
   d="m 188.8,8.4 c 0.3,-0.8 1,-1.4 1.9,-1.4 0.9,0 1.6,0.6 1.9,1.4 l 9.9,29.5 H 188 V 31 h 4.9 l -2.2,-6.6 -7.2,21.1 h -7.3 z"
   style="fill:#e9e1d0;fill-opacity:1" />
<path
   id="path21"
   class="st0"
   d="M 204.6,39.3 H 188 v 6.2 h 25.2 L 200.1,6.6 C 199,2.8 195.2,0 190.7,0 c -4.5,0 -8.3,2.8 -9.4,6.6 l -13.2,38.9 h 6.6 L 187.5,7.7 c 0.5,-1.3 1.8,-2.1 3.2,-2.1 1.4,0 2.6,0.9 3.2,2.1 z"
   style="fill:#e9e1d0;fill-opacity:1" />
<path
   id="path6717"
   class="st0"
   d="M 43.2,86.1 H 27.8 v -1.7 c 0.6,0 1.3,-0.1 2.1,-0.2 0.9,-0.1 1.5,-0.2 1.8,-0.4 0.5,-0.3 0.9,-0.7 1.1,-1.1 0.2,-0.4 0.4,-0.9 0.4,-1.5 V 55.9 H 32.8 L 20.9,85.6 H 19.7 L 8.4,55.3 H 8.1 v 20.8 c 0,2 0.1,3.5 0.4,4.6 0.3,1 0.6,1.8 1.2,2.3 0.4,0.3 1.1,0.7 2.2,1 1.1,0.3 1.9,0.5 2.2,0.5 v 1.7 H 0 v -1.7 c 0.7,-0.1 1.5,-0.2 2.3,-0.4 0.8,-0.2 1.4,-0.4 1.9,-0.8 0.6,-0.5 1,-1.2 1.2,-2.1 0.2,-0.9 0.3,-2.5 0.3,-4.8 V 58.5 C 5.7,57.5 5.6,56.6 5.3,56 5.1,55.3 4.7,54.8 4.2,54.4 3.7,54 3.1,53.6 2.3,53.4 1.6,53.2 0.8,53.1 0.1,53 V 51.3 H 12 l 10,26.1 8.5,-21.8 c 0.3,-0.8 0.6,-1.6 0.8,-2.5 0.2,-0.9 0.3,-1.5 0.4,-1.8 H 43.1 V 53 c -0.5,0 -1,0.1 -1.8,0.2 -0.7,0.1 -1.2,0.3 -1.6,0.4 -0.6,0.2 -0.9,0.5 -1.1,1 -0.2,0.5 -0.3,1 -0.3,1.5 v 25.1 c 0,0.6 0.1,1.1 0.3,1.4 0.2,0.4 0.6,0.7 1.1,1 0.3,0.2 0.8,0.3 1.6,0.5 0.8,0.1 1.4,0.2 1.8,0.2 l 0.1,1.8 z"
   style="fill:#e9e1d0;fill-opacity:1" />
<path
   id="path6719"
   class="st0"
   d="m 64.9,85.7 c -0.8,0.3 -1.4,0.5 -2,0.7 -0.6,0.2 -1.2,0.3 -2,0.3 -1.3,0 -2.3,-0.3 -3.1,-0.9 -0.8,-0.6 -1.2,-1.5 -1.5,-2.6 h -0.1 c -1.1,1.2 -2.2,2.1 -3.4,2.7 -1.2,0.6 -2.7,0.9 -4.4,0.9 -1.8,0 -3.3,-0.6 -4.5,-1.7 -1.2,-1.1 -1.8,-2.6 -1.8,-4.4 0,-0.9 0.1,-1.8 0.4,-2.5 0.3,-0.7 0.7,-1.4 1.2,-2 0.4,-0.5 1,-0.9 1.6,-1.3 0.7,-0.4 1.3,-0.7 1.9,-0.9 0.7,-0.3 2.2,-0.8 4.5,-1.5 2.2,-0.8 3.8,-1.3 4.6,-1.8 v -2.4 c 0,-0.2 0,-0.6 -0.1,-1.2 -0.1,-0.6 -0.3,-1.2 -0.6,-1.7 -0.3,-0.6 -0.8,-1.1 -1.4,-1.6 -0.6,-0.4 -1.4,-0.7 -2.5,-0.7 -0.8,0 -1.5,0.1 -2.1,0.4 -0.6,0.3 -1.1,0.5 -1.4,0.8 0,0.3 0.1,0.8 0.2,1.4 0.2,0.6 0.2,1.2 0.2,1.8 0,0.6 -0.3,1.1 -0.8,1.6 -0.5,0.5 -1.2,0.7 -2.1,0.7 -0.8,0 -1.4,-0.3 -1.8,-0.9 -0.4,-0.6 -0.6,-1.2 -0.6,-2 0,-0.8 0.3,-1.5 0.8,-2.2 0.5,-0.7 1.2,-1.3 2.1,-1.8 0.7,-0.5 1.6,-0.8 2.7,-1.2 1,-0.3 2.1,-0.5 3.1,-0.5 1.4,0 2.6,0.1 3.6,0.3 1,0.2 2,0.6 2.8,1.2 0.8,0.6 1.5,1.4 1.9,2.5 0.4,1 0.7,2.4 0.7,4 0,2.3 0,4.4 -0.1,6.2 0,1.8 -0.1,3.8 -0.1,5.9 0,0.6 0.1,1.1 0.3,1.5 0.2,0.4 0.6,0.7 1,1 0.2,0.1 0.6,0.2 1.2,0.2 0.6,0 1.1,0 1.6,0 z m -8.5,-13 c -1.4,0.4 -2.6,0.8 -3.7,1.2 -1,0.4 -2,0.9 -2.9,1.5 -0.8,0.6 -1.5,1.2 -1.9,2 -0.5,0.8 -0.7,1.7 -0.7,2.7 0,1.4 0.4,2.4 1.1,3 0.7,0.6 1.6,1 2.7,1 1.2,0 2.2,-0.3 3.1,-0.8 0.9,-0.6 1.6,-1.2 2.2,-2 z"
   style="fill:#e9e1d0;fill-opacity:1" />
<path
   id="path6721"
   class="st0"
   d="m 78.1,74.3 c 0.7,0.6 1.2,1.3 1.5,2 0.4,0.8 0.5,1.7 0.5,2.8 0,2.2 -0.8,4.1 -2.5,5.5 -1.7,1.4 -3.9,2.1 -6.5,2.1 -1.4,0 -2.7,-0.3 -3.9,-0.8 -1.2,-0.5 -2,-1 -2.5,-1.4 l -0.5,1.6 h -1.8 l -0.2,-8.4 h 1.7 c 0.1,0.6 0.4,1.4 0.8,2.2 0.4,0.9 0.9,1.6 1.5,2.3 0.6,0.7 1.4,1.3 2.3,1.8 0.9,0.5 1.9,0.7 3,0.7 1.6,0 2.8,-0.4 3.6,-1.1 0.8,-0.7 1.3,-1.7 1.3,-3.1 0,-0.7 -0.1,-1.3 -0.4,-1.8 -0.3,-0.5 -0.7,-0.9 -1.2,-1.3 -0.5,-0.4 -1.2,-0.7 -2,-1 -0.8,-0.3 -1.7,-0.6 -2.6,-0.9 -0.8,-0.2 -1.6,-0.5 -2.6,-0.9 -0.9,-0.4 -1.7,-0.9 -2.4,-1.4 -0.7,-0.6 -1.3,-1.3 -1.8,-2.1 -0.5,-0.8 -0.7,-1.8 -0.7,-2.9 0,-2 0.7,-3.7 2.2,-5 1.5,-1.4 3.4,-2.1 5.9,-2.1 0.9,0 1.9,0.1 2.9,0.4 1,0.2 1.8,0.5 2.4,0.9 l 0.6,-1.3 h 1.8 l 0.4,7.8 h -1.7 c -0.3,-1.7 -1.1,-3.1 -2.2,-4.2 -1.1,-1.1 -2.5,-1.6 -4.2,-1.6 -1.3,0 -2.4,0.3 -3.2,1 -0.8,0.7 -1.2,1.5 -1.2,2.4 0,0.7 0.1,1.4 0.4,1.8 0.3,0.5 0.6,0.9 1.1,1.3 0.5,0.3 1.1,0.6 1.9,0.9 0.7,0.3 1.7,0.6 2.8,1 1.1,0.3 2.1,0.7 3.1,1.2 1,0.5 1.8,1 2.4,1.6 z"
   style="fill:#e9e1d0;fill-opacity:1" />
<path
   id="path6723"
   class="st0"
   d="m 93.6,85.1 c -1.1,0.4 -2.1,0.8 -3,1.1 -0.9,0.3 -2.1,0.5 -3.5,0.5 -2,0 -3.5,-0.5 -4.3,-1.5 -0.8,-1 -1.2,-2.5 -1.2,-4.3 V 64.4 H 77.2 V 62 h 4.5 v -7.5 h 4.5 V 62 H 93 v 2.4 h -6.9 v 13.5 c 0,1 0,1.9 0.1,2.5 0.1,0.7 0.2,1.3 0.5,1.8 0.3,0.5 0.7,0.8 1.2,1.1 0.5,0.2 1.2,0.4 2.1,0.4 0.4,0 1,0 1.8,-0.1 0.8,-0.1 1.4,-0.2 1.7,-0.3 v 1.8 z"
   style="fill:#e9e1d0;fill-opacity:1" />
<path
   id="path6725"
   class="st0"
   d="m 112.3,80.4 c -1,1.9 -2.4,3.5 -4.1,4.6 -1.7,1.1 -3.7,1.7 -5.9,1.7 -1.9,0 -3.7,-0.3 -5.1,-1 -1.5,-0.7 -2.7,-1.6 -3.6,-2.8 -0.9,-1.2 -1.7,-2.6 -2.1,-4.1 -0.5,-1.6 -0.7,-3.2 -0.7,-5 0,-1.6 0.2,-3.1 0.7,-4.6 0.5,-1.5 1.2,-2.9 2.2,-4.1 0.9,-1.2 2.1,-2.1 3.5,-2.8 1.4,-0.7 2.9,-1.1 4.7,-1.1 1.8,0 3.3,0.3 4.5,0.8 1.3,0.6 2.3,1.3 3.1,2.3 0.8,0.9 1.3,2 1.7,3.2 0.4,1.2 0.6,2.6 0.6,4 v 1.6 h -16 c 0,1.6 0.2,3 0.5,4.3 0.3,1.3 0.8,2.4 1.4,3.4 0.6,1 1.5,1.7 2.5,2.2 1,0.6 2.3,0.8 3.7,0.8 1.5,0 2.7,-0.3 3.8,-1 1.1,-0.7 2.1,-1.9 3.1,-3.7 z m -5.5,-9.2 c 0,-0.9 -0.1,-1.9 -0.2,-2.9 -0.2,-1 -0.4,-1.9 -0.7,-2.6 -0.4,-0.8 -0.9,-1.4 -1.5,-1.8 -0.7,-0.5 -1.5,-0.7 -2.5,-0.7 -1.7,0 -3.1,0.7 -4.3,2.1 -1.1,1.4 -1.8,3.4 -1.9,6 h 11.1 z"
   style="fill:#e9e1d0;fill-opacity:1" />
<path
   id="path6727"
   class="st0"
   d="m 128.4,65.1 c 0,0.8 -0.2,1.6 -0.6,2.2 -0.4,0.6 -1,1 -1.9,1 -0.9,0 -1.6,-0.2 -2.1,-0.7 -0.5,-0.5 -0.7,-1 -0.7,-1.6 0,-0.4 0,-0.7 0.1,-1 0.1,-0.3 0.1,-0.6 0.2,-0.9 -0.8,0 -1.7,0.3 -2.7,0.9 -1,0.6 -1.9,1.5 -2.6,2.7 v 14.1 c 0,0.6 0.1,1 0.3,1.4 0.2,0.4 0.6,0.6 1,0.8 0.4,0.2 0.9,0.3 1.6,0.4 0.6,0.1 1.2,0.1 1.7,0.2 v 1.6 h -12.8 v -1.6 c 0.4,0 0.8,-0.1 1.2,-0.1 0.4,0 0.7,-0.1 1,-0.2 0.5,-0.1 0.8,-0.4 1,-0.8 0.2,-0.4 0.3,-0.8 0.3,-1.4 v -15 c 0,-0.5 -0.1,-1 -0.4,-1.5 -0.2,-0.5 -0.6,-0.9 -1,-1.2 -0.3,-0.2 -0.7,-0.3 -1.1,-0.4 -0.4,-0.1 -0.9,-0.1 -1.4,-0.2 v -1.6 l 8,-0.5 0.5,0.3 v 3.4 h 0.1 c 1,-1.3 2.1,-2.3 3.4,-3 1.2,-0.7 2.4,-1 3.4,-1 1,0 1.9,0.3 2.5,1 0.7,0.6 1,1.5 1,2.7 z"
   style="fill:#e9e1d0;fill-opacity:1" />
<path
   id="path6729"
   class="st0"
   d="m 154.6,70.2 c 0.7,0.8 1.3,1.7 1.6,2.7 0.4,1 0.5,2.1 0.5,3.4 0,3.1 -1.1,5.6 -3.4,7.6 -2.3,2 -5.1,3 -8.5,3 -1.6,0 -3.1,-0.2 -4.7,-0.7 -1.6,-0.5 -2.9,-1.1 -4,-1.8 l -1.1,1.8 h -2 l -0.3,-11.9 h 2 c 0.4,1.5 0.9,2.8 1.4,4 0.5,1.2 1.3,2.3 2.2,3.3 0.9,1 1.8,1.7 3,2.3 1.1,0.6 2.5,0.9 4,0.9 1.1,0 2.1,-0.1 3,-0.4 0.8,-0.3 1.5,-0.7 2,-1.3 0.5,-0.5 0.9,-1.2 1.2,-1.9 0.3,-0.7 0.4,-1.6 0.4,-2.5 0,-1.4 -0.4,-2.7 -1.2,-3.9 -0.8,-1.2 -2,-2.1 -3.5,-2.7 -1.1,-0.4 -2.3,-0.9 -3.7,-1.4 -1.4,-0.5 -2.6,-1 -3.6,-1.5 -2,-0.9 -3.5,-2 -4.6,-3.5 -1.1,-1.4 -1.6,-3.3 -1.6,-5.6 0,-1.3 0.3,-2.6 0.8,-3.7 0.5,-1.1 1.3,-2.2 2.3,-3.1 0.9,-0.8 2.1,-1.5 3.4,-2 1.3,-0.5 2.6,-0.7 4.1,-0.7 1.6,0 3,0.2 4.3,0.7 1.3,0.5 2.4,1.1 3.5,1.7 l 1,-1.7 h 2 l 0.2,11.6 h -2 c -0.4,-1.3 -0.8,-2.6 -1.2,-3.8 -0.4,-1.2 -1,-2.3 -1.8,-3.3 -0.7,-0.9 -1.6,-1.7 -2.6,-2.3 -1,-0.6 -2.3,-0.8 -3.7,-0.8 -1.6,0 -2.9,0.5 -4,1.5 -1.1,1 -1.6,2.2 -1.6,3.7 0,1.5 0.4,2.8 1.1,3.7 0.7,1 1.7,1.8 3.1,2.4 1.2,0.6 2.4,1.1 3.5,1.5 1.2,0.4 2.3,0.9 3.4,1.3 1,0.4 1.9,0.9 2.8,1.4 0.8,0.6 1.6,1.2 2.3,2 z"
   style="fill:#e9e1d0;fill-opacity:1" />
<path
   id="path6731"
   class="st0"
   d="m 153.4,94 c 0,-0.8 0.2,-1.5 0.7,-2 0.4,-0.5 1,-0.8 1.7,-0.8 0.5,0 1,0.1 1.4,0.3 0.4,0.2 0.7,0.5 1,0.8 0.2,0.2 0.5,0.6 0.8,1 0.3,0.4 0.5,0.8 0.7,1.1 0.8,-0.4 1.8,-1.6 2.9,-3.5 1.1,-1.9 2,-3.5 2.5,-4.9 -1.6,-3.9 -3,-7.3 -4.2,-10.4 -1.3,-3.1 -2.6,-6.2 -4,-9.5 -0.3,-0.8 -0.8,-1.3 -1.6,-1.8 -0.7,-0.4 -1.5,-0.7 -2.2,-0.8 v -1.6 h 11 v 1.7 c -0.5,0 -1.1,0.1 -1.8,0.3 -0.7,0.2 -1,0.4 -1,0.7 0,0.1 0,0.3 0.1,0.5 0.1,0.2 0.2,0.5 0.3,0.7 0.6,1.6 1.6,4 2.8,7 1.3,3.1 2.3,5.5 3,7.3 0.7,-1.8 1.5,-3.6 2.3,-5.4 0.8,-1.9 1.7,-4.1 2.7,-6.6 0.1,-0.3 0.3,-0.7 0.5,-1.3 0.2,-0.5 0.3,-1 0.3,-1.4 0,-0.4 -0.4,-0.8 -1.1,-1.2 -0.7,-0.4 -1.5,-0.6 -2.1,-0.7 v -1.6 h 9 v 1.5 c -0.5,0.1 -1.1,0.4 -1.9,0.8 -0.8,0.5 -1.4,1.2 -1.8,2 -1.9,4.5 -3.7,8.6 -5.2,12.3 -1.5,3.7 -2.7,6.4 -3.4,8.2 -1,2.3 -2,4.1 -2.8,5.4 -0.8,1.3 -1.6,2.3 -2.4,3 -0.8,0.7 -1.4,1.2 -2,1.4 -0.6,0.2 -1.3,0.4 -1.9,0.4 -1.3,0 -2.3,-0.3 -3,-0.9 -0.9,-0.5 -1.3,-1.2 -1.3,-2 z"
   style="fill:#e9e1d0;fill-opacity:1" />
<path
   id="path6733"
   class="st0"
   d="m 190.7,74.3 c 0.7,0.6 1.2,1.3 1.5,2 0.4,0.8 0.5,1.7 0.5,2.8 0,2.2 -0.8,4.1 -2.5,5.5 -1.7,1.4 -3.9,2.1 -6.5,2.1 -1.4,0 -2.7,-0.3 -3.9,-0.8 -1.2,-0.5 -2,-1 -2.5,-1.4 l -0.5,1.6 H 175 l -0.2,-8.4 h 1.7 c 0.1,0.6 0.4,1.4 0.8,2.2 0.4,0.9 0.9,1.6 1.5,2.3 0.6,0.7 1.4,1.3 2.3,1.8 0.9,0.5 1.9,0.7 3,0.7 1.6,0 2.8,-0.4 3.6,-1.1 0.8,-0.7 1.3,-1.7 1.3,-3.1 0,-0.7 -0.1,-1.3 -0.4,-1.8 -0.3,-0.5 -0.7,-0.9 -1.2,-1.3 -0.5,-0.4 -1.2,-0.7 -2,-1 -0.8,-0.3 -1.7,-0.6 -2.6,-0.9 -0.8,-0.2 -1.6,-0.5 -2.6,-0.9 -0.9,-0.4 -1.7,-0.9 -2.4,-1.4 -0.7,-0.6 -1.3,-1.3 -1.8,-2.1 -0.5,-0.8 -0.7,-1.8 -0.7,-2.9 0,-2 0.7,-3.7 2.2,-5 1.5,-1.4 3.4,-2.1 5.9,-2.1 0.9,0 1.9,0.1 2.9,0.4 1,0.2 1.8,0.5 2.4,0.9 l 0.6,-1.3 h 1.8 l 0.4,7.8 h -1.7 c -0.3,-1.7 -1.1,-3.1 -2.2,-4.2 -1.1,-1.1 -2.5,-1.6 -4.2,-1.6 -1.3,0 -2.4,0.3 -3.2,1 -0.8,0.7 -1.2,1.5 -1.2,2.4 0,0.7 0.1,1.4 0.4,1.8 0.3,0.5 0.6,0.9 1.1,1.3 0.5,0.3 1.1,0.6 1.9,0.9 0.7,0.3 1.7,0.6 2.8,1 1.1,0.3 2.1,0.7 3.1,1.2 1,0.5 1.8,1 2.4,1.6 z"
   style="fill:#e9e1d0;fill-opacity:1" />
<path
   id="path6735"
   class="st0"
   d="m 206.2,85.1 c -1.1,0.4 -2.1,0.8 -3,1.1 -0.9,0.3 -2.1,0.5 -3.5,0.5 -2,0 -3.5,-0.5 -4.3,-1.5 -0.8,-1 -1.2,-2.5 -1.2,-4.3 V 64.4 h -4.4 V 62 h 4.5 v -7.5 h 4.5 V 62 h 6.9 v 2.4 h -6.9 v 13.5 c 0,1 0,1.9 0.1,2.5 0.1,0.7 0.2,1.3 0.5,1.8 0.3,0.5 0.7,0.8 1.2,1.1 0.5,0.2 1.2,0.4 2.1,0.4 0.4,0 1,0 1.8,-0.1 0.8,-0.1 1.4,-0.2 1.7,-0.3 z"
   style="fill:#e9e1d0;fill-opacity:1" />
<path
   id="path6737"
   class="st0"
   d="m 224.9,80.4 c -1,1.9 -2.4,3.5 -4.1,4.6 -1.7,1.1 -3.7,1.7 -5.9,1.7 -1.9,0 -3.7,-0.3 -5.1,-1 -1.5,-0.7 -2.7,-1.6 -3.6,-2.8 -0.9,-1.2 -1.7,-2.6 -2.1,-4.1 -0.5,-1.6 -0.7,-3.2 -0.7,-5 0,-1.6 0.3,-3.1 0.7,-4.6 0.5,-1.5 1.2,-2.9 2.2,-4.1 0.9,-1.2 2.1,-2.1 3.5,-2.8 1.4,-0.7 2.9,-1.1 4.6,-1.1 1.8,0 3.3,0.3 4.5,0.8 1.3,0.6 2.3,1.3 3.1,2.3 0.8,0.9 1.3,2 1.7,3.2 0.4,1.2 0.6,2.6 0.6,4 v 1.6 h -16 c 0,1.6 0.2,3 0.5,4.3 0.3,1.3 0.8,2.4 1.4,3.4 0.6,1 1.5,1.7 2.5,2.2 1,0.6 2.3,0.8 3.7,0.8 1.5,0 2.7,-0.3 3.8,-1 1.1,-0.7 2.1,-1.9 3.1,-3.7 z m -5.4,-9.2 c 0,-0.9 -0.1,-1.9 -0.2,-2.9 -0.2,-1 -0.4,-1.9 -0.7,-2.6 -0.4,-0.8 -0.9,-1.4 -1.5,-1.8 -0.7,-0.5 -1.5,-0.7 -2.5,-0.7 -1.7,0 -3.1,0.7 -4.3,2.1 -1.1,1.4 -1.8,3.4 -1.9,6 h 11.1 z"
   style="fill:#e9e1d0;fill-opacity:1" />
<path
   id="path6739"
   class="st0"
   d="m 264,86.1 h -11.8 v -1.6 c 0.4,0 0.8,-0.1 1.1,-0.1 0.4,0 0.7,-0.1 1,-0.2 0.5,-0.1 0.8,-0.4 1,-0.8 0.2,-0.4 0.3,-0.8 0.3,-1.4 V 69.5 c 0,-1.7 -0.4,-3 -1.2,-3.9 -0.8,-0.9 -1.7,-1.4 -2.9,-1.4 -0.8,0 -1.6,0.1 -2.3,0.4 -0.7,0.2 -1.4,0.6 -1.9,1 -0.5,0.4 -0.9,0.7 -1.2,1.2 -0.3,0.4 -0.6,0.8 -0.7,1 v 14 c 0,0.6 0.1,1 0.3,1.4 0.2,0.4 0.5,0.7 1,0.8 0.4,0.1 0.7,0.3 1,0.3 0.3,0.1 0.7,0.1 1.2,0.2 v 1.6 h -11.6 v -1.6 c 0.4,0 0.7,-0.1 1.1,-0.1 0.4,0 0.7,-0.1 1,-0.2 0.5,-0.1 0.8,-0.4 1,-0.8 0.2,-0.4 0.3,-0.8 0.3,-1.4 V 69.5 c 0,-1.7 -0.4,-3 -1.2,-3.9 -0.8,-0.9 -1.7,-1.4 -2.9,-1.4 -0.8,0 -1.6,0.1 -2.3,0.4 -0.7,0.3 -1.4,0.6 -1.9,1 -0.5,0.4 -0.9,0.8 -1.2,1.2 -0.3,0.5 -0.6,0.8 -0.7,1 v 13.9 c 0,0.6 0.1,1 0.3,1.4 0.2,0.4 0.6,0.7 1,0.9 0.3,0.2 0.7,0.3 1.1,0.4 0.4,0.1 0.8,0.1 1.2,0.2 v 1.6 h -11.8 v -1.6 c 0.4,0 0.8,-0.1 1.2,-0.1 0.4,0 0.7,-0.1 1,-0.2 0.5,-0.1 0.8,-0.4 1,-0.8 0.2,-0.4 0.3,-0.8 0.3,-1.4 V 67 c 0,-0.5 -0.1,-1 -0.4,-1.4 -0.2,-0.4 -0.6,-0.8 -1,-1.1 -0.3,-0.2 -0.7,-0.4 -1.2,-0.5 -0.5,-0.1 -0.9,-0.2 -1.4,-0.2 v -1.6 l 8.1,-0.5 0.3,0.3 v 3.5 h 0.2 c 0.4,-0.4 0.9,-0.9 1.5,-1.4 0.6,-0.6 1.1,-1 1.6,-1.3 0.6,-0.4 1.3,-0.7 2.2,-1 0.9,-0.3 1.8,-0.4 2.8,-0.4 1.6,0 2.9,0.4 4,1.3 1.1,0.8 1.9,1.9 2.4,3.1 0.6,-0.6 1.1,-1.1 1.6,-1.5 0.4,-0.4 1,-0.9 1.8,-1.4 0.6,-0.4 1.4,-0.8 2.2,-1 0.8,-0.3 1.8,-0.4 2.8,-0.4 2,0 3.7,0.7 4.9,2 1.2,1.3 1.8,3.4 1.8,6.2 V 82 c 0,0.6 0.1,1 0.3,1.4 0.2,0.4 0.5,0.7 1,0.8 0.4,0.1 0.7,0.3 1.1,0.3 0.4,0.1 0.8,0.1 1.2,0.2 l 0.4,1.4 v 0 z"
   style="fill:#e9e1d0;fill-opacity:1" />
</svg>
