<?xml version="1.0" encoding="UTF-8" standalone="no"?>
<!-- Generator: Adobe Illustrator 26.0.3, SVG Export Plug-In . SVG Version: 6.00 Build 0)  -->

<svg
   version="1.1"
   id="Warstwa_1"
   x="0px"
   y="0px"
   viewBox="0 0 263.3149 64.832623"
   xml:space="preserve"
   sodipodi:docname="megadrive.svg"
   width="263.31491"
   height="64.832626"
   inkscape:version="1.1.2 (b8e25be833, 2022-02-05)"
   xmlns:inkscape="http://www.inkscape.org/namespaces/inkscape"
   xmlns:sodipodi="http://sodipodi.sourceforge.net/DTD/sodipodi-0.dtd"
   xmlns="http://www.w3.org/2000/svg"
   xmlns:svg="http://www.w3.org/2000/svg"><defs
   id="defs71" /><sodipodi:namedview
   id="namedview69"
   pagecolor="#ffffff"
   bordercolor="#666666"
   borderopacity="1.0"
   inkscape:pageshadow="2"
   inkscape:pageopacity="0.0"
   inkscape:pagecheckerboard="0"
   showgrid="false"
   inkscape:zoom="4.0197567"
   inkscape:cx="131.72439"
   inkscape:cy="32.340266"
   inkscape:window-width="2560"
   inkscape:window-height="1387"
   inkscape:window-x="-8"
   inkscape:window-y="-8"
   inkscape:window-maximized="1"
   inkscape:current-layer="Warstwa_1" />
<style
   type="text/css"
   id="style2">
	.st0{fill:#E9E1D0;}
</style>
<path
   class="st0"
   d="m 162.7,39.135246 v -16.8 h -11.2 v -6.2 H 169 v 24 l 0.3,0.1 c 0.4,-1.2 0.9,-2.4 1.3,-3.6 3.4,-9.9 6.7,-19.9 10.1,-29.8000005 1.7,-5.2 7.4,-8.1 12.6,-6.29999999 3,0.99999999 5.4,3.39999999 6.4,6.39999999 4.2,12.4000005 8.4,24.8000005 12.6,37.2000005 0.1,0.5 0.3,0.9 0.4,1.4 h -25.1 v -6.2 h 16.5 c -0.7,-2 -1.3,-3.9 -2,-5.8 L 193.5,8.1352455 c -0.4,-1.8 -2.3,-3 -4.1,-2.5 -0.1,0 -0.3,0.1 -0.4,0.1 -1.1,0.5 -2,1.4 -2.3,2.6 l -8.5,25.1000005 c -1.4,4 -2.7,8 -4.1,12.1 H 149 c -7.5,0 -12.9,-4.9 -13.1,-12.4 -0.2,-7 -0.2,-13.9 0.1,-20.9 0.3,-6.3000005 5.5,-11.30000049 11.8,-11.50000049 6.9,-0.1 13.8,0 20.6,0 0.2,0 0.3,0 0.5,0.1 V 6.9352455 H 149 c -4.2,0 -6.8,2.6 -6.8,6.8000005 v 19 c -0.2,3.5 2.5,6.4 6,6.6 0.2,0 0.4,0 0.6,0 h 12.7 c 0.4,-0.1 0.8,-0.1 1.2,-0.2 z"
   id="path4"
   style="fill:#e9e1d0;fill-opacity:1" />
<path
   class="st0"
   d="m 62.7,37.835246 v -6.3 h 18.6 c 0.3,0.1 0.6,0.1 0.9,0 0.3,-0.2 0.6,-0.5 0.9,-0.8 -0.3,-0.2 -0.6,-0.6 -0.9,-0.6 -1.6,-0.1 -3.3,0 -4.9,0 -8.1,0 -14.7,-6.6 -14.7,-14.7 0,-5.8000005 3.4,-11.0000005 8.6,-13.4000005 1.7,-0.8 3.6,-1.19999999 5.5,-1.29999999 6.6,-0.2 13.2,-0.1 19.8,-0.1 0.2,0 0.4,0 0.6,0.1 V 6.9352455 c -0.5,0 -0.9,0.1 -1.4,0.1 -6.1,0 -12.2,0 -18.4,0 -4.6,0 -8.4,3.7000005 -8.4,8.4000005 0,3.9 2.6,7.2 6.3,8.2 1.9,0.3 3.8,0.4 5.7,0.3 1.1,0 2.2,0.1 3.3,0.3 3.7,1.1 5.8,5 4.8,8.7 -0.8,2.9 -3.5,5 -6.5,5 -4.3,0.1 -8.6,0 -12.8,0 z"
   id="path6"
   style="fill:#e9e1d0;fill-opacity:1" />
<path
   class="st0"
   d="m 62.7,45.535246 v -6.3 h 1.5 c 6.1,0 12.2,0 18.4,0 4.6,0 8.4,-3.7 8.4,-8.4 0,-4 -2.8,-7.4 -6.8,-8.2 -2.1,-0.2 -4.3,-0.3 -6.5,-0.2 -2.3,0.1 -4.5,-1 -5.9,-2.9 -1.6,-2.1 -1.9,-4.8 -0.7,-7.1 1,-2.4 3.4,-4.0000005 6,-4.0000005 6.6,-0.1 13.2,0 19.8,0 0.1,0 0.2,0.1 0.3,0.1 V 14.635246 H 78.3 c -0.4,0 -0.7,0 -1.1,0.1 -0.3,0.1 -0.5,0.4 -0.6,0.7 0,0.2 0.3,0.6 0.6,0.6 0.6,0.1 1.2,0.1 1.8,0.1 2.8,0 5.6,-0.2 8.3,0.8 6.5,2.3 10.6,8.8 9.8,15.6 -1.1,7.4 -6.7,12.8 -13.9,13 -6.8,0.1 -13.6,0 -20.5,0 z"
   id="path8"
   style="fill:#e9e1d0;fill-opacity:1" />
<path
   class="st0"
   d="M 133.6,0.63524551 V 6.9352455 h -20.5 c -4.2,0 -6.8,2.6 -6.8,6.8000005 v 18.9 c -0.2,3.4 2.4,6.4 5.9,6.6 0.3,0 0.5,0 0.8,0 h 20.6 v 6.3 h -20.8 c -6.9,0.1 -12.5,-5.3 -12.6,-12.2 0,-0.1 0,-0.3 0,-0.4 0,-6.6 0,-13.1 0,-19.7 -0.1,-6.9000005 5.4,-12.50000049 12.2,-12.60000049 0.1,0 0.3,0 0.4,0 z"
   id="path10"
   style="fill:#e9e1d0;fill-opacity:1" />
<path
   class="st0"
   d="m 202,37.735246 h -14.5 v -4.5 l -0.2,-0.1 c -0.3,0.7 -0.5,1.4 -0.8,2.2 -1,3.1 -2.1,6.1 -3.1,9.2 -0.1,0.6 -0.6,1 -1.2,0.9 0,0 0,0 0,0 -2.1,0 -4.2,0 -6.5,0 1.3,-3.9 2.6,-7.6 3.8,-11.3 2.9,-8.5 5.8,-17 8.6,-25.5000005 0.2,-1 1,-1.7 2,-1.7 1.1,0 2,0.7 2.1,1.8 0,0.1 0.1,0.2 0.1,0.3 l 5.8,17.3000005 c 1.2,3.4 2.3,6.9 3.5,10.3 0.2,0.4 0.3,0.7 0.4,1.1 z m -11.8,-13.3 -2.1,6.4 h 4.3 c -0.8,-2.1 -1.4,-4.1 -2.2,-6.4 z"
   id="path12"
   style="fill:#e9e1d0;fill-opacity:1" />
<path
   class="st0"
   d="m 155,31.535246 v -1.4 h -3.5 v -6.3 h 9.8 v 14 c -0.4,0 -0.7,0.1 -1,0.1 -3.8,0 -7.6,0 -11.4,0 -3.2,0 -5.2,-2 -5.2,-5.1 0,-6.4 0,-12.8 0,-19.2 0,-3.2 2,-5.1000005 5.2,-5.1000005 h 20 v 6.3000005 h -16.7 c -1.9,0 -2.2,0.3 -2.2,2.1 v 12.6 c 0,1.6 0.5,2.1 2.1,2.2 0.9,-0.1 1.8,-0.2 2.9,-0.2 z"
   id="path14"
   style="fill:#e9e1d0;fill-opacity:1" />
<path
   class="st0"
   d="m 133.6,8.5352455 v 6.1000005 h -1.4 c -5.4,0 -10.9,0 -16.3,0 -0.9,0 -1.7,0.2 -1.9,1.4 h 1.4 c 4.2,0 8.5,0 12.7,0 0.9,0 1.2,0.3 1.1,1.2 -0.1,1.7 0,3.3 0,5.1 h -21.5 v -6.6 c 0,-0.9 0,-1.8 0,-2.8 0.1,-2.4 2,-4.4000005 4.4,-4.5000005 7,0 14.1,0 21.1,0 0.2,0 0.3,0 0.4,0.1 z"
   id="path16"
   style="fill:#e9e1d0;fill-opacity:1" />
<path
   class="st0"
   d="m 107.8,23.835246 h 21.3 v 6.2 h -15 l -0.2,0.3 c 0.3,0.4 0.7,0.7 1.1,1 0.5,0.2 0.9,0.2 1.4,0.2 h 17.1 v 6.2 h -20.4 c -3.5,0 -5.4,-1.9 -5.4,-5.4 z"
   id="path18"
   style="fill:#e9e1d0;fill-opacity:1" />
<path
   class="st0"
   d="M 65.6,53.635246 H 72 c 0,1.6 0,3.1 0,4.7 0,2.1 0.4,2.5 2.5,2.5 H 84 c 0.5,0 1,0 1.4,-0.2 0.4,-0.3 0.9,-0.8 0.8,-1.2 -0.2,-0.5 -0.6,-0.8 -1.1,-0.9 -2.1,-0.1 -4.2,0 -6.4,0 h -1.4 v -3.3 c 0.4,0 0.8,0 1.2,0 H 88 c 3.1,0 4.8,1.5 4.9,4.3 0.3,2.5 -1.6,4.7 -4.1,5 -0.2,0 -0.4,0 -0.6,0 -2,0.1 -3.9,0 -5.9,0 -3.7,0 -7.4,0 -11.1,0 -0.9,0 -1.8,-0.1 -2.7,-0.3 -1.7,-0.3 -2.9,-1.7 -2.9,-3.4 0,-2.4 0,-4.7 0,-7.2 z"
   id="path20"
   style="fill:#e9e1d0;fill-opacity:1" />
<path
   class="st0"
   d="m 240,53.435246 c 2.1,0 4,0 5.9,0 0.2,0 0.5,0.1 0.6,0.3 0.5,1.1 1.5,1.1 2.5,1.1 l 11.3,0.1 h 1.4 v 3.3 h -13.1 c -0.4,-0.1 -0.8,0 -1.2,0.1 -0.4,0.2 -0.9,0.7 -0.9,1.1 0,0.4 0.5,0.8 0.9,1 0.4,0.2 0.9,0.2 1.3,0.2 4.4,0 8.9,0.1 13.3,0 1,0 1.4,0.2 1.3,1.3 -0.2,2.5 -0.1,2.5 -2.6,2.5 -5,0 -10.1,0 -15.1,0 -2.9,0.2 -5.3,-2 -5.5,-4.9 0,-0.2 0,-0.4 0,-0.6 -0.1,-1.7 -0.1,-3.5 -0.1,-5.5 z"
   id="path22"
   style="fill:#e9e1d0;fill-opacity:1" />
<path
   class="st0"
   d="m 45.6,58.435246 c -0.3,1.7 0.1,2.3 1.8,2.3 4.4,0.1 8.8,0.1 13.2,0.2 h 1.5 v 3.5 c -0.3,0 -0.7,0.1 -1,0.1 -5.6,0 -11.2,-0.1 -16.8,-0.1 -3.6,0 -5.3,-1.7 -5.2,-5.3 v -5.5 c 2,0 3.9,0 5.8,0 0.3,0 0.5,0.2 0.6,0.4 0.3,1.1 1.1,1.3 2,1.3 h 12.7 c 0.2,0 0.5,0 0.8,0.1 v 3.2 z"
   id="path24"
   style="fill:#e9e1d0;fill-opacity:1" />
<path
   class="st0"
   d="m 222.7,59.735246 c 0.7,-1 1.3,-1.7 1.8,-2.5 0.9,-1.2 1.5,-3 2.7,-3.6 1.2,-0.6 3,-0.2 4.5,-0.2 h 2.5 c -0.3,0.5 -0.4,0.8 -0.6,1.1 -2.1,3.1 -4.2,6.1 -6.3,9.2 -0.4,0.5 -0.9,0.8 -1.5,0.8 -2.1,0.1 -4.1,0.1 -6.2,0 -0.5,0 -1,-0.2 -1.3,-0.5 -2.2,-3.4 -4.3,-6.8 -6.6,-10.5 1.2,0.1 2.3,0.1 3.5,0 2.6,-0.4 4.3,0.5 5.4,2.9 0.5,1.1 1.3,2.2 2.1,3.3 z"
   id="path26"
   style="fill:#e9e1d0;fill-opacity:1" />
<path
   class="st0"
   d="m 122.3,64.435246 h -6.6 l -0.1,-3.1 H 104 v -4.5 h 11.7 v -3.2 h 6.6 z"
   id="path28"
   style="fill:#e9e1d0;fill-opacity:1" />
<path
   class="st0"
   d="m 177,56.835246 h 8.7 c 2.3,0 2.7,-0.3 2.8,-2.7 0,-0.2 0,-0.4 0.1,-0.5 h 6.8 c 0.4,2.6 -0.2,4.8 -2.6,6.3 l 4.5,4.3 -0.2,0.4 c -0.4,0 -0.8,0.1 -1.1,0.1 -0.8,0 -1.6,0 -2.4,0 -3,0.4 -5.5,-0.4 -7.2,-3 -0.4,-0.3 -0.8,-0.5 -1.3,-0.5 -2.6,0 -5.3,0 -8,0 z"
   id="path30"
   style="fill:#e9e1d0;fill-opacity:1" />
<path
   class="st0"
   d="m 0,52.235246 c 0,-1 0,-2 0,-2.9 0,-0.2 0.4,-0.5 0.7,-0.6 0.2,-0.1 0.5,-0.1 0.7,0 9.2,0 18.5,0 27.7,0 1.1,0 2.2,0 3.2,0.2 1.6,0.2 2.9,1.6 2.8,3.3 z"
   id="path32"
   style="fill:#e9e1d0;fill-opacity:1" />
<path
   class="st0"
   d="m 164.4,53.535246 c 0.1,2.5 0.1,5 -0.1,7.5 -0.2,2 -1.9,3.5 -3.8,3.5 -5.1,0.1 -10.2,0 -15.4,0 v -3.8 h 2.5 c 2.8,0 5.6,0 8.4,0 1.7,0 2.2,-0.5 2.3,-2.2 0.1,-1.7 0,-3.3 0,-5.1 z"
   id="path34"
   style="fill:#e9e1d0;fill-opacity:1" />
<path
   class="st0"
   d="m 164.1,52.435246 h -26.4 v -3.6 h 20.2 c 1,0 1.9,0.1 2.9,0.2 1.7,0.2 3.1,1.6 3.3,3.4 z"
   id="path36"
   style="fill:#e9e1d0;fill-opacity:1" />
<path
   class="st0"
   d="m 66,52.435246 c 0.1,-1.8 1.4,-3.2 3.1,-3.5 0.9,-0.1 1.8,-0.2 2.7,-0.2 6.3,0 12.6,0 18.8,0.1 0.3,0 0.6,0 0.9,0.1 v 3.5 z"
   id="path38"
   style="fill:#e9e1d0;fill-opacity:1" />
<path
   class="st0"
   d="m 195.1,52.335246 h -25.7 c 0.4,-1.9 1.9,-3.3 3.8,-3.5 1.3,-0.1 2.6,-0.1 3.8,-0.1 4.4,0 8.9,0 13.3,0 2.2,-0.1 4.3,1.4 4.8,3.6 z"
   id="path40"
   style="fill:#e9e1d0;fill-opacity:1" />
<path
   class="st0"
   d="m 96.5,52.435246 c 0.1,-2 1.8,-3.6 3.8,-3.6 3.3,-0.1 6.5,-0.1 9.8,-0.1 2.5,0 5,0 7.5,0.1 2,0.1 3.7,1.6 4.1,3.6 z"
   id="path42"
   style="fill:#e9e1d0;fill-opacity:1" />
<path
   class="st0"
   d="m 240,52.135246 v -3.3 h 22.9 v 3.3 z"
   id="path44"
   style="fill:#e9e1d0;fill-opacity:1" />
<path
   class="st0"
   d="m 39.2,52.335246 c -0.3,-3.5 -0.3,-3.5 3,-3.5 6.1,0 12.3,0 18.4,0 h 1.5 v 3.5 z"
   id="path46"
   style="fill:#e9e1d0;fill-opacity:1" />
<path
   class="st0"
   d="m 168.8,64.435246 c 0,-3.5 0,-6.9 0,-10.3 0.1,-0.3 0.4,-0.5 0.7,-0.6 2,0 4,0 6,0 v 10.9 z"
   id="path48"
   style="fill:#e9e1d0;fill-opacity:1" />
<path
   class="st0"
   d="m 199.3,64.435246 v -11 h 6.5 v 11 z"
   id="path50"
   style="fill:#e9e1d0;fill-opacity:1" />
<path
   class="st0"
   d="m 102.7,64.435246 c -2,0 -3.8,0 -5.6,0 -0.3,0 -0.7,-0.3 -0.7,-0.5 0,-3.4 0,-6.9 0,-10.3 h 6.4 v 10.8 z"
   id="path52"
   style="fill:#e9e1d0;fill-opacity:1" />
<path
   class="st0"
   d="m 14.4,53.435246 h 6.2 v 10.7 h -6.2 z"
   id="path54"
   style="fill:#e9e1d0;fill-opacity:1" />
<path
   class="st0"
   d="m 35.2,53.535246 v 10.6 h -6 v -10.6 z"
   id="path56"
   style="fill:#e9e1d0;fill-opacity:1" />
<path
   class="st0"
   d="m 143.8,64.435246 h -6 v -10.8 h 6 z"
   id="path58"
   style="fill:#e9e1d0;fill-opacity:1" />
<path
   class="st0"
   d="M 6,64.135246 H 0 c 0,-3.4 0,-6.7 0,-10 0.1,-0.3 0.3,-0.5 0.6,-0.6 1.8,0 3.5,0 5.3,0 z"
   id="path60"
   style="fill:#e9e1d0;fill-opacity:1" />
<path
   class="st0"
   d="m 228,52.035246 c 0.6,-1 1.3,-2 2,-3 0.2,-0.2 0.4,-0.4 0.7,-0.4 2.2,0 4.4,0 6.9,0 -0.9,1.3 -1.6,2.4 -2.4,3.5 -0.2,0.2 -0.4,0.3 -0.6,0.3 -2.1,0 -4.3,0 -6.4,0 z"
   id="path62"
   style="fill:#e9e1d0;fill-opacity:1" />
<path
   class="st0"
   d="m 208.6,48.735246 c 2.2,0 4.1,0 5.9,0 0.3,0 0.7,0.2 0.9,0.4 0.7,1 1.4,2 2.1,3.2 -2.2,0 -4.2,0 -6.2,0 -0.2,0 -0.4,-0.2 -0.6,-0.3 -0.7,-1 -1.3,-2.1 -2.1,-3.3 z"
   id="path64"
   style="fill:#e9e1d0;fill-opacity:1" />
<path
   class="st0"
   d="m 199.4,52.335246 v -3.5 h 6.4 v 3.5 z"
   id="path66"
   style="fill:#e9e1d0;fill-opacity:1" />
</svg>
