<?xml version="1.0" encoding="UTF-8" standalone="no"?>
<!-- Generator: Adobe Illustrator 26.0.3, SVG Export Plug-In . SVG Version: 6.00 Build 0)  -->

<svg
   version="1.1"
   id="Warstwa_1"
   x="0px"
   y="0px"
   viewBox="0 0 226.62394 85.696458"
   xml:space="preserve"
   sodipodi:docname="megacd.svg"
   width="226.62395"
   height="85.696457"
   inkscape:version="1.1.2 (b8e25be833, 2022-02-05)"
   xmlns:inkscape="http://www.inkscape.org/namespaces/inkscape"
   xmlns:sodipodi="http://sodipodi.sourceforge.net/DTD/sodipodi-0.dtd"
   xmlns="http://www.w3.org/2000/svg"
   xmlns:svg="http://www.w3.org/2000/svg"><defs
   id="defs25" /><sodipodi:namedview
   id="namedview23"
   pagecolor="#ffffff"
   bordercolor="#666666"
   borderopacity="1.0"
   inkscape:pageshadow="2"
   inkscape:pageopacity="0.0"
   inkscape:pagecheckerboard="0"
   showgrid="false"
   inkscape:zoom="4.6690202"
   inkscape:cx="113.40709"
   inkscape:cy="43.049718"
   inkscape:window-width="2560"
   inkscape:window-height="1387"
   inkscape:window-x="-8"
   inkscape:window-y="-8"
   inkscape:window-maximized="1"
   inkscape:current-layer="Warstwa_1" />
<style
   type="text/css"
   id="style2">
	.st0{fill:#E9E1D0;}
</style>
<path
   class="st0"
   d="m 0,29.715314 c 2,-3 3.8,-5.8 5.6,-8.5 4,-6 8,-11.9999996 12,-18.0999996 1.1,-1.9 3.2,-3.10000003 5.4,-3.00000003 3.7,0.1 7.4,0 11.3,0 V 2.8153144 l 0.2,0.3 c 2.4,-3.30000003 5.8,-3.10000003 9.1,-3.00000003 3.9,0 7.6,0 11.5,0 0.3,0 0.7,0 1.1,0.1 V 29.615314 H 45.4 V 8.4153144 c -1,-0.2 -2.1,0.2 -2.7,1.1 -0.7,0.8999996 -1.3,1.7999996 -1.9,2.7999996 -3.6,5.6 -7.2,11.1 -10.8,16.7 -0.2,0.4 -0.6,0.7 -1.1,0.7 -3.4,0 -6.9,0 -10.3,0 -0.2,-0.1 -0.4,-0.1 -0.5,-0.2 l 14,-21.3999996 -0.1,-0.4 c -1.7,0 -3.5,0.2 -5.2,0.4 -0.9,0.3 -1.7,1 -2.2,1.8 -4.2,6.1999996 -8.2,12.4999996 -12.3,18.6999996 -0.3,0.7 -1,1 -1.7,1 -3.5,0 -6.9,0.1 -10.6,0.1 z"
   id="path4"
   style="fill:#e9e1d0;fill-opacity:1" />
<path
   class="st0"
   d="m 151.6,77.315314 c -0.1,-0.4 -0.2,-0.8 -0.2,-1.3 0,-2.7 0,-5.4 0,-8 0,-0.8 -0.2,-1.2 -1.1,-1.1 -1.8,0 -3.7,0 -5.7,0 0,1.3 0,2.4 0,3.5 0,0.4 -0.4,1 -0.6,1 -2.1,0.1 -4.1,0 -6.3,0 v -3.7 c 0,-3.6 0,-7.2 0,-10.8 0,-1.1 0.3,-1.4 1.3,-1.4 1.6,0 3.2,0 4.8,0.1 0.3,0 0.8,0.5 0.8,0.9 0.1,1 0,2.1 0,3.4 h 4.2 c 2.5,0 2.5,0 2.5,-2.6 0,-2.1 0,-4.2 0,-6.2 0,-0.9 -0.3,-1.3 -1.2,-1.3 -5.6,0.1 -11.1,0.1 -16.7,0.2 h -0.6 c 0.3,-0.4 0.5,-0.6 0.6,-0.7 7.2,-6.6 15.1,-11.9 24.6,-14.7 3.7,-1.1 7.5,-1.7 11.4,-0.8 1.4,0.4 2.8,1 4.1,1.6 l 0.2,0.5 c -0.4,0.3 -0.8,0.6 -1.2,0.9 -6.1,5.5 -12.2,11.1 -18.2,16.7 -0.7,0.5 -0.9,1.4 -0.6,2.2 l 22.1,-16.1 0.4,0.5 c -0.4,0.2 -0.8,0.4 -1.1,0.6 -6.6,6 -13.2,12 -19.8,18 -0.7,0.7 -1.4,1.4 -2,2.2 l 0.4,0.4 22,-15.3 0.2,0.3 c -0.3,0.2 -0.7,0.5 -1,0.8 -6.9,6.1 -13.8,12.3 -20.7,18.5 -0.4,0.5 -0.7,1 -1,1.6 l 0.4,0.3 19.7,-14.1 0.2,0.2 c -0.4,0.4 -0.7,0.8 -1.1,1.1 -6.1,5.5 -12.1,11 -18.2,16.6 -0.4,0.4 -0.7,0.8 -1,1.3 l 0.4,0.4 c 4.3,-3.1 8.5,-6.2 12.8,-9.3 l 0.2,0.2 c -1.3,1.5 -2.6,2.9 -4.1,4.3 -3.5,3 -7.1,5.9 -10.6,8.8 -0.1,-0.1 -0.2,0.1 -0.3,0.3 z"
   id="path6"
   style="fill:#e9e1d0;fill-opacity:1" />
<path
   class="st0"
   d="m 121.8,23.715314 v -5.7 h -7.1 c 1.5,-2.2 2.8,-4.1 4.1,-6.1 0.2,-0.2 0.4,-0.3 0.6,-0.2 h 12.4 v 18 c -0.4,0 -0.8,0.1 -1.3,0.1 h -29.9 c -0.5,0 -1,0 -1.4,-0.1 -2.5,-0.1 -3,-0.7 -3,-3.2 0,-5.3 -0.1,-10.6 0,-15.8 0,-0.7999996 0.3,-1.4999996 0.7,-2.1999996 1.5,-2.4 3.2,-4.7 4.7,-7.1 0.4,-0.70000003 1.2,-1.20000003 2.1,-1.20000003 h 25.7 c 0.2,0 0.3,0 0.5,0.1 V 6.1153144 H 109 c -1.8,0 -2.5,0.7 -2.5,2.5 0,3.9999996 0,7.9999996 0,11.9999996 -0.1,0.7 0,1.4 0,2.1 0.1,0.3 0.5,0.8 0.8,0.8 4.9,0.2 9.7,0.2 14.5,0.2 z"
   id="path8"
   style="fill:#e9e1d0;fill-opacity:1" />
<path
   class="st0"
   d="m 59.5,29.415314 c 0,-0.5 -0.1,-0.9 -0.1,-1.4 0,-5.8 0,-11.6 0,-17.4 0,-0.6999996 0.2,-1.4999996 0.6,-2.0999996 1.5,-2.4 3.1,-4.8 4.6,-7.1 0.4,-0.80000003 1.2,-1.20000003 2,-1.20000003 8.5,0 17,0 25.6,0 0.2,0 0.4,0 0.6,0.1 V 6.1153144 h -20 c -1.1,0 -2,0.8 -2.1,1.8 -0.1,1.2 0,2.3999996 0,3.6999996 h 22.2 c -1.4,2.1 -2.6,4.1 -4,5.9 -0.2,0.3 -0.8,0.4 -1.3,0.4 -5.1,0 -10.2,0 -15.3,0 h -1.5 v 5.6 h 22 v 5.8 z"
   id="path10"
   style="fill:#e9e1d0;fill-opacity:1" />
<path
   class="st0"
   d="m 145.9,18.915314 v 10.6 c -0.4,0 -0.7,0.1 -1.1,0.1 -2.6,0 -5.1,0 -7.7,0 -1,0 -1.4,-0.3 -1.4,-1.4 0.1,-2.4 0.1,-4.7 0.1,-7.1 V 0.11531437 c 0.4,0 0.8,-0.1 1.1,-0.1 5.8,0 11.5,0 17.3,0 0.7,-0.1 1.4,0.3 1.8,0.9 L 176.2,29.115314 c 0.1,0.2 0.2,0.4 0.3,0.5 -2.4,0 -4.6,-0.2 -6.8,0 -1.9,0.4 -3.8,-0.6 -4.6,-2.3 -0.7,-1.3 -1.6,-2.9 -2.8,-3.5 -1.2,-0.6 -3,-0.2 -4.5,-0.2 -2.4,0 -4.7,0 -7.1,0 -0.5,-0.1 -1,-0.3 -1.4,-0.7 -1.1,-1.3 -2.1,-2.8 -3.2,-4.1 z m 11.9,-1 c 0,-0.1 -0.1,-0.3 -0.2,-0.4 -2.6,-3.6 -5.2,-7.2 -7.9,-10.7999996 -0.2,-0.3 -0.5,-0.5 -0.8,-0.5 -0.9,-0.1 -1.8,0 -2.8,0 V 18.015314 Z"
   id="path12"
   style="fill:#e9e1d0;fill-opacity:1" />
<path
   class="st0"
   d="m 170.5,64.915314 c 1.5,-1.4 2.8,-2.6 4.2,-3.8 5,-4.5 10.1,-9 15.2,-13.4 0.9,-0.6 1.2,-1.7 0.8,-2.8 l -22.7,16.7 -0.2,-0.2 c 0.2,-0.2 0.4,-0.5 0.7,-0.7 7.2,-6.5 14.4,-13 21.6,-19.4 0.7,-0.5 0.9,-1.4 0.6,-2.2 l -22.4,16 -0.2,-0.3 c 0.5,-0.5 1,-1 1.6,-1.5 6.8,-6 13.6,-12 20.4,-18 0.4,-0.5 0.7,-1.1 1,-1.6 l -0.5,-0.4 -19.8,14.2 -0.2,-0.2 c 0.5,-0.6 1,-1.2 1.6,-1.8 6,-5.2 11.9,-10.4 17.9,-15.6 0.4,-0.5 0.8,-1 1.1,-1.6 l -0.5,-0.4 -12.6,9.4 c 0.6,-2.2 10.4,-11.1 14.8,-13.4 v 3.5 c 0,7.4 0,14.8 0,22.2 0,1.1 0.3,1.5 1.5,1.5 4.9,-0.1 9.8,0 14.8,0 0.7,0 1.4,-0.1 2.2,-0.1 -0.1,0.2 -0.2,0.4 -0.4,0.6 -7.4,6.9 -15.7,12.4 -25.6,15.1 -3.5,1 -7.1,1.5 -10.7,0.5 -1.7,-0.4 -3.1,-1.2 -4.2,-2.3 z"
   id="path14"
   style="fill:#e9e1d0;fill-opacity:1" />
<path
   class="st0"
   d="m 151.6,77.315314 c -0.8,0.5 -1.6,0.9 -2.5,1.4 -5.2,3.1 -10.6,5.8 -16.7,6.7 -2.2,0.3 -4.4,0.4 -6.7,0.1 -5.5,-0.6 -8.6,-4.6 -8,-10.2 0.3,-2.9 1.1,-5.7 2.4,-8.4 2.5,-5.2 5.8,-10 9.9,-14.1 0,0.5 0.1,0.8 0.1,1 0,5.7 0,11.4 0,17 0,0.8 0.1,1.6 0.2,2.4 0.4,2.3 2.4,4 4.8,3.9 h 15 c 0.5,0 1.1,0.1 1.5,0.2 z"
   id="path16"
   style="fill:#e9e1d0;fill-opacity:1" />
<path
   class="st0"
   d="m 214.4,47.915314 v -4.8 c 0,-4.7 0,-9.4 0,-14 0,-3.5 -2,-5.5 -5.5,-5.5 h -15.6 c 0.1,-0.2 0.1,-0.3 0.2,-0.4 5.7,-3.7 11.7,-6.7 18.5,-7.8 2,-0.3 4,-0.4 6,-0.2 6.2,0.7 9.3,4.8 8.5,11 -0.4,3.1 -1.4,6.1 -2.9,8.9 -2.4,4.7 -5.5,9 -9.2,12.8 z"
   id="path18"
   style="fill:#e9e1d0;fill-opacity:1" />
<path
   class="st0"
   d="m 200.1,37.215314 c 0,-2.2 0.1,-4.4 0,-6.6 0,-1.1 0.4,-1.4 1.4,-1.4 1.2,0.1 2.4,0.1 3.6,0 1,-0.1 1.3,0.3 1.3,1.3 0,3.9 0,7.8 0,11.7 0,3 0,3 -3,3 -3.3,0 -3.3,0 -3.3,-3.4 z"
   id="path20"
   style="fill:#e9e1d0;fill-opacity:1" />
</svg>
