<?xml version="1.0" encoding="UTF-8" standalone="no"?>
<!-- Generator: Adobe Illustrator 26.0.3, SVG Export Plug-In . SVG Version: 6.00 Build 0)  -->

<svg
   version="1.1"
   id="svg2"
   x="0px"
   y="0px"
   viewBox="0 0 264 159.38104"
   xml:space="preserve"
   sodipodi:docname="megadrive-japan.svg"
   width="264"
   height="159.38104"
   inkscape:version="1.1.2 (b8e25be833, 2022-02-05)"
   xmlns:inkscape="http://www.inkscape.org/namespaces/inkscape"
   xmlns:sodipodi="http://sodipodi.sourceforge.net/DTD/sodipodi-0.dtd"
   xmlns="http://www.w3.org/2000/svg"
   xmlns:svg="http://www.w3.org/2000/svg"><defs
   id="defs19" /><sodipodi:namedview
   id="namedview17"
   pagecolor="#ffffff"
   bordercolor="#666666"
   borderopacity="1.0"
   inkscape:pageshadow="2"
   inkscape:pageopacity="0.0"
   inkscape:pagecheckerboard="0"
   showgrid="false"
   inkscape:zoom="0.55104167"
   inkscape:cx="959.09263"
   inkscape:cy="542.6087"
   inkscape:window-width="2560"
   inkscape:window-height="1387"
   inkscape:window-x="-8"
   inkscape:window-y="-8"
   inkscape:window-maximized="1"
   inkscape:current-layer="svg2" />
<style
   type="text/css"
   id="style2">
	.st0{fill:#E9E1D0;stroke:#000000;stroke-width:0.782;stroke-opacity:0;}
	.st1{fill:#E9E1D0;stroke:#000000;stroke-width:5.2212;stroke-linecap:round;stroke-opacity:0;}
	.st2{fill:#E9E1D0;stroke:#000000;stroke-width:5.1549;stroke-linecap:round;stroke-opacity:0;}
	.st3{fill:#E9E1D0;}
</style>
<path
   id="path3038"
   class="st0"
   d="M 85.2,1.2810407 V 104.08104 H 15.9 Z"
   style="fill:#e9e1d0;fill-opacity:1" />
<rect
   id="rect3834"
   x="158.5"
   y="3.2810407"
   class="st1"
   width="33.400002"
   height="101.6"
   style="fill:#e9e1d0;fill-opacity:1" />
<path
   id="path3838"
   class="st2"
   d="m 199.1,3.3810407 c -0.4,0 -0.8,0 -1.2,0 l -0.2,34.8000003 c 0,0 0.1,0 0.1,0 v -0.1 c 0.6,-0.1 1.1,-0.1 1.7,-0.1 l 7,-34.1000003 c -2.7,-0.4 -5.3,-0.4 -7.4,-0.5 z m 12.9,1 -9.9,33.7000003 c 0.9,0.1 1.7,0.3 2.6,0.6 L 220.9,6.5810407 c -2.9,-1 -5.8,-1.8 -8.9,-2.2 z m 14.3,4.5 L 207,39.481041 c 0.6,0.3 1.3,0.7 1.9,1.1 l 24.8,-27.3 c -2.3,-1.7 -4.8,-3.2 -7.4,-4.4000003 z m 12,8.2000003 -27.8,24.8 c 0.7,0.6 1.3,1.2 1.9,1.9 l 32.7,-19 c -2,-2.8 -4.3,-5.4 -6.8,-7.7 z m 9.4,11.6 -34.1,16.8 c 0.4,0.6 0.7,1.2 1,1.9 l 37.4,-9 c -1.1,-3.5 -2.6,-6.7 -4.3,-9.7 z m 5.7,14.8 -38.1,5.6 c 0.4,1.2 0.7,2.4 0.8,3.7 h 38.5 c -0.1,-3.2 -0.5,-6.3 -1.2,-9.3 z m -37.3,12.3 c -0.8,8.3 -7.7,14.7 -16.2,14.7 -0.7,0 -1.4,-0.1 -2.1,-0.1 v -0.7 c 0,0 -0.1,0 -0.1,0 v 35.099999 c 2.9,0 4.4,-0.1 6.6,-0.1 27.2,0 49.4,-21.699999 50.2,-48.899999 z"
   style="fill:#e9e1d0;fill-opacity:1" />
<path
   id="path3038-4"
   class="st0"
   d="M 143.1,1.2810407 V 104.08104 H 73.9 Z"
   style="fill:#e9e1d0;fill-opacity:1" />
<path
   id="text8337-2"
   class="st3"
   d="m 0,136.48104 13.1,-21.7 c 0.6,-1.2 1.2,-1.9 1.9,-1.9 h 9.4 v 2.9 l 0.6,-1 c 0.6,-1.2 1.2,-1.9 1.9,-1.9 H 38 v 23.6 h -7.5 v -18.6 l -11.2,18.6 h -7.5 l 11.2,-18.6 h -3.7 c -0.4,0 -0.8,0.2 -1.2,0.6 l -10.6,18 z m 48,-9.3 v 4.3 h 17.5 v 5 h -25 v -15.5 c 0,-0.4 0.1,-0.8 0.3,-1.2 l 3.4,-6.2 c 0.2,-0.4 0.6,-0.6 1.2,-0.6 h 19.9 v 5 h -15 c -0.4,0 -0.7,0.2 -0.9,0.6 l -1.4,3.7 h 17.5 l -2.5,5 H 48 Z m 27.4,4.4 h 12.5 v -4.3 h -5 l 2.5,-5 h 10 v 13 c 0,0.8 -0.4,1.2 -1.2,1.2 h -25 c -0.8,0 -1.2,-0.4 -1.2,-1.2 v -14.3 c 0,-0.4 0.1,-0.8 0.3,-1.2 l 3.4,-6.2 c 0.2,-0.4 0.6,-0.6 1.2,-0.6 h 21.2 v 5 H 77.9 c -0.4,0 -0.7,0.2 -0.9,0.6 l -1.6,3.7 z m 53.6,4.9 h -8.7 l -3.4,-5 h -9 l -2.5,-4.5 v 9.5 h -7.5 v -23.6 h 14.3 c 0.6,0 1.2,0.6 1.9,1.9 z m -15.6,-9.9 -5.6,-8.1 c -0.4,-0.4 -0.8,-0.6 -1.2,-0.6 h -1.2 v 8.7 z"
   style="fill:#e9e1d0;fill-opacity:1" />
<path
   id="text8339-0"
   class="st3"
   d="m 142.5,131.88104 h 9.1 c 0.4,0 0.8,-0.2 1,-0.6 l 2.7,-5.9 0.2,-0.6 -0.2,-0.6 -2.7,-5.8 c -0.2,-0.4 -0.5,-0.6 -1,-0.6 h -9.1 z m -7.8,-19.5 h 21.7 c 0.6,0 1.2,0.4 1.6,1.3 l 5,10.4 0.2,0.6 -0.2,0.6 -5,10.4 c -0.4,0.9 -1,1.3 -1.6,1.3 h -21.7 z m 31.1,0 h 20.7 c 0.6,0 1.2,0.4 1.6,1.3 l 3.4,7.1 0.2,0.6 -0.2,0.6 -5,5.8 5.2,9.1 h -7.8 l -7.4,-12.3 h 3.9 c 0.4,0 0.8,-0.1 1,-0.3 l 2.6,-2.9 -1.3,-3.2 c -0.2,-0.4 -0.5,-0.6 -1,-0.6 h -8.1 v 19.4 h -7.8 z m 36.1,24.6 h -7.8 v -24.6 h 7.8 z m 10.4,-16.5 7.8,11.3 7.8,-11.3 v -8.1 h 7.8 v 9.1 c 0,0.9 -0.1,1.5 -0.3,1.9 l -8.7,13.6 h -12.9 l -8.7,-13.6 c -0.2,-0.4 -0.3,-1.1 -0.3,-1.9 v -9.1 h 7.8 v 8.1 z m 33.6,6.8 v 4.5 H 264 v 5.2 h -25.9 v -16.2 c 0,-0.4 0.1,-0.9 0.3,-1.3 l 3.6,-6.5 c 0.2,-0.4 0.6,-0.6 1.3,-0.6 H 264 v 5.2 h -15.5 c -0.4,0 -0.8,0.2 -1,0.6 l -1.6,3.9 H 264 l -2.6,5.2 z"
   style="fill:#e9e1d0;fill-opacity:1" />
<path
   id="path3065"
   class="st3"
   d="m 55.6,159.28104 1.8,-2.7 h 9.8 l 2.3,-3.7 -2.3,-2.9 c -0.3,-0.4 -0.8,-0.6 -1.3,-0.6 H 62 l 1.8,-2.7 h 5.4 c 0.6,0 1.1,0.3 1.5,0.8 l 1.3,1.6 1.7,-2.8 c 0.6,-0.9 1.5,-1.4 2.7,-1.4 H 80 l -5,8 5,6.3 h -5.4 l -2,-2.5 -1.1,1.7 c -0.4,0.6 -0.9,0.8 -1.5,0.8 H 55.6 Z"
   style="fill:#e9e1d0;fill-opacity:1" />
<path
   id="path3067"
   class="st3"
   d="m 83.5,150.28104 v -2.7 H 89 l 0.7,-1.2 c 0.6,-1 1.6,-1.5 2.8,-1.5 h 3.6 l -1.7,2.7 h 4.4 c 0.6,0 1.1,0.3 1.6,1 l 3.4,4.8 c 0.3,0.4 0.3,0.8 0.1,1.2 l -2.6,3.8 c -0.4,0.6 -1,1 -1.6,1 h -7.2 v -2.7 h 3.6 c 0.6,0 1.1,-0.2 1.5,-0.7 l 1,-1.6 c 0.2,-0.3 0.2,-0.5 0,-0.8 l -1.8,-2.6 c -0.3,-0.4 -0.8,-0.6 -1.5,-0.6 h -2.5 l -5.6,9 h -5.4 l 5.6,-9 h -3.9 z m 15.3,-5.4 h 3.6 l 3.8,5.3 -1.5,2.8 z m 4.6,0 h 6.1 l -2.9,4.5 z"
   style="fill:#e9e1d0;fill-opacity:1" />
<path
   id="path3069"
   class="st3"
   d="m 118.5,159.28104 v -14.4 h 5.4 v 3.6 h 9 c 0.6,0 1.1,0.3 1.5,1 l 3,4.4 H 132 l -1.1,-1.8 c -0.4,-0.6 -1,-0.9 -1.6,-0.9 h -5.4 v 8.1 z m 10.8,-11.7 -1.8,-2.7 h 3.6 l 1.8,2.7 z m 4.5,0 -1.8,-2.7 h 3.6 l 1.8,2.7 z"
   style="fill:#e9e1d0;fill-opacity:1" />
<path
   id="path3071"
   class="st3"
   d="m 139.2,147.58104 v -2.7 h 18.9 v 2.7 z m 0,3.6 v -2.7 h 18.9 v 2.7 c 0,0.6 -0.1,1.2 -0.4,1.7 l -2.8,5.5 c -0.3,0.6 -0.7,0.8 -1.3,0.8 h -11.7 v -2.7 h 7.2 c 0.6,0 1.1,-0.3 1.4,-0.9 l 2.2,-4.5 h -13.5 z"
   style="fill:#e9e1d0;fill-opacity:1" />
<path
   id="path3073"
   class="st3"
   d="m 159.9,150.28104 v -2.7 h 13 c 0.6,0 1.1,-0.3 1.5,-0.9 l 0.8,-1.8 h 5.4 l -1.8,3.6 c -0.6,1.2 -1.5,1.8 -2.7,1.8 h -3.6 v 9 H 167 v -9 z"
   style="fill:#e9e1d0;fill-opacity:1" />
<path
   id="path3075"
   class="st3"
   d="m 199.8,156.38104 -1.7,2 c -0.4,0.6 -0.9,0.9 -1.5,0.9 h -14.4 v -2.7 h 9.9 c 0.5,0 0.9,-0.3 1.3,-0.9 l 0.5,-0.9 v -7.2 h -11.7 v -2.7 h 18 v 9.9 c 0.1,0.6 -0.1,1.1 -0.4,1.6 z m 2.3,-6.1 2.7,-5.4 h 3.6 l -2.7,5.4 z m -0.9,0 v -5.4 h 2.7 z"
   style="fill:#e9e1d0;fill-opacity:1" />
</svg>
