<?xml version="1.0" encoding="UTF-8" standalone="no"?>
<!-- Generator: Adobe Illustrator 26.0.3, SVG Export Plug-In . SVG Version: 6.00 Build 0)  -->

<svg
   version="1.1"
   id="Layer_1"
   x="0px"
   y="0px"
   viewBox="0 0 263.89999 58"
   xml:space="preserve"
   sodipodi:docname="naomi.svg"
   width="263.89999"
   height="58"
   inkscape:version="1.1.2 (b8e25be833, 2022-02-05)"
   xmlns:inkscape="http://www.inkscape.org/namespaces/inkscape"
   xmlns:sodipodi="http://sodipodi.sourceforge.net/DTD/sodipodi-0.dtd"
   xmlns="http://www.w3.org/2000/svg"
   xmlns:svg="http://www.w3.org/2000/svg"><defs
   id="defs11" /><sodipodi:namedview
   id="namedview9"
   pagecolor="#ffffff"
   bordercolor="#666666"
   borderopacity="1.0"
   inkscape:pageshadow="2"
   inkscape:pageopacity="0.0"
   inkscape:pagecheckerboard="0"
   showgrid="false"
   inkscape:zoom="0.55104167"
   inkscape:cx="959.09263"
   inkscape:cy="540.79395"
   inkscape:window-width="2560"
   inkscape:window-height="1387"
   inkscape:window-x="-8"
   inkscape:window-y="-8"
   inkscape:window-maximized="1"
   inkscape:current-layer="Layer_1" />
<style
   type="text/css"
   id="style2">
	.st0{fill:#E9E1D0;}
</style>
<path
   class="st0"
   d="m 49,54.2 v -53 h -8.7 l 0.1,34 L 0,1.7 0.1,54.8 H 7.7 V 20.5 Z m 5.6,0.9 6.7,-11.5 H 55.1 V 35.5 H 65.3 L 83.9,1.7 113.4,55.1 H 103 L 97,43.6 H 70.7 L 64.4,55.1 Z M 74.3,35.3 H 93.2 L 83.7,17.8 Z m 114,19.8 h -8.6 V 1.9 L 209,36.1 238.5,1.2 v 54 h -9.2 l -0.1,-29 -20.4,24.7 -20.5,-24.5 z m 66.8,0 0.1,-54.5 h 8.7 l -0.1,54.5 z"
   id="path4"
   style="fill:#e9e1d0;fill-opacity:1" />
<path
   class="st0"
   d="m 113.1,29 c 0,-16 12.9,-29 28.8,-29 15.9,0 28.8,13 28.8,29 0,16 -12.9,29 -28.8,29 C 126,58 113.1,45 113.1,29 Z M 142,49.3 c 11.2,0 20.2,-9.1 20.2,-20.3 0,-11.1 -9,-20.2 -20.2,-20.2 -11,0 -20.1,9.1 -20.1,20.2 0,11.3 9,20.3 20.1,20.3 z"
   id="path6"
   style="fill:#e9e1d0;fill-opacity:1" />
</svg>
