<?xml version="1.0" encoding="UTF-8" standalone="no"?>
<!-- Generator: Adobe Illustrator 26.0.3, SVG Export Plug-In . SVG Version: 6.00 Build 0)  -->

<svg
   version="1.1"
   id="Layer_1"
   x="0px"
   y="0px"
   viewBox="0 0 264.03751 30"
   xml:space="preserve"
   sodipodi:docname="saturn.svg"
   width="264.03751"
   height="30"
   inkscape:version="1.1.2 (b8e25be833, 2022-02-05)"
   xmlns:inkscape="http://www.inkscape.org/namespaces/inkscape"
   xmlns:sodipodi="http://sodipodi.sourceforge.net/DTD/sodipodi-0.dtd"
   xmlns="http://www.w3.org/2000/svg"
   xmlns:svg="http://www.w3.org/2000/svg"><defs
   id="defs33" /><sodipodi:namedview
   id="namedview31"
   pagecolor="#ffffff"
   bordercolor="#666666"
   borderopacity="1.0"
   inkscape:pageshadow="2"
   inkscape:pageopacity="0.0"
   inkscape:pagecheckerboard="0"
   showgrid="false"
   inkscape:zoom="0.55104167"
   inkscape:cx="959.09263"
   inkscape:cy="540.79395"
   inkscape:window-width="2560"
   inkscape:window-height="1387"
   inkscape:window-x="-8"
   inkscape:window-y="-8"
   inkscape:window-maximized="1"
   inkscape:current-layer="Layer_1" />
<style
   type="text/css"
   id="style2">
	.st0{fill:#E9E1D0;}
</style>
<path
   class="st0"
   d="m 5.9375,14.6 c 1,-0.8 2.4,-1.7 4,-2.5 1.6,-0.9 3.4,-1.7 5.4,-2.5 v 0 c 2,-0.8 4.1,-1.5 6.2,-2.1 2.2,-0.6 4.4,-1.2 6.5,-1.6 2.2,-0.4 4.3,-0.7 6.3,-0.8 2.1,-0.2 4.4,0 5,0 0.6,0 1.4,-0.1 1.8,-0.4 0.4,-0.3 0.6,-0.7 0.6,-1.2 0.1,-0.5 -0.1,-0.9 -0.4,-1.3 -0.3,-0.4 -1,-0.6 -1.5,-0.6 -1.8,-0.2 -3.6,-0.2 -5.8,-0.1 -2.1,0.1 -4.3,0.4 -6.7,0.9 -2.3,0.4 -4.5,1 -6.8,1.6 -2.3,0.6 -4.5,1.4 -6.5,2.2 -2,1 -4.3,2.1 -5.7,2.8 -1.3,0.7 -3,1.7 -4.4,2.9 -1.4,1.2 -2,1.8 -3,3.3 -1,1.5 -1.2,3.3 -0.6,4.3 1.5,2.7 6.9,1.8 9,1.4 1.7,-0.4 3.7,-0.8 6.1,-1.5 1.8,-0.6 4,-1.3 6.8,-2.2 l 6.8,-2.3 c 2.5,-0.9 4.5,-1.5 6.1,-1.9 1.9,-0.6 5.3,-1.4 7.1,-1.1 -0.1,1.1 -1.5,4.2 -7.5,6.9 -2.3,1.1 -4.8,2 -7.5,3 v 0 c -2.1,0.7 -4.3,1.3 -6.6,1.9 -2.2,0.5 -4.3,0.9 -6.2,1.2 v 0 c -3.1,0.4 -7.6,0 -8.4,0.2 -1.7,0.1 -2.2,1.2 -2.2,1.7 0,0.5 0,1.6 2.3,1.8 2.3,0.1 4.5,0.3 8.8,-0.2 2.7,-0.4 4.2,-0.7 6.5,-1.3 v 0 c 2.3,-0.6 4.6,-1.2 6.9,-2 2.9,-0.9 5.6,-2 7.9,-3.1 5.3,-2.5 7.3,-4.7 8.5,-6.6 1.2,-1.9 1.7,-4.6 0.4,-5.8 -1.5,-1.4 -4.3,-1.2 -5.3,-1.1 -1.4,0.1 -3.5,0.5 -5.5,1.1 -1.6,0.5 -3.7,1.1 -6.2,2 l -6.8,2.3 c -2.7,0.9 -4.9,1.6 -6.7,2.2 -2.3,0.7 -4.2,1.2 -5.8,1.6 -3.7,0.9 -4.8,0.4 -4.8,0.4 -0.2,-1.3 1,-2.7 1.9,-3.5 z"
   id="path4"
   style="fill:#e9e1d0;fill-opacity:1" />
<ellipse
   class="st0"
   cx="23.137501"
   cy="15"
   rx="14.6"
   ry="15"
   id="ellipse6"
   style="fill:#e9e1d0;fill-opacity:1" />
<path
   class="st0"
   d="m 9.3375,20.9 c 1.7,-0.4 3.7,-0.8 6.1,-1.5 1.8,-0.6 6.8,-2.2 6.8,-2.2 l 6.8,-2.3 c 2.5,-0.9 4.5,-1.5 6.1,-1.9 0,0 2.4,-0.6 2.8,-0.7 -0.1,-1.5 -1,-3.4 -1,-3.4 -0.9,0.2 -1.8,0.4 -2.7,0.7 -1.6,0.5 -3.7,1.1 -6.2,2 l -6.8,2.3 c -2.7,0.9 -4.9,1.6 -6.7,2.2 -3.6,1.2 -6,1.6 -6.1,1.6 -0.1,-0.2 0.3,2 0.9,3.2 z"
   id="path8"
   style="fill:#e9e1d0;fill-opacity:1" />
<path
   class="st0"
   d="m 72.1375,7.7 c -0.3,-0.5 -0.6,-0.7 -1.1,-0.9 -8.2,-2.4 -13.5,-2 -15.8,1.1 -0.8,1 -1.3,2 -1.5,3 -0.2,1 -0.1,2 0.4,2.9 v 0 c 0.3,0.7 0.8,1.3 1.5,1.9 v 0 c 0.5,0.5 1.1,0.8 1.8,1.1 0.4,0.2 1.5,0.4 3.2,0.4 0.3,0 1,0 1.9,0 0.8,0 1.5,0 2,0.1 v 0 c 1.5,0 3,0.2 3.5,0.3 0.5,0.2 1.3,1.1 1.4,1.5 0.1,0.4 0,0 0,0 0.1,0.2 0.2,0.3 0.1,0.9 -0.1,0.6 -0.3,0.5 -0.5,0.8 0,0 0,0 0,0 -0.4,-0.3 -0.7,0.4 -1.3,0.6 -0.9,0.2 -2,0.4 -3.2,0.4 -1.3,0 -2.5,0 -3.8,-0.2 -1.2,-0.2 -2.3,-0.4 -3.2,-0.6 -0.5,0 -1,0 -1.4,0.3 -0.4,0.2 -0.7,0.6 -0.9,1.1 -0.2,0.5 -0.1,0.9 0.1,1.4 0.2,0.4 0.6,0.7 1,0.9 1.1,0.4 2.4,0.6 3.9,0.8 1.5,0.2 2.9,0.2 4.3,0.2 1.6,-0.1 2.9,-0.2 4,-0.5 1.6,-0.4 2.6,-1 3.2,-1.8 v 0 c 0.5,-0.6 0.8,-1.2 1,-1.7 v 0 c 0.2,-0.6 0.4,-1.2 0.4,-1.9 v -0.1 c 0,-0.5 0,-1.1 -0.2,-1.8 -0.1,-0.3 -0.2,-0.5 -0.7,-1.6 -0.5,-1.1 -1.6,-1.8 -3.5,-2.2 v 0 c -1,-0.2 -2.3,-0.3 -4.1,-0.4 -0.5,0 -1.2,0 -2.1,-0.1 -0.9,0 -1.5,0 -1.9,0 -1,0 -1.6,-0.1 -1.8,-0.1 -0.3,-0.2 -0.6,-0.3 -0.9,-0.6 -0.3,-0.2 -0.5,-0.5 -0.6,-0.7 v 0 c -0.1,-0.2 -0.2,-0.4 -0.1,-0.6 0.1,-0.4 0.3,-0.8 0.7,-1.2 1.8,-1.8 5.8,-1.8 12.1,0.1 0.5,0.1 0.9,0.1 1.3,-0.2 0.5,-0.2 0.7,-0.6 0.9,-1.1 0.2,-0.6 0.2,-1 -0.1,-1.5 z"
   id="path10"
   style="fill:#e9e1d0;fill-opacity:1" />
<path
   class="st0"
   d="m 89.8375,6.2 c -0.4,-0.3 -0.8,-0.5 -1.3,-0.5 h -12 c -0.5,0 -0.9,0.2 -1.3,0.5 -0.4,0.4 -0.5,0.8 -0.5,1.3 v 15.3 c 0,0.5 0.2,1 0.5,1.3 0.3,0.4 0.8,0.6 1.3,0.6 h 12 c 0.5,0 0.9,-0.2 1.3,-0.6 0.3,-0.3 0.5,-0.8 0.5,-1.3 0,-0.5 -0.2,-0.9 -0.5,-1.3 -0.4,-0.3 -0.8,-0.5 -1.3,-0.5 h -10.2 v -4 h 7.5 c 0.5,0 0.9,-0.2 1.3,-0.6 0.3,-0.3 0.5,-0.8 0.5,-1.3 0,-0.5 -0.2,-0.9 -0.5,-1.3 -0.4,-0.3 -0.8,-0.5 -1.3,-0.5 h -7.5 v -4 h 10.2 c 0.5,0 0.9,-0.2 1.3,-0.6 0.3,-0.3 0.5,-0.8 0.5,-1.3 0,-0.4 -0.2,-0.9 -0.5,-1.2 z"
   id="path12"
   style="fill:#e9e1d0;fill-opacity:1" />
<path
   class="st0"
   d="m 110.5375,8.3 c -0.1,-0.5 -0.4,-1 -0.7,-1.3 -3.3,-2.4 -6.9,-2.9 -10.4,-2.3 -1.4,0.4 -1.9,0.4 -3.4,1.2 -1.5,0.8 -2.5,2.2 -2.5,2.2 -0.7,0.8 -1.1,1.8 -1.6,3.1 -0.5,1.3 -0.5,1.9 -0.5,3.5 -0.1,1.6 0.1,3.1 0.6,4.5 0.4,1.4 1.1,2.6 2.1,3.7 v 0 c 0.9,1.1 2,1.9 3.3,2.4 1.3,0.6 2.7,0.9 4.2,0.9 3.6,0 6.2,-0.8 7.8,-2.5 1.9,-1.7 2.7,-4.3 2.4,-7.7 0,-0.5 -0.2,-0.9 -0.6,-1.3 -0.4,-0.3 -0.7,-0.5 -1.2,-0.5 h -7.8 c -0.5,0 -0.9,0.2 -1.3,0.6 -0.4,0.4 -0.5,0.9 -0.5,1.4 0,0.5 0.2,1 0.5,1.4 0.3,0.4 0.8,0.6 1.3,0.6 h 6 c -0.1,1 -0.5,1.8 -1.1,2.5 -1.2,1 -3,1.5 -5.5,1.5 -1,0 -2,-0.2 -2.9,-0.6 v 0 c -0.8,-0.3 -1.4,-0.8 -2,-1.5 -0.6,-0.6 -1,-1.4 -1.3,-2.2 -0.3,-0.9 -0.4,-1.9 -0.4,-3 0,-1.1 0.1,-1.7 0.4,-2.5 0.2,-0.6 0.4,-1 0.7,-1.4 0,0 0.5,-0.9 1.4,-1.3 0.9,-0.5 1.6,-0.6 2.7,-0.9 v 0 c 2.6,-0.7 5.1,-0.1 7.6,1.7 0.4,0.3 0.9,0.4 1.3,0.3 0.5,-0.1 0.9,-0.4 1.1,-0.9 0.3,-0.5 0.3,-1 0.3,-1.6 z"
   id="path14"
   style="fill:#e9e1d0;fill-opacity:1" />
<path
   class="st0"
   d="m 133.1375,24.5 c 0.3,-0.4 0.4,-0.9 0.4,-1.4 -1.9,-12.8 -5.3,-19 -10.2,-18.7 -4.9,-0.3 -8.3,5.7 -10.2,18.1 -0.1,0.5 0,1 0.3,1.4 0.3,0.4 0.7,0.7 1.2,0.7 0.5,0.1 0.9,0 1.3,-0.3 0.4,-0.3 0.6,-0.7 0.7,-1.2 0.2,-1.5 0.5,-3 0.7,-4.3 v 0 h 11.7 c 0.3,1.5 0.6,3.1 0.8,4.9 0.1,0.5 0.3,0.9 0.7,1.2 0.4,0.3 0.8,0.4 1.3,0.3 0.6,0 1,-0.3 1.3,-0.7 z m -14.8,-9.4 c 1.3,-4.5 3,-6.9 5,-7.1 1.9,0.2 3.6,2.5 4.9,7.1 z"
   id="path16"
   style="fill:#e9e1d0;fill-opacity:1" />
<path
   class="st0"
   d="m 161.6375,7.6 c -0.3,-0.5 -0.6,-0.7 -1.1,-0.9 -8.2,-2.4 -13.6,-2 -15.9,1.1 -0.8,1 -1.4,2 -1.5,3 -0.2,1 -0.1,2 0.4,2.9 v 0 c 0.3,0.7 0.8,1.4 1.5,1.9 v 0 c 0.5,0.5 1.1,0.8 1.8,1.1 0.5,0.2 1.5,0.4 3.2,0.4 0.3,0 1,0 1.9,0 0.8,0 1.5,0 2,0.1 v 0 c 1.5,0 3,0.2 3.5,0.3 0.5,0.2 1.4,1.1 1.4,1.5 0.1,0.4 0,0 0,0 0.1,0.2 0.2,0.3 0.1,0.9 -0.1,0.6 -0.3,0.5 -0.5,0.8 v 0 c -0.3,0.2 -0.7,0.4 -1.4,0.6 -0.9,0.2 -2,0.4 -3.3,0.4 -1.3,0 -2.5,0 -3.8,-0.2 -1.2,-0.2 -2.3,-0.4 -3.2,-0.7 -0.5,-0.2 -0.9,-0.1 -1.4,0.1 -0.5,0.2 -0.8,0.6 -0.9,1.1 -0.2,0.5 -0.1,1 0.1,1.4 0.2,0.4 0.6,0.7 1.1,0.9 1.1,0.4 2.4,0.6 3.9,0.8 1.5,0.2 2.9,0.2 4.4,0.2 1.6,-0.1 2.9,-0.2 4,-0.5 1.6,-0.4 2.7,-1 3.2,-1.8 v 0 c 0.5,-0.6 0.8,-1.2 1.1,-1.7 v 0 c 0.2,-0.6 0.4,-1.2 0.4,-1.9 v -0.1 c 0,-0.5 0,-1.1 -0.2,-1.8 -0.1,-0.3 -0.2,-0.5 -0.7,-1.6 -0.5,-1.1 -1.6,-1.8 -3.6,-2.2 v 0 c -1,-0.2 -2.4,-0.3 -4.1,-0.4 -0.5,0 -1.2,0 -2.1,-0.1 -0.9,0 -1.5,0 -1.9,0 -1,0 -1.6,-0.1 -1.8,-0.1 -0.3,-0.2 -0.6,-0.3 -0.9,-0.6 -0.3,-0.2 -0.5,-0.5 -0.6,-0.7 v 0 c -0.1,-0.2 -0.2,-0.4 -0.1,-0.6 0.1,-0.4 0.3,-0.8 0.7,-1.2 1.8,-1.8 5.9,-1.8 12.2,0.1 0.5,0.1 0.9,0.1 1.4,-0.2 0.5,-0.2 0.8,-0.6 0.9,-1.1 0.1,-0.3 0.1,-0.8 -0.2,-1.2 z"
   id="path18"
   style="fill:#e9e1d0;fill-opacity:1" />
<path
   class="st0"
   d="m 166.6375,25.6 c 0.4,-0.3 0.6,-0.7 0.7,-1.2 0.2,-1.5 0.5,-3 0.7,-4.3 h 11.7 c 0.3,1.5 0.6,3.1 0.8,4.9 0.1,0.5 0.3,0.9 0.7,1.2 0.4,0.3 0.8,0.4 1.3,0.3 0.5,-0.1 0.9,-0.3 1.2,-0.7 0.3,-0.4 0.4,-0.9 0.4,-1.4 -1.9,-12.9 -5.3,-19.2 -10.3,-18.9 -5,-0.3 -8.4,5.8 -10.2,18.3 -0.1,0.5 0,1 0.3,1.4 0.3,0.4 0.7,0.7 1.2,0.7 0.6,0.1 1,0 1.5,-0.3 z m 2.3,-9.2 c 1.3,-4.6 3,-6.9 5,-7.1 2,0.2 3.6,2.5 4.9,7.1 z"
   id="path20"
   style="fill:#e9e1d0;fill-opacity:1" />
<path
   class="st0"
   d="m 199.7375,7 c -0.4,-0.3 -0.8,-0.5 -1.3,-0.5 h -15.7 c -0.5,0 -0.9,0.2 -1.3,0.5 -0.4,0.4 -0.5,0.8 -0.5,1.3 0,0.5 0.2,1 0.5,1.3 0.3,0.4 0.8,0.6 1.3,0.6 h 6 v 14.2 c 0,0.5 0.2,1 0.5,1.3 0.3,0.4 0.8,0.6 1.3,0.6 0.5,0 0.9,-0.2 1.3,-0.6 0.3,-0.3 0.5,-0.8 0.5,-1.3 V 10.2 h 6 c 0.5,0 0.9,-0.2 1.3,-0.6 0.3,-0.3 0.5,-0.8 0.5,-1.3 0.1,-0.5 -0.1,-0.9 -0.4,-1.3 z"
   id="path22"
   style="fill:#e9e1d0;fill-opacity:1" />
<path
   class="st0"
   d="m 220.9375,6.7 c -0.4,-0.4 -0.8,-0.6 -1.3,-0.6 -0.5,0 -0.9,0.2 -1.3,0.6 -0.4,0.3 -0.5,0.8 -0.5,1.3 v 9.2 c 0,0.7 -0.1,1.4 -0.4,2 -0.2,0.6 -0.6,1.2 -1.1,1.7 -0.5,0.5 -1,0.9 -1.6,1.1 -0.6,0.3 -1.3,0.4 -2,0.4 h -2.7 c -0.7,0 -1.3,-0.1 -2,-0.4 -0.6,-0.2 -1.1,-0.6 -1.6,-1.1 -0.5,-0.5 -0.8,-1 -1.1,-1.6 v 0 c -0.2,-0.6 -0.4,-1.3 -0.4,-2 V 8 c 0,-0.5 -0.2,-1 -0.5,-1.3 -0.4,-0.4 -0.8,-0.6 -1.3,-0.6 -0.5,0 -0.9,0.2 -1.3,0.6 -0.4,0.3 -0.5,0.8 -0.5,1.3 v 9.2 c 0,1.2 0.2,2.4 0.7,3.5 v 0 c 0.4,1.1 1.1,2 1.8,2.8 0.8,0.8 1.7,1.5 2.8,1.9 1.1,0.5 2.2,0.7 3.4,0.7 h 2.7 c 1.2,0 2.3,-0.2 3.4,-0.7 v 0 c 1.1,-0.5 2,-1.1 2.8,-1.9 0.8,-0.8 1.4,-1.8 1.9,-2.8 v 0 c 0.5,-1.1 0.7,-2.3 0.7,-3.5 V 8 c -0.1,-0.5 -0.3,-1 -0.6,-1.3 z"
   id="path24"
   style="fill:#e9e1d0;fill-opacity:1" />
<path
   class="st0"
   d="m 223.3375,6.7 c -0.3,0.3 -0.5,0.7 -0.5,1.2 v 16 c 0,0.5 0.2,1 0.5,1.3 0.4,0.4 0.9,0.6 1.4,0.6 0.5,0 1,-0.2 1.3,-0.6 0.4,-0.3 0.6,-0.8 0.6,-1.3 V 9.6 c 4.1,-0.2 7.3,0 9.5,0.6 1.7,0.5 2.6,1.4 2.7,2.6 0,1 -0.4,1.6 -1.2,2 -1.3,0.6 -3.2,0.7 -5.7,0.4 -0.4,0 -0.8,0 -1.2,0.3 -0.4,0.2 -0.6,0.5 -0.8,0.9 -0.2,0.4 -0.2,0.8 -0.1,1.2 0.1,0.4 0.4,0.7 0.7,1 l 9.6,6.8 c 0.4,0.3 0.9,0.4 1.4,0.3 0.5,-0.1 1,-0.3 1.3,-0.7 0.3,-0.4 0.4,-0.9 0.4,-1.4 -0.1,-0.5 -0.4,-0.9 -0.8,-1.2 l -5.1,-3.6 c 0.7,-0.2 1.4,-0.4 1.9,-0.7 2.2,-1 3.3,-2.8 3.3,-5.3 0.1,-2.9 -1.7,-5 -5.3,-6.1 -2.9,-0.9 -7.1,-1.1 -12.8,-0.7 -0.3,0.1 -0.8,0.3 -1.1,0.7 z"
   id="path26"
   style="fill:#e9e1d0;fill-opacity:1" />
<path
   class="st0"
   d="m 245.6375,7 c -0.2,0.3 -0.3,0.7 -0.3,1.1 v 16.1 c 0,0.5 0.2,1 0.5,1.3 0.3,0.4 0.8,0.6 1.3,0.6 0.5,0 0.9,-0.2 1.3,-0.6 0.3,-0.3 0.5,-0.8 0.5,-1.3 V 12.7 l 12,12.7 c 0.3,0.3 0.6,0.5 0.9,0.6 0.4,0.1 0.7,0 1.1,-0.1 0.3,-0.2 0.6,-0.4 0.8,-0.7 0.2,-0.3 0.3,-0.6 0.3,-1 V 8 c 0,-0.5 -0.2,-1 -0.5,-1.3 -0.4,-0.3 -0.8,-0.5 -1.3,-0.5 -0.5,0 -0.9,0.2 -1.3,0.5 -0.4,0.4 -0.5,0.8 -0.5,1.3 v 11.5 l -12,-12.8 c -0.3,-0.2 -0.6,-0.4 -0.9,-0.5 -0.4,-0.1 -0.7,0 -1.1,0.1 -0.3,0.2 -0.6,0.4 -0.8,0.7 z"
   id="path28"
   style="fill:#e9e1d0;fill-opacity:1" />
</svg>
