<?xml version="1.0" encoding="UTF-8" standalone="no"?>
<!-- Generator: Adobe Illustrator 26.0.3, SVG Export Plug-In . SVG Version: 6.00 Build 0)  -->

<svg
   version="1.1"
   id="Layer_1"
   x="0px"
   y="0px"
   viewBox="0 0 264 31.1"
   xml:space="preserve"
   sodipodi:docname="sc-3000.svg"
   width="264"
   height="31.1"
   inkscape:version="1.1.2 (b8e25be833, 2022-02-05)"
   xmlns:inkscape="http://www.inkscape.org/namespaces/inkscape"
   xmlns:sodipodi="http://sodipodi.sourceforge.net/DTD/sodipodi-0.dtd"
   xmlns="http://www.w3.org/2000/svg"
   xmlns:svg="http://www.w3.org/2000/svg"><defs
   id="defs21" /><sodipodi:namedview
   id="namedview19"
   pagecolor="#ffffff"
   bordercolor="#666666"
   borderopacity="1.0"
   inkscape:pageshadow="2"
   inkscape:pageopacity="0.0"
   inkscape:pagecheckerboard="0"
   showgrid="false"
   inkscape:zoom="0.55104167"
   inkscape:cx="959.09263"
   inkscape:cy="540.79395"
   inkscape:window-width="2560"
   inkscape:window-height="1387"
   inkscape:window-x="-8"
   inkscape:window-y="-8"
   inkscape:window-maximized="1"
   inkscape:current-layer="Layer_1" />
<style
   type="text/css"
   id="style2">
	.st0{fill:#E9E1D0;}
</style>
<path
   class="st0"
   d="M 0,12.1 V 6.9 C 0,2.3 2.3,0 6.9,0 H 37.8 V 6.9 H 6.9 v 5.2 h 24 c 4.6,0 6.9,2.3 6.9,6.9 v 5.2 c 0,4.6 -2.3,6.9 -6.9,6.9 H 0 V 24.2 H 30.9 V 19 H 6.9 C 2.3,18.9 0,16.6 0,12.1 Z"
   id="path4"
   style="fill:#e9e1d0;fill-opacity:1" />
<path
   class="st0"
   d="M 41.1,24.1 V 6.9 C 41.1,2.3 43.4,0 48,0 H 77.1 V 6.9 H 48 V 24.1 H 77.1 V 31 H 48 c -4.6,0 -6.9,-2.3 -6.9,-6.9 z"
   id="path6"
   style="fill:#e9e1d0;fill-opacity:1" />
<path
   class="st0"
   d="M 80.6,18.9 V 12 h 12 v 6.9 z"
   id="path8"
   style="fill:#e9e1d0;fill-opacity:1" />
<path
   class="st0"
   d="m 135.4,24.1 c 0,4.6 -2.3,6.9 -6.9,6.9 H 96 v -6.9 h 32.6 V 17.2 H 111.5 L 120,6.9 H 96 V 0 h 37.7 l -8.6,10.3 h 3.4 c 4.6,0 6.9,2.3 6.9,6.9 z"
   id="path10"
   style="fill:#e9e1d0;fill-opacity:1" />
<path
   class="st0"
   d="m 178.3,24.1 c 0,4.6 -2.3,6.9 -6.9,6.9 h -25.7 c -4.6,0 -6.9,-2.3 -6.9,-6.9 V 6.9 c 0,-4.6 2.3,-6.9 6.9,-6.9 h 25.7 c 4.6,0 6.9,2.3 6.9,6.9 z m -6.9,0 V 6.9 h -25.7 v 17.2 z"
   id="path12"
   style="fill:#e9e1d0;fill-opacity:1" />
<path
   class="st0"
   d="m 221.1,24.1 c 0,4.6 -2.3,6.9 -6.9,6.9 h -25.7 c -4.6,0 -6.9,-2.3 -6.9,-6.9 V 6.9 c 0,-4.6 2.3,-6.9 6.9,-6.9 h 25.7 c 4.6,0 6.9,2.3 6.9,6.9 z m -6.8,0 V 6.9 h -25.7 v 17.2 z"
   id="path14"
   style="fill:#e9e1d0;fill-opacity:1" />
<path
   class="st0"
   d="m 264,24.1 c 0,4.6 -2.3,6.9 -6.9,6.9 h -25.7 c -4.6,0 -6.9,-2.3 -6.9,-6.9 V 6.9 c 0,-4.6 2.3,-6.9 6.9,-6.9 h 25.7 c 4.6,0 6.9,2.3 6.9,6.9 z m -6.9,0 V 6.9 h -25.7 v 17.2 z"
   id="path16"
   style="fill:#e9e1d0;fill-opacity:1" />
</svg>
