<?xml version="1.0" encoding="UTF-8" standalone="no"?>
<!-- Created with Inkscape (http://www.inkscape.org/) -->

<svg
   width="87.501602mm"
   height="21.747995mm"
   viewBox="0 0 310.04501 77.059788"
   id="svg2"
   version="1.1"
   inkscape:version="1.1.2 (b8e25be833, 2022-02-05)"
   sodipodi:docname="sega32x.svg"
   xmlns:inkscape="http://www.inkscape.org/namespaces/inkscape"
   xmlns:sodipodi="http://sodipodi.sourceforge.net/DTD/sodipodi-0.dtd"
   xmlns="http://www.w3.org/2000/svg"
   xmlns:svg="http://www.w3.org/2000/svg"
   xmlns:rdf="http://www.w3.org/1999/02/22-rdf-syntax-ns#"
   xmlns:cc="http://creativecommons.org/ns#"
   xmlns:dc="http://purl.org/dc/elements/1.1/">
  <defs
     id="defs4" />
  <sodipodi:namedview
     id="base"
     pagecolor="#ffffff"
     bordercolor="#666666"
     borderopacity="1.0"
     inkscape:pageopacity="0.0"
     inkscape:pageshadow="2"
     inkscape:zoom="3.959798"
     inkscape:cx="152.53303"
     inkscape:cy="56.82108"
     inkscape:document-units="px"
     inkscape:current-layer="layer1"
     showgrid="false"
     inkscape:window-width="2560"
     inkscape:window-height="1387"
     inkscape:window-x="-8"
     inkscape:window-y="-8"
     inkscape:window-maximized="1"
     inkscape:pagecheckerboard="0" />
  <metadata
     id="metadata7">
    <rdf:RDF>
      <cc:Work
         rdf:about="">
        <dc:format>image/svg+xml</dc:format>
        <dc:type
           rdf:resource="http://purl.org/dc/dcmitype/StillImage" />
      </cc:Work>
    </rdf:RDF>
  </metadata>
  <g
     inkscape:label="Layer 1"
     inkscape:groupmode="layer"
     id="layer1"
     transform="translate(4.4577137,-958.56313)">
    <text
       xml:space="preserve"
       style="font-style:normal;font-weight:normal;line-height:0%;font-family:sans-serif;letter-spacing:0px;word-spacing:0px;fill:#000000;fill-opacity:1;stroke:none;stroke-width:1px;stroke-linecap:butt;stroke-linejoin:miter;stroke-opacity:1"
       x="28.571428"
       y="434.50507"
       id="text4147"><tspan
         sodipodi:role="line"
         id="tspan4149"
         x="28.571428"
         y="434.50507"
         style="font-style:normal;font-variant:normal;font-weight:bold;font-stretch:normal;font-size:40px;line-height:1.25;font-family:'PresicravW00-Heavy Regular';-inkscape-font-specification:'PresicravW00-Heavy Regular,  Bold'"> </tspan><tspan
         sodipodi:role="line"
         x="28.571428"
         y="484.50507"
         style="font-style:normal;font-variant:normal;font-weight:bold;font-stretch:normal;font-size:40px;line-height:1.25;font-family:'PresicravW00-Heavy Regular';-inkscape-font-specification:'PresicravW00-Heavy Regular,  Bold'"
         id="tspan4151"> </tspan></text>
    <g
       id="g1133"
       transform="translate(15.06696,-6.0267835)">
      <g
         style="font-style:normal;font-weight:normal;font-size:98.3948px;line-height:125%;font-family:sans-serif;letter-spacing:0px;word-spacing:0px;fill:#e9e1d0;fill-opacity:1;stroke:#e9e1d0;stroke-width:1px;stroke-linecap:butt;stroke-linejoin:miter;stroke-opacity:1"
         id="text4153-0"
         transform="translate(-98.994949,565.68542)">
        <path
           d="m 340.80048,422.60975 18.39982,-20.36772 h 24.4019 l -30.30559,31.78151 31.9783,38.66915 h -26.2714 l -18.99019,-22.5324 -19.87574,22.5324 h -24.59869 l 32.47027,-35.61891 -30.79756,-34.83175 h 26.46819 z"
           style="font-style:normal;font-variant:normal;font-weight:900;font-stretch:normal;font-family:PresicavW00-Heavy;-inkscape-font-specification:'PresicavW00-Heavy Heavy';fill:#e9e1d0;fill-opacity:1;stroke:#e9e1d0;stroke-opacity:1"
           id="path4383"
           inkscape:connector-curvature="0" />
      </g>
      <path
         style="fill:#e9e1d0;fill-opacity:1;stroke:#e9e1d0;stroke-width:0.951226;stroke-opacity:1"
         d="m 187.38393,1017.9111 v 23.263 h -2.37021 v -23.263 z"
         id="rect4147-7"
         inkscape:connector-curvature="0" />
      <path
         style="fill:#e9e1d0;fill-opacity:1;stroke:#e9e1d0;stroke-width:1.10365;stroke-opacity:1"
         d="m 229.52199,968.33007 h -33.46778 v -2.21778 h 33.46778 z"
         id="rect4147-2-16"
         inkscape:connector-curvature="0" />
      <path
         style="fill:#e9e1d0;fill-opacity:1;stroke:#e9e1d0;stroke-width:1.10365;stroke-opacity:1"
         d="m 288.98631,968.33007 h -33.46778 v -2.21778 h 33.46778 z"
         id="rect4147-2-6-9"
         inkscape:connector-curvature="0" />
      <path
         style="fill:#e9e1d0;fill-opacity:1;stroke:#e9e1d0;stroke-width:1.10365;stroke-opacity:1"
         d="m 227.64699,1039.9372 h -33.46778 v -2.2178 h 33.46778 z"
         id="rect4147-2-1-5"
         inkscape:connector-curvature="0" />
      <path
         style="fill:#e9e1d0;fill-opacity:1;stroke:#e9e1d0;stroke-width:1.10365;stroke-opacity:1"
         d="m 289.96846,1040.6515 h -33.46778 v -2.2178 h 33.46778 z"
         id="rect4147-2-6-7-6"
         inkscape:connector-curvature="0" />
      <g
         style="font-style:normal;font-weight:normal;font-size:98.3948px;line-height:125%;font-family:sans-serif;letter-spacing:0px;word-spacing:0px;fill:#e9e1d0;fill-opacity:1;stroke:#e9e1d0;stroke-width:1px;stroke-linecap:butt;stroke-linejoin:miter;stroke-opacity:1"
         id="text4153-2-9"
         transform="translate(-98.994949,565.68542)">
        <path
           d="m 283.90846,472.83252 h -80.58532 v -17.61266 q 5.41171,-5.7069 11.61058,-10.03627 5.41172,-3.739 11.21701,-6.29727 5.90368,-2.55826 11.51218,-4.32937 5.7069,-1.8695 10.72503,-3.14863 5.11653,-1.37752 8.95393,-2.65666 3.83739,-1.27913 6.10047,-2.75505 2.26308,-1.47592 2.26308,-3.64061 0,-2.55826 -3.14863,-4.42776 -3.14863,-1.9679 -10.82342,-1.9679 -5.60851,0 -11.11861,0.98395 -5.51011,0.88555 -10.62664,2.45987 -5.01813,1.57432 -9.54429,3.64061 -4.42776,2.06629 -7.87158,4.32937 l -7.87158,-16.03835 q 3.24703,-2.06629 7.77318,-4.03419 4.62456,-2.06629 10.62664,-3.6406 6.00208,-1.57432 13.48008,-2.55827 7.5764,-0.98394 16.72711,-0.98394 7.18282,0 13.08651,1.67271 6.00208,1.57431 10.23305,4.42776 4.23098,2.85345 6.49406,6.88764 2.36147,4.03418 2.36147,8.85552 0,5.8053 -1.67271,9.4459 -1.67271,3.64061 -5.31332,6.19887 -3.6406,2.55827 -9.44589,4.52616 -5.7069,1.8695 -13.77527,4.13258 -3.739,1.08234 -8.16677,2.36148 -4.42776,1.27913 -8.36355,2.55826 -3.8374,1.27913 -6.78924,2.45987 -2.85345,1.18074 -3.44382,1.9679 h 55.39626 z"
           style="font-style:normal;font-variant:normal;font-weight:900;font-stretch:normal;font-family:PresicavW00-Heavy;-inkscape-font-specification:'PresicavW00-Heavy Heavy';fill:#e9e1d0;fill-opacity:1;stroke:#e9e1d0;stroke-opacity:1"
           id="path4375"
           inkscape:connector-curvature="0" />
      </g>
      <g
         style="font-style:normal;font-weight:normal;font-size:98.3948px;line-height:125%;font-family:sans-serif;letter-spacing:0px;word-spacing:0px;fill:#e9e1d0;fill-opacity:1;stroke:#e9e1d0;stroke-width:1px;stroke-linecap:butt;stroke-linejoin:miter;stroke-opacity:1"
         id="text4153-1-7"
         transform="translate(-98.994949,565.68542)">
        <path
           d="m 135.27536,443.78053 v -14.956 h 22.04043 q 5.11653,0 8.56035,-0.49198 3.44381,-0.49197 5.5101,-1.37752 2.16469,-0.88556 3.05024,-2.16469 0.88555,-1.27913 0.88555,-2.95184 0,-3.14863 -4.32937,-4.82134 -4.23097,-1.77111 -14.66082,-1.77111 -5.21492,0 -10.23305,0.78716 -5.01813,0.78716 -9.4459,2.06629 -4.32937,1.18073 -7.87158,2.75505 -3.54221,1.47592 -5.90369,2.85345 l -6.98603,-16.72711 q 2.16469,-1.08234 6.39566,-2.36148 4.32937,-1.37752 9.83948,-2.45986 5.6085,-1.18074 12.10256,-1.9679 6.49405,-0.78716 13.0865,-0.78716 7.08443,0 13.57848,1.18074 6.49405,1.18074 11.41379,3.739 5.01814,2.45987 7.96998,6.29727 2.95184,3.739 2.95184,8.95392 0,3.24703 -1.08234,5.90369 -0.98395,2.65665 -2.65666,4.72294 -1.67271,1.9679 -3.83739,3.34543 -2.0663,1.37752 -4.13259,2.06629 4.13259,0.39358 6.98603,2.06629 2.85345,1.67271 4.62456,4.03418 1.7711,2.26308 2.45987,4.91974 0.78715,2.55826 0.78715,4.72295 0,12.10256 -10.42984,17.61266 -10.33145,5.41171 -31.68312,5.41171 -6.98602,0 -13.57847,-0.98394 -6.49406,-0.98395 -12.00417,-2.45987 -5.5101,-1.47592 -9.74108,-3.14863 -4.23097,-1.77111 -6.49405,-3.24703 l 7.67479,-16.13674 q 1.8695,1.47592 6.29726,3.24702 4.52616,1.67271 9.93788,3.14864 5.41171,1.47592 10.72503,2.45987 5.41171,0.98394 9.05231,0.98394 3.9358,0 7.47801,-0.39358 3.6406,-0.39358 6.29726,-1.27913 2.75506,-0.88555 4.32937,-2.26308 1.67271,-1.37752 1.67271,-3.34542 0,-4.23097 -4.42776,-5.7069 -4.32937,-1.47592 -14.16885,-1.47592 z"
           style="font-style:normal;font-variant:normal;font-weight:900;font-stretch:normal;font-family:PresicavW00-Heavy;-inkscape-font-specification:'PresicavW00-Heavy Heavy';fill:#e9e1d0;fill-opacity:1;stroke:#e9e1d0;stroke-opacity:1"
           id="path4372"
           inkscape:connector-curvature="0" />
      </g>
      <path
         style="fill:#e9e1d0;fill-opacity:1;stroke:#e9e1d0;stroke-width:0.951226;stroke-opacity:1"
         d="m 17.328677,969.98156 9.100235,21.40924 -2.181323,0.9272 -9.100235,-21.40925 z"
         id="rect4147-24-5"
         inkscape:connector-curvature="0" />
      <path
         style="fill:#e9e1d0;fill-opacity:1;stroke:#e9e1d0;stroke-width:0.951226;stroke-opacity:1"
         d="m 21.508776,1010.7793 -11.366399,20.2971 2.068014,1.1581 11.366399,-20.2971 z"
         id="rect4147-24-7-0"
         inkscape:connector-curvature="0" />
      <path
         style="fill:#e9e1d0;fill-opacity:1;stroke:#e9e1d0;stroke-width:0.951226;stroke-opacity:1"
         d="m 38.758931,990.4111 v 23.2631 h -2.37021 v -23.2631 z"
         id="rect4147-0-6"
         inkscape:connector-curvature="0" />
      <path
         style="fill:#e9e1d0;fill-opacity:1;stroke:#e9e1d0;stroke-width:0.951226;stroke-opacity:1"
         d="m 106.71105,974.19726 9.10023,21.40925 -2.18132,0.92719 -9.10023,-21.40924 z"
         id="rect4147-24-6-7"
         inkscape:connector-curvature="0" />
    </g>
    <g
       id="g952"
       transform="matrix(0,-0.17058949,0.17058949,0,184.88572,1178.2937)"
       style="fill:#e9e1d0;fill-opacity:1">
      <g
         id="g1822"
         transform="matrix(0.59040684,0,0,0.59040684,842.75634,-1109.997)">
        <path
           class="st0"
           d="m 744.9,232.5 h -3.4 c -38.3,0 -76.7,-0.1 -115,-0.1 -1.2,0 -2.3,-0.1 -3.4,-0.4 -2.1,-0.6 -3.2,-1.9 -3.2,-4.4 0.1,-8.8 0,-17.7 0,-26.8 h 81.8 c -0.3,-1.2 -0.4,-1.9 -0.6,-2.7 -6.9,-21.3 -13.7,-42.6 -20.7,-63.9 -9.9,-30.2 -19.9,-60.4 -30,-90.6 -1.2,-3.6 -3.2,-6.9 -5.8,-9.7 -8.3,-8.3 -21.1,-5.9 -26.5,4.9 -1.9,3.8 -3.1,8.1 -4.4,12.2 -10.8,32.9 -21.6,65.8 -32.3,98.8 -8.6,25.9 -17.1,51.9 -25.8,77.8 -1.4,4.3 -2.6,5.2 -7.1,5.2 -41,-0.1 -82,0 -123,-0.3 -31.1,-0.2 -57.4,-24.6 -60.6,-55.7 -0.3,-2.6 -0.4,-5.1 -0.4,-7.7 0,-32.8 0,-65.6 0,-98.4 0,-7.2 0.7,-14.3 2.7,-21.2 4.4,-15.2 14.1,-26.2 27.1,-34.6 11,-7.2 23.2,-10.4 36.2,-10.5 31.9,-0.1 63.8,0 95.7,0 h 2.1 v 32.3 h -2.6 c -25.7,0 -51.3,0.1 -77,0.1 -7.8,0 -15.7,-0.5 -23.5,0 -16.1,1.1 -27.6,12.6 -29.3,28.6 -0.3,2.9 -0.5,5.8 -0.5,8.7 -0.1,30.9 -0.1,61.9 -0.1,92.9 0,15.4 9.4,28.2 23.5,32.4 6.1,1.8 12.2,1 18.4,1 h 60.3 v -85.5 h -56 V 83 h 86.8 v 126.5 c 0.7,-0.8 0.9,-1 1,-1.2 9,-27.7 18,-55.4 27.1,-83.1 9.6,-29 19.2,-58 28.9,-87 4.5,-13.6 12.5,-24.7 25.1,-31.9 15.4,-8.8 30.9,-7.8 46.2,0.3 10.6,5.6 17.8,14.3 22,25.3 3.7,9.7 6.6,19.7 9.9,29.6 8.1,24.4 16.2,48.8 24.3,73.3 10.1,30.7 20.3,61.3 30.4,92 0.7,1.7 1.1,3.5 1.7,5.7 z"
           id="path4"
           style="fill:#e9e1d0;fill-opacity:1" />
        <path
           class="st0"
           d="m 171.2,36.5 c -0.7,0 -1.5,0.1 -2.3,0.1 -25.9,0 -51.8,0.1 -77.7,0.1 -6.7,0 -13.3,-0.4 -20,0 C 51.3,38 34.9,53.8 32,73.6 c -3.6,24.5 13.3,44.6 35.3,47.9 4.4,0.7 9,0.4 13.4,0.6 8.1,0.4 16.4,0 24.4,1.3 17.8,2.7 30.3,19.5 28.2,38.3 -2,18.9 -16.7,31.6 -35.6,31.6 H 5.2 c -0.5,0 -1,0 -1.5,0 -3.3,-0.1 -3.3,-0.1 -3.3,-3.4 v -28 c 1.6,-0.1 3.1,-0.3 4.6,-0.3 29.4,-0.1 58.8,-0.2 88.2,-0.1 4,0 6.4,-1.3 8.5,-4.4 -1.7,-2.3 -4,-3.2 -6.9,-3.2 -8.7,0 -17.5,0.2 -26.2,-0.1 -23,-1 -40.8,-11.7 -54.1,-30.1 C -5.4,96.1 -4.2,56.9 17.5,31.7 29,18.4 43.2,9 60.8,5.6 64.7,4.8 68.7,4.4 72.7,4.4 c 31.6,-0.1 63.2,-0.1 94.7,0 0.9,0 1.9,-0.1 2.7,0.2 0.6,0.2 1.4,1 1.4,1.6 0.1,9.9 0,19.8 0,29.8 0,0 -0.1,0.2 -0.3,0.5 z"
           id="path10"
           style="fill:#e9e1d0;fill-opacity:1" />
        <path
           class="st0"
           d="m 171.5,44 v 31.2 c -1.9,0.1 -3.7,0.3 -5.6,0.3 -21.9,0 -43.8,0 -65.7,0 -7.5,0 -15,0.2 -22.5,0.1 -3.1,0 -4.9,2.1 -7.2,3.8 2.6,2.1 5.3,3.4 8.7,3.3 6.9,-0.1 13.8,-0.2 20.7,0 31.3,1 58.8,22.4 68.5,52.5 11,34.2 -4.7,68.6 -27.9,84.3 -12.2,8.3 -26.6,12.8 -41.4,13 -31,0.5 -62.1,0.5 -93.2,0.6 -4.8,0 -5.9,-1.2 -5.9,-5.9 0,-8.1 0.1,-16.2 0.1,-24.3 0,-0.8 0,-1.6 0,-2.8 h 3.4 c 31.2,0 62.3,0 93.5,0 7.1,0 14.1,-0.9 20.7,-4 12.7,-6 19.2,-16.6 22.4,-29.8 5.6,-23.5 -12.8,-48.7 -36.8,-51.1 -7.4,-0.7 -14.8,-0.5 -22.2,-1.1 -6.8,-0.5 -13.6,-1.4 -20.3,-2.6 -8.5,-1.7 -14.3,-7.1 -18,-14.8 -8.2,-16.5 -3,-36.6 12.1,-47.1 6.1,-4.3 13.1,-5.8 20.3,-5.8 9.5,0 19,0.3 28.5,0.3 21.4,0 42.8,-0.1 64.2,-0.1 z"
           id="path12"
           style="fill:#e9e1d0;fill-opacity:1" />
        <path
           class="st0"
           d="m 352.1,232 c -4,0 -7.8,0 -11.5,0 -21.1,0.1 -42.1,0.4 -63.2,0.4 -12.7,0 -25.5,-0.4 -38.2,-1 -17.5,-0.9 -30.6,-9.6 -40.5,-23.8 -8.6,-12.4 -12.5,-26.3 -12.6,-41.2 -0.2,-29.9 0,-59.7 0,-89.6 0,-10.4 0.4,-20.7 3.9,-30.6 3.2,-9.1 8.2,-16.9 15.5,-23.2 8.2,-7.2 17,-13.5 27.7,-16.5 C 237,5.4 241,4.8 245,4.7 280.1,4.6 315.2,4.6 350.2,4.6 h 2.6 v 32 H 350 c -24.5,0 -49,0.1 -73.5,0.1 -8.5,0 -17,-0.1 -25.5,-0.4 -18.4,-0.5 -32.9,12.5 -34.1,31 -0.4,6.2 -0.4,12.3 -0.4,18.5 0,22.4 0,44.7 0,67.1 0,6.2 0,12.4 0.4,18.5 1.2,16.6 13.4,28.5 30,29 12.9,0.4 25.8,0.2 38.7,0.2 21.2,0 42.5,0 63.7,0 h 2.6 V 232 Z"
           id="path16"
           style="fill:#e9e1d0;fill-opacity:1" />
        <path
           class="st0"
           d="m 692.1,193.2 h -71.9 v -23.3 l -0.7,-0.2 c -0.7,1.3 -1.4,2.7 -1.9,4.1 -6,17.9 -12,35.9 -17.9,53.8 -1.4,4.2 -2.3,4.9 -6.6,4.9 h -31.2 c 0.2,-0.8 0.3,-1.4 0.5,-2 16.4,-49.9 32.8,-99.8 49.2,-149.7 4,-12.1 8,-24.2 11.9,-36.3 1.8,-5.6 4.8,-7.9 9.9,-7.8 5.4,0 8.7,2.6 10.5,7.9 15.8,48.6 31.6,97.2 47.4,145.8 0.2,0.9 0.4,1.7 0.8,2.8 z M 633.3,126 c -3.6,10.9 -6.9,21.1 -10.3,31.4 h 21.3 c -3.7,-10.4 -7.2,-20.5 -11,-31.4 z"
           id="path18"
           style="fill:#e9e1d0;fill-opacity:1" />
        <path
           class="st0"
           d="m 489.4,193 c -0.8,0.1 -1.6,0.1 -2.3,0.1 -16.2,0.1 -32.3,0.2 -48.5,0.2 -5.2,0 -10.4,0 -15.5,-0.5 -12.1,-1.2 -19.8,-9.9 -20,-22.8 -0.4,-22.8 -0.4,-45.6 -0.5,-68.3 0,-10.5 0.2,-21 0.3,-31.5 0.1,-15.7 12.7,-26.9 28.3,-26.3 17.6,0.7 35.1,0.5 52.7,0.6 14.5,0.1 29,0 43.5,-0.1 0.3,0 0.6,0.1 0.8,0.2 v 30.3 h -2.9 c -26.2,0 -52.5,0 -78.7,0 -1.7,0 -3.3,0.1 -5,0.3 -5.5,0.7 -7.9,3.3 -8.1,8.9 -0.1,3.4 -0.1,6.8 -0.1,10.3 0,18.9 0,37.7 0.1,56.6 0,6.9 2.9,10.2 9.8,10.6 4.5,0.3 9,0.1 13.5,-0.1 0.6,0 1.7,-1.1 1.7,-1.7 0.3,-1.7 0.1,-3.5 0.1,-5.5 h -16.8 v -31.5 h 47.5 z"
           id="path20"
           style="fill:#e9e1d0;fill-opacity:1" />
        <path
           class="st0"
           d="m 330.7,114.3 h -106 c -0.1,-0.6 -0.2,-1.3 -0.2,-1.9 -0.1,-13.7 -0.2,-27.3 -0.1,-41 0.1,-10.8 4.2,-19.5 13.9,-24.9 2.3,-1.3 4.9,-2 7.6,-2 18,-0.3 36,-0.3 54,-0.4 16.7,-0.1 33.5,-0.1 50.2,-0.2 h 2.6 c 0.1,1 0.2,1.7 0.2,2.4 0,9 0,18 0,27 0,1.8 -0.5,2.4 -2.4,2.4 -25.5,-0.1 -51,0.1 -76.5,-0.2 -6.1,-0.1 -12,-0.2 -17.2,3.5 -0.7,0.5 -1.1,1.3 -1.7,2 0.8,0.4 1.7,1.2 2.5,1.2 23.5,0.1 47,0.1 70.5,0.1 h 2.7 z"
           id="path22"
           style="fill:#e9e1d0;fill-opacity:1" />
        <path
           class="st0"
           d="m 255.1,153.7 c 0.5,4.4 3,7.1 7,7.6 1.7,0.2 3.3,0.3 5,0.3 27.1,0 54.3,0 81.5,0 h 3.4 v 31.1 h -2.7 c -32.8,0 -65.6,0 -98.4,0 -2.7,0 -5.3,-0.3 -7.9,-0.8 -10.6,-2.2 -16.9,-9 -17.7,-19.7 -0.6,-7.9 -0.4,-15.8 -0.5,-23.7 -0.1,-8 0,-16 -0.1,-24 0,-1.9 0.6,-2.4 2.4,-2.4 18.2,0.1 36.3,0.2 54.5,0.2 14.2,0 28.3,-0.2 42.5,-0.3 1.2,0 2.3,0.1 3.5,0.3 2.4,0.3 3.6,1.7 3.6,4 0,2.3 -0.3,4.5 -0.3,6.7 0,5.7 0.1,11.5 0.1,17.2 0,1.1 0,2.1 0,3.5 z"
           id="path26"
           style="fill:#e9e1d0;fill-opacity:1" />
      </g>
    </g>
  </g>
</svg>
