<?xml version="1.0" encoding="UTF-8" standalone="no"?>
<!-- Generator: Adobe Illustrator 26.0.3, SVG Export Plug-In . SVG Version: 6.00 Build 0)  -->

<svg
   version="1.1"
   id="segacd"
   x="0px"
   y="0px"
   viewBox="0 0 285.79999 33.168316"
   xml:space="preserve"
   sodipodi:docname="segacd.svg"
   width="285.79999"
   height="33.168316"
   inkscape:version="1.1.2 (b8e25be833, 2022-02-05)"
   xmlns:inkscape="http://www.inkscape.org/namespaces/inkscape"
   xmlns:sodipodi="http://sodipodi.sourceforge.net/DTD/sodipodi-0.dtd"
   xmlns="http://www.w3.org/2000/svg"
   xmlns:svg="http://www.w3.org/2000/svg"><defs
   id="defs21" /><sodipodi:namedview
   id="namedview19"
   pagecolor="#ffffff"
   bordercolor="#666666"
   borderopacity="1.0"
   inkscape:pageshadow="2"
   inkscape:pageopacity="0.0"
   inkscape:pagecheckerboard="0"
   showgrid="false"
   inkscape:zoom="0.55104167"
   inkscape:cx="842.94896"
   inkscape:cy="313.95085"
   inkscape:window-width="2560"
   inkscape:window-height="1387"
   inkscape:window-x="-8"
   inkscape:window-y="-8"
   inkscape:window-maximized="1"
   inkscape:current-layer="segacd" />
<style
   type="text/css"
   id="style2">
	.st0{fill:#E9E1D0;}
</style>
<g
   id="g16"
   transform="translate(-116,-226.03168)"
   style="fill:#e9e1d0;fill-opacity:1">
	<g
   id="g14"
   style="fill:#e9e1d0;fill-opacity:1">
		<path
   class="st0"
   d="m 401.8,258.3 c -33.9,0 -67.8,0 -101.9,0 0,-10.5 0,-20.7 0,-31.5 34,0 67.9,0 101.9,0 0,10.6 0,21 0,31.5 z m -48.4,-6.5 c 3.6,-0.7 7,-1.3 10.3,-2.1 8.9,-2 17.9,-4 26.2,-7.9 1.8,-0.9 3.6,-1.9 5.2,-3.1 3.1,-2.5 2.8,-4.8 -0.9,-6.4 -1.9,-0.9 -4,-1.5 -6.1,-1.8 -10.1,-1.8 -20.1,-1 -30.2,0.5 2.2,0.3 4.5,0 6.7,0.3 4.1,0.6 8.3,1.1 12.1,2.5 4.7,1.7 4.9,5.7 1,8.7 -0.9,0.7 -2,1.3 -3.1,1.8 -5.6,2.7 -11.6,4.1 -18,5.3 -1,-3 -1.9,-5.8 -2.8,-8.6 -0.2,0.1 -0.4,0.1 -0.6,0.1 0.2,3.5 0.2,6.9 0.2,10.7 z m -11.4,1.7 c 0,-0.2 -0.1,-0.3 -0.1,-0.5 -1.3,0 -2.6,0 -3.9,0 -4.5,-0.1 -9.1,-0.1 -13.3,-2.1 -4,-1.9 -4.7,-5.3 -1.9,-8.7 1,-1.1 2.2,-2.2 3.5,-2.9 2.7,-1.4 5.6,-2.6 8.4,-3.8 1.7,-0.7 3.4,-1.2 5.1,-1.7 -2.7,0 -5.2,0.5 -7.8,1 -7.2,1.6 -14.4,3.2 -20.9,6.9 -2.1,1.2 -4.2,2.8 -5.8,4.6 -1.8,1.9 -1.4,4.1 0.9,5.4 1.9,1.1 4.1,1.9 6.3,2.4 7.3,1.6 14.7,1.1 22,0.4 2.6,-0.3 5,-0.7 7.5,-1 z"
   id="path4"
   style="fill:#e9e1d0;fill-opacity:1" />
		<path
   class="st0"
   d="m 116,255.4 c 1.4,-2.5 2.9,-4.9 4.5,-7.7 1.5,3.3 4.2,4.2 7.1,4.9 4.6,1.3 9.4,2 14.1,0.7 1.5,-0.4 3,-1 4.2,-1.9 2.1,-1.5 1.8,-3.4 -0.6,-4.3 -1.6,-0.6 -3.5,-0.8 -5.2,-1 -4.4,-0.5 -8.8,-0.7 -13.1,-1.3 -1.8,-0.2 -3.7,-0.9 -5.4,-1.8 -5.2,-2.9 -5.7,-9.4 -1,-13.1 3.2,-2.5 7.1,-3.4 11,-3.7 6.1,-0.5 12.1,0.1 18,2.1 1.9,0.6 4,0.9 6.3,1.4 -1.5,2.2 -3.1,4.6 -4.6,6.9 -1.5,-1 -2.7,-2.1 -4.1,-2.8 -4.1,-1.9 -8.4,-2.8 -12.9,-2.5 -1.8,0.1 -3.5,0.5 -5.2,1.1 -1.6,0.5 -3.2,1.4 -3.1,3.4 0.2,1.9 2,2.2 3.5,2.4 2.8,0.4 5.7,0.5 8.5,0.8 3.3,0.4 6.6,0.8 9.9,1.4 1.3,0.2 2.5,0.8 3.6,1.4 5.6,3 6.1,9.7 1,13.5 -3.3,2.4 -7.1,3.2 -11.1,3.6 -7,0.7 -13.8,0 -20.4,-2.4 -1.5,-0.4 -3.1,-0.7 -5,-1.1 z"
   id="path6"
   style="fill:#e9e1d0;fill-opacity:1" />
		<path
   class="st0"
   d="m 223.5,248 c 0,-2.1 0,-4.2 0,-6.1 1.9,0.3 3.6,0.7 5.4,0.7 5.2,0.1 10.5,0 15.8,0 -2,3.8 -2.6,7.5 0.3,11.3 -8.2,3.9 -16.6,5.8 -25.6,4.7 -3.3,-0.4 -6.6,-1.2 -9.6,-2.4 -5.8,-2.2 -9.4,-6.4 -9.6,-12.9 -0.3,-6.6 3.1,-11.1 8.8,-13.9 8.8,-4.2 17.9,-4.2 27.1,-1.5 1.8,0.5 3.6,0.8 5.9,1.4 -1.3,2.2 -2.7,4.5 -4,6.6 -1.8,-1.1 -3.2,-2.2 -4.9,-2.8 -4.9,-1.9 -10,-2.1 -15.1,-0.6 -1.9,0.6 -3.8,1.5 -5.4,2.7 -4.9,3.8 -5.1,10.7 -0.1,14.5 2.3,1.7 5.2,3.1 8,3.4 3.9,0.4 8.1,0 12,-0.6 3.9,-0.6 3.8,-0.9 3.4,-5.5 -4.2,0.2 -8.3,-0.8 -12.4,1 z"
   id="path8"
   style="fill:#e9e1d0;fill-opacity:1" />
		<path
   class="st0"
   d="m 187.9,238.6 c 0,2.4 0,4.7 0,6.5 -6.3,-0.9 -12.5,-0.3 -18.8,-0.4 0,3 0,5.5 0,8.1 5.1,1 25.2,0.6 28.2,-0.6 0,2.4 0,4.8 0,7 -1.7,-0.3 -3.4,-0.7 -5,-0.8 -9.9,-0.1 -19.8,0 -29.7,0 -1.2,0 -2.3,0 -3.1,0 0.4,-2 1.1,-3.9 1.1,-5.8 0.1,-6.8 0.1,-13.6 0,-20.4 0,-1.6 -0.6,-3.3 -1,-5.2 0.3,0 1.2,-0.1 2.1,-0.1 10,0 20,0 30,0 1.6,0 3.2,-0.4 4.9,-0.7 0,2 0,4.3 0,6.5 -2.4,-0.2 -4.9,-0.5 -7.4,-0.6 -6.5,-0.1 -13.1,0 -19.9,0 0,2.4 0,4.6 0,7.2 6.1,-0.2 12.3,0.7 18.6,-0.7 z"
   id="path10"
   style="fill:#e9e1d0;fill-opacity:1" />
		<path
   class="st0"
   d="m 258.4,258.2 c -4.9,0 -8.7,0 -12.2,0 1.5,-2.3 3.2,-4.5 4.5,-6.9 3.7,-6.6 7.3,-13.3 11,-20 0.8,-1.4 1.6,-2.7 -0.9,-4.2 5,0 9.2,0 13.9,0 -1.9,1.6 -1.2,2.9 -0.4,4.4 4.1,7.4 8.1,14.8 12.3,22.1 0.9,1.6 2.2,2.9 3.5,4.5 -4.1,0 -8.2,0 -12.6,0 2.4,-2.5 0.1,-4.3 -0.8,-6.3 -0.9,-2.1 -2.7,-1.6 -4.3,-1.6 -3.6,0 -7.2,0.2 -10.7,-0.1 -2.9,-0.3 -3.6,1.6 -4.7,3.5 -0.8,1.6 -1.9,3.1 1.4,4.6 z m 3.1,-12.4 c 4.2,0 7.9,0 12,0 -2,-3.7 -3.9,-7.1 -6,-10.9 -2.2,3.9 -4.1,7.3 -6,10.9 z"
   id="path12"
   style="fill:#e9e1d0;fill-opacity:1" />
	</g>
</g>
</svg>
