<?xml version="1.0" encoding="UTF-8" standalone="no"?>
<!-- Generator: Adobe Illustrator 26.0.3, SVG Export Plug-In . SVG Version: 6.00 Build 0)  -->

<svg
   version="1.1"
   id="Layer_1"
   x="0px"
   y="0px"
   viewBox="0 0 264.04401 38.016354"
   xml:space="preserve"
   sodipodi:docname="sg-1000.svg"
   width="264.04401"
   height="38.016354"
   inkscape:version="1.1.2 (b8e25be833, 2022-02-05)"
   xmlns:inkscape="http://www.inkscape.org/namespaces/inkscape"
   xmlns:sodipodi="http://sodipodi.sourceforge.net/DTD/sodipodi-0.dtd"
   xmlns="http://www.w3.org/2000/svg"
   xmlns:svg="http://www.w3.org/2000/svg"><defs
   id="defs23" /><sodipodi:namedview
   id="namedview21"
   pagecolor="#ffffff"
   bordercolor="#666666"
   borderopacity="1.0"
   inkscape:pageshadow="2"
   inkscape:pageopacity="0.0"
   inkscape:pagecheckerboard="0"
   showgrid="false"
   inkscape:zoom="0.55104167"
   inkscape:cx="959.09263"
   inkscape:cy="540.79395"
   inkscape:window-width="2560"
   inkscape:window-height="1387"
   inkscape:window-x="-8"
   inkscape:window-y="-8"
   inkscape:window-maximized="1"
   inkscape:current-layer="Layer_1" />
<style
   type="text/css"
   id="style2">
	.st0{fill:#E9E1D0;}
</style>
<g
   transform="scale(0.44,0.441025)"
   id="g18"
   style="fill:#e9e1d0;fill-opacity:1">
	<path
   class="st0"
   d="m 80.2,69 c 0,5.1 -1.6,9.3 -4.7,12.5 -3.1,3.2 -7.3,4.7 -12.7,4.7 H 1.4 V 69 H 62.9 V 51.8 H 17.1 C 12,51.8 7.9,50.2 4.8,47 1.6,43.7 0,39.6 0,34.5 V 17.2 C 0,14.8 0.5,12.5 1.4,10.4 2.3,8.3 3.6,6.5 5.1,5 6.6,3.5 8.5,2.3 10.5,1.4 12.6,0.4 14.8,0 17.1,0 H 74.4 V 17.2 H 17.1 v 17.3 h 45.8 c 2.4,0 4.7,0.4 6.8,1.3 2.1,0.9 3.9,2.1 5.5,3.6 1.6,1.5 2.8,3.3 3.7,5.4 0.9,2.1 1.3,4.4 1.3,6.8 z"
   id="path4"
   style="fill:#e9e1d0;fill-opacity:1" />
	<path
   class="st0"
   d="m 180.2,86.2 h -69 C 99.8,86.2 94,80.4 94,69 V 17.2 c 0,-2.4 0.5,-4.7 1.4,-6.8 0.9,-2.1 2.2,-3.9 3.7,-5.4 1.6,-1.5 3.4,-2.7 5.4,-3.6 2.1,-0.9 4.3,-1.3 6.6,-1.3 h 66 v 17.2 h -66 V 69 h 51.6 V 51.8 H 128.4 V 34.5 H 180 v 51.7 z"
   id="path6"
   style="fill:#e9e1d0;fill-opacity:1" />
	<path
   class="st0"
   d="M 244.9,51.8 H 193.3 V 34.5 h 51.6 z"
   id="path8"
   style="fill:#e9e1d0;fill-opacity:1" />
	<path
   class="st0"
   d="M 304.8,86.2 H 253.2 V 69 h 17.3 V 17.2 H 253.2 V 0 h 34.5 v 69 h 17.1 z"
   id="path10"
   style="fill:#e9e1d0;fill-opacity:1" />
	<path
   class="st0"
   d="m 333.5,0 c -2.3,0 -4.4,0.4 -6.5,1.3 -2.1,0.9 -3.9,2.1 -5.4,3.6 -1.5,1.5 -2.8,3.3 -3.7,5.4 -0.9,2.1 -1.4,4.4 -1.4,6.8 V 69 c 0,11.5 5.7,17.2 17.1,17.2 h 51.6 c 11.5,0 17.2,-5.7 17.2,-17.2 V 17.2 c 0,-2.4 -0.4,-4.6 -1.3,-6.7 C 400.2,8.4 399,6.6 397.4,5 395.8,3.4 394,2.2 391.9,1.3 389.8,0.4 387.5,0 385.1,0 Z m 0,17.2 h 51.6 V 69 h -51.6 z"
   id="path12"
   style="fill:#e9e1d0;fill-opacity:1" />
	<path
   class="st0"
   d="m 432.3,0 c -2.3,0 -4.4,0.4 -6.5,1.3 -2.1,0.9 -3.9,2.1 -5.4,3.6 -1.5,1.5 -2.8,3.3 -3.7,5.4 -0.9,2.1 -1.4,4.4 -1.4,6.8 V 69 c 0,11.5 5.7,17.2 17.1,17.2 H 484 c 11.5,0 17.2,-5.7 17.2,-17.2 V 17.2 c 0,-2.4 -0.4,-4.6 -1.3,-6.7 C 499,8.4 497.8,6.6 496.2,5 494.6,3.4 492.8,2.2 490.7,1.3 488.6,0.4 486.3,0 484,0 Z m 0,17.2 H 484 V 69 H 432.4 V 17.2 Z"
   id="path14"
   style="fill:#e9e1d0;fill-opacity:1" />
	<path
   class="st0"
   d="m 531.2,0 c -2.3,0 -4.5,0.4 -6.5,1.3 -2.1,0.9 -3.9,2.1 -5.4,3.6 -1.5,1.5 -2.8,3.3 -3.7,5.4 -0.9,2.1 -1.4,4.4 -1.4,6.8 V 69 c 0,11.5 5.7,17.2 17.1,17.2 h 51.6 c 11.5,0 17.2,-5.7 17.2,-17.2 V 17.2 c 0,-2.4 -0.4,-4.6 -1.3,-6.7 C 597.9,8.4 596.7,6.6 595.1,5 593.5,3.4 591.7,2.2 589.6,1.3 587.5,0.4 585.2,0 582.8,0 Z m 0,17.2 h 51.6 V 69 h -51.6 z"
   id="path16"
   style="fill:#e9e1d0;fill-opacity:1" />
</g>
</svg>
