<?xml version="1.0" encoding="UTF-8" standalone="no"?>
<!-- Generator: Adobe Illustrator 26.0.3, SVG Export Plug-In . SVG Version: 6.00 Build 0)  -->

<svg
   version="1.1"
   id="Layer_2_00000143603841740488230950000002060522797712575412_"
   x="0px"
   y="0px"
   viewBox="0 0 263.96426 47.059925"
   xml:space="preserve"
   sodipodi:docname="fds.svg"
   width="263.96426"
   height="47.059925"
   inkscape:version="1.1.2 (b8e25be833, 2022-02-05)"
   xmlns:inkscape="http://www.inkscape.org/namespaces/inkscape"
   xmlns:sodipodi="http://sodipodi.sourceforge.net/DTD/sodipodi-0.dtd"
   xmlns="http://www.w3.org/2000/svg"
   xmlns:svg="http://www.w3.org/2000/svg"><defs
   id="defs41" /><sodipodi:namedview
   id="namedview39"
   pagecolor="#ffffff"
   bordercolor="#666666"
   borderopacity="1.0"
   inkscape:pageshadow="2"
   inkscape:pageopacity="0.0"
   inkscape:pagecheckerboard="0"
   showgrid="false"
   inkscape:zoom="0.55104167"
   inkscape:cx="959.09263"
   inkscape:cy="540.79395"
   inkscape:window-width="2560"
   inkscape:window-height="1387"
   inkscape:window-x="-8"
   inkscape:window-y="-8"
   inkscape:window-maximized="1"
   inkscape:current-layer="Layer_2_00000143603841740488230950000002060522797712575412_" />
<style
   type="text/css"
   id="style2">
	.st0{fill:#E9E1D0;}
	.st1{fill:#E9E1D0;stroke:#231F20;stroke-width:0.1518;stroke-miterlimit:1.76;}
</style>
<g
   transform="scale(0.44,0.440636)"
   id="g36"
   style="fill:#e9e1d0;fill-opacity:1">
	<path
   id="path7"
   class="st0"
   d="m 170.9,37.2 c 1.8,1.2 3.1,2.5 4,4 0.9,1.7 1.5,3.6 1.7,5.7 v 46.7 c 0,2.8 -0.5,5.1 -1.6,6.6 -1,1.6 -2.2,2.9 -3.5,3.8 -1.5,1.1 -3.2,1.8 -5.1,2.2 h -31.5 v -71 h 28.5 c 3.3,0.1 5.8,0.8 7.5,2 z m 2.3,9.5 c -0.2,-1.5 -0.6,-2.8 -1.3,-4.1 -0.5,-1 -1.4,-1.9 -2.5,-2.8 -1.1,-0.8 -2.7,-1.2 -4.7,-1.1 l -26.5,0.1 V 103 H 165 c 1.4,-0.3 2.7,-0.7 3.9,-1.4 0.9,-0.5 1.9,-1.3 2.7,-2.4 0.9,-1.1 1.4,-2.6 1.5,-4.5 v -48 z m -14.9,4.1 c 0.6,0.6 1.1,1.2 1.4,1.9 0.3,0.7 0.5,1.6 0.6,2.5 v 29.4 c 0.1,1.7 -0.1,3 -0.5,3.9 -0.4,0.9 -0.8,1.6 -1.4,2 -0.6,0.5 -1.3,0.8 -2,0.9 h -6.1 l -0.2,-41.7 h 5.5 c 1.2,0.1 2,0.5 2.7,1.1 z m -1.3,4.4 c -0.1,-0.5 -0.3,-1 -0.6,-1.3 -0.6,-0.7 -1.7,-0.9 -3.1,-0.6 v 34.9 c 0.6,0.2 1.2,0.3 1.7,0.2 0.5,-0.1 0.9,-0.3 1.3,-0.6 0.4,-0.3 0.6,-1 0.8,-1.9 V 55.2 Z"
   style="fill:#e9e1d0;fill-opacity:1" />
	<path
   id="path9"
   class="st0"
   d="M 200.7,35.5 V 106 H 181 V 35.5 Z m -3.4,4.1 h -13 v 62.6 h 13 z"
   style="fill:#e9e1d0;fill-opacity:1" />
	<path
   id="path11"
   class="st0"
   d="m 226.6,58.6 v -2.9 c 0.1,-1.4 -0.2,-2.2 -0.9,-2.4 -0.3,-0.1 -0.6,-0.1 -1.1,0 -0.5,0 -0.9,0.1 -1.2,0.4 -0.3,0.3 -0.4,0.5 -0.5,0.9 -0.1,0.3 -0.1,0.7 0,1.2 v 3.9 l 15.6,10.1 c 2,1.1 3.5,2.2 4.5,3.4 1,1.2 1.8,2.4 2.2,3.4 0.5,1.2 0.7,2.5 0.7,3.9 V 96 c -0.1,2.2 -0.7,4 -1.7,5.4 -1,1.4 -2.2,2.5 -3.4,3.2 -1.5,0.9 -3.1,1.5 -5,1.9 h -20.5 c -2.6,-0.1 -4.6,-0.7 -6,-1.9 -1.5,-1.2 -2.5,-2.5 -3.2,-3.8 -0.8,-1.6 -1.3,-3.4 -1.5,-5.5 V 72.1 L 223,83.4 v 4 c 0,0.6 0.1,1.1 0.3,1.4 0.2,0.3 0.4,0.5 0.7,0.7 0.3,0.2 0.6,0.3 1,0.3 1,-0.1 1.6,-0.5 1.7,-1.2 0.1,-0.3 0,-0.6 -0.1,-1.1 v -4.7 l -13.5,-8.1 c -2.4,-1.3 -4.1,-2.7 -5.3,-4.1 -1.2,-1.5 -2,-2.8 -2.6,-3.9 -0.6,-1.4 -0.9,-2.7 -0.9,-4.1 V 45.9 c 0.1,-2.6 0.7,-4.6 1.8,-6 1.1,-1.4 2.3,-2.5 3.6,-3.1 1.6,-0.7 3.3,-1.2 5.2,-1.3 H 233 c 3.1,0.1 5.5,0.7 7.2,1.7 1.7,1 3,2.2 3.9,3.4 0.9,1.5 1.6,3.1 1.8,5 v 25.8 z m -1.7,-8.8 c 1.1,0.1 1.9,0.4 2.5,0.8 0.6,0.4 1,0.8 1.4,1.3 0.3,0.5 0.6,1.1 0.7,1.8 v 2.9 l 13.2,7.9 -0.2,-17.3 c 0.1,-1.8 -0.3,-3.2 -1.2,-4.3 -0.8,-1.1 -1.8,-2 -2.8,-2.6 -1.2,-0.7 -2.6,-1.2 -4.2,-1.4 h -19.7 c -1.6,0.1 -2.8,0.6 -3.6,1.3 -0.9,0.7 -1.6,1.4 -2,2.2 -0.5,0.9 -0.9,2 -1.1,3 v 16.4 c -0.1,1.3 0.2,2.5 0.8,3.5 0.6,1 1.3,1.9 2,2.6 0.8,0.9 1.8,1.7 2.9,2.3 L 230.3,81 v 6.6 c 0,1.3 -0.3,2.3 -0.8,3 -0.5,0.7 -1.1,1.2 -1.8,1.6 -0.7,0.4 -1.6,0.7 -2.6,0.8 -1.3,-0.1 -2.3,-0.4 -2.9,-0.9 -0.7,-0.4 -1.2,-0.9 -1.5,-1.5 -0.4,-0.6 -0.7,-1.3 -0.8,-2.1 V 85.3 L 208,78.2 207.8,94.8 c 0.1,2 0.5,3.5 1.3,4.5 0.8,1 1.6,1.8 2.6,2.4 1.1,0.6 2.3,1 3.8,1.1 h 19.8 c 2,-0.1 3.4,-0.5 4.4,-1.3 1,-0.8 1.7,-1.7 2.2,-2.6 0.5,-1.1 0.8,-2.4 0.8,-3.9 V 79.9 c 0.1,-0.8 -0.1,-1.6 -0.6,-2.4 -0.5,-0.8 -1,-1.5 -1.6,-2.1 -0.7,-0.7 -1.6,-1.5 -2.4,-2.1 l -18,-11.7 v -7.5 c 0.1,-1.1 0.4,-2 1,-2.5 0.6,-0.5 1.2,-0.9 1.8,-1.2 0.4,-0.4 1.2,-0.5 2,-0.6 z"
   style="fill:#e9e1d0;fill-opacity:1" />
	<path
   id="path13"
   class="st0"
   d="m 289.4,62.1 -7.3,8.4 7.3,8.9 v 26.7 H 270.6 V 86.4 L 268,84 v 22.3 H 249 V 35.4 h 19 v 22.3 l 2.6,-3.1 V 35.4 h 18.8 z m -3.2,-22.6 h -11.8 l -0.1,16.9 -9.5,9.7 -0.4,-27.1 h -11.9 v 63 h 11.8 V 75.9 l 9.2,8.7 v 17.5 H 286 V 79.8 l -8,-9.3 8.2,-9.5 z"
   style="fill:#e9e1d0;fill-opacity:1" />
	<path
   id="path15"
   class="st0"
   d="m 344.5,58.6 v -2.9 c 0.1,-1.4 -0.2,-2.2 -0.9,-2.4 -0.3,-0.1 -0.6,-0.1 -1.1,0 -0.5,0 -0.9,0.1 -1.2,0.4 -0.3,0.3 -0.4,0.5 -0.5,0.9 -0.1,0.3 -0.1,0.7 0,1.2 v 3.9 l 15.6,10.1 c 2,1.1 3.5,2.2 4.5,3.4 1,1.2 1.8,2.4 2.2,3.4 0.5,1.2 0.7,2.5 0.7,3.9 V 96 c -0.1,2.2 -0.7,4 -1.7,5.4 -1,1.4 -2.2,2.5 -3.4,3.2 -1.5,0.9 -3.1,1.5 -5,1.9 h -20.5 c -2.6,-0.1 -4.6,-0.7 -6,-1.9 -1.5,-1.2 -2.5,-2.5 -3.2,-3.8 -0.8,-1.6 -1.3,-3.4 -1.5,-5.5 V 72.1 l 18.4,11.3 v 4 c 0,0.6 0.1,1.1 0.3,1.4 0.2,0.3 0.4,0.5 0.7,0.7 0.3,0.2 0.6,0.3 1,0.3 1,-0.1 1.6,-0.5 1.7,-1.2 0.1,-0.3 0,-0.6 -0.1,-1.1 V 82.8 L 331,74.5 c -2.4,-1.3 -4.1,-2.7 -5.3,-4.1 -1.2,-1.5 -2,-2.8 -2.6,-3.9 -0.6,-1.4 -0.9,-2.7 -0.9,-4.1 V 45.9 c 0.1,-2.6 0.7,-4.6 1.8,-6 1.1,-1.4 2.3,-2.5 3.6,-3.1 1.6,-0.7 3.3,-1.2 5.2,-1.3 h 18.1 c 3.1,0.1 5.5,0.7 7.2,1.7 1.7,1 3,2.2 3.9,3.4 0.9,1.5 1.6,3.1 1.8,5 v 25.8 z m -1.7,-8.8 c 1.1,0.1 1.9,0.4 2.5,0.8 0.6,0.4 1,0.8 1.4,1.3 0.3,0.5 0.6,1.1 0.7,1.8 v 2.9 l 13.2,7.9 -0.2,-17.3 c 0.1,-1.8 -0.3,-3.2 -1.2,-4.3 -0.8,-1.1 -1.8,-2 -2.8,-2.6 -1.2,-0.7 -2.6,-1.2 -4.2,-1.4 h -19.7 c -1.6,0.1 -2.8,0.6 -3.7,1.3 -0.9,0.7 -1.6,1.4 -2,2.2 -0.5,0.9 -0.9,2 -1.1,3 v 16.4 c -0.1,1.3 0.2,2.5 0.8,3.5 0.6,1 1.3,1.9 2,2.6 0.8,0.9 1.8,1.7 2.9,2.3 L 348.2,81 v 6.6 c 0,1.3 -0.3,2.3 -0.8,3 -0.5,0.7 -1.1,1.2 -1.8,1.6 -0.7,0.4 -1.6,0.7 -2.6,0.8 -1.3,-0.1 -2.3,-0.4 -2.9,-0.9 -0.7,-0.4 -1.2,-0.9 -1.5,-1.5 -0.4,-0.6 -0.7,-1.3 -0.8,-2.1 v -3.2 l -11.9,-7.1 -0.2,16.6 c 0.1,2 0.5,3.5 1.3,4.5 0.8,1 1.6,1.8 2.6,2.4 1.1,0.6 2.3,1 3.8,1.1 H 353 c 2,-0.1 3.4,-0.5 4.4,-1.3 1,-0.8 1.7,-1.7 2.2,-2.6 0.5,-1.1 0.8,-2.4 0.8,-3.9 V 79.9 c 0.1,-0.8 -0.1,-1.6 -0.6,-2.4 -0.5,-0.8 -1,-1.5 -1.6,-2.1 -0.7,-0.7 -1.6,-1.5 -2.4,-2.1 l -18,-11.7 v -7.5 c 0.1,-1.1 0.4,-2 1,-2.5 0.6,-0.5 1.2,-0.9 1.8,-1.2 0.5,-0.4 1.4,-0.5 2.2,-0.6 z"
   style="fill:#e9e1d0;fill-opacity:1" />
	<path
   id="path17"
   class="st0"
   d="m 409.5,35.6 v 60.2 c -0.1,2.4 -0.6,4.2 -1.5,5.6 -0.9,1.4 -1.9,2.4 -3.1,3.2 -1.3,0.8 -2.8,1.4 -4.5,1.7 H 370.5 V 89.1 h 19.1 v -3.3 h -13 c -2.5,-0.1 -4.4,-0.7 -5.7,-1.8 -1.3,-1.1 -2.2,-2.3 -2.7,-3.6 -0.7,-1.6 -1,-3.3 -1,-5.2 V 35.6 h 19.5 V 67.9 H 390 V 35.6 Z m -3.3,3.8 H 393.9 V 67 c -0.1,0.9 -0.3,1.7 -0.7,2.3 -0.3,0.6 -0.9,1.1 -1.6,1.6 -0.7,0.5 -1.7,0.7 -3.1,0.8 -1,0.1 -1.9,0 -2.6,-0.3 -0.7,-0.3 -1.3,-0.7 -1.8,-1.4 -0.5,-0.7 -0.8,-1.8 -0.9,-3.2 V 39.4 h -11.9 v 36 c 0.1,1.4 0.4,2.6 0.9,3.6 0.5,0.9 1.2,1.8 2.2,2.6 1,0.8 2.4,1.2 4.3,1.2 h 15.1 V 88 c -0.1,0.9 -0.4,1.7 -0.9,2.3 -0.4,0.5 -1,1 -1.8,1.5 -0.8,0.5 -1.9,0.7 -3.2,0.7 h -13.6 v 10 h 25.8 c 1.1,-0.1 2.2,-0.5 3,-1 0.7,-0.5 1.4,-1.2 2.1,-2.1 0.6,-0.9 1,-2.2 1,-3.9 z"
   style="fill:#e9e1d0;fill-opacity:1" />
	<path
   id="path19"
   class="st0"
   d="m 435.3,58.6 v -2.9 c 0.1,-1.4 -0.2,-2.2 -0.9,-2.4 -0.3,-0.1 -0.6,-0.1 -1.1,0 -0.5,0 -0.9,0.1 -1.2,0.4 -0.3,0.3 -0.4,0.5 -0.5,0.9 -0.1,0.3 -0.1,0.7 0,1.2 v 3.9 l 15.6,10.1 c 2,1.1 3.5,2.2 4.5,3.4 1,1.2 1.8,2.4 2.2,3.4 0.5,1.2 0.7,2.5 0.7,3.9 V 96 c -0.1,2.2 -0.7,4 -1.7,5.4 -1,1.4 -2.2,2.5 -3.4,3.2 -1.5,0.9 -3.1,1.5 -5,1.9 H 424 c -2.6,-0.1 -4.6,-0.7 -6,-1.9 -1.5,-1.2 -2.5,-2.5 -3.2,-3.8 -0.8,-1.6 -1.3,-3.4 -1.5,-5.5 V 72.1 l 18.4,11.3 v 4 c 0,0.6 0.1,1.1 0.3,1.4 0.2,0.3 0.4,0.5 0.7,0.7 0.3,0.2 0.6,0.3 1,0.3 1,-0.1 1.6,-0.5 1.7,-1.2 0.1,-0.3 0,-0.6 -0.1,-1.1 v -4.7 l -13.5,-8.1 c -2.4,-1.3 -4.1,-2.7 -5.3,-4.1 -1.2,-1.5 -2,-2.8 -2.6,-3.9 C 413.3,65.3 413,64 413,62.6 V 45.9 c 0.1,-2.6 0.7,-4.6 1.8,-6 1.1,-1.4 2.3,-2.5 3.6,-3.1 1.6,-0.7 3.3,-1.2 5.2,-1.3 h 18.1 c 3.1,0.1 5.5,0.7 7.2,1.7 1.7,1 3,2.2 3.9,3.4 0.9,1.5 1.6,3.1 1.8,5 v 25.8 z m -1.6,-8.8 c 1.1,0.1 1.9,0.4 2.5,0.8 0.6,0.4 1,0.8 1.4,1.3 0.3,0.5 0.6,1.1 0.7,1.8 v 2.9 l 13.2,7.9 -0.2,-17.3 c 0.1,-1.8 -0.3,-3.2 -1.2,-4.3 -0.8,-1.1 -1.8,-2 -2.8,-2.6 -1.2,-0.7 -2.6,-1.2 -4.2,-1.4 h -19.7 c -1.6,0.1 -2.8,0.6 -3.6,1.3 -0.9,0.7 -1.6,1.4 -2,2.2 -0.5,0.9 -0.9,2 -1.1,3 v 16.4 c -0.1,1.3 0.2,2.5 0.8,3.5 0.6,1 1.3,1.9 2,2.6 0.8,0.9 1.8,1.7 2.9,2.3 L 439,81 v 6.6 c 0,1.3 -0.3,2.3 -0.8,3 -0.5,0.7 -1.1,1.2 -1.8,1.6 -0.7,0.4 -1.6,0.7 -2.6,0.8 -1.3,-0.1 -2.3,-0.4 -2.9,-0.9 -0.7,-0.4 -1.2,-0.9 -1.5,-1.5 -0.4,-0.6 -0.7,-1.3 -0.8,-2.1 v -3.2 l -11.9,-7.1 -0.2,16.6 c 0.1,2 0.5,3.5 1.3,4.5 0.8,1 1.6,1.8 2.6,2.4 1.1,0.6 2.3,1 3.8,1.1 H 444 c 2,-0.1 3.4,-0.5 4.4,-1.3 1,-0.8 1.7,-1.7 2.2,-2.6 0.5,-1.1 0.8,-2.4 0.8,-3.9 V 79.9 c 0.1,-0.8 -0.1,-1.6 -0.6,-2.4 -0.5,-0.8 -1,-1.5 -1.6,-2.1 -0.7,-0.7 -1.6,-1.5 -2.4,-2.1 l -18,-11.7 v -7.5 c 0.1,-1.1 0.4,-2 1,-2.5 0.6,-0.5 1.2,-0.9 1.8,-1.2 0.4,-0.4 1.2,-0.5 2.1,-0.6 z"
   style="fill:#e9e1d0;fill-opacity:1" />
	<path
   id="path21"
   class="st0"
   d="m 495.2,35.8 v 18.4 h -8.7 v 52 H 466 v -52 h -8.3 V 35.4 Z m -4,3.7 h -29.9 v 10.7 h 8.5 v 52.4 h 12.4 V 50.5 h 9 z"
   style="fill:#e9e1d0;fill-opacity:1" />
	<path
   id="path23"
   class="st0"
   d="m 518.3,54.1 v 8.2 h 13 v 18.4 h -13.4 v 7.8 h 13.4 v 18 l -32.9,-0.2 v -71 h 33.3 v 18.6 h -13.4 z m -4,11.9 V 50.3 h 13.4 V 39.6 h -25.6 v 64.1 h 25.6 V 92.4 H 514.1 V 77 h 13.8 V 66 Z"
   style="fill:#e9e1d0;fill-opacity:1" />
	<path
   id="path25"
   class="st0"
   d="m 596.2,38 c 1.4,1.1 2.3,2.3 2.8,3.5 0.7,1.4 1,3 0.9,4.7 v 60.5 H 580.6 V 55.8 c -0.1,-0.7 -0.3,-1.2 -0.8,-1.4 -0.3,-0.1 -0.5,-0.1 -0.8,-0.1 -0.4,0 -0.7,0.1 -1,0.3 -0.2,0.2 -0.4,0.4 -0.6,0.6 -0.2,0.3 -0.3,0.5 -0.3,0.8 v 50.5 H 558 V 56.1 c 0,-0.7 -0.3,-1.3 -0.8,-1.7 -0.3,-0.2 -0.5,-0.3 -0.8,-0.4 -0.5,0 -0.8,0.1 -1.1,0.3 -0.3,0.2 -0.5,0.4 -0.6,0.7 -0.2,0.3 -0.3,0.6 -0.3,1 v 50.2 H 536 V 35.5 h 23.6 c 1.5,-0.1 2.8,0 3.9,0.4 1.1,0.4 2.1,0.8 2.9,1.4 0.9,0.6 1.7,1.3 2.4,2.1 0.4,-0.7 0.9,-1.3 1.5,-1.8 0.6,-0.4 1.2,-0.8 1.8,-1.1 0.7,-0.3 1.4,-0.5 2.1,-0.7 h 15.9 c 2.8,0.4 4.8,1.1 6.1,2.2 z m 0.2,7.6 c -0.1,-1.1 -0.3,-2.2 -0.8,-3 -0.4,-0.7 -1.1,-1.4 -2.1,-2.1 -1,-0.6 -2.3,-1 -4.1,-1 h -13.9 c -1.1,0.1 -2.1,0.3 -3,0.8 -0.8,0.4 -1.6,1 -2.5,1.8 -0.8,0.8 -1.5,1.9 -2,3.2 -0.5,-1.3 -1.2,-2.4 -1.9,-3.3 -0.7,-0.8 -1.7,-1.6 -2.7,-2.2 -1.1,-0.7 -2.5,-1 -4.3,-0.9 l -19,0.2 v 63.5 h 11.3 v -47 c -0.1,-0.9 0.1,-1.8 0.5,-2.5 0.3,-0.7 0.9,-1.3 1.7,-1.8 0.8,-0.5 1.9,-0.8 3.5,-0.8 0.8,0 1.6,0.2 2.3,0.6 0.5,0.3 1.1,0.9 1.6,1.8 0.5,0.8 0.8,2.1 0.8,3.7 v 46.1 h 12 v -47 c 0,-0.8 0.2,-1.6 0.6,-2.3 0.3,-0.6 0.9,-1.2 1.6,-1.7 0.7,-0.5 1.9,-0.8 3.3,-0.8 0.8,-0.1 1.6,0 2.3,0.3 0.6,0.3 1.2,0.7 1.7,1.4 0.5,0.7 0.8,1.8 0.8,3.2 v 46.8 h 12.4 v -57 z"
   style="fill:#e9e1d0;fill-opacity:1" />
	<polygon
   id="polygon27"
   class="st0"
   points="147.6,4.3 139.5,4.3 139.5,9.6 147.6,9.6 147.6,14 139.5,14 139.5,23.4 135.2,23.4 135.2,0 147.6,0 "
   style="fill:#e9e1d0;fill-opacity:1" />
	<path
   id="path29"
   class="st0"
   d="m 161.7,23.4 h -4.2 v -3.6 h -8.2 l -2.4,3.6 h -5 L 158.2,0 h 3.4 v 23.4 z m -4.3,-8.1 V 8.5 l -5,6.8 z"
   style="fill:#e9e1d0;fill-opacity:1" />
	<polygon
   id="polygon31"
   class="st0"
   points="175.2,15.7 182.1,0 187.1,0 187.1,23.4 182.7,23.4 182.7,11.6 177.3,23.4 172.9,23.4 167.7,11.6 167.7,23.4 163.3,23.4 163.3,0 168.2,0 "
   style="fill:#e9e1d0;fill-opacity:1" />
	<polygon
   id="polygon33"
   class="st0"
   points="280.3,15.7 287.3,0 292.2,0 292.2,23.4 287.8,23.4 287.8,11.6 282.4,23.4 278,23.4 272.8,11.6 272.8,23.4 268.5,23.4 268.5,0 273.4,0 "
   style="fill:#e9e1d0;fill-opacity:1" />
	<rect
   id="rect35"
   x="188.5"
   y="0"
   class="st0"
   width="4.5"
   height="23.4"
   style="fill:#e9e1d0;fill-opacity:1" />
	<polygon
   id="polygon37"
   class="st0"
   points="198.7,19.1 204.6,19.1 204.6,23.4 194.2,23.4 194.2,0 198.7,0 "
   style="fill:#e9e1d0;fill-opacity:1" />
	<polygon
   id="polygon39"
   class="st0"
   points="209.4,9.6 214,0 218.9,0 211.5,14.9 211.5,23.4 207.1,23.4 207.1,14.9 199.6,0 204.6,0 "
   style="fill:#e9e1d0;fill-opacity:1" />
	<path
   id="path41"
   class="st1"
   d="M 243.6,17.3"
   style="fill:#e9e1d0;fill-opacity:1" />
	<path
   id="path43"
   class="st0"
   d="M 243.5,6.4 C 241.5,2.6 237.6,0 233,0 c -6.6,0 -11.9,5.3 -11.9,11.9 0,6.6 5.3,11.9 11.9,11.9 4.6,0 8.6,-2.6 10.6,-6.4 h -5.4 c -1.3,1.2 -3.1,2 -5,2 -4.1,0 -7.4,-3.3 -7.4,-7.4 0,-4.1 3.3,-7.4 7.4,-7.4 1.9,0 3.7,0.7 5,1.9 z"
   style="fill:#e9e1d0;fill-opacity:1" />
	<path
   id="path45"
   class="st0"
   d="m 255.2,23.9 c -6.6,0 -11.9,-5.3 -11.9,-11.9 0,-6.6 5.3,-11.9 11.9,-11.9 6.6,0 11.9,5.3 11.9,11.9 0.1,6.5 -5.3,11.9 -11.9,11.9 z m 7.6,-12 c 0,-4.2 -3.4,-7.5 -7.5,-7.5 -4.2,0 -7.5,3.4 -7.5,7.5 0,4.2 3.4,7.5 7.5,7.5 4.2,0.1 7.5,-3.3 7.5,-7.5 z"
   style="fill:#e9e1d0;fill-opacity:1" />
	<path
   id="path47"
   class="st0"
   d="m 301.5,0 c 4,0.3 7.1,3.6 7.1,7.7 0,4 -3.1,7.3 -7.1,7.7 h -3.4 v 8.1 h -4.4 V 0 h 4.4 z m -3.4,4.5 v 6.3 h 3.4 c 1.5,-0.3 2.6,-1.6 2.6,-3.2 0,-1.6 -1.1,-2.9 -2.6,-3.2 z"
   style="fill:#e9e1d0;fill-opacity:1" />
	<path
   id="path49"
   class="st0"
   d="m 356.7,23.7 h -4.3 V 0.2 h 6 3.4 c 4,0.3 7.1,3.6 7.1,7.7 0,3.3 -2.1,6.1 -5,7.2 l 5.1,8.6 h -4.7 l -7.1,-12.1 h -0.4 V 23.7 Z M 361.8,11 c 1.5,-0.3 2.6,-1.6 2.6,-3.2 0,-1.6 -1.1,-2.9 -2.6,-3.2 h -5.1 V 11 Z"
   style="fill:#e9e1d0;fill-opacity:1" />
	<path
   id="path51"
   class="st0"
   d="m 314.3,13.5 v 3.4 c 0.3,1.5 1.6,2.6 3.2,2.6 1.6,0 2.9,-1.1 3.2,-2.6 V 13.5 0.2 h 4.5 v 13.3 3.4 c -0.3,4 -3.6,7.1 -7.7,7.1 -4,0 -7.3,-3.1 -7.7,-7.1 V 13.5 0.2 h 4.5 z"
   style="fill:#e9e1d0;fill-opacity:1" />
	<polygon
   id="polygon53"
   class="st0"
   points="334,4.6 338,4.6 338,0.2 325.8,0.2 325.8,4.6 329.6,4.6 329.6,23.7 334,23.7 "
   style="fill:#e9e1d0;fill-opacity:1" />
	<polygon
   id="polygon55"
   class="st0"
   points="339.1,0.2 351.2,0.2 351.2,4.5 343.4,4.5 343.4,10.1 351.2,10.1 351.2,14.5 343.4,14.5 343.4,19.3 351.2,19.3 351.2,23.7 339.1,23.7 "
   style="fill:#e9e1d0;fill-opacity:1" />
	<path
   id="path57"
   class="st1"
   d="M 356.7,11.6"
   style="fill:#e9e1d0;fill-opacity:1" />
	<path
   id="path65"
   class="st0"
   d="M 3.2,94.5 C 3.2,89.7 6,85.6 10,83.6 v 0 c 0,-2 0,-4.2 0,-6.5 v 0 C 4,73.8 0,67.4 0,60.1 v 0 c 0,-7.3 4,-13.7 10,-17 v 0 C 10,28.5 10,16 10,13.7 v 0 C 10,6.3 16,0.2 23.5,0.2 v 0 h 72.3 c 7.4,0 13.5,6 13.5,13.5 v 0 c 0,2.3 0,14.8 0,29.4 v 0 c 6,3.3 10,9.7 10,17 v 0 c 0,7.3 -4,13.7 -10,17 v 0 c 0,2.3 0,4.5 0,6.5 v 0 c 4,2 6.8,6.1 6.8,10.9 v 0 c 0,6.7 -5.4,12.1 -12.1,12.1 v 0 H 69.1 V 104 c 0,-5.2 -4.2,-9.5 -9.5,-9.5 v 0 -2.7 -2.7 c 7.3,0 13.3,5.2 14.6,12.1 v 0 h 29.7 c 3.8,0 6.8,-3.1 6.8,-6.8 v 0 c 0,-3.1 -2.1,-5.7 -4.9,-6.5 v 0 l -1.1,-0.3 -0.8,-1.6 v -0.6 c 0,-3 0,-6.2 0,-9.9 v 0 -0.6 l 0.7,-1.5 0.9,-0.4 c 4.9,-2.2 8.4,-7.2 8.4,-12.9 v 0 c 0,-5.7 -3.4,-10.6 -8.3,-12.9 v 0 l -0.2,-0.1 -1.5,-1 v -1.4 c 0,-15.3 0,-28.6 0,-31 v 0 c 0,-4.5 -3.7,-8.1 -8.2,-8.1 v 0 H 23.5 c -4.5,0 -8.1,3.6 -8.1,8.1 v 0 c 0,2.4 0,15.7 0,31 v 0 1.4 l -1.2,0.8 -0.3,0.2 -0.2,0.1 C 8.8,49.4 5.4,54.4 5.4,60.1 v 0 c 0,5.8 3.4,10.7 8.4,12.9 v 0 l 0.9,0.4 0.7,1.5 v 0.6 c 0,3.6 0,6.9 0,9.9 v 0 0.6 l -0.8,1.6 -1.2,0.4 c -2.8,0.8 -4.9,3.4 -4.9,6.5 v 0 c 0,3.8 3.1,6.8 6.8,6.8 v 0 H 45 c 1.3,-6.9 7.3,-12.1 14.6,-12.1 v 0 h 0.1 v 2.7 2.7 h -0.1 c -5.2,0 -9.5,4.2 -9.5,9.5 v 0 2.7 H 15.3 C 8.6,106.7 3.2,101.2 3.2,94.5 Z"
   style="fill:#e9e1d0;fill-opacity:1" />
	<path
   id="path67"
   class="st0"
   d="M 12.6,97"
   style="fill:#e9e1d0;fill-opacity:1" />
	<path
   id="path69"
   class="st0"
   d="m 17.6,40.5 c 0,-11.1 9,-20 20,-20 v 0 c 11.1,0 20,9 20,20 v 0 c 0,11.1 -9,20 -20,20 v 0 c -11.1,0 -20,-8.9 -20,-20 z m 3.3,0 c 0,9.2 7.5,16.7 16.7,16.7 v 0 c 9.2,0 16.7,-7.5 16.7,-16.7 v 0 c 0,-9.2 -7.5,-16.7 -16.7,-16.7 v 0 c -9.2,0.1 -16.7,7.5 -16.7,16.7 z"
   style="fill:#e9e1d0;fill-opacity:1" />
	<ellipse
   id="circle71"
   class="st0"
   cx="50.5"
   cy="40.599998"
   rx="2"
   ry="2.0999999"
   style="fill:#e9e1d0;fill-opacity:1" />
	<path
   id="path73"
   class="st0"
   d="m 61.6,40.5 v 0 c 0,-11.1 9,-20 20,-20 v 0 c 11.1,0 20,9 20,20 v 0 c 0,11.1 -9,20 -20,20 v 0 c -11,0 -20,-8.9 -20,-20 z m 20,16.7 c 9.2,0 16.7,-7.5 16.7,-16.7 v 0 c 0,-9.2 -7.5,-16.7 -16.7,-16.7 v 0 c -9.2,0 -16.7,7.5 -16.7,16.7 v 0 c 0,9.2 7.5,16.7 16.7,16.7 z"
   style="fill:#e9e1d0;fill-opacity:1" />
	<ellipse
   id="circle75"
   class="st0"
   cx="68.699997"
   cy="40.599998"
   rx="2"
   ry="2.0999999"
   style="fill:#e9e1d0;fill-opacity:1" />
</g>
</svg>
