<?xml version="1.0" encoding="UTF-8" standalone="no"?>
<!-- Generator: Adobe Illustrator 26.0.3, SVG Export Plug-In . SVG Version: 6.00 Build 0)  -->

<svg
   version="1.1"
   id="svg2"
   sodipodi:docname="gameandwatch.svg"
   x="0px"
   y="0px"
   viewBox="0 0 473.67053 68.58889"
   xml:space="preserve"
   width="473.67053"
   height="68.58889"
   inkscape:version="1.1.2 (b8e25be833, 2022-02-05)"
   xmlns:inkscape="http://www.inkscape.org/namespaces/inkscape"
   xmlns:sodipodi="http://sodipodi.sourceforge.net/DTD/sodipodi-0.dtd"
   xmlns="http://www.w3.org/2000/svg"
   xmlns:svg="http://www.w3.org/2000/svg"><defs
   id="defs18" />
<style
   type="text/css"
   id="style2">
	.st0{fill:#E9E1D0;}
	.st1{fill:none;stroke:#FFFFFF;stroke-width:2.5356;}
</style>
<sodipodi:namedview
   bordercolor="#666666"
   borderopacity="1"
   gridtolerance="10"
   guidetolerance="10"
   id="namedview18"
   inkscape:current-layer="svg2"
   inkscape:cx="149.79436"
   inkscape:cy="35.151744"
   inkscape:pagecheckerboard="true"
   inkscape:pageopacity="0"
   inkscape:pageshadow="2"
   inkscape:window-height="1387"
   inkscape:window-maximized="1"
   inkscape:window-width="2560"
   inkscape:window-x="-8"
   inkscape:window-y="-8"
   inkscape:zoom="1.251716"
   objecttolerance="10"
   pagecolor="#ffffff"
   showgrid="false">
	</sodipodi:namedview>
<g
   id="g67"
   transform="matrix(1.6796827,0,0,2.0232712,-293.2726,-14.365226)"
   style="fill:#e9e1d0;fill-opacity:1">
	<path
   id="path68"
   inkscape:connector-curvature="0"
   class="st0"
   d="m 199.6,18.6 c -2,-2.8 -5.3,-4.7 -9.1,-4.7 -6.1,0 -11.1,5 -11.1,11.1 0,6.1 5,11.1 11.1,11.1 4.4,0 8.3,-2.6 10.1,-6.4 h -9.8 v -5 h 15.6 c 0,0.1 0,0.2 0,0.4 0,1.6 -0.2,3.2 -0.7,4.7 -2,6.5 -8.1,11.2 -15.2,11.2 -8.8,0 -15.9,-7.1 -15.9,-15.9 0,-8.8 7.1,-15.9 15.9,-15.9 6.5,0 12.1,3.9 14.6,9.5 z"
   style="fill:#e9e1d0;fill-opacity:1" />
	<path
   id="path70"
   inkscape:connector-curvature="0"
   class="st0"
   d="m 223.4,9.4 v 0 l -20.1,30.3 h 6.2 l 4.3,-6.5 h 9.6 v 6.5 h 5.2 V 9.4 Z m -6.2,18.6 6.1,-9.3 V 28 Z"
   style="fill:#e9e1d0;fill-opacity:1" />
	<path
   id="path72"
   inkscape:connector-curvature="0"
   class="st0"
   d="m 269.2,9.4 v 0 L 255.3,30.3 V 9.4 h -5.2 v 0 L 230,39.7 h 6.2 l 13.9,-20.9 v 20.9 h 5.2 v 0 l 13.9,-20.9 v 20.9 h 5.2 V 9.4 Z"
   style="fill:#e9e1d0;fill-opacity:1" />
	<path
   id="path74"
   inkscape:connector-curvature="0"
   class="st0"
   d="M 294.3,14.6 V 9.4 h -15.8 v 30.3 h 5.2 10.6 v -5.2 h -10.6 v -7.1 h 10.6 v -5.2 h -10.6 v -7.7 z"
   style="fill:#e9e1d0;fill-opacity:1" />
	<path
   id="path86"
   inkscape:connector-curvature="0"
   class="st0"
   d="m 321.9,28.5 c 1.7,-3.7 4.2,-9.4 4.2,-9.4 H 321 l -2.7,6 -4,-3.7 c 1.8,-1.5 3.4,-3.3 3.4,-6.4 0,-1.7 -0.7,-3.2 -1.8,-4.4 -1.4,-1.4 -3.3,-2.1 -5.2,-2.1 -3.4,0 -7,2.4 -7,6.5 0,2.9 1.6,4.7 3.1,6.1 -2.9,2 -5.4,4.2 -5.4,8.7 0,2.6 0.9,4.9 2.6,6.5 1.7,1.7 4,2.6 6.6,2.6 4.9,0 7.4,-2.4 9.2,-6.1 l 6,5.6 3.2,-3.4 z m -13,-14.6 c 0.4,-0.4 1.1,-0.7 1.8,-0.7 0.7,0 1.5,0.3 1.9,0.8 0.3,0.3 0.5,0.7 0.5,1.1 0,1.3 -0.6,2 -2.3,3.3 -1.5,-1.2 -2.4,-2 -2.4,-3.3 0,-0.5 0.1,-0.9 0.5,-1.2 m 7.3,16 c -1.6,3.6 -2.7,4.5 -5.5,4.5 -1.4,0 -2.5,-0.4 -3.4,-1.3 -0.8,-0.8 -1.2,-1.9 -1.2,-3.3 0,-2.4 1.3,-3.4 4.4,-5.6 0,0 0,0 0,0 l 5.8,5.4 z"
   style="fill:#e9e1d0;fill-opacity:1" />
	<path
   id="path76"
   inkscape:connector-curvature="0"
   class="st0"
   d="m 382.6,8.2 v 0 l -20.1,30.3 h 6.2 L 373,32 h 9.6 v 6.5 h 5.2 V 8.2 Z m -6.1,18.6 6.1,-9.3 v 9.3 z"
   style="fill:#e9e1d0;fill-opacity:1" />
	<path
   id="path78"
   inkscape:connector-curvature="0"
   class="st0"
   d="m 340.2,38.5 v 0 L 354,17.6 v 20.9 h 5.2 v 0 0 L 379.3,8.2 h -6.2 L 359.2,29.1 V 8.2 H 354 v 0 L 340.1,29.1 V 8.2 H 335 v 30.3 z"
   style="fill:#e9e1d0;fill-opacity:1" />
	<path
   id="path80"
   inkscape:connector-curvature="0"
   class="st0"
   d="M 451.3,8.2 V 20.4 H 442 V 8.2 h -5.2 V 38.5 H 442 V 25.6 h 9.4 v 12.9 h 5.2 V 8.2 Z"
   style="fill:#e9e1d0;fill-opacity:1" />
	<path
   id="path82"
   inkscape:connector-curvature="0"
   class="st0"
   d="m 406.8,8.2 h -16.9 v 5.2 h 5.9 V 38.5 H 401 V 13.4 h 5.9 V 8.2 Z"
   style="fill:#e9e1d0;fill-opacity:1" />
	<path
   id="path84"
   inkscape:connector-curvature="0"
   class="st0"
   d="m 429.5,30.3 c -2,2.2 -4.9,3.6 -8.1,3.6 -6,0 -10.9,-4.9 -10.9,-10.9 0,-6 4.9,-10.9 10.9,-10.9 3.2,0 6,1.4 8,3.6 h 6.1 c -2.7,-5.1 -8,-8.6 -14.1,-8.6 -8.8,0 -15.9,7.1 -15.9,15.9 0,8.8 7.1,15.9 15.9,15.9 6.2,0 11.5,-3.5 14.1,-8.6 z"
   style="fill:#e9e1d0;fill-opacity:1" />
</g>

</svg>
