<?xml version="1.0" encoding="UTF-8" standalone="no"?>
<!-- Generator: Adobe Illustrator 26.0.3, SVG Export Plug-In . SVG Version: 6.00 Build 0)  -->

<svg
   version="1.1"
   id="svg2"
   x="0px"
   y="0px"
   viewBox="0 0 263.96805 72.942841"
   xml:space="preserve"
   sodipodi:docname="gba.svg"
   width="263.96805"
   height="72.942841"
   inkscape:version="1.1.2 (b8e25be833, 2022-02-05)"
   xmlns:inkscape="http://www.inkscape.org/namespaces/inkscape"
   xmlns:sodipodi="http://sodipodi.sourceforge.net/DTD/sodipodi-0.dtd"
   xmlns="http://www.w3.org/2000/svg"
   xmlns:svg="http://www.w3.org/2000/svg"><defs
   id="defs18" /><sodipodi:namedview
   id="namedview16"
   pagecolor="#ffffff"
   bordercolor="#666666"
   borderopacity="1.0"
   inkscape:pageshadow="2"
   inkscape:pageopacity="0.0"
   inkscape:pagecheckerboard="0"
   showgrid="false"
   inkscape:zoom="0.55104167"
   inkscape:cx="959.09263"
   inkscape:cy="540.79395"
   inkscape:window-width="2560"
   inkscape:window-height="1387"
   inkscape:window-x="-8"
   inkscape:window-y="-8"
   inkscape:window-maximized="1"
   inkscape:current-layer="svg2" />
<style
   type="text/css"
   id="style2">
	.st0{fill:#E9E1D0;}
</style>
<g
   transform="matrix(0.880001,0,0,0.875525,-0.03225359,0.01160846)"
   id="g13"
   style="fill:#e9e1d0;fill-opacity:1">
	<path
   id="_43443024"
   class="st0"
   d="m 287,0.5 h 13 l -18.4,28.6 -3,22.3 H 266.8 L 270.3,26 258.6,0.5 h 12.7 l 6.3,14.4 z"
   style="fill:#e9e1d0;fill-opacity:1" />
	<path
   id="_43441624"
   class="st0"
   d="m 149.8,31.3 h 15.5 L 166.9,20 h -15.4 l 1.1,-8.2 h 17.9 l 1.7,-11.3 h -29.7 l -7.1,50.9 H 165 l 1.6,-11.3 h -17.9 z"
   style="fill:#e9e1d0;fill-opacity:1" />
	<path
   id="_43775888"
   class="st0"
   d="m 59.4,26.2 3.9,-10.5 1.3,10.5 z m -4.3,10.1 h 10.7 l 1.9,15.1 H 87 l 8.9,-27.6 4.4,27.6 h 10.2 l 11.3,-29.2 1.9,29.2 H 135 L 131.9,0.5 H 118.4 L 107.9,27.3 103.8,0.5 H 91.7 L 77.9,42.2 72.7,0.5 H 57.6 L 40.8,42.7 43,26.2 H 22.6 l -1.4,10 h 8.9 l -0.6,3.5 c -1.6,0.9 -5.2,1.1 -6.6,1.1 C 21.5,40.8 11,39.9 11.4,28.6 11.9,17.3 26.9,6.8 44.8,12.6 L 46.5,1.8 C 34.7,-2.3 3.4,-0.1 0.2,28 c -1.9,16.5 13.2,24.3 23.2,24.2 5.8,0.3 12.4,-1.9 14.8,-3.1 l -0.8,2.4 h 11.9 z"
   style="fill:#e9e1d0;fill-opacity:1" />
	<path
   id="_44102912"
   class="st0"
   d="m 245.8,0 c -8.2,-0.3 -19.9,4.4 -23.9,23.4 -3.9,19 6.6,26.7 16.3,27.9 9.7,1.3 23.4,-4.9 25.9,-23.1 C 266.7,10.1 257.8,0.5 245.8,0 Z m -1.2,10.8 c 3.3,0 10.4,2.2 8.6,15.4 -1.7,13.2 -9.9,14.8 -12.9,14.4 -3,-0.3 -9.1,-2.4 -7.4,-14.4 1.8,-12.1 8.2,-15.5 11.7,-15.4 z"
   style="fill:#e9e1d0;fill-opacity:1" />
	<path
   id="_44104296"
   class="st0"
   d="m 196.2,20 h 6.6 c 4.9,0 5.8,-3.1 6,-4.4 0.2,-1.3 -1.3,-3.8 -3.8,-3.8 h -7.7 z m -2.8,20 h 8.9 c 4.9,0 6,-3.8 6.1,-5 0.2,-1.3 -1.3,-3.8 -3.8,-3.8 h -10 z M 180.2,51.3 187.3,0.4 H 209 c 5.2,0 12.7,6 11.8,14 -0.9,8 -3.5,8.5 -5.2,9.7 2.7,2.4 5.3,6.1 4.2,13.2 -1.1,7.1 -6.9,14 -17.1,14 z"
   style="fill:#e9e1d0;fill-opacity:1" />
	<path
   id="path12"
   class="st0"
   d="M 61.9,56.9 H 55.2 L 39.5,83.3 h 18.7 v -5.9 h -7.6 l 7.6,-13.7 11,19.6 h 8.5 V 83.2 H 91 c 11.5,0 17.3,-4.4 17.3,-13.2 0,-1.5 -0.2,-2.9 -0.6,-4.3 l 10.6,17.5 h 5.1 L 138.7,57 h -8.1 L 121.1,74.3 111,57 h -8.7 l 2.4,3.9 C 101.9,58.2 97.9,57 92.6,57 H 75.2 v 21.9 z m 20.8,6 h 10 c 5.2,0 7.9,2.3 7.9,6.8 0,2.7 -0.8,4.8 -2.4,5.8 -1.5,1.1 -4.4,1.6 -8.4,1.6 h -7.1 z"
   style="fill:#e9e1d0;fill-opacity:1" />
	<path
   id="polygon14"
   class="st0"
   d="m 150,56.9 h -6.7 l -15.6,26.4 h 7.9 v -0.1 h 10.8 v -5.9 h -7.6 l 7.5,-13.6 11,19.6 h 8.6 v -0.1 h 4.4 V 67.3 l 20,15.9 h 5.2 V 56.9 h -6.9 V 72.7 L 168.5,56.9 h -5.2 v 21.9 z"
   style="fill:#e9e1d0;fill-opacity:1" />
	<path
   id="path16"
   class="st0"
   d="m 199.4,58.4 c -1.1,1 -1.6,2.7 -1.6,5.2 v 13.1 c 0,2.5 0.6,4.3 1.6,5.2 1,1 2.9,1.4 5.6,1.4 h 15.5 c 2.7,0 4.6,-0.5 5.6,-1.4 1,-1 1.6,-2.7 1.6,-5.2 V 73 l -7.6,-0.1 V 77 H 205.4 V 63.1 h 14.7 v 3.6 h 7.6 v -3.1 c 0,-2.6 -0.6,-4.3 -1.6,-5.2 -1,-1 -2.8,-1.5 -5.6,-1.5 H 205 c -2.8,0 -4.6,0.5 -5.6,1.5 z"
   style="fill:#e9e1d0;fill-opacity:1" />
	<path
   id="polygon18"
   class="st0"
   d="m 237.8,66.7 v -3.8 h 20.6 v -6 h -28.2 v 26.4 h 28.5 v -6.1 h -20.9 v -4.7 h 12.1 v -5.8 z"
   style="fill:#e9e1d0;fill-opacity:1" />
</g>
</svg>
