<?xml version="1.0" encoding="UTF-8" standalone="no"?>
<!-- Generator: Adobe Illustrator 26.0.3, SVG Export Plug-In . SVG Version: 6.00 Build 0)  -->

<svg
   version="1.1"
   id="svg2"
   x="0px"
   y="0px"
   viewBox="0 0 264.01175 87.111732"
   xml:space="preserve"
   sodipodi:docname="gbah.svg"
   width="264.01175"
   height="87.111732"
   inkscape:version="1.1.2 (b8e25be833, 2022-02-05)"
   xmlns:inkscape="http://www.inkscape.org/namespaces/inkscape"
   xmlns:sodipodi="http://sodipodi.sourceforge.net/DTD/sodipodi-0.dtd"
   xmlns="http://www.w3.org/2000/svg"
   xmlns:svg="http://www.w3.org/2000/svg"><defs
   id="defs20" /><sodipodi:namedview
   id="namedview18"
   pagecolor="#ffffff"
   bordercolor="#666666"
   borderopacity="1.0"
   inkscape:pageshadow="2"
   inkscape:pageopacity="0.0"
   inkscape:pagecheckerboard="0"
   showgrid="false"
   inkscape:zoom="0.55104167"
   inkscape:cx="959.09263"
   inkscape:cy="540.79395"
   inkscape:window-width="2560"
   inkscape:window-height="1387"
   inkscape:window-x="-8"
   inkscape:window-y="-8"
   inkscape:window-maximized="1"
   inkscape:current-layer="svg2" />
<style
   type="text/css"
   id="style2">
	.st0{fill:#E9E1D0;}
</style>
<g
   transform="matrix(0.44,0,0,0.440765,0.01173783,0.01168808)"
   id="g13"
   style="fill:#e9e1d0;fill-opacity:1">
	<polygon
   id="_43443024"
   class="st0"
   points="563.3,58.1 557.3,102.7 533.8,102.7 540.7,51.8 517.1,1 542.5,1 555.1,29.9 573.9,1 600,1 "
   style="fill:#e9e1d0;fill-opacity:1" />
	<polygon
   id="_43441624"
   class="st0"
   points="333.8,39.9 303,39.9 305.2,23.6 341,23.6 344.4,1 285.1,1 271,102.7 330,102.7 333.1,80.1 297.3,80.1 299.5,62.5 330.6,62.5 "
   style="fill:#e9e1d0;fill-opacity:1" />
	<path
   id="_43775888"
   class="st0"
   d="m 118.7,52.5 7.8,-21 2.5,21 z m -8.5,20 h 21.3 l 3.8,30.1 H 174 l 17.9,-55.3 8.8,55.3 h 20.4 l 22.6,-58.4 3.8,58.4 H 270 L 263.8,1 h -27 L 215.8,54.7 207.6,1 H 183.4 L 155.8,84.5 145.4,1 h -30.1 l -33.6,84.4 4.4,-33 H 45.2 l -2.8,20.1 h 17.9 l -1.3,7 C 55.9,81.4 48.6,81.7 45.8,81.7 43,81.7 21.9,79.8 22.9,57.2 23.8,34.6 54,13.6 89.8,25.2 L 93.3,3.5 C 69.4,-4.7 6.7,-0.1 0.3,55.9 c -3.8,33 26.4,48.7 46.5,48.4 11.6,0.6 24.8,-3.8 29.5,-6.3 l -1.6,4.7 h 23.9 z"
   style="fill:#e9e1d0;fill-opacity:1" />
	<path
   id="_44102912"
   class="st0"
   d="m 491.7,0 c -16.3,-0.6 -39.9,8.8 -47.7,46.8 -7.8,38 13.2,53.4 32.7,55.9 19.5,2.5 46.8,-9.7 51.8,-46.2 C 533.4,20.1 515.5,1 491.7,0 Z m -2.5,21.7 c 6.6,0 20.7,4.4 17.3,30.8 -3.5,26.3 -19.8,29.5 -25.8,28.8 -6,-0.6 -18.2,-4.7 -14.8,-28.9 3.5,-24.1 16.4,-31 23.3,-30.7 z"
   style="fill:#e9e1d0;fill-opacity:1" />
	<path
   id="_44104296"
   class="st0"
   d="m 392.5,39.9 h 13.2 c 9.7,0 11.6,-6.3 11.9,-8.8 0.3,-2.5 -2.5,-7.5 -7.5,-7.5 h -15.4 z m -5.7,40.2 h 17.9 c 9.7,0 11.9,-7.5 12.2,-10 0.3,-2.5 -2.5,-7.5 -7.5,-7.5 H 389.3 Z M 360.5,102.7 374.6,1 h 43.3 c 10.4,0 25.4,11.9 23.5,27.9 -1.9,16 -6.9,17 -10.4,19.5 5.3,4.7 10.7,12.2 8.5,26.4 -2.2,14.1 -13.8,27.9 -34.2,27.9 z"
   style="fill:#e9e1d0;fill-opacity:1" />
	<path
   id="path12"
   class="st0"
   d="m 123.8,113.8 h -13.3 l -31.4,52.9 h 37.4 V 155 h -15.2 l 15.2,-27.3 22.1,39.1 h 17 v -0.1 h 26.6 c 23,0 34.5,-8.9 34.5,-26.5 0,-3 -0.4,-5.9 -1.2,-8.5 l 21.2,35 h 10.2 L 277.4,114 H 261.2 L 242.1,148.5 222,114 h -17.4 l 4.8,7.9 c -5.6,-5.3 -13.7,-7.9 -24.2,-7.9 h -35 v 43.8 z m 41.6,12 h 20 c 10.4,0 15.7,4.6 15.7,13.7 0,5.5 -1.7,9.5 -4.8,11.6 -3,2.2 -8.8,3.2 -16.8,3.2 h -14.1 z"
   style="fill:#e9e1d0;fill-opacity:1" />
	<polygon
   id="polygon14"
   class="st0"
   points="255.3,166.7 271.1,166.7 271.1,166.6 292.7,166.6 292.7,154.8 277.6,154.8 292.5,127.6 314.6,166.7 331.8,166.7 331.8,166.6 340.6,166.6 340.6,134.7 380.5,166.6 390.9,166.6 390.9,113.8 377,113.8 377,145.3 336.8,113.8 326.5,113.8 326.5,157.7 299.9,113.8 286.6,113.8 "
   style="fill:#e9e1d0;fill-opacity:1" />
	<path
   id="path16"
   class="st0"
   d="m 398.8,116.8 c -2.2,1.9 -3.3,5.4 -3.3,10.3 v 26.2 c 0,5.1 1.1,8.5 3.2,10.4 2,1.9 5.7,2.9 11.2,2.9 h 31 c 5.4,0 9.3,-1 11.3,-2.9 2,-1.9 3.2,-5.4 3.2,-10.4 V 146 l -15.2,-0.2 v 8.1 h -29.5 v -27.7 h 29.5 v 7.2 h 15.2 v -6.2 c 0,-5.2 -1.2,-8.6 -3.2,-10.3 -2,-2 -5.6,-3 -11.3,-3 h -31 c -5.4,-0.1 -9.1,0.9 -11.1,2.9 z"
   style="fill:#e9e1d0;fill-opacity:1" />
	<polygon
   id="polygon18"
   class="st0"
   points="516.8,125.8 516.8,113.8 460.4,113.8 460.4,166.6 517.5,166.6 517.5,154.4 475.7,154.4 475.7,145 499.8,145 499.8,133.4 475.7,133.4 475.7,125.8 "
   style="fill:#e9e1d0;fill-opacity:1" />
</g>
<path
   class="st0"
   d="m 83.611462,86.811729 h -2.5 v -2.7 h -1.8 v 2.7 h -2.5 v -7.7 h 2.5 v 2.7 h 1.8 v -2.7 h 2.5 z m 3.3,-1.2 -0.3,1.2 h -2.6 l 2,-7.7 h 3.8 l 2,7.7 h -2.6 l -0.2,-1.2 z m 1.1,-4.1 h -0.1 l -0.5,2.2 h 1.1 z m 9.4,3.1 0.2,2.1 c -0.5,0.2 -1.2,0.3 -1.9,0.3 -0.8,0 -1.4,-0.1 -1.9,-0.2 -0.5,-0.2 -0.8,-0.4 -1.1,-0.8 -0.3,-0.4 -0.5,-0.8 -0.6,-1.2 -0.1,-0.5 -0.1,-1.1 -0.1,-1.8 0,-0.7 0.1,-1.3 0.2,-1.8 0.1,-0.5 0.3,-0.9 0.6,-1.3 0.5,-0.7 1.5,-1 2.9,-1 0.3,0 0.7,0 1.1,0.1 0.4,0.1 0.7,0.1 0.9,0.2 l -0.4,1.9 c -0.5,-0.1 -1,-0.2 -1.5,-0.2 -0.5,0 -0.8,0 -0.9,0.1 -0.2,0.1 -0.3,0.2 -0.3,0.5 v 3.2 c 0.3,0.1 0.6,0.1 1,0.1 0.7,0.1 1.3,0 1.8,-0.2 z m 3.599998,-1.1 v 0 3.4 h -2.499998 v -7.7 h 2.499998 v 3.1 0 c 0,-0.2 0.1,-0.4 0.1,-0.6 l 1.2,-2.6 h 2.7 l -1.8,3.8 1.9,3.9 h -2.7 l -1.3,-2.8 c 0,-0.1 -0.1,-0.3 -0.1,-0.5 z m 4.5,3.2 0.3,-2 c 0.8,0.2 1.4,0.3 2,0.3 0.6,0 1.1,0 1.5,-0.1 v -0.6 l -1.1,-0.1 c -1,-0.1 -1.7,-0.3 -2.1,-0.7 -0.4,-0.4 -0.6,-1 -0.6,-1.7 0,-1.1 0.2,-1.8 0.7,-2.2 0.5,-0.4 1.2,-0.6 2.3,-0.6 1.1,0 2.1,0.1 3,0.3 l -0.3,2 c -0.8,-0.1 -1.4,-0.2 -1.8,-0.2 -0.5,0 -0.9,0 -1.2,0.1 v 0.6 l 0.9,0.1 c 1.1,0.1 1.8,0.4 2.2,0.8 0.4,0.4 0.6,1 0.6,1.7 0,0.5 -0.1,1 -0.2,1.3 -0.1,0.4 -0.3,0.6 -0.5,0.8 -0.2,0.2 -0.5,0.3 -0.8,0.4 -0.4,0.1 -0.7,0.2 -0.9,0.2 -0.3,0 -0.6,0 -1.1,0 -1,-0.1 -2,-0.2 -2.9,-0.4 z m 11.4,-2.8 h -1.9 v -1.8 h 1.9 v -1.9 h 1.8 v 1.9 h 1.9 v 1.8 h -1.9 v 1.9 h -1.8 z m 13.9,2.9 h -2.5 v -2.7 h -1.8 v 2.7 h -2.5 v -7.7 h 2.5 v 2.7 h 1.8 v -2.7 h 2.5 z m 0.8,-3.8 c 0,-1.4 0.3,-2.4 0.8,-3.1 0.5,-0.6 1.5,-1 2.8,-1 1.3,0 2.3,0.3 2.8,1 0.5,0.6 0.8,1.7 0.8,3.1 0,0.7 -0.1,1.3 -0.2,1.8 -0.1,0.5 -0.3,0.9 -0.6,1.2 -0.3,0.4 -0.6,0.6 -1.1,0.8 -0.5,0.2 -1.1,0.2 -1.8,0.2 -0.7,0 -1.3,-0.1 -1.8,-0.2 -0.5,-0.2 -0.9,-0.4 -1.1,-0.8 -0.3,-0.4 -0.5,-0.8 -0.6,-1.2 0.1,-0.5 0,-1.1 0,-1.8 z m 2.7,-1.3 v 3.2 h 1 c 0.3,0 0.6,0 0.7,-0.1 0.2,-0.1 0.2,-0.3 0.2,-0.5 v -3.3 h -1 c -0.3,0 -0.6,0 -0.7,0.1 -0.1,0.1 -0.2,0.3 -0.2,0.6 z m 7.9,1.4 -0.2,3.7 h -2.6 l 0.5,-7.7 h 3.2 l 1,3.9 h 0.1 l 1,-3.9 h 3.2 l 0.5,7.7 h -2.6 l -0.1,-3.7 h -0.2 l -0.9,3.7 h -1.9 z m 12.5,-1 v 1.8 h -2.5 v 0.9 h 3 v 2 h -5.5 v -7.7 h 5.4 l -0.3,2 h -2.6 v 1 z m 6,4.7 h -4.4 v -7.7 h 4 c 0.7,0 1.3,0.1 1.6,0.4 0.3,0.3 0.5,0.7 0.5,1.3 0,0.6 -0.1,1 -0.3,1.3 -0.2,0.3 -0.5,0.5 -0.8,0.6 v 0.1 c 1,0.2 1.5,0.9 1.5,2 0,0.6 -0.2,1.1 -0.5,1.5 -0.4,0.3 -0.9,0.5 -1.6,0.5 z m -1,-3.1 h -1 v 1.3 h 1 c 0.3,0 0.5,-0.2 0.5,-0.6 0,-0.4 -0.2,-0.7 -0.5,-0.7 z m -0.2,-2.9 h -0.8 v 1.1 h 0.8 c 0.3,0 0.5,-0.2 0.5,-0.6 0,-0.3 -0.2,-0.5 -0.5,-0.5 z m 9.5,3.4 1.3,2.6 h -2.7 l -1,-2.3 h -0.6 v 2.3 h -2.5 v -7.7 h 3.9 c 1.8,0 2.6,0.9 2.6,2.7 0.1,1.2 -0.3,2.1 -1,2.4 z m -2.4,-3.1 h -0.6 v 1.5 h 0.6 c 0.3,0 0.5,0 0.6,-0.1 0.1,-0.1 0.2,-0.2 0.2,-0.4 v -0.5 c 0,-0.2 -0.1,-0.4 -0.2,-0.4 -0.1,-0.1 -0.3,-0.1 -0.6,-0.1 z m 9.5,1 v 1.8 h -2.5 v 0.9 h 3 v 2 h -5.5 v -7.7 h 5.4 l -0.3,2 h -2.6 v 1 z m 7.9,1.3 0.6,-4.3 h 2.6 l -1.2,7.7 h -3.2 l -0.6,-2.8 h -0.2 l -0.6,2.8 h -3.2 l -1.2,-7.7 h 2.6 l 0.6,4.3 h 0.1 l 0.9,-4.3 h 1.9 z"
   id="path15"
   style="fill:#e9e1d0;fill-opacity:1" />
</svg>
