<?xml version="1.0" encoding="UTF-8" standalone="no"?>
<!-- Generator: Adobe Illustrator 26.0.3, SVG Export Plug-In . SVG Version: 6.00 Build 0)  -->

<svg
   version="1.1"
   id="svg2"
   x="0px"
   y="0px"
   viewBox="0 0 264.01175 85.111679"
   xml:space="preserve"
   sodipodi:docname="gbch.svg"
   width="264.01175"
   height="85.111679"
   inkscape:version="1.1.2 (b8e25be833, 2022-02-05)"
   xmlns:inkscape="http://www.inkscape.org/namespaces/inkscape"
   xmlns:sodipodi="http://sodipodi.sourceforge.net/DTD/sodipodi-0.dtd"
   xmlns="http://www.w3.org/2000/svg"
   xmlns:svg="http://www.w3.org/2000/svg"><defs
   id="defs21" /><sodipodi:namedview
   id="namedview19"
   pagecolor="#ffffff"
   bordercolor="#666666"
   borderopacity="1.0"
   inkscape:pageshadow="2"
   inkscape:pageopacity="0.0"
   inkscape:pagecheckerboard="0"
   showgrid="false"
   inkscape:zoom="0.55104167"
   inkscape:cx="959.09263"
   inkscape:cy="540.79395"
   inkscape:window-width="2560"
   inkscape:window-height="1387"
   inkscape:window-x="-8"
   inkscape:window-y="-8"
   inkscape:window-maximized="1"
   inkscape:current-layer="svg2" />
<style
   type="text/css"
   id="style2">
	.st0{fill:#E9E1D0;}
</style>
<g
   transform="matrix(0.44,0,0,0.438879,0.01173783,0.01163807)"
   id="g14"
   style="fill:#e9e1d0;fill-opacity:1">
	<path
   id="path5256"
   class="st0"
   d="m 284.5,135.1 c -0.9,-2.8 -3.3,-5.4 -3.3,-5.4 0,0 -3.6,-4.7 -10.7,-6.3 -6.1,-1.3 -10.9,1.4 -10.9,1.4 0,0 -4.3,1.7 -7.6,5.3 -5.2,5 -6.7,12.3 -6.7,12.3 0,0 -2,6.4 1.2,11.4 l 3.4,4.1 c 4.8,4 10,4.4 10,4.4 0,0 4.2,0.9 9,-0.3 4.3,-0.9 7.4,-3 7.4,-3 0,0 7,-3.9 9,-11.9 z m -11,13.2 c 0,0 -2.8,4.9 -9,4.3 -7.3,-0.7 -8.1,-7.1 -8.1,-7.1 0,0 -1,-4.7 3.5,-8.8 4.5,-3.8 9.3,-3.2 9.3,-3.2 0,0 3.2,0.3 4.8,5.6 2,6.6 -0.5,9.2 -0.5,9.2"
   style="fill:#e9e1d0;fill-opacity:1" />
	<path
   id="path5262"
   class="st0"
   d="m 308,148.4 c -2.3,-0.5 -6.1,0.4 -6.1,0.4 0,0 -5.2,1.9 -6,1.9 -0.3,-0.4 -1,-8.9 -0.8,-12.3 0.1,-6 -0.4,-10.9 -0.4,-10.9 0,0 -0.2,-5.8 -3.3,-9.2 -3.6,-3.7 -6.2,-2.1 -7.7,-1.2 -3.5,3.2 -1.9,7 -1.9,7 l 1.8,5.2 c 0,0 0.9,2.2 0.8,5.8 l 0.8,12.2 c 0,1.6 1.3,12.6 1.3,12.6 0,0 0.1,3.6 3.6,4.2 3.5,0.6 7,-1.2 8.4,-1.9 1.5,-0.7 3.4,-1.3 3.4,-1.3 0,0 1.6,-0.4 3.2,-0.5 3.8,-0.4 5.1,-1 5.1,-1 0,0 1.5,-0.2 2.4,-1.6 1.1,-1.4 2.3,-7.9 -4.6,-9.4"
   style="fill:#e9e1d0;fill-opacity:1" />
	<path
   id="path5264"
   class="st0"
   d="m 246.5,153.8 c -2.5,-0.7 -5.3,-0.2 -5.3,-0.2 0,0 -8,0.8 -12.2,-0.1 -6.5,-1.1 -6.2,-8.1 -6.2,-8.1 0,0 -0.2,-4.6 3.7,-10.9 4.8,-7.7 10.1,-9.1 10.1,-9.1 0,0 1.3,-0.5 2.6,0.2 0.8,4.5 5.1,4.4 5.1,4.4 0,0 6.2,0.4 5.9,-7.2 -0.7,-6.2 -6.7,-7.1 -9.2,-7.7 -7.5,-1.4 -12.4,2.7 -12.4,2.7 0,0 -5.1,2.7 -11.1,12.3 -4.1,5.9 -4.6,10.6 -4.6,10.6 0,0 -0.5,1.1 -0.3,6 -0.1,3.8 1.3,6.6 1.3,6.6 0,0 2.2,6.6 9.1,9.3 4.2,1.7 10.3,1.7 10.3,1.7 0,0 5.9,-0.1 10.5,-0.3 2.5,0.2 3.7,-1.1 3.7,-1.1 0,0 2.8,-1.8 2.5,-5 -0.1,0 -0.6,-3.2 -3.5,-4.1"
   style="fill:#e9e1d0;fill-opacity:1" />
	<path
   id="path5258"
   class="st0"
   d="m 346.9,133.6 c -4.8,-7.9 -13.3,-9.1 -13.3,-9.1 0,0 -2.7,-0.9 -8.5,-0.1 -10.9,2.1 -14.7,10.4 -14.7,10.4 0,0 -3.9,6.1 -2.4,13.6 l 4.8,9.4 c 3.5,3.3 4.9,3.3 5.2,3.5 4.6,2.1 10,0.9 10,0.9 0,0 6.8,-0.7 13,-5.5 5,-3.6 7.1,-9 7.1,-9 l 0.7,-7.2 z m -13.3,16.1 c -7.8,4.7 -12.7,-0.4 -12.7,-0.4 0,0 -2.2,-1.4 -2.7,-5.8 -0.3,-5.1 4.7,-7.7 4.7,-7.7 0,0 2.7,-1.6 6,-1.4 3.3,0.2 4.4,0 7,2 2.5,2.3 2.4,4 2.4,4 0,0 1,5.7 -4.7,9.3"
   style="fill:#e9e1d0;fill-opacity:1" />
	<path
   id="path5260"
   class="st0"
   d="m 348.1,147.6 c 0,0 0.2,4.4 -0.5,5.5 -0.9,2 -0.8,4 -0.8,4 0,0 -0.6,6 6.3,7 4.7,0 5.3,-4 5.4,-5.7 0.3,-1.3 0.2,-7.5 0.2,-7.5 l 6.2,5 c 0,0 4.5,3.8 7.1,5.9 2.7,2.2 3.4,2.5 3.4,2.5 0,0 0.6,0.7 2.7,0.4 1.7,0 3.2,-1.5 3.2,-1.5 0,0 2,-1.4 2.5,-3.9 0.6,-3 -1.7,-4.5 -1.7,-4.5 0,0 -8.6,-6.9 -14.4,-11.7 3.9,-2.1 5.8,-3.6 5.8,-3.6 0,0 5.4,-3.6 6.6,-9.1 1.6,-6.1 -3,-8.4 -3,-8.4 0,0 -2.8,-2 -5.2,-3.1 -6.1,-3 -11.7,-2.4 -11.7,-2.4 0,0 -8,-0.6 -13.2,5.9 -2.4,3.1 -0.9,7.2 -0.9,7.2 0,0 0.3,0.7 1,3.8 1.1,6.4 1,14.2 1,14.2 z m 10.5,-12.2 -0.5,-7.2 c 0,0 5.1,-0.1 7.2,0.2 4.1,0.6 3.9,1.8 3.9,1.8 0,0 -0.1,1.5 -3.3,2.9 -3.5,1.7 -7.3,2.3 -7.3,2.3"
   style="fill:#e9e1d0;fill-opacity:1" />
	<polygon
   id="_43443024"
   class="st0"
   points="563.3,58.1 557.3,102.7 533.8,102.7 540.7,51.8 517.1,1 542.5,1 555.1,29.9 573.9,1 600,1 "
   style="fill:#e9e1d0;fill-opacity:1" />
	<polygon
   id="_43441624"
   class="st0"
   points="333.8,39.9 303,39.9 305.2,23.6 341,23.6 344.4,1 285.1,1 271,102.7 330,102.7 333.1,80.1 297.3,80.1 299.5,62.5 330.6,62.5 "
   style="fill:#e9e1d0;fill-opacity:1" />
	<path
   id="_43775888"
   class="st0"
   d="m 118.7,52.5 7.8,-21 2.5,21 z m -8.5,20 h 21.3 l 3.8,30.1 H 174 l 17.9,-55.3 8.8,55.3 h 20.4 l 22.6,-58.4 3.8,58.4 H 270 L 263.8,1 h -27 L 215.8,54.7 207.6,1 H 183.4 L 155.8,84.5 145.4,1 h -30.1 l -33.6,84.4 4.4,-33 H 45.2 l -2.8,20.1 h 17.9 l -1.3,7 C 55.9,81.4 48.6,81.7 45.8,81.7 43,81.7 21.9,79.8 22.9,57.2 23.8,34.6 54,13.6 89.8,25.2 L 93.3,3.5 C 69.4,-4.7 6.7,-0.1 0.3,55.9 c -3.8,33 26.4,48.7 46.5,48.4 11.6,0.6 24.8,-3.8 29.5,-6.3 l -1.6,4.7 h 23.9 z"
   style="fill:#e9e1d0;fill-opacity:1" />
	<path
   id="_44102912"
   class="st0"
   d="m 491.7,0 c -16.3,-0.6 -39.9,8.8 -47.7,46.8 -7.8,38 13.2,53.4 32.7,55.9 19.5,2.5 46.8,-9.7 51.8,-46.2 C 533.4,20.1 515.5,1 491.7,0 Z m -2.5,21.7 c 6.6,0 20.7,4.4 17.3,30.8 -3.5,26.3 -19.8,29.5 -25.8,28.8 -6,-0.6 -18.2,-4.7 -14.8,-28.9 3.5,-24.1 16.4,-31 23.3,-30.7 z"
   style="fill:#e9e1d0;fill-opacity:1" />
	<path
   id="_44104296"
   class="st0"
   d="m 392.5,39.9 h 13.2 c 9.7,0 11.6,-6.3 11.9,-8.8 0.3,-2.5 -2.5,-7.5 -7.5,-7.5 h -15.4 z m -5.7,40.2 h 17.9 c 9.7,0 11.9,-7.5 12.2,-10 0.3,-2.5 -2.5,-7.5 -7.5,-7.5 H 389.3 Z M 360.5,102.7 374.6,1 h 43.3 c 10.4,0 25.4,11.9 23.5,27.9 -1.9,16 -6.9,17 -10.4,19.5 5.3,4.7 10.7,12.2 8.5,26.4 -2.2,14.1 -13.8,27.9 -34.2,27.9 z"
   style="fill:#e9e1d0;fill-opacity:1" />
</g>
<path
   class="st0"
   d="m 83.611513,84.811678 h -2.5 v -2.7 h -1.8 v 2.7 h -2.5 v -7.7 h 2.5 v 2.7 h 1.8 v -2.7 h 2.5 z m 3.3,-1.2 -0.3,1.2 h -2.6 l 2,-7.7 h 3.8 l 2,7.7 h -2.6 l -0.2,-1.2 z m 1.1,-4.1 h -0.1 l -0.5,2.2 h 1.1 z m 9.4,3.1 0.2,2.1 c -0.5,0.2 -1.2,0.3 -1.9,0.3 -0.8,0 -1.4,-0.1 -1.9,-0.2 -0.5,-0.2 -0.8,-0.4 -1.1,-0.8 -0.3,-0.4 -0.5,-0.8 -0.6,-1.2 -0.1,-0.5 -0.1,-1.1 -0.1,-1.8 0,-0.7 0.1,-1.3 0.2,-1.8 0.1,-0.5 0.3,-0.9 0.6,-1.3 0.5,-0.7 1.5,-1 2.9,-1 0.3,0 0.7,0 1.1,0.1 0.4,0.1 0.7,0.1 0.9,0.2 l -0.4,1.9 c -0.5,-0.1 -1,-0.2 -1.5,-0.2 -0.4,0 -0.8,0 -0.9,0.1 -0.2,0.1 -0.3,0.2 -0.3,0.5 v 3.2 c 0.3,0.1 0.6,0.1 1,0.1 0.7,0.1 1.3,0 1.8,-0.2 z m 3.599997,-1.1 v 0 3.3 h -2.499997 v -7.7 h 2.499997 v 3.1 0 c 0,-0.2 0.1,-0.4 0.1,-0.6 l 1.2,-2.5 h 2.7 l -1.8,3.8 1.9,3.9 h -2.7 l -1.3,-2.8 c 0,-0.1 -0.1,-0.3 -0.1,-0.5 z m 4.5,3.2 0.3,-2 c 0.8,0.2 1.4,0.3 2,0.3 0.6,0 1.1,0 1.5,-0.1 v -0.6 l -1.1,-0.1 c -1,-0.1 -1.7,-0.3 -2.1,-0.7 -0.4,-0.4 -0.6,-1 -0.6,-1.7 0,-1 0.2,-1.8 0.7,-2.2 0.5,-0.4 1.2,-0.6 2.3,-0.6 1.1,0 2.1,0.1 3,0.3 l -0.3,2 c -0.8,-0.1 -1.4,-0.2 -1.8,-0.2 -0.4,0 -0.9,0 -1.2,0.1 v 0.6 l 0.9,0.1 c 1.1,0.1 1.8,0.4 2.2,0.8 0.4,0.4 0.6,1 0.6,1.7 0,0.5 -0.1,1 -0.2,1.3 -0.1,0.4 -0.3,0.6 -0.5,0.8 -0.2,0.2 -0.5,0.3 -0.8,0.4 -0.4,0.1 -0.7,0.2 -0.9,0.2 -0.3,0 -0.6,0 -1.1,0 -1,-0.1 -2,-0.2 -2.9,-0.4 z m 11.4,-2.8 h -1.9 v -1.8 h 1.9 v -1.9 h 1.8 v 1.9 h 1.9 v 1.8 h -1.9 v 1.9 h -1.8 z m 13.9,2.9 h -2.5 v -2.7 h -1.8 v 2.7 h -2.5 v -7.7 h 2.5 v 2.7 h 1.8 v -2.7 h 2.5 z m 0.8,-3.8 c 0,-1.4 0.3,-2.4 0.8,-3.1 0.5,-0.6 1.5,-1 2.8,-1 1.3,0 2.3,0.3 2.8,1 0.5,0.6 0.8,1.7 0.8,3.1 0,0.7 -0.1,1.3 -0.2,1.8 -0.1,0.5 -0.3,0.9 -0.6,1.2 -0.3,0.4 -0.6,0.6 -1.1,0.8 -0.5,0.2 -1.1,0.2 -1.8,0.2 -0.7,0 -1.3,-0.1 -1.8,-0.2 -0.5,-0.2 -0.9,-0.4 -1.1,-0.8 -0.3,-0.4 -0.5,-0.8 -0.6,-1.2 0.1,-0.5 0,-1.1 0,-1.8 z m 2.7,-1.3 v 3.2 h 1 c 0.3,0 0.6,0 0.7,-0.1 0.2,-0.1 0.2,-0.3 0.2,-0.5 v -3.2 h -1 c -0.3,0 -0.6,0 -0.7,0.1 -0.1,0 -0.2,0.2 -0.2,0.5 z m 7.9,1.4 -0.1,3.7 h -2.6 l 0.5,-7.7 h 3.2 l 1,3.9 h 0.1 l 1,-3.9 h 3.2 l 0.5,7.7 h -2.6 l -0.1,-3.7 h -0.3 l -0.9,3.7 h -1.9 z m 12.5,-1 v 1.8 h -2.5 v 0.9 h 3 v 2 h -5.5 v -7.7 h 5.4 l -0.3,2 h -2.6 v 1 z m 6,4.7 h -4.4 v -7.7 h 4 c 0.7,0 1.3,0.1 1.6,0.4 0.3,0.3 0.5,0.7 0.5,1.3 0,0.5 -0.1,1 -0.3,1.3 -0.2,0.3 -0.5,0.5 -0.8,0.6 v 0.1 c 1,0.2 1.5,0.8 1.5,2 0,0.6 -0.2,1.1 -0.5,1.5 -0.4,0.3 -0.9,0.5 -1.6,0.5 z m -1,-3 h -1 v 1.2 h 1 c 0.3,0 0.5,-0.2 0.5,-0.6 0,-0.4 -0.2,-0.6 -0.5,-0.6 z m -0.2,-3 h -0.8 v 1.2 h 0.8 c 0.3,0 0.5,-0.2 0.5,-0.6 0,-0.4 -0.2,-0.6 -0.5,-0.6 z m 9.5,3.5 1.3,2.6 h -2.7 l -1,-2.3 h -0.6 v 2.3 h -2.5 v -7.7 h 3.9 c 1.8,0 2.6,0.9 2.6,2.7 0.1,1.2 -0.3,2 -1,2.4 z m -2.4,-3.2 h -0.6 v 1.5 h 0.6 c 0.3,0 0.5,0 0.6,-0.1 0.1,-0.1 0.2,-0.2 0.2,-0.4 v -0.5 c 0,-0.2 -0.1,-0.4 -0.2,-0.4 -0.1,-0.1 -0.3,-0.1 -0.6,-0.1 z m 9.5,1 v 1.8 h -2.5 v 0.9 h 3 v 2 h -5.5 v -7.7 h 5.4 l -0.3,2 h -2.6 v 1 z m 7.9,1.3 0.6,-4.3 h 2.6 l -1.2,7.7 h -3.2 l -0.6,-2.8 h -0.2 l -0.6,2.8 h -3.2 l -1.2,-7.7 h 2.6 l 0.6,4.3 h 0.1 l 0.9,-4.3 h 1.9 z"
   id="path16"
   style="fill:#e9e1d0;fill-opacity:1" />
</svg>
