<?xml version="1.0" encoding="UTF-8" standalone="no"?>
<!-- Generator: Adobe Illustrator 26.0.3, SVG Export Plug-In . SVG Version: 6.00 Build 0)  -->

<svg
   version="1.1"
   id="svg2"
   x="0px"
   y="0px"
   viewBox="0 0 263.98474 58.113174"
   xml:space="preserve"
   sodipodi:docname="gbh.svg"
   width="263.98474"
   height="58.113174"
   inkscape:version="1.1.2 (b8e25be833, 2022-02-05)"
   xmlns:inkscape="http://www.inkscape.org/namespaces/inkscape"
   xmlns:sodipodi="http://sodipodi.sourceforge.net/DTD/sodipodi-0.dtd"
   xmlns="http://www.w3.org/2000/svg"
   xmlns:svg="http://www.w3.org/2000/svg"><defs
   id="defs15" /><sodipodi:namedview
   id="namedview13"
   pagecolor="#ffffff"
   bordercolor="#666666"
   borderopacity="1.0"
   inkscape:pageshadow="2"
   inkscape:pageopacity="0.0"
   inkscape:pagecheckerboard="0"
   showgrid="false"
   inkscape:zoom="0.55104167"
   inkscape:cx="959.09263"
   inkscape:cy="540.79395"
   inkscape:window-width="2560"
   inkscape:window-height="1387"
   inkscape:window-x="-8"
   inkscape:window-y="-8"
   inkscape:window-maximized="1"
   inkscape:current-layer="svg2" />
<style
   type="text/css"
   id="style2">
	.st0{fill:#E9E1D0;}
</style>
<g
   id="g4"
   transform="matrix(0.465655,0,0,0.461675,0.00492207,0.01287736)"
   style="fill:#e9e1d0;fill-opacity:1">
	<polygon
   id="_43443024"
   class="st0"
   points="532.2,54.9 526.6,97 504.3,97 510.9,49 488.6,0.9 512.6,0.9 524.5,28.2 542.3,0.9 566.9,0.9 "
   style="fill:#e9e1d0;fill-opacity:1" />
	<polygon
   id="_43441624"
   class="st0"
   points="315.4,37.7 286.3,37.7 288.4,22.3 322.2,22.3 325.5,0.9 269.4,0.9 256,97 311.8,97 314.8,75.7 281,75.7 283,59.1 312.4,59.1 "
   style="fill:#e9e1d0;fill-opacity:1" />
	<path
   id="_43775888"
   class="st0"
   d="m 112.2,49.6 7.4,-19.9 2.4,19.9 z m -8.1,19 h 20.2 l 3.6,28.5 h 36.5 l 16.9,-52.2 8.3,52.2 h 19.3 l 21.4,-55.2 3.6,55.2 h 21.4 L 249.4,1 H 223.9 L 204,51.7 196.3,1 H 173.5 L 147.4,79.9 137.6,1 h -28.5 l -32,79.7 4.2,-31.1 H 42.7 l -2.7,19 h 17 l -1.2,6.5 C 52.8,76.9 46,77.2 43.3,77.2 40.6,77.2 20.8,75.4 21.7,54 22.5,32.7 51,12.8 84.8,23.8 L 88.1,3.3 C 65.6,-4.4 6.3,-0.1 0.3,52.8 c -3.6,31.1 24.9,46 43.9,45.7 11,0.6 23.4,-3.6 27.9,-5.9 L 70.6,97 h 22.5 z"
   style="fill:#e9e1d0;fill-opacity:1" />
	<path
   id="_44102912"
   class="st0"
   d="m 464.6,0 c -15.4,-0.6 -37.7,8.3 -45.1,44.2 -7.4,35.9 12.5,50.4 30.9,52.8 18.4,2.4 44.2,-9.2 49,-43.6 C 504,19 487.1,0.9 464.6,0 Z m -2.4,20.5 c 6.2,0 19.6,4.2 16.3,29.1 -3.3,24.9 -18.7,27.9 -24.3,27.3 -5.6,-0.6 -17.2,-4.4 -13.9,-27.3 3.2,-22.9 15.4,-29.4 21.9,-29.1 z"
   style="fill:#e9e1d0;fill-opacity:1" />
	<path
   id="_44104296"
   class="st0"
   d="m 370.8,37.7 h 12.5 c 9.2,0 11,-5.9 11.3,-8.3 0.3,-2.4 -2.4,-7.1 -7.1,-7.1 H 373 Z m -5.3,38 h 16.9 c 9.2,0 11.3,-7.1 11.6,-9.5 0.3,-2.4 -2.4,-7.1 -7.1,-7.1 h -19 z M 340.6,97 354,0.9 h 40.9 c 9.8,0 24,11.3 22.3,26.4 -1.8,15.1 -6.5,16 -9.8,18.4 5,4.4 10.1,11.6 8,24.9 C 413.3,84 402.3,97 383,97 Z"
   style="fill:#e9e1d0;fill-opacity:1" />
</g>
<path
   class="st0"
   d="m 80.80633,57.813173 h -2.6 v -2.9 h -2 v 2.9 h -2.6 v -8.1 h 2.6 v 2.9 h 2 v -2.9 h 2.6 z m 3.5,-1.3 -0.3,1.3 h -2.8 l 2.1,-8.1 h 4 l 2.1,8.1 h -2.8 l -0.3,-1.3 z m 1.2,-4.3 h -0.1 l -0.5,2.3 h 1.1 z m 9.9,3.3 0.2,2.2 c -0.5,0.2 -1.2,0.3 -2.1,0.3 -0.8,0 -1.5,-0.1 -2,-0.3 -0.5,-0.2 -0.9,-0.4 -1.2,-0.8 -0.3,-0.4 -0.5,-0.8 -0.6,-1.3 -0.1,-0.5 -0.2,-1.1 -0.2,-1.9 0,-0.7 0.1,-1.3 0.2,-1.9 0.1,-0.5 0.3,-0.9 0.6,-1.3 0.6,-0.7 1.6,-1.1 3.1,-1.1 0.3,0 0.7,0 1.2,0.1 0.4,0.1 0.8,0.1 1,0.2 l -0.4,2 c -0.6,-0.1 -1.1,-0.2 -1.6,-0.2 -0.5,0 -0.8,0 -1,0.1 -0.2,0.1 -0.3,0.3 -0.3,0.5 v 3.4 c 0.3,0.1 0.7,0.1 1,0.1 0.9,0.2 1.5,0.1 2.1,-0.1 z m 3.8,-1.2 v 0 l -0.1,3.5 h -2.6 v -8.1 h 2.6 v 3.3 h 0.1 c 0,-0.3 0.1,-0.5 0.1,-0.6 l 1.3,-2.7 h 2.8 l -2,4 2,4.1 h -2.8 l -1.3,-2.9 c -0.1,-0.1 -0.1,-0.4 -0.1,-0.6 z m 4.7,3.4 0.4,-2.1 c 0.8,0.2 1.5,0.3 2.2,0.3 0.6,0 1.2,0 1.5,-0.1 v -0.6 l -1.2,-0.1 c -1.1,-0.1 -1.8,-0.3 -2.2,-0.8 -0.4,-0.4 -0.6,-1 -0.6,-1.8 0,-1.1 0.2,-1.9 0.7,-2.3 0.5,-0.4 1.3,-0.6 2.5,-0.6 1.2,0 2.2,0.1 3.1,0.3 l -0.3,2.1 c -0.8,-0.1 -1.5,-0.2 -1.9,-0.2 -0.5,0 -0.9,0 -1.2,0.1 v 0.6 l 0.9,0.1 c 1.1,0.1 1.9,0.4 2.4,0.8 0.4,0.4 0.7,1 0.7,1.8 0,0.5 -0.1,1 -0.2,1.4 -0.1,0.4 -0.3,0.7 -0.5,0.9 -0.2,0.2 -0.5,0.3 -0.9,0.4 -0.4,0.1 -0.7,0.2 -1,0.2 -0.3,0 -0.7,0 -1.1,0 -1.3,-0.1 -2.3,-0.2 -3.3,-0.4 z m 12.1,-3 h -2 v -1.9 h 2 v -2 h 1.9 v 2 h 2 v 1.9 h -2 v 2 h -1.9 z m 14.7,3.1 h -2.6 v -2.9 h -2 v 2.9 h -2.6 v -8.1 h 2.6 v 2.9 h 2 v -2.9 h 2.6 z m 0.9,-4 c 0,-1.5 0.3,-2.5 0.8,-3.2 0.6,-0.7 1.6,-1 3,-1 1.5,0 2.5,0.3 3,1 0.5,0.7 0.8,1.8 0.8,3.2 0,0.7 -0.1,1.3 -0.2,1.9 -0.1,0.5 -0.3,0.9 -0.6,1.3 -0.3,0.4 -0.7,0.6 -1.2,0.8 -0.5,0.2 -1.1,0.3 -1.9,0.3 -0.7,0 -1.4,-0.1 -1.9,-0.3 -0.5,-0.2 -0.9,-0.4 -1.2,-0.8 -0.3,-0.4 -0.5,-0.8 -0.6,-1.3 0.1,-0.6 0,-1.2 0,-1.9 z m 2.8,-1.4 v 3.4 h 1.1 c 0.4,0 0.6,0 0.8,-0.1 0.2,-0.1 0.2,-0.3 0.2,-0.6 v -3.4 h -1.1 c -0.3,0 -0.6,0 -0.8,0.1 -0.1,0.1 -0.2,0.3 -0.2,0.6 z m 8.4,1.5 -0.2,3.9 h -2.7 l 0.5,-8.1 h 3.4 l 1,4.1 h 0.1 l 1,-4.1 h 3.4 l 0.5,8.1 h -2.7 l -0.2,-3.9 h -0.1 l -1,3.9 h -2 z m 13.2,-1 v 1.9 h -2.6 v 1 h 3.2 v 2.1 h -5.8 v -8.1 h 5.7 l -0.3,2.1 h -2.8 v 1.1 h 2.6 z m 6.4,4.9 h -4.7 v -8.1 h 4.2 c 0.8,0 1.3,0.1 1.7,0.5 0.3,0.3 0.5,0.7 0.5,1.3 0,0.6 -0.1,1 -0.3,1.3 -0.2,0.3 -0.5,0.5 -0.9,0.6 v 0.1 c 1.1,0.2 1.6,0.9 1.6,2.1 0,0.6 -0.2,1.2 -0.5,1.6 -0.4,0.4 -0.9,0.6 -1.6,0.6 z m -1.1,-3.2 h -1 v 1.3 h 1 c 0.4,0 0.5,-0.2 0.5,-0.7 0,-0.4 -0.1,-0.6 -0.5,-0.6 z m -0.2,-3.1 h -0.8 v 1.2 h 0.8 c 0.3,0 0.5,-0.2 0.5,-0.6 0,-0.4 -0.2,-0.6 -0.5,-0.6 z m 10,3.6 1.4,2.7 h -2.9 l -1.1,-2.4 h -0.5 v 2.4 h -2.6 v -8.1 h 4.1 c 1.9,0 2.8,0.9 2.8,2.8 0,1.3 -0.4,2.2 -1.2,2.6 z m -2.5,-3.3 h -0.6 v 1.6 h 0.6 c 0.3,0 0.5,0 0.7,-0.1 0.1,-0.1 0.2,-0.2 0.2,-0.4 v -0.5 c 0,-0.2 -0.1,-0.4 -0.2,-0.4 -0.1,-0.2 -0.4,-0.2 -0.7,-0.2 z m 10,1.1 v 1.9 h -2.6 v 1 h 3.2 v 2.1 h -5.8 v -8.1 h 5.7 l -0.3,2.1 h -2.8 v 1.1 h 2.6 z m 8.4,1.3 0.6,-4.5 h 2.7 l -1.3,8.1 h -3.4 l -0.6,-3 v 0 l -0.6,3 h -3.4 l -1.3,-8.1 h 2.7 l 0.6,4.5 h 0.1 l 0.9,-4.5 h 2 z"
   id="path10"
   style="fill:#e9e1d0;fill-opacity:1" />
</svg>
