<?xml version="1.0" encoding="UTF-8" standalone="no"?>
<!-- Generator: Adobe Illustrator 26.0.3, SVG Export Plug-In . SVG Version: 6.00 Build 0)  -->

<svg
   version="1.1"
   id="Layer_1"
   x="0px"
   y="0px"
   viewBox="0 0 264 38.000721"
   xml:space="preserve"
   sodipodi:docname="n64.svg"
   width="264"
   height="38.000721"
   inkscape:version="1.1.2 (b8e25be833, 2022-02-05)"
   xmlns:inkscape="http://www.inkscape.org/namespaces/inkscape"
   xmlns:sodipodi="http://sodipodi.sourceforge.net/DTD/sodipodi-0.dtd"
   xmlns="http://www.w3.org/2000/svg"
   xmlns:svg="http://www.w3.org/2000/svg"><defs
   id="defs25" /><sodipodi:namedview
   id="namedview23"
   pagecolor="#ffffff"
   bordercolor="#666666"
   borderopacity="1.0"
   inkscape:pageshadow="2"
   inkscape:pageopacity="0.0"
   inkscape:pagecheckerboard="0"
   showgrid="false"
   inkscape:zoom="0.55104167"
   inkscape:cx="959.09263"
   inkscape:cy="540.79395"
   inkscape:window-width="2560"
   inkscape:window-height="1387"
   inkscape:window-x="-8"
   inkscape:window-y="-8"
   inkscape:window-maximized="1"
   inkscape:current-layer="Layer_1" />
<style
   type="text/css"
   id="style2">
	.st0{fill:#E9E1D0;}
</style>
<g
   transform="matrix(0.44,0,0,0.438092,0,0.01814636)"
   id="g20"
   style="fill:#e9e1d0;fill-opacity:1">
	<polygon
   id="polygon3518"
   class="st0"
   points="62.5,19.8 42.6,19.8 42.6,57.2 42.4,57.2 29.3,19.8 0,19.8 0,85 19.8,85 19.8,47.4 20,47.4 33.1,85 62.5,85 "
   style="fill:#e9e1d0;fill-opacity:1" />
	<polygon
   id="polygon3520"
   class="st0"
   points="173.2,19.8 153.4,19.8 153.4,57.2 153.2,57.2 140.1,19.8 110.7,19.8 110.7,85 130.6,85 130.6,47.4 130.8,47.4 143.8,85 173.2,85 "
   style="fill:#e9e1d0;fill-opacity:1" />
	<polygon
   id="polygon3522"
   class="st0"
   points="363.9,19.8 344,19.8 344,57.2 343.8,57.2 330.8,19.8 301.4,19.8 301.4,85 321.2,85 321.2,47.4 321.4,47.4 334.5,85 363.9,85 "
   style="fill:#e9e1d0;fill-opacity:1" />
	<polygon
   id="polygon3524"
   class="st0"
   points="98.9,85 74.5,85 74.5,19.8 98.9,19.8 "
   style="fill:#e9e1d0;fill-opacity:1" />
	<polygon
   id="polygon3526"
   class="st0"
   points="180.3,19.8 235.9,19.8 235.9,37.5 220.3,37.5 220.3,85 195.9,85 195.9,37.5 180.3,37.5 "
   style="fill:#e9e1d0;fill-opacity:1" />
	<polygon
   id="polygon3536"
   class="st0"
   points="291.6,37 267.3,37 267.3,43.9 289.7,43.9 289.7,60.6 267.3,60.6 267.3,67.9 292.4,67.9 292.4,85 243.2,85 243.2,19.8 291.6,19.8 "
   style="fill:#e9e1d0;fill-opacity:1" />
	<path
   id="path3528"
   class="st0"
   d="m 374.4,19.8 h 29 c 24.7,0 32.6,14 32.6,33.3 0,19.7 -12.1,31.9 -31.1,31.9 h -30.5 z m 24,50.4 h 2.4 c 3.9,0 6.6,-1.2 8.1,-3.8 1.6,-2.7 1.8,-7.6 1.8,-14 0,-6.3 -0.2,-11.3 -1.8,-14 -1.5,-2.6 -4.2,-3.8 -8.1,-3.8 h -2.4 z"
   style="fill:#e9e1d0;fill-opacity:1" />
	<path
   id="path3530"
   class="st0"
   d="m 474.4,18.1 c 21.3,0 31.9,14 31.9,34.3 0,20.3 -10.6,34.3 -31.9,34.3 -21.3,0 -31.9,-14 -31.9,-34.3 0,-20.3 10.6,-34.3 31.9,-34.3 z m 0,52.1 c 3.8,0 6.6,-1.8 6.6,-17.8 0,-15.6 -2.7,-17.8 -6.6,-17.8 -3.9,0 -6.6,2.2 -6.6,17.8 0,16 2.8,17.8 6.6,17.8 z"
   style="fill:#e9e1d0;fill-opacity:1" />
	<polygon
   id="polygon3566"
   class="st0"
   points="62.5,19.8 42.6,19.8 42.6,57.2 42.4,57.2 29.3,19.8 0,19.8 0,85 19.8,85 19.8,47.4 20,47.4 33.1,85 62.5,85 "
   style="fill:#e9e1d0;fill-opacity:1" />
	<polygon
   id="polygon3568"
   class="st0"
   points="173.2,19.8 153.4,19.8 153.4,57.2 153.2,57.2 140.1,19.8 110.7,19.8 110.7,85 130.6,85 130.6,47.4 130.8,47.4 143.8,85 173.2,85 "
   style="fill:#e9e1d0;fill-opacity:1" />
	<polygon
   id="polygon3570"
   class="st0"
   points="363.9,19.8 344,19.8 344,57.2 343.8,57.2 330.8,19.8 301.4,19.8 301.4,85 321.2,85 321.2,47.4 321.4,47.4 334.5,85 363.9,85 "
   style="fill:#e9e1d0;fill-opacity:1" />
	<polygon
   id="polygon3572"
   class="st0"
   points="98.9,85 74.5,85 74.5,19.8 98.9,19.8 "
   style="fill:#e9e1d0;fill-opacity:1" />
	<polygon
   id="polygon3574"
   class="st0"
   points="180.3,19.8 235.9,19.8 235.9,37.5 220.3,37.5 220.3,85 195.9,85 195.9,37.5 180.3,37.5 "
   style="fill:#e9e1d0;fill-opacity:1" />
	<polygon
   id="polygon3576"
   class="st0"
   points="291.6,37 267.3,37 267.3,43.9 289.7,43.9 289.7,60.6 267.3,60.6 267.3,67.9 292.4,67.9 292.4,85 243.2,85 243.2,19.8 291.6,19.8 "
   style="fill:#e9e1d0;fill-opacity:1" />
	<path
   id="path3532"
   class="st0"
   d="m 550.1,11.1 c -1.3,-0.1 -2.6,-0.1 -4.3,0 -10.3,0.5 -14.5,4.9 -15.9,9.9 h 0.2 c 2.6,-2.2 5.7,-3.3 10,-3.3 8.2,0 15.7,6 15.7,17.1 0,10.7 -8.2,19 -19.3,19 -14.5,0 -20.8,-11.1 -20.8,-23 0,-9.7 3.4,-17.9 9.1,-23.1 5.4,-5 12.3,-7.5 20.7,-7.7 2.2,-0.1 3.6,0 4.6,0.1 z m -13.8,32.2 c 3.3,0 5.4,-3.4 5.4,-7.8 0,-3.7 -1.7,-7.7 -6.2,-7.7 -2.7,0 -4.9,1.7 -5.7,3.8 -0.3,0.6 -0.4,1.6 -0.4,3.1 0.3,4.3 2.3,8.6 6.9,8.6 z"
   style="fill:#e9e1d0;fill-opacity:1" />
	<path
   id="path3534"
   class="st0"
   d="M 581.4,53 V 41.3 H 559.6 V 31.9 L 577.1,0.8 h 17.4 v 29.8 h 5.5 v 10.7 h -5.5 V 53 Z m 0,-22.5 v -9 c 0,-3.3 0.2,-6.8 0.4,-10.4 h -0.3 c -1.6,3.5 -3,6.9 -4.9,10.5 l -4.3,8.7 v 0.2 z"
   style="fill:#e9e1d0;fill-opacity:1" />
</g>
</svg>
