<?xml version="1.0" encoding="UTF-8" standalone="no"?>
<!-- Generator: Adobe Illustrator 26.0.3, SVG Export Plug-In . SVG Version: 6.00 Build 0)  -->

<svg
   version="1.1"
   id="Layer_1"
   x="0px"
   y="0px"
   viewBox="0 0 263.95599 38.023033"
   xml:space="preserve"
   sodipodi:docname="nds.svg"
   width="263.95599"
   height="38.023033"
   inkscape:version="1.1.2 (b8e25be833, 2022-02-05)"
   xmlns:inkscape="http://www.inkscape.org/namespaces/inkscape"
   xmlns:sodipodi="http://sodipodi.sourceforge.net/DTD/sodipodi-0.dtd"
   xmlns="http://www.w3.org/2000/svg"
   xmlns:svg="http://www.w3.org/2000/svg"><defs
   id="defs20" /><sodipodi:namedview
   id="namedview18"
   pagecolor="#ffffff"
   bordercolor="#666666"
   borderopacity="1.0"
   inkscape:pageshadow="2"
   inkscape:pageopacity="0.0"
   inkscape:pagecheckerboard="0"
   showgrid="false"
   inkscape:zoom="0.55104167"
   inkscape:cx="959.09263"
   inkscape:cy="540.79395"
   inkscape:window-width="2560"
   inkscape:window-height="1387"
   inkscape:window-x="-8"
   inkscape:window-y="-8"
   inkscape:window-maximized="1"
   inkscape:current-layer="Layer_1" />
<style
   type="text/css"
   id="style2">
	.st0{fill:#E9E1D0;}
</style>
<g
   transform="scale(0.44,0.442643)"
   id="g15"
   style="fill:#e9e1d0;fill-opacity:1">
	<path
   id="path100608"
   class="st0"
   d="m 381.5,77.2 c 0,0.9 -0.7,1.7 -1.7,1.7 H 348 c -0.9,0 -1.7,-0.8 -1.7,-1.7 V 54.1 c 0,-0.9 0.7,-1.6 1.7,-1.6 h 31.9 c 0.9,0 1.7,0.7 1.7,1.6 v 23.1 z m -1.3,-31.6 h -32.5 c -4.7,0 -8.5,3.8 -8.5,8.6 v 23.1 c 0,4.7 3.8,8.6 8.5,8.6 h 32.5 c 4.7,0 8.5,-3.9 8.5,-8.6 V 54.1 c 0,-4.7 -3.8,-8.5 -8.5,-8.5"
   style="fill:#e9e1d0;fill-opacity:1" />
	<path
   id="path100618"
   class="st0"
   d="m 7.5,10.9 c 0,0 0,29.3 0,29.8 -0.4,0 -7.1,0 -7.5,0 0,-0.4 0,-39.8 0,-40.2 0.4,0 6.2,0 6.4,0 l 30.2,29.3 c 0,0 0,-28.9 0,-29.3 0.4,0 6,0 6,0 0,0 1.1,0 1.4,0 0,0.5 0,39.8 0,40.3 -0.4,0 -5.6,0 -5.8,0 L 7.5,10.9"
   style="fill:#e9e1d0;fill-opacity:1" />
	<path
   id="path100622"
   class="st0"
   d="m 82.2,10.9 c 0,0 0,29.3 0,29.8 -0.4,0 -7,0 -7.5,0 0,-0.5 0,-39.8 0,-40.3 0.4,0 6.2,0 6.4,0 l 30.2,29.3 c 0,0 0,-28.9 0,-29.3 0.4,0 6,0 6,0 0,0 1.1,0 1.4,0 0,0.5 0,39.8 0,40.3 -0.4,0 -5.6,0 -5.8,0 L 82.2,10.9"
   style="fill:#e9e1d0;fill-opacity:1" />
	<path
   id="path100626"
   class="st0"
   d="m 237.1,10.9 c 0,0 0,29.3 0,29.8 -0.4,0 -7,0 -7.5,0 0,-0.5 0,-39.8 0,-40.3 0.4,0 6.2,0 6.4,0 l 30.2,29.3 c 0,0 0,-28.9 0,-29.3 0.4,0 6,0 6,0 0,0 1.1,0 1.4,0 0,0.5 0,39.8 0,40.3 -0.4,0 -5.6,0 -5.8,0 L 237.1,10.9"
   style="fill:#e9e1d0;fill-opacity:1" />
	<path
   id="path100630"
   class="st0"
   d="m 61.7,0.5 c 0,0 1.1,0 1.4,0 0,0.5 0,39.8 0,40.3 -0.4,0 -7.1,0 -7.5,0 0,-0.5 0,-39.8 0,-40.3 0.4,0 6.1,0 6.1,0"
   style="fill:#e9e1d0;fill-opacity:1" />
	<path
   id="path100634"
   class="st0"
   d="m 169.4,0.5 c 0,0 1,0 1.4,0 0,0.4 0,6.6 0,6.9 -0.4,0 -18,0 -18,0 0,0 0,32.9 0,33.4 -0.4,0 -7.3,0 -7.7,0 0,-0.5 0,-33.4 0,-33.4 0,0 -17.5,0 -18,0 0,-0.4 0,-6.6 0,-6.9 0.5,0 42.3,0 42.3,0"
   style="fill:#e9e1d0;fill-opacity:1" />
	<path
   id="path100638"
   class="st0"
   d="m 217.2,0.5 c 0,0 1.1,0 1.4,0 0,0.4 0,6.6 0,6.9 -0.4,0 -32,0 -32,0 v 9 c 0,0 24.3,0 24.7,0 0,0.5 0,6.5 0,6.9 -0.4,0 -24.7,0 -24.7,0 v 10.5 c 0,0 31.5,0 32,0 0,0.4 0,6.5 0,6.9 -0.4,0 -38.9,0 -39.3,0 0,-0.5 0,-39.8 0,-40.3 0.4,0.1 37.9,0.1 37.9,0.1"
   style="fill:#e9e1d0;fill-opacity:1" />
	<path
   id="path100642"
   class="st0"
   d="M 315,33.8 H 292.1 V 7.4 H 315 c 7.2,0 9.7,7.1 9.7,13.2 0,6 -2.5,13.2 -9.7,13.2 z M 327.2,6.4 C 324.3,2.5 320,0.5 314.8,0.5 c 0,0 -29.4,0 -29.9,0 0,0.5 0,39.8 0,40.3 0.4,0 29.9,0 29.9,0 5.2,0 9.5,-2.1 12.4,-5.9 2.7,-3.6 4.2,-8.5 4.2,-14.2 0,-5.8 -1.4,-10.8 -4.2,-14.3"
   style="fill:#e9e1d0;fill-opacity:1" />
	<path
   id="path100646"
   class="st0"
   d="m 381.5,32.2 c 0,0.8 -0.7,1.6 -1.7,1.6 H 348 c -0.9,0 -1.7,-0.8 -1.7,-1.6 V 9 c 0,-0.9 0.7,-1.6 1.7,-1.6 h 31.9 c 0.9,0 1.7,0.7 1.7,1.6 V 32.2 Z M 380.2,0.5 h -32.5 c -4.7,0 -8.5,3.8 -8.5,8.6 v 23.1 c 0,4.7 3.8,8.6 8.5,8.6 h 32.5 c 4.7,0 8.5,-3.8 8.5,-8.6 V 9 c 0,-4.7 -3.8,-8.5 -8.5,-8.5"
   style="fill:#e9e1d0;fill-opacity:1" />
	<path
   id="path100656"
   class="st0"
   d="m 515.5,68.8 c 7.7,3.1 24.1,5.6 36.8,5.6 13.9,0 19.7,-4.7 19.7,-10.8 C 572,58.1 566.6,55 551.2,49.4 530.6,41.8 515.5,35.8 515.5,22.2 515.5,8.3 533.7,0 561.4,0 c 14.9,0 20,0.9 29.4,2.6 l 0.1,13.3 c -9.3,-1.7 -17.5,-4.7 -30.3,-4.7 -13.7,0 -19.5,4.4 -19.5,8.8 0,6.5 9,9.6 24.7,15.2 21.9,7.8 34.1,13.9 34.1,27.1 0,13.7 -15.3,23.5 -49.7,23.5 -14.2,0 -23.9,-0.9 -34.8,-2.7 V 68.8"
   style="fill:#e9e1d0;fill-opacity:1" />
	<path
   id="path100660"
   class="st0"
   d="M 442.1,11.8 H 425.7 V 74 h 16.4 c 25.2,0 41.1,-10.8 41.1,-31 0,-20.2 -15.9,-31.2 -41.1,-31.2 z m 44,67.9 c -8.1,3.6 -23.5,6 -36.9,6 H 398 V 0.2 h 51.3 c 13.4,0 28.8,2.4 36.9,6 19.7,8.9 26.2,23.2 26.2,36.7 0,13.5 -6.4,27.8 -26.3,36.8"
   style="fill:#e9e1d0;fill-opacity:1" />
</g>
</svg>
