<?xml version="1.0" encoding="UTF-8" standalone="no"?>
<!-- Generator: Adobe Illustrator 26.0.3, SVG Export Plug-In . SVG Version: 6.00 Build 0)  -->

<svg
   version="1.1"
   id="Ebene_1"
   x="0px"
   y="0px"
   viewBox="0 0 264 84.005829"
   xml:space="preserve"
   sodipodi:docname="nes.svg"
   width="264"
   height="84.005829"
   inkscape:version="1.1.2 (b8e25be833, 2022-02-05)"
   xmlns:inkscape="http://www.inkscape.org/namespaces/inkscape"
   xmlns:sodipodi="http://sodipodi.sourceforge.net/DTD/sodipodi-0.dtd"
   xmlns="http://www.w3.org/2000/svg"
   xmlns:svg="http://www.w3.org/2000/svg"><defs
   id="defs38" /><sodipodi:namedview
   id="namedview36"
   pagecolor="#ffffff"
   bordercolor="#666666"
   borderopacity="1.0"
   inkscape:pageshadow="2"
   inkscape:pageopacity="0.0"
   inkscape:pagecheckerboard="0"
   showgrid="false"
   inkscape:zoom="0.55104167"
   inkscape:cx="959.09263"
   inkscape:cy="540.79395"
   inkscape:window-width="2560"
   inkscape:window-height="1387"
   inkscape:window-x="-8"
   inkscape:window-y="-8"
   inkscape:window-maximized="1"
   inkscape:current-layer="Ebene_1" />
<style
   type="text/css"
   id="style2">
	.st0{fill:#E9E1D0;}
</style>
<g
   transform="scale(0.44,0.440513)"
   id="g33"
   style="fill:#e9e1d0;fill-opacity:1">
	<path
   id="path5"
   class="st0"
   d="M 526,147.7 H 74 C 33.2,147.7 0,114.6 0,73.9 0,33.2 33.2,0 74,0 h 452 c 40.8,0 74,33.1 74,73.8 0,40.7 -33.2,73.9 -74,73.9 z M 74,17.5 c -31.2,0 -56.5,25.3 -56.5,56.4 0,31.1 25.3,56.4 56.5,56.4 h 452 c 31.1,0 56.5,-25.3 56.5,-56.4 0,-31.1 -25.3,-56.4 -56.5,-56.4 H 74 Z"
   style="fill:#e9e1d0;fill-opacity:1" />
	<path
   id="path7"
   class="st0"
   d="M 132.1,108.1 V 39.9 H 111.6 V 87.6 L 81.2,39.9 H 59.1 V 108 H 79.6 V 58.9 l 31.8,49.2 z"
   style="fill:#e9e1d0;fill-opacity:1" />
	<path
   id="path9"
   class="st0"
   d="M 165.4,108.1 V 62 h -20.5 v 46.1 z"
   style="fill:#e9e1d0;fill-opacity:1" />
	<path
   id="path11"
   class="st0"
   d="M 165.4,52.2 V 39.9 h -20.5 v 12.3 z"
   style="fill:#e9e1d0;fill-opacity:1" />
	<path
   id="_x33_162"
   class="st0"
   d="M 237.3,108.1 V 76.3 c 0,-6.7 -12.8,-15.9 -19.5,-15.9 h -6.2 c -4.6,0 -9.8,4.1 -14.4,6.1 V 62 h -20.5 v 46.1 h 20.5 V 76.3 c 0,-3.1 7.2,-6.7 10.3,-6.7 3.1,0 8.7,3.6 8.7,6.7 v 31.8 z"
   style="fill:#e9e1d0;fill-opacity:1" />
	<path
   id="_x33_162_1_"
   class="st0"
   d="M 409.2,109.7 V 77.9 C 409.2,71.2 396.4,62 389.7,62 h -6.2 c -4.6,0 -9.8,4.1 -14.4,6.1 v -4.6 h -20.5 v 46.1 h 20.5 V 77.9 c 0,-3.1 7.2,-6.7 10.3,-6.7 3.1,0 8.7,3.6 8.7,6.7 v 31.8 z"
   style="fill:#e9e1d0;fill-opacity:1" />
	<path
   id="path15"
   class="st0"
   d="M 270.7,108.1 V 62 h 10.8 v -6.1 h -10.8 v -9.7 h -21.1 v 9.7 H 238.8 V 62 h 10.8 v 46.1 z"
   style="fill:#e9e1d0;fill-opacity:1" />
	<path
   id="path17"
   class="st0"
   d="m 310.3,60.4 c -16.4,0 -30.3,11.3 -30.3,25.1 0,14.3 13.9,25.6 30.3,25.6 14.4,0 26.2,-8.2 29.3,-19 h -21.1 v 6.1 c 0,5.1 -3.6,6.7 -8.2,6.7 -4.6,0 -7.7,-1.5 -7.7,-6.7 V 85.5 h 38 c 0,-13.8 -13.4,-25.1 -30.3,-25.1 z m 0,4.6 c 4.6,0 8.2,3.1 8.2,8.2 v 4.6 h -15.9 v -4.6 c 0,-5.1 3,-8.2 7.7,-8.2 z"
   style="fill:#e9e1d0;fill-opacity:1" />
	<path
   id="path19"
   class="st0"
   d="m 512.6,60.4 c -17,0 -30.3,11.3 -30.3,25.1 0,14.3 13.3,25.6 30.3,25.6 16.4,0 30.3,-11.3 30.3,-25.6 0,-13.8 -13.9,-25.1 -30.3,-25.1 z m 0,4.6 c 4.6,0 7.7,3.1 7.7,8.2 v 25.1 c 0,5.1 -3.1,6.7 -7.7,6.7 -5.1,0 -8.2,-1.5 -8.2,-6.7 V 73.2 c 0,-5.1 3.1,-8.2 8.2,-8.2 z"
   style="fill:#e9e1d0;fill-opacity:1" />
	<path
   id="path21"
   class="st0"
   d="M 453.5,39.9 V 65 c 0,0 -6.2,-4.6 -14.4,-4.6 -12.8,0 -23.6,11.3 -23.6,23.6 0,12.8 10.8,25.6 23.6,25.6 8.2,0 14.4,-3.1 14.4,-3.1 V 108 H 474 V 39.9 Z m -7.7,28.2 c 4.6,0 7.7,3.6 7.7,8.2 v 19 c 0,4.6 -3.1,6.2 -7.7,6.2 -5.1,0 -8.2,-1.5 -8.2,-6.2 v -19 c 0,-4.6 3.1,-8.2 8.2,-8.2 z"
   style="fill:#e9e1d0;fill-opacity:1" />
	<path
   id="_x32_399"
   class="st0"
   d="m 60.7,190.4 v -16.6 c 0,-3.1 -3.1,-6.3 -6.3,-6.3 h -24 v 22.8 h 7.4 V 175 c 0,-1.1 0.9,-2.3 2,-2.3 h 11.4 c 1.1,0 2.3,1.1 2.3,2.3 v 15.4 z"
   style="fill:#e9e1d0;fill-opacity:1" />
	<path
   id="_x32_399_1_"
   class="st0"
   d="m 259.2,190.4 v -16.6 c 0,-3.1 -3.1,-6.3 -6.3,-6.3 h -24 v 22.8 h 7.4 V 175 c 0,-1.1 0.9,-2.3 2,-2.3 h 11.4 c 1.1,0 2.3,1.1 2.3,2.3 v 15.4 z"
   style="fill:#e9e1d0;fill-opacity:1" />
	<path
   id="_x32_399_2_"
   class="st0"
   d="m 367.9,190.4 v -16.6 c 0,-3.1 -3.1,-6.3 -6.3,-6.3 h -24 v 22.8 H 345 V 175 c 0,-1.1 0.9,-2.3 2,-2.3 h 11.4 c 1.1,0 2.3,1.1 2.3,2.3 v 15.4 z"
   style="fill:#e9e1d0;fill-opacity:1" />
	<path
   id="_x33_177"
   class="st0"
   d="m 303.1,190.4 v -16.6 c 0,-3.1 -3.1,-6.3 -6.3,-6.3 h -32.3 v 22.8 h 7.4 V 175 c 0,-1.1 0.9,-2.3 2,-2.3 h 4.3 c 0.9,0 2,1.1 2,2.3 v 15.4 h 7.4 V 175 c 0,-1.1 0.9,-2.3 2,-2.3 h 4.3 c 0.9,0 2,1.1 2,2.3 v 15.4 z"
   style="fill:#e9e1d0;fill-opacity:1" />
	<path
   id="_x33_181"
   class="st0"
   d="M 25.2,190.4 H 6.3 c -3.1,0 -6.3,-2 -6.3,-5.1 v -18 h 25.2 v 5.4 H 8.3 c -0.9,0 -2,0.9 -2,2 0,1.1 1.1,2 2,2 H 24 v 4.6 H 8.3 c -0.9,0 -2,1.1 -2,2 0,1.1 1.1,2.3 2,2.3 h 16.9 z"
   style="fill:#e9e1d0;fill-opacity:1" />
	<path
   id="_x33_181_1_"
   class="st0"
   d="M 118.2,190.7 H 99.3 c -3.1,0 -6.3,-2 -6.3,-5.1 v -18 h 25.2 v 5.4 h -16.9 c -0.9,0 -2,0.9 -2,2 0,1.1 1.1,2 2,2 H 117 v 4.6 h -15.7 c -0.9,0 -2,1.1 -2,2 0,1.1 1.1,2.3 2,2.3 h 16.9 z"
   style="fill:#e9e1d0;fill-opacity:1" />
	<path
   id="_x33_181_2_"
   class="st0"
   d="m 333.5,190.4 h -18.9 c -3.1,0 -6.3,-2 -6.3,-5.1 v -18 h 25.2 v 5.4 h -16.9 c -0.9,0 -2,0.9 -2,2 0,1.1 1.1,2 2,2 h 15.7 v 4.6 h -15.7 c -0.9,0 -2,1.1 -2,2 0,1.1 1.1,2.3 2,2.3 h 16.9 v 4.8 z"
   style="fill:#e9e1d0;fill-opacity:1" />
	<path
   id="_x32_391"
   class="st0"
   d="m 63.8,167.6 v 5.1 h 7.4 c 2,0 2,0 2,2.3 v 15.4 h 7.2 V 175 c 0,-2.3 0,-2.3 2.3,-2.3 h 7.2 v -5.1 z"
   style="fill:#e9e1d0;fill-opacity:1" />
	<path
   id="_x32_391_1_"
   class="st0"
   d="m 154.7,167.6 v 5.1 h 7.4 c 2,0 2,0 2,2.3 v 15.4 h 7.2 V 175 c 0,-2.3 0,-2.3 2.3,-2.3 h 7.2 v -5.1 z"
   style="fill:#e9e1d0;fill-opacity:1" />
	<path
   id="_x32_391_2_"
   class="st0"
   d="m 372.1,167.6 v 5.1 h 7.4 c 2,0 2,0 2,2.3 v 15.4 h 7.2 V 175 c 0,-2.3 0,-2.3 2.3,-2.3 h 7.2 v -5.1 z"
   style="fill:#e9e1d0;fill-opacity:1" />
	<path
   id="path37"
   class="st0"
   d="m 123.3,167.6 v 22.8 h 7.4 v -4 c 0,-1.1 0.9,-2.3 2,-2.3 h 9.4 c 1.1,0 2,1.1 2,2.3 v 4 h 6.3 v -6.3 c 0,-0.9 -0.9,-2 -0.9,-3.1 0,-0.9 2,-2.9 2,-5.1 v -2 c 0,-2 -3.1,-6.3 -5.2,-6.3 z m 9.5,5.1 h 9.4 c 1.1,0 2,1.1 2,2.3 v 2 c 0,1.1 -0.9,2 -2,2 h -9.4 c -1.1,0 -2,-0.9 -2,-2 v -2 c 0,-1.2 0.8,-2.3 2,-2.3 z"
   style="fill:#e9e1d0;fill-opacity:1" />
	<path
   id="path39"
   class="st0"
   d="m 189.2,167.6 c -2,0 -5.1,4.3 -5.1,6.3 v 16.6 h 7.4 v -6.3 h 13.4 v 6.3 h 7.4 v -16.6 c 0,-2 -3.1,-6.3 -5.4,-6.3 z m 4.3,5.1 h 9.4 c 0.9,0 2,1.1 2,2.3 v 4 h -13.4 v -4 c -0.1,-1.2 0.8,-2.3 2,-2.3 z"
   style="fill:#e9e1d0;fill-opacity:1" />
	<path
   id="path41"
   class="st0"
   d="m 224.6,190.4 v -22.8 h -7.2 v 22.8 z"
   style="fill:#e9e1d0;fill-opacity:1" />
	<path
   id="_x33_177_1_"
   class="st0"
   d="m 600,190.4 v -16.6 c 0,-3.1 -3.1,-6.3 -6.3,-6.3 h -32.3 v 22.8 h 7.4 V 175 c 0,-1.1 0.9,-2.3 2,-2.3 h 4.3 c 0.9,0 2,1.1 2,2.3 v 15.4 h 7.4 V 175 c 0,-1.1 0.9,-2.3 2,-2.3 h 4.3 c 0.9,0 2,1.1 2,2.3 v 15.4 h 7.2 z"
   style="fill:#e9e1d0;fill-opacity:1" />
	<path
   id="_x33_181_3_"
   class="st0"
   d="m 556.2,190.4 h -18.9 c -3.1,0 -6.3,-2 -6.3,-5.1 v -18 h 25.2 v 5.4 h -16.9 c -0.9,0 -2,0.9 -2,2 0,1.1 1.1,2 2,2 H 555 v 4.6 h -15.7 c -0.9,0 -2,1.1 -2,2 0,1.1 1.1,2.3 2,2.3 h 16.9 z"
   style="fill:#e9e1d0;fill-opacity:1" />
	<path
   id="_x32_391_3_"
   class="st0"
   d="m 501.9,167.5 v 5.1 h 7.4 c 2,0 2,0 2,2.3 v 15.4 h 7.2 v -15.4 c 0,-2.3 0,-2.3 2.3,-2.3 h 7.1 v -5.1 z"
   style="fill:#e9e1d0;fill-opacity:1" />
	<path
   id="_x33_187"
   class="st0"
   d="m 417.1,167.6 c -2,0 -6.3,3.1 -6.3,5.1 v 3.1 c 0,2 4.3,5.1 6.3,5.1 h 12.6 c 1.1,0 2.3,1.1 2.3,2 0,1.1 -1.1,2.3 -2.3,2.3 h -18.9 v 5.1 H 432 c 2,0 6,-3.1 6,-5.1 v -3.1 c 0,-2.3 -4,-5.4 -6,-5.4 h -12.6 c -1.1,0 -2.3,-0.9 -2.3,-2 0,-1.1 1.1,-2 2.3,-2 H 438 v -5.1 z"
   style="fill:#e9e1d0;fill-opacity:1" />
	<path
   id="_x33_187_1_"
   class="st0"
   d="m 477.7,167.6 c -2,0 -6.3,3.1 -6.3,5.1 v 3.1 c 0,2 4.3,5.1 6.3,5.1 h 12.6 c 1.1,0 2.3,1.1 2.3,2 0,1.1 -1.1,2.3 -2.3,2.3 h -18.9 v 5.1 h 21.2 c 2,0 6,-3.1 6,-5.1 v -3.1 c 0,-2.3 -4,-5.4 -6,-5.4 H 480 c -1.1,0 -2.3,-0.9 -2.3,-2 0,-1.1 1.1,-2 2.3,-2 h 18.6 v -5.1 h -20.9 z"
   style="fill:#e9e1d0;fill-opacity:1" />
	<path
   id="path48"
   class="st0"
   d="m 440.3,167.6 v 10.3 c 0,2 3.1,5.1 5.2,5.1 h 5.1 v 7.4 H 458 V 183 h 5.2 c 2,0 5.1,-3.1 5.1,-5.1 v -10.3 h -7.2 v 8.3 c 0,0.9 -1.1,2 -2.3,2 h -9.2 c -1.1,0 -2.3,-1.1 -2.3,-2 v -8.3 z"
   style="fill:#e9e1d0;fill-opacity:1" />
</g>
</svg>
