<?xml version="1.0" encoding="UTF-8" standalone="no"?>
<!-- Generator: Adobe Illustrator 26.0.3, SVG Export Plug-In . SVG Version: 6.00 Build 0)  -->

<svg
   version="1.1"
   id="Warstwa_1"
   x="0px"
   y="0px"
   viewBox="0 0 264.29998 95.792744"
   xml:space="preserve"
   sodipodi:docname="nesh.svg"
   width="264.29999"
   height="95.792747"
   inkscape:version="1.1.2 (b8e25be833, 2022-02-05)"
   xmlns:inkscape="http://www.inkscape.org/namespaces/inkscape"
   xmlns:sodipodi="http://sodipodi.sourceforge.net/DTD/sodipodi-0.dtd"
   xmlns="http://www.w3.org/2000/svg"
   xmlns:svg="http://www.w3.org/2000/svg"><defs
   id="defs93" /><sodipodi:namedview
   id="namedview91"
   pagecolor="#ffffff"
   bordercolor="#666666"
   borderopacity="1.0"
   inkscape:pageshadow="2"
   inkscape:pageopacity="0.0"
   inkscape:pagecheckerboard="0"
   showgrid="false"
   inkscape:zoom="4.0060582"
   inkscape:cx="131.92519"
   inkscape:cy="47.927411"
   inkscape:window-width="2560"
   inkscape:window-height="1387"
   inkscape:window-x="-8"
   inkscape:window-y="-8"
   inkscape:window-maximized="1"
   inkscape:current-layer="Warstwa_1" />
<style
   type="text/css"
   id="style2">
	.st0{fill:#E9E1D0;}
</style>
<path
   class="st0"
   d="m 132.2,0 h 99.5 c 18,0 32.6,14.5 32.6,32.5 0,16.5 -12.4,30.4 -28.8,32.4 -1.2,0.2 -2.5,0.2 -3.7,0.2 H 32.5 C 14.5,65 0,50.4 0,32.4 0.1,16.4 11.8,2.8 27.7,0.3 29.3,0.1 30.8,0 32.4,0 Z m -0.1,7.7 c -33,0 -66.1,0 -99.1,0 -1.7,0 -3.4,0.2 -5.1,0.5 -13.5,2.5 -22.4,15.4 -20,28.9 2.2,12 12.9,20.7 25.1,20.3 66.1,0 132.1,0 198.2,0 1.7,0 3.4,-0.2 5.1,-0.5 13.5,-2.6 22.2,-15.7 19.6,-29.1 C 253.6,16 243.3,7.6 231.3,7.7 Z"
   id="path4"
   style="fill:#e9e1d0;fill-opacity:1" />
<path
   class="st0"
   d="m 257.4,83.9 h -3.3 V 78 c 0,-1.7 -0.2,-1.9 -1.9,-1.9 -1.7,0 -1.8,0.2 -1.8,1.8 v 5.9 h -3.2 v -10 c 0.4,0 0.8,-0.1 1.2,-0.1 h 12.4 c 2.3,0 3.4,1.1 3.4,3.4 v 6.7 h -3.1 c 0,-2.1 0,-4.1 0,-6.1 0,-0.5 -0.3,-1.4 -0.7,-1.5 -0.8,-0.1 -1.7,-0.1 -2.5,0.1 -0.2,0 -0.4,0.8 -0.4,1.2 -0.1,2.1 -0.1,4.2 -0.1,6.4 z"
   id="path6"
   style="fill:#e9e1d0;fill-opacity:1" />
<path
   class="st0"
   d="m 119.6,83.9 h -3 v -10 c 0.3,0 0.7,-0.1 1,-0.1 h 12.5 c 2.2,0 3.4,1.2 3.4,3.4 0,2.2 0,4.4 0,6.7 h -3.3 v -5.8 c 0,-1.8 -1.3,-2.6 -2.9,-1.8 -0.4,0.3 -0.6,0.8 -0.6,1.3 -0.1,2.1 0,4.1 0,6.4 -1,0 -1.9,0.1 -2.8,0 -0.2,0 -0.5,-0.6 -0.5,-0.9 0,-1.8 0,-3.5 0,-5.3 0,-1.4 -0.3,-1.7 -1.8,-1.7 -1.5,0 -1.8,0.2 -1.8,1.7 0,1.9 0,3.8 0,5.8 -0.1,0.1 -0.1,0.2 -0.2,0.3 z"
   id="path8"
   style="fill:#e9e1d0;fill-opacity:1" />
<path
   class="st0"
   d="m 66.4,83.9 h -2.6 c -0.1,-0.1 -0.2,-0.2 -0.2,-0.2 -0.1,-2.5 0.1,-2.5 -2.7,-2.5 h -0.4 c -3,0 -2.7,-0.4 -3,2.8 H 54.4 V 73.8 h 3.7 c 1.8,0.1 3.5,0.1 5.3,0 1.7,-0.2 3.3,1.1 3.4,2.8 0,0.4 0,0.9 -0.1,1.3 -0.7,1.7 -0.3,3.2 -0.4,4.7 0.1,0.4 0.1,0.8 0.1,1.3 z m -5.8,-5 h 1.7 c 0.9,0 1.2,-0.5 1.1,-1.3 -0.1,-0.8 -0.1,-1.5 -1.1,-1.5 -1,0 -2.2,0 -3.2,0 -1,0 -1.5,0.4 -1.5,1.5 0,1.1 0.6,1.3 1.5,1.3 0.6,0 1,0 1.5,0 z"
   id="path10"
   style="fill:#e9e1d0;fill-opacity:1" />
<path
   class="st0"
   d="m 93.5,83.9 h -3.2 v -2.6 h -5.9 v 2.6 h -3.3 c 0,-2.2 -0.1,-4.4 0,-6.6 0,-0.9 0.4,-1.7 0.9,-2.4 0.5,-0.6 1.2,-0.9 2,-1 2.2,-0.1 4.4,-0.1 6.6,0 1.5,0 2.7,1.2 2.9,2.6 0.1,2.4 0,4.9 0,7.4 z m -3.4,-5.1 c 0.4,-2.2 0.1,-2.7 -2,-2.7 H 85.6 C 85,76 84.5,76.4 84.4,77 c 0,0.1 0,0.2 0,0.2 0,0.5 0,1 0,1.5 h 5.7 z"
   id="path12"
   style="fill:#e9e1d0;fill-opacity:1" />
<path
   class="st0"
   d="m 135.9,73.8 h 10.9 v 2.4 h -6.1 c -0.4,-0.1 -0.7,-0.1 -1.1,0 -0.4,0.2 -0.7,0.5 -1,0.9 0.3,0.3 0.7,0.8 1,0.8 1.8,0.1 3.5,0 5.3,0 h 1.4 V 80 h -5.5 c -0.4,-0.1 -0.7,-0.1 -1.1,0 -0.4,0.2 -0.8,0.5 -1.1,0.8 0.4,0.3 0.7,0.9 1.1,0.9 1.8,0.1 3.7,0.1 5.5,0.1 h 1.5 v 2.1 c -3,0 -5.9,0.1 -8.9,-0.1 -1.5,-0.1 -2.1,-1 -2.1,-2.5 0,-2.4 0,-4.7 0,-7.1 0.1,-0.2 0.1,-0.3 0.2,-0.4 z"
   id="path14"
   style="fill:#e9e1d0;fill-opacity:1" />
<path
   class="st0"
   d="m 10.7,77.8 v 2.1 H 6.4 c -0.6,0 -1.3,0 -1.9,0 -0.6,0 -1.5,0 -1.5,0.9 0,0.9 0.7,0.9 1.4,0.9 h 6.8 v 2.1 c -0.3,0 -0.7,0.1 -1,0.1 -2.3,0 -4.6,0 -6.8,0 -2.2,0 -3.3,-0.8 -3.3,-3.1 v -7 h 11 v 2.3 c -2.1,0 -4.2,0 -6.3,0 C 4,76.1 2.9,75.8 3,77 c 0.1,1.2 1.1,0.8 1.8,0.8 1.9,0.1 3.8,0 5.9,0 z"
   id="path16"
   style="fill:#e9e1d0;fill-opacity:1" />
<path
   class="st0"
   d="m 244.9,73.8 v 2.4 h -6 c -0.3,-0.1 -0.7,-0.1 -1.1,0 -0.4,0.2 -0.8,0.5 -1.1,0.8 0.4,0.3 0.7,0.8 1.1,0.8 1.8,0.1 3.5,0 5.3,0 h 1.3 v 2.1 c -2.1,0 -4.2,0 -6.2,0 -0.7,0 -1.4,0 -1.4,0.9 0,0.9 0.7,1 1.5,1 h 6.7 v 2.1 c -3,0 -5.9,0.1 -8.9,0 -1.1,0 -1.9,-0.8 -2,-1.9 -0.1,-2.7 0,-5.4 0,-8.2 z"
   id="path18"
   style="fill:#e9e1d0;fill-opacity:1" />
<path
   class="st0"
   d="m 52.1,73.9 v 2.4 H 46 c -0.4,-0.1 -0.7,-0.1 -1.1,0 -0.4,0.2 -0.7,0.5 -1,0.8 0.4,0.3 0.7,0.8 1.1,0.9 1.8,0.1 3.7,0 5.5,0 h 1.2 v 2 c -0.5,0 -1,0.1 -1.6,0.1 -1.6,0 -3.3,-0.1 -4.9,0 -0.4,0 -0.8,0.5 -1.2,0.8 0.4,0.3 0.8,0.9 1.2,0.9 1.9,0.1 3.8,0.1 5.6,0.1 h 1.3 V 84 c -3,0 -6,0.1 -9,0 -1.1,0 -1.9,-0.8 -2,-1.9 -0.1,-2.7 0,-5.4 0,-8.2 z"
   id="path20"
   style="fill:#e9e1d0;fill-opacity:1" />
<path
   class="st0"
   d="m 152,83.9 h -3.2 v -10 c 0.3,0 0.6,-0.1 1,-0.1 h 9 c 1.6,-0.2 3.1,1 3.3,2.6 0,0.2 0,0.5 0,0.7 0,2.2 0,4.4 0,6.7 h -3.3 v -5.9 c 0,-1.6 -0.2,-1.8 -1.8,-1.8 -1.2,0 -2.4,0 -3.6,0 -1,0 -1.4,0.4 -1.4,1.4 0,2.1 0,4.2 0,6.4 z"
   id="path22"
   style="fill:#e9e1d0;fill-opacity:1" />
<path
   class="st0"
   d="m 219.5,73.9 v 2.3 c -2.4,0 -4.8,0 -7.1,0 -0.7,0 -1.9,-0.3 -1.9,0.8 0,1.1 1.2,0.8 1.9,0.9 1.3,0 2.6,0 3.9,0 1.7,0 3,1.4 3,3 0,1.6 -1.4,3 -3,3 h -8.7 v -2.3 c 2.4,0 4.8,0 7.2,0 0.8,0 2,0.3 2,-0.9 0,-1.2 -1.2,-0.9 -2,-0.9 -1.4,0 -2.8,0 -4.2,0 -1.6,0.1 -3,-1.1 -3.1,-2.7 -0.1,-1.6 1.1,-3 2.7,-3.1 3.1,-0.1 6.1,-0.1 9.3,-0.1 z"
   id="path24"
   style="fill:#e9e1d0;fill-opacity:1" />
<path
   class="st0"
   d="m 192.8,73.9 v 2.3 c -2.5,0 -4.9,0 -7.2,0 -0.7,0 -1.8,-0.3 -1.8,0.8 0,1.1 1,0.9 1.8,0.9 1.4,0 2.8,0 4.2,0 1.7,-0.1 3.1,1.2 3.1,2.9 0,0 0,0.1 0,0.1 0,1.7 -1.3,3 -2.9,3.1 -0.1,0 -0.1,0 -0.2,0 -2.9,0 -5.8,0 -8.8,0 v -2.3 h 4.9 c 1,0.1 2,0.1 3,0 0.5,-0.1 1.3,-0.5 1.3,-0.8 0.1,-0.8 -0.6,-1 -1.3,-1 -1.6,0 -3.3,0 -4.9,0 -1.7,0 -3,-1.3 -3,-3 0,-0.1 0,-0.1 0,-0.2 0.1,-1.4 1.3,-2.6 2.7,-2.7 3,-0.1 6,-0.1 9.1,-0.1 z"
   id="path26"
   style="fill:#e9e1d0;fill-opacity:1" />
<path
   class="st0"
   d="m 16.7,83.9 h -3.3 v -10 c 0.4,0 0.8,-0.1 1.2,-0.1 h 8.9 c 2.2,0 3.3,1.1 3.3,3.3 v 6.7 h -3.2 v -5.7 c 0,-1.9 -0.2,-2 -2,-2 -1.1,0 -2.2,0 -3.4,0 -1.1,0 -1.5,0.5 -1.5,1.5 0.1,2.1 0,4.2 0,6.3 z"
   id="path28"
   style="fill:#e9e1d0;fill-opacity:1" />
<path
   class="st0"
   d="M 104.2,83.9 H 101 V 74 c 0.3,-0.1 0.7,-0.1 1,-0.1 h 9 c 1.6,-0.2 3.1,1 3.3,2.7 0,0.2 0,0.4 0,0.6 0,1.9 0,3.8 0,5.8 0,0.9 -0.2,1.2 -1.2,1.1 -0.7,0 -1.4,0 -2.1,0 v -5.9 c 0,-1.7 -0.2,-1.9 -1.9,-1.9 -1.2,0 -2.4,0 -3.6,0 -1,0 -1.4,0.4 -1.4,1.4 0,1.7 0,3.4 0,5 z"
   id="path30"
   style="fill:#e9e1d0;fill-opacity:1" />
<path
   class="st0"
   d="m 203.1,74 h 3.1 c 0,1.6 0.1,3.1 0,4.6 -0.2,1.2 -1.3,2.1 -2.5,2.1 h -1.9 v 3.2 h -3.4 v -3.2 h -1.7 c -1.4,0.1 -2.7,-1 -2.8,-2.4 0,-0.1 0,-0.3 0,-0.4 V 74 h 3.2 c 0,1 0,2 0,2.9 0,0.9 0.4,1.5 1.4,1.5 1,0 2.2,0 3.2,0 1,0 1.4,-0.5 1.4,-1.5 0,-1 0,-1.9 0,-2.9 z"
   id="path32"
   style="fill:#e9e1d0;fill-opacity:1" />
<path
   class="st0"
   d="m 183.1,87.9 c 0.3,1.2 0.5,2.3 0.8,3.5 h 0.2 l 0.6,-3.5 h 2.6 c -0.3,1.9 -0.5,3.7 -0.8,5.5 -0.3,2.1 -1,2.6 -3.2,2.1 -0.3,-0.1 -0.5,-0.3 -0.6,-0.6 -0.1,-0.6 -0.3,-1.2 -0.6,-1.8 l -0.6,2.4 c -0.3,0 -0.5,0.1 -0.7,0.1 h -2.5 l -0.6,-3.8 c -0.2,-1.3 -0.4,-2.5 -0.6,-3.8 h 2.6 c 0.2,1.3 0.4,2.5 0.5,3.7 h 0.2 l 0.8,-3.7 z"
   id="path34"
   style="fill:#e9e1d0;fill-opacity:1" />
<path
   class="st0"
   d="m 148.4,87.9 c 0.1,2.6 0.3,5 0.4,7.5 h -2.6 c -0.1,-1 -0.1,-2 -0.2,-3 h -0.1 c -0.2,0.7 -0.4,1.4 -0.5,2 -0.1,0.6 -0.4,1.1 -1.2,1.1 -0.8,0 -1.1,-0.3 -1.2,-1 -0.1,-0.7 -0.3,-1.3 -0.7,-1.9 -0.1,0.9 -0.2,1.8 -0.3,2.8 h -2.6 c 0.1,-2.5 0.3,-4.9 0.4,-7.5 h 3.3 l 0.9,3.3 h 0.2 c 0.3,-1.1 0.6,-2.2 0.9,-3.4 z"
   id="path36"
   style="fill:#e9e1d0;fill-opacity:1" />
<path
   class="st0"
   d="m 228.4,83.9 h -3.3 c 0,-2.2 0,-4.4 0,-6.5 0,-1 -0.2,-1.4 -1.3,-1.3 -1.1,0.1 -1.8,0 -2.8,0 v -2.2 h 11.3 v 2.2 c -0.9,0.1 -1.7,0.1 -2.6,0 -1.3,-0.2 -1.6,0.4 -1.5,1.6 0.2,2 0.2,4 0.2,6.2 z"
   id="path38"
   style="fill:#e9e1d0;fill-opacity:1" />
<path
   class="st0"
   d="m 39.6,73.9 v 2.2 c -0.6,0 -1.2,0 -1.8,0 -2.6,0 -2.2,-0.4 -2.3,2.3 0,1.8 0,3.6 0,5.4 h -3.2 c 0,-2.2 0,-4.4 0,-6.6 0,-0.9 -0.2,-1.2 -1.2,-1.2 -1,0 -1.9,0 -2.9,0 v -2.2 z"
   id="path40"
   style="fill:#e9e1d0;fill-opacity:1" />
<path
   class="st0"
   d="M 171.2,83.9 H 168 v -6.1 c 0,-1.6 0,-1.6 -1.6,-1.6 H 164 V 74 h 11.4 v 2.2 c -1,0 -2,0 -3,0 -0.8,0 -1.1,0.3 -1.1,1.1 -0.1,2.1 -0.1,4.3 -0.1,6.6 z"
   id="path42"
   style="fill:#e9e1d0;fill-opacity:1" />
<path
   class="st0"
   d="m 72.4,83.9 c 0,-2.1 0,-4.2 0,-6.3 0,-1.1 -0.2,-1.6 -1.4,-1.4 -0.9,0 -1.8,0 -2.7,0 V 74 h 11.3 v 2.2 c -0.9,0 -1.7,0 -2.6,0 -1.2,-0.1 -1.5,0.4 -1.4,1.5 0.1,2.1 0,4.1 0,6.3 h -3.2 z"
   id="path44"
   style="fill:#e9e1d0;fill-opacity:1" />
<path
   class="st0"
   d="m 156.3,95.6 v -7.7 c 1.6,0 3.1,-0.1 4.6,0 1.2,0.1 1.8,1.1 1.4,2.4 -0.2,0.4 -0.4,0.8 -0.6,1.2 1,0.5 1.5,1.7 1,2.7 -0.3,0.6 -0.8,1.1 -1.4,1.3 -1.8,0.1 -3.4,0.1 -5,0.1 z m 2.5,-1.6 c 0.5,-0.2 0.9,-0.5 1.3,-0.8 0,0 -0.1,-0.6 -0.3,-0.6 -0.3,-0.1 -0.7,-0.1 -1,0 z"
   id="path46"
   style="fill:#e9e1d0;fill-opacity:1" />
<path
   class="st0"
   d="m 83.5,88 v 7.5 H 81.1 V 93 h -1.8 v 2.5 H 76.8 V 88 h 2.5 v 2.5 h 1.8 V 88 Z"
   id="path48"
   style="fill:#e9e1d0;fill-opacity:1" />
<path
   class="st0"
   d="m 131.6,91.7 v -0.5 c 0,-1.3 0.2,-2.6 1.5,-3.2 1.4,-0.7 3.1,-0.7 4.5,0.1 0.5,0.3 0.9,0.8 1,1.4 0.2,1.2 0.3,2.5 0.1,3.8 -0.3,1.8 -1.6,2.5 -4.1,2.3 -1.6,0.1 -2.9,-1.1 -3,-2.7 0,-0.1 0,-0.1 0,-0.2 0.1,-0.2 0.1,-0.6 0,-1 z m 2.7,2 c 0.8,-0.4 1.8,0.4 1.9,-0.9 0.1,-1 0,-2 0,-2.9 -1.9,-0.3 -1.9,-0.2 -1.9,1.4 z"
   id="path50"
   style="fill:#e9e1d0;fill-opacity:1" />
<path
   class="st0"
   d="m 163.6,87.9 c 1.3,0 2.4,0 3.6,0 1.2,0 2.1,0.1 2.6,1.3 0.6,1.1 0.4,2.5 -0.3,3.5 -0.1,0.2 -0.3,0.3 -0.4,0.5 l 1.1,2.3 c -2.1,0.9 -3.1,-0.4 -3.8,-2.2 l -0.3,0.2 -0.1,2.1 h -2.3 v -7.7 z m 2.9,1.7 -0.4,0.3 v 1.3 l 0.3,0.3 1,-0.8 z"
   id="path52"
   style="fill:#e9e1d0;fill-opacity:1" />
<path
   class="st0"
   d="m 89.9,88 2,7.5 h -2.5 c -0.2,-1 -0.8,-1.3 -1.8,-1.1 -0.2,0 -0.5,0.1 -0.5,0.2 -0.4,1.8 -1.8,0.7 -3,1.1 0.4,-1.5 0.7,-2.8 1,-4.1 0,-0.2 0.1,-0.4 0.1,-0.6 0.9,-3.4 0.9,-3.4 4.7,-3 z"
   id="path54"
   style="fill:#e9e1d0;fill-opacity:1" />
<path
   class="st0"
   d="m 126.4,93 v 2.5 H 124 V 88 h 2.3 v 2.5 h 1.9 V 88 h 2.4 v 7.6 h -2.3 l -0.1,-2.5 z"
   id="path56"
   style="fill:#e9e1d0;fill-opacity:1" />
<path
   class="st0"
   d="m 111.6,87.7 -0.3,2.2 h -2.9 v 0.3 c 0.4,0.1 0.8,0.2 1.2,0.3 2,0.3 2.8,1.4 2.4,3.2 -0.2,1 -0.7,1.8 -1.8,1.9 -1.5,0.1 -3,0 -4.6,0 l 0.3,-2.1 h 3.5 l 0.1,-0.3 c -0.4,-0.1 -0.8,-0.2 -1.2,-0.3 -2.2,-0.2 -3.4,-2.2 -2.2,-4.1 0.5,-0.6 1.1,-1 1.8,-1.1 1.1,-0.1 2.4,-0.1 3.7,0 z"
   id="path58"
   style="fill:#e9e1d0;fill-opacity:1" />
<path
   class="st0"
   d="m 104.9,95.4 c -2.3,0.9 -3.2,-0.5 -4,-2.3 v 2.4 H 98.5 V 88 h 2.3 v 2.2 l 0.2,0.1 c 0.4,-0.8 0.6,-1.8 1.2,-2.2 0.6,-0.4 1.6,-0.2 2.7,-0.2 -0.5,1.1 -1,2 -1.4,3 -0.2,0.5 -0.2,1.1 0,1.6 0.5,1 0.9,2 1.4,2.9 z"
   id="path60"
   style="fill:#e9e1d0;fill-opacity:1" />
<path
   class="st0"
   d="m 171.2,87.9 h 5.4 l -0.2,1.7 c -0.9,0.1 -1.8,0.3 -2.6,0.5 0,0.2 0,0.5 0,0.7 l 2.3,0.1 v 1.8 c -0.6,0 -1.2,0 -1.8,0 -0.2,0 -0.4,0.2 -0.6,0.4 0.2,0.2 0.4,0.5 0.6,0.5 0.8,0.1 1.5,0 2.3,0 v 1.9 h -5.5 z"
   id="path62"
   style="fill:#e9e1d0;fill-opacity:1" />
<path
   class="st0"
   d="m 155.2,93.6 v 1.9 h -5.4 V 88 h 5.4 l -0.2,1.8 -2.5,0.1 c -0.3,0.7 -0.1,1 0.6,1 0.5,0 1,0 1.6,0 v 1.8 c -0.6,0 -1.1,0 -1.7,0 -0.2,0 -0.4,0.3 -0.6,0.5 0.2,0.1 0.4,0.4 0.6,0.4 0.6,0 1.3,0 2.2,0 z"
   id="path64"
   style="fill:#e9e1d0;fill-opacity:1" />
<path
   class="st0"
   d="M 95.9,73.8 H 99 v 10.1 h -3.1 z"
   id="path66"
   style="fill:#e9e1d0;fill-opacity:1" />
<path
   class="st0"
   d="m 97.6,88 -0.3,1.6 c -0.1,0.1 -0.2,0.1 -0.2,0.1 -0.8,0.1 -2.1,0 -2.2,0.3 -0.3,1 -0.3,2 -0.2,3 0,0.2 0.4,0.5 0.6,0.5 0.7,0 1.4,0 2.2,-0.1 l 0.2,1.9 c -1.8,0.7 -4.1,0.5 -4.9,-0.5 -1,-1.2 -1.1,-4.5 -0.2,-5.9 0.7,-1.2 2.5,-1.6 5,-0.9 z"
   id="path68"
   style="fill:#e9e1d0;fill-opacity:1" />
<path
   class="st0"
   d="m 118.7,89 v 1.8 l 1.8,0.1 v 1.7 l -1.8,0.1 v 1.8 H 117 l -0.1,-1.8 -1.8,-0.1 v -1.7 l 1.7,-0.1 0.2,-1.8 z"
   id="path70"
   style="fill:#e9e1d0;fill-opacity:1" />
<path
   class="st0"
   d="m 58.1,47.6 c -2.9,0 -5.8,0 -8.6,0 -0.3,0 -0.7,-0.5 -1,-0.9 C 44.3,40.3 40.2,33.8 36,27.4 35.8,27.1 35.6,26.8 35.2,26.2 v 21.4 h -9 v -30 h 1.3 c 2.5,0 5,0 7.4,0 0.6,-0.1 1.2,0.3 1.5,0.8 3.9,6.2 7.8,12.4 11.7,18.5 0.2,0.4 0.5,0.8 1,1.4 V 17.6 h 9 z"
   id="path72"
   style="fill:#e9e1d0;fill-opacity:1" />
<path
   class="st0"
   d="M 199.7,28.4 V 17.6 h 9 v 30 c -0.4,0 -0.9,0.1 -1.3,0.1 -2,0.1 -3.9,0.1 -5.9,-0.1 -2.1,-0.3 -3.9,0.2 -5.9,0.6 -5.9,1.1 -11.3,-2.9 -12.5,-9.3 -0.9,-5.6 2.8,-11 8.4,-12.1 2.3,-0.4 4.7,-0.1 6.7,1 z m -7,9.4 v 4 c 0.1,1.8 0.8,2.6 2.6,2.9 0.6,0.1 1.2,0.1 1.8,0 1.8,-0.2 2.6,-1 2.6,-2.8 0,-2.7 0.1,-5.4 0,-8.1 0,-2.3 -1.4,-3.7 -3.4,-3.7 -2,0 -3.5,1.4 -3.6,3.7 0,1.3 0,2.6 0,4 z"
   id="path74"
   style="fill:#e9e1d0;fill-opacity:1" />
<path
   class="st0"
   d="m 77.9,27.4 h 9 l 0.2,1.9 c 1,-0.5 1.8,-1 2.7,-1.4 5.2,-2.9 11.2,-0.6 14.2,4 0.3,0.5 0.5,1 0.6,1.6 0,4.7 0,9.4 0,14.2 -0.4,0 -0.7,0.1 -1,0.1 -2.4,0 -4.8,0 -7.2,0 -0.9,0 -1.2,-0.2 -1.2,-1.1 0,-4 0,-8.1 0,-12.1 -0.1,-2.1 -1.8,-3.7 -3.9,-3.6 -0.3,0 -0.6,0.1 -0.8,0.1 -0.9,0.3 -1.8,0.7 -2.5,1.3 -0.6,0.5 -0.9,1.2 -1,2 -0.1,4 0,8 0,12 v 1.4 h -9 z"
   id="path76"
   style="fill:#e9e1d0;fill-opacity:1" />
<path
   class="st0"
   d="M 180.2,48.3 H 171 V 35.1 c -0.1,-2.1 -1.9,-3.7 -4.1,-3.6 -0.2,0 -0.5,0 -0.7,0.1 -0.6,0.2 -1.3,0.5 -1.9,0.8 -1.2,0.5 -1.9,1.7 -1.7,3 0.1,3.8 0,7.7 0,11.5 v 1.4 h -9 V 28.1 h 9 l 0.1,1.9 c 1,-0.6 2,-1.1 2.9,-1.6 5.1,-2.5 11.3,-0.6 14.1,4.3 0.3,0.6 0.5,1.3 0.5,1.9 0,4.4 0,8.7 0,13.1 0,0.2 0,0.4 0,0.6 z"
   id="path78"
   style="fill:#e9e1d0;fill-opacity:1" />
<path
   class="st0"
   d="m 225.7,49 c -3,0 -5.9,-0.8 -8.4,-2.5 -6.5,-4.4 -6.6,-12.9 -0.1,-17.4 5.5,-3.6 12.6,-3.4 17.8,0.6 5.3,4.3 5.5,11.3 0.4,15.8 -2.8,2.3 -6.2,3.6 -9.7,3.5 z m -3.6,-11.3 c 0,1.9 0,3.8 0,5.8 -0.1,1.3 0.9,2.5 2.2,2.6 0.1,0 0.1,0 0.2,0 0.7,0.1 1.3,0.1 2,0.1 1.4,0.1 2.5,-1 2.6,-2.4 0,-0.1 0,-0.2 0,-0.3 0,-3.8 0.1,-7.6 0,-11.4 0.1,-1.8 -1.2,-3.3 -3,-3.4 -0.2,0 -0.3,0 -0.5,0 -1.8,-0.1 -3.3,1.3 -3.4,3.1 0,0.1 0,0.3 0,0.4 -0.1,1.8 -0.1,3.7 -0.1,5.5 z"
   id="path80"
   style="fill:#e9e1d0;fill-opacity:1" />
<path
   class="st0"
   d="m 140.3,40.7 h 9.2 c -0.1,0.4 -0.2,0.8 -0.4,1.2 -0.9,1.9 -2.3,3.6 -4.1,4.7 -5.4,3.5 -12.5,3.2 -17.6,-0.8 -5.5,-4.5 -5.4,-11.9 0.2,-16.3 6.2,-4.8 16.1,-3.7 20.5,2.3 1.3,1.6 1.9,3.7 1.8,5.8 h -16.5 c 0,2.2 0,4.4 0,6.6 0,0.3 0.2,0.5 0.3,0.8 0.7,1.1 2.5,1.5 4.4,1 1.3,-0.2 2.2,-1.4 2.1,-2.7 0.1,-0.8 0.1,-1.7 0.1,-2.6 z m -7,-6.5 h 6.9 c 0.1,-1.9 0.3,-3.8 -1.6,-5 -1.2,-0.8 -2.8,-0.8 -3.9,0 -1.8,1.3 -1.4,3.2 -1.4,5 z"
   id="path82"
   style="fill:#e9e1d0;fill-opacity:1" />
<path
   class="st0"
   d="m 119.3,24.6 h 4.7 v 2.7 h -4.6 v 20.2 h -9.3 V 27.3 h -4.7 v -2.8 h 4.7 v -4.2 h 9.3 z"
   id="path84"
   style="fill:#e9e1d0;fill-opacity:1" />
<path
   class="st0"
   d="m 64,27.3 h 8.8 V 47.5 H 64 Z"
   id="path86"
   style="fill:#e9e1d0;fill-opacity:1" />
<path
   class="st0"
   d="m 63.9,23 v -5.4 h 8.9 V 23 Z"
   id="path88"
   style="fill:#e9e1d0;fill-opacity:1" />
</svg>
