<?xml version="1.0" encoding="UTF-8" standalone="no"?>
<!-- Generator: Adobe Illustrator 26.0.3, SVG Export Plug-In . SVG Version: 6.00 Build 0)  -->

<svg
   version="1.1"
   id="Layer_1"
   x="0px"
   y="0px"
   viewBox="0 0 264.00177 36.099998"
   xml:space="preserve"
   sodipodi:docname="pokemini.svg"
   width="264.00177"
   height="36.099998"
   inkscape:version="1.1.2 (b8e25be833, 2022-02-05)"
   xmlns:inkscape="http://www.inkscape.org/namespaces/inkscape"
   xmlns:sodipodi="http://sodipodi.sourceforge.net/DTD/sodipodi-0.dtd"
   xmlns="http://www.w3.org/2000/svg"
   xmlns:svg="http://www.w3.org/2000/svg"><defs
   id="defs21" /><sodipodi:namedview
   id="namedview19"
   pagecolor="#ffffff"
   bordercolor="#666666"
   borderopacity="1.0"
   inkscape:pageshadow="2"
   inkscape:pageopacity="0.0"
   inkscape:pagecheckerboard="0"
   showgrid="false"
   inkscape:zoom="0.55104167"
   inkscape:cx="959.09263"
   inkscape:cy="540.79395"
   inkscape:window-width="2560"
   inkscape:window-height="1387"
   inkscape:window-x="-8"
   inkscape:window-y="-8"
   inkscape:window-maximized="1"
   inkscape:current-layer="Layer_1" />
<style
   type="text/css"
   id="style2">
	.st0{fill:#E9E1D0;}
</style>
<path
   id="path3667"
   class="st0"
   d="m 33.9,12.1 c -2,0 -10.2,0.7 -10.2,11.9 0,12.8 10.7,12 10.7,12 0,0 10.4,-0.1 10.4,-12 0,-11.9 -10.3,-11.9 -10.4,-11.9 -0.1,0 -0.2,0 -0.5,0 z m 0.4,6.1 c 0,0 3.8,-0.6 3.8,5.8 0,5.9 -3.8,5.3 -3.8,5.3 0,0 -4,0 -4,-5.3 0.1,-6.5 4,-5.8 4,-5.8 z"
   style="fill:#e9e1d0;fill-opacity:1" />
<path
   id="path3678"
   class="st0"
   d="m 48.8,2.7 h 6.7 v 18.2 l 5.2,-8.8 h 7.1 L 60.7,22.6 67.8,36 H 60.7 L 55.5,24.9 V 36 h -6.7 z"
   style="fill:#e9e1d0;fill-opacity:1" />
<path
   id="path3711"
   class="st0"
   d="M 71.9,5.9 74.4,9.5 84,3.7 81,0 72,5.9 Z"
   style="fill:#e9e1d0;fill-opacity:1" />
<path
   id="path3727"
   class="st0"
   d="m 92.3,36 h 5.9 V 22.2 c 0,0 0.2,-3.6 3.3,-3.6 3.1,0 3,3.6 3,3.6 V 36 h 5.6 V 22.2 c 0,0 0.1,-3.6 3.2,-3.6 3,0 3,3.6 3,3.6 V 36 h 5.8 V 18.6 c 0,0 0.4,-6.6 -5.8,-6.6 -6.2,0 -6.2,3.9 -6.2,3.9 0,0 0.7,-3.9 -5.6,-3.9 -6.3,0 -6.3,3.9 -6.3,3.9 0,0 0.9,-3.9 -2.5,-3.9 -3.4,0 -3.4,0 -3.4,0 z"
   style="fill:#e9e1d0;fill-opacity:1" />
<path
   id="path3667-1"
   class="st0"
   d="m 136.2,12.1 c -2,0 -10.2,0.7 -10.2,11.9 0,12.8 10.7,12 10.7,12 0,0 10.3,-0.1 10.3,-12 0,-11.9 -10.3,-11.9 -10.4,-11.9 0,0 -0.1,0 -0.4,0 z m 0.4,6.1 c 0,0 3.8,-0.6 3.8,5.8 0,6 -3.8,5.3 -3.8,5.3 0,0 -4,0 -4,-5.3 0,-6.5 4,-5.8 4,-5.8 z"
   style="fill:#e9e1d0;fill-opacity:1" />
<path
   id="path3759"
   class="st0"
   d="m 150.7,36 h 6.4 V 22.2 c 0,0 -0.2,-3.6 3.4,-3.6 3.6,0 3.6,3.6 3.6,3.6 V 36 h 6 V 18.6 c 0,0 0,-6.6 -6,-6.6 -6,0 -7,3.9 -7,3.9 0,0 0.6,-3.9 -1.8,-3.9 -2.4,0 -4.6,0 -4.6,0 z"
   style="fill:#e9e1d0;fill-opacity:1" />
<path
   id="path3775"
   class="st0"
   d="m 185,12.1 h 27.6 c 0,0 2.7,-0.1 2.7,2.5 0,2.7 0,20 0,20 0,0 0.1,1.4 -1.3,1.4 -1.3,0 -4,0 -4,0 0,0 -1.3,0 -1.3,-1.4 0,-1.3 0,-12.4 0,-12.4 0,0 -0.1,-1.6 -1.3,-1.6 -1.2,0 -4,0 -4,0 0,0 -1.3,-0.2 -1.3,1.6 0,1.7 0,12.4 0,12.4 0,0 -0.2,1.4 -1.3,1.4 -1.2,0 -3.8,0 -3.8,0 0,0 -1.5,0.1 -1.5,-1.4 0,-1.5 0,-12.4 0,-12.4 0,0 0.4,-1.6 -1.4,-1.6 -1.8,0 -3.8,0 -3.8,0 0,0 -1.3,-0.2 -1.3,1.6 0,1.7 0,12.4 0,12.4 0,0 0,1.4 -1.3,1.4 -1.3,0 -4,0 -4,0 0,0 -1.2,-0.1 -1.2,-1.4 0,-1.3 0,-20 0,-20 0,0 0,-2.3 2.5,-2.5 z"
   style="fill:#e9e1d0;fill-opacity:1" />
<path
   id="path3787"
   class="st0"
   d="m 225.8,24 c 0,0 1.3,-0.1 1.3,1.3 0,1.4 0,9.4 0,9.4 0,0 -0.1,1.4 -1.2,1.4 -1.1,0 -2.7,0 -2.7,0 0,0 -1.3,0 -1.3,-1.4 0,-1.4 0,-9.4 0,-9.4 0,0 0.1,-1.3 1.4,-1.3 1.1,0 2.4,0 2.5,0 z"
   style="fill:#e9e1d0;fill-opacity:1" />
<path
   id="path3789"
   class="st0"
   d="m 223.1,20 c 0,0 -1.4,0 -1.4,-1.3 0,-1.4 0,-4 0,-4 0,0 0,-1.3 1.4,-1.3 1.4,0 2.6,0 2.6,0 0,0 1.3,0 1.3,1.3 0,1.3 0,4 0,4 0,0 0.1,1.3 -1.2,1.3 -1.4,0 -2.6,-0.1 -2.7,0 z"
   style="fill:#e9e1d0;fill-opacity:1" />
<path
   id="path3807"
   class="st0"
   d="m 233.6,34.6 c 0,0 0,1.4 1.4,1.4 1.3,0 3.9,0 3.9,0 0,0 1.4,-0.1 1.4,-1.4 0,-1.3 0,-12.4 0,-12.4 0,0 0,-1.6 1.3,-1.6 1.3,0 3.9,0 3.9,0 0,0 1.4,-0.2 1.4,1.6 0,1.7 0,12.4 0,12.4 0,0 -0.1,1.4 1.3,1.4 1.4,0 2.7,0 2.7,0 0,0 1.2,-0.1 1.2,-1.4 0,-1.3 0,-18.6 0,-18.6 0,0 0,-2.7 -2.6,-2.7 -2.6,0 -13.1,0 -13.1,0 0,0 -2.7,0 -2.7,2.7 -0.1,2.6 0,18.8 -0.1,18.6 z"
   style="fill:#e9e1d0;fill-opacity:1" />
<path
   id="path3787-7"
   class="st0"
   d="m 262.7,24 c 0,0 1.3,-0.1 1.3,1.3 0,1.4 0,9.4 0,9.4 0,0 -0.1,1.4 -1.2,1.4 -1.1,0 -2.7,0 -2.7,0 0,0 -1.3,0 -1.3,-1.4 0,-1.4 0,-9.4 0,-9.4 0,0 0.1,-1.3 1.4,-1.3 1.2,0 2.4,0 2.5,0 z"
   style="fill:#e9e1d0;fill-opacity:1" />
<path
   id="path3789-4"
   class="st0"
   d="m 260.1,20 c 0,0 -1.4,0 -1.4,-1.3 0,-1.4 0,-4 0,-4 0,0 0,-1.3 1.4,-1.3 1.4,0 2.6,0 2.6,0 0,0 1.3,0 1.3,1.3 0,1.3 0,4 0,4 0,0 0.1,1.3 -1.2,1.3 -1.3,0 -2.7,-0.1 -2.7,0 z"
   style="fill:#e9e1d0;fill-opacity:1" />
<path
   id="path3696"
   class="st0"
   d="m 78.6,12.1 c -7.9,0 -9.7,6.1 -9.7,11.9 0,5.8 3.5,12 10.2,12 6.7,0 7.3,-1.4 7.3,-1.4 v -4 c 0,0 -5.5,0 -8.4,0 -2.9,0 -2.3,-3.9 -2.3,-3.9 h 12.5 v -4.4 c 0.1,0 0.1,-10.2 -9.6,-10.2 z m 0.5,5.2 c 3.3,0 3.4,1.3 3.4,1.3 v 3.6 h -6.7 v -3.6 c -0.1,0 -0.1,-1.3 3.3,-1.3 z"
   style="fill:#e9e1d0;fill-opacity:1" />
<path
   id="path2870"
   class="st0"
   d="M 0,4.5 V 36 H 7.4 V 24.9 h 5.7 c 0,0 7.4,-0.6 7.4,-6.7 v -6.1 c 0,0 0,-7.5 -7.4,-7.5 C 5.8,4.5 0,4.6 0,4.5 Z m 7.4,6.1 c 0,0 2.8,0 3.9,0 2,0.6 1.8,2.7 1.8,2.7 V 16 c 0,2.2 -1.8,2.7 -1.8,2.7 H 7.4 Z"
   style="fill:#e9e1d0;fill-opacity:1" />
</svg>
