<?xml version="1.0" encoding="UTF-8" standalone="no"?>
<!-- Generator: Adobe Illustrator 26.0.3, SVG Export Plug-In . SVG Version: 6.00 Build 0)  -->

<svg
   version="1.1"
   id="Layer_1"
   x="0px"
   y="0px"
   viewBox="0 0 264 49.996849"
   xml:space="preserve"
   sodipodi:docname="sfc.svg"
   width="264"
   height="49.996849"
   inkscape:version="1.1.2 (b8e25be833, 2022-02-05)"
   xmlns:inkscape="http://www.inkscape.org/namespaces/inkscape"
   xmlns:sodipodi="http://sodipodi.sourceforge.net/DTD/sodipodi-0.dtd"
   xmlns="http://www.w3.org/2000/svg"
   xmlns:svg="http://www.w3.org/2000/svg"><defs
   id="defs65" /><sodipodi:namedview
   id="namedview63"
   pagecolor="#ffffff"
   bordercolor="#666666"
   borderopacity="1.0"
   inkscape:pageshadow="2"
   inkscape:pageopacity="0.0"
   inkscape:pagecheckerboard="0"
   showgrid="false"
   inkscape:zoom="0.55104167"
   inkscape:cx="959.09263"
   inkscape:cy="540.79395"
   inkscape:window-width="2560"
   inkscape:window-height="1387"
   inkscape:window-x="-8"
   inkscape:window-y="-8"
   inkscape:window-maximized="1"
   inkscape:current-layer="Layer_1" />
<style
   type="text/css"
   id="style2">
	.st0{fill:#E9E1D0;}
</style>
<g
   transform="scale(0.44,0.44245)"
   id="g60"
   style="fill:#e9e1d0;fill-opacity:1">
	<path
   class="st0"
   d="m 438.7,66.2 h -8.5 V 37.6 c 0,0 21.2,0 31.2,0 5.4,0 9.6,3.8 9.7,9.2 v 19.4 h -8 c 0,0 0,-12.3 0,-17.8 0,-2.6 -1.6,-4.5 -4.2,-4.7 -1.4,-0.1 -2.9,0 -4.5,0 0,7.5 0,22.6 0,22.6 H 446 c 0,0 0,-15.1 0,-22.7 -2.5,0 -4.9,0 -7.5,0 0.2,7.4 0.2,22.6 0.2,22.6 z"
   id="path4"
   style="fill:#e9e1d0;fill-opacity:1" />
	<path
   class="st0"
   d="M 567.5,66.2 H 559 V 37.6 c 0,0 21.2,0 31.2,0 5.4,0 9.6,3.8 9.8,9.2 v 19.4 h -8 c 0,0 0,-12.3 0,-17.8 0,-2.6 -1.6,-4.5 -4.2,-4.7 -1.4,-0.1 -2.9,0 -4.5,0 0,7.5 0,22.6 0,22.6 H 575 c 0,0 0,-15.1 0,-22.7 -2.5,0 -4.9,0 -7.5,0 0,7.4 0,22.6 0,22.6 z"
   id="path6"
   style="fill:#e9e1d0;fill-opacity:1" />
	<path
   class="st0"
   d="m 336.2,55.3 c 2.7,3.6 5.5,7.3 8.3,10.9 -3.2,0 -9.5,0 -9.5,0 l -7.3,-10.6 h -8.1 c 0,0 0,7.1 0,10.6 -2.8,0 -5.6,0 -8.3,0 0,-9.4 0,-19.1 0,-28.7 0.4,0 0.8,0 1.2,0 7.3,0 14.6,0 21.9,0 5.9,0 10.2,5.4 9,11.1 -0.7,3.2 -2.7,5.2 -5.7,6.2 -0.5,0.2 -1,0.3 -1.5,0.5 z m -16.6,-4.8 c 3.7,0 11,0 11,0 0.6,0 1.2,-0.3 1.7,-0.5 1.2,-0.5 2.1,-1.3 2.1,-2.8 0,-1.5 -0.6,-2.7 -2,-3.3 -0.8,-0.3 -1.7,-0.5 -2.6,-0.5 h -10.2 c 0,0 0,4.7 0,7.1 z"
   id="path8"
   style="fill:#e9e1d0;fill-opacity:1" />
	<path
   class="st0"
   d="m 425.5,66.2 h -21.3 c -1.6,0 -3.2,-0.3 -4.7,-0.8 -3.9,-1.2 -6,-4.3 -5.7,-8.3 0.2,-4.1 2.8,-7.2 6.7,-8.1 0.9,-0.2 1.9,-0.3 2.8,-0.3 h 13.6 c 0.4,0 -0.4,0 0,0 0,-3.1 -2.6,-5.7 -5.9,-5.7 h -14.8 v -5.5 h 17.4 c 6.7,0 11.9,5 12.1,11.6 v 17.1 z m -8.4,-12.1 c -3.5,0 -7,0 -10.4,0 -2.2,0 -3.7,1.3 -3.7,3.3 0,1.9 1.4,3.2 3.7,3.2 h 10.5 c -0.1,0 -0.1,-4.2 -0.1,-6.5 z"
   id="path10"
   style="fill:#e9e1d0;fill-opacity:1" />
	<path
   class="st0"
   d="m 174.7,66.2 v -5.6 h 18.7 c 1.7,0 2.8,-0.9 3.2,-2.6 0.3,-1.3 -0.5,-2.5 -2,-3.1 -0.7,-0.3 -1.4,-0.4 -2.2,-0.4 h -11.6 c -4.7,-0.1 -7.5,-2.9 -7.9,-7.9 -0.3,-3.9 2.5,-8.3 6.4,-9.1 0,0 16.7,0 24.6,0 0,1.7 0,4 0,5.8 -0.4,0 -0.8,0 -1.2,0 -5.5,0 -11,0 -16.5,0 -0.5,0 -1,0 -1.6,0.1 -1.3,0.2 -2.3,1 -2.5,2.3 -0.2,1.2 0.3,2.4 1.3,3.1 0.3,0.2 0.8,0.4 1.2,0.4 h 12.5 c 3.1,0.1 6,0.9 7.6,3.9 2.7,5.3 0.6,12.9 -7.4,13 h -22.6 z"
   id="path12"
   style="fill:#e9e1d0;fill-opacity:1" />
	<path
   class="st0"
   d="m 537.4,36.9 c 3.2,0.1 6.3,0.5 9.2,1.8 4,1.9 7.1,4.8 7.9,9.2 1.1,5.6 0.1,10.8 -4.4,14.8 -2.5,2.3 -5.8,3.3 -9.1,3.8 -5.1,0.9 -10,0.1 -14.7,-2.3 -4.3,-2.2 -6.2,-6 -6.7,-10.6 -0.2,-2.3 -0.2,-4.6 0.5,-6.9 1.7,-5.3 5.7,-8 10.8,-9.2 2.3,-0.2 3.5,-0.5 6.5,-0.6 z m 9.3,15 c 0,-0.5 0,-1 -0.1,-1.6 -0.2,-3.9 -2.5,-6.9 -6.1,-7.8 -2.1,-0.6 -4.2,-0.5 -6.3,0 -3,0.6 -5,2.5 -5.9,5.5 -0.7,2.4 -0.7,4.8 -0.3,7.2 0.5,2.8 2.2,4.7 4.9,5.4 1.6,0.5 3.4,0.6 5.1,0.6 5.7,-0.1 8.9,-3.6 8.7,-9.3 z"
   id="path14"
   style="fill:#e9e1d0;fill-opacity:1" />
	<path
   class="st0"
   d="m 306.7,49.1 c 0,1.9 0,3.6 0,5.4 -6.7,0 -13.3,0 -19.9,0 0.1,3.4 2.5,5.9 5.8,5.9 4.3,0 14,0 14,0 v 5.8 h -16.1 c -8,-0.4 -12.9,-6 -12.6,-13.4 0.1,-2.4 0.2,-4.8 1.2,-7.1 2,-5 6.5,-8.1 11.8,-8.1 4.9,0 15.8,0 15.8,0 v 5.8 c 0,0 -10.8,0 -13.5,0 -3.2,0 -5.8,2.4 -6.3,5.7 6.6,0 13.2,0 19.8,0 z"
   id="path16"
   style="fill:#e9e1d0;fill-opacity:1" />
	<path
   class="st0"
   d="m 231.1,60.4 c 0,0 0,-15.3 0,-22.8 2.7,0 5.4,0 8.2,0 0,9.3 0,28.6 0,28.6 h -21.5 c -2.7,0 -4.8,-1 -6.5,-3 -1.6,-1.9 -2.6,-4 -2.5,-6.6 0.2,-5.7 0,-19 0,-19 h 8.2 v 18.3 c -0.1,2.7 1.4,4.3 3.9,4.5 z"
   id="path18"
   style="fill:#e9e1d0;fill-opacity:1" />
	<path
   class="st0"
   d="m 252.2,56.5 c 0,3.3 0,6.5 0,9.7 -2.7,0 -5.3,0 -8,0 0,-9.4 0,-28.6 0,-28.6 h 21.7 c 3.8,-0.1 7.7,2.8 8.9,7 1.7,6.2 -2.7,11.9 -9.1,11.9 -4.1,0 -8.2,0 -12.3,0 -0.4,0 -0.8,0 -1.2,0 z m 0.2,-5.5 h 11 c 0.4,0 0.9,-0.3 1.3,-0.5 1.2,-0.8 2,-3 1.7,-4.2 -0.6,-1.9 -1.8,-2.8 -3.8,-2.8 h -10.2 z"
   id="path20"
   style="fill:#e9e1d0;fill-opacity:1" />
	<path
   class="st0"
   d="m 391.5,37.6 v 5.5 h -14 c -2.4,0.1 -4.4,1.2 -5.8,3.1 -0.5,0.7 -0.8,1.5 -0.8,2.7 6.9,0 13.5,0 20.2,0 0,2.1 0,4 0,6.1 -6.7,0 -13.5,0 -20.3,0 0,3.7 0,7.6 0,11.3 -2.8,0 -8.3,0 -8.3,0 0,0 0,-11.7 0,-16.9 0,-6.1 4.6,-11.5 10.8,-11.7 z"
   id="path22"
   style="fill:#e9e1d0;fill-opacity:1" />
	<path
   class="st0"
   d="m 517.2,60.6 v 5.6 h -15.1 c -6.3,0 -11,-3.7 -12.5,-9.8 -1.2,-4.8 -0.6,-9.6 2.1,-13.7 2.2,-3.4 5.5,-5.2 9.6,-5.2 h 16.1 v 5.7 h -13.7 c -2.7,0 -4.4,1.2 -5.3,3.8 -1,3 -1.2,6.3 -0.2,9.3 0.9,2.8 3,4.3 6,4.3 z"
   id="path24"
   style="fill:#e9e1d0;fill-opacity:1" />
	<path
   class="st0"
   d="m 335.9,92.3 c 0,-1.7 0,-3.4 0,-5.2 6.6,0 13.2,0 19.9,0 0,-2.9 0,-5.7 0,-8.5 -6.5,0 -13,0 -19.6,0 0,-1.7 0,-3.3 0,-4.9 8,0 15.9,0 23.9,0 0,6.2 0,12.4 0,18.7 C 352,92.3 344,92.3 335.9,92.3 Z"
   id="path26"
   style="fill:#e9e1d0;fill-opacity:1" />
	<path
   class="st0"
   d="m 173.6,78.5 c 0,-1.8 0,-3.4 0,-5 6.6,0 13.2,0 19.9,0 0.5,3.6 0.3,7.1 -1,10.5 -0.1,0.3 -0.3,0.9 -0.3,0.9 0,0 3.7,5.2 5.4,7.5 -1.9,0 -5.6,0 -5.6,0 0,0 -1.9,-2.6 -2.6,-3.6 -0.4,0.3 -0.7,0.6 -1.1,0.8 -2.3,1.9 -4.9,2.9 -7.9,2.8 0,0 -4.9,0 -7.5,0 v -5.1 c 0,0 3.5,0 5.2,0 2.2,0 4.4,-0.2 6.5,-1 3.2,-1.3 5.2,-4.2 5,-7.8 -5.3,0 -10.6,0 -16,0 z"
   id="path28"
   style="fill:#e9e1d0;fill-opacity:1" />
	<rect
   x="476.29999"
   y="37.599998"
   class="st0"
   width="8.8000002"
   height="28.700001"
   id="rect30"
   style="fill:#e9e1d0;fill-opacity:1" />
	<path
   class="st0"
   d="m 264.6,92.3 v -5.1 h 10.3 c 4.2,0.2 7.5,-2.4 7.4,-7.6 0,-0.3 0,-0.7 -0.1,-1.1 -6.3,0 -12.5,0 -18.8,0 0,-1.7 0,-3.2 0,-4.9 7.6,0 22.8,0 22.8,0 v 9.2 c 0,0.9 -0.3,1.8 -0.6,2.6 -1.5,4.1 -4.7,6.5 -8.9,6.9 z"
   id="path32"
   style="fill:#e9e1d0;fill-opacity:1" />
	<path
   class="st0"
   d="m 288,82.3 c 0,-1.5 0,-3 0,-4.4 6.7,0 20,0 20,0 v 6.5 c 0,2.6 -1.8,3.7 -9.2,3.7 0,0 -0.1,1.2 -0.3,1.5 -0.8,1.9 -2.3,2.7 -4.5,2.7 h -4.9 c 0,-1.5 0,-3 0,-4.6 1.6,0 3.2,0 4.8,0 1.6,0 2,-0.4 2.3,-2 0.1,-0.5 0.1,-1 0.2,-1.5 2.1,0 4.1,0 6.2,0 1.4,0 1.8,-0.4 1.9,-2 -5.5,0.1 -11,0.1 -16.5,0.1 z"
   id="path34"
   style="fill:#e9e1d0;fill-opacity:1" />
	<path
   class="st0"
   d="m 386.4,73.8 v 10.5 c -0.9,5.9 -6.1,8.1 -10,8 h -13.7 v -5.2 h 14.1 c 2.9,0.1 5.9,-2.6 5.8,-6 0,-2.1 0,-4.3 0,-6.4 0,-0.3 0,-0.6 0,-1 1.3,0.1 2.6,0.1 3.8,0.1 z"
   id="path36"
   style="fill:#e9e1d0;fill-opacity:1" />
	<path
   class="st0"
   d="m 227.1,73.4 c 1.5,0 2.9,0 4.4,0 0,2.1 0,4.1 0,6.2 0,0.4 0,0.8 0,1.2 -0.3,4.8 3.1,6.3 6.2,6.3 0.4,0 0.8,0 1.3,0 0,1.7 0,3.5 0,5.2 -7,0.4 -11.6,-2.7 -11.9,-9.6 -0.1,-2.7 0,-5.4 0,-8.1 0,-0.4 0,-0.8 0,-1.2 z"
   id="path38"
   style="fill:#e9e1d0;fill-opacity:1" />
	<polygon
   class="st0"
   points="310.1,78.9 333.6,81.7 333.6,86.4 310.1,83.5 "
   id="polygon40"
   style="fill:#e9e1d0;fill-opacity:1" />
	<polygon
   class="st0"
   points="310.1,72.7 333.6,75.5 333.6,80.2 310.1,77.3 "
   id="polygon42"
   style="fill:#e9e1d0;fill-opacity:1" />
	<path
   class="st0"
   d="m 333.7,88 c 0,1.6 0,3.1 0,4.7 -7.9,-1 -15.7,-2 -23.5,-3 0,-1.4 0,-3.1 0,-4.6 7.7,0.9 15.6,2.1 23.5,2.9 z"
   id="path44"
   style="fill:#e9e1d0;fill-opacity:1" />
	<path
   class="st0"
   d="m 213.4,92.2 c 0,-1.8 0,-3.5 0,-5.1 1,-0.1 2,-0.1 3,-0.2 2.9,-0.5 4.5,-2.4 4.5,-5.3 0,-2.6 0,-5.2 0,-7.8 1.4,0 2.8,0 4.4,0 0,2.1 0,4.2 0,6.3 0,1.4 0,2.9 -0.2,4.2 -1,4.9 -3.9,7.3 -9,7.8 -0.9,0 -1.8,0 -2.7,0.1 z"
   id="path46"
   style="fill:#e9e1d0;fill-opacity:1" />
	<path
   class="st0"
   d="m 213.7,80.5 c 0,1.6 0,3.2 0,4.8 -6,0 -12,0 -18,0 0,-1.6 0,-3.2 0,-4.8 6,0 11.9,0 18,0 z"
   id="path48"
   style="fill:#e9e1d0;fill-opacity:1" />
	<path
   class="st0"
   d="m 239.2,80.3 c 6.1,0 12,0 18,0 0,1.6 0,3.1 0,4.7 -6,0 -12,0 -18,0 0,-1.5 0,-3.1 0,-4.7 z"
   id="path50"
   style="fill:#e9e1d0;fill-opacity:1" />
	<path
   class="st0"
   d="m 376.9,73.7 c 0,1.6 0,3.4 0,4.9 -4.7,0 -9.4,0 -14.2,0 0,-1.5 0,-3.3 0,-4.9 4.7,0 9.4,0 14.2,0 z"
   id="path52"
   style="fill:#e9e1d0;fill-opacity:1" />
	<path
   class="st0"
   d="m 239.4,76.7 c 0,1.9 -1.6,3.5 -3.5,3.5 -1.9,0 -3.4,-1.6 -3.4,-3.4 0,-1.9 1.5,-3.5 3.4,-3.5 1.9,-0.1 3.5,1.4 3.5,3.4 z m -2.1,-0.1 c 0,-0.8 -0.7,-1.5 -1.5,-1.5 -0.8,0 -1.5,0.8 -1.4,1.6 0.1,0.9 0.7,1.4 1.5,1.3 0.8,0 1.3,-0.6 1.4,-1.4 z"
   id="path54"
   style="fill:#e9e1d0;fill-opacity:1" />
	<path
   id="path2842"
   class="st0"
   d="M 68.4,68.9 C 68.4,78.3 53.1,86 34.2,86 15.3,86 0,78.3 0,68.9 c 0,0 0,0 0,0 0,-9.4 15.3,-17.1 34.2,-17.1 18.9,0 34.2,7.6 34.2,17.1 0,0 0,0 0,0 z"
   style="fill:#e9e1d0;fill-opacity:1" />
	<path
   id="path3624"
   class="st0"
   d="m 127.4,95.9 c 0,9.4 -15.3,17.1 -34.2,17.1 C 74.3,113 59,105.3 59,95.9 c 0,0 0,0 0,0 0,-9.5 15.3,-17.1 34.2,-17.1 18.8,0 34.2,7.6 34.2,17.1 0,0 0,0 0,0 z"
   style="fill:#e9e1d0;fill-opacity:1" />
	<path
   id="path3644"
   class="st0"
   d="M 69.7,0 C 52.4,0 38.4,13.8 38,31 c 0.7,-0.1 1.4,-0.1 2.2,-0.1 17.5,0 31.7,14.2 31.7,31.7 0,0.3 0,0.5 0,0.8 C 88.4,62.3 101.4,48.6 101.4,31.8 101.4,14.2 87.2,0 69.7,0 Z"
   style="fill:#e9e1d0;fill-opacity:1" />
	<path
   id="path3897"
   class="st0"
   d="M 129.7,27.8 C 112.2,27.8 98,42 98,59.5 c 0,0.4 0,0.8 0,1.2 0.4,0 0.8,0 1.3,0 17.1,0 31,13.6 31.7,30.5 16.9,-0.7 30.4,-14.6 30.4,-31.7 0,-17.5 -14.2,-31.7 -31.7,-31.7 z"
   style="fill:#e9e1d0;fill-opacity:1" />
</g>
</svg>
