<?xml version="1.0" encoding="UTF-8" standalone="no"?>
<!-- Generator: Adobe Illustrator 26.0.3, SVG Export Plug-In . SVG Version: 6.00 Build 0)  -->

<svg
   version="1.1"
   id="Ebene_1"
   x="0px"
   y="0px"
   viewBox="0 0 263.99722 65.067757"
   xml:space="preserve"
   sodipodi:docname="snes.svg"
   width="263.99722"
   height="65.067757"
   inkscape:version="1.1.2 (b8e25be833, 2022-02-05)"
   xmlns:inkscape="http://www.inkscape.org/namespaces/inkscape"
   xmlns:sodipodi="http://sodipodi.sourceforge.net/DTD/sodipodi-0.dtd"
   xmlns="http://www.w3.org/2000/svg"
   xmlns:svg="http://www.w3.org/2000/svg"><defs
   id="defs10" /><sodipodi:namedview
   id="namedview8"
   pagecolor="#ffffff"
   bordercolor="#666666"
   borderopacity="1.0"
   inkscape:pageshadow="2"
   inkscape:pageopacity="0.0"
   inkscape:pagecheckerboard="0"
   showgrid="false"
   inkscape:zoom="0.55104167"
   inkscape:cx="959.09263"
   inkscape:cy="540.79395"
   inkscape:window-width="2560"
   inkscape:window-height="1387"
   inkscape:window-x="-8"
   inkscape:window-y="-8"
   inkscape:window-maximized="1"
   inkscape:current-layer="Ebene_1" />
<style
   type="text/css"
   id="style2">
	.st0{fill:#E9E1D0;}
</style>
<g
   transform="matrix(0.44,0,0,0.439647,0,0.0439647)"
   id="g5"
   style="fill:#e9e1d0;fill-opacity:1">
	<path
   id="polyline2177"
   class="st0"
   d="M 29.2,0 C 23.6,0 18.1,4.6 17.1,10.4 l -4,20 c -0.1,2.5 0.2,5.9 1,6.6 1,5.5 19.5,31.2 18.9,35.1 -0.5,3.9 -2.7,15.4 -2.7,15.4 -0.7,3.9 -3.3,7 -7.2,7 -3.9,0 -6.5,-3.1 -5.9,-7 L 20.7,68.4 H 7 L 2.4,94.9 c -0.9,5.4 2.7,9.7 8.1,9.7 h 19.7 c 5.4,0 10.6,-4.3 11.6,-9.7 0,0 5.1,-24.8 5,-26.5 0,-1.8 -0.5,-2 -0.5,-2 0,-2 -16.4,-29.1 -18.1,-30.1 C 27.5,35.9 26.9,33.2 26.9,31.6 26.8,29.9 29,19 29,19 c 0.7,-3.9 4.3,-7 8.2,-7 3.9,0 5.5,3.1 4.8,7 L 39,36.2 H 53 L 57.8,10.4 C 58.9,4.6 55.2,0 49.6,0 Z M 67.1,0 50.6,94.9 c -0.9,5.4 2.7,9.7 8.1,9.7 h 19.7 c 5.4,0 10.7,-4.3 11.7,-9.7 L 107.7,0 H 95.4 L 78.6,92.2 c -0.2,1.3 -1.5,2.5 -2.9,2.5 h -9.8 c -1.4,0 -2.3,-1.1 -2.1,-2.5 L 80.2,0 Z m 47.3,0 -19.9,104.5 h 13.2 l 9.1,-47.3 h 16.8 c 5.5,0 10.6,-4.3 11.6,-9.7 l 7.2,-37.1 C 153.5,4.6 149.8,0 144.2,0 h -16.6 z m 47,0 -20.6,104.5 h 29.6 l 2.1,-13 h -14.6 l 6,-35.3 h 14.6 l 2.1,-10.9 H 166 l 6.5,-32.4 H 187 l 2.1,-13 H 161.4 Z M 196.8,0 177,104.5 h 13.2 l 9,-47.3 h 9.4 c 1.2,1.1 1.4,3.3 1.5,4.3 0.2,1.5 0.5,3.5 0.3,5 -0.2,1.5 -7.2,38 -7.2,38 h 13.2 c 0,0 7.4,-39.7 7.4,-40.3 0,-0.6 0,-2.7 -0.7,-3.8 -0.5,-0.7 -1.3,-2.4 -2.3,-3 -1.8,-1.2 -3.9,-2 -3.9,-2 H 216 c 3.8,-1.5 10.9,-3.9 11.6,-7.9 l 7.2,-37.1 C 235.9,4.6 232.2,0 226.6,0 Z m 70.5,0 -19.9,104.5 h 15.1 l 12.2,-60.6 4.8,60.6 h 13.2 L 312.7,0 H 297.6 L 287.3,54.6 280.5,0 Z m 52.3,0 -19.9,104.5 h 13.2 L 332.7,0 Z m 20,0 -19.9,104.5 H 335 l 12.2,-60.6 4.8,60.6 h 13.2 L 385.1,0 H 369.9 L 359.7,54.6 352.9,0 Z m 51,0 -2.5,13 h 8.2 L 380,104.6 h 15 L 411.7,13 h 7.9 l 2.1,-13 z m 36.3,0 -20.6,104.5 h 29.6 l 2.1,-13 h -14.6 l 6.1,-35.3 H 444 l 2.1,-10.9 h -14.6 l 6.4,-32.4 h 14.6 l 2.1,-13 h -27.7 z m 33.4,0 -19.9,104.5 h 15.2 l 12.2,-60.6 4.8,60.6 h 13.2 L 505.8,0 H 490.6 L 480.4,54.6 473.6,0 Z m 52.4,0 -19.9,104.5 h 30 c 5.5,0 10.7,-4.3 11.7,-9.7 l 15.9,-84.5 c 1.1,-5.8 -2.6,-10.4 -8.2,-10.4 h -29.5 z m 56.5,0 c -5.6,0 -11,4.6 -12,10.4 l -14.7,84.5 c -1,5.4 2.6,9.7 8,9.7 h 21.7 c 5.4,0 10.7,-4.3 11.7,-9.7 L 599.8,10.4 C 600.9,4.7 597.2,0 591.6,0 Z m -45.3,12 h 6.1 c 3.9,0 6.5,3.1 5.9,7 l -13,68.4 c -0.7,3.9 -4.4,7.1 -8.3,7.1 h -6 z m 53,0 h 0.4 c 3.9,0 6.4,3.1 5.8,7 l -12.3,68.4 c -0.7,3.9 -4.3,7.1 -8.1,7.1 -3.9,0 -5.5,-3.2 -4.8,-7.1 L 570,19 l 0.1,-0.3 0.1,-0.3 0.1,-0.4 0.1,-0.3 0.1,-0.4 0.1,-0.3 0.1,-0.3 0.2,-0.3 0.1,-0.4 0.2,-0.3 0.1,-0.3 0.2,-0.3 0.2,-0.2 0.2,-0.3 0.2,-0.3 0.3,-0.2 0.2,-0.2 0.2,-0.2 0.3,-0.2 0.3,-0.2 0.2,-0.2 0.3,-0.2 0.3,-0.1 0.3,-0.2 0.2,-0.1 0.4,-0.1 0.3,-0.1 h 0.3 l 0.3,-0.1 h 0.4 z m -449.8,0.5 h 6.4 c 1.4,0 4.4,3.2 4.1,4.6 l -5.5,25.8 c -0.3,1.3 -2.1,4.4 -3.4,4.4 l -7.8,0.1 -1.3,-0.6 c 0,0 -0.9,-1.2 -0.6,-2 l 6.2,-31.6 c 0.5,-0.4 1.2,-0.7 1.9,-0.7 z m 82,0 h 0.1 0.1 0.1 0.1 6 c 1.4,0 4.4,3.2 4.1,4.6 l -5.5,25.7 c -0.2,1.3 -3.6,4.5 -4.9,4.5 h -5.7 c -1.2,0 -2,-0.8 -2.1,-1.8 0,-0.2 0,-0.4 0,-0.6 l 6.1,-31.6 0.1,-0.1 0.1,-0.1 0.2,-0.1 h 0.1 l 0.1,-0.1 0.1,-0.1 h 0.1 l 0.1,-0.1 h 0.1 l 0.2,-0.1 h 0.1 0.1 0.1 l 0.1,-0.1 z M 0,113.6 v 34.3 h 587.3 v -34.3 z m 431.7,3.6 v 0 h 0.2 0.1 0.1 0.1 4.5 c 1.2,0 2.1,1 1.9,2.3 l -1.1,5.8 h -2.8 l 0.6,-3.8 c 0.1,-0.9 -0.4,-1.5 -1.2,-1.5 -0.9,0 -1.7,0.7 -1.9,1.5 l -0.5,2.8 c -0.1,0.2 0.2,0.9 0.3,1 0.4,0.2 4,6.2 4,6.7 0.1,0.2 0.1,0.3 0.1,0.4 -0.1,0.8 -1.1,5.9 -1.1,5.9 -0.2,1.2 -1.4,2.2 -2.6,2.2 h -4.3 c -1.2,0 -2,-1 -1.7,-2.2 l 1,-5.9 h 3 l -0.7,4.2 c -0.1,0.9 0.4,1.6 1.2,1.6 0.8,0 1.7,-0.8 1.9,-1.6 l 0.6,-3.4 c -0.6,-1.4 -4.2,-6.6 -4.4,-7.8 -0.2,-0.1 -0.2,-0.9 -0.2,-1.4 0,-0.6 0.8,-4.4 0.8,-4.4 h 0.1 v -0.1 -0.1 -0.1 l 0.1,-0.2 V 119 l 0.1,-0.1 v -0.1 l 0.1,-0.1 v -0.1 l 0.1,-0.1 0.1,-0.1 v -0.1 h 0.1 l 0.1,-0.1 0.1,-0.1 0.1,-0.1 v -0.1 h 0.1 l 0.1,-0.1 0.1,-0.1 h 0.1 l 0.1,-0.1 h 0.1 l 0.1,-0.1 h 0.1 0.2 z m 23.7,0 h 3.7 l 0.5,8.7 4.7,-8.7 h 3.7 l -7.6,13.4 -1.9,9.8 h -3.3 l 1.6,-10.5 z m 33.6,0 v 0 h 0.2 0.1 0.1 0.1 4.5 c 1.2,0 2.1,1 1.9,2.3 l -1.1,5.8 H 492 l 0.6,-3.8 c 0.1,-0.9 -0.4,-1.5 -1.2,-1.5 -0.9,0 -1.7,0.7 -1.9,1.5 l -0.5,2.8 c -0.1,0.2 0.1,0.9 0.3,1 0.4,0.2 4,6.2 4,6.7 0.1,0.2 0.1,0.3 0.1,0.4 -0.1,0.8 -1,5.9 -1,5.9 -0.2,1.2 -1.4,2.2 -2.6,2.2 h -4.4 c -1.2,0 -2,-1 -1.8,-2.2 l 1,-5.9 h 3 l -0.7,4.2 c -0.1,0.9 0.4,1.6 1.2,1.6 0.9,0 1.7,-0.8 1.9,-1.6 l 0.6,-3.4 c -0.6,-1.4 -4.2,-6.6 -4.4,-7.8 -0.2,-0.1 -0.2,-0.9 -0.2,-1.4 0,-0.6 0.8,-4.4 0.8,-4.4 l 0.1,-0.1 v -0.1 -0.1 l 0.1,-0.2 V 119 l 0.1,-0.1 v -0.1 l 0.1,-0.1 v -0.1 l 0.1,-0.1 0.1,-0.1 v -0.1 h 0.1 l 0.1,-0.1 0.1,-0.1 0.1,-0.1 0.1,-0.1 0.1,-0.1 0.1,-0.1 h 0.1 l 0.1,-0.1 h 0.1 l 0.1,-0.1 h 0.1 0.2 z m 24,0 h 6.9 l -0.5,2.8 h -1.8 l -3.6,20.4 h -3.4 l 3.6,-20.4 h -1.7 z m 26.9,0 h 6.2 l -0.5,2.8 h -3.2 l -1.4,7.3 h 3.3 l -0.5,2.4 h -3.2 l -1.3,7.8 h 3.2 l -0.4,2.9 h -6.6 z m 25.4,0 h 3.8 l 0.6,13.4 5.9,-13.3 3.7,-0.1 -3.9,23.1 h -2.9 l 1.8,-12.2 -5.1,12.2 h -2.1 l -0.6,-12.6 -2.3,12.6 h -3.4 z M 12.8,118 h 6.1 l -0.4,2.9 h -3.3 l -1.3,7.2 H 17 l -0.4,2.5 h -3.3 l -1.2,7.8 h 3.2 l -0.5,2.9 H 8.1 Z m 28.4,0 H 44 l 1.5,12.1 2.3,-12.1 h 3.4 l -4.4,23.2 h -2.9 l -1.1,-13.5 -2.7,13.5 h -3.4 z m 30.8,0 h 6.8 l -0.4,2.9 h -1.8 l -3.7,20.4 h -3.3 l 3.6,-20.4 h -1.9 z m 30,0 h 6.2 l -0.5,2.9 h -3.2 l -1.4,7.2 h 3.2 l -0.4,2.5 h -3.2 l -1.3,7.8 h 3.2 l -0.4,2.9 h -6.6 z m 29,0 h 6.6 c 1.2,0 2,1.1 1.7,2.4 l -1.5,8.2 c -0.2,0.9 -1.7,1.6 -2.6,2 h 0.2 0.1 0.1 v 0.1 h 0.1 0.1 0.1 0.1 l 0.1,0.1 h 0.1 0.1 0.1 v 0.1 h 0.1 0.1 v 0.1 h 0.1 c 0.1,0.2 0.2,1 0.2,1.1 0,0.1 -1.7,9.2 -1.7,9.2 h -3 c 0,0 1.6,-8.1 1.6,-8.4 0,-0.4 0,-0.8 -0.1,-1.1 0,-0.2 0,-0.7 -0.3,-0.9 h -2.1 l -2,10.5 h -3 z m 29.4,0 h 6.9 l -0.4,2.9 h -1.7 l -3.7,20.4 h -3.3 l 3.6,-20.4 h -1.9 z m 34.3,0 h 3.9 l -1.2,23.2 h -3.9 l 0.5,-5.4 h -2.4 l -2,5.4 h -3.5 z m 27.3,0 h 3 l -4.4,23.2 h -2.9 z m 26.6,0 h 2.9 l 1.5,12.1 2.3,-12.1 h 3.3 l -4.3,23.2 h -3 l -1,-13.5 -2.7,13.5 h -3.4 z m 34,0 h 3.8 l 0.6,13.5 5.9,-13.4 h 3.7 l -3.9,23.1 h -2.9 l 1.9,-12.2 -5.1,12.2 h -2.1 l -0.6,-12.5 -2.3,12.5 h -3.3 z m 37.4,0 h 6.1 l -0.4,2.9 h -3.3 l -1.3,7.2 h 3.2 l -0.4,2.5 h -3.3 l -1.3,7.8 h 3.3 l -0.5,2.9 h -6.5 z m 29.8,0 h 2.9 l 1.5,12.1 2.3,-12.1 h 3.3 l -4.3,23.2 h -2.9 l -1.1,-13.5 -2.7,13.5 h -3.4 z m 30.6,0 h 6.9 l -0.5,2.9 H 385 l -3.6,20.4 h -3.3 l 3.6,-20.4 h -1.9 z m -246.7,2.8 c -0.2,0 -0.3,0.1 -0.4,0.2 l -1.3,7 c 0,0.1 0,0 0,0.1 0,0.2 0.2,0.4 0.4,0.4 h 1.2 c 0.3,0 1.1,-0.6 1.1,-0.9 l 1.1,-5.8 c 0.1,-0.3 -0.5,-1 -0.8,-1 z m 61,7 -2.2,5.9 h 1.6 z"
   style="fill:#e9e1d0;fill-opacity:1" />
</g>
</svg>
