<?xml version="1.0" encoding="UTF-8" standalone="no"?>
<!-- Generator: Adobe Illustrator 26.0.3, SVG Export Plug-In . SVG Version: 6.00 Build 0)  -->

<svg
   version="1.1"
   id="Layer_1"
   x="0px"
   y="0px"
   viewBox="0 0 264 95.099998"
   xml:space="preserve"
   sodipodi:docname="snesmsu1.svg"
   width="264"
   height="95.099998"
   inkscape:version="1.1.2 (b8e25be833, 2022-02-05)"
   xmlns:inkscape="http://www.inkscape.org/namespaces/inkscape"
   xmlns:sodipodi="http://sodipodi.sourceforge.net/DTD/sodipodi-0.dtd"
   xmlns="http://www.w3.org/2000/svg"
   xmlns:svg="http://www.w3.org/2000/svg"><defs
   id="defs25" /><sodipodi:namedview
   id="namedview23"
   pagecolor="#ffffff"
   bordercolor="#666666"
   borderopacity="1.0"
   inkscape:pageshadow="2"
   inkscape:pageopacity="0.0"
   inkscape:pagecheckerboard="0"
   showgrid="false"
   inkscape:zoom="0.55104167"
   inkscape:cx="959.09263"
   inkscape:cy="540.79395"
   inkscape:window-width="2560"
   inkscape:window-height="1387"
   inkscape:window-x="-8"
   inkscape:window-y="-8"
   inkscape:window-maximized="1"
   inkscape:current-layer="Layer_1" />
<style
   type="text/css"
   id="style2">
	.st0{fill-rule:evenodd;clip-rule:evenodd;fill:#E9E1D0;}
	.st1{fill:#E9E1D0;}
</style>
<path
   id="path3758"
   class="st0"
   d="M 61.9,0 0,62 H 16.5 L 57.7,20.7 V 62 H 66 L 107.2,20.7 V 62 h 12.4 V 0 h -8.2 L 70.1,41.3 V 0 Z m 80.4,0 c -10.3,0 -18.6,8.3 -18.6,18.6 0,10.3 8.3,18.6 18.6,18.6 h 16.5 c 3.4,0 6.2,2.8 6.2,6.2 0,3.4 -2.8,6.2 -6.2,6.2 H 123.7 V 62 h 35.1 c 10.2,0 18.6,-8.3 18.6,-18.6 0,-10.3 -8.3,-18.6 -18.6,-18.6 h -16.5 c -3.4,0 -6.2,-2.8 -6.2,-6.2 0,-3.4 2.8,-6.2 6.2,-6.2 h 35.1 V 0 Z m 39.2,0 v 43.4 c 0,10.3 8.3,18.6 18.6,18.6 h 16.5 c 10.2,0 18.6,-8.3 18.6,-18.6 V 0 h -12.4 v 43.4 c 0,3.4 -2.8,6.2 -6.2,6.2 h -16.5 c -3.4,0 -6.2,-2.8 -6.2,-6.2 V 0 Z m 74.3,0 -16.5,16.5 v 8.3 h 12.4 V 62 H 264 V 0 Z"
   style="fill:#e9e1d0;fill-opacity:1" />
<path
   id="path3798"
   class="st1"
   d="m 0,66.1 v 8.3 h 264 v -8.3 z"
   style="fill:#e9e1d0;fill-opacity:1" />
<path
   id="path3806"
   class="st1"
   d="M 17.1,78.2 H 12 l -3,13 -3.1,-13 H 0.8 V 94.5 H 4 V 80.7 l 3.1,13.9 h 3.5 l 3.2,-13.9 v 13.9 h 3.3 V 78.2"
   style="fill:#e9e1d0;fill-opacity:1" />
<path
   id="path3808"
   class="st1"
   d="M 32.9,78.2 H 20.5 V 94.5 H 33.3 V 91.6 H 24 v -4.2 h 8.3 V 84.5 H 24 v -3.4 h 9 v -2.9"
   style="fill:#e9e1d0;fill-opacity:1" />
<path
   id="path3810"
   class="st1"
   d="m 36.2,94.6 h 7.3 c 1.9,0 3.5,-0.6 4.6,-1.7 1.6,-1.6 2.4,-4 2.4,-6.8 0,-5 -2.5,-7.8 -6.9,-7.8 H 36.1 V 94.6 M 39.6,81 H 43 c 1.1,0 2,0.3 2.6,0.9 0.9,0.8 1.3,2.3 1.3,4.3 0,3.6 -1.4,5.6 -3.9,5.6 H 39.6 V 81"
   style="fill:#e9e1d0;fill-opacity:1" />
<path
   id="path3812"
   class="st1"
   d="m 56.4,78.2 h -3.5 v 16.3 h 3.5 V 78.2"
   style="fill:#e9e1d0;fill-opacity:1" />
<path
   id="path3814"
   class="st1"
   d="m 63.3,91.2 h 6.2 l 1.1,3.4 h 3.8 l -6,-16.3 h -4.1 l -6,16.3 H 62 l 1.3,-3.4 m 3.1,-9.4 2.1,6.6 h -4.3 l 2.2,-6.6"
   style="fill:#e9e1d0;fill-opacity:1" />
<path
   id="path3816"
   class="st1"
   d="M 95.7,78.2 H 83.2 V 94.5 H 96 v -2.9 h -9.4 v -4.2 h 8.3 v -2.9 h -8.3 v -3.4 h 9 v -2.9"
   style="fill:#e9e1d0;fill-opacity:1" />
<path
   id="path3818"
   class="st1"
   d="m 109.3,89.7 -6.8,-11.5 h -3.7 v 16.3 h 3.3 V 82.8 l 7,11.7 h 3.5 V 78.2 h -3.3 v 11.5"
   style="fill:#e9e1d0;fill-opacity:1" />
<path
   id="path3820"
   class="st1"
   d="m 125.9,87.2 v 7.4 h 3.5 V 78.2 h -3.5 v 6.2 h -6.6 v -6.2 h -3.5 v 16.3 h 3.5 v -7.4 h 6.6"
   style="fill:#e9e1d0;fill-opacity:1" />
<path
   id="path3822"
   class="st1"
   d="m 136.5,91.2 h 6.2 l 1.1,3.4 h 3.8 l -6,-16.3 h -4.1 l -6,16.3 h 3.7 l 1.3,-3.4 m 3.1,-9.4 2.1,6.6 h -4.3 l 2.2,-6.6"
   style="fill:#e9e1d0;fill-opacity:1" />
<path
   id="path3824"
   class="st1"
   d="m 160.2,89.7 -6.8,-11.5 h -3.7 V 94.5 H 153 V 82.8 l 7,11.7 h 3.5 V 78.2 h -3.3 v 11.5"
   style="fill:#e9e1d0;fill-opacity:1" />
<path
   id="path3826"
   class="st1"
   d="m 181.1,83.6 c -0.2,-1.3 -0.4,-2 -1.1,-2.9 -1.3,-1.8 -3.5,-2.9 -6.2,-2.9 -4.8,0 -7.8,3.3 -7.8,8.7 0,5.3 3,8.6 7.7,8.6 2.2,0 4.1,-0.7 5.4,-2.1 1,-1 1.4,-2 1.9,-3.9 h -3.5 c -0.3,0.9 -0.4,1.3 -0.8,1.8 -0.7,0.8 -1.7,1.3 -2.9,1.3 -2.6,0 -4.2,-2.1 -4.2,-5.6 0,-3.6 1.6,-5.7 4.3,-5.7 1.2,0 2.2,0.4 2.8,1.1 0.4,0.5 0.6,0.8 0.8,1.7 h 3.6"
   style="fill:#e9e1d0;fill-opacity:1" />
<path
   id="path3828"
   class="st1"
   d="m 196.2,78.2 h -12.4 v 16.3 h 12.8 v -2.9 h -9.4 v -4.2 h 8.3 v -2.9 h -8.3 v -3.4 h 9 v -2.9"
   style="fill:#e9e1d0;fill-opacity:1" />
<path
   id="path3830"
   class="st1"
   d="m 215.7,78.2 h -5.1 l -3,13 -3.1,-13 h -5.1 v 16.3 h 3.3 V 80.7 l 3.1,13.9 h 3.5 l 3.2,-13.9 v 13.9 h 3.3 V 78.2"
   style="fill:#e9e1d0;fill-opacity:1" />
<path
   id="path3832"
   class="st1"
   d="m 231.5,78.2 h -12.4 v 16.3 h 12.8 v -2.9 h -9.4 v -4.2 h 8.3 v -2.9 h -8.3 v -3.4 h 9 v -2.9"
   style="fill:#e9e1d0;fill-opacity:1" />
<path
   id="path3834"
   class="st1"
   d="m 245.1,89.7 -6.8,-11.5 h -3.7 v 16.3 h 3.3 V 82.8 l 7,11.7 h 3.5 V 78.2 h -3.3 v 11.5"
   style="fill:#e9e1d0;fill-opacity:1" />
<path
   id="path3836"
   class="st1"
   d="m 258.9,81.1 h 5.1 v -2.9 h -13.7 v 2.9 h 5.1 v 13.5 h 3.5 V 81.1"
   style="fill:#e9e1d0;fill-opacity:1" />
</svg>
