<?xml version="1.0" encoding="UTF-8" standalone="no"?>
<!-- Generator: Adobe Illustrator 26.0.3, SVG Export Plug-In . SVG Version: 6.00 Build 0)  -->

<svg
   version="1.1"
   id="Layer_1"
   x="0px"
   y="0px"
   viewBox="0 0 264 73.099998"
   xml:space="preserve"
   sodipodi:docname="sufami.svg"
   width="264"
   height="73.099998"
   inkscape:version="1.1.2 (b8e25be833, 2022-02-05)"
   xmlns:inkscape="http://www.inkscape.org/namespaces/inkscape"
   xmlns:sodipodi="http://sodipodi.sourceforge.net/DTD/sodipodi-0.dtd"
   xmlns="http://www.w3.org/2000/svg"
   xmlns:svg="http://www.w3.org/2000/svg"><defs
   id="defs73" /><sodipodi:namedview
   id="namedview71"
   pagecolor="#ffffff"
   bordercolor="#666666"
   borderopacity="1.0"
   inkscape:pageshadow="2"
   inkscape:pageopacity="0.0"
   inkscape:pagecheckerboard="0"
   showgrid="false"
   inkscape:zoom="0.55104167"
   inkscape:cx="959.09263"
   inkscape:cy="540.79395"
   inkscape:window-width="2560"
   inkscape:window-height="1387"
   inkscape:window-x="-8"
   inkscape:window-y="-8"
   inkscape:window-maximized="1"
   inkscape:current-layer="Layer_1" />
<style
   type="text/css"
   id="style2">
	.st0{fill:#E9E1D0;}
</style>
<path
   class="st0"
   d="m 224.7,0.4 c 0,0.3 -0.3,0.4 -1.4,0.4 -1.2,0 -1.4,0.1 -1.4,0.5 0,0.5 0.2,0.5 1.9,0.5 1.4,0 1.9,-0.1 1.9,-0.3 0,-0.2 0.1,-0.6 0.2,-0.9 C 226,0.1 226,0 225.4,0 c -0.5,0 -0.7,0.1 -0.7,0.4 z"
   id="path4"
   style="fill:#e9e1d0;fill-opacity:1" />
<path
   class="st0"
   d="m 229.8,0.4 c 0,0.3 -0.3,0.4 -1.4,0.4 -1.2,0 -1.4,0.1 -1.4,0.5 0,0.4 0.3,0.5 1.2,0.6 0.7,0.1 1.5,0.2 1.9,0.2 0.7,0 0.7,-0.1 0.7,-1 0,-0.9 -0.1,-1 -0.5,-1 -0.2,-0.1 -0.5,0.1 -0.5,0.3 z"
   id="path6"
   style="fill:#e9e1d0;fill-opacity:1" />
<path
   class="st0"
   d="m 219.3,1.3 c 0,0.4 0.2,0.5 0.6,0.5 0.5,0 0.6,-0.1 0.6,-0.5 0,-0.4 -0.2,-0.5 -0.6,-0.5 -0.5,0 -0.6,0.1 -0.6,0.5 z"
   id="path8"
   style="fill:#e9e1d0;fill-opacity:1" />
<path
   class="st0"
   d="m 183.1,1.2 c -0.1,0.1 -0.2,1.9 -0.2,3.9 0,4.3 -0.3,5.3 -2,6.8 -1.9,1.7 -2.3,1.8 -9.4,1.8 h -6.4 v 0.6 0.7 h 7 c 7.9,0 8.2,-0.1 10.1,-1.9 1.7,-1.8 1.9,-2.5 1.9,-7.6 0,-4.1 0,-4.4 -0.5,-4.4 -0.2,-0.1 -0.5,0 -0.5,0.1 z"
   id="path10"
   style="fill:#e9e1d0;fill-opacity:1" />
<path
   class="st0"
   d="m 70.5,3.7 c -0.1,1 -0.4,2.4 -0.7,3 l -0.5,1.2 0.7,0.6 0.6,0.6 0.4,-1 c 0.5,-1.1 0.9,-3.5 0.9,-5.2 0,-1 -0.1,-1.1 -0.6,-1.1 -0.5,0 -0.6,0.1 -0.8,1.9 z"
   id="path12"
   style="fill:#e9e1d0;fill-opacity:1" />
<path
   class="st0"
   d="m 111.3,5.2 c -0.2,4 -0.5,5.1 -1.9,6.6 -1.6,1.7 -2.8,1.9 -9.2,1.9 h -5.4 v 0.6 0.7 l 6.5,-0.1 c 6.4,-0.1 6.6,-0.1 7.8,-0.7 2.6,-1.3 3.5,-3.7 3.5,-9.4 0,-3 0,-3 -0.6,-3 -0.5,0 -0.5,0 -0.7,3.4 z"
   id="path14"
   style="fill:#e9e1d0;fill-opacity:1" />
<path
   class="st0"
   d="m 135.4,2.4 c 0,0.6 0.2,0.6 9,1.8 4.9,0.7 9.4,1.3 9.9,1.4 l 1,0.2 V 4.3 c 0,-1.1 -0.1,-1.4 -0.4,-1.6 -0.8,-0.3 -0.9,-0.2 -0.8,0.7 0.1,0.5 0.1,0.9 0.1,0.9 0,0 -4.2,-0.6 -9.3,-1.3 -5.1,-0.7 -9.3,-1.3 -9.3,-1.3 -0.2,0.1 -0.2,0.4 -0.2,0.7 z"
   id="path16"
   style="fill:#e9e1d0;fill-opacity:1" />
<path
   class="st0"
   d="m 167.1,3.6 c -0.4,1.5 -1.9,3 -3.1,3.4 -0.8,0.3 -1,0.4 -1,0.9 0,0.5 0.1,0.6 1.1,0.6 1.9,0 3.7,-1.7 4.4,-4.2 0.1,-0.4 0.6,-0.4 5.8,-0.4 h 5.7 l -0.1,-0.6 -0.1,-0.6 -6.2,-0.1 -6.2,-0.1 z"
   id="path18"
   style="fill:#e9e1d0;fill-opacity:1" />
<path
   class="st0"
   d="m 54.4,3.7 v 0.6 h 6.2 6.2 V 3.7 3.1 h -6.2 -6.2 z"
   id="path20"
   style="fill:#e9e1d0;fill-opacity:1" />
<path
   class="st0"
   d="m 228.5,3.7 v 0.6 h -4.6 -4.6 v 4.8 c 0,2.6 -0.1,4.8 -0.2,4.8 -0.1,0 -0.9,0 -1.8,0 -1.5,0 -1.6,0.1 -1.6,0.7 v 0.7 l 2.4,-0.1 2.4,-0.1 0.1,-4.7 0.1,-4.7 h 4.6 4.6 V 4.4 c 0,-1.2 -0.1,-1.3 -0.6,-1.3 -0.6,0 -0.8,0.1 -0.8,0.6 z"
   id="path22"
   style="fill:#e9e1d0;fill-opacity:1" />
<path
   class="st0"
   d="m 93.3,4.5 v 0.6 h 7.9 7.9 V 4.5 3.9 h -7.9 -7.9 z"
   id="path24"
   style="fill:#e9e1d0;fill-opacity:1" />
<path
   class="st0"
   d="m 207.1,5 v 0.6 h 3.7 3.7 V 5 4.4 h -3.7 -3.7 z"
   id="path26"
   style="fill:#e9e1d0;fill-opacity:1" />
<path
   class="st0"
   d="m 131.5,6.8 c 0,3.3 -0.1,3.4 -4.3,3.5 l -3.3,0.1 -0.1,1.2 c -0.3,2.1 -0.7,2.4 -4.4,2.5 -3,0.1 -3.1,0.1 -3,0.6 0.1,0.5 0.2,0.5 2.9,0.6 1.6,0.1 3.2,0 3.7,-0.1 1.3,-0.2 2.1,-1.2 2.1,-2.5 v -1 h 2.7 c 2.9,0 4.3,-0.4 4.7,-1.2 0.2,-0.3 0.3,-1.8 0.3,-3.3 V 4.7 h -0.6 c -0.7,0 -0.7,0 -0.7,2.1 z"
   id="path28"
   style="fill:#e9e1d0;fill-opacity:1" />
<path
   class="st0"
   d="m 115.6,6.5 0.1,0.6 6.4,0.1 6.4,0.1 V 6.6 5.9 h -6.5 -6.4 z"
   id="path30"
   style="fill:#e9e1d0;fill-opacity:1" />
<path
   class="st0"
   d="m 87.7,7.2 v 1 L 80.9,8.3 74.1,8.4 V 9 9.6 L 81.5,9.7 89,9.8 V 8 c 0,-1.8 0,-1.8 -0.6,-1.8 -0.6,0 -0.7,0.1 -0.7,1 z"
   id="path32"
   style="fill:#e9e1d0;fill-opacity:1" />
<path
   class="st0"
   d="m 201.5,7.2 v 1 H 194.8 188 V 9 9.8 h 7.4 7.4 V 8 c 0,-1.8 0,-1.8 -0.6,-1.8 -0.7,0 -0.7,0.1 -0.7,1 z"
   id="path34"
   style="fill:#e9e1d0;fill-opacity:1" />
<path
   class="st0"
   d="m 135.5,7.3 c 0.1,0.6 1.1,0.7 18.6,3.1 l 1.2,0.2 V 9 c 0,-1.5 0,-1.5 -0.6,-1.5 -0.5,0 -0.6,0.2 -0.7,0.9 L 153.9,9.3 145.1,8 c -4.8,-0.7 -9,-1.2 -9.2,-1.2 -0.4,-0.1 -0.5,0.1 -0.4,0.5 z"
   id="path36"
   style="fill:#e9e1d0;fill-opacity:1" />
<path
   class="st0"
   d="m 211.5,9.1 c -0.7,2.8 -2.1,4.4 -4,4.4 -0.6,0 -0.8,0.1 -0.9,0.6 -0.1,0.6 -0.1,0.6 1.5,0.6 2.6,0 3.9,-1.2 4.7,-4.2 0.2,-0.7 0.4,-1.8 0.4,-2.4 0,-0.8 -0.1,-1 -0.6,-1 -0.6,0.1 -0.7,0.4 -1.1,2 z"
   id="path38"
   style="fill:#e9e1d0;fill-opacity:1" />
<path
   class="st0"
   d="m 225.8,7.5 c -0.2,0.3 0.8,2.4 1.3,2.9 0.4,0.3 0.4,0.3 0.2,-0.2 -0.1,-0.3 -0.4,-1 -0.5,-1.7 -0.2,-1.1 -0.6,-1.5 -1,-1 z"
   id="path40"
   style="fill:#e9e1d0;fill-opacity:1" />
<path
   class="st0"
   d="m 168.7,8.9 c -0.1,0.4 -0.2,0.7 -0.2,0.8 0,0.1 2.2,0.1 4.9,0.1 4.2,0 4.9,-0.1 5,-0.4 0.4,-1.2 0.4,-1.2 -4.6,-1.1 L 169,8.4 Z"
   id="path42"
   style="fill:#e9e1d0;fill-opacity:1" />
<path
   class="st0"
   d="m 66.9,11.4 c -0.1,0.2 -0.8,0.6 -1.5,1 l -1.3,0.8 h -5.2 -5.2 v 0.6 0.6 h 5.9 c 5.8,0 5.9,0 6.9,-0.6 2.2,-1.4 2,-1.4 3.7,0.2 l 1.6,1.4 h 2.3 2.3 L 75.8,14.8 C 75.2,14.2 75,14.2 72.9,14.2 H 70.6 L 69.1,12.8 C 68.3,12.1 67.6,11.4 67.6,11.2 67.5,11 67.1,11.1 66.9,11.4 Z"
   id="path44"
   style="fill:#e9e1d0;fill-opacity:1" />
<path
   class="st0"
   d="m 135.4,11.9 c 0,0.6 -0.5,0.5 9.7,1.9 4.7,0.6 8.9,1.2 9.4,1.3 l 0.8,0.2 v -1.6 c 0,-1.5 0,-1.6 -0.6,-1.6 -0.5,0 -0.6,0.2 -0.7,0.9 l -0.1,0.9 -8.8,-1.2 c -4.8,-0.7 -9,-1.2 -9.2,-1.2 -0.3,-0.1 -0.5,0.1 -0.5,0.4 z"
   id="path46"
   style="fill:#e9e1d0;fill-opacity:1" />
<path
   class="st0"
   d="m 228.5,12.6 c 0,0.8 0,0.8 -1.3,0.8 -0.7,0 -1.6,-0.1 -2,-0.3 l -0.7,-0.3 0.8,0.9 c 0.8,0.8 1,0.9 2.7,0.9 l 1.8,0.1 v -1.3 c 0,-0.7 -0.1,-1.3 -0.2,-1.3 -0.1,0 -0.4,-0.1 -0.6,-0.2 -0.4,0 -0.5,0.1 -0.5,0.7 z"
   id="path48"
   style="fill:#e9e1d0;fill-opacity:1" />
<path
   class="st0"
   d="M 19.1,21.6 C 13,23.5 8.5,32.6 8.8,42.5 c 0.1,4.6 0.8,5.7 4.9,8.7 2.8,2 3.1,6.3 0.8,8.7 -1.3,1.3 -2.5,1.6 -6.4,1.6 H 4.7 L 2.4,66.7 0,72 4.4,72.1 c 2.6,0.1 5.1,-0.1 6,-0.2 4,-0.8 7.7,-4 10.2,-9 3.1,-6.2 4,-14.8 1.9,-18.8 -0.6,-1.2 -2.1,-2.8 -4.1,-4.3 -1.2,-0.9 -2,-2.1 -2.2,-3.5 -0.2,-1.4 0.3,-3.3 1,-4.1 1.2,-1.3 1.9,-1.4 6.5,-1.6 l 4.4,-0.1 0.9,-3.9 c 0.5,-2.1 1,-4.2 1.1,-4.6 l 0.2,-0.7 h -5.1 c -3.3,-0.1 -5.4,0.1 -6.1,0.3 z"
   id="path50"
   style="fill:#e9e1d0;fill-opacity:1" />
<path
   class="st0"
   d="m 32.8,21.5 c -0.1,0.3 -3.1,15.4 -6.6,32.8 -0.3,1.5 -0.5,4.2 -0.6,6.8 -0.2,4.9 0.1,6.5 1.4,8.5 1.8,2.7 7,3.9 10.6,2.2 4,-1.8 7.7,-6.7 9.5,-12.7 0.4,-1.5 6.6,-32.3 7.4,-37.4 0.1,-0.3 -0.6,-0.3 -3,-0.3 h -3.1 l -0.6,2.8 C 47.5,25.7 46,33 44.5,40.3 43,47.6 41.5,54.6 41.1,55.7 40,59 38.3,61 35.9,61.3 34.5,61.5 33.7,61.2 33,60.1 c -0.5,-0.8 -0.5,-1.2 -0.4,-4 0.1,-2.6 0.6,-5.5 3.3,-18.8 1.7,-8.7 3.1,-15.8 3.1,-16 -0.1,-0.3 -6,-0.2 -6.2,0.2 z"
   id="path52"
   style="fill:#e9e1d0;fill-opacity:1" />
<path
   class="st0"
   d="M 57.8,21.6 C 57.7,22 47.4,72 47.4,72.2 c 0,0.1 1.4,0.1 3.2,0.1 l 3.1,-0.1 2.1,-10.2 2.1,-10.2 3.7,-0.1 c 2,0 3.7,-0.2 3.7,-0.3 0,-0.1 0.5,-2.4 1,-5.1 0.6,-2.7 1,-4.9 1,-5 0,-0.1 -1.7,-0.1 -3.7,-0.1 -2,0 -3.7,0 -3.7,-0.1 0,-0.1 0.4,-2.1 0.9,-4.6 0.5,-2.5 0.9,-4.5 0.9,-4.6 0,-0.1 1.8,-0.1 4,-0.1 h 3.9 l 1,-4.9 c 0.5,-2.7 1,-5 1.1,-5.3 0.1,-0.4 -0.4,-0.5 -6.8,-0.5 -4.5,0.3 -7,0.3 -7.1,0.5 z"
   id="path54"
   style="fill:#e9e1d0;fill-opacity:1" />
<path
   class="st0"
   d="m 79.9,21.8 c -0.1,0.3 -4.6,11.6 -10.1,25.2 -5.4,13.6 -9.9,24.8 -10,25 -0.1,0.3 0.6,0.3 3.4,0.3 L 66.8,72.2 68.4,68.1 70,64 h 4.6 4.6 l 0.1,3.9 0.1,3.9 7.1,0.1 c 6.1,0.1 7.1,0 7.2,-0.3 0.1,-0.2 1.3,-6.4 2.7,-13.7 2.3,-12 2.8,-14.3 2.8,-13.2 0,0.8 1.6,25 1.7,26 l 0.1,1.1 1.9,-0.1 1.8,-0.1 6.1,-13 c 5.6,-11.9 6.8,-14.3 6.4,-12.9 -0.2,0.6 -5.6,25.6 -5.6,25.9 0,0.1 1.5,0.1 3.4,0.1 l 3.4,-0.1 4.6,-23.1 c 2.5,-12.7 4.7,-24 5,-25 l 0.4,-1.9 h -3.3 -3.3 L 114.5,35 c -4,7.4 -7.4,13.4 -7.4,13.3 -0.1,-0.1 -0.9,-6.2 -1.7,-13.5 l -1.6,-13.4 h -3.2 -3.2 l -5.2,24.9 c -2.9,13.7 -5.3,25 -5.4,25 -0.1,0.1 -0.2,-11.2 -0.2,-25 v -25 h -3.3 c -2.9,0 -3.2,0.1 -3.4,0.5 z m -0.5,24.6 v 6.9 h -2.6 c -1.4,0 -2.6,-0.1 -2.6,-0.2 0,-0.2 5,-13.5 5.1,-13.5 0.1,-0.1 0.1,3 0.1,6.8 z"
   id="path56"
   style="fill:#e9e1d0;fill-opacity:1" />
<path
   class="st0"
   d="m 132,21.8 c 0,0.1 -2.2,11.3 -5,25 l -5,24.9 3.2,0.1 c 1.8,0 3.3,0 3.3,0 0.1,-0.1 10.2,-49.5 10.2,-49.9 0.1,-0.2 -6.6,-0.3 -6.7,-0.1 z"
   id="path58"
   style="fill:#e9e1d0;fill-opacity:1" />
<path
   class="st0"
   d="m 154.4,22.3 c -0.3,1.5 -2.2,10.6 -2.2,10.8 0,0.1 1.2,0.2 2.6,0.2 2.3,0 2.6,0.1 2.5,0.4 -0.2,0.8 -7.4,37.3 -7.4,37.7 0,0.3 0.5,0.4 3.2,0.4 3.1,0 3.2,0 3.4,-0.6 0.2,-1 7.6,-37.6 7.6,-37.8 0,-0.1 1.2,-0.1 2.6,-0.1 1.4,0 2.6,-0.1 2.6,-0.2 0,-0.1 0.6,-2.7 1.3,-5.7 0.7,-3.1 1.3,-5.6 1.3,-5.7 0,-0.1 -3.9,-0.1 -8.6,-0.1 h -8.6 z"
   id="path60"
   style="fill:#e9e1d0;fill-opacity:1" />
<path
   class="st0"
   d="m 173.7,22.3 c -0.2,0.6 -5.9,28.9 -6.6,32.8 -0.6,3.3 -0.9,9.5 -0.5,11.7 0.9,4.4 3.2,6.2 8,6.3 2.2,0 2.6,-0.1 4.1,-0.8 3.9,-1.9 7.2,-6.4 9.2,-12.6 0.5,-1.6 6.9,-33.9 7.4,-37.1 0.1,-0.6 0.1,-0.6 -3,-0.6 h -3.1 L 186,37.7 c -3.4,16.8 -3.9,18.8 -4.8,20.7 -1.5,2.9 -4.9,4.5 -6.7,3.1 -1.9,-1.5 -1.7,-3.9 2.1,-23.4 1.7,-8.6 3.1,-15.9 3.1,-16.1 0,-0.3 -0.6,-0.4 -3,-0.4 -2.7,0.1 -2.8,0.1 -3,0.7 z"
   id="path62"
   style="fill:#e9e1d0;fill-opacity:1" />
<path
   class="st0"
   d="m 197.8,21.9 c 0,0.3 -9.8,48.9 -10,49.4 -0.1,0.4 0.2,0.5 3.5,0.5 2.7,0 3.6,-0.1 3.7,-0.3 0.1,-0.2 0.7,-3.7 1.5,-7.8 0.8,-4.1 1.5,-7.4 1.6,-7.2 0.1,0.1 0.5,3.6 1,7.7 l 0.9,7.6 h 4.2 c 2.3,0 4.2,-0.1 4.2,-0.2 0,-0.1 -0.8,-4.3 -1.8,-9.4 -1,-5.1 -1.8,-9.4 -1.8,-9.5 0,-0.2 0.5,-0.6 1.2,-1 2.6,-1.5 5.4,-5.5 6.8,-9.8 1.9,-5.7 2.1,-12.8 0.5,-16.5 -0.7,-1.6 -2.4,-3.1 -3.9,-3.5 -1.4,-0.2 -11.6,-0.3 -11.6,0 z m 6.9,10.9 c 2.5,1.6 2.7,6.7 0.2,10 -1.3,1.7 -4.8,3.2 -4.8,2.1 0,-0.5 1.8,-12 2,-12.5 0.2,-0.5 1.4,-0.3 2.6,0.4 z"
   id="path64"
   style="fill:#e9e1d0;fill-opacity:1" />
<path
   class="st0"
   d="m 251.2,22.3 c -7.1,2.5 -13.5,11.9 -15.9,23.2 -2.1,10.1 -0.7,19.8 3.5,24.2 1.7,1.8 3.6,2.6 6,2.6 1.7,0 2.2,-0.1 3.9,-1 6.7,-3.4 12,-12.1 14.6,-24.2 0.6,-3 0.7,-3.8 0.7,-8.7 0,-6 -0.3,-7.8 -1.9,-11.1 -2.2,-4.7 -6.4,-6.6 -10.9,-5 z m 2.4,13.2 c 2,1 2.9,3.5 2.9,7.8 0,13.4 -10.8,23.1 -13.9,12.4 -1,-3.4 -0.4,-9.3 1.4,-13.2 2.4,-5.3 6.7,-8.5 9.6,-7 z"
   id="path66"
   style="fill:#e9e1d0;fill-opacity:1" />
<path
   class="st0"
   d="m 219.9,23.1 c -0.1,0.6 -1.9,11.8 -4,24.9 l -3.8,23.8 5.8,0.1 c 7,0.1 7.8,-0.1 9.9,-2 3.2,-3 5.3,-9.5 5.3,-16.7 0,-3.3 -0.3,-4.3 -1.7,-5.8 l -1.2,-1.2 1.1,-1.2 c 2.7,-3.1 4.2,-7.8 4.2,-13.6 0,-5 -1.1,-7.7 -3.5,-8.8 -0.9,-0.4 -1.8,-0.5 -6.5,-0.5 H 220 Z m 6.8,9.8 c 0.5,0.2 1,0.6 1.2,1.1 0.5,1 0.6,3.9 0.1,5.1 -0.3,1.1 -1.7,2.4 -2.7,2.8 -1.1,0.4 -2.1,0.4 -1.9,-0.1 0.1,-0.2 0.5,-2.2 1,-4.5 0.4,-2.2 0.9,-4.3 0.9,-4.4 0.2,-0.4 0.4,-0.4 1.4,0 z m -3.1,19.9 c 1.5,0.8 2.1,1.6 2.2,3.4 0.4,3.9 -1.8,6.7 -5.5,7.1 -1.3,0.2 -1.4,0.1 -1.3,-0.3 0.1,-0.3 0.6,-2.6 1.1,-5.3 0.5,-2.6 1,-4.9 1,-5.1 0.3,-0.6 1.3,-0.4 2.5,0.2 z"
   id="path68"
   style="fill:#e9e1d0;fill-opacity:1" />
</svg>
