<?xml version="1.0" encoding="UTF-8" standalone="no"?>
<!-- Generator: Adobe Illustrator 26.0.3, SVG Export Plug-In . SVG Version: 6.00 Build 0)  -->

<svg
   version="1.1"
   id="Layer_1"
   x="0px"
   y="0px"
   viewBox="0 0 264 68.030304"
   xml:space="preserve"
   sodipodi:docname="virtualboy.svg"
   width="264"
   height="68.030304"
   inkscape:version="1.1.2 (b8e25be833, 2022-02-05)"
   xmlns:inkscape="http://www.inkscape.org/namespaces/inkscape"
   xmlns:sodipodi="http://sodipodi.sourceforge.net/DTD/sodipodi-0.dtd"
   xmlns="http://www.w3.org/2000/svg"
   xmlns:svg="http://www.w3.org/2000/svg"><defs
   id="defs19" /><sodipodi:namedview
   id="namedview17"
   pagecolor="#ffffff"
   bordercolor="#666666"
   borderopacity="1.0"
   inkscape:pageshadow="2"
   inkscape:pageopacity="0.0"
   inkscape:pagecheckerboard="0"
   showgrid="false"
   inkscape:zoom="0.55104167"
   inkscape:cx="959.09263"
   inkscape:cy="540.79395"
   inkscape:window-width="2560"
   inkscape:window-height="1387"
   inkscape:window-x="-8"
   inkscape:window-y="-8"
   inkscape:window-maximized="1"
   inkscape:current-layer="Layer_1" />
<style
   type="text/css"
   id="style2">
	.st0{fill:#E9E1D0;}
</style>
<g
   transform="matrix(0.44,0,0,0.439174,0,0.00224857)"
   id="g14"
   style="fill:#e9e1d0;fill-opacity:1">
	<path
   id="path2952"
   class="st0"
   d="M 0,0 32.3,154.8 64.4,0 H 47 L 32.3,87 17.4,0 Z"
   style="fill:#e9e1d0;fill-opacity:1" />
	<path
   id="path3726"
   class="st0"
   d="M 71.5,0 H 88.9 V 154.8 H 71.5 Z"
   style="fill:#e9e1d0;fill-opacity:1" />
	<path
   id="path3728"
   class="st0"
   d="m 104.5,0 v 154.8 h 17.4 v -80 l 24.2,80 h 16 L 142.8,81.6 c 10.7,-6.4 13.9,-14.9 13.9,-14.9 V 17.6 C 149.5,1.7 137.2,0 137.2,0 Z m 17.4,15.8 h 17.4 v 53.8 h -17.4 z"
   style="fill:#e9e1d0;fill-opacity:1" />
	<path
   id="path3733"
   class="st0"
   d="m 162.1,0 h 52 V 15.7 H 196.7 V 154.8 H 179.3 V 15.7 h -17.2 z"
   style="fill:#e9e1d0;fill-opacity:1" />
	<path
   id="path3735"
   class="st0"
   d="m 310.3,0 -33.6,154.7 v 0.2 h 17.2 l 3.6,-20.9 h 24.3 l 3.5,20.9 h 17.4 z m 0,66.7 7.9,53.3 H 301 Z"
   style="fill:#e9e1d0;fill-opacity:1" />
	<path
   id="path2882"
   class="st0"
   d="m 349.7,0 h 17.4 v 139.1 h 26 v 15.7 h -43.4 z"
   style="fill:#e9e1d0;fill-opacity:1" />
	<path
   id="path3660"
   class="st0"
   d="m 535.6,0 h 15.9 L 567.7,66.7 582.5,0 H 600 l -24.3,91.1 v 63.7 H 558.3 V 91.1 L 535.6,0 Z"
   style="fill:#e9e1d0;fill-opacity:1" />
	<path
   id="path3662"
   class="st0"
   d="m 504.4,0 c -19.8,0 -26.1,17.5 -26.1,17.5 0.2,0.2 0,116.4 0,119.7 2.6,18.8 26.1,17.5 26.1,17.5 v 0 c 26.1,0 26.1,-17.5 26.1,-17.5 V 17.6 C 523.7,-0.8 504.4,0 504.4,0 Z m -8.7,17.6 h 17.4 v 121.5 h -17.4 z"
   style="fill:#e9e1d0;fill-opacity:1" />
	<path
   id="path3667"
   class="st0"
   d="m 220.9,0 h 17.6 V 137.3 H 256 V 0 h 17.2 v 137.3 c 0,0 -5.6,17.5 -25.3,17.5 -19.7,0 -27,-17.5 -27,-17.5 z"
   style="fill:#e9e1d0;fill-opacity:1" />
	<path
   id="path3669"
   class="st0"
   d="m 412.3,0 v 154.8 h 34.9 c 16.2,-4.2 17.2,-15.8 17.2,-15.8 0,0 0,-41.4 0,-52 -1.2,-6.8 -6.8,-7 -6.8,-7 0,0 0,-1.9 0,-3.4 6.1,-0.5 6.8,-7.1 6.8,-7.1 0,0 0,-41.3 0,-52 C 461.8,4.9 447.2,0 447.2,0 Z m 17.4,17.7 h 17.5 v 51.9 h -17.5 z m 0,67.6 h 17.6 v 53.8 h -17.6 z"
   style="fill:#e9e1d0;fill-opacity:1" />
</g>
</svg>
