<?xml version="1.0" encoding="UTF-8" standalone="no"?>
<!-- Created with Inkscape (http://www.inkscape.org/) -->

<svg
   version="1.1"
   id="svg1615"
   width="21746.113"
   height="21762.168"
   viewBox="0 0 21746.113 21762.167"
   sodipodi:docname="star_hollow.svg"
   inkscape:version="1.1.2 (b8e25be833, 2022-02-05)"
   xmlns:inkscape="http://www.inkscape.org/namespaces/inkscape"
   xmlns:sodipodi="http://sodipodi.sourceforge.net/DTD/sodipodi-0.dtd"
   xmlns="http://www.w3.org/2000/svg"
   xmlns:svg="http://www.w3.org/2000/svg">
  <defs
     id="defs1619" />
  <sodipodi:namedview
     id="namedview1617"
     pagecolor="#ffffff"
     bordercolor="#666666"
     borderopacity="1.0"
     inkscape:pageshadow="2"
     inkscape:pageopacity="0.0"
     inkscape:pagecheckerboard="0"
     showgrid="false"
     inkscape:zoom="0.01"
     inkscape:cx="-23150"
     inkscape:cy="12900"
     inkscape:window-width="2560"
     inkscape:window-height="1387"
     inkscape:window-x="-8"
     inkscape:window-y="-8"
     inkscape:window-maximized="1"
     inkscape:current-layer="g1621" />
  <g
     inkscape:groupmode="layer"
     inkscape:label="Image"
     id="g1621"
     transform="translate(-74656.197,-44697.812)">
    <path
       style="fill:#18152f;fill-opacity:1;stroke-width:19.2"
       d="m 85382.14,66450.503 c -73.403,-22.97 -123.632,-70.928 -170.527,-162.814 -31.773,-62.254 -41.866,-134.408 -55.06,-393.6 -141.074,-2771.425 -1316.982,-5422.851 -3165.95,-7138.559 -1729.966,-1605.282 -3935.711,-2504.486 -6813.278,-2777.531 -342.631,-32.511 -395.473,-56.111 -473.45,-211.452 -62.047,-123.607 -63.618,-249.811 -4.219,-338.991 72.234,-108.449 136.565,-126.326 541.502,-150.481 1704.681,-101.688 3533.031,-646.703 4992.645,-1488.264 1111.509,-640.856 2119.799,-1534.124 2860.749,-2534.406 1197.93,-1617.207 1896.658,-3642.172 2082.104,-6034.098 20.513,-264.576 56.305,-370.61 152.39,-451.46 111.785,-94.061 292.537,-94.815 389.806,-1.626 71.626,68.622 111.71,207.934 111.92,388.981 0.234,201.769 31.855,635.11 68.047,932.515 258.19,2121.672 1064.398,4044.954 2334.014,5568 219.666,263.514 748.402,799.098 1015.37,1028.52 1621.496,1393.453 3651.778,2232.872 6192,2560.078 200.64,25.845 438.24,52.474 528,59.175 295.338,22.051 405.582,93.14 430.008,277.281 17.98,135.532 -22.506,216.943 -134.952,271.378 -69.282,33.538 -142.088,44.668 -386.22,59.04 -1142.19,67.243 -2567.49,412.666 -3740.376,906.482 -2111.554,889.021 -3739.634,2291.819 -4827.663,4159.646 -804.613,1381.285 -1327.212,3164.136 -1468.911,5011.2 -20.73,270.214 -62.299,369.952 -179.434,430.526 -69.483,35.93 -211.429,51.456 -278.515,30.46 z m 227.532,-4012.986 c 567.948,-1745.298 1746.868,-3489.614 3159.077,-4674.134 379.692,-318.475 1054.73,-799.63 1492.022,-1063.488 647.706,-390.82 1433.778,-757.647 2157.252,-1006.7 l 241.818,-83.245 -357.018,-119.966 c -505.172,-169.748 -871.842,-319.968 -1336.22,-547.43 -617.638,-302.533 -999.042,-530.349 -1564.8,-934.665 -992.386,-709.206 -1688.381,-1402.299 -2379.106,-2369.188 -402.704,-563.711 -623.363,-930.429 -913.392,-1517.984 -231.783,-469.559 -356.35,-764.078 -519.722,-1228.8 -55.685,-158.4 -105.708,-275.04 -111.162,-259.2 -5.454,15.84 -46.225,136.8 -90.601,268.8 -419.138,1246.728 -1060.271,2380.648 -1959.494,3465.6 -221.816,267.63 -864.11,907.009 -1140.123,1134.947 -1116.727,922.223 -2241.277,1556.898 -3569.709,2014.677 l -344.109,118.581 334.509,111.132 c 1166.85,387.656 2125.906,890.98 3118.509,1636.628 462.115,347.143 656.45,515.292 1047.372,906.239 508.265,508.3 907.551,1000.466 1332.608,1642.596 527.321,796.618 946.978,1658.613 1231.397,2529.347 40.485,123.941 79.331,218.981 86.324,211.2 6.994,-7.781 45.049,-113.507 84.568,-234.947 z"
       id="path1682" />
  </g>
</svg>
