<?xml version="1.0" encoding="UTF-8" standalone="no"?>
<!-- Created with Inkscape (http://www.inkscape.org/) -->

<svg
   version="1.1"
   id="svg1402"
   width="21746.113"
   height="21762.168"
   viewBox="0 0 21746.113 21762.167"
   sodipodi:docname="star_full.svg"
   inkscape:version="1.1.2 (b8e25be833, 2022-02-05)"
   xmlns:inkscape="http://www.inkscape.org/namespaces/inkscape"
   xmlns:sodipodi="http://sodipodi.sourceforge.net/DTD/sodipodi-0.dtd"
   xmlns="http://www.w3.org/2000/svg"
   xmlns:svg="http://www.w3.org/2000/svg">
  <defs
     id="defs1406" />
  <sodipodi:namedview
     id="namedview1404"
     pagecolor="#ffffff"
     bordercolor="#666666"
     borderopacity="1.0"
     inkscape:pageshadow="2"
     inkscape:pageopacity="0.0"
     inkscape:pagecheckerboard="0"
     showgrid="false"
     inkscape:zoom="0.01"
     inkscape:cx="4750"
     inkscape:cy="18900"
     inkscape:window-width="2560"
     inkscape:window-height="1387"
     inkscape:window-x="-8"
     inkscape:window-y="-8"
     inkscape:window-maximized="1"
     inkscape:current-layer="g1408" />
  <g
     inkscape:groupmode="layer"
     inkscape:label="Image"
     id="g1408"
     transform="translate(-46856.197,-46497.812)">
    <path
       style="fill:#18152f;fill-opacity:1;stroke-width:19.2"
       d="m 57582.141,68250.503 c -73.404,-22.97 -123.632,-70.928 -170.528,-162.814 -31.772,-62.254 -41.866,-134.408 -55.06,-393.6 -141.074,-2771.425 -1316.982,-5422.851 -3165.95,-7138.559 -1730.752,-1606.011 -3934.405,-2504.362 -6813.278,-2777.531 -342.631,-32.511 -395.473,-56.111 -473.45,-211.452 -62.047,-123.607 -63.618,-249.811 -4.219,-338.991 72.234,-108.449 136.565,-126.326 541.502,-150.481 1704.681,-101.688 3533.031,-646.703 4992.645,-1488.264 1413.194,-814.796 2591.804,-1976.35 3413.026,-3363.633 853.024,-1441.009 1375.95,-3220.141 1529.828,-5204.871 20.512,-264.576 56.304,-370.61 152.388,-451.46 111.786,-94.061 292.538,-94.815 389.806,-1.626 71.628,68.622 111.71,207.934 111.92,388.981 0.234,201.769 31.856,635.11 68.048,932.515 233.912,1922.175 935.882,3727.356 2000.94,5145.6 483.44,643.756 1063.344,1237.7 1703.644,1744.892 856.74,678.636 1995.734,1282.544 3136.314,1662.909 970.532,323.657 2274.226,590.668 3238.086,663.196 285.618,21.491 396.236,94.233 420.408,276.457 17.98,135.532 -22.506,216.943 -134.952,271.378 -69.282,33.538 -142.088,44.668 -386.22,59.04 -1142.19,67.243 -2567.49,412.666 -3740.376,906.482 -2111.554,889.021 -3739.634,2291.819 -4827.664,4159.646 -804.612,1381.285 -1327.212,3164.136 -1468.91,5011.2 -20.73,270.214 -62.298,369.952 -179.434,430.526 -69.482,35.93 -211.43,51.456 -278.514,30.46 z"
       id="path1492" />
  </g>
</svg>
