<?xml version="1.0" encoding="UTF-8" standalone="no"?>
<!-- Generator: Adobe Illustrator 26.0.3, SVG Export Plug-In . SVG Version: 6.00 Build 0)  -->

<svg
   version="1.1"
   id="Layer_1"
   x="0px"
   y="0px"
   viewBox="0 0 264 43.107132"
   xml:space="preserve"
   sodipodi:docname="atarist.svg"
   width="264"
   height="43.107132"
   inkscape:version="1.1.2 (b8e25be833, 2022-02-05)"
   xmlns:inkscape="http://www.inkscape.org/namespaces/inkscape"
   xmlns:sodipodi="http://sodipodi.sourceforge.net/DTD/sodipodi-0.dtd"
   xmlns="http://www.w3.org/2000/svg"
   xmlns:svg="http://www.w3.org/2000/svg"><defs
   id="defs21" /><sodipodi:namedview
   id="namedview19"
   pagecolor="#ffffff"
   bordercolor="#666666"
   borderopacity="1.0"
   inkscape:pageshadow="2"
   inkscape:pageopacity="0.0"
   inkscape:pagecheckerboard="0"
   showgrid="false"
   inkscape:zoom="0.55104167"
   inkscape:cx="959.09263"
   inkscape:cy="540.79395"
   inkscape:window-width="2560"
   inkscape:window-height="1387"
   inkscape:window-x="-8"
   inkscape:window-y="-8"
   inkscape:window-maximized="1"
   inkscape:current-layer="Layer_1" />
<style
   type="text/css"
   id="style2">
	.st0{fill:#E9E1D0;}
</style>
<g
   transform="matrix(0.44,0,0,0.437192,0,0.0437192)"
   id="g16"
   style="fill:#e9e1d0;fill-opacity:1">
	<path
   id="path7"
   class="st0"
   d="m 172.2,5.1 c 3.8,-4.8 11.6,-5.7 16.2,-1.6 1.9,1.6 3.2,3.8 3.9,6.2 8.6,29.6 17.2,59.1 25.8,88.6 -5.1,0 -10.1,0 -15.2,0 -2.4,-8.1 -4.7,-16.3 -7.1,-24.5 -9.8,0 -19.6,0 -29.4,0 -2.4,8.2 -4.8,16.3 -7.1,24.5 -5,0 -10.1,0 -15.1,0 8.2,-28.2 16.3,-56.4 24.5,-84.6 1,-2.9 1.4,-6.2 3.5,-8.6 m 9,18.1 c -3.6,12.2 -7.1,24.5 -10.7,36.8 7.1,0 14.2,0 21.4,0 -3.6,-12.3 -7.2,-24.5 -10.7,-36.8 z"
   style="fill:#e9e1d0;fill-opacity:1" />
	<path
   id="path9"
   class="st0"
   d="m 279,5.8 c 2.6,-3.8 7.7,-5.7 12.2,-4.5 4.1,0.9 7.3,4.5 8.4,8.5 8.6,29.5 17.2,59 25.8,88.6 -5.1,0 -10.1,0 -15.2,0 -2.4,-8.2 -4.7,-16.3 -7.1,-24.5 -9.8,0 -19.6,0 -29.4,0 -2.3,8.2 -4.7,16.3 -7.1,24.5 -5,0 -10.1,0 -15.1,0 8.2,-28.3 16.4,-56.7 24.6,-85 C 277,10.8 277.3,8 279,5.8 M 277.8,60 c 7.1,0 14.2,0 21.3,0 C 295.6,47.7 292,35.5 288.5,23.2 284.9,35.4 281.3,47.7 277.8,60 Z"
   style="fill:#e9e1d0;fill-opacity:1" />
	<path
   id="path11"
   class="st0"
   d="m 206.8,1.1 c 18.3,0 36.7,0 55,0 0,4.9 0,9.9 0,14.8 -6.8,0 -13.5,0 -20.2,0 0,27.5 0,54.9 0,82.4 -4.8,0 -9.7,0 -14.5,0 0,-27.5 0,-54.9 0,-82.4 -6.8,0 -13.5,0 -20.2,0 C 206.8,11 206.8,6 206.8,1.1 Z"
   style="fill:#e9e1d0;fill-opacity:1" />
	<path
   id="path13"
   class="st0"
   d="m 341.5,1.7 c 1.4,-0.5 2.9,-0.6 4.4,-0.6 5.8,0 11.6,0 17.3,0 9.7,0.2 19,6.2 23.2,15 2.9,5.7 3.2,12.3 2.5,18.6 -0.5,6.5 -3.2,13.1 -8.3,17.4 -2.7,2.4 -6,3.8 -8.8,5.9 -1.6,1.2 -1.6,3.5 -0.8,5.1 7.7,11.8 15.7,23.5 23.5,35.3 -5.7,0 -11.5,0 -17.2,0 -7.5,-11.3 -14.9,-22.6 -22.4,-33.9 -2.2,-3.2 -2.8,-7.5 -1.5,-11.1 1,-2.8 3.5,-4.9 6.2,-5.9 5.2,-2 10.4,-5.1 13.3,-10.1 2.2,-3.7 2.1,-8.3 1.1,-12.3 -1.2,-5.3 -6.3,-9.4 -11.7,-9.2 -3.7,0 -7.5,0 -11.2,0 -1.7,0 -3.3,1.4 -3.3,3.2 0,26.4 0,52.9 0,79.4 -4.9,0 -9.7,0 -14.6,0 0,-28.5 0,-57 0,-85.4 0,-5.2 3.5,-9.9 8.3,-11.4 z"
   style="fill:#e9e1d0;fill-opacity:1" />
	<path
   id="path15"
   class="st0"
   d="m 402.1,1.1 c 5.1,0 10.2,0 15.4,0 0,32.4 0,64.8 0,97.2 -5.1,0 -10.2,0 -15.4,0 0,-32.4 0,-64.8 0,-97.2 z"
   style="fill:#e9e1d0;fill-opacity:1" />
	<path
   id="path19"
   class="st0"
   d="m 43.4,0.9 c 2.5,0 4.9,0 7.4,0 0,5.8 0,11.6 0,17.4 0,4.8 -0.1,9.7 -0.3,14.5 -0.3,7 -0.8,14 -1.9,20.8 -0.8,4.7 -2.4,9.3 -4.5,13.7 -3.3,7 -8.6,12.9 -14.4,17.9 -5.3,4.6 -11.5,8 -18.1,10.3 C 7.8,96.8 3.9,97.8 0,98.3 0,93.4 0,88.6 0,83.7 4.7,83 9.2,81.3 13.4,79.1 c 5,-2.6 9.5,-6.2 13.3,-10.4 3.9,-4.3 7,-9.3 9.4,-14.6 2.8,-6.1 4.3,-12.7 5.3,-19.3 1.3,-8.4 1.8,-16.9 2,-25.4 0,-2.7 -0.1,-5.6 0,-8.5 z"
   style="fill:#e9e1d0;fill-opacity:1" />
	<path
   id="path21"
   class="st0"
   d="m 53.7,0.9 c 4.5,0 9.1,0 13.6,0 0,32.5 0,64.9 0,97.4 -4.5,0 -9,0 -13.6,0 -0.1,-10.4 0,-20.7 0,-31.1 0,-22 0,-44.2 0,-66.3 z"
   style="fill:#e9e1d0;fill-opacity:1" />
	<path
   id="path23"
   class="st0"
   d="m 70.3,0.9 c 2.5,0 4.9,0 7.3,0 -0.1,9.9 0.3,19.8 1.4,29.7 1,7.6 2.3,15.3 5.4,22.5 2.9,6.9 7,13.3 12.5,18.4 5.2,4.9 11.4,8.7 18.3,10.9 1.9,0.6 3.8,1.1 5.8,1.4 0,4.9 0,9.7 0,14.6 -3.9,-0.5 -7.7,-1.5 -11.4,-2.8 C 105.2,94 101,92 97,89.5 94.1,87.7 91.5,85.5 89,83.2 84.9,79.4 81.2,75.1 78.4,70.2 76.2,66.4 74.7,62.3 73.4,58.1 72.3,53.9 71.8,49.5 71.3,45.2 70.4,35.8 70.1,26.4 70.2,17 70.3,11.6 70.3,6.2 70.3,0.9 Z"
   style="fill:#e9e1d0;fill-opacity:1" />
	<path
   id="path25"
   class="st0"
   d="m 53.7,0.9 c 0,22.1 0,44.2 0,66.4 0,10.4 0,20.7 0,31.1 4.5,0 9,0 13.6,0 0,-32.5 0,-64.9 0,-97.4 C 62.8,0.9 58.2,0.9 53.7,0.9"
   style="fill:#e9e1d0;fill-opacity:1" />
	<path
   id="path27"
   class="st0"
   d="m 70.3,0.9 c 0,5.3 0,10.6 0,16 -0.1,9.4 0.3,18.8 1.1,28.2 0.4,4.3 0.9,8.7 2.1,12.9 1.2,4.2 2.8,8.3 5,12.1 2.8,4.9 6.5,9.2 10.6,13 2.5,2.3 5.1,4.5 8,6.3 3.9,2.6 8.2,4.5 12.6,6.1 3.7,1.3 7.5,2.3 11.4,2.8 0,-4.9 0,-9.7 0,-14.6 -2,-0.3 -3.9,-0.8 -5.8,-1.4 C 108.5,80.1 102.2,76.3 97,71.4 91.6,66.2 87.4,59.8 84.5,53 81.5,45.9 80.1,38.2 79.1,30.5 77.9,20.7 77.6,10.7 77.7,0.8 75.2,0.9 72.8,0.9 70.3,0.9"
   style="fill:#e9e1d0;fill-opacity:1" />
	<path
   id="path31"
   class="st0"
   d="m 458.2,62.7 1.8,1.4 c 6.2,4.8 13.7,8.7 21.6,8.7 3.4,0 8.8,-1.4 8.8,-5.7 0,-4.3 -4.6,-4.7 -7.7,-5.3 l -7,-1.3 C 462.2,58.1 450.8,50.1 450.8,35.2 450.8,12.6 471.4,-0.1 492.1,-0.1 503,0 513,2.7 522.4,8.3 L 513,32.7 c -5.9,-4 -12.6,-7.2 -20.1,-7.2 -3,0 -7.5,1.1 -7.5,5.1 0,3.5 4.3,4 7,4.7 l 7.8,1.8 c 14.7,3.3 25.3,11.1 25.3,27.3 0,22.8 -20.7,34 -41.3,34 -12,0 -25.9,-3.3 -36.7,-8.7 z"
   style="fill:#e9e1d0;fill-opacity:1" />
	<path
   id="path33"
   class="st0"
   d="M 527.2,1.5 H 600 v 26.7 l -19.1,0.1 V 96.8 H 546.3 V 28.3 l -19.1,-0.1 z"
   style="fill:#e9e1d0;fill-opacity:1" />
</g>
</svg>
