<?xml version="1.0" encoding="UTF-8" standalone="no"?>
<!-- Generator: Adobe Illustrator 26.0.3, SVG Export Plug-In . SVG Version: 6.00 Build 0)  -->

<svg
   version="1.1"
   id="Ebene_1"
   x="0px"
   y="0px"
   viewBox="0 0 264 57.05928"
   xml:space="preserve"
   sodipodi:docname="atari2600.svg"
   width="264"
   height="57.05928"
   inkscape:version="1.1.2 (b8e25be833, 2022-02-05)"
   xmlns:inkscape="http://www.inkscape.org/namespaces/inkscape"
   xmlns:sodipodi="http://sodipodi.sourceforge.net/DTD/sodipodi-0.dtd"
   xmlns="http://www.w3.org/2000/svg"
   xmlns:svg="http://www.w3.org/2000/svg"><defs
   id="defs24" /><sodipodi:namedview
   id="namedview22"
   pagecolor="#ffffff"
   bordercolor="#666666"
   borderopacity="1.0"
   inkscape:pageshadow="2"
   inkscape:pageopacity="0.0"
   inkscape:pagecheckerboard="0"
   showgrid="false"
   inkscape:zoom="0.55104167"
   inkscape:cx="959.09263"
   inkscape:cy="540.79395"
   inkscape:window-width="2560"
   inkscape:window-height="1387"
   inkscape:window-x="-8"
   inkscape:window-y="-8"
   inkscape:window-maximized="1"
   inkscape:current-layer="Ebene_1" />
<style
   type="text/css"
   id="style2">
	.st0{fill:#E9E1D0;}
</style>
<g
   transform="matrix(0.44,0,0,0.44232,0,0.044232)"
   id="g19"
   style="fill:#e9e1d0;fill-opacity:1">
	<path
   id="path6"
   class="st0"
   d="m 219.1,5.6 c 5,-6.4 15.3,-7.5 21.5,-2.1 2.5,2.1 4.3,5 5.2,8.2 11.4,39.1 22.8,78.1 34.1,117.2 -6.7,0 -13.4,0 -20.1,0 -3.2,-10.8 -6.2,-21.6 -9.4,-32.4 -13,0 -25.9,0 -38.9,0 -3.2,10.8 -6.3,21.6 -9.4,32.4 -6.7,0 -13.3,0 -20,0 10.8,-37.3 21.6,-74.5 32.4,-111.8 1.3,-4 1.8,-8.3 4.6,-11.5 m 11.8,23.9 c -4.8,16.2 -9.4,32.4 -14.1,48.6 9.4,0 18.8,0 28.2,0 -4.7,-16.2 -9.4,-32.4 -14.1,-48.6 z"
   style="fill:#e9e1d0;fill-opacity:1" />
	<path
   id="path8"
   class="st0"
   d="m 360.3,6.4 c 3.5,-5.1 10.2,-7.5 16.2,-6 5.4,1.3 9.6,5.9 11,11.2 11.3,39 22.7,78.1 34.1,117.1 -6.7,0.1 -13.4,0 -20.1,0 -3.1,-10.8 -6.2,-21.6 -9.4,-32.4 -12.9,0 -25.9,0 -38.8,0 -3.1,10.8 -6.3,21.6 -9.4,32.3 -6.7,0 -13.3,0 -20,0 10.8,-37.5 21.7,-74.9 32.6,-112.4 1.1,-3.1 1.6,-6.9 3.8,-9.8 m -1.7,71.7 c 9.4,0 18.8,0 28.1,0 -4.7,-16.2 -9.4,-32.5 -14.1,-48.7 -4.6,16.3 -9.3,32.5 -14,48.7 z"
   style="fill:#e9e1d0;fill-opacity:1" />
	<path
   id="path10"
   class="st0"
   d="m 264.8,0.3 h 72.7 v 19.6 c -8.9,0 -17.8,0 -26.8,0 0,36.3 0,72.6 0,108.9 h -19.2 c 0,-36.3 0,-72.6 0,-108.9 -8.9,0 -17.9,0 -26.8,0 0.1,-6.6 0.1,-13.1 0.1,-19.6 z"
   style="fill:#e9e1d0;fill-opacity:1" />
	<path
   id="path12"
   class="st0"
   d="m 442.9,1.1 c 1.8,-0.6 3.8,-0.9 5.8,-0.8 7.6,0 15.3,0 22.9,0 12.9,0.2 25.2,8.2 30.7,19.8 3.9,7.5 4.3,16.3 3.3,24.5 -0.7,8.6 -4.3,17.3 -10.9,23 -3.5,3.1 -7.9,5 -11.6,7.8 -2.1,1.6 -2.2,4.6 -1.1,6.8 10.1,15.7 20.7,31.1 31.1,46.6 -7.6,0 -15.2,0 -22.7,0 -9.9,-14.9 -19.7,-29.9 -29.6,-44.8 -2.9,-4.2 -3.7,-9.9 -2,-14.7 1.4,-3.7 4.6,-6.4 8.2,-7.8 6.9,-2.6 13.7,-6.8 17.5,-13.3 2.9,-4.9 2.8,-10.9 1.4,-16.3 -1.5,-7 -8.3,-12.4 -15.5,-12.2 -5,0 -9.9,0 -14.9,0 -2.2,-0.1 -4.3,1.9 -4.3,4.2 0,35 0,70 0,104.9 -6.4,0 -12.9,0 -19.3,0 0,-37.7 0,-75.3 0,-113 0,-6.5 4.7,-12.7 11,-14.7 z"
   style="fill:#e9e1d0;fill-opacity:1" />
	<path
   id="path14"
   class="st0"
   d="m 523.1,0.3 h 20.3 c 0,42.9 0,85.7 0,128.6 -6.8,0 -13.5,0 -20.3,0 z"
   style="fill:#e9e1d0;fill-opacity:1" />
	<path
   id="path18"
   class="st0"
   d="m 57.3,0 c 3.3,0 6.5,0 9.8,0 0,7.7 0,15.3 0,23 0,6.4 -0.1,12.8 -0.4,19.2 -0.4,9.2 -1,18.5 -2.5,27.6 -1,6.3 -3.2,12.3 -5.9,18.1 -4.4,9.3 -11.3,17.1 -19.1,23.7 -7,6.1 -15.2,10.6 -24,13.6 -4.9,1.7 -10,3 -15.2,3.7 0,-6.4 0,-12.8 0,-19.3 6.2,-0.9 12.2,-3.1 17.8,-6.1 6.6,-3.5 12.5,-8.2 17.5,-13.7 5.2,-5.7 9.3,-12.3 12.4,-19.3 3.7,-8.1 5.6,-16.8 7,-25.5 1.7,-11.1 2.4,-22.3 2.6,-33.5 0.1,-3.9 0,-7.7 0,-11.5 z"
   style="fill:#e9e1d0;fill-opacity:1" />
	<path
   id="path20"
   class="st0"
   d="m 71,0 c 6,0 12,0 18,0 0,42.9 0,85.9 0,128.8 -6,0 -12,0 -17.9,0 -0.1,-13.7 0,-27.4 0,-41.1 C 71,58.5 71.1,29.3 71,0 Z"
   style="fill:#e9e1d0;fill-opacity:1" />
	<path
   id="path22"
   class="st0"
   d="m 93,0 c 3.2,0 6.5,0 9.7,0 -0.1,13.1 0.3,26.2 1.9,39.2 1.3,10.1 3.1,20.3 7.1,29.7 3.8,9.1 9.3,17.6 16.5,24.4 6.8,6.5 15.1,11.5 24.1,14.4 2.5,0.8 5.1,1.4 7.7,1.8 0,6.4 0,12.8 0,19.3 -5.1,-0.7 -10.2,-2 -15.1,-3.7 -5.8,-2 -11.5,-4.7 -16.7,-8 -3.8,-2.4 -7.2,-5.3 -10.5,-8.4 -5.4,-5 -10.3,-10.7 -14,-17.2 -2.9,-5 -5,-10.5 -6.6,-16 C 95.6,69.9 95,64.2 94.4,58.4 93.4,46 92.9,33.6 93,21.1 93,14.1 93,7 93,0 Z"
   style="fill:#e9e1d0;fill-opacity:1" />
	<path
   id="path24"
   class="st0"
   d="m 57.3,0 c 0,3.8 0,7.6 0,11.4 -0.3,11.2 -1,22.4 -2.6,33.5 -1.3,8.7 -3.3,17.4 -7,25.5 -3.1,7 -7.2,13.6 -12.4,19.3 -5,5.5 -10.9,10.2 -17.5,13.7 -5.6,2.9 -11.5,5.1 -17.8,6.1 0,6.4 0,12.8 0,19.3 5.2,-0.7 10.3,-2 15.2,-3.7 8.7,-3 17,-7.5 24,-13.6 C 47,104.9 53.9,97.1 58.3,87.8 61,82 63.2,76 64.2,69.7 c 1.5,-9.1 2.1,-18.4 2.5,-27.6 0.3,-6.4 0.4,-12.8 0.4,-19.2 0,-7.7 0,-15.3 0,-23 C 63.8,0 60.6,0 57.3,0"
   style="fill:#e9e1d0;fill-opacity:1" />
	<path
   id="path26"
   class="st0"
   d="m 71,0 c 0,29.3 0,58.5 0,87.8 0,13.7 0,27.4 0,41.1 6,-0.1 12,0 17.9,0 C 89,85.9 89,43 89,0 83,0 77,0 71,0"
   style="fill:#e9e1d0;fill-opacity:1" />
	<path
   id="path28"
   class="st0"
   d="m 93,0 c 0,7 0,14.1 0,21.1 -0.1,12.4 0.3,24.9 1.5,37.3 0.6,5.7 1.2,11.5 2.7,17.1 1.6,5.6 3.7,11 6.6,16 3.7,6.5 8.5,12.2 14,17.2 3.3,3 6.7,6 10.5,8.4 5.2,3.4 10.8,6 16.7,8 4.9,1.7 9.9,3 15.1,3.7 0,-6.4 0,-12.8 0,-19.3 -2.6,-0.4 -5.2,-1 -7.7,-1.8 -9,-2.9 -17.3,-7.9 -24.1,-14.4 C 121.1,86.5 115.6,78 111.8,68.9 107.8,59.5 106,49.3 104.7,39.2 103.1,26.2 102.7,13.1 102.8,0 99.5,0 96.2,0 93,0"
   style="fill:#e9e1d0;fill-opacity:1" />
	<path
   id="path30"
   class="st0"
   d="m 595,105.1 h 4.2 v 23.8 l -19.8,-16.1 c -1.9,-1.5 -4.1,-3.3 -6.6,-3.3 -3.9,0 -7,3.4 -7,7.2 0,3.8 3,6.8 6.7,7.1 v 4.6 c -6.5,-0.7 -10.9,-5 -10.9,-11.7 0,-6.2 4.6,-11.6 11,-11.6 2.7,0 5.5,1 7.6,2.7 l 14.8,12.1 z"
   style="fill:#e9e1d0;fill-opacity:1" />
	<path
   id="path32"
   class="st0"
   d="m 563.9,84.1 13.3,9.8 0.1,-0.1 c -0.5,-1.1 -0.9,-2.3 -0.9,-3.6 0,-6 5.6,-10.6 11.5,-10.6 6.7,0 12.1,5.5 12.1,12.1 0,6.3 -5.3,12.2 -11.8,12.2 -3.7,0 -6.8,-1.9 -9.7,-4 L 561.6,87.4 Z m 24.5,-0.2 c -4.6,0 -7.9,3.9 -7.9,7.8 0,4 3.7,7.8 7.7,7.8 4.2,0 7.8,-3.6 7.8,-7.8 -0.1,-4.1 -3.5,-7.8 -7.6,-7.8 z"
   style="fill:#e9e1d0;fill-opacity:1" />
	<path
   id="path34"
   class="st0"
   d="m 561.6,59.5 c 0,10.5 8.6,19.1 19.3,19.1 10.5,0 19.1,-8.6 19.1,-19.1 0,-10.8 -8.4,-19.3 -19.2,-19.3 -10.7,0 -19.2,8.5 -19.2,19.3 z m 19.3,-14.8 c 8.3,0 14.8,6.6 14.8,15.1 0,7.9 -6.6,14.4 -14.8,14.4 -8.3,0 -15,-6.4 -15,-14.4 0,-8.6 6.5,-15.1 15,-15.1 z"
   style="fill:#e9e1d0;fill-opacity:1" />
	<path
   id="path36"
   class="st0"
   d="m 561.6,19.4 c 0,10.5 8.6,19.1 19.3,19.1 10.5,0 19.1,-8.6 19.1,-19.1 C 600,8.5 591.6,0 580.8,0 570.1,0 561.6,8.5 561.6,19.4 Z M 580.9,4.6 c 8.3,0 14.8,6.6 14.8,15.1 0,7.9 -6.6,14.4 -14.8,14.4 -8.3,0 -15,-6.4 -15,-14.4 0,-8.7 6.5,-15.1 15,-15.1 z"
   style="fill:#e9e1d0;fill-opacity:1" />
</g>
</svg>
