<?xml version="1.0" encoding="UTF-8" standalone="no"?>
<!-- Generator: Adobe Illustrator 26.0.3, SVG Export Plug-In . SVG Version: 6.00 Build 0)  -->

<svg
   version="1.1"
   id="svg2"
   x="0px"
   y="0px"
   viewBox="0 0 264 35.017117"
   xml:space="preserve"
   sodipodi:docname="atarilynx.svg"
   width="264"
   height="35.017117"
   inkscape:version="1.1.2 (b8e25be833, 2022-02-05)"
   xmlns:inkscape="http://www.inkscape.org/namespaces/inkscape"
   xmlns:sodipodi="http://sodipodi.sourceforge.net/DTD/sodipodi-0.dtd"
   xmlns="http://www.w3.org/2000/svg"
   xmlns:svg="http://www.w3.org/2000/svg"
   xmlns:bx="https://boxy-svg.com"><defs
   id="defs19" /><sodipodi:namedview
   id="namedview17"
   pagecolor="#ffffff"
   bordercolor="#666666"
   borderopacity="1.0"
   inkscape:pageshadow="2"
   inkscape:pageopacity="0.0"
   inkscape:pagecheckerboard="0"
   showgrid="false"
   inkscape:zoom="0.55104167"
   inkscape:cx="959.09263"
   inkscape:cy="540.79395"
   inkscape:window-width="2560"
   inkscape:window-height="1387"
   inkscape:window-x="-8"
   inkscape:window-y="-8"
   inkscape:window-maximized="1"
   inkscape:current-layer="svg2" />
<style
   type="text/css"
   id="style2">
	.st0{fill:#E9E1D0;}
</style>
<g
   transform="scale(0.44,0.438811)"
   id="g14"
   style="fill:#e9e1d0;fill-opacity:1">
	<polygon
   id="polygon12"
   bx:origin="-5.35 -2.913"
   class="st0"
   points="472.7,79.5 494.1,67.7 472.3,59.2 416.3,79.5 "
   style="fill:#e9e1d0;fill-opacity:1">
	</polygon>
	<polygon
   id="polygon14"
   bx:origin="-2.707 -0.012"
   class="st0"
   points="575.2,45.5 540.4,45.5 516,34.2 500.9,40.4 420,0.6 486.6,0.6 "
   style="fill:#e9e1d0;fill-opacity:1">
	</polygon>
	<polygon
   id="polygon16"
   bx:origin="-6.711 -0.041"
   class="st0"
   points="543.6,0.8 522.2,12.7 544,21.1 600,0.8 "
   style="fill:#e9e1d0;fill-opacity:1">
	</polygon>
	<polygon
   id="polygon18"
   bx:origin="-2.843 -0.776"
   class="st0"
   points="441.1,34.8 475.9,34.8 500.3,46.1 515.4,39.9 596.3,79.8 529.7,79.8 "
   style="fill:#e9e1d0;fill-opacity:1">
	</polygon>
	<rect
   id="rect20"
   x="0"
   y="0"
   bx:origin="-0.001 0"
   class="st0"
   width="44.099998"
   height="53.900002"
   style="fill:#e9e1d0;fill-opacity:1">
	</rect>
	<rect
   id="rect22"
   x="0"
   y="60.5"
   bx:origin="0 -3.667"
   class="st0"
   width="113"
   height="16.5"
   style="fill:#e9e1d0;fill-opacity:1">
	</rect>
	<polygon
   id="polygon24"
   bx:origin="-0.813 0"
   class="st0"
   points="159.9,30.3 134,49.3 71.7,0 124.1,0 "
   style="fill:#e9e1d0;fill-opacity:1">
	</polygon>
	<polygon
   id="polygon26"
   bx:origin="-1.137 0"
   class="st0"
   points="179.2,77 179.2,52.3 259.2,0 220.6,0 140.6,52.3 137.9,52.3 137.9,77 "
   style="fill:#e9e1d0;fill-opacity:1">
	</polygon>
	<polygon
   id="polygon28"
   bx:origin="-6.002 -0.12"
   class="st0"
   points="308.8,77 264.7,77 264.7,8.3 308.8,35.8 "
   style="fill:#e9e1d0;fill-opacity:1">
	</polygon>
	<polygon
   id="polygon30"
   bx:origin="-1.96 0"
   class="st0"
   points="408,77 408,0 386.5,0 386.5,54.2 306,0 270.2,0 383.2,77 "
   style="fill:#e9e1d0;fill-opacity:1">
	</polygon>
</g>
</svg>
