<?xml version="1.0" encoding="UTF-8" standalone="no"?>
<!-- Generator: Adobe Illustrator 26.0.3, SVG Export Plug-In . SVG Version: 6.00 Build 0)  -->

<svg
   version="1.1"
   id="Layer_1"
   x="0px"
   y="0px"
   viewBox="0 0 264 38.081402"
   xml:space="preserve"
   sodipodi:docname="atari800.svg"
   width="264"
   height="38.081402"
   inkscape:version="1.1.2 (b8e25be833, 2022-02-05)"
   xmlns:inkscape="http://www.inkscape.org/namespaces/inkscape"
   xmlns:sodipodi="http://sodipodi.sourceforge.net/DTD/sodipodi-0.dtd"
   xmlns="http://www.w3.org/2000/svg"
   xmlns:svg="http://www.w3.org/2000/svg"
   xmlns:bx="https://boxy-svg.com"><defs
   id="defs22" /><sodipodi:namedview
   id="namedview20"
   pagecolor="#ffffff"
   bordercolor="#666666"
   borderopacity="1.0"
   inkscape:pageshadow="2"
   inkscape:pageopacity="0.0"
   inkscape:pagecheckerboard="0"
   showgrid="false"
   inkscape:zoom="0.55104167"
   inkscape:cx="959.09263"
   inkscape:cy="540.79395"
   inkscape:window-width="2560"
   inkscape:window-height="1387"
   inkscape:window-x="-8"
   inkscape:window-y="-8"
   inkscape:window-maximized="1"
   inkscape:current-layer="Layer_1" />
<style
   type="text/css"
   id="style2">
	.st0{fill:#E9E1D0;}
</style>
<g
   transform="matrix(0.44,0,0,0.435216,0,0.0435216)"
   id="g17"
   style="fill:#e9e1d0;fill-opacity:1">
	<path
   id="path10"
   bx:origin="-1.3 0"
   class="st0"
   d="m 111.2,3.8 c 3.4,-4.3 10.4,-5.1 14.6,-1.4 1.7,1.4 2.9,3.4 3.5,5.5 7.7,26.5 15.4,52.9 23.1,79.4 -4.5,0 -9.1,0 -13.6,0 -2.1,-7.3 -4.2,-14.6 -6.3,-21.9 -8.8,0 -17.6,0 -26.3,0 -2.2,7.3 -4.3,14.6 -6.4,21.9 -4.5,0 -9,0 -13.6,0 7.3,-25.3 14.6,-50.5 22,-75.8 0.7,-2.6 1.1,-5.6 3,-7.7 m 8,16.2 c -3.2,11 -6.4,22 -9.6,32.9 6.4,0 12.8,0 19.1,0 C 125.6,42 122.4,31 119.2,20 Z"
   style="fill:#e9e1d0;fill-opacity:1" />
	<path
   id="path12"
   bx:origin="-2.755 0"
   class="st0"
   d="m 206.8,4.4 c 2.4,-3.4 6.9,-5.1 11,-4 3.7,0.9 6.5,4 7.5,7.6 7.7,26.5 15.4,52.9 23.1,79.4 -4.5,0 -9.1,0 -13.6,0 -2.1,-7.3 -4.2,-14.6 -6.3,-21.9 -8.8,0 -17.5,0 -26.3,0 -2.1,7.3 -4.3,14.6 -6.4,21.9 -4.5,0 -9,0 -13.5,0 7.3,-25.4 14.7,-50.8 22.1,-76.1 0.7,-2.4 1,-5 2.4,-6.9 M 205.7,53 c 6.4,0 12.7,0 19.1,0 -3.2,-11 -6.4,-22 -9.5,-33 -3.2,11 -6.4,22 -9.6,33 z"
   style="fill:#e9e1d0;fill-opacity:1" />
	<path
   id="path14"
   bx:origin="-2.885 -0.002"
   class="st0"
   d="m 142.2,0.2 h 49.3 v 13.3 c -6,0 -12.1,0 -18.1,0 0,24.6 0,49.2 0,73.8 h -13 c 0,-24.6 0,-49.2 0,-73.8 -6.1,0 -12.1,0 -18.1,0 V 0.2 Z"
   style="fill:#e9e1d0;fill-opacity:1" />
	<path
   id="path16"
   bx:origin="-4.649 -0.002"
   class="st0"
   d="m 262.8,0.7 c 1.2,-0.4 2.6,-0.6 3.9,-0.5 5.2,0 10.4,0 15.5,0 8.7,0.2 17,5.6 20.8,13.4 2.6,5.1 2.9,11 2.2,16.6 -0.5,5.9 -2.9,11.7 -7.4,15.6 -2.4,2.1 -5.3,3.4 -7.9,5.3 -1.4,1.1 -1.5,3.1 -0.7,4.6 6.9,10.6 14,21.1 21,31.6 -5.1,0 -10.3,0 -15.4,0 -6.7,-10.1 -13.4,-20.2 -20.1,-30.3 -2,-2.9 -2.5,-6.7 -1.3,-10 0.9,-2.5 3.1,-4.4 5.6,-5.3 4.7,-1.8 9.3,-4.6 11.9,-9 2,-3.3 1.9,-7.4 1,-11 -1,-4.7 -5.6,-8.4 -10.5,-8.3 -3.4,0 -6.7,0 -10.1,0 -1.5,0 -2.9,1.3 -2.9,2.8 0,23.7 0,47.4 0,71.1 -4.4,0 -8.7,0 -13.1,0 0,-25.5 0,-51 0,-76.5 0.1,-4.5 3.3,-8.7 7.5,-10.1 z"
   style="fill:#e9e1d0;fill-opacity:1" />
	<path
   id="path18"
   bx:origin="-23.026 -0.002"
   class="st0"
   d="M 317.2,0.2 H 331 c 0,29 0,58.1 0,87.1 -4.6,0 -9.2,0 -13.8,0 z"
   style="fill:#e9e1d0;fill-opacity:1" />
	<path
   id="path22"
   bx:origin="-5.873 0"
   class="st0"
   d="m 556.4,87.3 c -24.1,0 -43.7,-19.6 -43.7,-43.7 0,-24.1 19.6,-43.7 43.6,-43.7 24.1,0.1 43.7,19.7 43.7,43.8 0,24 -19.6,43.6 -43.6,43.6 z m 0,-84.1 C 534.1,3.2 516,21.3 516,43.6 516,65.9 534.1,84 556.4,84 578.7,84 596.8,65.9 596.8,43.6 596.8,21.4 578.6,3.2 556.4,3.2 Z m 0,70.2 C 540,73.4 526.7,60.1 526.7,43.7 526.7,27.3 540,14 556.4,14 c 16.4,0 29.7,13.3 29.7,29.7 0,16.3 -13.3,29.7 -29.7,29.7 z m 0,-56.3 c -14.6,0 -26.5,11.9 -26.5,26.5 0,14.6 11.9,26.5 26.5,26.5 14.6,0 26.5,-11.9 26.5,-26.5 C 582.9,29 571,17.1 556.4,17.1 Z"
   style="fill:#e9e1d0;fill-opacity:1" />
	<path
   id="path26"
   bx:origin="-4.85 0"
   class="st0"
   d="m 467,87.3 c -24.1,0 -43.7,-19.6 -43.7,-43.7 0,-24 19.6,-43.6 43.7,-43.6 24.1,0 43.7,19.6 43.7,43.7 -0.1,24 -19.6,43.6 -43.7,43.6 z m 0,-84.1 c -22.3,0 -40.4,18.1 -40.4,40.4 0,22.3 18.1,40.4 40.4,40.4 22.3,0 40.4,-18.1 40.4,-40.4 C 507.4,21.4 489.3,3.2 467,3.2 Z m 0,70.2 c -16.4,0 -29.7,-13.3 -29.7,-29.7 0,-16.4 13.3,-29.7 29.7,-29.7 16.4,0 29.7,13.3 29.7,29.7 0,16.3 -13.3,29.7 -29.7,29.7 z m 0,-56.3 c -14.6,0 -26.5,11.9 -26.5,26.5 0,14.6 11.9,26.5 26.5,26.5 14.6,0 26.5,-11.9 26.5,-26.5 C 493.5,29 481.6,17.1 467,17.1 Z"
   style="fill:#e9e1d0;fill-opacity:1" />
	<path
   id="path30"
   bx:origin="-5.915 0"
   class="st0"
   d="m 392.2,87.3 c -16.9,0 -30.6,-13.7 -30.6,-30.6 0,-10.1 5.1,-19.7 13.4,-25.3 -2.1,-3.3 -3.2,-7.1 -3.2,-11 C 371.8,9.1 381,0 392.2,0 c 11.2,0 20.4,9.1 20.4,20.4 0,4 -1.1,7.7 -3.2,11 8.3,5.7 13.4,15.2 13.4,25.3 0,16.9 -13.7,30.6 -30.6,30.6 z m 0,-84.1 c -9.5,0 -17.2,7.7 -17.2,17.2 0,3.8 1.2,7.5 3.6,10.5 l 1.1,1.4 -1.6,0.9 c -8.2,4.9 -13.3,13.9 -13.3,23.5 0,15.1 12.3,27.4 27.4,27.4 15.1,0 27.4,-12.3 27.4,-27.4 0,-9.6 -5.1,-18.6 -13.3,-23.5 l -1.5,-0.9 1.1,-1.4 c 2.3,-3 3.6,-6.7 3.6,-10.5 -0.1,-9.5 -7.8,-17.2 -17.3,-17.2 z m 0,71.4 c -9.9,0 -17.9,-8 -17.9,-17.9 0,-9.9 8,-17.9 17.9,-17.9 9.9,0 17.9,8 17.9,17.9 0,9.9 -8,17.9 -17.9,17.9 z m 0,-32.6 c -8.1,0 -14.7,6.6 -14.7,14.7 0,8.1 6.6,14.7 14.7,14.7 8.1,0 14.7,-6.6 14.7,-14.7 0,-8.1 -6.6,-14.7 -14.7,-14.7 z m 0,-12.6 c -5,0 -9,-4 -9,-9 0,-5 4,-9 9,-9 5,0 9,4 9,9 0,4.9 -4,9 -9,9 z m 0,-14.8 c -3.2,0 -5.8,2.6 -5.8,5.8 0,3.2 2.6,5.8 5.8,5.8 3.2,0 5.8,-2.6 5.8,-5.8 0,-3.2 -2.6,-5.8 -5.8,-5.8 z"
   style="fill:#e9e1d0;fill-opacity:1" />
	<path
   id="path36"
   bx:origin="-0.001 -0.29"
   class="st0"
   d="m 25.3,16.5 c 1.4,0 2.9,0 4.3,0 0,3.4 0,6.8 0,10.1 0,2.8 -0.1,5.6 -0.2,8.5 -0.2,4.1 -0.4,8.1 -1.1,12.2 -0.5,2.8 -1.4,5.4 -2.6,8 -1.9,4.1 -5,7.6 -8.4,10.5 -3.1,2.7 -6.7,4.7 -10.6,6 -2.2,0.7 -4.4,1.2 -6.7,1.6 0,-2.8 0,-5.7 0,-8.5 2.7,-0.4 5.4,-1.4 7.8,-2.7 2.9,-1.5 5.5,-3.6 7.7,-6 2.3,-2.5 4.1,-5.4 5.5,-8.5 1.6,-3.6 2.5,-7.4 3.1,-11.3 0.7,-4.9 1,-9.9 1.2,-14.8 0,-1.7 0,-3.4 0,-5.1 z"
   style="fill:#e9e1d0;fill-opacity:1" />
	<path
   id="path38"
   bx:origin="-3.952 -0.29"
   class="st0"
   d="m 31.3,16.5 c 2.6,0 5.3,0 7.9,0 0,19 0,37.9 0,56.8 -2.6,0 -5.3,0 -7.9,0 0,-6 0,-12.1 0,-18.1 0,-12.9 0.1,-25.8 0,-38.7 z"
   style="fill:#e9e1d0;fill-opacity:1" />
	<path
   id="path40"
   bx:origin="-1.388 -0.29"
   class="st0"
   d="m 41,16.5 c 1.4,0 2.9,0 4.3,0 0,5.8 0.2,11.6 0.8,17.3 0.6,4.5 1.4,9 3.1,13.1 1.7,4 4.1,7.8 7.3,10.8 3,2.9 6.7,5.1 10.7,6.4 1.1,0.4 2.2,0.6 3.4,0.8 0,2.8 0,5.7 0,8.5 -2.3,-0.3 -4.5,-0.9 -6.7,-1.6 -2.6,-0.9 -5.1,-2.1 -7.4,-3.5 -1.7,-1.1 -3.2,-2.4 -4.6,-3.7 -2.4,-2.2 -4.6,-4.7 -6.2,-7.6 -1.3,-2.2 -2.2,-4.6 -2.9,-7.1 -0.7,-2.5 -0.9,-5 -1.2,-7.5 -0.5,-5.5 -0.7,-11 -0.6,-16.5 0,-3.2 0,-6.3 0,-9.4 z"
   style="fill:#e9e1d0;fill-opacity:1" />
	<path
   id="path42"
   bx:origin="-3.952 -0.29"
   class="st0"
   d="m 31.3,16.5 c 0,12.9 0,25.8 0,38.7 0,6 0,12.1 0,18.1 2.6,0 5.3,0 7.9,0 0,-18.9 0,-37.9 0,-56.8 -2.6,0 -5.2,0 -7.9,0"
   style="fill:#e9e1d0;fill-opacity:1" />
	<path
   id="path44"
   bx:origin="-1.388 -0.29"
   class="st0"
   d="m 41,16.5 c 0,3.1 0,6.2 0,9.3 0,5.5 0.2,11 0.6,16.5 0.3,2.5 0.5,5.1 1.2,7.5 0.7,2.4 1.6,4.8 2.9,7.1 1.6,2.9 3.8,5.4 6.2,7.6 1.5,1.3 3,2.6 4.6,3.7 2.3,1.5 4.8,2.6 7.4,3.5 2.2,0.7 4.4,1.3 6.7,1.6 0,-2.8 0,-5.7 0,-8.5 C 69.4,64.6 68.3,64.4 67.2,64 63.2,62.7 59.6,60.5 56.5,57.6 53.3,54.6 50.9,50.9 49.2,46.8 47.4,42.6 46.6,38.2 46.1,33.7 45.4,28 45.2,22.2 45.3,16.4 43.9,16.5 42.5,16.5 41,16.5"
   style="fill:#e9e1d0;fill-opacity:1" />
</g>
</svg>
