<?xml version="1.0" encoding="UTF-8" standalone="no"?>
<!-- Generator: Adobe Illustrator 26.0.3, SVG Export Plug-In . SVG Version: 6.00 Build 0)  -->

<svg
   version="1.1"
   id="Layer_1"
   x="0px"
   y="0px"
   viewBox="0 0 220.4 67.5"
   xml:space="preserve"
   sodipodi:docname="atari.svg"
   width="220.39999"
   height="67.5"
   inkscape:version="1.1.2 (b8e25be833, 2022-02-05)"
   xmlns:inkscape="http://www.inkscape.org/namespaces/inkscape"
   xmlns:sodipodi="http://sodipodi.sourceforge.net/DTD/sodipodi-0.dtd"
   xmlns:xlink="http://www.w3.org/1999/xlink"
   xmlns="http://www.w3.org/2000/svg"
   xmlns:svg="http://www.w3.org/2000/svg"><defs
   id="defs19" /><sodipodi:namedview
   id="namedview17"
   pagecolor="#ffffff"
   bordercolor="#666666"
   borderopacity="1.0"
   inkscape:pageshadow="2"
   inkscape:pageopacity="0.0"
   inkscape:pagecheckerboard="0"
   showgrid="false"
   inkscape:zoom="3.8983052"
   inkscape:cx="110.17608"
   inkscape:cy="33.860869"
   inkscape:window-width="2560"
   inkscape:window-height="1387"
   inkscape:window-x="-8"
   inkscape:window-y="-8"
   inkscape:window-maximized="1"
   inkscape:current-layer="Layer_1" />
<style
   type="text/css"
   id="style2">
	.st0{clip-path:url(#SVGID_00000134215229026653903810000013759595529306921361_);}
	.st1{fill-rule:evenodd;clip-rule:evenodd;fill:#E9E1D0;}
</style>
<g
   id="g14"
   transform="translate(-25.5)"
   style="fill:#e9e1d0;fill-opacity:1">
	<defs
   id="defs5">
		<rect
   id="SVGID_1_"
   width="271.39999"
   height="67.5"
   x="0"
   y="0" />
	</defs>
	<clipPath
   id="SVGID_00000016049618599836039760000009346237663726535825_">
		<use
   xlink:href="#SVGID_1_"
   style="overflow:visible"
   id="use7"
   x="0"
   y="0"
   width="100%"
   height="100%" />
	</clipPath>
	<g
   clip-path="url(#SVGID_00000016049618599836039760000009346237663726535825_)"
   id="g12"
   style="fill:#e9e1d0;fill-opacity:1">
		<path
   class="st1"
   d="m 138.3,67.5 v 0 c -0.8,0 -1.5,-0.2 -2.1,-0.5 v 0 0 c -0.6,-0.4 -1.1,-0.9 -1.5,-1.5 v 0 0 c -0.4,-0.6 -0.5,-1.3 -0.5,-2.1 v 0 0 c 0,-0.8 0.2,-1.5 0.5,-2.1 v 0 0 c 0.4,-0.6 0.8,-1.1 1.5,-1.5 v 0 0 c 0.6,-0.4 1.3,-0.5 2.1,-0.5 v 0 0 c 0.4,0 0.8,0 1.2,0.1 v 0 0 c 0.4,0.1 0.7,0.2 1,0.4 v 0 l -0.3,1.8 v 0 c -0.6,-0.2 -1.1,-0.3 -1.5,-0.3 v 0 0 c -0.6,0 -1.1,0.2 -1.4,0.5 v 0 0 c -0.3,0.4 -0.5,0.9 -0.5,1.5 v 0 0 c 0,0.7 0.2,1.2 0.5,1.5 v 0 0 c 0.3,0.4 0.8,0.5 1.5,0.5 v 0 0 c 0.2,0 0.5,0 0.7,-0.1 v 0 0 c 0.2,0 0.5,-0.1 0.8,-0.3 v 0 l 0.3,1.8 v 0 c -0.8,0.6 -1.5,0.8 -2.3,0.8 v 0 0 0 0 0 0 0 z m 9.4,-0.2 v -7.9 h 2.5 v 6.2 h 2.8 v 1.8 h -5.3 v -0.1 0 0 0 0 0 z m 14.9,-3 h 1.5 l -0.8,-3.5 -0.7,3.5 v 0 0 0 0 0 0 z m 14.3,3.2 v 0 c -1.1,0 -2,-0.2 -2.7,-0.6 v 0 l 0.6,-1.8 v 0 c 0.8,0.3 1.5,0.4 2.1,0.4 v 0 0 c 0.3,0 0.6,0 0.7,-0.1 v 0 0 c 0.2,-0.1 0.2,-0.2 0.2,-0.4 v 0 0 c 0,-0.1 0,-0.2 -0.1,-0.3 v 0 0 c -0.1,-0.1 -0.3,-0.2 -0.5,-0.3 v 0 0 c -0.3,-0.1 -0.6,-0.2 -1.1,-0.4 v 0 0 c -0.6,-0.2 -1.1,-0.5 -1.5,-0.9 v 0 0 c -0.3,-0.4 -0.5,-0.9 -0.5,-1.4 v 0 0 c 0,-0.8 0.3,-1.5 0.8,-1.9 v 0 0 c 0.6,-0.4 1.3,-0.7 2.3,-0.7 v 0 0 c 0.5,0 1,0.1 1.5,0.2 v 0 0 c 0.5,0.1 0.9,0.3 1.3,0.5 v 0 l -0.6,1.7 v 0 c -0.4,-0.1 -0.8,-0.3 -1.1,-0.3 v 0 0 c -0.3,-0.1 -0.6,-0.1 -0.9,-0.1 v 0 0 c -0.5,0 -0.8,0.1 -0.8,0.4 v 0 0 c 0,0.1 0.1,0.3 0.2,0.4 v 0 0 c 0.2,0.1 0.5,0.2 1,0.4 v 0 0 c 0.8,0.2 1.4,0.5 1.8,1 v 0 0 c 0.4,0.4 0.6,1 0.6,1.6 v 0 0 c 0,0.9 -0.3,1.5 -0.8,2 v 0 0 c -0.6,0.3 -1.5,0.6 -2.5,0.6 v 0 0 0 0 0 0 0 z m 12.9,0 v 0 c -1.1,0 -2,-0.2 -2.7,-0.6 v 0 l 0.6,-1.8 v 0 c 0.8,0.3 1.5,0.4 2.1,0.4 v 0 0 c 0.3,0 0.6,0 0.7,-0.1 v 0 0 c 0.2,-0.1 0.2,-0.2 0.2,-0.4 v 0 0 c 0,-0.1 0,-0.2 -0.1,-0.3 v 0 0 c -0.1,-0.1 -0.3,-0.2 -0.5,-0.3 v 0 0 C 189.8,64.3 189.5,64.2 189,64 v 0 0 c -0.6,-0.2 -1.1,-0.5 -1.5,-0.9 v 0 0 C 187.2,62.7 187,62.2 187,61.7 v 0 0 c 0,-0.8 0.3,-1.5 0.8,-1.9 v 0 0 c 0.6,-0.4 1.3,-0.7 2.3,-0.7 v 0 0 c 0.5,0 1,0.1 1.5,0.2 v 0 0 c 0.5,0.1 0.9,0.3 1.3,0.5 v 0 l -0.6,1.7 v 0 c -0.4,-0.1 -0.8,-0.3 -1.1,-0.3 v 0 0 c -0.3,-0.1 -0.6,-0.1 -0.9,-0.1 v 0 0 c -0.5,0 -0.8,0.1 -0.8,0.4 v 0 0 c 0,0.1 0.1,0.3 0.2,0.4 v 0 0 c 0.2,0.1 0.5,0.2 1,0.4 v 0 0 c 0.8,0.2 1.4,0.5 1.8,1 v 0 0 c 0.4,0.4 0.6,1 0.6,1.6 v 0 0 c 0,0.9 -0.3,1.5 -0.8,2 v 0 0 c -0.6,0.3 -1.4,0.6 -2.5,0.6 v 0 0 0 0 0 0 0 z m 10.6,-0.2 v -7.9 h 2.7 v 7.9 h -2.7 v 0 0 0 0 0 0 z m 14.1,0.2 v 0 c -0.8,0 -1.5,-0.2 -2.1,-0.5 v 0 0 c -0.6,-0.4 -1.1,-0.9 -1.5,-1.5 v 0 0 c -0.4,-0.6 -0.5,-1.3 -0.5,-2.1 v 0 0 c 0,-0.8 0.2,-1.5 0.5,-2.1 v 0 0 c 0.4,-0.6 0.8,-1.1 1.5,-1.5 v 0 0 c 0.6,-0.4 1.3,-0.5 2.1,-0.5 v 0 0 c 0.4,0 0.8,0 1.2,0.1 v 0 0 c 0.4,0.1 0.7,0.2 1,0.4 v 0 l -0.3,1.8 v 0 c -0.6,-0.2 -1.1,-0.3 -1.5,-0.3 v 0 0 c -0.6,0 -1.1,0.2 -1.4,0.5 v 0 0 c -0.3,0.4 -0.5,0.9 -0.5,1.5 v 0 0 c 0,0.7 0.2,1.2 0.5,1.5 v 0 0 c 0.4,0.4 0.8,0.5 1.5,0.5 v 0 0 c 0.2,0 0.5,0 0.7,-0.1 v 0 0 c 0.2,0 0.5,-0.1 0.8,-0.3 v 0 l 0.3,1.8 v 0 c -0.8,0.6 -1.5,0.8 -2.3,0.8 v 0 0 0 0 0 0 0 z m 11.9,0 v 0 c -1.1,0 -2,-0.2 -2.7,-0.6 v 0 l 0.6,-1.8 v 0 c 0.8,0.3 1.5,0.4 2.1,0.4 v 0 0 c 0.3,0 0.6,0 0.7,-0.1 v 0 0 c 0.2,-0.1 0.2,-0.2 0.2,-0.4 v 0 0 c 0,-0.1 0,-0.2 -0.1,-0.3 v 0 0 c -0.1,-0.1 -0.3,-0.2 -0.5,-0.3 v 0 0 c -0.3,-0.1 -0.6,-0.2 -1.1,-0.4 v 0 0 c -0.6,-0.2 -1.1,-0.5 -1.5,-0.9 v 0 0 c -0.3,-0.4 -0.5,-0.9 -0.5,-1.4 v 0 0 c 0,-0.8 0.3,-1.5 0.8,-1.9 v 0 0 c 0.6,-0.4 1.3,-0.7 2.3,-0.7 v 0 0 c 0.5,0 1,0.1 1.5,0.2 v 0 0 c 0.5,0.1 0.9,0.3 1.3,0.5 v 0 l -0.6,1.7 v 0 c -0.4,-0.1 -0.8,-0.3 -1.1,-0.3 v 0 0 c -0.3,-0.1 -0.6,-0.1 -0.9,-0.1 v 0 0 c -0.5,0 -0.8,0.1 -0.8,0.4 v 0 0 c 0,0.1 0.1,0.3 0.2,0.4 v 0 0 c 0.2,0.1 0.5,0.2 1,0.4 v 0 0 c 0.8,0.2 1.4,0.5 1.8,1 v 0 0 c 0.4,0.4 0.6,1 0.6,1.6 v 0 0 c 0,0.9 -0.3,1.5 -0.8,2 v 0 0 c -0.6,0.3 -1.4,0.6 -2.5,0.6 v 0 0 0 0 0 0 0 z M 44.7,64.3 h 1.5 l -0.7,-3.5 -0.8,3.5 v 0 0 0 0 0 0 z M 59,62.7 h 0.4 v 0 c 0.6,0 1,-0.1 1.2,-0.2 v 0 0 C 60.8,62.4 61,62.2 61,61.8 v 0 0 c 0,-0.3 -0.1,-0.5 -0.3,-0.6 v 0 0 C 60.5,61.1 60.2,61 59.8,61 v 0 H 59 v 1.7 0 0 0 0 0 0 z m 15.4,4.8 v 0 c -0.8,0 -1.5,-0.2 -2.1,-0.5 v 0 0 c -0.6,-0.4 -1.1,-0.9 -1.5,-1.5 v 0 0 c -0.4,-0.6 -0.5,-1.3 -0.5,-2.1 v 0 0 c 0,-0.8 0.2,-1.5 0.5,-2.1 v 0 0 c 0.4,-0.6 0.8,-1.1 1.5,-1.5 v 0 0 c 0.6,-0.4 1.3,-0.5 2.1,-0.5 v 0 0 c 0.4,0 0.8,0 1.2,0.1 v 0 0 c 0.4,0.1 0.7,0.2 1,0.4 v 0 l -0.3,1.8 v 0 c -0.6,-0.2 -1.1,-0.3 -1.5,-0.3 v 0 0 c -0.6,0 -1.1,0.2 -1.4,0.5 v 0 0 c -0.3,0.4 -0.5,0.9 -0.5,1.5 v 0 0 c 0,0.7 0.2,1.2 0.5,1.5 v 0 0 c 0.3,0.4 0.8,0.5 1.5,0.5 v 0 0 c 0.2,0 0.5,0 0.7,-0.1 v 0 0 c 0.2,0 0.5,-0.1 0.8,-0.3 v 0 l 0.3,1.8 v 0 c -0.8,0.6 -1.5,0.8 -2.3,0.8 v 0 0 0 0 0 0 0 z m 11.9,-3.2 h 1.5 l -0.7,-3.5 -0.8,3.5 v 0 0 0 0 0 0 z m 14.3,0.9 h 0.8 v 0 c 0.6,0 1,-0.2 1.3,-0.5 v 0 0 c 0.3,-0.4 0.5,-0.8 0.5,-1.4 v 0 0 c 0,-0.6 -0.1,-1 -0.4,-1.3 v 0 0 c -0.3,-0.3 -0.7,-0.5 -1.3,-0.5 v 0 h -0.8 v 3.7 h -0.1 v 0 0 0 0 0 z m 12.5,2.1 v -7.9 h 5.6 v 1.8 h -2.8 v 1.4 h 2.5 V 64 h -2.5 v 1.5 h 2.8 v 1.8 h -5.6 v 0 0 0 0 0 0 z M 43.5,29.9 C 48.7,22 48.6,5.2 48.6,1 h 3.9 c 0,1.6 0.8,17.7 -1.9,27.8 -2.7,10.1 -12.8,21.5 -25.1,21.5 v -7.2 c 3.6,0 12.8,-5.2 18,-13.2 v 0 0 0 0 0 z M 53.5,1 h 6.9 V 50.3 H 53.5 V 1 1 1 1 1 Z M 70.4,29.9 C 65.2,22 65.3,5.2 65.3,1 h -3.9 c 0,1.6 -0.8,17.7 1.9,27.8 2.7,10.1 12.8,21.5 25.1,21.5 v -7.2 c -3.6,0 -12.7,-5.2 -18,-13.2 v 0 0 0 z M 238,1.3 h 7.9 V 51.1 H 238 v -49.8 0 0 z m -125.3,9.6 5.5,20.7 h -10.8 l 5.3,-20.7 v 0 0 z m 15.5,-9.8 v 6.7 h 12.3 v 43.3 h 7.9 V 7.8 h 12.4 V 1.1 H 128.2 Z M 221.5,33 c -0.2,-0.4 -0.4,-0.9 -0.4,-1.4 0,-0.5 0.1,-0.9 0.3,-1.3 0.3,-0.5 0.8,-0.7 1.2,-0.9 4.1,-2.5 7.1,-7.8 7.1,-13.9 C 229.7,7.3 224.5,0.6 218.1,0.1 217.3,0 215.5,0 215.5,0 h -9 v 0 c -3.1,0 -5.7,3.4 -5.7,7.6 v 0 43.5 h 7.7 v -40.4 0 c 0,-1.3 0.8,-2.3 1.7,-2.3 h 5.2 c 0.5,0 1.9,0 2.2,0.1 v 0 c 2.3,0.3 4.2,2.4 4.7,5.3 0,0.1 0.1,0.2 0.1,0.4 0,0 0,0 0,0 0,0.2 0,0.3 0.1,0.5 0,0.3 0,0.5 0,0.8 0,2.7 -1.1,5 -2.7,6.2 -0.3,0.3 -0.7,0.5 -1,0.7 -0.3,0.2 -0.6,0.3 -0.9,0.4 -2.1,1 -3,1.6 -3.8,2.7 -1,1.4 -1.6,3.2 -1.6,5.2 0,1.9 0.5,3.6 1.3,5 l 9.8,15.4 h 9.2 L 221.5,33 Z m -62.1,34.3 2.2,-7.9 h 3.5 l 2.3,7.9 h -2.7 l -0.3,-1.5 h -2.1 l -0.3,1.5 h -2.6 v 0 0 0 0 0 0 z m -117.9,0 2.2,-7.9 h 3.5 l 2.3,7.9 h -2.7 l -0.3,-1.5 h -2.1 l -0.3,1.5 h -2.6 v 0 0 0 0 0 0 z m 21,0.2 v 0 c -1.4,0 -2.3,-0.7 -2.7,-2 v 0 L 59.5,64.3 H 59 v 3 H 56.5 V 59.4 H 60 v 0 c 0.7,0 1.2,0.1 1.7,0.3 v 0 0 c 0.5,0.2 0.9,0.5 1.2,0.8 v 0 0 c 0.3,0.4 0.4,0.8 0.4,1.2 v 0 0 c 0,0.5 -0.1,0.9 -0.4,1.3 v 0 0 c -0.2,0.3 -0.6,0.6 -1.2,0.9 v 0 0 c 0.1,0.3 0.1,0.6 0.2,0.8 v 0 0 c 0.1,0.3 0.2,0.5 0.4,0.6 v 0 0 c 0.2,0.1 0.4,0.2 0.7,0.2 v 0 0 c 0.1,0 0.3,0 0.5,0 v 0 1.9 0 c -0.3,0 -0.7,0.1 -1,0.1 v 0 0 0 0 0 0 0 z m 20.6,-0.2 2.2,-7.9 h 3.5 l 2.3,7.9 H 88.4 L 88.1,65.8 H 86 l -0.3,1.5 h -2.6 v 0 0 0 0 0 0 z m 15,0 v -7.9 h 3.4 v 0 c 0.8,0 1.6,0.2 2.2,0.5 v 0 0 c 0.6,0.3 1.1,0.8 1.5,1.4 v 0 0 c 0.4,0.6 0.5,1.3 0.5,2 v 0 0 c 0,0.8 -0.2,1.5 -0.5,2.1 v 0 0 c -0.3,0.6 -0.8,1.1 -1.5,1.4 v 0 0 c -0.6,0.3 -1.4,0.5 -2.2,0.5 v 0 h -3.4 v 0 0 0 0 0 0 z M 112.8,0 c -2.5,0 -4.6,1.5 -5.5,3.8 v 0 L 93.2,51.1 h 8.5 L 105,38.3 h 15.7 l 3.4,12.8 h 8.7 L 118.3,3.8 v 0 C 117.4,1.6 115.3,0 112.8,0 v 0 0 z m 64,10.9 5.5,20.7 H 171.5 Z M 176.9,0 c -2.5,0 -4.6,1.5 -5.5,3.8 v 0 l -14.1,47.3 h 8.5 l 3.3,-12.8 h 15.7 l 3.4,12.8 h 8.7 L 182.4,3.8 v 0 C 181.5,1.6 179.4,0 176.9,0 Z"
   id="path10"
   style="fill:#e9e1d0;fill-opacity:1" />
	</g>
</g>
</svg>
