<?xml version="1.0" encoding="UTF-8" standalone="no"?>
<!-- Generator: Adobe Illustrator 26.0.3, SVG Export Plug-In . SVG Version: 6.00 Build 0)  -->

<svg
   version="1.1"
   id="Ebene_1"
   sodipodi:docname="atari7800.svg"
   x="0px"
   y="0px"
   viewBox="0 0 446.49999 104"
   xml:space="preserve"
   width="446.5"
   height="104"
   inkscape:version="1.1.2 (b8e25be833, 2022-02-05)"
   xmlns:inkscape="http://www.inkscape.org/namespaces/inkscape"
   xmlns:sodipodi="http://sodipodi.sourceforge.net/DTD/sodipodi-0.dtd"
   xmlns="http://www.w3.org/2000/svg"
   xmlns:svg="http://www.w3.org/2000/svg"><defs
   id="defs22" />
<style
   type="text/css"
   id="style2">
	.st0{fill:#E9E1D0;}
</style>
<sodipodi:namedview
   bordercolor="#666666"
   borderopacity="1"
   fit-margin-bottom="5"
   fit-margin-left="5"
   fit-margin-right="5"
   fit-margin-top="5"
   gridtolerance="10"
   guidetolerance="10"
   id="namedview35"
   inkscape:bbox-nodes="true"
   inkscape:bbox-paths="true"
   inkscape:current-layer="g32"
   inkscape:cx="272.01806"
   inkscape:cy="81.258031"
   inkscape:document-rotation="0"
   inkscape:pagecheckerboard="true"
   inkscape:pageopacity="0"
   inkscape:pageshadow="2"
   inkscape:snap-bbox="true"
   inkscape:snap-bbox-edge-midpoints="true"
   inkscape:snap-bbox-midpoints="true"
   inkscape:window-height="1387"
   inkscape:window-maximized="1"
   inkscape:window-width="2560"
   inkscape:window-x="-8"
   inkscape:window-y="-8"
   inkscape:zoom="3.310442"
   lock-margins="true"
   objecttolerance="10"
   pagecolor="#ffffff"
   showgrid="false">
	</sodipodi:namedview>
<g
   id="g32"
   transform="translate(-10,-31.6)">
	<path
   id="path2"
   inkscape:connector-curvature="0"
   class="st0"
   d="m 174.4,40.8 c 3.6,-4.6 11.2,-5.5 15.6,-1.5 1.8,1.5 3.1,3.7 3.8,5.9 8.2,28.4 16.6,56.9 24.8,85.3 -4.9,0 -9.8,0 -14.6,0 -2.3,-7.9 -4.5,-15.7 -6.9,-23.6 -9.4,0 -18.9,0 -28.3,0 -2.3,7.9 -4.6,15.7 -6.9,23.6 -4.9,0 -9.7,0 -14.6,0 7.9,-27.1 15.7,-54.2 23.6,-81.3 1.1,-2.9 1.5,-6.1 3.5,-8.4 m 8.6,17.4 c -3.5,11.8 -6.9,23.6 -10.3,35.4 6.9,0 13.7,0 20.6,0 C 189.8,81.8 186.4,70 183,58.2 Z"
   style="fill:#e9e1d0;fill-opacity:1" />
	<path
   id="path4"
   inkscape:connector-curvature="0"
   class="st0"
   d="m 277.1,41.4 c 2.5,-3.7 7.5,-5.5 11.8,-4.3 3.9,0.9 7,4.3 8,8.2 8.2,28.4 16.6,56.9 24.8,85.3 -4.9,0 -9.8,0 -14.6,0 -2.2,-7.9 -4.5,-15.7 -6.8,-23.6 -9.4,0 -18.8,0 -28.3,0 -2.2,7.9 -4.5,15.7 -6.9,23.6 -4.9,0 -9.7,0 -14.6,0 7.9,-27.3 15.8,-54.5 23.7,-81.8 1,-2.5 1.3,-5.3 2.9,-7.4 M 276,93.6 c 6.9,0 13.6,0 20.5,0 C 293.1,81.8 289.6,70 286.3,58.2 282.7,70 279.4,81.8 276,93.6 Z"
   style="fill:#e9e1d0;fill-opacity:1" />
	<path
   id="path6"
   inkscape:connector-curvature="0"
   class="st0"
   d="m 207.6,37 c 17.6,0 35.3,0 52.9,0 0,4.8 0,9.6 0,14.3 -6.5,0 -13,0 -19.5,0 0,26.4 0,52.8 0,79.3 -4.6,0 -9.3,0 -13.9,0 0,-26.4 0,-52.8 0,-79.3 -6.5,0 -13,0 -19.5,0 0,-4.9 0,-9.6 0,-14.3 z"
   style="fill:#e9e1d0;fill-opacity:1" />
	<path
   id="path8"
   inkscape:connector-curvature="0"
   class="st0"
   d="m 337.3,37.5 c 1.3,-0.5 2.8,-0.6 4.2,-0.6 5.5,0 11.1,0 16.7,0 9.4,0.2 18.3,6 22.3,14.4 2.8,5.5 3.1,11.9 2.4,17.9 -0.5,6.3 -3.2,12.6 -7.9,16.7 -2.5,2.3 -5.7,3.6 -8.5,5.7 -1.5,1.2 -1.5,3.4 -0.8,4.9 7.4,11.4 15.1,22.6 22.6,33.9 -5.5,0 -11,0 -16.6,0 -7.2,-10.9 -14.3,-21.7 -21.6,-32.6 -2.1,-3.1 -2.7,-7.2 -1.4,-10.7 1,-2.7 3.4,-4.7 6,-5.7 5,-1.9 10,-4.9 12.8,-9.7 2.2,-3.5 2,-7.9 1.1,-11.9 -1.2,-5.1 -6.1,-9 -11.2,-8.9 -3.6,0 -7.2,0 -10.8,0 -1.6,0 -3.2,1.4 -3.2,3 0,25.4 0,50.9 0,76.3 -4.7,0 -9.4,0 -14.1,0 0,-27.4 0,-54.8 0,-82.2 0,-4.5 3.4,-9 8,-10.5 z"
   style="fill:#e9e1d0;fill-opacity:1" />
	<path
   id="path10"
   inkscape:connector-curvature="0"
   class="st0"
   d="m 395.7,37 c 4.9,0 9.9,0 14.8,0 0,31.2 0,62.4 0,93.6 -4.9,0 -9.9,0 -14.8,0 0,-31.3 0,-62.5 0,-93.6 z"
   style="fill:#e9e1d0;fill-opacity:1" />
	<path
   id="path12"
   inkscape:connector-curvature="0"
   class="st0"
   d="m 56.7,36.7 c 2.4,0 4.8,0 7.1,0 0,5.5 0,11.2 0,16.7 0,4.6 -0.1,9.3 -0.3,13.9 -0.3,6.7 -0.8,13.4 -1.8,20.1 -0.8,4.5 -2.3,9 -4.3,13.2 -3.2,6.8 -8.2,12.5 -13.9,17.3 -5.1,4.5 -11.1,7.7 -17.4,9.9 -3.6,1.2 -7.3,2.2 -11.1,2.7 0,-4.7 0,-9.3 0,-14 4.5,-0.7 8.9,-2.3 12.9,-4.4 4.8,-2.5 9.1,-5.9 12.8,-10 3.8,-4.2 6.8,-8.9 9,-14.1 2.7,-5.9 4.1,-12.2 5.1,-18.6 1.2,-8.1 1.7,-16.3 1.9,-24.4 0,-2.7 0,-5.5 0,-8.3 z"
   style="fill:#e9e1d0;fill-opacity:1" />
	<path
   id="path14"
   inkscape:connector-curvature="0"
   class="st0"
   d="m 66.6,36.7 c 4.4,0 8.7,0 13.1,0 0,31.3 0,62.5 0,93.7 -4.4,0 -8.7,0 -13.1,0 -0.1,-9.9 0,-20 0,-29.9 0,-21.2 0,-42.4 0,-63.8 z"
   style="fill:#e9e1d0;fill-opacity:1" />
	<path
   id="path16"
   inkscape:connector-curvature="0"
   class="st0"
   d="m 82.6,36.7 c 2.4,0 4.7,0 7.1,0 -0.1,9.6 0.2,19.1 1.4,28.6 0.9,7.3 2.2,14.8 5.2,21.6 2.8,6.6 6.8,12.8 12,17.8 5,4.8 11,8.4 17.6,10.5 1.8,0.6 3.7,1.1 5.6,1.3 0,4.7 0,9.3 0,14 -3.8,-0.5 -7.4,-1.5 -10.9,-2.7 -4.2,-1.5 -8.3,-3.4 -12.1,-5.9 -2.8,-1.8 -5.2,-3.9 -7.7,-6.1 C 96.9,112.2 93.3,108 90.6,103.2 88.5,99.5 87,95.6 85.8,91.6 84.7,87.5 84.3,83.4 83.8,79.2 83,70.2 82.6,61.1 82.7,52.1 82.6,47 82.6,41.9 82.6,36.7 Z"
   style="fill:#e9e1d0;fill-opacity:1" />
	<path
   id="path18"
   inkscape:connector-curvature="0"
   class="st0"
   d="m 56.7,36.7 c 0,2.8 0,5.5 0,8.3 -0.2,8.2 -0.7,16.3 -1.9,24.4 -1,6.3 -2.4,12.7 -5.1,18.6 -2.3,5.1 -5.2,9.9 -9,14.1 -3.6,4 -7.9,7.5 -12.8,10 -4.1,2.2 -8.4,3.7 -12.9,4.4 0,4.7 0,9.3 0,14 3.8,-0.5 7.5,-1.5 11.1,-2.7 6.3,-2.2 12.4,-5.5 17.4,-9.9 5.6,-4.8 10.7,-10.5 13.9,-17.3 1.9,-4.2 3.5,-8.6 4.3,-13.2 1.1,-6.6 1.5,-13.3 1.8,-20 0.2,-4.6 0.3,-9.3 0.3,-13.9 0,-5.5 0,-11.2 0,-16.7 -2.4,-0.1 -4.8,-0.1 -7.1,-0.1"
   style="fill:#e9e1d0;fill-opacity:1" />
	<path
   id="path20"
   inkscape:connector-curvature="0"
   class="st0"
   d="m 66.6,36.7 c 0,21.3 0,42.6 0,63.9 0,9.9 0,20 0,29.9 4.4,-0.1 8.7,0 13.1,0 0,-31.3 0,-62.6 0,-93.7 C 75.3,36.7 71,36.7 66.6,36.7"
   style="fill:#e9e1d0;fill-opacity:1" />
	<path
   id="path22"
   inkscape:connector-curvature="0"
   class="st0"
   d="m 82.6,36.7 c 0,5.1 0,10.2 0,15.3 -0.1,9.1 0.2,18.1 1.1,27.1 0.5,4.2 0.9,8.4 2,12.4 1.2,4 2.7,8 4.8,11.6 2.7,4.7 6.2,8.9 10.2,12.6 2.4,2.2 4.9,4.3 7.7,6.1 3.8,2.5 7.9,4.4 12.1,5.9 3.5,1.2 7.2,2.2 10.9,2.7 0,-4.7 0,-9.3 0,-14 -1.9,-0.3 -3.8,-0.8 -5.6,-1.3 -6.5,-2.1 -12.6,-5.8 -17.6,-10.5 C 103,99.7 99,93.5 96.2,86.8 93.3,79.9 92,72.5 91,65.2 89.9,55.9 89.6,46.3 89.7,36.8 87.3,36.7 84.9,36.7 82.6,36.7"
   style="fill:#e9e1d0;fill-opacity:1" />
</g>
<path
   id="path41"
   inkscape:connector-curvature="0"
   class="st0"
   d="m 428.7,59.5 c -1.1,-1.7 -2.8,-3 -4.8,-3 -4.7,0 -6.8,4.9 -6.8,9.5 0,4.6 2.1,9.5 6.8,9.5 2,0 3.8,-1.1 4.8,-3 1.1,2.5 3.2,4 5.7,4 4.7,0 7.1,-5.3 7.1,-10.6 0,-5.2 -2.4,-10.6 -7.1,-10.6 -2.5,0.4 -4.5,1.8 -5.7,4.2 z m -3,6.7 c 0,1.1 -0.8,2.1 -1.7,2.1 -0.9,0 -1.7,-0.9 -1.7,-2.1 0,-1.1 0.8,-2.1 1.7,-2.1 1,-0.1 1.7,0.9 1.7,2.1 z m 6,0 c 0,-1.3 0.8,-2.3 1.9,-2.3 1,0 1.8,1.1 1.8,2.3 0,1.3 -0.8,2.3 -1.8,2.3 -1.1,0 -1.9,-1 -1.9,-2.3 z"
   style="fill:#e9e1d0;fill-opacity:1" />
<path
   id="path43"
   inkscape:connector-curvature="0"
   class="st0"
   d="m 421,33.4 c -2.6,1.9 -4,4.9 -4,8.3 0,3.5 1.4,6.3 4,8.3 2.1,1.6 5.2,2.5 8.3,2.5 6.1,0 12.2,-3.4 12.2,-10.9 0,-7.5 -6.2,-10.9 -12.2,-10.9 -3.1,0.1 -6,1.1 -8.3,2.7 z m 13.4,8.2 c 0,2.6 -3.4,3 -5,3 -1.6,0 -5,-0.3 -5,-3 0,-2.7 3.4,-3 5,-3 1.6,0.2 5,0.5 5,3 z"
   style="fill:#e9e1d0;fill-opacity:1" />
<path
   id="path45"
   inkscape:connector-curvature="0"
   class="st0"
   d="m 421,7.7 c -2.6,1.9 -4,4.9 -4,8.3 0,3.4 1.4,6.3 4,8.3 2.1,1.6 5.2,2.5 8.3,2.5 6.1,0 12.2,-3.4 12.2,-10.9 0,-7.4 -6.2,-10.9 -12.2,-10.9 -3.1,0.3 -6,1.2 -8.3,2.7 z m 13.4,8.4 c 0,2.6 -3.4,3 -5,3 -1.6,0 -5,-0.3 -5,-3 0,-2.7 3.4,-3 5,-3 1.6,0 5,0.3 5,3 z"
   style="fill:#e9e1d0;fill-opacity:1" />
<polygon
   id="polygon47"
   class="st0"
   points="417.4,77.4 417.4,98.9 424.9,98.9 424.9,88.7 441.5,96.4 441.5,87.7 "
   transform="translate(0,0.1)"
   style="fill:#e9e1d0;fill-opacity:1" />
</svg>
