<?xml version="1.0" encoding="UTF-8" standalone="no"?>
<!-- Generator: Adobe Illustrator 26.0.3, SVG Export Plug-In . SVG Version: 6.00 Build 0)  -->

<svg
   version="1.1"
   id="svg2"
   x="0px"
   y="0px"
   viewBox="0 0 158 55.900002"
   xml:space="preserve"
   sodipodi:docname="3do.svg"
   width="158"
   height="55.900002"
   inkscape:version="1.1.2 (b8e25be833, 2022-02-05)"
   xmlns:inkscape="http://www.inkscape.org/namespaces/inkscape"
   xmlns:sodipodi="http://sodipodi.sourceforge.net/DTD/sodipodi-0.dtd"
   xmlns="http://www.w3.org/2000/svg"
   xmlns:svg="http://www.w3.org/2000/svg"><defs
   id="defs10" /><sodipodi:namedview
   id="namedview8"
   pagecolor="#ffffff"
   bordercolor="#666666"
   borderopacity="1.0"
   inkscape:pageshadow="2"
   inkscape:pageopacity="0.0"
   inkscape:pagecheckerboard="0"
   showgrid="false"
   inkscape:zoom="4.0075758"
   inkscape:cx="29.818526"
   inkscape:cy="27.94707"
   inkscape:window-width="2560"
   inkscape:window-height="1387"
   inkscape:window-x="-8"
   inkscape:window-y="-8"
   inkscape:window-maximized="1"
   inkscape:current-layer="svg2" />
<style
   type="text/css"
   id="style2">
	.st0{fill:#E9E1D0;}
</style>
<path
   id="path18"
   class="st0"
   d="m 17.2,26.1 v 0.2 c 6.9,0.1 12,1.6 15.3,4.4 3.3,2.8 4.9,6.1 4.9,10.1 0,4.4 -1.9,8 -5.6,10.9 C 28,54.5 23,55.9 16.8,55.9 11.4,55.9 7.3,54.8 4.4,52.5 1.5,50.2 0,47.6 0,44.7 0,42.8 0.7,41.2 2,40 c 1.3,-1.2 2.9,-1.8 4.7,-1.8 1.7,0 3.2,0.5 4.4,1.5 1.2,1 1.8,2.4 1.8,4.1 0,2.3 -1.4,4.2 -4.3,5.7 -0.6,0.3 -0.8,0.6 -0.8,1 0,0.7 0.8,1.3 2.4,1.8 1.6,0.5 3.2,0.8 4.9,0.8 5.5,0 8.3,-4.3 8.3,-12.9 0,-8.5 -3.3,-12.8 -9.9,-12.8 L 8,27.8 C 6.9,27.8 6.3,27.4 6.3,26.5 6.3,25.5 6.9,25 8,25 l 4,0.2 c 4.1,0 6.8,-1 8.2,-2.9 1.4,-1.9 2.1,-4.7 2.1,-8.2 0,-3.7 -0.5,-6.4 -1.6,-8.1 -1,-1.7 -2.9,-2.6 -5.4,-2.6 -1.4,0 -2.7,0.2 -3.9,0.7 -1.2,0.5 -1.8,1 -1.8,1.5 0,0.4 0.4,0.9 1.2,1.4 2.1,1.4 3.2,3 3.2,4.6 0,1.6 -0.6,2.9 -1.8,3.9 -1.2,1 -2.5,1.4 -4,1.4 -1.7,0 -3.2,-0.6 -4.5,-1.7 -1.3,-1.1 -2,-2.5 -2,-4.1 0,-2.8 1.5,-5.2 4.4,-7.2 3,-2 6.8,-3.1 11.4,-3.1 5.1,0 9.5,1.2 13,3.5 3.5,2.3 5.3,5.3 5.3,8.9 0.1,7.2 -6.2,11.5 -18.6,12.9"
   style="fill:#e9e1d0;fill-opacity:1" />
<path
   id="path20"
   class="st0"
   d="M 50,52.3 V 3.3 H 42.8 V 0.6 h 28.9 c 8.4,0 15,2.5 19.9,7.6 4.9,5 7.3,11.4 7.3,19.1 0,4 -0.7,7.7 -2.2,11.2 -1.5,3.5 -3.8,6.7 -6.9,9.6 -3.1,2.9 -6.3,4.7 -9.5,5.5 -3.3,0.8 -7.2,1.2 -12,1.2 H 42.8 V 52.1 H 50 Z m 13.9,-49 v 49 h 4.5 c 6.9,0 11.1,-1.9 12.5,-5.8 C 82.3,42.7 83,36.1 83,26.8 83,19.5 82.6,14.3 81.7,11.1 80.8,7.9 79.5,5.8 77.7,4.8 75.9,3.8 73.6,3.3 70.9,3.3 h -7"
   style="fill:#e9e1d0;fill-opacity:1" />
<path
   id="path22"
   class="st0"
   d="m 107,27.6 c 0,-8.1 2.5,-14.8 7.6,-19.9 5,-5.2 11.1,-7.7 18.1,-7.7 6.5,0 12.4,2.4 17.6,7.3 5.1,4.7 7.7,11.6 7.7,20.6 0,8.4 -2.4,15.1 -7.3,20.2 -4.9,5.1 -10.9,7.6 -17.9,7.6 -7.6,0 -13.8,-2.7 -18.6,-8.1 -4.8,-5.4 -7.2,-12 -7.2,-20 z m 35.2,0.2 c 0,-8.3 -0.2,-13.8 -0.5,-16.4 -0.3,-2.6 -1.2,-4.8 -2.5,-6.4 -1.3,-1.6 -3.6,-2.4 -6.6,-2.4 -2.6,0 -4.7,0.7 -6.2,2 -1.5,1.3 -2.5,3.4 -2.9,6.3 -0.4,2.9 -0.6,8.5 -0.6,16.9 0,8.3 0.2,13.8 0.5,16.5 0.3,2.7 1.2,4.8 2.6,6.4 1.4,1.6 3.6,2.4 6.6,2.4 2.5,0 4.5,-0.6 6.1,-1.9 1.6,-1.3 2.6,-3.4 2.9,-6.3 0.4,-3 0.6,-8.6 0.6,-17.1"
   style="fill:#e9e1d0;fill-opacity:1" />
</svg>
