<?xml version="1.0" encoding="UTF-8" standalone="no"?>
<!-- Generator: Adobe Illustrator 26.0.3, SVG Export Plug-In . SVG Version: 6.00 Build 0)  -->

<svg
   version="1.1"
   id="Layer_1"
   x="0px"
   y="0px"
   viewBox="0 0 263.98004 61.045479"
   xml:space="preserve"
   sodipodi:docname="amiga.svg"
   width="263.98004"
   height="61.045479"
   inkscape:version="1.1.2 (b8e25be833, 2022-02-05)"
   xmlns:inkscape="http://www.inkscape.org/namespaces/inkscape"
   xmlns:sodipodi="http://sodipodi.sourceforge.net/DTD/sodipodi-0.dtd"
   xmlns="http://www.w3.org/2000/svg"
   xmlns:svg="http://www.w3.org/2000/svg"><defs
   id="defs20" /><sodipodi:namedview
   id="namedview18"
   pagecolor="#ffffff"
   bordercolor="#666666"
   borderopacity="1.0"
   inkscape:pageshadow="2"
   inkscape:pageopacity="0.0"
   inkscape:pagecheckerboard="0"
   showgrid="false"
   inkscape:zoom="0.55104167"
   inkscape:cx="959.09263"
   inkscape:cy="540.79395"
   inkscape:window-width="2560"
   inkscape:window-height="1387"
   inkscape:window-x="-8"
   inkscape:window-y="-8"
   inkscape:window-maximized="1"
   inkscape:current-layer="g15" />
<style
   type="text/css"
   id="style2">
	.st0{fill:#E9E1D0;}
</style>
<g
   transform="scale(0.44,0.437602)"
   id="g15">
	<path
   id="SVGID_1_"
   class="st0"
   d="m 274.7,67.2 3.8,5.8 c -0.3,-0.4 -0.8,-0.7 -1.3,-0.7 -0.5,0 -1,0.3 -1.3,1.1 l -3.8,-5.8 c 0.3,-0.8 0.8,-1.1 1.3,-1.1 0.5,0 1,0.3 1.3,0.7 z"
   style="fill:#e9e1d0;fill-opacity:1" />
	<path
   id="SVGID_3_"
   class="st0"
   d="m 338.6,65.3 3.8,5.8 c -0.2,-0.3 -0.5,-0.4 -0.7,-0.4 -0.4,0 -0.8,0.3 -1,0.8 l -3.8,-5.8 c 0.3,-0.5 0.7,-0.8 1,-0.8 0.3,0 0.5,0.1 0.7,0.4 z"
   style="fill:#e9e1d0;fill-opacity:1" />
	<path
   id="path33"
   class="st0"
   d="m 341.9,44.7 32.4,0.2 c 0.6,0 5.1,0.7 -0.5,2.2 -4.4,1.2 -8.1,0.7 -9.5,6.5 l -17.5,70.2 c -1.5,6.3 3.4,11.7 9.7,13.4 1.4,0.3 1.5,1.9 -0.2,2 l -21.3,-0.8 -25.9,0.9 c -1.9,0 -2,-2 0.1,-2.3 6,-0.6 11.4,-5.6 12.6,-9.7 l 17,-61 c 0,-0.9 -0.5,-1.4 -1,-1.4 -0.4,0 -0.8,0.3 -1,0.8 l -47.9,69.5 c -1.3,2.1 -3.4,3.6 -5.3,3.6 -2,0 -3.7,-1.7 -3.9,-5.8 L 275,68.1 c -0.1,-0.9 -0.8,-1.6 -1.6,-1.6 -0.5,0 -1,0.3 -1.3,1.1 L 255.6,119 c -1.3,3.9 -1.4,7.7 0.2,10.5 1.6,2.8 5.7,6.3 10.5,7.3 1.9,0.4 1.8,2.3 0,2.4 l -17.2,-0.7 -14.5,0.5 c -1.7,-0.1 -1.5,-1.8 0,-2 5,-1.1 10.7,-6.1 13.3,-13.3 l 21.3,-68.4 c 0.9,-2.6 -0.5,-5.7 -3.1,-6.3 l -6.6,-1.3 c -1.2,-0.1 -1.3,-1.8 0,-1.8 l 37.8,-0.3 3.8,59.5 2.8,-3.4 36,-53.5 c 0.4,-0.7 1.5,-2.4 2,-3.5 z"
   style="fill:#e9e1d0;fill-opacity:1" />
	<path
   id="path43"
   class="st0"
   d="m 390.8,44.5 43.5,0.4 c 2,0 3,3.6 -1.1,4 -4.4,0.4 -8.9,3.5 -10,7.2 l -20.4,70.5 c -1,3.7 1.7,10 8.8,10.5 1.2,0.3 1.2,2 0.1,2 l -25.7,-1 -24.7,0.7 c -1.3,0 -1,-1.8 0.2,-2 3.4,-0.6 13.2,-4.4 15.1,-10.5 L 399.3,56 c 1.4,-5.1 -3.3,-7.6 -8.6,-8.8 -1.2,-0.1 -1,-2.6 0.1,-2.7 z"
   style="fill:#e9e1d0;fill-opacity:1" />
	<path
   id="path53"
   class="st0"
   d="m 504.6,40.1 c 4.5,0 8.8,0.4 13.1,1.2 2.7,0.5 6,1.8 5.2,4.1 l -6.4,16.4 c -0.5,1.7 -1.4,2.7 -2.2,2.7 -1.2,0 -2.4,-1.9 -2.8,-6.8 -0.2,-2.6 0.2,-12.2 -3.4,-12.4 -0.9,0 -1.8,-0.1 -2.8,-0.1 -5.8,0 -11.6,1 -16.8,2.6 -19.6,6.3 -32.1,17 -40.3,35.3 -8,17.6 -4.1,36.6 1.6,43.1 3.9,4.4 12.9,7.5 19.8,7.5 4.1,0 7.4,-1.1 8.6,-3.5 3.8,-9 5.6,-20.1 5.2,-25.2 0,-6.1 -2.4,-6.6 -7,-7.5 -3.2,-0.3 -4.2,-2.4 1.8,-2.4 0.3,0 0.7,0 1,0 1.9,0 3.8,0 5.6,0 4.2,0 8.3,0 12.3,0 3.8,0 7.5,0 11.4,0 3.5,0 7.1,0 11,-0.1 1.1,0.5 1,1 -0.1,1.5 -6.5,1 -9.1,2.2 -9.7,4.6 -2.5,8.5 -4.8,17.9 -8.8,26.6 -1.4,3.1 -8.3,6.1 -10.5,6.7 -6.9,2.5 -18.4,4.4 -29.3,4.4 -8.8,0 -17.2,-1.3 -22.6,-4.5 -20.3,-12.4 -24,-36 -15.7,-51.6 12.2,-22.9 49.4,-42.6 81.8,-42.6 z"
   style="fill:#e9e1d0;fill-opacity:1" />
	<polygon
   id="polygon79"
   class="st0"
   points="105.8,137.5 80.1,137.5 31,64.6 57,64.6 "
   style="fill:#e9e1d0;fill-opacity:1" />
	<polygon
   id="polygon104"
   class="st0"
   points="106.1,137.5 81.5,137.5 172.1,0 197.8,0 "
   style="fill:#e9e1d0;fill-opacity:1" />
	<polygon
   id="polygon123"
   class="st0"
   points="74.8,137.5 49.1,137.5 0,64.6 26,64.6 "
   style="fill:#e9e1d0;fill-opacity:1" />
	<polygon
   id="polygon148"
   class="st0"
   points="75.1,137.5 50.5,137.5 141.1,0 166.8,0 "
   style="fill:#e9e1d0;fill-opacity:1" />
	<path
   id="path152"
   class="st0"
   d="m 167.8,105.5 -12.7,18 c -3.8,5.9 3.3,12 11.2,13.4 0.7,0.6 0.6,2.4 -0.5,2.4 -0.1,0 -0.2,0 -0.4,-0.1 -0.2,-0.1 -3.1,-1.3 -9.8,-1.9 -1.8,-0.2 -5,-0.7 -9,-0.7 -1.4,0 -2.8,0.1 -4.3,0.2 l -14.2,2 c -1.3,-0.1 -1.3,-1.7 0,-2 6.8,-0.9 15,-6 19.9,-12.8 l 57.6,-80.4 c 1,-1.4 3,-2.2 5,-2.2 2.5,0 4.9,1.3 4.9,4.2 l 1.9,80.4 c 0.6,6.7 5.1,9.6 10.8,11.2 0.8,0.5 0.4,1.6 -0.1,1.8 -0.4,0 -7.4,-0.1 -15.8,-1.4 -2,-0.3 -3.5,-0.5 -5.4,-0.5 -1.6,0 -3.5,0.1 -6.1,0.4 -3.3,0.3 -1.7,0.4 -15.1,1 -0.5,0 -1,-0.1 -1.1,-1 0.1,-1 1.6,-1.5 2.1,-1.6 5.3,-1.5 8,-4.1 9.1,-10.7 1.3,-7.2 0.9,-13.3 0.8,-19.6 m -8.1,-4.8 c 2.9,0 5.7,0 7.7,0.1 l -0.8,-33.5 c -0.1,-0.4 -0.3,-0.7 -0.6,-0.7 -0.2,0 -0.4,0.2 -0.6,0.5 -7.1,10.1 -17,22.5 -24,32.6 -0.5,0.8 0,1.1 1.1,1.1 0.2,0 0.7,0 1.6,0 1.5,0 3.9,0 6.7,0 2.9,0 6,-0.1 8.9,-0.1"
   style="fill:#e9e1d0;fill-opacity:1" />
	<path
   id="path156"
   class="st0"
   d="m 599.5,137.4 c 0.8,0.5 0.4,1.6 -0.1,1.8 -0.4,0 -7.4,-0.1 -15.8,-1.3 -2,-0.3 -3.5,-0.5 -5.4,-0.5 -1.6,0 -3.5,0.1 -6.1,0.4 -3.3,0.3 -1.7,0.4 -15.1,1 -0.5,0 -1,-0.1 -1.1,-1 0.1,-1 1.6,-1.5 2.1,-1.6 5.3,-1.5 8,-4.1 9.1,-10.7 1.3,-7.2 0.9,-13.3 0.7,-19.6 l -28.9,-0.2 -12.7,18 c -3.7,5.9 3.4,12 11.2,13.4 0.7,0.6 0.6,2.4 -0.5,2.4 -0.1,0 -0.2,0 -0.4,-0.1 -0.2,-0.1 -3.1,-1.3 -9.8,-1.9 -1.8,-0.2 -5,-0.7 -9,-0.7 -1.4,0 -2.8,0.1 -4.3,0.2 l -14.2,2 c -1.3,-0.1 -1.3,-1.7 0,-2 6.9,-0.9 15,-5.9 19.9,-12.8 l 57.6,-80.3 c 0.9,-1.4 3,-2.2 5,-2.2 2.5,0 4.9,1.3 4.9,4.2 l 1.9,80.4 c 0.8,6.7 5.4,9.5 11,11.1 z M 559.7,101 c 2.9,0 5.7,0 7.8,0.1 l -0.7,-33.5 c -0.1,-0.4 -0.3,-0.7 -0.6,-0.7 -0.2,0 -0.4,0.2 -0.6,0.5 -7.1,10.1 -17,22.5 -24,32.6 -0.4,0.8 0,1.1 1.1,1.1 0.2,0 1,0 2.3,0 1.5,0 3.6,0 6,0 2.7,-0.1 5.8,-0.1 8.7,-0.1"
   style="fill:#e9e1d0;fill-opacity:1" />
</g>
</svg>
