<?xml version="1.0" encoding="UTF-8" standalone="no"?>
<!-- Generator: Adobe Illustrator 26.0.3, SVG Export Plug-In . SVG Version: 6.00 Build 0)  -->

<svg
   version="1.1"
   id="Layer_1"
   x="0px"
   y="0px"
   viewBox="0 0 1915.4177 217.66112"
   xml:space="preserve"
   sodipodi:docname="amigacd32.svg"
   width="1915.4177"
   height="217.66112"
   inkscape:version="1.1.2 (b8e25be833, 2022-02-05)"
   xmlns:inkscape="http://www.inkscape.org/namespaces/inkscape"
   xmlns:sodipodi="http://sodipodi.sourceforge.net/DTD/sodipodi-0.dtd"
   xmlns="http://www.w3.org/2000/svg"
   xmlns:svg="http://www.w3.org/2000/svg"><defs
   id="defs1280" /><sodipodi:namedview
   id="namedview1278"
   pagecolor="#ffffff"
   bordercolor="#666666"
   borderopacity="1.0"
   inkscape:pageshadow="2"
   inkscape:pageopacity="0.0"
   inkscape:pagecheckerboard="0"
   showgrid="false"
   inkscape:zoom="0.55104167"
   inkscape:cx="955.46313"
   inkscape:cy="-301.24764"
   inkscape:window-width="2560"
   inkscape:window-height="1387"
   inkscape:window-x="-8"
   inkscape:window-y="-8"
   inkscape:window-maximized="1"
   inkscape:current-layer="Layer_1" />
<style
   type="text/css"
   id="style1257">
	.st0{fill:#E9E1D0;}
</style>
<path
   class="st0"
   d="M 155.26493,155.26493 H 85.61337 l -13.785204,13.7852 -15.236277,15.23628 c -2.902148,3.62768 -5.07876,6.52983 -6.529834,8.70644 -0.725537,2.17661 -1.451074,4.35322 -1.451074,6.52983 0,2.17662 1.451074,4.35323 4.353222,5.8043 2.902149,2.17661 7.980908,2.90215 14.510741,2.90215 v 4.35322 H 0 l 1.4510741,-4.35322 c 5.8042962,-0.72554 10.8830559,-2.17661 15.9618149,-5.07876 5.804296,-3.62769 14.51074,-10.88306 25.393796,-22.49165 L 195.895,29.74702 h 7.25537 v 147.28402 c 0,7.9809 0,12.33413 0,13.7852 0,5.8043 2.17661,10.88306 5.07876,13.05967 2.90215,2.90214 7.98091,4.35322 15.23628,5.07876 l -1.45108,4.35322 h -97.22196 l 1.45107,-4.35322 c 9.43199,-0.72554 15.23628,-1.45108 16.68736,-2.17662 2.90214,-1.45107 5.80429,-3.62768 7.9809,-7.9809 2.17661,-3.62769 3.62769,-10.88306 3.62769,-21.04058 z m -0.72554,-10.88306 1.45107,-58.7685 -59.494034,58.7685 h 58.042964"
   id="path1259"
   style="stroke-width:7.25537;fill:#e9e1d0;fill-opacity:1" />
<path
   class="st0"
   d="M 366.3962,34.10024 389.61339,158.16707 491.18857,34.10024 h 79.80908 l -1.45108,4.35322 c -10.88305,0 -18.86396,2.17662 -24.66826,5.8043 -5.80429,3.62769 -10.15752,10.88306 -13.05966,21.76611 l -37.72793,115.36039 c -2.17661,7.25537 -3.62769,13.05967 -2.90215,16.68735 0,3.62769 2.17661,5.8043 5.07876,7.98091 3.62769,2.17661 10.15752,2.90215 19.5895,3.62768 l -0.72554,3.62769 H 401.94752 l 1.45107,-4.35322 c 12.33413,0 21.04057,-2.17662 26.84487,-5.8043 5.8043,-3.62769 10.15752,-10.88306 13.7852,-21.76611 L 480.30552,64.5728 359.14083,214.03342 h -7.25537 L 323.58952,61.67065 286.58713,181.38426 c -1.45108,5.07876 -2.17661,8.70644 -2.17661,12.33413 0,4.35322 2.17661,7.98091 6.52983,10.88305 3.62769,2.90215 10.88306,4.35323 19.5895,4.35323 l -1.45107,4.35322 h -74.73032 l 1.45108,-4.35322 c 8.70644,0 15.96181,-1.45108 20.31503,-4.35323 7.98091,-5.07876 13.78521,-13.05966 17.41289,-23.21718 L 315.60861,47.88545 c -5.07876,-4.35323 -9.43198,-6.52984 -13.05967,-7.98091 -3.62768,-1.45108 -10.15752,-2.17661 -18.86396,-2.17661 l 1.45107,-4.35322 81.26015,0.72553"
   id="path1261"
   style="stroke-width:7.25537;fill:#e9e1d0;fill-opacity:1" />
<path
   class="st0"
   d="m 589.86161,38.45346 1.45107,-4.35322 h 110.28163 l -2.17661,4.35322 c -10.15752,0 -17.41289,1.45108 -22.49165,5.07876 -5.07876,3.62769 -9.43198,10.88306 -13.05966,22.49165 l -35.55132,115.36039 c -2.90215,7.98091 -3.62768,13.7852 -3.62768,16.68735 0,2.90215 2.17661,5.8043 5.07876,7.25537 4.35322,2.17661 11.60859,3.62769 23.21718,3.62769 l -1.45107,4.35322 H 539.07402 l 1.45107,-4.35322 c 10.88306,0 19.5895,-1.45108 24.66826,-5.07876 5.07876,-3.62769 9.43198,-10.88306 13.05967,-22.49165 L 613.80433,66.02387 c 2.17661,-7.25537 2.90215,-12.33413 2.90215,-15.96181 0,-3.62769 -2.17661,-5.8043 -5.07876,-7.98091 -2.90215,-2.17661 -10.15752,-2.90215 -21.76611,-3.62769"
   id="path1263"
   style="stroke-width:7.25537;fill:#e9e1d0;fill-opacity:1" />
<path
   class="st0"
   d="m 1032.4392,155.26493 h -69.65156 l -13.7852,13.7852 -15.23628,15.23628 c -2.90215,3.62768 -5.07876,6.52983 -6.52983,8.70644 -0.72554,2.17661 -1.45107,4.35322 -1.45107,6.52983 0,2.17662 1.45107,4.35323 4.35322,5.8043 2.90215,2.17661 7.9809,2.90215 14.51074,2.90215 v 4.35322 h -66.74941 l 1.45108,-4.35322 c 5.80429,-0.72554 10.88305,-2.17661 15.96181,-5.07876 5.8043,-3.62769 14.51074,-10.88306 25.3938,-22.49165 L 1073.7948,28.29595 h 7.2554 v 147.28401 c 0,7.98091 0,12.33413 0,13.78521 0,5.80429 2.1766,10.88305 5.0787,13.05966 2.9022,2.90215 7.9809,4.35322 15.2363,5.07876 l -1.4511,4.35322 h -97.9475 l 1.4511,-4.35322 c 9.432,-0.72554 15.2363,-1.45107 16.6874,-2.17661 2.9021,-1.45107 5.8043,-3.62768 7.9809,-7.98091 2.1766,-3.62768 3.6277,-10.88305 3.6277,-21.04057 z m 0,-10.88306 1.4511,-58.7685 -59.49406,58.7685 h 58.04296"
   id="path1265"
   style="stroke-width:7.25537;fill:#e9e1d0;fill-opacity:1" />
<path
   class="st0"
   d="m 909.0979,31.19809 c 1.45108,1.45108 2.17661,6.52984 2.17661,6.52984 l -10.88305,49.33652 h -5.8043 C 893.13609,70.37709 892.41055,58.7685 882.97857,50.78759 874.27213,43.53222 869.19337,39.179 853.95709,39.179 c -15.96182,0 -36.27685,5.07876 -52.23867,13.7852 -15.96181,8.70645 -34.82578,22.49165 -45.70883,41.35562 -10.15752,18.86396 -16.68735,38.45346 -15.96182,58.76849 0.72554,17.41289 6.52984,31.1981 17.41289,40.63008 10.88306,9.43198 23.21719,13.7852 37.72793,13.7852 5.8043,0 13.05967,-1.45107 21.76611,-3.62768 L 831.46544,156.716 c 2.17661,-7.98091 3.62769,-13.05967 3.62769,-15.96182 0,-3.62768 -2.17662,-5.80429 -5.8043,-7.9809 -3.62769,-2.17661 -9.43198,-3.62769 -18.13843,-3.62769 l 1.45108,-5.07876 h 97.22196 l -1.45107,5.07876 c -5.8043,0 -10.15752,1.45108 -13.78521,2.90215 -2.90215,1.45107 -5.80429,3.62769 -7.25537,6.52983 -0.72553,1.45108 -2.17661,6.52984 -4.35322,13.78521 l -16.68735,53.68974 c -23.21719,7.9809 -48.61098,11.60859 -74.73032,11.60859 -20.31503,0 -37.72792,-2.90215 -52.23866,-8.70644 -14.51074,-5.8043 -26.84487,-14.51074 -37.00239,-27.57041 -10.15752,-12.33413 -15.23628,-26.84487 -15.96182,-42.80669 -1.45107,-34.10024 15.96182,-61.67064 52.96421,-84.16229 29.02148,-17.41289 61.67065,-24.66826 98.67303,-26.11933 3.62769,0 13.05967,-0.72554 25.3938,-0.72554 10.88306,0 23.21719,0 41.35561,1.45107 0.72554,0.72554 2.17661,0.72554 4.35322,2.17661"
   id="path1267"
   style="stroke-width:7.25537;fill:#e9e1d0;fill-opacity:1" />
<path
   class="st0"
   d="m 1208.7447,76.90693 v 89.96659 c 0,24.66826 19.5895,44.98329 43.5322,44.98329 h 95.7709 c 23.9427,0 43.5322,-20.31503 43.5322,-44.98329 v -23.21719 h -43.5322 v 8.70645 c 0,10.88305 -7.9809,19.5895 -18.864,19.5895 h -59.494 c -10.883,0 -18.864,-7.98091 -18.864,-19.5895 V 95.04535 c 0,-10.88305 7.981,-19.5895 18.864,-19.5895 h 55.8664 c 10.883,0 18.8639,7.98091 18.8639,19.5895 v 4.35323 h 43.5322 V 76.18139 c 0,-24.66826 -19.5895,-44.9833 -43.5322,-44.9833 h -92.1432 c -23.9427,0.72554 -43.5322,21.04058 -43.5322,45.70884"
   id="path1269"
   style="stroke-width:7.25537;fill:#e9e1d0;fill-opacity:1" />
<path
   class="st0"
   d="M 1461.2316,171.95228 V 71.82817 h 76.9069 c 13.0597,0 23.9427,10.88305 23.9427,24.66826 v 50.06205 c 0,13.7852 -10.883,24.66826 -23.9427,24.66826 z m -42.8067,39.90453 h 139.3031 c 26.1193,0 47.8855,-22.49164 47.8855,-48.61098 V 80.53461 c 0,-26.84487 -21.7662,-48.61098 -47.8855,-48.61098 h -139.3031 v 179.93318"
   id="path1271"
   style="stroke-width:7.25537;fill:#e9e1d0;fill-opacity:1" />
<path
   class="st0"
   d="m 1814.5681,52.9642 c -17.4129,0 -34.8258,9.43199 -34.8258,26.84488 v 15.96181 0 23.21718 h 135.6755 V 94.31982 h -97.9475 c -12.3342,-2.90215 1.451,-13.78521 7.9809,-14.51074 h 58.7685 c 17.4129,0 31.1981,-14.51075 31.1981,-31.92363 V 31.92363 C 1915.4178,14.51074 1901.6326,0 1884.2197,0 h -68.926 c -17.4129,0 -35.5514,10.15752 -35.5514,28.29595 v 15.96181 h 34.1003 v -3.62768 c 0,-7.98091 5.8043,-13.78521 13.7852,-13.78521 h 44.2577 c 7.2554,0 13.0597,5.07876 13.7853,13.05967 -0.7256,7.25537 -5.8043,13.05966 -13.7853,13.05966 h -57.3174"
   id="path1273"
   style="stroke-width:7.25537;fill:#e9e1d0;fill-opacity:1" />
<path
   class="st0"
   d="m 1736.9357,60.21958 c 13.0596,-0.72554 22.4916,-5.07876 22.4916,-19.5895 V 23.94272 C 1759.4273,6.52984 1745.6421,0 1728.2292,0 h -61.6706 c -17.4129,0 -35.5513,10.15752 -35.5513,28.29595 v 15.96181 h 34.1002 v -3.62768 c 0,-7.98091 5.8043,-13.78521 13.7852,-13.78521 h 36.2768 c 7.2554,0 13.0597,1.45108 13.7853,8.70645 -0.7256,7.25537 -5.8043,13.05966 -13.7853,13.05966 h -29.747 v 22.49165 h 33.3747 c 7.2554,0 13.0597,5.07876 13.7852,13.05967 -0.7255,7.25537 -5.8043,8.70644 -13.7852,8.70644 h -39.9045 c -7.9809,0 -13.7852,-5.80429 -13.7852,-13.7852 v -3.62769 h -34.1002 v 15.96182 c 0,17.41289 18.1384,27.5704 35.5513,27.5704 h 65.2983 c 19.5895,0 31.1981,-10.15751 31.1981,-27.5704 V 79.80908 c 0.7255,-15.96182 -10.8831,-19.5895 -26.1193,-19.5895"
   id="path1275"
   style="stroke-width:7.25537;fill:#e9e1d0;fill-opacity:1" />
</svg>
