<?xml version="1.0" encoding="UTF-8" standalone="no"?>
<!-- Generator: Adobe Illustrator 26.0.3, SVG Export Plug-In . SVG Version: 6.00 Build 0)  -->

<svg
   version="1.1"
   id="Layer_1"
   x="0px"
   y="0px"
   viewBox="0 0 264 43.099998"
   xml:space="preserve"
   sodipodi:docname="amstradcpc.svg"
   width="264"
   height="43.099998"
   inkscape:version="1.1.2 (b8e25be833, 2022-02-05)"
   xmlns:inkscape="http://www.inkscape.org/namespaces/inkscape"
   xmlns:sodipodi="http://sodipodi.sourceforge.net/DTD/sodipodi-0.dtd"
   xmlns="http://www.w3.org/2000/svg"
   xmlns:svg="http://www.w3.org/2000/svg"><defs
   id="defs11" /><sodipodi:namedview
   id="namedview9"
   pagecolor="#ffffff"
   bordercolor="#666666"
   borderopacity="1.0"
   inkscape:pageshadow="2"
   inkscape:pageopacity="0.0"
   inkscape:pagecheckerboard="0"
   showgrid="false"
   inkscape:zoom="0.55104167"
   inkscape:cx="959.09263"
   inkscape:cy="540.79395"
   inkscape:window-width="2560"
   inkscape:window-height="1387"
   inkscape:window-x="-8"
   inkscape:window-y="-8"
   inkscape:window-maximized="1"
   inkscape:current-layer="Layer_1" />
<style
   type="text/css"
   id="style2">
	.st0{fill:#E9E1D0;}
</style>
<path
   id="path7"
   class="st0"
   d="m 8.6,42.9 0.6,-8.5 h 3.5 l 0.7,8.5 H 22 L 16.6,0.1 H 5.5 L 0,42.9 H 8.6 M 12.2,27.4 H 9.7 L 11,10.7 12.2,27.4 M 36.1,0.1 h -12 v 42.8 h 8.2 V 18.5 l 3.4,24.4 H 41 l 3.3,-24.2 v 24.2 h 8.2 V 0.1 h -12 L 38.3,19 36.1,0.1 M 54,5.3 c 0,2.9 0,5.9 0,8.8 0,0.5 0,1 0.1,1.3 0.1,0.7 0.1,1 0.2,1.4 0.1,0.5 0.3,1.1 0.7,1.6 0.2,0.2 0.3,0.5 0.6,0.8 0.3,0.3 0.6,0.6 1,0.9 0.8,0.7 1.6,1.2 2.4,1.6 1.8,1 3.6,2 5.4,3 0.2,0.2 0.5,0.3 0.8,0.5 0.6,0.6 0.6,1.3 0.6,2 v 0.9 5.8 c 0,0.4 0,0.8 -0.2,1.3 -0.1,0.1 -0.2,0.3 -0.3,0.4 C 64.9,35.9 64.5,36 64,35.8 63.9,35.7 63.7,35.7 63.6,35.6 63.1,35.2 63.2,34.5 63.1,34 V 25.3 H 54 v 9.8 c 0,1.2 0,2.3 0.3,3.5 0.1,0.6 0.4,1.2 0.7,1.8 0.3,0.6 0.8,1.1 1.3,1.5 0.5,0.4 1.1,0.7 1.6,0.8 0.5,0.2 0.8,0.2 1.2,0.3 0.4,0 0.7,0.1 1.1,0.1 h 9.2 c 0.4,0 0.8,0 1.4,-0.1 0.5,-0.1 1.1,-0.4 1.7,-0.7 0.5,-0.3 1,-0.8 1.3,-1.2 0.3,-0.5 0.5,-0.9 0.6,-1.4 0.1,-0.4 0.3,-0.8 0.4,-1.3 0.1,-0.5 0.1,-1.2 0.2,-1.8 0,-0.6 0,-1.3 0,-1.9 v -6.9 c 0,-0.1 0,-0.3 0,-0.5 0,-0.3 0,-0.7 0,-1.3 0,-0.5 -0.1,-1.1 -0.1,-1.5 0,-0.4 -0.1,-0.5 -0.1,-0.7 0,-0.2 -0.1,-0.3 -0.1,-0.5 0,-0.2 -0.1,-0.3 -0.2,-0.6 C 74.4,22.4 74.2,22 73.9,21.6 73.6,21.2 73.4,20.9 73,20.6 72.6,20.3 72.3,20 71.9,19.7 71.1,19.1 70.1,18.5 69.2,18 l -3.9,-2.1 c -0.2,-0.1 -0.5,-0.3 -0.7,-0.4 -0.2,-0.1 -0.4,-0.3 -0.6,-0.4 -0.2,-0.2 -0.2,-0.2 -0.3,-0.3 0,0 -0.1,-0.1 -0.1,-0.2 -0.1,-0.2 -0.3,-0.6 -0.4,-1 0,-0.2 0,-0.4 0,-0.6 0,-1.3 0,-2.7 0,-4 0,-0.3 0,-0.6 0.1,-1 0.1,-0.2 0.1,-0.3 0.2,-0.4 0.4,-0.6 1,-0.7 1.5,-0.4 0.1,0.1 0.3,0.2 0.4,0.3 0.1,0.1 0.2,0.2 0.2,0.4 0.1,0.1 0.1,0.3 0.1,0.5 0,0.4 0.1,1 0,1.5 V 15 h 9.1 c 0,-2.6 0,-5.3 0,-7.9 C 74.8,6.5 74.7,5.9 74.7,5.5 74.7,5.1 74.6,4.9 74.6,4.7 74.6,4.5 74.5,4.3 74.5,4.1 74.4,3.9 74.4,3.7 74.2,3.4 74.1,3.1 73.8,2.6 73.5,2.2 73.2,1.8 72.8,1.4 72.4,1.2 72,0.9 71.5,0.7 71.1,0.6 70.3,0.3 69.7,0.3 69.1,0.2 68.8,0.2 68.4,0.1 68.1,0.1 L 60.2,0.2 C 59.3,0.2 58.4,0.3 57.5,0.6 57.2,0.7 56.9,0.8 56.7,0.9 56.2,1.2 55.8,1.5 55.3,2 55.1,2.3 54.8,2.6 54.6,3 54.3,3.6 54,4.5 54,5.3 M 76.3,0.1 V 7 h 4.6 V 42.9 H 90 V 7 h 4.5 V 0.1 H 76.3 m 30.4,0 H 97 v 42.8 h 9.1 V 25.8 c 0.6,0 1.2,-0.1 1.8,0.1 0.1,0 0.2,0.1 0.3,0.2 0.4,0.4 0.4,0.8 0.5,1.3 0.1,0.9 0,1.8 0,2.6 v 12.9 h 9.1 V 29.5 c 0,-1.3 -0.1,-2.6 -0.4,-3.9 -0.1,-0.3 -0.2,-0.6 -0.3,-0.9 -0.2,-0.5 -0.5,-0.9 -0.8,-1.3 -0.3,-0.4 -0.7,-0.7 -1.2,-1 -0.4,-0.3 -0.9,-0.5 -1.4,-0.6 0.2,-0.1 0.5,-0.1 0.7,-0.2 0.5,-0.2 0.9,-0.4 1.3,-0.8 0.4,-0.3 0.7,-0.7 1,-1.1 0.3,-0.4 0.5,-0.9 0.6,-1.4 0.1,-0.3 0.2,-0.7 0.2,-1.1 0.2,-1.4 0.3,-2.9 0.3,-4.3 V 8.4 c 0,-0.9 0,-1.8 -0.1,-2.7 -0.1,-0.4 -0.1,-0.9 -0.2,-1.2 -0.1,-0.4 -0.2,-0.7 -0.3,-0.9 -0.1,-0.3 -0.2,-0.6 -0.4,-0.8 -0.2,-0.3 -0.3,-0.5 -0.5,-0.7 -0.3,-0.3 -0.7,-0.6 -1,-0.9 -0.8,-0.5 -1.6,-0.8 -2.5,-0.9 -2,-0.2 -4.1,-0.1 -6.1,-0.2 m -0.6,7 c 0.4,0 0.9,0 1.3,0 0.2,0 0.4,0.1 0.6,0.2 0.6,0.4 0.6,0.9 0.7,1.4 0,0.5 0,1.1 0.1,1.6 0,1.9 0,3.7 0,5.6 0,0.3 0,0.7 -0.1,1 0,0.2 -0.1,0.3 -0.1,0.4 -0.1,0.1 -0.2,0.3 -0.3,0.4 -0.3,0.2 -0.6,0.3 -1,0.3 -0.4,0 -0.8,0 -1.1,0 V 7.1 m 22.1,35.8 0.6,-8.5 h 3.5 l 0.7,8.5 h 8.6 L 136.3,0.1 h -11.1 l -5.5,42.8 h 8.6 m 3.6,-15.5 h -2.5 l 1.3,-16.6 1.2,16.6 M 163.5,2.7 c -0.3,-0.5 -0.7,-0.9 -1.2,-1.3 -0.5,-0.4 -1,-0.6 -1.4,-0.8 -0.4,-0.2 -0.7,-0.2 -0.9,-0.3 -0.2,-0.1 -0.5,-0.1 -0.8,-0.1 -0.3,0 -0.5,0 -1.1,-0.1 -0.6,0 -1.6,-0.1 -2.6,-0.1 h -11.8 v 42.9 h 14.5 c 0.4,0 0.7,-0.1 1.1,-0.2 0.7,-0.1 1.4,-0.3 2.1,-0.6 0.4,-0.2 0.8,-0.4 1.1,-0.7 0.4,-0.3 0.7,-0.6 1,-1.1 0.3,-0.5 0.6,-1.2 0.8,-2 0.2,-0.8 0.4,-1.8 0.4,-2.8 L 164.6,6.3 C 164.6,5.6 164.4,5 164.3,4.4 164,3.8 163.8,3.3 163.5,2.7 m -10.2,4.4 c 0.2,0 0.4,0 0.6,0 0.2,0 0.4,0.1 0.5,0.1 0.1,0 0.3,0.1 0.4,0.2 0.1,0.1 0.2,0.2 0.3,0.3 0.3,0.5 0.3,1.1 0.3,1.7 V 34 c 0,0.2 0,0.4 0,0.5 0,0.2 -0.1,0.3 -0.1,0.5 -0.1,0.1 -0.1,0.3 -0.2,0.4 -0.1,0.1 -0.2,0.2 -0.3,0.3 -0.1,0.1 -0.3,0.2 -0.4,0.2 h -1.5 V 7.1 h 0.4"
   style="fill:#e9e1d0;fill-opacity:1" />
<path
   id="path11"
   class="st0"
   d="m 200.1,38.5 h -10 c -1.2,0 -2.1,-0.1 -2.7,-0.1 -0.5,0 -0.9,-0.2 -1.2,-0.5 -0.3,-0.3 -0.4,-0.7 -0.5,-1.3 -0.1,-0.7 -0.1,-1.8 -0.1,-3.2 v -24 c 0,-1.2 0,-2.1 0.1,-2.8 0.1,-0.6 0.3,-1 0.6,-1.4 0.3,-0.3 0.7,-0.5 1.1,-0.6 0.5,-0.1 1.4,-0.1 2.8,-0.1 h 9.9 v 6.9 h 4.6 V 0.1 H 189 c -1.2,0 -2.3,0.1 -3.5,0.2 -1.2,0.1 -2.3,0.7 -3.3,1.5 -1,1 -1.6,2.2 -1.7,3.5 -0.1,1.3 -0.2,2.8 -0.2,4.6 v 24 c 0,1.6 0.1,3 0.2,4 0.2,1.2 0.7,2.2 1.5,3.1 0.9,0.9 1.9,1.4 3.1,1.6 1.1,0.2 2.6,0.2 4.4,0.2 h 15.2 V 31.5 H 200 v 7 z"
   style="fill:#e9e1d0;fill-opacity:1" />
<path
   id="path13"
   class="st0"
   d="m 235.7,7.5 c 0,-0.8 0,-1.6 -0.1,-2.4 -0.1,-0.8 -0.2,-1.5 -0.5,-2.1 -0.3,-0.6 -0.8,-1.2 -1.4,-1.6 -0.6,-0.5 -1.4,-0.8 -2.5,-1 -0.3,0 -0.5,-0.1 -0.8,-0.1 -0.2,0 -0.6,0 -0.9,-0.1 -0.4,0 -0.9,0 -1.5,0 h -19.2 v 4.4 h 4 v 33.9 h -4 v 4.4 H 222 v -4.4 h -4.1 v -15 h 9.6 c 0.8,0 1.7,0 2.4,-0.1 0.8,0 1.6,-0.2 2.3,-0.4 0.7,-0.2 1.4,-0.6 1.9,-1.1 0.5,-0.5 1,-1.2 1.3,-2.2 0.2,-0.5 0.3,-1.2 0.3,-1.8 0,-0.6 0,-1.5 0,-2.5 z m -5,1.7 v 5.4 c 0,1 0,1.9 -0.1,2.5 -0.1,0.6 -0.2,1 -0.4,1.3 -0.2,0.3 -0.6,0.5 -1.2,0.6 -0.6,0.1 -1.5,0.2 -2.7,0.2 h -8.4 V 4.5 h 8.2 c 1.2,0 2.1,0 2.7,0.1 0.6,0.1 1,0.2 1.2,0.5 0.3,0.2 0.4,0.7 0.5,1.3 0.2,0.6 0.2,1.6 0.2,2.8 z"
   style="fill:#e9e1d0;fill-opacity:1" />
<path
   id="path15"
   class="st0"
   d="m 259.3,31.5 v 6.9 h -10 c -1.2,0 -2.1,-0.1 -2.7,-0.1 -0.5,0 -0.9,-0.2 -1.2,-0.5 -0.3,-0.3 -0.4,-0.7 -0.5,-1.3 -0.1,-0.7 -0.1,-1.8 -0.1,-3.2 v -24 c 0,-1.2 0,-2.1 0.1,-2.8 0.1,-0.6 0.3,-1 0.6,-1.4 0.3,-0.3 0.7,-0.5 1.1,-0.6 0.5,-0.1 1.4,-0.1 2.8,-0.1 h 9.9 v 6.9 h 4.6 V 0.1 h -15.7 c -1.2,0 -2.3,0.1 -3.5,0.2 -1.2,0.1 -2.3,0.7 -3.3,1.5 -1,1 -1.6,2.2 -1.7,3.5 -0.1,1.3 -0.2,2.8 -0.2,4.6 v 24 c 0,1.6 0.1,3 0.2,4 0.2,1.2 0.7,2.2 1.5,3.1 0.9,0.9 1.9,1.4 3.1,1.6 1.1,0.2 2.6,0.2 4.4,0.2 H 264 V 31.5 Z"
   style="fill:#e9e1d0;fill-opacity:1" />
</svg>
