<?xml version="1.0" encoding="UTF-8" standalone="no"?>
<!-- Generator: Adobe Illustrator 26.0.3, SVG Export Plug-In . SVG Version: 6.00 Build 0)  -->

<svg
   version="1.1"
   id="Warstwa_1"
   x="0px"
   y="0px"
   viewBox="0 0 429.21853 76.211009"
   xml:space="preserve"
   sodipodi:docname="channelf.svg"
   width="429.21854"
   height="76.211006"
   inkscape:version="1.1.2 (b8e25be833, 2022-02-05)"
   xmlns:inkscape="http://www.inkscape.org/namespaces/inkscape"
   xmlns:sodipodi="http://sodipodi.sourceforge.net/DTD/sodipodi-0.dtd"
   xmlns="http://www.w3.org/2000/svg"
   xmlns:svg="http://www.w3.org/2000/svg"><defs
   id="defs21" /><sodipodi:namedview
   id="namedview19"
   pagecolor="#ffffff"
   bordercolor="#666666"
   borderopacity="1.0"
   inkscape:pageshadow="2"
   inkscape:pageopacity="0.0"
   inkscape:pagecheckerboard="0"
   showgrid="false"
   inkscape:zoom="2.4656257"
   inkscape:cx="214.75279"
   inkscape:cy="38.529774"
   inkscape:window-width="2560"
   inkscape:window-height="1387"
   inkscape:window-x="-8"
   inkscape:window-y="-8"
   inkscape:window-maximized="1"
   inkscape:current-layer="Warstwa_1" />
<style
   type="text/css"
   id="style2">
	.st0{fill:#E9E1D0;}
</style>
<path
   class="st0"
   d="m 429.11853,44.510366 c -0.6,4.2 -1,8.5 -1.7,12.7 -0.4,2.7 -1.1,5.5 -1.8,8.1 -0.7,3.8 -3.9,6.6 -7.7,7 -8.5,1.2 -17,2.6 -25.5,3.3 -16.9,1.3 -33.9,0.5 -50.6,-2.5 -0.7,-0.1 -1.4,-0.3 -2.1,-0.4 -6.2,-0.5 -9.5,-3.8 -10.8,-9.9 -3.7,-16.5 -3.6,-33.6 0.2,-50 1.2,-5.3 4.1,-8.2 9.6,-9.2 16,-2.79999996 32.1,-4.29999996 48.2,-3.29999996 10.3,0.69999996 20.6,2.29999996 30.9,3.59999996 4.1,0.3 7.4,3.4 8,7.5 1.1,5.9 2,11.8 3,17.7 0.1,0.9 0.3,1.8 0.4,2.7 z m -54.2,0.7 h 20.6 v -14 h -20.4 v -8.2 h 20.4 v -15.3 h -35.8 v 61.2 h 15.2 z"
   id="path4"
   style="fill:#e9e1d0;fill-opacity:1" />
<path
   class="st0"
   d="m 77.418526,67.310366 v -21.4 h -16.9 v 21.2 h -14.4 v -55.5 h 14.3 v 21.2 h 16.9 v -21.2 h 14.5 v 49.2 l 0.4,0.1 c 0.3,-0.7 0.7,-1.3 1,-2 7.000004,-15.2 14.000004,-30.4 20.900004,-45.6 0.4,-1.3 1.7,-2.1 3,-1.9 7.2,0.1 14.4,0 21.9,0 v 55.8 h -14.2 v -21.4 c -3.6,0 -6.9,-0.1 -10.3,0.1 -0.5,0 -1.2,0.9 -1.4,1.6 -2.8,6 -5.6,12 -8.3,18.1 -0.3,1.2 -1.5,1.9 -2.7,1.8 -8.100004,-0.2 -16.300004,-0.1 -24.700004,-0.1 z m 47.200004,-44.2 h -0.4 l -4.4,9.7 h 4.8 z"
   id="path6"
   style="fill:#e9e1d0;fill-opacity:1" />
<path
   class="st0"
   d="m 177.11853,40.210366 v -28.6 h 14.4 v 55.7 c -4.6,0 -9.1,0 -13.7,-0.1 -0.6,0 -1.2,-0.8 -1.6,-1.4 -5.4,-8.3 -10.7,-16.6 -16,-24.9 -0.4,-0.6 -0.9,-1.3 -1.6,-2.3 v 28.6 h -14.4 v -55.8 c 4.6,0 9.1,-0.1 13.7,0.1 0.6,0 1.2,0.9 1.6,1.4 5.3,8.3 10.7,16.6 16,24.9 0.3,0.7 0.8,1.3 1.6,2.4 z"
   id="path8"
   style="fill:#e9e1d0;fill-opacity:1" />
<path
   class="st0"
   d="m 243.21853,67.310366 c -4.6,0 -9,0.1 -13.4,-0.1 -0.6,0 -1.4,-0.8 -1.8,-1.5 -5.4,-8.3 -10.8,-16.7 -16.1,-25.1 -0.4,-0.6 -0.8,-1.1 -1.5,-2.2 v 28.7 h -14.4 v -55.7 c 4.5,0 9.1,0 13.6,0.1 0.6,0 1.2,0.9 1.6,1.4 5.3,8.3 10.7,16.6 16,24.9 0.4,0.7 0.9,1.3 1.7,2.5 v -28.8 h 14.3 z"
   id="path10"
   style="fill:#e9e1d0;fill-opacity:1" />
<path
   class="st0"
   d="m 248.21853,67.110366 v -55.5 h 30.9 v 12.5 h -16.5 v 8.8 h 16.4 v 12.8 h -16.5 v 8.8 h 16.5 v 12.6 z"
   id="path12"
   style="fill:#e9e1d0;fill-opacity:1" />
<path
   class="st0"
   d="m 42.518526,34.110366 c -4,-7.2 -10,-10.3 -16.7,-8.8 -7.8,1.8 -12.6,9.5 -10.9,17.3 1.1,4.8 4.5,8.7 9.1,10.3 6.9,2.5 12.6,0.1 18.7,-8.1 v 6.7 c 0,3.9 0,7.7 0,11.6 0.2,1.1 -0.5,2.1 -1.5,2.5 -11,4.6 -21.4,3.7 -30.6,-4 -9.2000003,-7.7 -12.6000003,-18 -9.5000003,-29.6 3.1,-11.5 10.9000003,-18.5 22.6000003,-21 5.9,-1.2 12,-0.5 17.3,2.2 0.8,0.4 1.4,1.2 1.6,2.1 0.1,5.9 0.1,11.7 0.1,17.6 0,0.3 -0.1,0.8 -0.2,1.2 z"
   id="path14"
   style="fill:#e9e1d0;fill-opacity:1" />
<path
   class="st0"
   d="m 298.61853,54.510366 h 16.6 v 12.6 h -30.9 v -55.6 h 14.3 z"
   id="path16"
   style="fill:#e9e1d0;fill-opacity:1" />
</svg>
