<?xml version="1.0" encoding="UTF-8" standalone="no"?>
<!-- Generator: Adobe Illustrator 26.0.3, SVG Export Plug-In . SVG Version: 6.00 Build 0)  -->

<svg
   version="1.1"
   id="Layer_1"
   x="0px"
   y="0px"
   viewBox="0 0 264 77.998192"
   xml:space="preserve"
   sodipodi:docname="colecovision.svg"
   width="264"
   height="77.998192"
   inkscape:version="1.1.2 (b8e25be833, 2022-02-05)"
   xmlns:inkscape="http://www.inkscape.org/namespaces/inkscape"
   xmlns:sodipodi="http://sodipodi.sourceforge.net/DTD/sodipodi-0.dtd"
   xmlns="http://www.w3.org/2000/svg"
   xmlns:svg="http://www.w3.org/2000/svg"><defs
   id="defs1313" /><sodipodi:namedview
   id="namedview1311"
   pagecolor="#ffffff"
   bordercolor="#666666"
   borderopacity="1.0"
   inkscape:pageshadow="2"
   inkscape:pageopacity="0.0"
   inkscape:pagecheckerboard="0"
   showgrid="false"
   inkscape:zoom="1.1039267"
   inkscape:cx="20.381789"
   inkscape:cy="7.2468582"
   inkscape:window-width="2560"
   inkscape:window-height="1387"
   inkscape:window-x="-8"
   inkscape:window-y="-8"
   inkscape:window-maximized="1"
   inkscape:current-layer="Layer_1" />
<style
   type="text/css"
   id="style1305">
	.st0{fill:#E9E1D0;}
</style>
<g
   transform="scale(0.44,0.439179)"
   id="g1308">
	<path
   id="path20"
   class="st0"
   d="M 295.2,91.2 V 116 h -70.4 c -8,0 -7.6,8 0,8 0,0 30.9,0 46.4,0 36.2,0 36.1,53.6 0,53.6 -24.3,0 -72.8,0 -72.8,0 v -24 c 0,0 46.4,0 69.6,0 8.3,0 7.8,-8 0,-8 -14.4,0 -43.2,0 -43.2,0 -37.1,0 -37,-54.4 0,-54.4 23.5,0 70.4,0 70.4,0 z m 161.6,0 h 82.4 c 14.8,0 28,11.5 28,27.2 v 59.2 h -29.6 v -51.2 c 0,-8.5 -5.1,-10.3 -11.2,-10.4 h -40 v 61.6 h -29.6 z m -77.6,24.1 c -7.9,0 -11.2,5 -11.2,11.1 v 16 c 0,6.6 5.7,11.2 11.2,11.2 H 412 c 3.9,0 10.4,-2.6 10.4,-11.2 v -16 c 0,-5.4 -3.3,-11.3 -10.4,-11.3 z M 368,91.2 h 55.2 c 17.5,0 28.8,11.9 28.8,26.4 v 32 c 0,22.7 -19.6,28 -28.8,28 H 368 c -20.7,0 -29.6,-16.7 -29.6,-28 v -32 c 0,-18.4 16.5,-26.4 29.6,-26.4 z m -64.8,0 h 29.6 v 86.4 h -29.6 z m -142.4,0 h 29.6 v 86.4 h -29.6 z m -134.4,0 h 32.8 l 32,56 37.6,-56 H 156 l -51.2,86.4 H 77.9 Z M 290.4,0 H 384 v 21.6 h -64.8 v 8 H 384 v 21.6 h -64.8 c 0,7.9 5.8,11.2 12,11.2 H 384 V 85.6 H 316 C 300.8,85.6 290.3,73 290.3,59.2 Z M 215.2,0 H 244 v 51.2 c 0,7.4 5.5,11.3 12,11.2 h 31.2 v 23.2 h -44.8 c -12.7,0 -27.2,-5.7 -27.2,-26.4 z M 480.8,0 H 416 c -18.6,0 -26.4,17.1 -26.4,26.4 v 32 c 0,20.8 17.1,28.1 26.4,28 h 64.8 v -24 h -49.6 c -3.5,0 -12,-2.6 -12,-10.4 V 35.2 c 0,-8 6,-11.2 12,-11.2 h 49.6 z m 46.4,24.1 c -7.9,0 -11.2,5 -11.2,11.1 v 16 c 0,6.6 5.7,11.2 11.2,11.2 H 560 c 3.9,0 10.4,-2.6 10.4,-11.2 v -16 c 0,-5.4 -3.3,-11.3 -10.4,-11.3 z M 516,0 h 55.2 C 588.7,0 600,11.9 600,26.4 v 32 c 0,22.7 -19.6,28 -28.8,28 H 516 c -20.7,0 -29.6,-16.7 -29.6,-28 v -32 C 486.4,8 502.9,0 516,0 Z M 136.8,24.1 c -7.9,0 -11.2,5 -11.2,11.1 v 16 c 0,6.6 5.7,11.2 11.2,11.2 h 32.8 c 3.9,0 10.4,-2.6 10.4,-11.2 v -16 c 0,-5.4 -3.3,-11.3 -10.4,-11.3 z M 125.6,0 h 55.2 c 17.5,0 28.8,11.9 28.8,26.4 v 32 c 0,22.7 -19.6,28 -28.8,28 h -55.2 c -20.7,0 -28.8,-16.7 -28.8,-28 v -32 C 96.8,8 112.5,0 125.6,0 Z M 91.2,0 H 26.4 C 7.8,0 0,17.1 0,26.4 v 32 c 0,20.8 17.1,28.1 26.4,28 h 64.8 v -24 H 40.8 c -3.5,0 -12,-2.6 -12,-10.4 V 35.2 c 0,-8 6,-11.2 12,-11.2 h 50.4 z"
   style="fill:#e9e1d0;fill-opacity:1" />
</g>
</svg>
