<?xml version="1.0" encoding="UTF-8" standalone="no"?>
<!-- Generator: Adobe Illustrator 26.0.3, SVG Export Plug-In . SVG Version: 6.00 Build 0)  -->

<svg
   version="1.1"
   id="Layer_1"
   x="0px"
   y="0px"
   viewBox="0 0 264.04401 42.009583"
   xml:space="preserve"
   sodipodi:docname="intellivision.svg"
   width="264.04401"
   height="42.009583"
   inkscape:version="1.1.2 (b8e25be833, 2022-02-05)"
   xmlns:inkscape="http://www.inkscape.org/namespaces/inkscape"
   xmlns:sodipodi="http://sodipodi.sourceforge.net/DTD/sodipodi-0.dtd"
   xmlns="http://www.w3.org/2000/svg"
   xmlns:svg="http://www.w3.org/2000/svg"><defs
   id="defs11" /><sodipodi:namedview
   id="namedview9"
   pagecolor="#ffffff"
   bordercolor="#666666"
   borderopacity="1.0"
   inkscape:pageshadow="2"
   inkscape:pageopacity="0.0"
   inkscape:pagecheckerboard="0"
   showgrid="false"
   inkscape:zoom="0.55104167"
   inkscape:cx="959.09263"
   inkscape:cy="540.79395"
   inkscape:window-width="2560"
   inkscape:window-height="1387"
   inkscape:window-x="-8"
   inkscape:window-y="-8"
   inkscape:window-maximized="1"
   inkscape:current-layer="Layer_1" />
<style
   type="text/css"
   id="style2">
	.st0{fill:#E9E1D0;}
</style>
<g
   transform="matrix(0.44,0,0,0.444226,0,0.0444226)"
   id="g6"
   style="fill:#e9e1d0;fill-opacity:1">
	<path
   id="path5"
   class="st0"
   d="m 446.8,0 c -0.7,0 -1.1,0.6 -1.1,1.3 l -0.1,13.8 c 0,0.7 0.6,1 1.3,1 l 6.4,-0.1 c 0.7,0 1.3,-0.4 1.3,-1.1 v -2.6 c 0,-0.7 -0.6,-1 -1.3,-1 h -4.1 c -0.7,0 -1.3,-0.4 -1.3,-1 v -9 C 447.9,0.6 447.5,0 446.8,0 Z m 31.1,0 c -0.1,0 -0.2,0 -0.2,0 -0.5,0.1 -0.8,0.6 -0.8,1.2 L 476.7,15 c 0,0.4 0.2,0.7 0.6,0.9 0.1,0 0.1,0.1 0.2,0.1 0.1,0 0.2,0 0.2,0.1 0.1,0 0.2,0 0.3,0 l 6.3,-0.1 c 0.7,0 1.3,-0.4 1.3,-1.1 v -2.6 c 0,-0.7 -0.6,-1 -1.3,-1 h -4.1 c -0.7,0 -1.3,-0.4 -1.3,-1 V 1.2 C 479,0.6 478.6,0 477.9,0 Z m -99.4,0 c -0.7,0 -1.3,0.4 -1.3,1.1 l 0.1,2.1 -0.1,11.6 c 0,0.7 0.4,1.3 1,1.3 0.1,0 0.1,0 0.2,0 0.5,-0.1 0.8,-0.6 0.8,-1.3 V 5.7 c 0,-0.7 0.6,-1.1 1.3,-1.1 h 0.9 c 0.7,0 1.3,0.4 1.3,1.1 l 0.9,4.9 c 0,0.7 0.3,1.3 1,1.3 h 2.3 c 0.1,0 0.2,0 0.2,0 0.5,-0.1 0.8,-0.6 1.1,-1.2 0,0 2.6,-6.2 2.7,-6.5 0.2,-0.5 0.9,-0.4 0.9,0.1 v 9.3 1.4 c 0,0.7 0.3,1.3 1,1.3 h 2.6 c 0.1,0 0.2,0 0.2,0 0.1,0 0.1,0 0.2,-0.1 0.3,-0.2 0.5,-0.6 0.8,-1.2 l 2,-4.3 c 0.3,-0.6 0.7,-1 1.3,-1.1 h 3.2 c 0.7,0 1.3,0.4 1.3,1.1 l 0.2,4.6 c 0,0.5 0.2,0.7 0.6,0.9 0.1,0.1 0.3,0.1 0.4,0.1 0.6,0.1 1.4,0.1 2,0.1 0.6,0 1.5,-0.4 1.5,-1 V 1.3 c 0,-0.7 -0.6,-1 -1.3,-1 h -6.9 c -0.7,0 -1.1,0.4 -1.3,1 0,0 -4.5,11.4 -4.6,11.7 0,0 0,0.1 -0.1,0.1 -0.1,0.1 -0.2,0.1 -0.3,0.1 -0.3,0.1 -0.6,0 -0.6,-0.3 0,-0.5 0,-11.2 0,-11.2 0,-0.7 -0.3,-1.4 -1,-1.4 h -2.4 c -0.7,0 -0.9,0.5 -1.4,1.3 0,0 -2.9,7.1 -3,7.4 0,0.1 -0.1,0.2 -0.2,0.2 C 386.2,9 386.1,9 386,9 385.8,9 385.7,8.9 385.6,8.7 385.5,8.2 384.2,1 384.2,1 c 0,-0.7 -0.6,-1.1 -1.3,-1.1 h -4.4 z m 125.2,0 c -0.7,0 -1.3,0.4 -1.3,1 l -0.1,14 c 0,0.3 0.1,0.5 0.2,0.6 0.1,0.2 0.3,0.3 0.6,0.4 0.1,0 0.2,0 0.2,0.1 0.1,0 0.2,0 0.3,0 h 2.2 v 0 h 5.3 c 0.1,0 0.2,0 0.3,0 0.1,0 0.2,0 0.2,-0.1 0.5,-0.1 0.8,-0.4 0.8,-1 0,-0.7 -0.6,-1.1 -1.3,-1.1 h -5.3 v 0 c -0.7,0 -1.2,-0.4 -1.2,-1.1 l 0.1,-7.4 c 0,-0.7 0.6,-1 1.3,-1 h 5.3 c 0.7,0 1.3,-0.4 1.3,-1 V 1.1 C 512.6,0.4 512,0 511.3,0 Z m 22.9,0 c -0.1,0 -0.2,0 -0.3,0 -0.6,0.1 -1,0.4 -1,1 0,0.4 0,0.7 0,1 0,4 -0.1,8 -0.1,12 0,0.2 0,0.5 -0.1,0.8 0,0.1 0,0.3 0,0.4 0,0.1 0.1,0.2 0.1,0.3 0.2,0.3 0.4,0.5 0.7,0.6 0.3,0.1 0.6,0.1 0.9,0.1 0.5,0 0.9,0 1.3,0 0.1,0 0.3,0 0.4,-0.1 0.5,-0.1 1,-0.4 1.2,-1 l 0.2,-4.6 c 0,-0.7 0.6,-1.1 1.3,-1.1 h 3.5 c 0.7,0 1.3,0.4 1.3,1.1 l 0.1,4.3 c 0,0.7 0.3,1.3 1,1.3 0.1,0 0.2,0 0.2,0 0.5,-0.1 0.8,-0.6 0.8,-1.3 V 11.1 9 c 0,-1 -0.9,-1.3 -1.5,-1.7 -0.2,-0.1 -0.4,-0.2 -0.5,-0.3 -0.1,-0.1 -0.2,-0.2 -0.2,-0.4 0,-0.9 0,-5.6 0,-5.6 0,-0.7 -0.6,-1 -1.3,-1 z M 542,0 c -0.1,0 -0.2,0 -0.3,0 -0.6,0.1 -1,0.4 -1,1 l -0.1,14 c 0,0.3 0.1,0.6 0.4,0.8 0.1,0 0.1,0.1 0.2,0.1 0.2,0.1 0.4,0.2 0.7,0.2 h 8.9 c 0.7,0 1.3,-0.4 1.3,-1.1 L 552,1 c 0,-0.7 -0.6,-1 -1.3,-1 z m 13.9,0 c -0.1,0 -0.2,0 -0.3,0 -0.2,0 -0.3,0.1 -0.5,0.1 -0.3,0.2 -0.6,0.5 -0.6,0.9 l 0.1,2.1 -0.1,11.6 c 0,0.6 0.3,1.1 0.8,1.3 0.1,0 0.1,0 0.2,0 0.1,0 0.2,0 0.2,0 0.5,-0.1 0.8,-0.6 0.8,-1.3 v -9 c 0,-0.7 0.6,-1.1 1.3,-1.1 h 4.7 c 0.7,0 1.3,0.4 1.3,1.1 l 0.1,9.1 c 0,0.7 0.3,1.3 1,1.3 0.1,0 0.2,0 0.2,0 0.5,-0.1 0.8,-0.6 0.8,-1.3 V 4.7 1.2 c 0,-0.7 -0.6,-1.1 -1.3,-1.1 h -8.7 z m 22,0 c -0.5,0 -1,0.2 -1.2,0.6 -0.1,0.1 -0.1,0.3 -0.1,0.4 l -0.1,14 c 0,0.3 0.1,0.5 0.2,0.6 0.2,0.3 0.6,0.4 1.1,0.4 h 7.5 c 0.7,0 1.3,-0.3 1.3,-1 0,-0.7 -0.6,-1.1 -1.3,-1.1 H 580 c -0.7,0 -1.3,-0.4 -1.3,-1.1 l 0.1,-7.4 c 0,-0.7 0.6,-1 1.3,-1 h 5.3 c 0.7,0 1.3,-0.3 1.3,-1 V 1.1 C 586.7,0.4 586.1,0 585.4,0 Z m -6.3,0 c -0.4,0 -0.7,0.2 -0.9,0.6 -0.1,0.1 -0.1,0.3 -0.1,0.5 0,0.1 0,0.2 0,0.3 l 0.1,9.2 c 0,0.5 -0.3,0.8 -0.7,1 -0.1,0 -0.1,0 -0.2,0.1 -0.1,0 -0.2,0 -0.3,0 H 569 c -0.7,0 -1.4,0.3 -1.4,1 v 2.5 c 0,0.3 0.2,0.6 0.4,0.8 0.1,0 0.1,0.1 0.2,0.1 0.2,0.1 0.5,0.2 0.8,0.2 h 4.2 c 0.7,0 1.3,-0.4 1.3,-1.1 v -2.5 c 0,-0.1 0,-0.2 0,-0.3 -0.1,-0.6 -0.5,-0.7 -0.9,-0.7 -0.2,0 -0.3,-0.1 -0.5,-0.1 -0.2,-0.1 -0.4,-0.4 -0.4,-0.9 V 1.3 C 572.7,0.6 572.3,0 571.6,0 Z M 412.4,0.1 c -0.7,0 -1.3,0.4 -1.3,1.1 v 2.5 c 0,0.7 0.6,1 1.3,1 h 1.6 c 0.7,0 1.3,0.4 1.3,1 l -0.1,9.2 c 0,0.7 0.4,1.3 1,1.3 0.1,0 0.1,0 0.2,0 0.5,-0.1 0.8,-0.6 0.8,-1.3 V 5.6 c 0,-0.6 0.4,-0.9 1,-1 0.1,0 0.2,0 0.3,0 h 4.4 c 0.7,0 1.3,0.4 1.3,1 v 9.2 c 0,0.7 0.4,1.3 1.1,1.3 0.1,0 0.2,0 0.2,0 0.5,-0.1 0.8,-0.6 0.8,-1.3 l -0.1,-9.2 c 0,-0.6 0.5,-0.9 1,-1 0.1,0 0.2,0 0.3,0 h 1.6 c 0.7,0 1.3,-0.3 1.3,-1 V 1.1 C 430.4,0.4 429.8,0 429.1,0 h -16.7 z m 102.4,0 c -0.2,0 -0.3,0 -0.5,0.1 -0.1,0 -0.2,0.1 -0.2,0.1 -0.3,0.2 -0.6,0.5 -0.6,0.9 v 2.5 c 0,0.7 0.6,1 1.3,1 h 1.6 c 0.7,0 1.3,0.3 1.3,1 l -0.1,9.2 c 0,0.4 0.1,0.7 0.3,0.9 0,0.1 0.1,0.1 0.2,0.2 0.1,0.1 0.2,0.2 0.4,0.2 0.1,0 0.2,0 0.2,0 0.1,0 0.1,0 0.2,0 0.5,-0.1 0.8,-0.6 0.8,-1.3 V 5.6 c 0,-0.6 0.4,-0.9 1,-1 0.1,0 0.2,0 0.3,0 h 1.6 c 0.7,0 1.3,-0.3 1.3,-1 V 1.1 C 523.9,0.4 523.3,0 522.6,0 h -7.8 z m 83,0 -7.6,0.1 c -0.1,0 -0.2,0 -0.3,0 -0.6,0.1 -1,0.5 -1,1 l 0.1,7.1 c 0,0.7 0.6,1 1.3,1 l 3.7,0.1 c 0.7,0 1.3,0.4 1.3,1.1 l -0.1,2.6 c 0,0.2 0,0.3 -0.1,0.4 -0.1,0.3 -0.4,0.4 -0.7,0.5 -0.1,0 -0.2,0 -0.2,0 0,0 -0.2,0 -0.3,0 h -5.3 c -0.1,0 -0.2,0 -0.3,0 -0.6,0.1 -1,0.4 -1,1 0,0.3 0.1,0.6 0.4,0.8 0.2,0.2 0.6,0.3 0.9,0.3 h 10 c 0.4,0 0.7,-0.1 0.9,-0.3 0.2,-0.2 0.4,-0.4 0.4,-0.8 L 600,8 c 0,-0.7 -0.6,-1 -1.3,-1 h -6.2 c -0.7,0 -1.3,-0.4 -1.3,-1 l -0.1,-2.9 c 0,-0.7 0.6,-1.1 1.3,-1.1 h 5.4 c 0.7,0 1.3,-0.4 1.3,-1.1 0,-0.7 -0.6,-0.8 -1.3,-0.8 z M 435.3,0.2 c -0.7,0 -1.3,0.3 -1.3,1 v 4.9 c 0,0.7 -0.3,1.3 -1,1.3 h -1.4 c -0.7,0 -1.3,0.3 -1.3,1 l -0.1,6.6 c 0,0.5 0.3,0.8 0.8,1 0.1,0 0.1,0 0.2,0.1 0.1,0 0.2,0 0.3,0 h 10.4 c 0.7,0 1.3,-0.4 1.3,-1 0,-0.6 -0.6,-1.1 -1.3,-1.1 h -8.2 c -0.7,0 -1.3,-0.4 -1.3,-1.1 l 0.1,-2.5 c 0,-0.7 0.6,-1 1.3,-1 h 8.1 c 0.1,0 0.2,0 0.3,0 0.1,0 0.2,0 0.2,-0.1 0.5,-0.1 0.8,-0.5 0.8,-1 0,-0.6 -0.4,-1 -1,-1 -0.1,0 -0.2,0 -0.3,0 h -1.8 c -0.1,0 -0.2,0 -0.3,0 -0.3,0 -0.6,-0.2 -0.8,-0.4 -0.1,-0.2 -0.2,-0.4 -0.2,-0.6 l 0.1,-3 c 0,-0.7 0.6,-1 1.3,-1 h 1.7 c 0.7,0 1.3,-0.4 1.3,-1 0,-0.7 -0.6,-1.1 -1.3,-1.1 z m 31.1,0 c -0.4,0 -0.8,0.1 -1.1,0.4 0,0.1 -0.1,0.1 -0.1,0.2 -0.1,0.1 -0.1,0.3 -0.1,0.4 v 4.9 c 0,0.7 -0.3,1.3 -1,1.3 h -1.4 c -0.7,0 -1.3,0.3 -1.3,1 l -0.1,6.6 c 0,0.3 0.1,0.5 0.2,0.6 0.1,0.2 0.3,0.3 0.6,0.4 0.1,0 0.2,0 0.2,0.1 0.1,0 0.2,0 0.3,0 H 473 c 0.7,0 1.3,-0.3 1.3,-1 0,-0.7 -0.6,-1.1 -1.3,-1.1 h -8.2 c -0.7,0 -1.3,-0.4 -1.3,-1.1 l 0.1,-2.5 c 0,-0.7 0.6,-1 1.3,-1 h 8.1 c 0.1,0 0.2,0 0.3,0 0.1,0 0.2,0 0.2,-0.1 0.5,-0.1 0.8,-0.5 0.8,-1 0,-0.6 -0.4,-1 -1,-1 -0.1,0 -0.2,0 -0.3,0 h -1.8 c -0.1,0 -0.2,0 -0.3,0 -0.3,0 -0.6,-0.2 -0.8,-0.4 -0.1,-0.2 -0.2,-0.4 -0.2,-0.6 l 0.1,-3 c 0,-0.7 0.6,-1 1.3,-1 h 1.7 c 0.7,0 1.3,-0.4 1.3,-1 0,-0.7 -0.6,-1.1 -1.3,-1.1 z m 25.8,0 c -0.4,0 -0.8,0.1 -1.1,0.4 0,0.1 -0.1,0.1 -0.1,0.2 -0.1,0.1 -0.1,0.3 -0.1,0.4 v 4.9 c 0,0.7 -0.4,1.3 -1,1.3 h -1.4 c -0.7,0 -1.3,0.3 -1.3,1 l -0.1,6.6 c 0,0.3 0.1,0.5 0.2,0.6 0.1,0.2 0.3,0.3 0.6,0.4 0.1,0 0.2,0 0.2,0.1 0.1,0 0.2,0 0.3,0 h 10.4 c 0.7,0 1.3,-0.3 1.3,-1 0,-0.7 -0.6,-1.1 -1.3,-1.1 h -8.1 c -0.7,0 -1.3,-0.4 -1.3,-1.1 l 0.1,-2.5 c 0,-0.7 0.6,-1 1.3,-1 h 8.1 c 0.1,0 0.2,0 0.3,0 0.1,0 0.2,0 0.2,-0.1 0.5,-0.1 0.8,-0.5 0.8,-1 0,-0.6 -0.5,-1 -1,-1 -0.1,0 -0.2,0 -0.3,0 h -1.8 c -0.1,0 -0.2,0 -0.3,0 -0.3,0 -0.6,-0.2 -0.8,-0.4 -0.1,-0.2 -0.2,-0.4 -0.2,-0.6 l 0.1,-3 c 0,-0.7 0.6,-1 1.3,-1 h 1.7 c 0.7,0 1.3,-0.4 1.3,-1 0,-0.7 -0.6,-1.1 -1.3,-1.1 z m -89.3,2.1 h 2.9 c 0.7,0 1.3,0.4 1.3,1 l 0.1,3 c 0,0.7 -0.6,1.1 -1.3,1.1 h -4.2 c -1.5,0 -1.3,-1 -1.2,-1.4 l 1.2,-2.7 c 0.2,-0.5 0.4,-1 1.2,-1 z m 126,0 h 3.5 c 0.7,0 1.3,0.4 1.3,1 l 0.1,3 c 0,0.7 -0.6,1.1 -1.3,1.1 h -3.7 c -0.7,0 -1.3,-0.4 -1.3,-1.1 l 0.1,-3 c 0,-0.6 0.6,-1 1.3,-1 z m 15.2,0 h 4.7 c 0.7,0 1.3,0.4 1.3,1 l 0.1,7.4 c 0,0.7 -0.6,1.1 -1.3,1.1 H 544 c -0.7,0 -1.3,-0.4 -1.3,-1.1 l 0.1,-7.4 c 0,-0.6 0.5,-1 1.3,-1 z"
   style="fill:#e9e1d0;fill-opacity:1" />
	<path
   id="path7"
   class="st0"
   d="m 353.4,6.2 c 0,0 -16.4,63 -16.8,64.4 -0.6,1.9 -2.3,2.5 -3.3,0.3 -1.1,-2.3 -13.6,-44.8 -13.6,-44.8 h -22.6 c 0,0 16.9,55.4 17.7,57.1 8,17.2 25.7,10.3 29.3,-2.3 3.7,-13 19.7,-74.7 19.7,-74.7 z M 119.8,10.9 84.7,33.3 c 0,-4.3 0,-7.1 0,-7.1 H 73.5 v 30.9 c 0,0.8 -1.5,2.2 -2.7,0.3 0,0 -14.9,-21.3 -20.3,-27.8 -4.5,-5.4 -20.1,-5.1 -20.1,7.6 0,8 0,55.2 0,55.2 h 11.2 v -39 c 0,-2.2 1.9,-1.4 3.1,-0.1 0.5,0.6 24.5,37 25.5,38.5 2.4,3.3 14.5,5.7 14.5,-6.7 0,-8.9 0,-35.3 0,-49.6 h 10.9 c 1.1,0 2.6,1.3 2.6,1.3 0,1.1 -0.2,35.1 -0.2,39.6 0,10.1 8.4,16.9 17.4,16.9 h 20.1 v -9.8 h -9.3 c -3.3,0 -5.9,-2.4 -5.9,-5.8 V 39.5 c 0,-2.1 1.7,-5 4.9,-5 3.3,0 10.3,-0.1 10.3,-0.1 V 26 h -13.9 c -1.3,0 -2,-1 -2,-2 z M 0.2,11.2 C 0.2,11.2 0,88.8 0,93.4 H 21.7 V 11.3 Z m 506.6,14.1 c -10.4,0 -19.8,4.3 -26.3,11.3 -0.4,0.4 -0.8,0.8 -1.1,1.3 -5.1,5.9 -8.1,13.5 -8.1,21.8 0,4.7 1,9.3 2.8,13.4 0.2,0.5 0.5,1 0.7,1.5 4.2,8.5 12,15.1 21.4,17.9 0.6,0.2 1.1,0.3 1.7,0.4 2.8,0.7 5.8,1.1 8.9,1.1 19.6,0 35.5,-15.4 35.5,-34.4 0,-19 -15.9,-34.3 -35.5,-34.3 z M 412,25.8 c -13,0 -23.1,9.3 -23.1,22.6 0,13.7 15.1,18 23,18.8 5,0.5 9.8,4 9.8,8.9 0,3.9 -3.4,7.1 -7.1,7.1 l -23.2,-0.1 v 9.8 h 25.7 c 0.4,0 0.8,0 1.2,0 12.5,-0.6 22.4,-10.6 22.4,-23 0,-2 -0.1,-3.8 -0.4,-5.5 -0.1,-0.4 -0.2,-0.8 -0.2,-1.2 -2.2,-10.3 -10.3,-12.3 -23,-15.7 0,0 -6.7,-2.1 -6.7,-6.1 0,-2.5 1.5,-4.2 3.4,-5.2 0.2,-0.1 0.4,-0.2 0.6,-0.3 1,-0.4 2.2,-0.6 3.3,-0.6 l 15.8,0.1 V 25.6 H 412 Z m -141.6,0.1 c 0,0 -0.2,6.9 -0.2,11.5 l 21.7,-0.1 V 25.9 Z m 92,0 c 0,0 -0.1,6.9 -0.1,11.5 l 21.6,-0.1 V 25.9 Z m 82.9,0 c 0,0 -0.1,6.9 -0.1,11.5 l 21.6,-0.1 V 25.9 Z m -290.7,0 c -6.2,0 -10.7,3.2 -13,8.5 -0.2,0.5 -0.4,1 -0.5,1.5 -0.7,2.1 -1,4.4 -1,6.9 v 33 c 0,10.1 5.4,17.3 14.5,17.3 h 32.5 v -9.8 h -19.3 c -3.3,0 -5.9,-2.8 -5.9,-6.1 V 64.3 h 22.2 v -9.8 l -22.2,-0.1 -0.1,-13 c 0,-3.3 2.6,-5.8 6,-5.8 h 19.3 v -9.8 h -32.5 z m 37.1,0.1 c 0,0 -0.2,45.7 -0.2,50.4 0,1.9 0.3,3.7 0.8,5.3 0.2,0.5 0.3,1.1 0.6,1.6 2.4,5.7 7.6,9.3 13.7,9.9 0.6,0.1 1.1,0.1 1.7,0.1 h 20.1 v -9.8 h -8.9 c -3.3,0 -5.9,-2.4 -5.9,-5.8 V 26 Z m 38.3,0 c 0,0 -0.1,45.7 -0.1,50.4 0,9.5 6.7,16 15,16.8 0.6,0.1 1.1,0.1 1.7,0.1 h 20.1 v -9.8 h -9.2 c -3.3,0 -6,-2.4 -6,-5.8 V 26 Z m 358.8,0.2 v 30.9 c 0,0.8 -1.4,2.2 -2.7,0.3 0,0 -14.8,-21.3 -20.2,-27.8 -4.5,-5.4 -20.1,-5.1 -20.2,7.6 0,8 0,55.2 0,55.2 h 11.2 v -39 c 0,-2.2 1.9,-1.4 3.1,-0.1 0.6,0.6 24.5,37 25.6,38.5 0.5,0.6 1.2,1.2 2.2,1.7 0.3,0.2 0.7,0.3 1.1,0.4 4.4,1.5 11.2,0.5 11.2,-8.8 0,-12.4 0,-59 0,-59 h -11.3 z m -82,7.1 c 8.6,0 12,11.8 12,26.3 0,14.5 -4,26.3 -12,26.3 -2.2,0 -4,-0.7 -5.6,-2 -0.2,-0.2 -0.4,-0.3 -0.6,-0.5 -0.5,-0.6 -1.1,-1.2 -1.5,-1.9 -0.2,-0.2 -0.3,-0.5 -0.5,-0.7 -2.8,-4.8 -3.9,-12.5 -3.9,-21.1 0,-0.9 0,-1.8 0,-2.7 0.2,-8 1,-14.9 3.8,-19.1 0.2,-0.2 0.3,-0.4 0.5,-0.7 1.8,-2.5 4.3,-3.9 7.8,-3.9 z m -236.4,8.3 c 0,0 -0.2,47.2 -0.2,51.9 h 21.7 V 41.6 Z m 92,0 c 0,0 -0.1,47.2 -0.1,51.9 h 21.6 V 41.6 Z m 82.9,0 c 0,0 -0.1,47.2 -0.1,51.9 h 21.6 V 41.6 Z"
   style="fill:#e9e1d0;fill-opacity:1" />
</g>
</svg>
