<?xml version="1.0" encoding="UTF-8" standalone="no"?>
<!-- Generator: Adobe Illustrator 26.0.3, SVG Export Plug-In . SVG Version: 6.00 Build 0)  -->

<svg
   version="1.1"
   id="Warstwa_1"
   x="0px"
   y="0px"
   viewBox="0 0 429.81616 88.702046"
   xml:space="preserve"
   sodipodi:docname="megaduck.svg"
   width="429.81616"
   height="88.702049"
   inkscape:version="1.1.2 (b8e25be833, 2022-02-05)"
   xmlns:inkscape="http://www.inkscape.org/namespaces/inkscape"
   xmlns:sodipodi="http://sodipodi.sourceforge.net/DTD/sodipodi-0.dtd"
   xmlns="http://www.w3.org/2000/svg"
   xmlns:svg="http://www.w3.org/2000/svg"><defs
   id="defs23" /><sodipodi:namedview
   id="namedview21"
   pagecolor="#ffffff"
   bordercolor="#666666"
   borderopacity="1.0"
   inkscape:pageshadow="2"
   inkscape:pageopacity="0.0"
   inkscape:pagecheckerboard="0"
   showgrid="false"
   inkscape:zoom="2.4604651"
   inkscape:cx="214.79679"
   inkscape:cy="44.300567"
   inkscape:window-width="2560"
   inkscape:window-height="1387"
   inkscape:window-x="-8"
   inkscape:window-y="-8"
   inkscape:window-maximized="1"
   inkscape:current-layer="Warstwa_1" />
<style
   type="text/css"
   id="style2">
	.st0{fill:#E9E1D0;}
</style>
<path
   class="st0"
   d="m 65.012387,0.01053871 c 0.9,0.1 1.8,0.2 2.7,0.3 2.3,0.4 3.5,1.69999999 3.5,4.29999999 0,3.2 -0.1,6.5000003 -0.3,9.7000003 -0.5,5.5 -0.5,10.9 0,16.4 0.4,4.4 0.6,8.8 0.5,13.2 0,7.9 -0.2,15.8 -0.3,23.6 0,1 -0.1,2 -0.2,3 -0.2,1.7 -1.7,3.1 -3.4,3.1 -1.7,0.2 -3.3,-1 -3.6,-2.6 -0.5,-2.8 -0.8,-5.5 -1,-8.3 -0.8,-12.2 -1.5,-24.4 -2.3,-36.6 -0.2,-3.6 -0.7,-7.2 -1.1,-10.8 -0.1,-1 -0.2,-2.4 -1.6,-2.5 -1.4,-0.1 -1.8,1 -2.3,2 -1.7,3.9 -3.4,7.8 -4.9,11.8 -4,10.6 -8,21.1 -11.8,31.8 -1.5,4.3 -4.1,8.2 -7.5,11.2 -3.1,2.6 -5.9,1.9 -7.2,-2 -0.5,-1.5 -0.5,-3.1 -0.9,-4.7 -1.7,-7.1 -3.5,-14.3 -5.3,-21.4 -0.8,-3 -1.6,-6 -2.5,-9 -0.3,-1 -0.7,-1.9 -1.2,-2.7 -0.2,-0.4 -0.8,-0.5 -1.2,-0.8 -0.3,0.4 -0.5,0.8 -0.6,1.2 -0.3,3.7 -0.6,7.3 -0.8,11 -0.4,7.5 -0.6,15.1 -0.9,22.6 -0.1,1.4 -0.2,2.7 -0.4,4 0,1.3 -1.1000004,2.3 -2.3000004,2.2 -0.1,0 -0.2,0 -0.4,0 -2.5,0 -5.8,-2.5 -6.2,-5 -0.5,-3.2 -0.79999999,-6.4 -0.89999999,-9.6 -0.3,-7.1 -0.6,-14.2 -0.6,-21.4 -0.1,-8.3 0.4,-16.7 1.69999999,-25.0000003 0.4,-3.2 2.6,-5.9 5.7,-6.8 3.2000004,-1.1 6.6000004,-1.49999999 10.0000004,-1.1 1.2,0.1 2.1,1 2.3,2.1 0.6,2.3 1,4.7 1.5,7.0000003 2.2,11.1 5.3,22 9.3,32.6 0.3,0.8 0.7,1.6 1.1,2.4 0.2,0.3 0.4,0.5 0.6,0.8 0.5,-0.8 1,-1.6 1.4,-2.5 2.9,-7.3 5.9,-14.6 7.6,-22.4 1.3,-5.6 3.6,-10.9 7,-15.5000003 2.3,-3.3 5.4,-5.19999999 9.6,-5.09999999 2,0 4,-0.2 6,-0.3 z"
   id="path4"
   style="fill:#e9e1d0;fill-opacity:1" />
<path
   class="st0"
   d="m 283.41239,40.710539 c -0.3,3.6 -0.6,7.2 -1,10.8 -0.4,2.7 -1.9,5.2 -4.1,6.8 -3.7,2.9 -7.9,5.2 -12.3,6.8 -9.8,3.6 -19.4,7.9 -28.8,12.5 -2.2,1.1 -4.5,1.9 -6.8,2.8 -0.6,0.2 -1.3,0.4 -2,0.4 -1.7,0.1 -2.5,-0.6 -2.4,-2.3 0.1,-2.9 0.2,-5.8 0.6,-8.6 1.6,-11.6 3.2,-23.2 4.9,-34.8 0.5,-2.7 0.3,-5.5 -0.6,-8.2 -1,-3.1 -1.1,-6.4 -0.1,-9.6 1,-3.4 4.6,-4.2 6.8,-1.5 3.4,4.3 5.7,9.1 5.1,14.8 -0.9,8.8 -1.9,17.5 -2.9,26.3 -0.2,1.4 -0.2,2.9 -0.1,4.3 -0.1,0.9 0.6,1.7 1.5,1.8 0.2,0 0.4,0 0.6,-0.1 1,-0.1 1.9,-0.4 2.8,-0.7 7.5,-3 14.7,-6.9 21.4,-11.6 4.4,-3 5.6,-7.3 5.3,-12.3 0,-0.9 -0.1,-1.8 -0.1,-2.8 0,-2.9 -0.9,-5.7 -2.6,-8.1 -2.1,-2.7 -4.1,-5.4 -6.3,-8 -1.5,-1.7 -3.4,-2.9 -5.6,-3.5 -6.2,-1.9 -12.6,-3.3 -19.1,-4 -1.8,-0.2 -3.6,-0.6 -5.4,-1 -0.8,-0.2 -1.4,-0.6 -2,-1.2000003 -2,-2 -3.1,-4.6 -3.3,-7.4 -0.1,-1.79999999 0.4,-2.39999999 2.2,-2.29999999 3.4,0.2 6.7,0.6 10,1.19999999 8.7,1.8 17.4,3.7 26.1,5.7 8.9,2 14,8.0000003 16.2,16.6000003 1.2,5.8 1.5,11.5 2,17.2 z"
   id="path6"
   style="fill:#e9e1d0;fill-opacity:1" />
<path
   class="st0"
   d="m 157.51239,44.810539 c -0.4,8.1 -0.7,16.3 -1.1,24.4 -0.1,1.8 -0.3,3.6 -0.5,5.4 -0.5,3.9 -2.8,6.5 -5.9,8.6 -3.8,2.4 -8.1,4 -12.6,4.6 -6.9,1.1 -14,1.2 -20.9,0.2 -1,-0.1 -1.9,-0.4 -2.8,-0.8 -1.2,-0.5 -2,-1.7 -1.8,-3.1 0.1,-1.3 1,-1.9 2.1,-2.3 2.6,-0.9 5.3,-1.1 8.1,-0.9 4.3,0.3 8.5,0.7 12.8,-0.4 5.1,-1.2 8.6,-4.1 9.6,-9.5 0,0 0,-0.1 0,-0.1 0.6,-3 -0.2,-4 -3.3,-3.9 -3.2,0.2 -6.4,0.2 -9.6,0 -2.9,-0.3 -5.7,-1 -8.5,-1.9 -7.6,-2.4 -11.6,-10.4 -10.1,-18.3 1.1,-5.2 3.9,-9.9 7.9,-13.4 4.9,-4.6 10.9,-7.9 17.5,-9.4 0.8,-0.2 1.6,-0.2 2.4,-0.1 1.1,-0.1 2,0.8 2.1,1.9 0,0.5 -0.1,0.9 -0.4,1.3 -0.3,0.6 -0.7,1.2 -1.2,1.6 -2.7,2.1 -5.3,4.2 -8.1,6.2 -2.9,1.9 -5.5,4.3 -7.7,7 -1.8,2.4 -2.5,5.6 -1.8,8.5 0.9,4.3 4.3,6.8 9.3,6.7 3.2,-0.1 6.4,-0.8 9.4,-2.1 3.1,-1.2 3.7,-3.9 4,-6.8 0.3,-3.8 0.4,-7.6 0.8,-11.4 0.4,-4.8 1,-9.5 3.1,-14 0.5,-1.2 1.2,-2.3 2.1,-3.4 1.3,-1.4 3.2,-2.1 5.1,-1.7 1,0.1 1.1,0.9 1.1,1.6 -0.1,3.2 -0.1,6.5 -0.2,9.7 -0.4,5.4 -0.7,10.7 -0.9,15.8 z"
   id="path8"
   style="fill:#e9e1d0;fill-opacity:1" />
<path
   class="st0"
   d="m 193.71239,21.110539 c 0.5,-1.4 1.1,-2.7 1.8,-4 0.8,-1.4 1.7,-2.7 2.8,-3.8 1.8,-1.8 4.2,-1 4.5,1.5 0.4,3.2 0.7,6.3 0.8,9.5 0.2,8.2 0.2,16.4 0.4,24.6 0.2,5 0.6,10 1.1,14.9 0.1,1.4 0.6,2.8 0.8,4.2 0.2,1.3 -0.3,2.5 -1.4,3.2 -1,0.8 -2.4,0.8 -3.4,0.1 -1,-0.6 -1.9,-1.4 -2.7,-2.3 -1.3,-1.6 -2.4,-3.4 -3.5,-5.1 -0.2,-0.4 -0.4,-0.8 -0.7,-1.1 -1.1,-1.8 -1.3,-1.8 -2.8,-0.4 -0.8,0.8 -1.6,1.6 -2.4,2.4 -5.7,5.5 -14.8,5.3 -20.3,-0.5 -0.4,-0.5 -0.8,-0.9 -1.2,-1.5 -3.3,-4.5 -5,-9.7 -6,-15.1 -0.8,-4.4 -1.2,-8.9 0,-13.3 0.6,-2.1 1.6,-4.2 2.9,-6 1.8,-2.6 3.9,-5.1 6.2,-7.3 4.7,-4.5 10.3,-5.1 16.3,-2.9 2.2,0.8 4.4,1.9 6.8,2.9 z m -23.2,24.3 c 0.3,2.1 0.7,4.1 1.4,6.1 0.9,2.3 2.2,4.4 3.7,6.4 1.5,2 3.2,1.9 5,0.1 0.7,-0.8 1.3,-1.6 1.9,-2.4 5.9,-8.1 8.6,-17.6 11,-27.1 0.4,-1.4 0.3,-1.6 -1.2,-1.7 -3.9,-0.2 -7.9,-0.3 -11.9,-0.5 -1.3,-0.1 -2.5,0.6 -3.1,1.7 -0.7,1 -1.4,2 -2.2,2.9 -3.1,3.8 -4.4,8.3 -4.6,14.5 z"
   id="path10"
   style="fill:#e9e1d0;fill-opacity:1" />
<path
   class="st0"
   d="m 380.31239,23.010539 c -0.1,-2.7 0.7,-5.3 2.2,-7.6 0.5,-0.8 1.2,-1.4 1.9,-1.9 1.4,-1 2.7,-0.4 2.9,1.2 0.5,3.9 0.7,7.9 1.2,11.8 0.4,3.2 0.9,6.5 1.4,9.7 0,0.2 0.1,0.3 0.1,0.5 1,3.2 1.8,3.7 4.9,2.8 4.1,-1.1 8.1,-2.4 12.2,-3.6 6.5,-1.6 13.3,1.4 16.4,7.3 1.2,2.5 1.2,4.9 -0.7,7.2 -0.8,0.9 -1.4,1.9 -2.1,2.7 -0.5,0.5 -0.6,1.3 -0.1,1.8 0.1,0.1 0.1,0.1 0.2,0.2 1.9,1.8 3.9,3.5 5.7,5.3 1.1,1 2,2.2 2.8,3.4 1,1.7 0.5,2.8 -1.4,3.3 -1.9,0.5 -3.9,0.4 -5.8,-0.4 -3.9,-1.6 -7.6,-3.4 -11.5,-5.1 -4.6,-2 -9.2,-3.9 -13.8,-5.7 -3.1,-1.2 -4.3,-0.4 -5,2.8 -0.3,1.6 -0.2,3.3 -0.6,5 -0.2,1.2 -0.6,2.3 -1.2,3.3 -0.6,0.7 -1.3,1.2 -2.2,1.3 -2.2,0.4 -3.2,-0.5 -3.4,-2.7 -0.5,-5.1 -1,-10.3 -1.5,-15.4 -0.9,-8.6 -1.7,-17.2 -2.6,-25.8 0,-0.4 0,-1 0,-1.4 z m 27.4,26.8 c 2.3,0 4.4,-0.8 6.1,-2.4 1.1,-1 1.1,-1.2 -0.1,-2.2 -2.5,-2 -8.4,-2.1 -11.5,0.1 -0.7,0.5 -1.1,1.2 -1.2,2 0,0.5 0.9,1.3 1.6,1.5 2,0.5 3.9,0.8 5.1,1 z"
   id="path12"
   style="fill:#e9e1d0;fill-opacity:1" />
<path
   class="st0"
   d="m 74.512387,42.110539 c 0.2,-1.8 0.5,-4.9 1,-7.9 0.4,-2 1.6,-3.7 3.3,-4.8 2.6,-1.8 5.1,-3.7 7.6,-5.6 2.2,-1.7 4.9,-2.6 7.7,-2.4 1.8,0.1 3.6,0.1 5.4,0.3 0.700003,0.1 1.400003,0.3 2.000003,0.8 4.1,3.6 5.6,7.4 4.3,12 -0.5,1.9 -1.2,3.6 -2.2,5.3 -0.8,1.3 -1.9,2.3 -3.3,3 -3.400003,1.8 -6.900003,3.2 -10.400003,4.8 l -0.6,0.2 c -4.5,2 -4.7,2.1 -4.2,7.6 0.2,2 1.5,3.3 3.2,4.3 4.1,2.6 8.7,4.5 13.400003,5.7 4.9,1.1 9.9,1.9 14.8,2.9 1.2,0.2 2.4,0.6 3.6,0.9 1,0.2 1.6,1.2 1.4,2.2 0,2.1 -1.1,3.5 -3.2,3.6 -4.1,0.2 -8.3,0.3 -12.4,0.3 -6.600003,0 -12.500003,-2.8 -18.500003,-5 -1.9,-0.7 -3.7,-1.6 -5.6,-2.4 -2.2,-0.9 -3.9,-2.7 -4.6,-5 -1.2,-3.6 -1.9,-7.4 -2.1,-11.1 -0.2,-2.8 -0.3,-5.6 -0.6,-9.7 z m 18.1,-10.5 -0.1,-0.1 c -1.4,0.2 -2.8,0.6 -4.1,1 -2.2,0.8 -3.6,2.9 -3.4,5.2 0.1,1 0.6,1.4 1.5,1.3 1.3,-0.1 2.5,-0.3 3.8,-0.6 2.5,-0.5 4.6,-2.2 5.7,-4.4 0.6,-1.1 0.3,-1.8 -1,-2.1 -0.8,-0.2 -1.6,-0.3 -2.4,-0.3 z"
   id="path14"
   style="fill:#e9e1d0;fill-opacity:1" />
<path
   class="st0"
   d="m 295.21239,36.310539 c 0.4,5.1 0.5,10.1 1.9,15.1 0.2,0.6 0.4,1.3 0.6,1.9 2.9,9 15.3,8.8 19.7,3.8 1.7,-2.1 2.7,-4.7 2.9,-7.3 0.8,-5.3 1.5,-10.6 2.2,-15.9 0.1,-0.9 0.3,-1.8 0.5,-2.7 0.2,-1.1 1,-2 2.1,-2.2 1.1,-0.3 2.2,0.1 2.9,0.9 1.5,1.5 2.2,3.6 1.8,5.7 -0.7,4.8 -0.4,9.6 0.8,14.3 0.7,2.9 1.4,5.7 2,8.6 0.5,2.3 1,4.5 1.5,6.8 0.5,2.1 -0.1,4.2 -1.6,5.7 -1.4,1.4 -2.7,1.5 -4.1,0.2 -1,-0.9 -1.8,-2 -2.6,-3.1 -1.1,-1.7 -2.2,-2.4 -4.2,-1.9 -1.9,0.4 -3.8,1 -5.6,1.6 -3.2,1.1 -6.5,2 -10,1.7 -8,-0.7 -15.4,-7.2 -16.9,-15.1 -1.7,-9.4 -2.4,-18.9 -2.1,-28.5 0.1,-3 2.2,-4.2 4.9,-2.9 1.9,0.8 3.2,2.6 3.2,4.7 0.1,2.8 0.1,5.7 0.1,8.6 z"
   id="path16"
   style="fill:#e9e1d0;fill-opacity:1" />
<path
   class="st0"
   d="m 335.11239,40.110539 c -0.7,-7.8 2.4,-14.4 7.1,-20.3 3.3,-4.3 8.6,-6.7 14,-6.2 6.2,0.3 12,2.8 16.4,7.2 0.6,0.6 1,1.3 1.2,2.1 0.2,1.4 -1.1,2.4 -2.9,2.1 -1.8,-0.4 -3.6,-0.9 -5.3,-1.4 -1.7,-0.5 -3.3,-1.1 -5,-1.6 -4.2,-1.2 -7.6,0.2 -10.6,3.3 -4.3,4.4 -6.6,10.4 -6.4,16.5 0.1,6.4 3,11.4 7.2,15.8 2.5,2.7 6.1,3.2 9.6,2.6 4.3,-0.7 8.6,-1.7 12.9,-2.6 0.8,-0.1 1.6,-0.3 2.4,-0.4 1.1,-0.1 2.2,0.3 2.8,1.2 0.6,0.5 0.6,1.3 0.1,1.9 0,0 -0.1,0.1 -0.1,0.1 -0.7,0.9 -1.5,1.7 -2.4,2.5 -6.7,4.8 -14.2,7 -22.3,5.6 -9.8,-1.8 -15.3,-8.4 -17.7,-17.8 -0.9,-3.5 -0.9,-7.2 -1.4,-10.8 h 0.4 z"
   id="path18"
   style="fill:#e9e1d0;fill-opacity:1" />
</svg>
