<?xml version="1.0" encoding="UTF-8" standalone="no"?>
<!-- Generator: Adobe Illustrator 26.0.3, SVG Export Plug-In . SVG Version: 6.00 Build 0)  -->

<svg
   version="1.1"
   id="svg2"
   x="0px"
   y="0px"
   viewBox="0 0 264 89.992561"
   xml:space="preserve"
   sodipodi:docname="msx.svg"
   width="264"
   height="89.992561"
   inkscape:version="1.1.2 (b8e25be833, 2022-02-05)"
   xmlns:inkscape="http://www.inkscape.org/namespaces/inkscape"
   xmlns:sodipodi="http://sodipodi.sourceforge.net/DTD/sodipodi-0.dtd"
   xmlns="http://www.w3.org/2000/svg"
   xmlns:svg="http://www.w3.org/2000/svg"
   xmlns:bx="https://boxy-svg.com"><defs
   id="defs10" /><sodipodi:namedview
   id="namedview8"
   pagecolor="#ffffff"
   bordercolor="#666666"
   borderopacity="1.0"
   inkscape:pageshadow="2"
   inkscape:pageopacity="0.0"
   inkscape:pagecheckerboard="0"
   showgrid="false"
   inkscape:zoom="0.55104167"
   inkscape:cx="959.09263"
   inkscape:cy="540.79395"
   inkscape:window-width="2560"
   inkscape:window-height="1387"
   inkscape:window-x="-8"
   inkscape:window-y="-8"
   inkscape:window-maximized="1"
   inkscape:current-layer="svg2" />
<style
   type="text/css"
   id="style2">
	.st0{fill:#E9E1D0;}
</style>
<g
   transform="scale(0.44,0.437707)"
   id="g5"
   style="fill:#e9e1d0;fill-opacity:1">
	<path
   id="path2830"
   bx:origin="0 0"
   class="st0"
   d="M 0,204.9 52,0 h 48.3 l 25.1,89.4 26,-89.4 h 45.4 l 42.6,150.9 103.9,-0.2 C 354.2,150.6 354.9,128 342.5,128 L 282,127.2 C 256,127.4 228.6,99.3 229.9,61.9 230.2,27.6 260.1,0.5 298.4,0.5 L 452.7,0.4 492,53.9 530.4,0 l 63.9,0.5 -70,98.4 75.7,106.7 -63.5,-0.2 -44.1,-61.2 -41.9,61.2 -64.8,-0.1 L 459.5,99.8 427.3,53 293.1,53.2 c -14.6,0.1 -14.1,23.2 0.1,22.7 l 56.5,0.9 c 23.9,0.2 57.5,25 56.7,63.7 0.4,45.1 -40.2,65.6 -59.8,64.5 l -148,0.2 L 174,113 149.4,205 H 102.7 L 77,113.5 54.4,205.2 Z"
   style="fill:#e9e1d0;fill-opacity:1" />
</g>
</svg>
