<?xml version="1.0" encoding="UTF-8" standalone="no"?>
<!-- Generator: Adobe Illustrator 26.0.3, SVG Export Plug-In . SVG Version: 6.00 Build 0)  -->

<svg
   version="1.1"
   id="Warstwa_1"
   x="0px"
   y="0px"
   viewBox="0 0 1098.9616 303.4"
   xml:space="preserve"
   sodipodi:docname="neogeocd.svg"
   width="1098.9617"
   height="303.39999"
   inkscape:version="1.1.2 (b8e25be833, 2022-02-05)"
   xmlns:inkscape="http://www.inkscape.org/namespaces/inkscape"
   xmlns:sodipodi="http://sodipodi.sourceforge.net/DTD/sodipodi-0.dtd"
   xmlns="http://www.w3.org/2000/svg"
   xmlns:svg="http://www.w3.org/2000/svg"><defs
   id="defs33" /><sodipodi:namedview
   id="namedview31"
   pagecolor="#ffffff"
   bordercolor="#666666"
   borderopacity="1.0"
   inkscape:pageshadow="2"
   inkscape:pageopacity="0.0"
   inkscape:pagecheckerboard="0"
   showgrid="false"
   inkscape:zoom="0.96286854"
   inkscape:cx="548.88074"
   inkscape:cy="151.63025"
   inkscape:window-width="2560"
   inkscape:window-height="1387"
   inkscape:window-x="-8"
   inkscape:window-y="-8"
   inkscape:window-maximized="1"
   inkscape:current-layer="Warstwa_1" />
<style
   type="text/css"
   id="style2">
	.st0{fill:#E9E1D0;}
</style>
<path
   class="st0"
   d="m 485.51491,0 c 0.5,0.6 0.8,1.1 1.3,1.6 13.8,13.6 27.7,27.3 41.5,40.9 1.9,1.9 3.9,3.7 6.1,5.7 0.9,-0.8 1.6,-1.3 2.3,-2 10.6,-10.5 21.3,-21 31.9,-31.6 1.4,-1.6 3.5,-2.4 5.6,-2.4 20,0.1 40,0.1 60,0 1.6,-0.1 3.1,0.5 4.2,1.7 13.2,12.7 26.4,25.4 39.6,38.1 1.1,1 1.8,2.5 1.7,4 0,20.2 0,40.5 0,60.7 0.1,1.3 -0.4,2.7 -1.3,3.6 -13.6,12.7 -27.1,25.4 -40.6,38.1 -0.3,0.3 -0.7,0.6 -1.3,1.1 l -33.5,-33.6 c -0.7,0.7 -1.3,1.2 -1.9,1.8 -11.6,11.8 -23.1,23.7 -34.6,35.6 -0.9,1.1 -2.3,1.7 -3.7,1.6 -23.2,-0.1 -46.4,-0.1 -69.6,0 -1.4,0.1 -2.8,-0.5 -3.8,-1.5 -15.5,-15.2 -31.1,-30.4 -46.8,-45.5 -1,-0.9 -1.5,-2.2 -1.4,-3.6 0,-9.5 -0.1,-19 -0.1,-28.6 0,-13.7 0,-27.4 -0.1,-41 -0.1,-1.3 0.5,-2.5 1.4,-3.3 13.8,-13.3 27.6,-26.7 41.3,-40.1 0.3,-0.4 0.6,-0.8 0.9,-1.3 z m 111.8,121.6 c -0.8,-0.9 -1.5,-1.7 -2.3,-2.5 -9,-9.1 -18,-18.2 -27,-27.3 -0.8,-0.8 -1.9,-1.2 -3,-1.2 -11.3,-0.2 -22.5,-0.4 -33.8,-0.6 -1.1,0 -2.2,-0.1 -3.5,-0.2 0,-1.1 0,-2 0,-2.8 0,-10.6 0.1,-21.3 0.2,-31.9 0,-1.5 -0.5,-2.9 -1.6,-4 -13,-14.2 -26.8,-27.5 -40.3,-41.1 -0.3,-0.2 -0.6,-0.5 -0.9,-0.7 -0.5,0.4 -0.8,0.7 -1.2,1 -11.7,11.4 -23.5,22.8 -35.3,34.3 -1.1,1 -1.8,2.5 -1.7,4 0.1,20.6 0.1,41.1 0,61.7 -0.1,1.7 0.6,3.3 1.9,4.4 14.8,14.4 29.5,28.8 44.1,43.3 1,1.1 2.5,1.7 4,1.6 15.4,0 30.9,0 46.3,0 5.1,0 10.2,0 15.4,0.1 1,0.1 2.1,-0.3 2.8,-1 11.4,-11.8 22.9,-23.5 34.3,-35.2 0.6,-0.7 1.1,-1.3 1.6,-1.9 z m 22.8,-18.1 c 0.6,2.6 1.1,5 1.7,7.4 1,3.5 3,6.6 5.8,8.9 1.8,1.5 3.5,2.4 6.1,1.7 3.1,-0.7 6.3,-1.2 9.4,-1.6 1.6,-0.1 3,-1.4 3.1,-3 0.3,-2.3 0.8,-4.6 1.2,-6.8 0.8,-4.1 1.1,-4.4 5.4,-5 1,-0.1 2.1,-0.3 3.1,-0.4 0.9,-0.2 1.7,-0.4 2.4,-0.6 1.5,-7.3 1.6,-9 0.2,-14.9 -0.4,-1.7 -0.7,-3.4 -1.2,-5.1 -0.8,-2.9 -1.5,-5.7 -2.4,-8.5 -0.7,-2 -1.2,-2.2 -3.2,-1.8 -4.2,0.8 -8.5,1.7 -12.6,2.7 -3.5,0.8 -3.7,1.2 -3,4.6 0.2,0.7 0.3,1.4 0.4,2.1 0.2,1.9 0.5,3.8 0.5,5.7 0.1,4.9 -1.5,8.8 -6.7,10.2 -0.9,0.3 -1.8,0.7 -2.6,1.2 z m -39.9,-48.9 c -0.6,4.2 -1.3,8.1 -1.8,11.9 -0.1,0.6 0.1,1.2 0.5,1.7 2.2,2 4.4,3.9 6.8,5.7 0.7,0.6 1.7,0.9 2.6,0.8 2.2,-0.5 4.3,-1.1 6.5,-1.8 1,-0.3 1.8,-1.1 2,-2.2 0.5,-3 1.1,-6 1.5,-9 0.4,-1.8 -0.5,-3.6 -2.1,-4.5 -1.8,-1.1 -3.7,-2.2 -5.7,-3.1 -0.9,-0.4 -2,-0.6 -3,-0.5 -2.4,0.3 -4.7,0.7 -7.3,1 z m 27.5,-12.1 c 0,4.2 2.2,6.8 5.4,7 0.6,0.1 1.3,-0.1 1.8,-0.5 1.5,-1.4 2.9,-3 4.2,-4.6 0.4,-0.5 0.5,-1.2 0.3,-1.8 -1.2,-2.8 -2.9,-5.2 -5.8,-6.3 -1.7,-0.6 -3.1,-0.3 -3.9,1.3 -0.9,1.6 -1.5,3.2 -2,4.9 z"
   id="path4"
   style="fill:#e9e1d0;fill-opacity:1" />
<path
   class="st0"
   d="m 625.21491,303.4 c -0.8,-0.1 -1.6,-0.2 -2.4,-0.3 -16,-0.3 -32,-0.5 -48,-0.8 -5.2,-0.1 -10.4,-0.6 -15.6,-0.9 -0.3,0 -0.6,-0.1 -0.9,-0.2 -0.5,-2.1 -0.2,-2.8 1.8,-3.4 1.5,-0.4 3,-0.7 4.4,-1.1 1.1,-0.3 2.1,-0.6 3.2,-1 3.4,-0.9 5,-3.1 5,-6.6 0,-4 0.4,-8 0.4,-12 0,-23.3 0,-46.7 -0.1,-70.1 0,-3 -0.3,-6.1 -0.3,-9.1 0.2,-2.6 -1.3,-5 -3.7,-5.9 -2.5,-1 -5.1,-1.8 -7.7,-2.4 -0.9,-0.3 -1.8,-0.4 -2.8,-0.6 0.1,-1.1 0.8,-1.2 1.5,-1.3 1.3,-0.2 2.7,-0.4 4,-0.4 9.1,-0.3 18.2,-0.6 27.3,-0.7 17.6,-0.2 35.2,-0.3 52.8,-0.5 3.1,0 6.2,-0.1 9.4,-0.2 h 3 c 0.1,0.6 0.2,1.2 0.2,1.8 0,7.4 0,14.7 -0.1,22.1 0,2.4 -0.2,4.8 -0.5,7.2 -0.3,1.3 -0.6,2.6 -1.1,3.9 -1.2,-0.2 -2.2,-1.1 -2.7,-2.2 -0.9,-1.5 -1.6,-3.1 -2.2,-4.8 -3,-10.2 -10,-16.2 -20.1,-18.5 -5,-0.9 -10,-1.6 -15,-1.9 -3.6,-0.4 -7.2,-0.4 -10.7,-0.6 -0.6,1.8 -0.8,39.4 -0.3,44 4.1,0.8 8.3,-0.1 11.8,-2.4 2.9,-2 5.3,-4.8 6.7,-8 1.2,-2.6 2,-5.4 3,-8.1 0.6,-1.7 1.2,-3.5 2,-5.1 0.2,-0.5 1,-0.7 1.4,-1.1 0.3,0.5 0.8,1 0.9,1.5 0.3,2.6 0.7,5.2 0.8,7.9 0.6,14.1 0.6,28.1 0,42.2 -0.1,2.5 -0.4,4.9 -0.8,7.4 -0.1,0.5 -0.6,1 -0.9,1.5 -0.6,-0.4 -1.4,-0.6 -1.6,-1.1 -0.9,-2.2 -1.7,-4.5 -2.4,-6.8 -1.6,-6.3 -5.2,-11.8 -10.3,-15.8 -1.3,-1 -2.8,-1.9 -4.3,-2.5 -3.2,-1.2 -5.4,0.1 -5.8,3.5 -0.4,2.9 -0.6,5.7 -0.5,8.6 0,7.8 0.1,15.7 0.5,23.5 0.2,2.5 0.7,5 1.4,7.5 0.2,1.3 1.4,2.3 2.7,2.3 2.8,0.2 5.6,0.5 8.4,0.6 4.6,0 9.3,-0.1 13.9,-0.2 3.9,-0.1 7.6,-1.3 10.7,-3.7 6.8,-5 12.6,-10.9 16.4,-18.5 0.7,-1.4 1.6,-2.8 2.5,-4.1 0.4,-0.6 0.9,-1.1 1.6,-1.5 0.5,-0.5 1.3,-0.4 1.8,0.1 0.2,0.2 0.3,0.5 0.3,0.9 0.1,1.1 0.1,2.2 0,3.3 -1,10.9 -3.2,21.7 -5.2,32.4 -0.1,0.6 -0.2,1.3 -0.2,1.9 z"
   id="path6"
   style="fill:#e9e1d0;fill-opacity:1" />
<path
   class="st0"
   d="m 192.21491,303.4 c -0.8,-0.1 -1.6,-0.2 -2.4,-0.3 -16,-0.3 -32,-0.5 -48,-0.8 -5.2,-0.1 -10.4,-0.6 -15.6,-0.9 -0.3,0 -0.6,-0.1 -0.9,-0.2 -0.6,-2.1 -0.4,-2.6 1.2,-3.2 1,-0.4 2.2,-0.5 3.2,-0.8 1.8,-0.5 3.6,-0.9 5.3,-1.5 2.9,-0.9 4.8,-3.6 4.8,-6.5 0.3,-7.8 0.8,-15.5 0.8,-23.2 0.1,-18 0,-36 -0.1,-54 0,-4.5 -0.4,-9.1 -0.7,-13.6 -0.1,-3.3 -2.4,-6.2 -5.6,-7.1 -1.9,-0.7 -4,-1 -6,-1.5 -0.9,-0.2 -1.8,-0.4 -3.4,-0.8 0.6,-0.5 1.3,-0.8 2,-1.1 1.3,-0.3 2.7,-0.4 4.1,-0.5 9.2,-0.3 18.4,-0.6 27.6,-0.7 17.6,-0.2 35.2,-0.3 52.8,-0.5 3.1,0 6.2,-0.1 9.4,-0.2 h 3 c 0.1,0.8 0.2,1.3 0.2,1.8 0,7.4 0,14.9 -0.1,22.3 -0.1,2.7 -0.4,5.4 -0.9,8.1 -0.3,1.1 -0.7,2.1 -1.2,3.1 -0.8,-0.7 -1.5,-1.5 -2.1,-2.3 -0.9,-1.6 -1.6,-3.3 -2.3,-5 -3.6,-10.7 -11.1,-16.8 -21.9,-18.8 -7.7,-1.4 -15.6,-2 -23.4,-1.9 -0.2,0 -0.4,0.1 -0.7,0.1 -0.5,1.7 -0.6,40.4 -0.2,43.7 5.9,0.8 11,-0.6 15.1,-5.1 2.5,-3 4.3,-6.5 5.4,-10.3 0.7,-2.3 1.4,-4.6 2.2,-6.8 0.4,-0.9 0.9,-1.8 1.5,-2.6 1,0.3 1.7,1.3 1.6,2.4 0.5,3.8 1.1,7.6 1.3,11.4 0.7,13.9 0.6,27.8 -0.5,41.7 -0.1,1.9 0,4 -1.5,5.6 -1.5,0 -1.8,-1.1 -2.1,-2 -1,-2.7 -1.9,-5.4 -2.7,-8.2 -1.7,-5.7 -5.3,-10.7 -10.1,-14.2 -1.6,-1.1 -3.3,-1.9 -5.2,-2.4 -2.2,-0.6 -3.3,0.1 -4,2.3 -0.6,1.6 -0.9,3.2 -1,4.9 -0.4,11.4 0,22.9 1.2,34.2 0.3,2.7 1.7,4.2 4.2,4.5 3.5,0.5 7,0.7 10.5,0.7 4.3,-0.1 8.6,-0.4 12.9,-0.9 4,-0.5 7.8,-2.2 10.9,-4.7 5.9,-4.4 10.8,-10.2 14.1,-16.8 0.8,-1.5 1.6,-2.9 2.6,-4.3 0.4,-0.7 1,-1.2 1.7,-1.7 0.6,-0.5 1.4,-0.4 1.8,0.2 0.2,0.2 0.3,0.5 0.3,0.8 0.1,1.1 0.1,2.2 -0.1,3.3 -1,11.1 -2.8,22 -5.2,32.9 -0.1,0.5 -0.2,0.9 -0.2,1.4 z"
   id="path8"
   style="fill:#e9e1d0;fill-opacity:1" />
<path
   class="st0"
   d="m 983.71491,188.1 c 1.6,-0.6 3.3,-0.9 5.1,-0.9 16.39999,-0.9 32.79999,-1.2 49.19999,-0.5 7,0.3 13.9,0.9 20.8,1.5 2,0.2 3.9,0.7 5.8,1.5 13.6,5.6 24.7,16.1 30.9,29.4 1.8,3.6 2.8,7.5 3,11.5 0.5,7.6 0.6,15.2 0.2,22.8 -1,15.8 -8.2,28 -21.2,36.9 -9.1,6.2 -19.4,9.3 -30.4,10.2 -17.4,1.4 -34.8,1.9 -52.19999,2.5 -3,0 -6.1,-0.2 -9.1,-0.5 -0.5,0 -0.9,-0.1 -1.4,-0.3 -1.1,-0.3 -1.7,-1.4 -1.4,-2.5 0.1,-0.5 0.4,-0.9 0.8,-1.1 0.7,-0.5 1.4,-0.8 2.2,-1 1.7,-0.5 3.4,-0.8 5,-1.5 3.3,-1.3 5.4,-3.7 5.7,-7.3 0.2,-2 0.4,-4 0.4,-6 0.1,-21 0.2,-41.9 0.2,-62.9 0,-6 -0.2,-12 -0.3,-18 0,-1.4 -0.3,-2.7 -0.3,-4.1 0,-2.4 -1.4,-4.6 -3.6,-5.5 -2.4,-1.1 -4.9,-1.9 -7.4,-2.8 -0.8,-0.3 -1.5,-0.6 -2.3,-0.9 z m 43.29999,4.9 c 0,1.2 0,2.2 0,3.1 0,15.7 0,31.3 0.1,47 0.1,9.8 0.2,19.5 0.5,29.2 0.2,5.2 0.7,10.4 1.3,15.5 0.5,3.7 1.7,4.5 5.3,5 11.2,1.5 22,-4.4 26.7,-14.7 1.9,-4.1 3.3,-8.3 4,-12.8 2,-11.5 2.5,-23.3 1.3,-34.9 -0.4,-5.6 -1.7,-11.1 -3.8,-16.3 -2,-4.8 -4.5,-9.2 -8.6,-12.5 -7.7,-6.2 -16.8,-8.3 -26.8,-8.6 z"
   id="path10"
   style="fill:#e9e1d0;fill-opacity:1" />
<path
   class="st0"
   d="m 308.41491,302 c -5.7,-0.2 -10.5,-0.3 -15.3,-0.5 -5.2,-0.2 -10.3,-1.7 -14.8,-4.4 -14.9,-8.7 -25.8,-20.9 -30.1,-38 -2.7,-10.8 -2.6,-22.2 0.4,-33 1.1,-3.7 2.5,-7.2 4.4,-10.6 5.3,-9.6 13.1,-17.7 22.5,-23.5 6.7,-4.3 14.5,-6.6 22.5,-6.7 8.6,-0.2 17.3,-0.5 25.9,0.5 2.9,0.3 5.7,0.9 8.4,1.9 14.5,5.6 26.3,16.4 33.1,30.4 2.6,5.5 4,11.4 4.3,17.4 0.6,8.6 0.4,17.3 -1.8,25.7 -2.6,9.8 -8,17.9 -15,25 -2,2 -4,3.9 -6.1,5.8 -5.3,4.8 -11.9,7.7 -19,8.4 -6.7,0.8 -13.5,1.1 -19.4,1.6 z m -27.9,-58.4 c 0,5.9 0.3,11.9 -0.1,17.7 -0.4,5.7 0.9,11.3 3.8,16.2 1.8,3.3 3.9,6.4 6.2,9.3 7.9,9 25.9,13 36.6,-0.7 5.8,-7.4 9.4,-15.4 9.7,-25 0.3,-12.9 0.4,-25.7 -0.5,-38.6 -0.7,-10.4 -5.3,-18.8 -13,-25.6 -2.6,-2.4 -5.9,-4 -9.4,-4.5 -2.9,-0.3 -5.7,-0.4 -8.6,-0.3 -4.5,0.1 -8.3,2 -11.7,5 -3.8,3.3 -6.9,7.4 -9.2,11.9 -1.1,2.2 -2.2,4.4 -3.1,6.7 -0.5,1.2 -0.8,2.4 -0.8,3.7 0,8.2 0.1,16.2 0.1,24.2 z"
   id="path12"
   style="fill:#e9e1d0;fill-opacity:1" />
<path
   class="st0"
   d="m 741.51491,185 c 5.2,0.2 10.4,0.5 15.6,0.8 3.8,0.3 7.6,1.4 11,3.1 11.3,5.2 20.8,13.5 27.4,24 3.6,5.8 5.8,12.3 6.6,19.1 1.7,10.6 0.9,21.5 -2.2,31.8 -1.4,4.5 -3.5,8.8 -6.4,12.6 -4.2,5.5 -8.8,10.6 -13.9,15.2 -5.1,4.9 -11.3,7.4 -18.1,8.8 -3.9,0.8 -7.9,1.3 -11.9,1.4 -7.8,0.1 -15.5,-0.1 -23.3,-0.3 -5.9,-0.2 -11.6,-2 -16.6,-5.1 -15,-9 -25.3,-21.6 -29.2,-39 -2.7,-11.9 -1.9,-24.2 2.3,-35.7 1.3,-3.4 3,-6.7 5,-9.8 4.4,-6.6 9.9,-12.4 16.3,-17.1 8.1,-6 17.1,-9.5 27.4,-9.5 h 9.8 z m 28,58.8 c 0,-8 0,-16 0,-24 0.1,-0.9 0,-1.8 -0.3,-2.6 -2.6,-5.9 -5.3,-11.6 -9.5,-16.6 -5.7,-6.6 -12.8,-9.2 -21.4,-8.3 -3.7,0.2 -7.3,1.6 -10.3,3.8 -5.2,4.1 -9.4,9.4 -12.2,15.5 -2.1,4.5 -2.3,9.3 -2.3,14.1 -0.1,12.7 0,25.4 -0.2,38.1 -0.2,3.9 0.7,7.8 2.6,11.2 2.1,3.8 3.9,7.7 6.7,11 4,5.2 10,8.5 16.6,8.9 7.9,0.6 14.7,-1.5 19.9,-7.8 2.8,-3.3 5.2,-6.9 7.1,-10.8 0.8,-1.6 1.5,-3.2 2.3,-4.8 0.7,-1.3 1,-2.7 0.9,-4.1 0,-7.8 0.1,-15.7 0.1,-23.6 z"
   id="path14"
   style="fill:#e9e1d0;fill-opacity:1" />
<path
   class="st0"
   d="m 538.71491,224.6 c -1.2,-0.3 -2.2,-1.2 -2.7,-2.3 -1.5,-2.5 -3.1,-5.1 -4.4,-7.7 -3.4,-6.9 -8.8,-12.7 -15.5,-16.6 -8.5,-5 -17.6,-6.9 -27.4,-5.2 -7.5,1.2 -14.2,5.3 -18.8,11.4 -4.7,6.2 -7.7,13.6 -8.7,21.3 -2,12.9 -1.8,26.1 0.4,38.9 0.8,5 2.5,9.8 4.8,14.3 3.3,6.4 8.7,11.4 15.4,14.2 1.4,0.6 2.9,1 4.4,1.2 7.8,0.7 15.7,0.6 23.4,-0.5 1.2,-0.1 2.3,-0.5 3.7,-0.7 0.1,-0.6 0.1,-1.3 0.1,-1.9 -0.4,-7.6 -0.9,-15.2 -1.4,-22.8 -0.1,-1.7 -0.3,-3.4 -0.8,-5 -1.2,-4.6 -4.2,-6.9 -8.9,-7.3 -0.9,0 -1.8,-0.2 -2.6,-0.4 -0.8,-0.3 -1.5,-0.6 -2.2,-1 1,-0.9 2.3,-1.4 3.6,-1.3 6.9,-0.3 13.7,-0.8 20.6,-0.9 8.2,0 16.3,0.2 24.5,0.5 2.8,-0.1 5.5,0.3 8.1,1.1 -3.7,3.2 -8.1,4.7 -12,7 -0.5,11.1 0.2,22.2 -1.6,33.3 -8.3,3.1 -16.7,5.8 -25.5,6.4 -11.9,0.7 -23.8,0.9 -35.7,0.9 -8.3,-0.1 -16.4,-2.5 -23.3,-7 -11.5,-7.2 -20.6,-16.6 -25.5,-29.3 -6.1,-15.6 -4.8,-31 2.1,-46.1 1.9,-4.2 4.5,-8.1 7.7,-11.5 4.5,-4.9 9.3,-9.4 14.5,-13.6 6.3,-5 14,-8 22,-8.5 11.2,-0.9 22.4,-0.7 33.5,0.6 3.6,0.6 7.2,1.5 10.7,2.6 2.9,0.8 5.8,1.9 8.6,2.9 1,0.5 2.1,0.2 2.7,-0.8 1,-1.3 2,-2.5 3.1,-3.6 0.6,-0.7 1.3,-1.2 2,-1.7 1.4,-0.9 2.4,-0.5 3,1.1 0.2,0.5 0.3,1.1 0.3,1.6 0.6,10.8 0.5,21.6 -0.4,32.4 -0.2,1.6 -0.7,3 -1.8,4 z"
   id="path16"
   style="fill:#e9e1d0;fill-opacity:1" />
<path
   class="st0"
   d="m 102.41491,302.6 c -1.3,-1.2 -2.3,-1.9 -3.1,-2.7 -4.7,-5.2 -9.6,-10.3 -14.1,-15.7 -17.3,-20.6 -34.6,-41.3 -51.9,-62 -1.5,-1.8 -3.1,-3.6 -4.8,-5.4 -0.6,-0.6 -1.3,-1.2 -2,-1.7 -0.9,1.2 -1.3,2.7 -1.3,4.3 -0.4,6.1 -1,12.3 -1,18.4 0,12.8 0.2,25.6 0.6,38.4 0.2,4.1 0.7,8.3 1.4,12.4 0.3,3.4 2.8,6.2 6.1,6.9 2.4,0.7 4.8,1.6 7.2,2.7 1,0.4 2.4,0.9 2.1,2.2 -0.3,1.3 -1.7,1.4 -2.7,1.5 -10.8,0.9 -21.6,1.1 -32.4000003,0.5 -1.7,-0.2 -3.5,-0.6 -5.1,-1.2 -1.79999997,-0.7 -1.89999997,-2 -0.2,-2.9 1.3,-0.7 2.7,-1.3 4.2,-1.7 5.6000003,-1.4 8.0000003,-5.2 8.3000003,-10.7 0.4,-6 0.8,-12 0.9,-18 0.2,-22.5 0.4,-45 0.5,-67.4 0,-1 0,-1.9 0,-2.9 -2.5,-1.7 -4.7,-3.5 -7.2000003,-4.9 -2.5,-1.4 -5,-2.6 -7.69999997,-3.9 0.79999997,-0.9 1.89999997,-1.5 3.19999997,-1.4 4.1,-0.4 8.1000003,-0.8 12.2000003,-0.9 8.4,-0.2 16.8,-0.1 25.2,-0.2 1.3,-0.1 2.5,0.5 3.2,1.6 16.4,20.7 32.9,41.3 49.4,61.9 0.6,0.7 1.2,1.4 2.1,2.6 0.3,-2.5 0.7,-4.4 0.8,-6.4 0.2,-6.6 0.6,-13.3 0.5,-19.9 -0.1,-8.1 -0.6,-16.1 -0.9,-24.2 -0.2,-5 -2.8,-8.4 -7.3,-10.3 -1.7,-0.7 -3.5,-1.1 -5.2,-1.7 -0.9,-0.3 -1.7,-0.7 -2.6,-1.1 0.8,-1.4 1.9,-1.3 2.8,-1.4 7.4,-0.2 14.7,-0.4 22.1,-0.5 3.6,0 7.2,0.3 10.8,0.5 1.5,-0.1 2.9,0.5 4,1.5 -1,0.5 -1.7,0.9 -2.5,1.2 -1.8,0.7 -3.6,1.4 -5.4,2 -2.8,0.7 -4.9,3.1 -5.3,5.9 -0.7,3.5 -1.1,7.1 -1.3,10.7 -0.4,17.2 -0.7,34.4 -1.1,51.6 -0.3,11.3 -0.6,22.5 -0.9,33.8 -0.1,1.7 -0.2,3.3 -0.5,5 -0.4,1.1 -0.8,2.3 -1.1,3.5 z"
   id="path18"
   style="fill:#e9e1d0;fill-opacity:1" />
<path
   class="st0"
   d="m 967.21491,273.9 c 1.1,3.1 1,6.4 -0.2,9.5 -1.2,2.9 -3.2,5.4 -5.7,7.3 -7.4,6.3 -16.6,10.2 -26.3,11.2 -2.7,0.3 -5.4,0.7 -8.1,0.9 -2.5,0.2 -4.9,0.3 -7.4,0.1 -5.9,-0.6 -11.8,-0.9 -17.6,-2.4 -5.2,-1.3 -10.2,-3.2 -14.9,-5.8 -7.6,-4 -13.9,-10.1 -18.2,-17.6 -3.2,-5.6 -6.4,-11.4 -7.6,-17.8 -3,-15 -0.7,-30.5 6.3,-44 3.1,-6.1 7.6,-11 12.8,-15.4 5.9,-5.1 12.6,-9.2 19.7,-12.1 8.5,-3.5 17.4,-3.8 26.4,-3.2 10.5,0.7 20.6,3.3 30.6,6.7 0.8,0.3 1.5,0.5 2.3,0.7 0.2,0 0.4,0 0.7,0 l 7.7,-8.2 c 0.9,1.5 1.5,3.1 1.6,4.9 0.2,7.3 0.5,14.5 0.5,21.8 0,3.5 -0.3,7 -0.6,10.5 -0.1,1.4 -0.3,2.9 -2,3.8 -1.6,-1.4 -2.7,-3.2 -3.2,-5.3 -0.2,-0.9 -0.4,-1.7 -0.8,-2.5 -3.1,-6.1 -7.3,-11.7 -12.3,-16.4 -4.6,-4.1 -10.4,-6.5 -16.5,-6.8 -4.7,-0.4 -9.4,-0.3 -14.1,0.4 -3.7,0.6 -7.3,2.1 -10.2,4.5 -8.1,6.1 -13.5,14 -15.5,24 -2.9,14.2 -2.8,28.9 0.4,43.1 1.6,7.7 5.5,14.6 11.3,20 4.1,3.9 9.4,6.3 15,6.9 6.1,0.7 12.3,0.4 18.4,-1 6.8,-1.6 12.5,-5.2 17.7,-9.7 2.3,-2 4.6,-4 6.9,-5.9 0.8,-0.7 1.7,-1.3 2.9,-2.2 z"
   id="path20"
   style="fill:#e9e1d0;fill-opacity:1" />
<path
   class="st0"
   d="m 398.41491,257.8 c -6.9,0.4 -13.7,-5.1 -13.8,-14.3 -0.1,-8.4 5.7,-14.2 14.3,-14.3 8,-0.1 14.8,6.4 14.9,14.2 0.1,8.4 -6.1,14.3 -15.4,14.4 z"
   id="path22"
   style="fill:#e9e1d0;fill-opacity:1" />
<path
   class="st0"
   d="m 497.01491,130.2 c 0.4,0.1 0.7,0.2 1.1,0.4 4.4,2 9.3,2.6 14.1,1.9 5.2,-0.5 10.2,-2.1 14.7,-4.7 3.6,-2.1 6.4,-5.4 7.9,-9.3 1.2,-3.3 2.3,-6.6 3.5,-9.9 0.9,-2.4 1.7,-4.8 2.6,-7.2 0.4,-0.7 0.8,-1.5 1.2,-2.1 l 0.6,0.1 c 0.3,0.9 0.5,1.8 0.6,2.7 1.2,10.6 -1.1,20.3 -7.6,28.9 -1.5,1.8 -3.1,3.4 -5,4.8 -2.7,2.1 -5.9,2.7 -9.2,2.8 -3.8,0.1 -7.5,0.1 -11.3,0.1 -6,0 -10.1,-3.5 -13.2,-8.5 z"
   id="path24"
   style="fill:#e9e1d0;fill-opacity:1" />
<path
   class="st0"
   d="m 515.71491,66.7 c -1.5,2.2 -2.9,4.2 -4.2,6.2 -0.9,1.2 -2.3,2 -3.8,2 -3.7,0.6 -7.3,-1.3 -8.9,-4.6 -0.1,-0.1 -0.2,-0.3 -0.3,-0.4 -3.3,-5.9 -2.9,-5.4 0.5,-10.7 2.1,-3.5 9.4,-3.4 11.4,-0.3 1.6,2.6 3.4,5.1 5.3,7.8 z"
   id="path26"
   style="fill:#e9e1d0;fill-opacity:1" />
<path
   class="st0"
   d="m 475.31491,79.6 c 3.7,0 7,2.6 7.7,5.4 0.1,0.6 0,1.2 -0.3,1.8 -1.5,2 -3.7,3.3 -6.2,3.9 -0.7,0.1 -1.4,0 -2,-0.4 -1.5,-1 -3,-2.1 -4.3,-3.3 -1.4,-1.4 -1.3,-3 -0.1,-4.6 1.2,-1.6 3.1,-2.6 5.2,-2.8 z"
   id="path28"
   style="fill:#e9e1d0;fill-opacity:1" />
</svg>
