<?xml version="1.0" encoding="UTF-8" standalone="no"?>
<!-- Generator: Adobe Illustrator 26.0.3, SVG Export Plug-In . SVG Version: 6.00 Build 0)  -->

<svg
   version="1.1"
   id="Layer_1"
   x="0px"
   y="0px"
   viewBox="0 0 264 45.099998"
   xml:space="preserve"
   sodipodi:docname="neogeo.svg"
   width="264"
   height="45.099998"
   inkscape:version="1.1.2 (b8e25be833, 2022-02-05)"
   xmlns:inkscape="http://www.inkscape.org/namespaces/inkscape"
   xmlns:sodipodi="http://sodipodi.sourceforge.net/DTD/sodipodi-0.dtd"
   xmlns="http://www.w3.org/2000/svg"
   xmlns:svg="http://www.w3.org/2000/svg"><defs
   id="defs14" /><sodipodi:namedview
   id="namedview12"
   pagecolor="#ffffff"
   bordercolor="#666666"
   borderopacity="1.0"
   inkscape:pageshadow="2"
   inkscape:pageopacity="0.0"
   inkscape:pagecheckerboard="0"
   showgrid="false"
   inkscape:zoom="0.55104167"
   inkscape:cx="959.09263"
   inkscape:cy="540.79395"
   inkscape:window-width="2560"
   inkscape:window-height="1387"
   inkscape:window-x="-8"
   inkscape:window-y="-8"
   inkscape:window-maximized="1"
   inkscape:current-layer="Layer_1" />
<style
   type="text/css"
   id="style2">
	.st0{fill:#E9E1D0;}
</style>
<path
   id="path19"
   class="st0"
   d="m 14.5,41.3 h -1 C 12.1,41.3 10.9,40.9 9.8,40 8.7,39.1 8.2,37.5 8.2,35.1 V 9.4 l 27.9,34.7 h 1.8 V 8.7 c 0,-2 0.2,-2.6 0.5,-3.4 0.3,-0.8 0.8,-1.4 1.4,-1.8 0.6,-0.4 1.8,-0.7 3.5,-0.9 V 0.8 H 29.5 v 1.8 c 2.3,0 3.9,0.5 4.9,1.8 0.7,0.9 1.1,1.8 1.1,4.4 V 27.3 L 13.7,0.8 H 0.5 v 1.4 c 1.3,0 1.3,0.5 2,0.8 L 6,6.6 V 35.1 C 6,37.4 5.6,39 4.7,39.9 3.8,40.8 2.2,41.3 0,41.3 V 43 h 14.6 z"
   style="fill:#e9e1d0;fill-opacity:1" />
<path
   id="path17"
   class="st0"
   d="m 83.7,29.8 h -2 c -1,3.8 -2.8,6.6 -5.2,8.4 -2.4,1.9 -5.6,2.8 -9.6,2.8 h -2.3 c -1.2,0 -2.1,-0.2 -2.6,-0.5 -0.5,-0.3 -0.9,-0.8 -1.1,-1.3 -0.2,-0.5 -0.3,-2 -0.3,-4.3 V 23 c 2,0 4.4,0.3 5.5,0.8 1.1,0.5 2,1.6 2.8,3.1 0.8,1.5 1.3,3.3 1.6,5.7 h 1.7 v -22 h -1.7 c -0.3,3.3 -1.1,5.5 -2.3,7.2 -1.2,1.7 -3.2,2.5 -5.9,2.5 H 60.6 V 5.5 c 0,-2.5 2.3,-2.2 2.3,-2.2 h 2.7 c 3.2,0 5.5,0.2 6.6,0.6 2,0.6 3.6,1.6 4.7,2.9 1.1,1.3 2,3.5 2.6,6.6 h 1.4 V 0.8 H 44.8 v 1.7 h 1.1 c 1.4,0 2.5,0.3 3.3,0.9 0.6,0.4 1,1 1.2,1.7 0.1,0.4 0.2,1.6 0.2,3.5 v 26.6 c 0,2.1 -0.1,3.4 -0.3,3.9 -0.3,0.7 -0.7,1.2 -1.3,1.5 -0.8,0.4 -1.8,0.7 -3,0.7 h -1.1 v 2 h 36.7 z"
   style="fill:#e9e1d0;fill-opacity:1" />
<path
   id="path15"
   class="st0"
   d="m 105.4,44.8 c 7.5,0 13.3,-2.7 17.4,-8.2 3.1,-4.1 4.6,-8.9 4.6,-14.4 0,-6.4 -2.1,-11.7 -6.2,-15.9 C 117.1,2.1 111.7,0.1 105,0.3 98.8,0 93.7,2 89.5,6.2 c -4.2,4.2 -6.3,9.6 -6.3,15.9 0,5.7 1.6,10.6 4.9,14.7 4,5.3 9.8,8 17.3,8 M 96.6,8.3 c 2,-4 4.9,-6 8.7,-6 2.1,0 3.9,0.6 5.5,1.7 1.6,1.2 2.9,3.1 3.9,6 1,2.8 1.5,7.1 1.5,12.7 0,4.8 -0.5,8.6 -1.5,11.6 -1,3 -2.4,5.1 -4.2,6.5 -1.4,1.1 -3.2,1.6 -5.3,1.6 -3.1,0 -5.6,-1.2 -7.3,-3.7 -2.5,-3.5 -3.7,-8.9 -3.7,-16.2 0,-6.2 0.8,-10.9 2.4,-14.2"
   style="fill:#e9e1d0;fill-opacity:1" />
<path
   id="path21"
   class="st0"
   d="m 139.3,22.5 c 0,2.8 -2.3,5.1 -5.1,5.1 -2.8,0 -5.1,-2.3 -5.1,-5.1 0,-2.8 2.3,-5.1 5.1,-5.1 2.8,0 5.1,2.3 5.1,5.1 z"
   style="fill:#e9e1d0;fill-opacity:1" />
<path
   id="path9"
   class="st0"
   d="m 164.7,27 h 1 c 1,0 2.6,0.2 3.3,0.6 0.7,0.4 1.1,0.8 1.4,1.3 0.2,0.5 0.3,1.6 0.3,3.3 v 6.6 c 0,2 -2.1,3 -3.1,3.2 -1,0.2 -2,0.3 -3,0.3 -2.8,0 -5.2,-0.7 -7.2,-2.2 -2,-1.5 -3.5,-3.7 -4.4,-6.8 -0.9,-3.1 -1.4,-6.7 -1.4,-10.8 0,-3.4 0.4,-6.7 1.3,-9.9 0.8,-3.2 2.3,-5.7 4.3,-7.5 2,-1.8 4.5,-2.7 7.5,-2.7 3.2,0 5,0.8 7.3,3.2 2.4,2.5 4.7,5.3 6,9.4 h 1.9 V 0 h -1.1 c -0.4,1.2 -0.8,2 -1.3,2.5 -0.5,0.4 -1,0.7 -1.6,0.7 -0.4,0 -1.5,-0.4 -3.5,-1.2 -2,-0.8 -3.4,-1.3 -4.2,-1.4 -1.6,-0.3 -2.9,-0.5 -4.9,-0.5 -6.5,0 -11.9,2.2 -16.1,6.7 -4.3,4.4 -6.4,9.9 -6.4,16.3 0,3.6 0.7,6.9 2.1,9.8 1.1,2.3 2.6,4.3 4.5,6.1 1.9,1.8 4.2,3.3 6.7,4.4 2.5,1.1 5.7,1.7 9.6,1.7 3,0 5.9,-0.3 8.7,-0.9 2.8,-0.6 5.5,-1.5 8.1,-2.8 v -8.9 c 0,-1.6 0.1,-2.5 0.3,-2.9 0.3,-0.8 0.8,-1.3 1.4,-1.6 0.6,-0.3 2.2,-0.5 3.7,-0.6 v -1.5 h -21.1 z"
   style="fill:#e9e1d0;fill-opacity:1" />
<path
   id="path11"
   class="st0"
   d="m 213.1,38.6 c -2.4,1.8 -5.6,2.8 -9.6,2.8 h -2.3 c -1.2,0 -2.1,-0.2 -2.6,-0.5 -0.5,-0.3 -0.9,-0.8 -1.1,-1.3 -0.2,-0.5 -0.3,-2 -0.3,-4.3 v -12 c 2.1,0 4.4,0.3 5.5,0.8 1.1,0.5 2,1.6 2.8,3.1 0.8,1.5 1.3,3.3 1.6,5.7 h 1.7 v -22 h -1.7 c -0.3,3.3 -1.1,5.5 -2.3,7.2 -1.2,1.7 -3.2,2.5 -5.9,2.5 h -1.7 V 5.9 c 0,-2.6 2.3,-2.3 2.3,-2.3 h 2.7 c 3.2,0 5.4,0.2 6.6,0.6 2,0.6 3.6,1.6 4.7,2.9 1.1,1.3 2,3.5 2.6,6.6 h 1.4 V 1.2 h -36.1 v 1.7 h 1.1 c 1.4,0 2.5,0.3 3.3,0.9 0.6,0.4 1,1 1.2,1.7 0.1,0.4 0.2,1.6 0.2,3.5 v 26.6 c 0,2.1 -0.1,3.4 -0.3,3.9 -0.3,0.7 -0.7,1.2 -1.3,1.5 -0.8,0.4 -1.8,0.7 -3,0.7 h -1.1 v 2 h 36.7 l 2.2,-13.5 h -2 c -1.2,3.8 -2.9,6.6 -5.3,8.4"
   style="fill:#e9e1d0;fill-opacity:1" />
<path
   id="path13"
   class="st0"
   d="m 241.5,0.5 c -6.1,-0.3 -11.3,1.7 -15.5,6 -4.2,4.2 -6.3,9.6 -6.3,15.9 0,5.7 1.6,10.6 4.9,14.7 4.1,5.2 9.9,7.9 17.4,7.9 7.5,0 13.3,-2.7 17.4,-8.2 3.1,-4.1 4.6,-8.9 4.6,-14.4 0,-6.4 -2.1,-11.7 -6.2,-15.9 -4.3,-4.3 -9.7,-6.3 -16.3,-6 m 9.8,34.1 c -1,3 -2.4,5.1 -4.2,6.5 -1.4,1.1 -3.2,1.6 -5.3,1.6 -3.1,0 -5.6,-1.2 -7.3,-3.7 -2.5,-3.5 -3.7,-8.9 -3.7,-16.2 0,-6.2 0.8,-10.9 2.4,-14.2 2,-4 4.9,-6 8.7,-6 2.1,0 3.9,0.6 5.5,1.7 1.6,1.2 2.9,3.1 3.9,6 1,2.8 1.5,7.1 1.5,12.7 0,4.7 -0.5,8.6 -1.5,11.6"
   style="fill:#e9e1d0;fill-opacity:1" />
</svg>
