<?xml version="1.0" encoding="UTF-8" standalone="no"?>
<!-- Generator: Adobe Illustrator 26.0.3, SVG Export Plug-In . SVG Version: 6.00 Build 0)  -->

<svg
   version="1.1"
   id="Layer_1"
   x="0px"
   y="0px"
   viewBox="0 0 264 58.027206"
   xml:space="preserve"
   sodipodi:docname="ngp.svg"
   width="264"
   height="58.027206"
   inkscape:version="1.1.2 (b8e25be833, 2022-02-05)"
   xmlns:inkscape="http://www.inkscape.org/namespaces/inkscape"
   xmlns:sodipodi="http://sodipodi.sourceforge.net/DTD/sodipodi-0.dtd"
   xmlns="http://www.w3.org/2000/svg"
   xmlns:svg="http://www.w3.org/2000/svg"><defs
   id="defs25" /><sodipodi:namedview
   id="namedview23"
   pagecolor="#ffffff"
   bordercolor="#666666"
   borderopacity="1.0"
   inkscape:pageshadow="2"
   inkscape:pageopacity="0.0"
   inkscape:pagecheckerboard="0"
   showgrid="false"
   inkscape:zoom="0.55104167"
   inkscape:cx="959.09263"
   inkscape:cy="540.79395"
   inkscape:window-width="2560"
   inkscape:window-height="1387"
   inkscape:window-x="-8"
   inkscape:window-y="-8"
   inkscape:window-maximized="1"
   inkscape:current-layer="Layer_1" />
<style
   type="text/css"
   id="style2">
	.st0{fill:#E9E1D0;}
</style>
<g
   transform="scale(0.44,0.438935)"
   id="g20"
   style="fill:#e9e1d0;fill-opacity:1">
	<path
   id="path7"
   class="st0"
   d="m 36,115.3 -0.1,-44 h 5.7 V 124 H 35.9 L 5.6,79.6 5.7,124 H 0 V 71.3 h 6 z"
   style="fill:#e9e1d0;fill-opacity:1" />
	<path
   id="path9"
   class="st0"
   d="m 48,71.3 h 28 v 5.2 H 53.8 v 18.3 h 22 v 5.2 h -22 v 18.8 H 75.9 V 124 H 48 Z"
   style="fill:#e9e1d0;fill-opacity:1" />
	<path
   id="path11"
   class="st0"
   d="m 78.6,97.8 c 0,-16.2 12.6,-27.4 27.5,-27.4 15.5,0 27.5,11.8 27.5,27.3 0,15.5 -12,27.3 -27.5,27.3 C 90.5,124.9 78.6,112.9 78.6,97.8 Z m 5.9,-0.2 c 0,12.4 9.3,22.1 21.7,22.1 12.5,0 21.6,-10 21.6,-22.1 0,-12 -9.1,-22.1 -21.7,-22.1 -12.4,0 -21.6,9.9 -21.6,22.1 z"
   style="fill:#e9e1d0;fill-opacity:1" />
	<path
   id="path13"
   class="st0"
   d="m 182.2,84.9 c -1.6,-2.3 -3.6,-4.2 -5.9,-5.7 -3.4,-2.4 -7.6,-3.7 -12.2,-3.7 -11.5,0 -21.6,8.8 -21.6,22 0,13.4 10.1,22.2 21.6,22.2 5.6,0 10.5,-1.9 14.1,-4.8 3.7,-2.9 6.3,-6.9 7.1,-11 h -28.7 v -4.8 h 35.5 c -0.1,3.1 -0.8,6.9 -2.4,10.2 -4.6,9.9 -15.1,15.7 -25.7,15.7 -15.4,0 -27.6,-11.8 -27.6,-27.4 0,-15.8 12.4,-27.2 27.6,-27.2 10.7,0 20.6,6 24.7,14.6 z"
   style="fill:#e9e1d0;fill-opacity:1" />
	<path
   id="path15"
   class="st0"
   d="m 195,71.3 h 29.2 v 5.2 H 200.8 V 94.8 H 224 v 5.2 h -23.2 v 18.8 h 23.4 V 124 H 195 Z"
   style="fill:#e9e1d0;fill-opacity:1" />
	<path
   id="path17"
   class="st0"
   d="m 226.5,97.8 c 0,-16.2 12.6,-27.4 27.5,-27.4 15.5,0 27.5,11.8 27.5,27.3 0,15.5 -12,27.3 -27.5,27.3 -15.6,-0.1 -27.5,-12.1 -27.5,-27.2 z m 6,-0.2 c 0,12.4 9.3,22.1 21.6,22.1 12.5,0 21.6,-10 21.6,-22.1 0,-12 -9.1,-22.1 -21.6,-22.1 -12.5,0 -21.6,9.9 -21.6,22.1 z"
   style="fill:#e9e1d0;fill-opacity:1" />
	<path
   id="path21"
   class="st0"
   d="m 346.6,97.8 c 0,-16.2 12.6,-27.4 27.5,-27.4 15.5,0 27.5,11.8 27.5,27.3 0,15.5 -12,27.3 -27.5,27.3 -15.6,-0.1 -27.5,-12.1 -27.5,-27.2 z m 5.9,-0.2 c 0,12.4 9.3,22.1 21.7,22.1 12.5,0 21.6,-10 21.6,-22.1 0,-12 -9.1,-22.1 -21.7,-22.1 -12.4,0 -21.6,9.9 -21.6,22.1 z"
   style="fill:#e9e1d0;fill-opacity:1" />
	<path
   id="path23"
   class="st0"
   d="m 460.4,109.8 c -3.4,8.1 -12.6,15.1 -24.2,15.1 -15.6,0 -27.5,-12 -27.5,-27.3 0,-15 11.6,-27.3 27.4,-27.3 13,0 21.2,8.7 24.3,15.4 H 454 c -1.8,-3.1 -7.8,-10.2 -17.9,-10.2 -12.3,0 -21.6,9.8 -21.6,22 0,12.5 9.3,22.1 21.6,22.1 11,0 16.7,-7.9 17.9,-9.9 h 6.4 z"
   style="fill:#e9e1d0;fill-opacity:1" />
	<path
   id="path25"
   class="st0"
   d="m 518.2,71.3 h 29.2 v 5.2 H 524 v 18.3 h 23.2 V 100 H 524 v 18.8 h 23.4 v 5.2 h -29.2 z"
   style="fill:#e9e1d0;fill-opacity:1" />
	<path
   id="path27"
   class="st0"
   d="m 577,76.5 h -17 v -5.2 h 40 v 5.2 H 582.9 V 124 H 577 Z"
   style="fill:#e9e1d0;fill-opacity:1" />
	<path
   id="path29"
   class="st0"
   d="m 503.3,124 h 7.3 L 483.2,97.6 508.4,71.3 H 502 L 474.4,99.9 V 93.1 71.3 h -5.8 V 124 h 5.8 v -17.2 l 5.4,-5.6 z"
   style="fill:#e9e1d0;fill-opacity:1" />
	<path
   id="path31"
   class="st0"
   d="M 320.5,128 C 309,105.2 297.6,82.4 286.1,59.7 c 0.1,0 0.1,-0.1 0.2,-0.1 2.9,-1.5 5.7,-2.9 8.6,-4.4 4,-2.1 8.1,-4.1 12.1,-6.2 4.2,-2.2 8.7,-3.5 13.5,-3.3 3.3,0.1 6.3,1.1 8.9,3.1 2.3,1.8 4,4.1 5.2,6.7 1.2,2.5 2,5 2.1,7.8 0.1,3.8 -1.1,7.3 -3.2,10.6 -1.4,2.2 -3,4.1 -4.8,5.9 -1.3,1.2 -2.6,2.3 -4,3.5 -4.8,-3.4 -9.6,-6.8 -14.3,-10.2 0.9,-3.3 1.8,-6.6 2.7,-9.8 4.6,0 9.2,0 13.7,0 0,-3.5 0,-6.9 0,-10.4 -7.1,0.1 -14.1,0.1 -21.1,0.2 -2.5,7.2 -5.1,14.4 -7.6,21.5 8.2,6.8 16.3,13.5 24.5,20.3 3.2,-1.2 6.3,-2.8 9.2,-4.6 4.6,-3 8.5,-6.8 11.3,-11.5 2.6,-4.4 3.9,-9.2 4,-14.4 0,-3.2 -0.4,-6.3 -1.4,-9.3 -1.2,-4 -3.2,-7.7 -6.1,-10.8 -5.5,-5.8 -12.2,-8.8 -20.2,-9.1 -4.7,-0.2 -9.2,0.9 -13.4,3 -1.9,1 -3.7,2 -5.7,2.9 -4.2,2.1 -8.5,4.1 -12.8,6.1 -3.8,1.8 -7.5,3.6 -11.3,5.3 -1.3,0.6 -2.5,1.2 -3.8,1.8 12.7,26 25.5,52 38.2,77.9 3.5,-1.5 6.6,-2.8 9.9,-4.2 z"
   style="fill:#e9e1d0;fill-opacity:1" />
	<path
   id="path33"
   class="st0"
   d="m 320.5,128 c -3.2,1.4 -6.4,2.7 -9.6,4.1 -12.7,-26 -25.5,-51.9 -38.2,-77.9 1.3,-0.6 2.5,-1.2 3.8,-1.8 3.8,-1.8 7.5,-3.6 11.3,-5.3 4.3,-2 8.5,-4 12.8,-6.1 1.9,-0.9 3.8,-2 5.7,-2.9 4.2,-2.1 8.7,-3.2 13.4,-3 8,0.3 14.7,3.4 20.2,9.1 2.9,3.1 4.8,6.7 6.1,10.8 0.9,3 1.4,6.2 1.4,9.3 -0.1,5.1 -1.4,9.9 -4,14.3 -2.8,4.7 -6.7,8.5 -11.3,11.5 -2.9,1.9 -6,3.4 -9.2,4.6 -8.2,-6.8 -16.3,-13.5 -24.5,-20.3 2.5,-7.2 5.1,-14.3 7.6,-21.5 7,-0.1 14,-0.1 21.1,-0.2 0,3.5 0,6.9 0,10.4 -4.5,0 -9.1,0 -13.7,0 -0.9,3.3 -1.8,6.5 -2.7,9.8 4.8,3.4 9.5,6.7 14.3,10.2 1.3,-1.2 2.7,-2.3 4,-3.5 1.8,-1.8 3.4,-3.7 4.8,-5.9 2.1,-3.2 3.2,-6.7 3.2,-10.6 -0.1,-2.8 -0.9,-5.3 -2.1,-7.8 -1.3,-2.6 -2.9,-4.9 -5.2,-6.7 -2.6,-2 -5.6,-3 -8.9,-3.1 -4.8,-0.2 -9.3,1.2 -13.5,3.3 -4,2.1 -8.1,4.1 -12.1,6.2 -2.9,1.5 -5.7,2.9 -8.6,4.4 -0.1,0 -0.1,0.1 -0.2,0.1 11.1,22.9 22.6,45.7 34.1,68.5 z"
   style="fill:#e9e1d0;fill-opacity:1" />
	<path
   id="path35"
   class="st0"
   d="m 328.5,28.1 c -2.3,-0.5 -4.5,-0.9 -6.8,-1.4 1.3,-8.9 2.7,-17.8 4,-26.7 4.2,0.6 8.3,1.2 12.5,1.8 -3.2,8.8 -6.4,17.5 -9.7,26.3 z"
   style="fill:#e9e1d0;fill-opacity:1" />
	<path
   id="path37"
   class="st0"
   d="m 365.7,20.8 c 2.2,3.6 4.4,7.1 6.6,10.7 -7.2,4.5 -14.4,8.9 -21.7,13.4 -1.5,-2.3 -3,-4.5 -4.5,-6.8 6.5,-5.7 13,-11.5 19.6,-17.3 z"
   style="fill:#e9e1d0;fill-opacity:1" />
	<path
   id="path39"
   class="st0"
   d="m 348.3,6.9 c 3.2,2.2 6.3,4.4 9.5,6.5 -5.7,6.8 -11.4,13.6 -17.1,20.4 -2,-1.2 -4,-2.5 -6,-3.7 4.5,-7.7 9,-15.5 13.6,-23.2 z"
   style="fill:#e9e1d0;fill-opacity:1" />
</g>
</svg>
