<?xml version="1.0" encoding="UTF-8" standalone="no"?>
<!-- Generator: Adobe Illustrator 26.0.3, SVG Export Plug-In . SVG Version: 6.00 Build 0)  -->

<svg
   version="1.1"
   id="svg8"
   sodipodi:docname="odyssey2.svg"
   x="0px"
   y="0px"
   viewBox="0 0 128.3378 43.815781"
   xml:space="preserve"
   width="128.3378"
   height="43.815781"
   inkscape:version="1.1.2 (b8e25be833, 2022-02-05)"
   xmlns:inkscape="http://www.inkscape.org/namespaces/inkscape"
   xmlns:sodipodi="http://sodipodi.sourceforge.net/DTD/sodipodi-0.dtd"
   xmlns="http://www.w3.org/2000/svg"
   xmlns:svg="http://www.w3.org/2000/svg"><defs
   id="defs9" />
<style
   type="text/css"
   id="style2">
	.st0{fill:#E9E1D0;}
</style>
<sodipodi:namedview
   bordercolor="#666666"
   borderopacity="1.0"
   id="base"
   inkscape:current-layer="layer1"
   inkscape:cx="198.82017"
   inkscape:cy="75.277124"
   inkscape:document-units="mm"
   inkscape:object-nodes="false"
   inkscape:pagecheckerboard="true"
   inkscape:pageopacity="0.0"
   inkscape:pageshadow="2"
   inkscape:snap-others="false"
   inkscape:window-height="1387"
   inkscape:window-maximized="1"
   inkscape:window-width="2560"
   inkscape:window-x="-8"
   inkscape:window-y="-8"
   inkscape:zoom="1.1291611"
   pagecolor="#ffffff"
   showgrid="false"
   units="px">
	</sodipodi:namedview>
<g
   id="layer1"
   transform="translate(-2.8460836,-249.4716)"
   inkscape:groupmode="layer"
   inkscape:label="Layer 1">
	<g
   id="g287"
   transform="matrix(1.2208578,0,0,1.2208578,-8.6681315,-57.696225)"
   style="fill:#e9e1d0;fill-opacity:1">
		<path
   id="path280"
   inkscape:connector-curvature="0"
   class="st0"
   d="m 56.2,287.3 c -0.3,-0.2 -0.8,-0.5 -1.1,-0.7 -0.3,-0.2 -1.2,-0.8 -1.9,-1.2 -1.4,-0.9 -1.3,-0.9 -4,-2.6 -1,-0.6 -2.1,-1.3 -2.5,-1.6 -0.9,-0.6 -1.4,-0.9 -2.6,-1.6 -0.5,-0.3 -1,-0.6 -1,-0.7 0,-0.1 -0.3,-0.2 -0.6,-0.4 -0.3,-0.2 -1.3,-0.8 -2.2,-1.4 -0.9,-0.6 -1.7,-1.1 -1.7,-1.1 0,0 -0.7,-0.4 -1.5,-1 -2.4,-1.5 -5.3,-3.4 -5.7,-3.6 -0.1,-0.1 -0.5,-0.3 -1,-0.6 -0.5,-0.3 -0.9,-0.6 -1.1,-0.7 -0.5,-0.3 -1.1,-0.7 -2,-1.2 -0.9,-0.6 -1.4,-0.9 -2,-1.2 -0.2,-0.1 -0.6,-0.4 -0.9,-0.6 -0.4,-0.3 -1.5,-1 -2.3,-1.5 -0.3,-0.2 -0.9,-0.6 -2,-1.3 -0.3,-0.2 -0.8,-0.5 -1.2,-0.7 -0.4,-0.2 -0.7,-0.4 -0.9,-0.6 -0.2,-0.2 -1,-0.7 -2,-1.2 -5,-3 -5.9,-3.7 -6.4,-5.2 -0.3,-0.9 -0.2,-1.8 0.3,-2.3 l 0.3,-0.3 h 5.3 5.5 l 1.3,1.2 c 0.7,0.7 2.2,2 3.2,2.9 1,0.9 2.3,2.1 2.8,2.5 0.5,0.4 1.1,1 1.4,1.2 0.3,0.2 0.9,0.8 1.4,1.2 0.5,0.5 1.6,1.4 2.4,2.2 0.8,0.8 2.4,2.2 3.4,3.2 2,1.9 2.3,2.2 2.3,1.8 0,-0.2 -1.8,-2.1 -4.6,-4.6 -2.7,-2.5 -7.1,-6.8 -7,-6.9 0.1,-0.1 1.2,-0.1 2.5,-0.1 h 2.4 l 1.6,1.7 c 1.5,1.5 2.1,2 2.1,1.5 0,-0.1 -1,-1.5 -2.6,-3.3 l -0.5,-0.6 h -3.2 c -2.2,0 -3.3,0 -3.5,-0.1 -0.4,-0.2 -3.5,-3.4 -3.5,-3.6 0,-0.2 0.8,-0.2 5.8,-0.2 h 5.8 l 0.6,0.3 c 1.2,0.7 1.6,1.1 4.1,4.9 2.5,3.9 3.9,6 4.4,6.7 0.2,0.3 1.1,1.7 2.2,3.3 1,1.6 2.4,3.7 3.1,4.7 0.7,1 1.4,2.1 1.6,2.4 0.2,0.3 0.5,0.8 0.6,1 0.1,0.3 0.3,0.5 0.4,0.6 0.1,0.1 0.2,0.2 0.2,0.3 0,0.1 0.3,0.6 0.7,1.1 0.4,0.5 0.9,1.3 1.1,1.7 0.2,0.4 0.5,0.7 0.5,0.7 0,0 0.1,0 0.1,0 0,0 -0.4,-0.8 -0.8,-1.7 -2.1,-4.1 -3,-5.8 -3.2,-6.1 -0.1,-0.2 -0.3,-0.5 -0.4,-0.6 -0.2,-0.6 -1.1,-2.3 -1.4,-2.7 -0.4,-0.7 -2.5,-4.7 -3.1,-6 -0.1,-0.3 -0.5,-0.9 -0.7,-1.4 -0.4,-0.7 -0.6,-0.8 -0.8,-0.9 -1.4,0 -2.2,-0.6 -2.9,-2 -0.3,-0.5 -0.8,-1.4 -1.1,-2 -2.1,-3.6 -2.5,-4.2 -2.4,-4.4 0.1,-0.2 5.1,-0.2 5.2,0 0.1,0.1 0.5,1 0.9,1.9 0.8,1.8 1.3,2.4 1.6,2.3 0.2,-0.1 0.3,-0.6 0.1,-0.8 -0.1,-0.1 -0.2,-0.4 -0.3,-0.6 -0.1,-0.3 -0.4,-1 -0.7,-1.6 -0.3,-0.6 -0.5,-1.1 -0.4,-1.2 0.1,-0.1 1.2,-0.1 2.6,-0.1 h 2.5 l 0.2,0.9 c 0.3,1.1 0.6,2.4 1.4,5.1 0.5,1.9 0.5,1.9 0.3,2.2 -0.2,0.2 -0.4,0.2 -0.9,0.2 -0.8,-0.1 -0.9,0.1 -0.6,0.9 0.1,0.3 0.4,1 0.5,1.5 0.1,0.5 0.3,1 0.4,1.1 0.2,0.3 0.3,0.7 1,2.8 0.4,1.1 0.8,2.2 0.9,2.5 0.1,0.3 0.7,1.8 1.2,3.4 1.1,3.2 1.3,3.8 1.5,4.4 0.3,0.6 0.6,1.7 0.6,1.9 0,0.1 0.1,0.3 0.2,0.4 0.2,0.1 0.2,0.1 0.2,-0.2 0,-0.2 -0.1,-0.8 -0.2,-1.2 -0.1,-0.5 -0.3,-1.5 -0.5,-2.4 -0.2,-0.9 -0.3,-1.6 -0.4,-1.6 -0.1,-0.1 -0.2,-0.8 -0.5,-2.1 -0.2,-1.3 -0.5,-2.7 -0.7,-2.9 -0.1,-0.1 -0.1,-0.4 -0.2,-0.6 -0.1,-0.8 -0.5,-2.5 -0.8,-4 -0.6,-2.9 -0.7,-3.5 -0.6,-3.6 0.1,-0.1 1.5,-0.1 3.2,-0.1 2.5,0 3.1,0 3.2,-0.2 0.2,-0.4 -0.2,-0.5 -3.4,-0.5 h -3.2 l -0.2,-0.6 c -0.8,-3.4 -0.9,-4 -0.9,-4.9 0,-0.9 0,-1 0.4,-1.5 l 0.4,-0.5 h 6.4 c 5.1,0 6.4,0 6.5,0.1 0,0.1 0,0.6 -0.2,1.1 -0.2,0.5 -0.2,1.1 -0.3,1.2 0,0.2 -0.1,0.5 -0.2,0.8 l -0.2,0.5 -3.8,0.1 c -3.5,0.1 -3.8,0.1 -4,0.3 -0.1,0.2 -0.1,0.3 0.1,0.4 0.2,0.2 0.9,0.2 3.8,0.2 2,0 3.6,0.1 3.6,0.1 0.1,0.1 -0.1,1.1 -0.7,3.5 -0.3,1.3 -0.6,2.6 -0.7,3.4 -0.1,0.8 -0.2,1.2 -0.7,3.4 -0.2,0.8 -0.4,1.9 -0.5,2.5 -0.1,0.5 -0.2,1 -0.3,1.1 -0.1,0.1 -0.1,0.3 -0.1,0.5 0,0.2 -0.2,1.1 -0.4,2 -0.4,1.6 -0.6,3.2 -0.4,2.6 0.2,-0.6 0.5,-1.8 0.6,-2.2 0,-0.3 0.2,-0.8 0.3,-1.2 0.1,-0.4 0.3,-1.1 0.5,-1.6 0.1,-0.5 0.5,-1.8 0.7,-2.9 0.2,-1.1 0.8,-2.8 1,-3.9 0.3,-1.1 0.6,-2.3 0.7,-2.7 l 0.2,-0.8 1.4,-0.1 c 0.7,-0.1 2,-0.1 2.8,0 1.5,0.1 1.8,0 1.7,-0.5 0,-0.2 -0.3,-0.2 -2.9,-0.2 -1.5,0 -2.9,-0.1 -2.9,-0.1 -0.1,-0.1 0.2,-1.7 0.9,-3.8 0.2,-0.5 0.3,-1 0.3,-1.2 0,-0.4 0.7,-1.4 1.2,-1.8 0.8,-0.6 1.2,-0.6 6.7,-0.6 4.7,0 5.1,0.1 5.1,0.3 0,0.1 -0.4,0.8 -0.8,1.4 -0.4,0.6 -0.8,1.3 -0.9,1.4 -0.4,0.7 -0.2,0.7 -3.8,0.7 -1.8,0 -3.4,0 -3.5,0.1 -0.1,0.1 -0.2,0.3 -0.2,0.6 0,0.1 0.7,0.2 3.1,0.2 1.9,0 3.1,0 3.1,0.1 0.1,0.1 -0.3,0.9 -1.1,2.1 -0.3,0.4 -0.5,0.8 -0.5,0.8 0,0 -0.4,0.7 -0.9,1.4 -0.5,0.7 -1.1,1.6 -1.2,2 -0.2,0.4 -0.4,0.7 -0.5,0.8 -0.1,0.1 -0.2,0.2 -0.2,0.3 0,0.1 -0.2,0.4 -0.4,0.7 -0.2,0.3 -0.5,0.8 -0.7,1.2 -0.2,0.4 -0.6,1 -0.9,1.5 -0.3,0.5 -0.6,1 -0.7,1.1 -0.1,0.1 -0.2,0.5 -0.4,0.7 -0.2,0.2 -0.5,0.7 -0.7,1 -0.2,0.3 -0.5,0.8 -0.6,1 -0.3,0.4 -0.8,1.3 -0.7,1.4 0.1,0.1 0.6,-0.6 1,-1.2 0.2,-0.3 0.6,-1 1,-1.6 0.4,-0.6 0.8,-1.2 1,-1.4 0.1,-0.2 0.5,-0.8 0.9,-1.3 0.4,-0.5 0.6,-0.9 0.6,-1 0,-0.1 0.1,-0.2 0.3,-0.4 0.3,-0.3 0.5,-0.6 2.8,-4 2.3,-3.4 3.1,-4.5 4.7,-6.9 0.9,-1.3 1.7,-2.6 1.9,-2.8 l 0.3,-0.4 h 5.6 c 3.9,0 5.7,0 5.7,0.1 0,0.1 -0.7,0.9 -1.6,1.9 l -1.7,1.7 h -2.8 c -2.7,0 -2.8,0 -2.8,0.3 0,0.3 0.1,0.3 1.8,0.2 2,-0.1 2.8,0 2.8,0.2 0,0.1 -0.7,0.9 -1.6,1.7 l -1.6,1.6 -2.2,-0.1 c -1.8,-0.1 -2.2,-0.1 -2.3,0.1 -0.3,0.4 0,0.5 1.8,0.5 1,0 1.8,0.1 1.9,0.1 0,0.1 -1.4,1.6 -3.1,3.3 -6.4,6.3 -12,11.9 -14.3,14.1 -1.3,1.2 -2.3,2.3 -2.2,2.3 0.1,0.1 0.3,-0.1 1.5,-1.1 0.5,-0.4 1.8,-1.5 3,-2.5 1.2,-1 2.9,-2.4 3.8,-3.2 0.9,-0.8 2.2,-1.8 2.8,-2.4 0.6,-0.6 1.5,-1.3 1.8,-1.6 0.3,-0.3 0.7,-0.6 0.9,-0.7 0.2,-0.1 0.8,-0.7 1.5,-1.2 0.7,-0.6 1.5,-1.2 1.8,-1.5 0.3,-0.2 1.4,-1.2 2.4,-2.1 1,-0.9 2.4,-2 2.9,-2.5 0.5,-0.5 1,-0.9 1,-0.9 0,-0.1 -0.2,-0.1 -0.4,-0.1 -0.5,0 -0.7,-0.2 -0.7,-0.7 0,-0.6 0.4,-1.2 1.7,-2.5 0.6,-0.6 2.1,-2.1 3.3,-3.2 l 2.1,-2.1 h 2 c 1.4,0 2,0 2.1,0.1 0.1,0.1 -0.8,1 -2,2.2 -1.9,1.8 -2.1,2.1 -2,2.3 0.2,0.3 1.1,0.3 1.6,-0.1 0.2,-0.1 0.4,-0.3 0.5,-0.3 0.1,0 0.6,-0.4 1.1,-0.9 0.6,-0.5 1.6,-1.4 2.2,-1.9 0.6,-0.5 1.2,-1.1 1.3,-1.2 0.1,-0.2 4.8,-0.3 4.8,0 0,0.2 -0.8,0.9 -2.4,2.2 -0.6,0.5 -1.5,1.2 -1.9,1.6 -5.5,4.8 -5.1,4.5 -6.7,4.5 -0.9,0 -1,0 -2,0.8 -0.6,0.4 -1.4,1 -1.9,1.4 -2,1.5 -3.1,2.3 -4.5,3.4 -0.8,0.6 -1.5,1.1 -1.6,1.1 -0.1,0 -2.9,2.1 -4.6,3.4 -1.5,1.1 -3,2.3 -4.1,3 -0.6,0.4 -1.1,0.8 -1.2,0.9 -0.1,0.1 -0.2,0.2 -0.2,0.2 -0.1,0 -0.5,0.3 -0.9,0.6 -1.4,1.1 -3.7,2.8 -4.1,3 -0.2,0.1 -0.5,0.4 -0.8,0.6 -0.3,0.2 -0.9,0.7 -1.4,1 -2.3,1.7 -4,2.9 -5.4,4 -0.8,0.6 -1.6,1.2 -1.8,1.3 -0.2,0.1 -0.7,0.2 -1.3,0.2 -0.3,0.3 -0.5,0.2 -0.9,0 z M 24.6,262.4 c 0,-0.1 -2.4,-2.3 -4.1,-3.7 -0.7,-0.6 -0.7,-0.6 -1.7,-0.6 -1.4,0 -1.4,0 0.9,1.8 0.7,0.6 1.7,1.4 2.3,1.8 0.5,0.4 1.1,0.8 1.3,0.8 0.6,0.1 1.3,0.1 1.3,-0.1 z m 79.1,-5.1 c 0,-0.1 0.8,-0.9 1.8,-1.8 l 1.8,-1.6 1.9,-0.1 c 2,-0.1 2.4,-0.2 2.4,-0.5 0,-0.1 -0.2,-0.2 -0.7,-0.2 -1.6,0.1 -2.7,0 -2.7,-0.2 0,-0.1 0.3,-0.4 0.6,-0.7 l 0.6,-0.6 h 2.5 2.5 l 0.1,0.3 c 0.1,0.3 0.1,0.4 -0.4,1 -0.6,0.8 -1.3,1.4 -2.1,1.6 -0.3,0.1 -1.2,0.2 -2,0.2 -1.3,0.1 -1.6,0.1 -1.8,0.3 -0.3,0.4 -0.1,0.5 1,0.5 0.6,0 1,0.1 1.1,0.2 0,0.1 -0.2,0.4 -0.6,0.8 l -0.6,0.7 h -2.7 c -2.1,0.2 -2.7,0.2 -2.7,0.1 z"
   style="fill:#e9e1d0;fill-opacity:1" />
	</g>
</g>
</svg>
