<?xml version="1.0" encoding="UTF-8" standalone="no"?>
<!-- Generator: Adobe Illustrator 26.0.3, SVG Export Plug-In . SVG Version: 6.00 Build 0)  -->

<svg
   version="1.1"
   id="Layer_1"
   x="0px"
   y="0px"
   viewBox="0 0 264.10001 115.95329"
   xml:space="preserve"
   sodipodi:docname="pc.svg"
   width="264.10001"
   height="115.95329"
   inkscape:version="1.1.2 (b8e25be833, 2022-02-05)"
   xmlns:inkscape="http://www.inkscape.org/namespaces/inkscape"
   xmlns:sodipodi="http://sodipodi.sourceforge.net/DTD/sodipodi-0.dtd"
   xmlns="http://www.w3.org/2000/svg"
   xmlns:svg="http://www.w3.org/2000/svg"><defs
   id="defs23" /><sodipodi:namedview
   id="namedview21"
   pagecolor="#ffffff"
   bordercolor="#666666"
   borderopacity="1.0"
   inkscape:pageshadow="2"
   inkscape:pageopacity="0.0"
   inkscape:pagecheckerboard="0"
   showgrid="false"
   inkscape:zoom="0.55104167"
   inkscape:cx="959.09263"
   inkscape:cy="540.79395"
   inkscape:window-width="2560"
   inkscape:window-height="1387"
   inkscape:window-x="-8"
   inkscape:window-y="-8"
   inkscape:window-maximized="1"
   inkscape:current-layer="Layer_1" />
<style
   type="text/css"
   id="style2">
	.st0{fill:#E9E1D0;}
</style>
<path
   class="st0"
   d="m 8.6,46.553283 c -5,-3.8 -7.7,-9.9 -8.5,-16 0,-2.5 0.1,-4.9 -0.1,-7.4 0.6,-5.7 3,-11.4 7.4,-15.2999996 3.6,-3.3 8.4,-5.1 13.3,-5.6 0.1,4.4 0.2,8.6999996 0.2,13.0999996 -3.2,0.6 -6.1,2.6 -7.6,5.5 -1.6,3 -2.2,6.7 -1,10 0.6,1.8 1.6,3.5 3.1,4.6 2,1.5 5,1.3 6.9,-0.2 1.9,-1.6 2.8,-4 3.6,-6.3 1.6,-5.5 2.3,-11.2 4.4,-16.6 1.3,-3.6999996 3.4,-7.3999996 6.8,-9.5999996 3.9,-2.6 8.8,-3.1 13.3,-2.5 4.8,0.6 9.2,3.2 12.2,6.9 4.1,4.9999996 5.9,11.4999996 5.8,17.8999996 -0.1,6.1 -1.7,12.4 -5.4,17.4 -2.5,3.4 -6,6 -10.1,7.2 -2,0.6 -4.1,0.8 -6.1,0.9 -0.1,-4.3 0.1,-8.6 0,-12.9 3.6,-1.2 6.7,-3.9 8.2,-7.4 1.5,-3.6 1.7,-7.7 0.2,-11.3 -0.7,-1.7 -1.8,-3.4 -3.4,-4.4 -1.8,-1.1 -4.2,-1.2 -6,-0.1 -1.8,1.1 -2.7,3 -3.5,4.9 -1.4,3.5 -2,7.3 -3,10.9 -1.2,4.7 -2.6,9.6 -5.5,13.6 -2,2.9 -5,5 -8.5,5.9 -5.7,1.4 -12.1,0.4 -16.7,-3.2 z"
   id="path4"
   style="fill:#e9e1d0;fill-opacity:1" />
<path
   class="st0"
   d="m 1.2,112.85328 c 0,-6.3 0,-12.5 0,-18.799997 12.6,-3.3 25.3,-6.5 37.9,-9.9 -12.6,-2.6 -25.3,-4.9 -37.9,-7.4 0,-7.1 0,-14.2 0,-21.2 22.2,0 44.4,0 66.7,0 0,4.3 0,8.5 0,12.8 -12.3,0.3 -24.7,0.5 -37,0.8 12.3,2.5 24.7,5.1 37,7.6 0,4.5 0,9.1 0,13.6 -11.7,3.1 -23.5,6 -35.2,9.2 1.1,0.1 2.2,0.1 3.2,0.1 10.7,0 21.3,0 32,0 0,3.299997 0,6.599997 0,9.799997 0,1.1 0.1,2.3 -0.1,3.4 z"
   id="path6"
   style="fill:#e9e1d0;fill-opacity:1" />
<path
   class="st0"
   d="m 140.1,9.8532834 c 9.5,-7.3 21.9,-10.3 33.8,-9.8 5.5,0.3 11,1.3 16.3,2.8 0.2,0.1 0.6,0.3 0.8,0.4 -6.5,4.5 -12.1,10.4999996 -15.5,17.6999996 -6.6,-0.7 -13.4,0.9 -18.8,4.8 -6.7,4.7 -11.6,12.2 -12.5,20.4 -1,8.3 -2,16.6 -3,24.8 -0.3,2.3 -0.4,4.7 -1.4,6.8 -1.5,3 -3.6,5.7 -6,8.1 -2.1,2.2 -5.3,2.5 -8.1,2.6 -6.7,-14.6 -8,-31.4 -4.5,-47.1 2.5,-12.2 8.8,-23.9 18.9,-31.4999996 z"
   id="path8"
   style="fill:#e9e1d0;fill-opacity:1" />
<path
   class="st0"
   d="m 190.3,7.8532834 c 9.8,-6.3 22.1,-7.7 33.6,-6.5 10.1,1 20.5,4.7 27.5,12.2999996 5.8,6.1 8.5,14.5 9.1,22.7 -7.3,0.1 -14.6,0.1 -21.9,0 -0.8,-4.4 -3,-8.5 -6.6,-11.2 -5.2,-4 -12.1,-5.1 -18.4,-4.3 -4.8,0.7 -9.8,2.2 -13.2,5.8 -2,2.2 -3.3,5.6 -2,8.5 1.3,3.6 2.5,7.2 3.8,10.7 1.9,5.7 1,11.8 0.4,17.7 -8,-2.1 -16.3,-5.6 -21.4,-12.5 -4.9,-6.6 -5.5,-15.4 -4.2,-23.3 1.3,-8 6.3,-15.5 13.3,-19.8999996 z"
   id="path10"
   style="fill:#e9e1d0;fill-opacity:1" />
<path
   class="st0"
   d="m 78.1,4.1532834 c 13.4,-0.4 26.7,-0.7 40.1,-1 6.6,0 13.2,1 19.5,3 0,0.9 -0.1,1.8 -1,2.3 -5.5,4.7999996 -9.6,10.7999996 -13.3,16.9999996 -7.7,0 -15.4,0.1 -23.1,0.1 0.2,21.8 0,43.6 0.2,65.4 4.7,0.4 9.4,0.7 14,1 4.5,0 9.1,-0.1 13.6,-0.2 4.4,-0.1 7.9,-3.3 10.4,-6.5 3.5,-4.5 6.1,-9.8 6.6,-15.5 0.6,-7 1.2,-13.9 1.9,-20.8 0.3,-3 0.8,-5.9 2,-8.6 2.5,-6.2 7.7,-11.1 13.8,-13.8 8.7,14.6 10,32.6 6,48.9 -2.9,11.6 -9.8,22.4 -19.9,28.999997 -9.9,6.6 -22.1,9 -33.9,8.5 -12.3,-0.5 -24.7,-0.8 -37,-1.5 V 4.1532834 Z"
   id="path12"
   style="fill:#e9e1d0;fill-opacity:1" />
<path
   class="st0"
   d="m 206.8,26.453283 c 4.8,-2.3 10.3,-2.2 15.5,-1.6 5.3,9.6 8.5,20.5 8.6,31.5 0.3,12.3 -3.1,24.5 -8.9,35.3 -5.8,0.7 -11.9,-0.5 -16.8,-3.6 -2.1,-1.3 -3.9,-3.7 -3.2,-6.3 1.4,-5.4 3.2,-10.7 4.7,-16 0.8,-3.1 0.5,-6.3 0.4,-9.4 -0.1,-3.7 -0.8,-7.4 -1.9,-10.9 -1.3,-4.4 -3.2,-8.8 -3.4,-13.5 0,-2.8 2.7,-4.5 5,-5.5 z"
   id="path14"
   style="fill:#e9e1d0;fill-opacity:1" />
<path
   class="st0"
   d="m 233.8,50.453283 c 8,2.2 16.3,4.8 22.5,10.5 5.1,4.7 7.5,11.6 7.8,18.4 v 3.9 c -0.4,6.4 -2.7,12.7 -6.9,17.599997 -5.7,6.6 -13.9,10.4 -22.2,12.4 -11.1,2.5 -22.9,1.9 -33.8,-1.1 -8.8,-2.5 -17.6,-7.4 -22.2,-15.599997 -3.2,-5.6 -5.9,-12.2 -4.2,-18.8 7.1,-0.1 14.3,0.1 21.4,0.1 0.8,4.9 2.8,9.8 6.9,12.9 5.1,3.8 11.7,4.4 17.9,4.5 5.6,-0.1 11.6,-0.7 16.3,-3.9 4.1,-2.7 5.7,-8.6 3.4,-12.9 -1.7,-3 -4.8,-4.9 -7.7,-6.5 0,-7.3 0.5,-14.4 0.8,-21.5 z"
   id="path16"
   style="fill:#e9e1d0;fill-opacity:1" />
<path
   class="st0"
   d="m 165.3,93.453283 c 2.8,-0.4 5.7,0 8.6,0 3.7,8.399997 10.8,14.699997 18.4,19.599997 -5.6,1.9 -11.5,2.8 -17.4,2.9 h -0.3 c -8.5,-0.1 -17,-2 -25,-5 0,-0.1 0,-0.3 0,-0.4 2.9,-2.8 6,-5.6 8.9,-8.4 2.9,-2.399997 4.5,-5.899997 6.8,-8.699997 z"
   id="path18"
   style="fill:#e9e1d0;fill-opacity:1" />
</svg>
