<?xml version="1.0" encoding="UTF-8" standalone="no"?>
<!-- Generator: Adobe Illustrator 26.0.3, SVG Export Plug-In . SVG Version: 6.00 Build 0)  -->

<svg
   version="1.1"
   id="Warstwa_1"
   x="0px"
   y="0px"
   viewBox="0 0 525.5296 184.32288"
   xml:space="preserve"
   sodipodi:docname="pc88.svg"
   width="525.5296"
   height="184.32288"
   inkscape:version="1.1.2 (b8e25be833, 2022-02-05)"
   xmlns:inkscape="http://www.inkscape.org/namespaces/inkscape"
   xmlns:sodipodi="http://sodipodi.sourceforge.net/DTD/sodipodi-0.dtd"
   xmlns="http://www.w3.org/2000/svg"
   xmlns:svg="http://www.w3.org/2000/svg"><defs
   id="defs55" /><sodipodi:namedview
   id="namedview53"
   pagecolor="#ffffff"
   bordercolor="#666666"
   borderopacity="1.0"
   inkscape:pageshadow="2"
   inkscape:pageopacity="0.0"
   inkscape:pagecheckerboard="0"
   showgrid="false"
   inkscape:zoom="0.55104167"
   inkscape:cx="966.35161"
   inkscape:cy="382.91115"
   inkscape:window-width="2560"
   inkscape:window-height="1387"
   inkscape:window-x="-8"
   inkscape:window-y="-8"
   inkscape:window-maximized="1"
   inkscape:current-layer="Warstwa_1" />
<style
   type="text/css"
   id="style2">
	.st0{fill:#E9E1D0;}
</style>
<g
   id="g50"
   transform="translate(7.4296115,-158.67713)"
   style="fill:#e9e1d0;fill-opacity:1">
	<path
   class="st0"
   d="m 431,343 c -0.4,-0.3 -0.7,-0.8 -1.1,-0.8 -12.1,-1.1 -21.1,-7 -27.8,-16.9 -5.4,-7.9 -8.2,-16.9 -10.1,-26.1 -2.1,-10.1 -2.6,-20.4 -1.8,-30.7 0.8,-10.5 2.7,-20.9 7.7,-30.5 5.8,-11.1 14.4,-18.1 26.5,-21.4 10.3,-2.8 20.3,-2.1 30.1,1.7 9.1,3.5 15.5,10.1 19.5,18.8 3.5,7.6 6,15.6 7.1,24.1 1.1,7.7 2.2,15.4 1.7,23.2 -0.8,13.1 -2.9,25.9 -9.2,37.6 -5.3,10 -13.6,16 -24.3,18.9 -2.4,0.6 -4.9,0.8 -7.3,1.2 -0.4,0.1 -0.7,0.5 -1,0.8 -3.3,0.1 -6.7,0.1 -10,0.1 z m -12,-63.2 c -0.4,5.6 0.6,12 2,18.3 1.2,5.2 3.1,10.1 6.3,14.4 4.5,6.1 13.6,6.1 17.4,1.4 1.5,-1.9 3.2,-3.8 4.3,-6 5,-9.8 5.7,-20.6 5.8,-31.3 0,-4.7 -1,-9.5 -1.8,-14.2 -1,-5.8 -3.2,-11.1 -6.4,-16 -4.3,-6.4 -14,-8 -19.2,-1.5 -1.9,2.4 -3.3,4.9 -4.4,7.7 -3.2,8.6 -4.2,17.4 -4,27.2 z"
   id="path4"
   style="fill:#e9e1d0;fill-opacity:1" />
	<path
   class="st0"
   d="m 518,341 c -0.8,0.3 -1.5,0.9 -2.2,0.9 -7.5,0.1 -14.9,0 -22.6,0 0,-42.4 0,-84.4 0,-126.9 8.3,0 16.6,0 24.9,0 -0.1,42 -0.1,84 -0.1,126 z"
   id="path6"
   style="fill:#e9e1d0;fill-opacity:1" />
	<path
   class="st0"
   d="m 370.1,276.3 c 2.9,3.3 5.5,6.1 7.8,9.1 2.8,3.7 4.9,7.5 5.4,12.5 0.7,6.6 0,12.8 -2.2,18.9 -2.3,6.6 -6.5,11.9 -12,16.1 -8.6,6.5 -18.5,9.6 -29.2,8.9 -12.9,-0.8 -24.7,-4.9 -33.5,-15 -5.3,-6 -8.2,-13.1 -8.4,-21.2 -0.1,-5.4 0.1,-10.6 2.6,-15.5 2.2,-4.3 5.2,-8 8.5,-11.6 0.6,-0.6 1.3,-1 1.9,-1.5 -2.5,-5.1 -4.8,-9.9 -7.2,-14.5 -3.6,-7.1 -3.2,-14.4 -1.2,-21.7 3.6,-13 12.5,-20.8 25.2,-24.3 13.1,-3.6 25.6,-2.4 37,5.3 8.8,5.9 14.1,14.1 15.4,24.9 1.2,9.6 -1.4,17.9 -7.1,25.4 -1,1.5 -2,2.9 -3,4.2 z m -29.5,41.1 c 1.9,-0.4 3.9,-0.5 5.8,-1.1 5.2,-1.6 8.2,-6.9 7.8,-13 -0.3,-5.5 -2.5,-9.7 -7.8,-11.5 -5.2,-1.7 -10.5,-1.8 -14.9,2.3 -4.4,4.1 -5.6,9.8 -3.1,15.4 2.2,5.1 6.2,8.1 12.2,7.9 z M 352,251 c 0.1,-7 -4.8,-11.9 -11.8,-11.9 -6.4,0 -10.8,4.2 -11,11.5 -0.2,6.5 5.2,11.4 11.8,11.3 6.4,0 11,-4.6 11,-10.9 z"
   id="path8"
   style="fill:#e9e1d0;fill-opacity:1" />
	<path
   class="st0"
   d="m 217.9,276.4 c -1.4,-2.5 -3,-5.1 -4.4,-7.7 -3.2,-5.8 -5.7,-11.9 -5.4,-18.8 0.7,-15 9.2,-27 23.2,-32.1 11.1,-4 22,-4.2 32.9,0.2 11.9,4.7 19.9,13.3 22.6,25.8 2.2,10.4 0.2,20.3 -6.8,28.8 -1,1.2 -1.9,2.6 -2.7,3.7 3.2,4 6.2,7.7 9.2,11.5 2.4,2.9 3.1,6.4 3.8,10 1.2,7.5 -0.2,14.3 -3,21.1 -2.3,5.5 -5.9,10.1 -10.5,13.6 -9.1,7 -19.7,10.2 -31.1,9.3 -9.1,-0.7 -17.9,-3.3 -25.4,-8.8 -9.5,-7 -14.7,-16.1 -15.3,-28.1 -0.5,-10.1 3.5,-18 10,-25 0.9,-1 1.8,-2 2.7,-2.9 -0.1,-0.2 0,-0.4 0.2,-0.6 z m 29.8,40.7 c 8.3,0.7 13.3,-5.8 13.5,-12.5 0.3,-7.7 -5.9,-14.1 -13.5,-13.8 -8,0.4 -13.8,5.5 -13.7,13.2 0.2,6.2 4.9,14 13.7,13.1 z M 259,251.3 c -0.2,-7.7 -4.8,-11.9 -11.6,-12.2 -6.1,-0.2 -11.1,3.8 -11.3,11.8 -0.1,6.2 5.2,11.1 11.6,11.1 6.5,-0.1 11.3,-4.6 11.3,-10.7 z"
   id="path10"
   style="fill:#e9e1d0;fill-opacity:1" />
	<path
   class="st0"
   d="m 19,238.6 c 0,34.8 0,68.8 0,103.2 -8.6,0.2 -17,0 -25.4,0.1 -1.1,-4.4 -1.4,-107.5 -0.5,-127.7 1,-0.1 2.1,-0.3 3.2,-0.3 10.2,0 20.3,-0.1 30.5,0.1 9,0.2 17.8,1.7 26.1,5.1 11.8,4.8 18.3,13.7 19.2,26.5 0.3,4.1 0.5,8.1 0.1,12.3 -1.4,14.4 -9.1,23.9 -22.3,29 -7.8,3 -15.9,4.2 -24.6,4 -1,-4.1 -0.2,-8.2 -0.4,-12.3 -0.1,-4 0,-8 0,-12.2 2.2,-0.5 4.4,-1.2 6.6,-1.2 2.6,-0.1 4.8,-1.3 7,-2.4 3.4,-1.7 5.1,-4.7 5.3,-8.4 0.1,-2.3 -0.2,-4.6 -0.7,-6.8 -1.2,-5 -5.7,-6.3 -9.8,-7.2 -4.4,-1.1 -9,-1.2 -14.3,-1.8 z"
   id="path12"
   style="fill:#e9e1d0;fill-opacity:1" />
	<path
   class="st0"
   d="m 160.9,241 c -3.8,-0.5 -7.1,-0.8 -10.3,-1.4 -8.2,-1.4 -15.8,0.3 -22.8,4.3 -9.6,5.4 -14.7,13.9 -16.8,24.5 -2,10.2 -1.3,20.1 3.6,29.4 5,9.5 12.7,15.9 23.3,17.7 5.3,0.9 10.9,0 16.4,-0.2 1.8,-0.1 3.5,-0.5 5.8,-0.8 0,4.5 0,8.5 0,12.4 0,3 0,6 0,9 -0.1,3.2 -0.1,3.2 -3.1,3.9 -9.1,2.1 -18.2,2.7 -27.6,1.1 -7.4,-1.3 -14.3,-3.7 -20.6,-7.9 -12.1,-7.9 -19.3,-19.3 -23.4,-32.8 -2.6,-8.6 -3.7,-17.5 -3,-26.5 1.3,-17.2 6.9,-32.6 19.4,-44.9 7.9,-7.7 17.5,-12.2 28.4,-14.2 8.6,-1.6 17.1,-1 25.7,0.2 1,0.1 1.9,0.7 2.9,0.8 2,0.2 2.4,1.4 2.4,3.1 -0.3,7.4 -0.3,14.6 -0.3,22.3 z"
   id="path14"
   style="fill:#e9e1d0;fill-opacity:1" />
	<path
   class="st0"
   d="m 79.1,181.1 c -4.5,-9 -4.1,-14.8 1.5,-19.1 4.7,-3.6 12.6,-4.9 19.3,0.6 2.8,2.3 4,5.4 4.2,9.2 0.2,3.6 -1.6,6.3 -3.2,9.1 0.4,0.6 0.6,1.1 0.9,1.4 4,3.6 4.1,8.2 2.6,12.8 -1.6,5.3 -5.8,8 -11,8.8 -3.9,0.6 -7.8,0.2 -11.6,-1.8 -7.6,-4.1 -9.4,-13 -3.8,-19.6 0.4,-0.4 0.6,-0.8 1.1,-1.4 z m 10.9,14 c 2.9,0 4.9,-1.8 4.9,-4.4 0,-2.1 -2.9,-4.7 -5.1,-4.6 -2,0.1 -4.7,2.6 -4.7,4.5 0,2.5 2.1,4.5 4.9,4.5 z M 89.7,168 c -2,0.1 -3.7,1.8 -3.7,3.9 0,2.1 2.2,4.1 4.2,3.9 2,-0.2 3.8,-2 3.7,-3.9 -0.1,-2.2 -2,-4 -4.2,-3.9 z"
   id="path16"
   style="fill:#e9e1d0;fill-opacity:1" />
	<path
   class="st0"
   d="m 111.3,181.1 c -2.7,-3.9 -4.2,-8 -3.1,-12.4 0.7,-2.7 2.2,-5.3 4.6,-6.9 5.5,-3.6 13,-4.3 19.3,1 4.9,4.1 5.1,10 0.7,18.4 0.4,0.5 0.9,1.2 1.4,1.7 5.2,4.6 3,16.3 -4.1,19.5 -6.8,3.1 -13.3,2.4 -19.2,-2 -5,-3.7 -5.6,-12.8 -2.1,-16.6 0.8,-0.9 1.5,-1.6 2.5,-2.7 z m 5.8,9.6 c 0.1,2.8 2.3,4.6 5.3,4.4 2.6,-0.1 4.7,-2.4 4.4,-4.8 -0.2,-1.9 -2.8,-4.2 -4.8,-4.2 -2.1,-0.1 -4.9,2.6 -4.9,4.6 z m 8.8,-18.7 c 0,-2.2 -1.9,-4 -4.2,-4 -2,0.1 -3.7,1.8 -3.8,3.8 -0.1,2.1 2.1,4.1 4.1,4 2.2,-0.1 4,-1.9 3.9,-3.8 z"
   id="path18"
   style="fill:#e9e1d0;fill-opacity:1" />
	<path
   class="st0"
   d="m 172.5,182.4 c 0.1,5.7 -1.1,10.9 -4,15.8 -1.1,1.9 -2.6,3.4 -4.6,4.4 -4.3,2.2 -8.8,2.7 -13.3,1.2 -3.2,-1.1 -5.8,-3 -7.4,-6.2 -4.6,-9 -5.3,-18.3 -2.1,-27.8 3.4,-9.8 12.6,-13.2 22.1,-9.1 4.8,2.1 6.5,6.5 7.7,11 1,3.4 1.1,7.1 1.6,10.7 z m -10.1,-0.2 c -0.5,-2.9 -0.9,-5.6 -1.6,-8.4 -0.2,-1.1 -0.9,-2.2 -1.6,-3.1 -2.3,-3 -5.9,-2.7 -7.5,0.7 -2.9,6.3 -2.4,12.9 -0.6,19.4 0.3,1.2 1.4,2.3 2.3,3.2 1.4,1.4 3.5,1.4 4.9,0 1,-1.1 2,-2.4 2.4,-3.7 0.8,-2.5 1.2,-5.3 1.7,-8.1 z"
   id="path20"
   style="fill:#e9e1d0;fill-opacity:1" />
	<path
   class="st0"
   d="m 206,192 c -2.4,10 -11.3,14.4 -21.1,11.1 -3.4,-1.1 -5.5,-3.6 -7,-6.6 -3.3,-6.7 -4.4,-13.6 -3.1,-21.1 0.9,-5.1 2.3,-9.5 6.3,-13.1 7.3,-6.6 20.1,-3.8 23.8,5.3 0.9,2.3 1.6,4.7 2,7.1 0.4,2.4 0.3,5 0.4,7.5 M 185,181.1 c -0.2,3.3 0,6.8 1.5,10 0.9,1.9 2,4 4.6,3.8 2.4,-0.1 3.3,-1.9 4.2,-3.7 0.2,-0.4 0.4,-0.9 0.6,-1.4 1.7,-4.7 1.3,-9.5 0.8,-14.2 -0.2,-1.6 -0.9,-3.2 -1.8,-4.6 -1.9,-3.2 -5.5,-4.6 -8,-0.2 -1.8,3.3 -2,6.7 -1.9,10.3 z"
   id="path22"
   style="fill:#e9e1d0;fill-opacity:1" />
	<path
   class="st0"
   d="m 345.9,191.5 c -3.3,3.3 -6.1,5.9 -8.6,8.8 -3.4,4 -7.8,3.9 -12.3,3.5 -0.6,-0.1 -1.6,-1.2 -1.7,-2 -0.3,-1.6 -0.1,-3.3 -0.1,-5.1 0.4,-0.2 0.7,-0.7 1.1,-0.7 4.4,-0.4 7.5,-2.8 10.3,-6 3.4,-3.9 7.2,-7.4 10.8,-11.1 1.1,-1.2 2.1,-2.5 3.2,-3.8 0.7,-0.9 2,-1.8 0.9,-2.9 -0.7,-0.7 -2,-1.2 -3,-1.2 -6.5,-0.1 -13,0 -19.5,-0.1 -3.6,0 -3.8,-0.3 -3.9,-4 0,-1.5 0,-2.9 0,-4.8 1.8,0 3.3,0 4.7,0 6.5,0 13,0 19.5,0 7.2,0 12.3,6 11.8,12.5 -0.1,1.9 -0.5,3.5 -2,4.9 -1.8,1.7 -3.4,3.6 -5.2,5.4 3.9,6.1 8.2,11.7 10.5,19.1 -3.1,0 -5.6,0 -8,0 -1.4,0 -1.9,-1 -2.5,-2.1 -1.8,-3.3 -3.8,-6.6 -6,-10.4 z"
   id="path24"
   style="fill:#e9e1d0;fill-opacity:1" />
	<path
   class="st0"
   d="m 4.1,185.5 c 0,-1.4 0,-2.9 0,-4.3 0,-3.1 0.1,-3 3.2,-4.4 1.3,-0.6 2.8,-1.4 3.4,-2.6 1.2,-2.1 -0.1,-4.5 -2.5,-5.5 -0.6,-0.2 -1.2,-0.5 -1.9,-0.6 -1,-0.1 -2,0 -3.3,0 -0.5,6 -0.2,12 -0.2,17.9 -0.1,5.8 0,11.6 0,17.8 -3.2,0.6 -6.3,0.3 -9.6,0.2 0,-14.9 0,-29.7 0,-44.7 4.3,-0.9 8.8,-0.4 13.2,-0.3 1.9,0 3.9,0.4 5.8,0.9 8.4,2.4 9.5,6.9 9,13.6 -0.7,9 -7.2,13.5 -17.1,12 z"
   id="path26"
   style="fill:#e9e1d0;fill-opacity:1" />
	<path
   class="st0"
   d="m 49.9,168.3 c -5.7,-0.5 -10.8,-0.8 -14.8,3.6 -3.3,3.7 -3.5,8.1 -3.1,12.6 0.7,7.4 7.6,11.6 16.9,10 0,3 0,5.9 0,9.2 -4.2,0.4 -8.4,0.9 -12.4,-0.1 -6.8,-1.7 -11.3,-6.4 -13.3,-12.9 -2.8,-9 -1.9,-17.7 4.2,-25.3 3,-3.7 7.2,-5.8 12,-6.4 2.5,-0.3 5,-0.1 7.5,0 2.5,0.1 2.9,0.6 3,3 0,1.8 0,3.6 0,6.3 z"
   id="path28"
   style="fill:#e9e1d0;fill-opacity:1" />
	<path
   class="st0"
   d="m 241,164.2 c 3.3,0 5.9,0 9,0 0.1,1.2 0.2,2.4 0.2,3.5 0,6.7 -0.1,13.3 0,20 0.2,9.2 -8.4,16 -15.8,15.5 -6,-0.4 -12,-0.1 -18,-0.1 -1.3,0 -2.6,-0.1 -4,-0.2 0,-2.9 0,-5.5 0,-8.5 1,-0.1 2.1,-0.4 3.2,-0.4 6,0 12,-0.2 18,0.1 4.6,0.2 7.8,-2.9 7.6,-7.6 -0.3,-5.8 -0.1,-11.6 -0.1,-17.5 -0.1,-1.5 -0.1,-3 -0.1,-4.8 z"
   id="path30"
   style="fill:#e9e1d0;fill-opacity:1" />
	<path
   class="st0"
   d="m 277.1,162.2 c 3.3,0 6.3,0 9.5,0 0.1,1.1 0.3,2.2 0.3,3.3 0,7.3 0.2,14.6 0,22 -0.2,6.5 -2.6,12 -9.1,14.6 -1.2,0.5 -2.5,0.9 -3.8,0.9 -6.1,0.1 -12.3,0 -18.7,0 -0.7,-2.9 -0.4,-5.6 -0.2,-8.9 2.5,0 5,0 7.4,0 2.8,0 5.7,-0.2 8.5,0.1 3.8,0.3 6.3,-1.9 6.2,-5.9 -0.2,-4.8 0,-9.6 0,-14.5 -0.1,-3.8 -0.1,-7.6 -0.1,-11.6 z"
   id="path32"
   style="fill:#e9e1d0;fill-opacity:1" />
	<path
   class="st0"
   d="m 193.9,267.4 c 0,5.9 0,11.5 0,17.3 -9.9,0 -19.6,0 -29.7,0 -0.5,-5.7 -0.1,-11.4 -0.3,-17.3 10.1,0 19.8,0 30,0 z"
   id="path34"
   style="fill:#e9e1d0;fill-opacity:1" />
	<path
   class="st0"
   d="m 325.8,179.1 c 0,2.6 0,4.9 0,7.2 -3.3,0.9 -28.4,1.2 -35.6,0.3 0,-2.4 0,-4.8 0,-7.2 3.9,-0.6 26.8,-0.9 35.6,-0.3 z"
   id="path36"
   style="fill:#e9e1d0;fill-opacity:1" />
	<path
   class="st0"
   d="m 212.1,162.1 c 7.1,0 13.6,0 20,0 0.3,0.3 0.6,0.6 0.6,0.8 0.2,9.8 0.6,7.9 -7.8,8 -3.2,0.1 -6.3,0.1 -9.5,0 -3,-0.1 -3.3,-0.4 -3.4,-3.5 0.1,-1.6 0.1,-3.3 0.1,-5.3 z"
   id="path38"
   style="fill:#e9e1d0;fill-opacity:1" />
	<path
   class="st0"
   d="m 222.5,175.1 c 2.7,0 5.3,0 8,0 1.4,0 2.1,0.7 2.3,2.1 0.1,0.5 0,1 0,1.5 0.1,5.7 -0.4,5.4 -5.1,5.3 -4.2,-0.1 -8.3,0 -12.5,0 -2.5,0 -2.9,-0.5 -3.1,-2.8 -0.1,-1 -0.1,-2 0,-3 0.1,-2.7 0.5,-3 3.4,-3.1 2.3,-0.1 4.7,0 7,0 0,0 0,0 0,0 z"
   id="path40"
   style="fill:#e9e1d0;fill-opacity:1" />
	<path
   class="st0"
   d="m 255.1,182.2 c 0,-7 0,-13.4 0,-20 2.9,0 5.7,0 8.7,0 0,6.4 0,12.9 0,19.6 -2.7,0.6 -5.4,0.1 -8.7,0.4 z"
   id="path42"
   style="fill:#e9e1d0;fill-opacity:1" />
	<path
   class="st0"
   d="m 50,185.8 c 0,-2.7 0,-4.9 0,-7.3 3.6,-0.8 7.3,-0.3 10.8,-0.4 3.5,-0.1 7,0 10.7,0 0.9,2.4 0.5,4.9 0.3,7.7 -7.3,0.1 -14.5,0.1 -21.8,0 z"
   id="path44"
   style="fill:#e9e1d0;fill-opacity:1" />
	<path
   class="st0"
   d="m 369,165.7 c 0.1,2 -1.5,3.8 -3.6,4 -1.3,0.2 -4,-2.1 -4.2,-3.6 -0.2,-1.7 1.7,-4 3.5,-4.1 2.3,-0.2 4.2,1.4 4.3,3.7 z"
   id="path46"
   style="fill:#e9e1d0;fill-opacity:1" />
	<path
   class="st0"
   d="m 378.1,165.8 c 0,2 -1.8,3.9 -3.6,3.9 -2.1,0 -3.7,-2.1 -3.6,-4.4 0.1,-2.4 1.4,-3.4 3.9,-3.3 2.4,0.1 3.4,1.2 3.3,3.8 z"
   id="path48"
   style="fill:#e9e1d0;fill-opacity:1" />
</g>
</svg>
