<?xml version="1.0" encoding="UTF-8" standalone="no"?>
<!-- Generator: Adobe Illustrator 26.0.3, SVG Export Plug-In . SVG Version: 6.00 Build 0)  -->

<svg
   version="1.1"
   id="Layer_1"
   x="0px"
   y="0px"
   viewBox="0 0 264 93.031052"
   xml:space="preserve"
   sodipodi:docname="pc98.svg"
   width="264"
   height="93.031052"
   inkscape:version="1.1.2 (b8e25be833, 2022-02-05)"
   xmlns:inkscape="http://www.inkscape.org/namespaces/inkscape"
   xmlns:sodipodi="http://sodipodi.sourceforge.net/DTD/sodipodi-0.dtd"
   xmlns="http://www.w3.org/2000/svg"
   xmlns:svg="http://www.w3.org/2000/svg"><defs
   id="defs53" /><sodipodi:namedview
   id="namedview51"
   pagecolor="#ffffff"
   bordercolor="#666666"
   borderopacity="1.0"
   inkscape:pageshadow="2"
   inkscape:pageopacity="0.0"
   inkscape:pagecheckerboard="0"
   showgrid="false"
   inkscape:zoom="0.55104167"
   inkscape:cx="959.09263"
   inkscape:cy="540.79395"
   inkscape:window-width="2560"
   inkscape:window-height="1387"
   inkscape:window-x="-8"
   inkscape:window-y="-8"
   inkscape:window-maximized="1"
   inkscape:current-layer="Layer_1" />
<style
   type="text/css"
   id="style2">
	.st0{fill:#E9E1D0;}
</style>
<path
   class="st0"
   d="M 50.2,22.9 H 45 l 4.2,-8.5 c -1.2,0 -4.3,-0.6 -5.4,-1.6 -1.5,-1.4 -2.7,-4 -1.9,-7.3 0.9,-3.5 4.9,-6.3 9.3,-5.2 3.1,0.8 4.9,2.4 5.4,5.8 0.3,1.6 0.2,3.1 -0.9,5.4 z M 46.3,7.5 c 0,3.7 5.7,3.8 5.7,0.2 0,-3.9 -5.7,-3.9 -5.7,-0.2 z"
   id="path4"
   style="fill:#e9e1d0;fill-opacity:1" />
<path
   class="st0"
   d="m 63.9,0.3 c 5,-0.7 9.4,3.3 7.8,8.5 -0.3,0.8 -1.6,2.5 -1.6,2.5 0,0 2.1,1.9 2.3,3.2 1,5.3 -3,8.3 -6.9,8.5 -4.2,0.1 -8.9,-2.7 -8,-8.1 0.1,-0.7 0.6,-1.4 0.9,-1.9 0.3,-0.5 1.4,-1.6 1.4,-1.6 0,0 -1.6,-2.5 -1.7,-3.5 -0.5,-4 1.7,-7.1 5.8,-7.6 z M 63,6.5 c 0,2.7 4.1,2.7 4.1,0.2 0,-2.9 -4.1,-3 -4.1,-0.2 z m 2.1,12.1 c 3.2,0 3.2,-4.9 -0.1,-4.9 -3.3,0 -3.2,4.9 0.1,4.9 z"
   id="path6"
   style="fill:#e9e1d0;fill-opacity:1" />
<path
   class="st0"
   d="M 81.3,0.3 C 83.8,0 86,1 87.3,2.2 91,5.7 91.6,17.5 87.1,21.4 85.3,23 81.5,23.8 78.5,22.4 75.7,21 74.1,17.3 73.8,13.1 73.4,6.3 75.3,0.9 81.3,0.3 Z m 0.8,18.3 C 86.5,18.5 86.4,3.6 81.4,4.9 77.9,5.7 78,18.6 82.1,18.6 Z"
   id="path8"
   style="fill:#e9e1d0;fill-opacity:1" />
<path
   class="st0"
   d="m 98.9,0.1 c 2.5,-0.3 4.7,0.7 6,1.9 3.7,3.5 4.3,15.3 -0.2,19.2 -1.8,1.6 -5.6,2.4 -8.6,1 C 93.3,20.8 91.7,17.1 91.4,12.9 91,6.2 92.9,0.7 98.9,0.1 Z m 0.8,18.3 C 104.1,18.3 104,3.4 99,4.7 95.5,5.6 95.6,18.5 99.7,18.4 Z"
   id="path10"
   style="fill:#e9e1d0;fill-opacity:1" />
<path
   class="st0"
   d="M 28.5,0.5 V 5 C 16.4,1.7 16.5,21.4 28.3,18.1 v 4.5 C 10.1,27 10,-3.8 28.5,0.5 Z"
   id="path12"
   style="fill:#e9e1d0;fill-opacity:1" />
<path
   class="st0"
   d="M 5.9,13.7 V 9.3 C 8,9.3 9.3,8.6 9.3,7 9.3,5.7 9.1,4.5 4.8,4.5 V 22.9 H 0.2 L 0.3,0 h 4.5 c 8.6,0.1 9.6,3.5 9.6,6.9 -0.1,4.8 -3.4,6.8 -8.5,6.8 z"
   id="path14"
   style="fill:#e9e1d0;fill-opacity:1" />
<polygon
   class="st0"
   points="110.6,6 110.6,1.7 120.5,1.7 120.5,6 "
   id="polygon16"
   style="fill:#e9e1d0;fill-opacity:1" />
<path
   class="st0"
   d="m 185.9,22.7 h -4.7 c -0.6,-2.3 -3.6,-6.3 -3.6,-6.3 l -5.2,5.4 c -1,1 -2.7,1 -4.4,1 h -1.5 v -4.1 h 1 c 1.1,0 2,-0.1 2.8,-0.9 l 9.1,-9.6 c 1,-1 0.5,-2.3 -1.2,-2.3 L 166.5,6 V 1.7 h 11.7 c 5.7,0 7.3,6.1 5.3,8.4 l -3,3.1 c 0.1,-0.1 5.1,7.2 5.4,9.5 z"
   id="path18"
   style="fill:#e9e1d0;fill-opacity:1" />
<polygon
   class="st0"
   points="131.9,11.7 131.9,1.7 136.5,1.7 136.5,11.7 "
   id="polygon20"
   style="fill:#e9e1d0;fill-opacity:1" />
<path
   class="st0"
   d="m 147.9,1.7 v 13.1 c 0,4.4 -3.3,7.7 -7.3,7.7 H 132 v -4.3 h 8 c 2.2,0 3.4,-1.2 3.4,-3.5 0,-2.4 0,-12.9 0,-12.9 h 4.5 z"
   id="path22"
   style="fill:#e9e1d0;fill-opacity:1" />
<path
   class="st0"
   d="m 129.4,2.8 v 11.8 c 0,4.5 -4.1,7.7 -7.8,7.7 h -11.1 v -4.6 h 11.1 c 1.9,0 3.3,-1 3.3,-3.1 V 2.9 Z"
   id="path24"
   style="fill:#e9e1d0;fill-opacity:1" />
<polygon
   class="st0"
   points="110.6,8.3 120.5,8.3 120.5,12.6 110.6,12.6 "
   id="polygon26"
   style="fill:#e9e1d0;fill-opacity:1" />
<rect
   x="28.700001"
   y="10"
   class="st0"
   width="11.1"
   height="3.4000001"
   id="rect28"
   style="fill:#e9e1d0;fill-opacity:1" />
<polygon
   class="st0"
   points="149.7,14.3 149.7,10.1 167.5,10.1 167.5,14.3 "
   id="polygon30"
   style="fill:#e9e1d0;fill-opacity:1" />
<circle
   class="st0"
   cx="187.5"
   cy="3.4000001"
   id="ellipse32"
   r="1.9"
   style="fill:#e9e1d0;fill-opacity:1" />
<circle
   class="st0"
   cx="192.10001"
   cy="3.4000001"
   id="ellipse34"
   r="1.9"
   style="fill:#e9e1d0;fill-opacity:1" />
<path
   class="st0"
   d="m 130.9,92.5 h -14.7 l 11.9,-24.1 c -3.2,0 -12.1,-1.7 -15.3,-4.7 -4.2,-3.8 -7.6,-11.5 -5.2,-20.7 2.6,-10.1 13.9,-17.7 26.1,-14.6 8.8,2.2 13.9,6.7 15.4,16.3 0.7,4.5 0.4,8.8 -2.5,15.3 z M 120.1,49.2 c 0,10.5 16.1,10.8 16.1,0.4 0,-10.8 -16.1,-10.9 -16.1,-0.4 z"
   id="path36"
   style="fill:#e9e1d0;fill-opacity:1" />
<path
   class="st0"
   d="m 172,28.6 c 14.1,-1.8 26.5,9.4 22.1,23.9 -0.7,2.3 -4.5,7.1 -4.5,7.1 0,0 5.9,5.5 6.5,9.1 2.7,14.8 -8.4,23.5 -19.7,23.9 -12,0.4 -25.1,-7.8 -22.5,-23.1 0.4,-2.1 1.7,-4 2.4,-5.3 0.7,-1.2 4,-4.6 4,-4.6 0,0 -4.4,-7 -4.8,-10 -1.5,-10.8 4.9,-19.5 16.5,-21 z m -2.8,17.8 c 0,7.8 11.7,7.7 11.7,0.4 0,-8.3 -11.7,-8.4 -11.7,-0.4 z m 6,33.9 c 9.1,0 9.2,-13.8 -0.2,-13.8 -9.3,0.1 -9,13.8 0.2,13.8 z"
   id="path38"
   style="fill:#e9e1d0;fill-opacity:1" />
<path
   class="st0"
   d="m 221.1,28.6 c 7.1,-0.7 13.4,1.9 16.9,5.3 10.5,10.1 12.2,43.2 -0.4,54.2 -5.2,4.6 -16,6.9 -24.2,2.8 -7.9,-3.9 -12.5,-14.3 -13.3,-26.3 -1.2,-18.8 4.2,-34.3 21,-36 z m 2.4,51.7 c 12.6,-0.3 12.1,-42.5 -2,-38.8 -10,2.6 -9.8,39.1 2,38.8 z"
   id="path40"
   style="fill:#e9e1d0;fill-opacity:1" />
<path
   class="st0"
   d="M 84.3,29.1 V 41.7 C 50.2,32.4 50.4,88 83.9,78.8 V 91.4 C 32.1,104.3 31.8,17.1 84.3,29.1 Z"
   id="path42"
   style="fill:#e9e1d0;fill-opacity:1" />
<path
   class="st0"
   d="M 16.2,66.7 V 54.2 c 6,0 9.7,-2.1 9.7,-6.5 0,-3.6 -0.6,-7.2 -12.8,-7.2 l 0.1,52 H 0 L 0.2,27.9 H 12.9 C 37.3,28 40.1,37.8 40.1,47.3 40,60.9 30.5,66.7 16.2,66.7 Z"
   id="path44"
   style="fill:#e9e1d0;fill-opacity:1" />
<rect
   x="86.099998"
   y="55"
   class="st0"
   width="15.1"
   height="8.6000004"
   id="rect46"
   style="fill:#e9e1d0;fill-opacity:1" />
<rect
   x="251.60001"
   y="28.4"
   class="st0"
   width="12.4"
   height="64"
   id="rect48"
   style="fill:#e9e1d0;fill-opacity:1" />
</svg>
