<?xml version="1.0" encoding="UTF-8" standalone="no"?>
<!-- Generator: Adobe Illustrator 26.0.3, SVG Export Plug-In . SVG Version: 6.00 Build 0)  -->

<svg
   version="1.1"
   id="Warstwa_1"
   x="0px"
   y="0px"
   viewBox="0 0 420.8908 60.674436"
   xml:space="preserve"
   sodipodi:docname="pce-cd.svg"
   width="420.89081"
   height="60.674435"
   inkscape:version="1.1.2 (b8e25be833, 2022-02-05)"
   xmlns:inkscape="http://www.inkscape.org/namespaces/inkscape"
   xmlns:sodipodi="http://sodipodi.sourceforge.net/DTD/sodipodi-0.dtd"
   xmlns="http://www.w3.org/2000/svg"
   xmlns:svg="http://www.w3.org/2000/svg"><defs
   id="defs21" /><sodipodi:namedview
   id="namedview19"
   pagecolor="#ffffff"
   bordercolor="#666666"
   borderopacity="1.0"
   inkscape:pageshadow="2"
   inkscape:pageopacity="0.0"
   inkscape:pagecheckerboard="0"
   showgrid="false"
   inkscape:zoom="2.5148561"
   inkscape:cx="210.15119"
   inkscape:cy="30.220417"
   inkscape:window-width="2560"
   inkscape:window-height="1387"
   inkscape:window-x="-8"
   inkscape:window-y="-8"
   inkscape:window-maximized="1"
   inkscape:current-layer="Warstwa_1" />
<style
   type="text/css"
   id="style2">
	.st0{fill:#E9E1D0;}
</style>
<path
   class="st0"
   d="m 194.11582,12.6 c 7.8,0 15.6,0 23.5,0 2.3,0 4.6,0.5 6.7,1.5 2,0.9 3.8,2.2 5.4,3.6 1,0.9 1.8,1.9 2.6,3 1,1.5 1.5,3.2 1.5,5 0,1.4 0,2.8 0,4.2 0,1.4 -0.3,2.9 -0.8,4.2 -0.4,1 -0.9,2 -1.5,3 -0.2,0.3 -0.3,0.6 -0.5,0.8 -0.2,0.3 -0.2,0.8 0,1.1 0.2,0.3 0.4,0.7 0.6,1 0.6,1 1,2 1.4,3 0.5,1.4 0.8,2.8 0.8,4.2 0,2.8 0,5.7 0,8.5 0,0.2 0,0.3 0,0.5 0.1,1.1 -0.5,2.1 -1.5,2.6 -0.7,0.4 -1.5,0.7 -2.3,0.9 -2,0.5 -4,0.5 -6,0.1 -0.7,-0.1 -1.4,-0.4 -2,-0.7 -1.1,-0.5 -1.8,-1.6 -1.7,-2.8 0,-2.3 0,-4.6 0,-6.8 0,-0.5 0,-1 0,-1.5 -0.1,-1.1 -0.5,-2.1 -1,-2.9 -0.7,-1.2 -2.1,-2 -3.5,-1.9 h -31 c -0.6,0 -1.2,0 -1.8,0 -1.6,0.1 -2.9,1.4 -3,3 0,0.4 0,0.9 0,1.3 0,2.7 0,5.4 0,8.2 0,0.4 0,0.8 0,1.2 0,0.7 -0.3,1.3 -0.9,1.7 -0.6,0.5 -1.2,0.8 -1.9,1 -2,0.6 -4.2,0.8 -6.2,0.5 -0.7,-0.1 -1.4,-0.3 -2.1,-0.5 -0.6,-0.2 -1.1,-0.5 -1.6,-0.9 -0.5,-0.4 -0.8,-1.1 -0.9,-1.8 0,-0.4 0,-0.8 0,-1.2 V 16.2 c 0,-0.4 0,-0.8 0,-1.2 0,-0.3 0.1,-0.7 0.2,-1 0.2,-0.8 0.9,-1.3 1.7,-1.4 0.3,-0.1 0.5,-0.1 0.8,-0.1 z m 5.2,18.8 h 17.6 c 0.7,0 1.4,-0.5 1.6,-1.2 0.5,-1.4 0.5,-3 -0.2,-4.4 0,-0.1 -0.1,-0.2 -0.2,-0.3 -0.2,-0.4 -0.7,-0.6 -1.1,-0.6 h -1.5 -33.8 c -0.6,0 -1.2,0.3 -1.5,0.9 -0.8,1.5 -0.7,3.3 0.1,4.8 0.3,0.4 0.7,0.7 1.2,0.8 0.5,0 1,0 1.5,0 z"
   id="path4"
   style="fill:#e9e1d0;fill-opacity:1" />
<path
   class="st0"
   d="m 354.61582,13.2 h 20.3 c 1.6,0 3.1,0.1 4.6,0.4 2.2,0.4 4.3,1.3 6.1,2.6 1.4,1 2.6,2.2 3.5,3.7 0.8,1.3 1.3,2.7 1.2,4.2 0,1.2 0,2.3 0,3.5 V 55 c 0,0.6 0,1.1 0,1.7 0,0.8 -0.4,1.6 -1,2.2 -0.6,0.5 -1.3,0.9 -2,1.1 -1.6,0.5 -3.3,0.6 -4.9,0.4 -0.7,-0.1 -1.4,-0.3 -2.1,-0.6 -0.5,-0.2 -1,-0.5 -1.4,-0.9 -0.7,-0.6 -1.1,-1.4 -1.1,-2.3 0,-0.5 0,-1 0,-1.5 V 30.8 c 0,-0.5 0,-1 0,-1.5 0,-2.3 -1.8,-4.1 -4,-4.1 0,0 0,0 -0.1,0 h -7 c -0.5,0 -1,0 -1.5,0.1 -1.4,0.1 -2.5,1 -3,2.3 -0.3,0.6 -0.4,1.3 -0.4,1.9 0,0.6 0,1.2 0,1.8 v 25.5 c 0,0.9 -0.4,1.8 -1.2,2.3 -0.7,0.5 -1.5,0.8 -2.3,1 -2.2,0.5 -4.4,0.4 -6.6,-0.2 -0.6,-0.2 -1.1,-0.4 -1.6,-0.8 -0.8,-0.5 -1.3,-1.4 -1.3,-2.4 0,-0.5 0,-1 0,-1.5 v -25 c 0,-0.6 0,-1.2 0,-1.8 0,-0.6 -0.1,-1.1 -0.4,-1.6 -0.3,-0.9 -1.1,-1.5 -2,-1.5 -0.4,0 -0.8,0 -1.2,0 h -7.2 c -0.3,0 -0.7,0 -1,0 -1.6,0.1 -3,1.2 -3.4,2.7 -0.2,0.6 -0.3,1.2 -0.3,1.8 0,0.6 0,1.1 0,1.7 v 24.3 c 0,0.5 0,1 0,1.5 0,0.6 -0.3,1.2 -0.7,1.6 -0.4,0.4 -1,0.8 -1.5,1 -0.7,0.3 -1.5,0.5 -2.2,0.6 -1.8,0.3 -3.6,0.2 -5.3,-0.2 -0.7,-0.2 -1.4,-0.5 -2,-0.9 -0.7,-0.5 -1.1,-1.3 -1.2,-2.1 0,-0.3 0,-0.7 0,-1 V 26.9 c 0,-2.8 0.8,-5.5 2.3,-7.9 2.2,-3.6 6.1,-5.8 10.3,-5.8 3,-0.1 6.1,0 9.2,0 z"
   id="path6"
   style="fill:#e9e1d0;fill-opacity:1" />
<path
   class="st0"
   d="m 276.41582,13.4 c 5.6,0 11.2,0.1 16.8,0 3.1,0 6.2,0.7 9,2.2 4.7,2.3 8.3,6.2 10.4,11 1.5,3.4 2.1,7.2 1.7,10.9 -0.1,2.2 -0.5,4.4 -1.2,6.5 -2.1,6.7 -7.3,12 -13.9,14.2 -1.4,0.5 -2.9,0.8 -4.4,0.8 h -3.5 c -10.5,0 -21,0 -31.4,0 -4.9,0 -9.6,-1.6 -13.4,-4.7 -3.3,-2.6 -5.7,-6.3 -6.9,-10.4 -0.6,-2.1 -1,-4.2 -1.1,-6.4 0,-1.3 0,-2.7 0,-4 0.1,-2.7 0.7,-5.4 1.8,-7.9 2.4,-5.2 6.8,-9.2 12.2,-11.1 2.1,-0.8 4.4,-1.2 6.7,-1.2 5.4,0 10.8,0 16.1,0 z m 0.5,33.7 h 15 c 2.1,0 4.1,-0.9 5.5,-2.4 0.9,-1 1.7,-2.2 2.1,-3.6 0.6,-1.8 0.9,-3.8 0.9,-5.7 0,-0.9 -0.2,-1.8 -0.4,-2.6 -0.8,-3 -2.9,-5.4 -5.7,-6.8 -0.9,-0.5 -2,-0.7 -3,-0.7 h -28.3 c -0.3,0 -0.7,0 -1,0 -0.5,0.1 -1,0.1 -1.5,0.2 -1.7,0.4 -3.4,1.2 -4.7,2.3 -2.4,1.9 -3.8,4.9 -3.7,8 0,3.7 1.8,7.1 4.7,9.3 1.6,1.4 3.7,2.1 5.9,2 0.3,0 0.7,0 1,0 z"
   id="path8"
   style="fill:#e9e1d0;fill-opacity:1" />
<path
   class="st0"
   d="m 99.715819,58.8 h -20.4 c -0.7,0 -1.3,0 -2,0 -0.4,0 -0.9,-0.1 -1.3,-0.3 -0.7,-0.2 -1.2,-0.8 -1.3,-1.4 -0.1,-0.6 -0.2,-1.2 -0.2,-1.8 0,-0.4 0,-0.8 0,-1.2 V 18.7 c 0,-0.8 0,-1.7 0.2,-2.5 0.2,-1.4 1.4,-2.5 2.8,-2.6 0.6,-0.1 1.2,-0.1 1.8,-0.1 h 40.900001 c 3.2,0.1 6.3,0.8 9.1,2.3 4.5,2.2 7.9,6.1 9.5,10.8 0.8,2.3 1.3,4.6 1.4,7 0.1,1.8 0.1,3.7 0,5.5 -0.2,2.8 -0.8,5.5 -1.9,8.1 -3.1,7.2 -10.2,11.8 -18,11.7 -6.8,0 -13.7,-0.1 -20.600001,-0.1 z m 5.200001,-11.3 h 5.5 c 2.8,0 5.6,0 8.3,0 1.1,0 2.2,-0.3 3.1,-0.9 0.5,-0.3 1,-0.7 1.4,-1.1 0.7,-0.7 1.4,-1.4 1.9,-2.3 1.9,-3 2.6,-6.5 2.1,-10 -0.3,-1.7 -0.9,-3.2 -2,-4.5 -1.8,-2.3 -4.5,-3.6 -7.4,-3.5 -8.6,0 -17.2,0 -25.800001,0 -0.4,0 -0.8,0 -1.2,0 -2,0.1 -3.6,1.7 -3.6,3.7 0,0.4 0,0.8 0,1.2 v 13.8 c 0,0.4 0,0.9 0.1,1.3 0,1 0.8,1.9 1.8,2.1 0.8,0.2 1.5,0.3 2.3,0.2 z"
   id="path10"
   style="fill:#e9e1d0;fill-opacity:1" />
<path
   class="st0"
   d="m 40.215819,13.9 h 24 c 0.6,0 1.2,0.3 1.6,0.8 0.4,0.4 0.6,0.9 0.8,1.5 0.7,2.1 0.7,4.3 0.1,6.4 -0.1,0.5 -0.4,1 -0.8,1.5 -0.4,0.5 -1,0.8 -1.6,0.8 h -41.2 c -0.5,0 -1,0 -1.5,0 -1,0 -2,0.2 -2.9,0.7 -0.9,0.4 -1.7,1 -2.5,1.7 -2.3,2.2 -3.7,5.2 -3.9,8.4 -0.1,1.8 0.3,3.7 1.1,5.3 1.2,2.4 3.1,4.5 5.5,5.9 1.4,0.9 3.1,1.3 4.7,1.3 13,0 26,0 38.9,0 h 1.7 c 0.5,0 0.9,0.2 1.2,0.6 0.4,0.4 0.6,0.9 0.8,1.5 0.4,1.4 0.6,2.8 0.5,4.3 0,1 -0.2,2 -0.5,2.9 -0.2,0.4 -0.4,0.8 -0.6,1.2 -0.3,0.4 -0.7,0.7 -1.2,0.7 -0.5,0 -1,0 -1.5,0 h -45.5 c -0.9,0 -1.9,-0.2 -2.8,-0.6 -0.9,-0.4 -1.7,-0.8 -2.5,-1.3 C 7.0158188,54.1 3.1158188,49.1 1.1158188,43.3 0.41581875,41.3 0.01581875,39.2 0.01581875,37.1 c -0.2,-5.6 1.50000005,-11.1 4.90000005,-15.6 1.6,-2.1 3.6,-4 5.8000002,-5.4 1,-0.7 2.1,-1.2 3.3,-1.6 1,-0.4 2.1,-0.6 3.2,-0.6 1.1,0 2.1,0 3.2,0 z"
   id="path12"
   style="fill:#e9e1d0;fill-opacity:1" />
<path
   class="st0"
   d="m 408.81582,25.5 h -9.6 c -0.4,0 -0.9,0 -1.3,0 -0.9,0 -1.7,-0.8 -1.7,-1.7 0,-2.3 0,-4.5 0,-6.8 0,-0.6 0.2,-1.1 0.5,-1.6 0.4,-0.8 1,-1.5 1.7,-2 0.6,-0.5 1.4,-0.7 2.2,-0.8 3.5,0 7,-0.4 10.5,-0.4 h 0.2 c 1.2,0.1 2.3,-0.7 2.6,-1.9 0.4,-1.1 0.3,-2.3 -0.2,-3.4 -0.2,-0.3 -0.4,-0.7 -0.7,-0.9 -0.3,-0.3 -0.6,-0.5 -1,-0.5 -0.5,0 -1,-0.1 -1.5,-0.1 -3.4,0 -6.8,0 -10.1,0 -0.4,0 -0.9,0 -1.3,0 -0.5,0 -0.9,-0.3 -1.1,-0.7 -0.7,-1.2 -0.7,-2.6 -0.1,-3.8 0.2,-0.4 0.6,-0.7 1,-0.8 0.2,0 0.4,0 0.7,0 3.8,0 7.6,-0.1 11.5,-0.1 1.7,0 3.3,0.4 4.8,1.2 2,1 3.5,2.6 4.3,4.7 1,2.5 0.7,5.3 -0.9,7.4 -1.6,2.4 -4.2,3.9 -7,4.3 -0.7,0.1 -1.4,0.2 -2.1,0.2 -1.5,0 -3,0 -4.5,0 -0.5,0 -0.9,0 -1.3,0 -0.6,0 -1.1,0.4 -1.3,0.9 -0.3,0.6 -0.2,1.3 0.1,1.9 0.2,0.4 0.5,0.6 0.9,0.6 0.5,0 1,0 1.5,0 4.2,0 8.4,0 12.6,0 0.5,0 1,0 1.5,0 0.6,0 1.1,0.4 1.1,1 0.1,0.7 0.1,1.3 0,2 0,0.1 0,0.2 -0.1,0.3 -0.1,0.4 -0.5,0.8 -0.9,0.8 -0.4,0 -0.9,0 -1.3,0 z"
   id="path14"
   style="fill:#e9e1d0;fill-opacity:1" />
<path
   class="st0"
   d="m 153.61582,30.5 c 1.1,0 2.2,0.2 3.2,0.7 0.6,0.3 1.2,0.7 1.7,1.1 2.2,2 2.5,5.3 0.5,7.6 -0.2,0.2 -0.3,0.3 -0.5,0.5 -0.9,0.9 -2.1,1.5 -3.4,1.7 -1.4,0.3 -2.9,0.2 -4.3,-0.3 -0.9,-0.3 -1.8,-0.9 -2.5,-1.6 -2.1,-2 -2.3,-5.3 -0.3,-7.4 0.1,-0.1 0.2,-0.2 0.3,-0.3 1.4,-1.4 3.4,-2.1 5.3,-2 z"
   id="path16"
   style="fill:#e9e1d0;fill-opacity:1" />
</svg>
