<?xml version="1.0" encoding="UTF-8" standalone="no"?>
<!-- Generator: Adobe Illustrator 26.0.3, SVG Export Plug-In . SVG Version: 6.00 Build 0)  -->

<svg
   version="1.1"
   id="Layer_1"
   x="0px"
   y="0px"
   viewBox="0 0 599.74536 290.35315"
   xml:space="preserve"
   sodipodi:docname="pcengine.svg"
   width="599.74536"
   height="290.35315"
   inkscape:version="1.1.2 (b8e25be833, 2022-02-05)"
   xmlns:inkscape="http://www.inkscape.org/namespaces/inkscape"
   xmlns:sodipodi="http://sodipodi.sourceforge.net/DTD/sodipodi-0.dtd"
   xmlns="http://www.w3.org/2000/svg"
   xmlns:svg="http://www.w3.org/2000/svg"><defs
   id="defs15" /><sodipodi:namedview
   id="namedview13"
   pagecolor="#ffffff"
   bordercolor="#666666"
   borderopacity="1.0"
   inkscape:pageshadow="2"
   inkscape:pageopacity="0.0"
   inkscape:pagecheckerboard="0"
   showgrid="false"
   inkscape:zoom="0.55104167"
   inkscape:cx="959.09263"
   inkscape:cy="540.79395"
   inkscape:window-width="2560"
   inkscape:window-height="1387"
   inkscape:window-x="-8"
   inkscape:window-y="-8"
   inkscape:window-maximized="1"
   inkscape:current-layer="Layer_1" />
<style
   type="text/css"
   id="style2">
	.st0{fill:#E9E1D0;}
</style>
<g
   id="surface1"
   transform="translate(-0.07185598,-0.04685984)"
   style="fill:#e9e1d0;fill-opacity:1">
	<path
   id="path7"
   class="st0"
   d="m 61.3,213.4 c -0.4,0 -0.8,-0.1 -1.2,-0.3 C 19.9,193.6 -0.8,170.9 0.1,147.3 0.9,127.9 16.7,109.7 45.8,94.4 73.4,80 112.4,68.5 158.6,61.2 c 1.5,-0.2 3,0.8 3.2,2.3 0.2,1.5 -0.8,3 -2.3,3.2 C 65.9,81.6 7,112.5 5.7,147.6 c -0.8,20.8 19.4,42.3 56.8,60.5 1.4,0.7 2,2.4 1.3,3.8 -0.5,0.9 -1.5,1.5 -2.5,1.5 z"
   style="fill:#e9e1d0;fill-opacity:1" />
	<path
   id="path11"
   class="st0"
   d="m 411.7,69 c -0.2,0 -0.3,0 -0.5,0 -29.7,-4.9 -61,-8.1 -93.2,-9.7 -1.6,-0.1 -2.8,-1.4 -2.7,-3 0.1,-1.6 1.4,-2.7 2.9,-2.7 32.3,1.5 63.9,4.8 93.8,9.7 1.5,0.2 2.6,1.7 2.3,3.2 -0.1,1.5 -1.3,2.5 -2.6,2.5 z"
   style="fill:#e9e1d0;fill-opacity:1" />
	<path
   id="path15"
   class="st0"
   d="m 323,261.4 c -0.8,0 -1.6,0 -2.4,0 -1.6,0 -2.8,-1.3 -2.8,-2.8 0,-1.6 1.3,-2.8 2.8,-2.8 0,0 0,0 0,0 0.8,0 1.6,0 2.3,0 150.8,0 269.8,-39.2 271.4,-89.6 0.5,-17.6 -13.6,-35.5 -41,-51.7 C 526.1,98.4 487,84.6 440.4,74.7 c -1.5,-0.3 -2.5,-1.8 -2.2,-3.3 0.3,-1.5 1.8,-2.5 3.3,-2.2 47.2,10 86.8,24 114.6,40.4 29.2,17.3 44.3,36.9 43.7,56.7 -0.8,26.8 -30.4,51.2 -83.3,68.8 -51,17 -119.7,26.3 -193.5,26.3 z"
   style="fill:#e9e1d0;fill-opacity:1" />
	<polygon
   id="polygon17"
   class="st0"
   points="361,92.9 336.4,67.3 344.3,102.8 269.9,159.5 357.3,124.6 381.8,150.1 374,114.7 448.4,58 "
   style="fill:#e9e1d0;fill-opacity:1" />
	<path
   id="path21"
   class="st0"
   d="m 280.8,185.5 c 1.1,-5.3 3,-4.5 8.3,-5.3 l 5,-0.8 -1.5,8.3 -5,0.8 c -5.3,0.8 -7.7,2.2 -6.8,-3 z m -10.7,-7.5 -3.9,20.8 c -1.1,5.7 0.7,7.5 6.1,6.6 l 31.6,-5 6.8,-36.4 -31.6,5 c -5.5,0.8 -8,3.3 -9,9 z m 200.4,-32.8 -0.4,2 32.6,-5.2 c 2.6,-0.4 5.1,-3 5.6,-5.8 0.5,-2.8 -1.1,-4.8 -3.7,-4.3 l -8.4,1.3 -13.3,2.1 -3.4,0.5 c -3.9,0.7 -8.2,5.1 -9,9.4 z M 242,239 l 0.3,-1.4 c 1.1,0.1 2.6,0.5 3.9,0.3 l 33.8,-5.3 c -1.3,6.8 -10.2,8.4 -23.8,10.6 l -15.5,2.5 -8.3,44.7 20.4,-3.2 c 50.1,-4.9 69.2,-30.8 75.3,-61.7 l 61.1,-9.7 9.8,-52.9 5,-0.8 c 5.4,-0.9 4.6,-1.8 3.6,3.8 l -9,48.4 43.8,-7 0.6,-3.2 c 3.3,1.5 7.2,2 11.3,1.3 l 75.8,-12 7.1,-38 -4.9,-3.5 c 4.3,-5 7.6,-11.2 8.5,-16.4 l 1.2,-6 c 3.8,-22.4 -16.9,-28.4 -26.4,-26.9 l -43.5,6.9 c -7.7,1.2 -16.2,6.6 -22.4,13.7 -5.7,-5.7 -14.5,-7.9 -19.6,-7 l -48.4,7.7 5.4,12 43.7,-6.9 c 6.3,-1 10.5,1.5 11.7,6.5 -0.5,1.3 -11.7,60.9 -11.7,60.9 l -15.7,2.5 8.4,-45.1 c 1,-5.7 -0.7,-7.5 -6.1,-6.6 l -30,4.8 -9.8,52.9 -17.2,2.7 11.3,-60.6 -14.2,-16.7 -51,18.4 24.2,-3.8 0.4,-0.1 -15.4,82.7 c -3.9,21 -26.3,41.1 -46.2,44.3 l -20.3,3.2 3.1,-16.6 15.5,-2.4 c 13.6,-2.2 28.9,-15.8 31.6,-30 l 1.7,-9 -40.3,6.4 c -8.6,1.4 -13.3,-3.9 -11.6,-13 l 7.2,-38.9 c 1.3,-6.9 5.6,-12.6 11.4,-15.6 l 0.1,-1 20.2,-15.6 -11.8,2 c -6.3,1 -17.9,5.7 -25.4,15.2 -5.6,-6.7 -15.4,-9.3 -20.9,-8.4 l -43.4,6.9 7.1,-38.1 31.7,-5 c 16.9,-2.7 35.5,-21.7 38.9,-39.5 l 4.8,-25.6 C 272.4,29 259.9,14.9 243,17.6 l -69.3,11 -14.8,79.4 -63.8,10.1 C 89.7,119 84.4,124.3 83.4,130 L 59.2,258 c -1.1,5.7 2.5,9.6 7.9,8.8 l 121.7,-19.3 9.8,-52.9 5,-0.8 c 5.5,-0.9 4.6,-1.8 3.6,3.8 l -9,48.4 z m -90.3,-29 -40.7,6.5 1.5,-8.3 32.9,-5.2 8,-43 -32.9,5.2 1.5,-8.3 40.7,-6.5 z m -2.5,13.3 -3.4,18.2 -72,11.4 22.4,-120.8 59.5,-9.4 -3.1,16.5 -42.3,6.7 -6.5,34.7 34.4,-5.5 -3.1,16.5 -34.4,5.5 -6.5,34.8 z m 82.7,4.5 -17.2,2.7 8.4,-45.1 c 1.1,-5.7 -0.7,-7.5 -6.1,-6.6 l -30,4.8 -9.8,52.9 -17.2,2.7 12.9,-69.5 0.4,-0.1 57.1,-9.1 c 8.6,-1.4 13.3,3.9 11.6,13 z m 112,-85.2 16.8,-2.7 -12.9,69.5 -17.2,2.7 12.9,-69.5 z m 104.4,32.7 6,-32.1 c 1.9,-10.2 12.8,-20.2 22.1,-21.6 l 40.3,-6.4 c 6.8,-1.1 11.5,6.5 10.1,13.9 l -2,10.3 c -1.4,7.4 -9,15.3 -15.7,16.4 l -41.8,6.6 -0.6,3.8 c -0.8,4.3 2,7.6 5.9,7 l 46.7,-7.4 -3.1,17 -52.7,8.4 c -9.3,1.3 -17.1,-5.7 -15.2,-15.9 z m -249.1,-90 5.8,-31.4 21.9,-3.5 c 2.9,-0.5 4.3,1.2 3.8,4.2 l -4,21.5 c -0.6,3 -2.7,5.2 -5.6,5.7 z"
   style="fill:#e9e1d0;fill-opacity:1" />
	<path
   id="path25"
   class="st0"
   d="m 339.3,100 -4.6,-18.4 -2.6,0.3 -0.8,4.5 c -0.6,3.2 -3.1,5.7 -6.1,6.2 l -18,2.9 c -3,0.5 -4.7,-1.4 -4.1,-4.6 l 9.1,-48.8 c 0.6,-3.1 3.1,-5.7 6.1,-6.2 l 18,-2.9 c 3,-0.5 4.7,1.4 4.1,4.6 l -1.2,6.2 36.4,-5.8 1.4,-7.4 c 3.5,-18.8 -9.3,-33 -27,-30.2 L 315,5.9 C 297.2,8.7 278.2,28 274.7,46.8 L 265,98.9 c -3.5,18.8 9.3,33 27.1,30.2 l 11.6,-1.8 z"
   style="fill:#e9e1d0;fill-opacity:1" />
	<path
   id="path27"
   class="st0"
   d="m 365.1,88.9 c 1,-2.6 1.6,-3.5 2.1,-6.2 l 1.2,-6.6 -14.5,2.3 z"
   style="fill:#e9e1d0;fill-opacity:1" />
</g>
</svg>
