<?xml version="1.0" encoding="UTF-8" standalone="no"?>
<!-- Generator: Adobe Illustrator 26.0.3, SVG Export Plug-In . SVG Version: 6.00 Build 0)  -->

<svg
   version="1.1"
   id="Layer_1"
   x="0px"
   y="0px"
   viewBox="0 0 263.95599 101.98766"
   xml:space="preserve"
   sodipodi:docname="pcfx.svg"
   width="263.95599"
   height="101.98766"
   inkscape:version="1.1.2 (b8e25be833, 2022-02-05)"
   xmlns:inkscape="http://www.inkscape.org/namespaces/inkscape"
   xmlns:sodipodi="http://sodipodi.sourceforge.net/DTD/sodipodi-0.dtd"
   xmlns="http://www.w3.org/2000/svg"
   xmlns:svg="http://www.w3.org/2000/svg"><defs
   id="defs89" /><sodipodi:namedview
   id="namedview87"
   pagecolor="#ffffff"
   bordercolor="#666666"
   borderopacity="1.0"
   inkscape:pageshadow="2"
   inkscape:pageopacity="0.0"
   inkscape:pagecheckerboard="0"
   showgrid="false"
   inkscape:zoom="0.55104167"
   inkscape:cx="959.09263"
   inkscape:cy="540.79395"
   inkscape:window-width="2560"
   inkscape:window-height="1387"
   inkscape:window-x="-8"
   inkscape:window-y="-8"
   inkscape:window-maximized="1"
   inkscape:current-layer="Layer_1" />
<style
   type="text/css"
   id="style2">
	.st0{fill:#E9E1D0;}
</style>
<g
   transform="scale(0.44,0.439602)"
   id="g84"
   style="fill:#e9e1d0;fill-opacity:1">
	<path
   class="st0"
   d="m 42.5,140.6 c 10.8,0 21.5,-0.7 31.6,-4.5 27,-9.3 44.9,-37.9 44,-66.1 C 117.3,56.2 112.6,42.5 104.3,31.4 91.9,13.9 70.2,3.9 48.8,4.4 H 0.7 V 45 L 0.6,45.6 H 0.7 V 194 H 20.3 V 140.6 M 20.1,21.9 c 11,0 22,-0.3 33,0.3 16.4,1.1 32.3,10.2 40.3,24.7 10,17.2 8.9,40.4 -3.5,56.1 -8.6,11.6 -22.7,19.1 -37.2,19.3 -10.8,0.1 -21.4,0.1 -32.4,0.1 z"
   id="path4"
   style="fill:#e9e1d0;fill-opacity:1" />
	<path
   class="st0"
   d="M 46.6,140.6"
   id="path6"
   style="fill:#e9e1d0;fill-opacity:1" />
	<path
   class="st0"
   d="M 330.8,113.5 V 76.6 H 302 c 2,7 3,14.3 3,21.9 0,5.1 -0.5,10.1 -1.4,15 z"
   id="path8"
   style="fill:#e9e1d0;fill-opacity:1" />
	<path
   class="st0"
   d="m 296.6,134.4 c -13.2,26.5 -40.6,44.8 -72.3,44.8 -44.6,0 -80.7,-36.1 -80.7,-80.7 0,-44.6 36.1,-80.7 80.7,-80.7 28.8,0 54.1,15.1 68.4,37.9 H 313 C 297.1,22.7 263.4,0 224.3,0 c -54.4,0 -98.5,44.1 -98.5,98.5 0,54.4 44.1,98.5 98.5,98.5 41.7,0 77.3,-25.9 91.7,-62.6 z"
   id="path10"
   style="fill:#e9e1d0;fill-opacity:1" />
	<polygon
   class="st0"
   points="382.2,4.4 365.6,4.4 346.2,4.4 346.2,194.1 382.2,194.1 382.2,113.5 438.4,113.5 438.4,76.6 382.2,76.6 382.2,42 441.1,42 441.1,4.4 "
   id="polygon12"
   style="fill:#e9e1d0;fill-opacity:1" />
	<polygon
   class="st0"
   points="587.9,4.4 544.5,4.4 514.1,57.6 483.7,4.4 440.3,4.4 492.4,95.5 436.1,194.1 479.4,194.1 514.1,133.5 548.8,194.1 592.1,194.1 535.8,95.5 "
   id="polygon14"
   style="fill:#e9e1d0;fill-opacity:1" />
	<path
   class="st0"
   d="M 20.6,231.6 V 212 l -8.3,19.6 H 10.4 L 2.2,212 v 19.6 H 0 v -22 h 3.4 l 8,18.7 8,-18.7 h 3.4 v 22 z"
   id="path16"
   style="fill:#e9e1d0;fill-opacity:1" />
	<path
   class="st0"
   d="m 34.7,232 c -4.4,0 -7.5,-2.7 -7.5,-8.7 v -13.7 h 2.2 v 13.7 c 0,4.5 1.9,6.6 5.3,6.6 3.4,0 5.3,-2.1 5.3,-6.6 v -13.7 h 2.2 v 13.7 c 0,6 -3.1,8.7 -7.5,8.7 z"
   id="path18"
   style="fill:#e9e1d0;fill-opacity:1" />
	<path
   class="st0"
   d="m 46.5,231.6 v -22 h 2.2 v 20 h 9.1 v 2 z"
   id="path20"
   style="fill:#e9e1d0;fill-opacity:1" />
	<path
   class="st0"
   d="m 63.9,211.6 v 20 h -2.2 v -20 h -5 v -2 H 69 v 2 z"
   id="path22"
   style="fill:#e9e1d0;fill-opacity:1" />
	<path
   class="st0"
   d="m 71.2,231.6 v -22 h 2.2 v 22 z"
   id="path24"
   style="fill:#e9e1d0;fill-opacity:1" />
	<path
   class="st0"
   d="M 98.4,231.6 V 212 l -8.3,19.6 H 88.2 L 80,212 v 19.6 h -2.2 v -22 h 3.4 l 8,18.7 8,-18.7 h 3.4 v 22 z"
   id="path26"
   style="fill:#e9e1d0;fill-opacity:1" />
	<path
   class="st0"
   d="m 105,231.6 v -22 h 12 v 2 h -9.8 v 7.9 h 9.5 v 2 h -9.5 v 8.1 h 9.8 v 2 z"
   id="path28"
   style="fill:#e9e1d0;fill-opacity:1" />
	<path
   class="st0"
   d="m 126.7,231.6 h -5.9 v -22 h 5.2 c 4,0 6.3,0.5 8.4,1.7 3.3,1.9 5,5.2 5,9.4 -0.1,6.4 -4.1,10.9 -12.7,10.9 z m 6.4,-18.5 c -1.7,-1 -3.8,-1.4 -7.1,-1.4 h -3 v 18 h 3.1 c 3.9,0 6.2,-0.6 7.9,-2 2,-1.6 3.2,-4.2 3.2,-7.1 -0.1,-3.3 -1.5,-6 -4.1,-7.5 z"
   id="path30"
   style="fill:#e9e1d0;fill-opacity:1" />
	<path
   class="st0"
   d="m 142.7,231.6 v -22 h 2.2 v 22 z"
   id="path32"
   style="fill:#e9e1d0;fill-opacity:1" />
	<path
   class="st0"
   d="m 166.3,231.6 -3.2,-7.4 h -10.2 l -3.2,7.4 h -2.3 l 9.4,-22 h 2.5 l 9.5,22 z m -8.3,-19.5 -4.3,10.1 h 8.6 z"
   id="path34"
   style="fill:#e9e1d0;fill-opacity:1" />
	<path
   class="st0"
   d="m 179.2,231.6 v -22 h 12 v 2 h -9.8 v 7.9 h 9.5 v 2 h -9.5 v 8.1 h 9.8 v 2 z"
   id="path36"
   style="fill:#e9e1d0;fill-opacity:1" />
	<path
   class="st0"
   d="m 210.3,231.6 -13.1,-19.4 v 19.4 H 195 v -22 h 3 l 12.3,18.3 v -18.3 h 2.2 v 22 z"
   id="path38"
   style="fill:#e9e1d0;fill-opacity:1" />
	<path
   class="st0"
   d="m 222,211.6 v 20 h -2.2 v -20 h -5 v -2 h 12.3 v 2 z"
   id="path40"
   style="fill:#e9e1d0;fill-opacity:1" />
	<path
   class="st0"
   d="m 229.3,231.6 v -22 h 12 v 2 h -9.8 v 7.9 h 9.5 v 2 h -9.5 v 8.1 h 9.8 v 2 z"
   id="path42"
   style="fill:#e9e1d0;fill-opacity:1" />
	<path
   class="st0"
   d="m 253.6,223.4 6.2,8.2 H 257 l -7.4,-10 c 6.2,0 8.2,-1.1 8.2,-5 0,-3.7 -2.3,-5 -7.4,-5 h -3.1 v 20 h -2.2 v -22 h 5.4 c 6.9,0 9.5,2.5 9.5,7.1 0,3.9 -2.2,6.3 -6.4,6.7 z"
   id="path44"
   style="fill:#e9e1d0;fill-opacity:1" />
	<path
   class="st0"
   d="m 268.2,211.6 v 20 H 266 v -20 h -5 v -2 h 12.3 v 2 z"
   id="path46"
   style="fill:#e9e1d0;fill-opacity:1" />
	<path
   class="st0"
   d="m 291.1,231.6 -3.2,-7.4 h -10.3 l -3.2,7.4 h -2.3 l 9.4,-22 h 2.5 l 9.5,22 z m -8.3,-19.5 -4.3,10.1 h 8.5 z"
   id="path48"
   style="fill:#e9e1d0;fill-opacity:1" />
	<path
   class="st0"
   d="m 295.9,231.6 v -22 h 2.2 v 22 z"
   id="path50"
   style="fill:#e9e1d0;fill-opacity:1" />
	<path
   class="st0"
   d="m 317.7,231.6 -13.1,-19.4 v 19.4 h -2.2 v -22 h 3 l 12.3,18.3 v -18.3 h 2.2 v 22 z"
   id="path52"
   style="fill:#e9e1d0;fill-opacity:1" />
	<path
   class="st0"
   d="M 344.9,231.6 V 212 l -8.3,19.6 h -1.9 L 326.4,212 v 19.6 h -2.2 v -22 h 3.4 l 8,18.7 8,-18.7 h 3.4 v 22 z"
   id="path54"
   style="fill:#e9e1d0;fill-opacity:1" />
	<path
   class="st0"
   d="m 351.5,231.6 v -22 h 12 v 2 h -9.8 v 7.9 h 9.5 v 2 h -9.5 v 8.1 h 9.8 v 2 z"
   id="path56"
   style="fill:#e9e1d0;fill-opacity:1" />
	<path
   class="st0"
   d="m 382.6,231.6 -13.1,-19.4 v 19.4 h -2.2 v -22 h 3 l 12.3,18.3 v -18.3 h 2.2 v 22 z"
   id="path58"
   style="fill:#e9e1d0;fill-opacity:1" />
	<path
   class="st0"
   d="m 394.3,211.6 v 20 h -2.2 v -20 h -5 v -2 h 12.3 v 2 z"
   id="path60"
   style="fill:#e9e1d0;fill-opacity:1" />
	<path
   class="st0"
   d="m 416.1,222.7 h -4.2 v 8.9 h -2.2 v -22 h 6.1 c 6,0 8.5,2.1 8.5,6.7 -0.1,4.2 -2.2,6.4 -8.2,6.4 z M 415,211.6 h -3.1 v 9.1 h 4.1 c 4.4,0 6,-1.2 6,-4.4 0,-4.5 -2.8,-4.7 -7,-4.7 z"
   id="path62"
   style="fill:#e9e1d0;fill-opacity:1" />
	<path
   class="st0"
   d="m 427.1,231.6 v -22 h 2.2 v 20 h 9.1 v 2 z"
   id="path64"
   style="fill:#e9e1d0;fill-opacity:1" />
	<path
   class="st0"
   d="m 458.8,231.6 -3.2,-7.4 h -10.2 l -3.2,7.4 h -2.3 l 9.4,-22 h 2.5 l 9.5,22 z m -8.3,-19.5 -4.3,10.1 h 8.6 z"
   id="path66"
   style="fill:#e9e1d0;fill-opacity:1" />
	<path
   class="st0"
   d="m 469,224.3 v 7.4 h -2.2 v -7.4 l -7.6,-14.7 h 2.4 l 6.3,12.3 6.4,-12.3 h 2.4 z"
   id="path68"
   style="fill:#e9e1d0;fill-opacity:1" />
	<path
   class="st0"
   d="m 478.8,231.6 v -22 h 12 v 2 H 481 v 7.9 h 9.5 v 2 H 481 v 8.1 h 9.8 v 2 z"
   id="path70"
   style="fill:#e9e1d0;fill-opacity:1" />
	<path
   class="st0"
   d="m 503,223.4 6.2,8.2 h -2.7 l -7.4,-10 c 6.2,0 8.3,-1.1 8.3,-5 0,-3.7 -2.3,-5 -7.4,-5 h -3.1 v 20 h -2.2 v -22 h 5.4 c 6.9,0 9.5,2.5 9.5,7.1 -0.1,3.9 -2.3,6.3 -6.6,6.7 z"
   id="path72"
   style="fill:#e9e1d0;fill-opacity:1" />
	<path
   class="st0"
   d="m 527,222.7 h -4.2 v 8.9 h -2.2 v -22 h 6.1 c 6,0 8.5,2.1 8.5,6.7 -0.1,4.2 -2.2,6.4 -8.2,6.4 z m -1.1,-11.1 h -3.1 v 9.1 h 4.1 c 4.4,0 6,-1.2 6,-4.4 0,-4.5 -2.8,-4.7 -7,-4.7 z"
   id="path74"
   style="fill:#e9e1d0;fill-opacity:1" />
	<path
   class="st0"
   d="m 548.6,232 c -6.6,0 -11.6,-4.9 -11.6,-11.3 0,-6.6 4.9,-11.5 11.4,-11.5 4.6,0 8.4,2.3 10.1,6.1 H 556 c -1.9,-3 -4.5,-4.1 -7.6,-4.1 -5.2,0 -9.3,4.1 -9.3,9.4 0,5.2 4.2,9.4 9.3,9.4 3.2,0 5.3,-1.2 7.7,-4.1 h 2.4 c -2,4 -5.4,6.1 -9.9,6.1 z"
   id="path76"
   style="fill:#e9e1d0;fill-opacity:1" />
	<path
   class="st0"
   d="m 572.3,211.6 v 8 h 8.6 v 2 h -8.6 v 10.1 h -2.2 v -22 h 11.2 v 2 z"
   id="path78"
   style="fill:#e9e1d0;fill-opacity:1" />
	<path
   class="st0"
   d="m 597.4,231.6 -6.2,-9.4 -6.3,9.4 h -2.6 l 7.5,-11.3 -7.1,-10.8 h 2.6 l 5.8,8.8 5.8,-8.8 h 2.6 l -7.1,10.8 7.5,11.3 z"
   id="path80"
   style="fill:#e9e1d0;fill-opacity:1" />
	<path
   class="st0"
   d="m 563.7,222.6 c -0.9,0 -1.6,-0.7 -1.6,-1.6 0,-0.9 0.7,-1.6 1.6,-1.6 0.9,0 1.6,0.7 1.6,1.6 0,0.9 -0.8,1.6 -1.6,1.6 z"
   id="path82"
   style="fill:#e9e1d0;fill-opacity:1" />
</g>
</svg>
