<?xml version="1.0" encoding="UTF-8" standalone="no"?>
<!-- Generator: Adobe Illustrator 26.0.3, SVG Export Plug-In . SVG Version: 6.00 Build 0)  -->

<svg
   version="1.1"
   id="Layer_1"
   x="0px"
   y="0px"
   viewBox="0 0 264.00015 45.023407"
   xml:space="preserve"
   sodipodi:docname="satellaview.svg"
   width="264.00015"
   height="45.023407"
   inkscape:version="1.1.2 (b8e25be833, 2022-02-05)"
   xmlns:inkscape="http://www.inkscape.org/namespaces/inkscape"
   xmlns:sodipodi="http://sodipodi.sourceforge.net/DTD/sodipodi-0.dtd"
   xmlns="http://www.w3.org/2000/svg"
   xmlns:svg="http://www.w3.org/2000/svg"><defs
   id="defs79" /><sodipodi:namedview
   id="namedview77"
   pagecolor="#ffffff"
   bordercolor="#666666"
   borderopacity="1.0"
   inkscape:pageshadow="2"
   inkscape:pageopacity="0.0"
   inkscape:pagecheckerboard="0"
   showgrid="false"
   inkscape:zoom="4.0075758"
   inkscape:cx="131.87524"
   inkscape:cy="22.457467"
   inkscape:window-width="2560"
   inkscape:window-height="1387"
   inkscape:window-x="-8"
   inkscape:window-y="-8"
   inkscape:window-maximized="1"
   inkscape:current-layer="Layer_1" />
<style
   type="text/css"
   id="style2">
	.st0{fill:#E9E1D0;}
</style>
<path
   class="st0"
   d="m 38.300141,32.9 h 18 V 36 h -18 z"
   id="path4"
   style="fill:#e9e1d0;fill-opacity:1" />
<path
   class="st0"
   d="m 40.100141,31.5 h 2.9 v 8.4 h -2.8 v -8.4 z"
   id="path6"
   style="fill:#e9e1d0;fill-opacity:1" />
<path
   class="st0"
   d="m 52.000141,37.7 v -6.2 h 2.6 v 6 c 0,3.9 -2.7,7.5 -8.4,7.5 h -6 v -3.5 h 6.6 c 3.4,0 5.2,-1.6 5.2,-3.8 z"
   id="path8"
   style="fill:#e9e1d0;fill-opacity:1" />
<path
   class="st0"
   d="m 68.200141,38.6 v 1.1 c 0,1.2 -0.8,1.8 -1.8,1.8 h -8.1 v 3.4 h 8 c 2.4,0 4.2,-1.6 4.2,-3.8 v -3.3"
   id="path10"
   style="fill:#e9e1d0;fill-opacity:1" />
<path
   class="st0"
   d="m 59.500141,31.5 h 14.7 v 3.3 h -14.7 z"
   id="path12"
   style="fill:#e9e1d0;fill-opacity:1" />
<path
   class="st0"
   d="m 58.400141,36 h 16.8 v 3.1 h -16.8 z"
   id="path14"
   style="fill:#e9e1d0;fill-opacity:1" />
<path
   class="st0"
   d="m 91.700141,38.6 v 1.1 c 0,1.2 -0.8,1.8 -1.8,1.8 h -11.4 v 3.4 h 11.3 c 2.4,0 4.2,-1.6 4.2,-3.8 V 36"
   id="path16"
   style="fill:#e9e1d0;fill-opacity:1" />
<path
   class="st0"
   d="m 77.000141,36 h 17 v 3.1 h -17 z"
   id="path18"
   style="fill:#e9e1d0;fill-opacity:1" />
<path
   class="st0"
   d="m 78.200141,31.5 h 14.9 v 3.3 h -14.9 z"
   id="path20"
   style="fill:#e9e1d0;fill-opacity:1" />
<path
   class="st0"
   d="M 108.00014,35 H 97.200141 v 3.1 h 10.799999 z"
   id="path22"
   style="fill:#e9e1d0;fill-opacity:1" />
<path
   class="st0"
   d="m 98.600141,31.4 v 8.3 c 0,1.2 0.8,1.8 1.799999,1.8 h 12.6 v 3.4 h -12.5 c -2.399999,0 -4.199999,-1.6 -4.199999,-3.8 v -9.7"
   id="path24"
   style="fill:#e9e1d0;fill-opacity:1" />
<path
   class="st0"
   d="M 113.00014,36.1 H 97.200141 v 2.4 h 15.799999 z"
   id="path26"
   style="fill:#e9e1d0;fill-opacity:1" />
<path
   class="st0"
   d="m 108.90014,31.5 h 1.6 v 3.6 h -1.6 z"
   id="path28"
   style="fill:#e9e1d0;fill-opacity:1" />
<path
   class="st0"
   d="m 111.30014,31.5 h 1.6 v 3.6 h -1.6 z"
   id="path30"
   style="fill:#e9e1d0;fill-opacity:1" />
<path
   class="st0"
   d="m 114.80014,41.8 h 14.2 v 3.1 h -14.2 z"
   id="path32"
   style="fill:#e9e1d0;fill-opacity:1" />
<path
   class="st0"
   d="m 116.20014,35.4 h 9.5 v 3.1 h -9.5 z"
   id="path34"
   style="fill:#e9e1d0;fill-opacity:1" />
<path
   class="st0"
   d="m 123.70014,35.4 h 2.1 v 8 h -2.1 z"
   id="path36"
   style="fill:#e9e1d0;fill-opacity:1" />
<path
   class="st0"
   d="m 129.70014,36.3 h 16.5 v 3.4 h -16.5 z"
   id="path38"
   style="fill:#e9e1d0;fill-opacity:1" />
<path
   class="st0"
   d="m 60.400141,11.3 c 2.8,0 5.1,2.3 5.1,5.1 v 5.3 c 0,2.8 -2.3,5.1 -5.1,5.1 h -22.8 v -4.5 h 19.8 c 1.4,0 2.5,-1.1 2.5,-2.5 v -1.4 c 0,-1.4 -1.1,-2.5 -2.5,-2.5 h -6.4 -8.3 c -2.8,0 -5.1,-2.3 -5.1,-5.2 V 5.4 c 0,-2.9 2.3,-5.2 5.1,-5.2 h 20.6 v 4.6 h -17.6 c -1.4,0 -2.5,1.1 -2.5,2.5 v 1.4 c 0,1.4 1.1,2.6 2.5,2.6 h 5.4 z"
   id="path40"
   style="fill:#e9e1d0;fill-opacity:1" />
<path
   class="st0"
   d="m 68.600141,8.2 v 4.5 h 11.9 c 1,0 1.9,0.8 1.9,1.8 l -13.5,3.5 c -0.9,0.3 -1.6,1.1 -1.6,2.1 v 1.5 c 0,2.8 2.3,5.1 5.1,5.1 h 10.8 c 2.8,0 5.1,-2.3 5.1,-5.1 v -8.4 c 0,-2.8 -2.3,-5.1 -5.1,-5.1 z m 13.9,10.6 v 1.8 c 0,1.1 -0.9,1.9 -1.9,1.9 h -5.9 c -0.9,0 -1.6,-0.6 -1.8,-1.3 z"
   id="path42"
   style="fill:#e9e1d0;fill-opacity:1" />
<path
   class="st0"
   d="m 98.000141,12.8 h 3.899999 V 8.1 h -3.899999 v -8 h -5.7 v 8 h -2.3 v 4.7 h 2.3 v 11.7 c 0,1.3 1.1,2.4 2.4,2.4 h 6.899999 v -4.8 h -3.599999 z"
   id="path44"
   style="fill:#e9e1d0;fill-opacity:1" />
<path
   class="st0"
   d="m 124.50014,26.8 v -4.5 h -13.2 c -1,0 -1.9,-0.8 -1.9,-1.8 l 13.5,-3.5 c 1,-0.3 1.6,-1.1 1.6,-2.1 v -1.5 c 0,-2.8 -2.3,-5.1 -5.1,-5.1 h -10.8 c -2.8,0 -5.1,2.3 -5.1,5.1 v 8.4 c 0,2.8 2.3,5.1 5.1,5.1 h 15.9 z m -15.3,-10.5 v -1.8 c 0,-1.1 0.9,-1.9 1.9,-1.9 h 5.9 c 0.9,0 1.6,0.6 1.8,1.3 z"
   id="path46"
   style="fill:#e9e1d0;fill-opacity:1" />
<path
   class="st0"
   d="m 127.40014,0.1 h 5.5 v 26.8 h -5.5 z"
   id="path48"
   style="fill:#e9e1d0;fill-opacity:1" />
<path
   class="st0"
   d="m 135.80014,0.1 h 5.5 v 26.8 h -5.5 z"
   id="path50"
   style="fill:#e9e1d0;fill-opacity:1" />
<path
   class="st0"
   d="m 144.50014,8.2 v 4.5 h 11.9 c 1,0 1.9,0.8 1.9,1.8 l -13.5,3.5 c -0.9,0.3 -1.6,1.1 -1.6,2.1 v 1.5 c 0,2.8 2.3,5.1 5.1,5.1 h 10.8 c 2.8,0 5.1,-2.3 5.1,-5.1 v -8.4 c 0,-2.8 -2.3,-5.1 -5.1,-5.1 z m 13.9,10.6 v 1.8 c 0,1.1 -0.9,1.9 -1.9,1.9 h -5.9 c -0.9,0 -1.6,-0.6 -1.8,-1.3 z"
   id="path52"
   style="fill:#e9e1d0;fill-opacity:1" />
<path
   class="st0"
   d="m 177.00014,27.1 c -2.2,0 -3.5,-0.8 -4.5,-2.4 l -8.3,-16.5 h 6.2 l 7.4,14.3 7.4,-14.3 h 6.2 l -8.4,16.4 c -1,1.7 -2.3,2.4 -4.5,2.4 h -0.8 -0.7 z"
   id="path54"
   style="fill:#e9e1d0;fill-opacity:1" />
<path
   class="st0"
   d="m 192.80014,8.2 h 5.5 v 18.7 h -5.5 z"
   id="path56"
   style="fill:#e9e1d0;fill-opacity:1" />
<path
   class="st0"
   d="m 195.50014,6.2 c 1.7,0 3.1,-1.4 3.1,-3.1 0,-1.7 -1.4,-3.1 -3.1,-3.1 -1.7,0 -3.1,1.4 -3.1,3.1 0.1,1.7 1.5,3.1 3.1,3.1 z"
   id="path58"
   style="fill:#e9e1d0;fill-opacity:1" />
<path
   class="st0"
   d="m 222.00014,26.8 v -4.5 h -13.2 c -1,0 -1.9,-0.8 -1.9,-1.8 l 13.5,-3.5 c 0.9,-0.3 1.6,-1.1 1.6,-2.1 v -1.5 c 0,-2.8 -2.3,-5.1 -5.1,-5.1 h -10.8 c -2.8,0 -5.1,2.3 -5.1,5.1 v 8.4 c 0,2.8 2.3,5.1 5.1,5.1 h 15.9 z m -15.2,-10.5 v -1.8 c 0,-1.1 0.9,-1.9 1.9,-1.9 h 5.9 c 0.9,0 1.6,0.6 1.8,1.3 z"
   id="path60"
   style="fill:#e9e1d0;fill-opacity:1" />
<path
   class="st0"
   d="m 234.30014,27.1 c -2.2,0 -3.5,-0.8 -4.5,-2.4 l -8.3,-16.5 h 6.2 l 7.4,14.3 5.1,-14.3 h 5.1 l -5.2,16.2 c -0.7,1.6 -2.1,2.7 -4.3,2.7 h -0.8 z"
   id="path62"
   style="fill:#e9e1d0;fill-opacity:1" />
<path
   class="st0"
   d="m 251.20014,27.1 c 2.2,0 3.5,-0.8 4.5,-2.4 l 8.3,-16.5 h -6.2 l -7.4,14.3 -5.1,-14.3 h -5.1 l 5.2,16.2 c 0.7,1.6 2.1,2.7 4.3,2.7 h 0.8 z"
   id="path64"
   style="fill:#e9e1d0;fill-opacity:1" />
<path
   class="st0"
   d="M 0.8001412,45 H 16.700141 c -4.6,-1.7 -11.5999998,-8.5 -14.1999998,-12.6 2.8,7.5 3.3,10.8 -1.7,12.6 z"
   id="path66"
   style="fill:#e9e1d0;fill-opacity:1" />
<path
   class="st0"
   d="m 26.400141,0 h 6.1 v 13 c -1.8,-5.3 -3.8,-9.9 -6.1,-13 z"
   id="path68"
   style="fill:#e9e1d0;fill-opacity:1" />
<path
   class="st0"
   d="m 20.500141,0 h 3.5 c 3.3,5.4 6.3,10.5 8.5,16.7 v 3.8 c -3.6,-8 -7.3,-15.8 -12,-20.5 z"
   id="path70"
   style="fill:#e9e1d0;fill-opacity:1" />
<path
   class="st0"
   d="m 32.500141,27.2 v -3.4 c -4.8,-11.6 -11.6,-19.6 -17.3,-23.8 H 8.0001412 C 20.900141,5.1 28.400141,15.6 32.500141,27.2 Z"
   id="path72"
   style="fill:#e9e1d0;fill-opacity:1" />
<path
   class="st0"
   d="m 30.300141,41.1 c -3.9,6.4 -14.1,5.2 -22.8999998,-5.3 -7.1,-8.4 -9.5,-19.8 -5.4,-26.3 3.9,-6.1 15.3999998,-3.5 21.7999998,4.2 6.3,7.6 11.5,19 6.5,27.4 z m -7.1,-12.1 c -2.9,0 -5.2,1.8 -5.2,4.1 0,2.3 2.3,4.1 5.2,4.1 2.9,0 5.2,-1.8 5.2,-4.1 0,-2.2 -2.3,-4.1 -5.2,-4.1 z m -1.8,-11.4 c -1,0 -1.8,0.3 -2.4,1 -1.2,1.3 -1.1,3.9 0.2,6.2 0.3,0 0.5,-0.1 0.8,-0.1 2.6,0 4.8,1.8 5.2,4.2 1.1,0.1 2,-0.2 2.7,-0.9 1.5,-1.6 1,-5.3 -1.5,-7.9 -1.5,-1.6 -3.4,-2.5 -5,-2.5 z M 9.9001412,14.9 c -1,0 -2,0.4 -2.7,1.1 -1.3,1.5 -1,4 0.4,6.2 0.5,-0.1 1,-0.2 1.5,-0.2 2.9999998,0 5.3999998,1.9 5.4999998,4.2 0.7,-0.1 1.4,-0.5 1.8,-1.1 1.6,-1.9 0.6,-5.6 -1.9,-8.1 -1.3,-1.2 -3,-2.1 -4.5999998,-2.1 z m 2.1999998,11.8 c -2.8999998,0 -5.1999998,1.8 -5.1999998,4.1 0,2.3 2.3,4.1 5.1999998,4.1 2.9,0 5.2,-1.8 5.2,-4.1 -0.1,-2.3 -2.4,-4.1 -5.2,-4.1 z"
   id="path74"
   style="fill:#e9e1d0;fill-opacity:1" />
</svg>
