<?xml version="1.0" encoding="UTF-8" standalone="no"?>
<!-- Generator: Adobe Illustrator 26.0.3, SVG Export Plug-In . SVG Version: 6.00 Build 0)  -->

<svg
   version="1.1"
   id="Layer_1"
   x="0px"
   y="0px"
   viewBox="0 0 264 129.99115"
   xml:space="preserve"
   sodipodi:docname="supergrafx.svg"
   width="264"
   height="129.99115"
   inkscape:version="1.1.2 (b8e25be833, 2022-02-05)"
   xmlns:inkscape="http://www.inkscape.org/namespaces/inkscape"
   xmlns:sodipodi="http://sodipodi.sourceforge.net/DTD/sodipodi-0.dtd"
   xmlns="http://www.w3.org/2000/svg"
   xmlns:svg="http://www.w3.org/2000/svg"><defs
   id="defs39" /><sodipodi:namedview
   id="namedview37"
   pagecolor="#ffffff"
   bordercolor="#666666"
   borderopacity="1.0"
   inkscape:pageshadow="2"
   inkscape:pageopacity="0.0"
   inkscape:pagecheckerboard="0"
   showgrid="false"
   inkscape:zoom="0.55104167"
   inkscape:cx="959.09263"
   inkscape:cy="540.79395"
   inkscape:window-width="2560"
   inkscape:window-height="1387"
   inkscape:window-x="-8"
   inkscape:window-y="-8"
   inkscape:window-maximized="1"
   inkscape:current-layer="Layer_1" />
<style
   type="text/css"
   id="style2">
	.st0{fill:#E9E1D0;}
</style>
<g
   transform="scale(0.44,0.4429)"
   id="g34"
   style="fill:#e9e1d0;fill-opacity:1">
	<polygon
   class="st0"
   points="0,29.6 0,92.6 29.6,122.2 55.6,122.2 55.6,81.5 44.4,81.5 44.4,37 74.1,37 74.1,66.7 114.8,66.7 114.8,29.6 85.2,0 25.9,0 "
   id="polygon4"
   style="fill:#e9e1d0;fill-opacity:1" />
	<polygon
   class="st0"
   points="118.5,177.8 118.5,111.1 88.9,81.5 63,81.5 63,122.2 74.1,122.2 74.1,166.7 44.4,166.7 44.4,137 0,137 0,177.8 29.6,207.4 92.6,207.4 "
   id="polygon6"
   style="fill:#e9e1d0;fill-opacity:1" />
	<polygon
   class="st0"
   points="181.5,207.4 181.5,170.4 170.4,170.4 170.4,0 125.9,0 125.9,177.8 157.4,207.4 "
   id="polygon8"
   style="fill:#e9e1d0;fill-opacity:1" />
	<polygon
   class="st0"
   points="188.9,207.4 188.9,170.4 200,170.4 200,0 244.4,0 244.4,177.8 213,207.4 "
   id="polygon10"
   style="fill:#e9e1d0;fill-opacity:1" />
	<polygon
   class="st0"
   points="322.2,37 322.2,100 307.4,100 307.4,140.7 337,140.7 366.7,111.1 366.7,31.5 335.2,0 307.4,0 307.4,37 "
   id="polygon12"
   style="fill:#e9e1d0;fill-opacity:1" />
	<rect
   x="255.60001"
   y="0"
   class="st0"
   width="44.400002"
   height="207.39999"
   id="rect14"
   style="fill:#e9e1d0;fill-opacity:1" />
	<polygon
   class="st0"
   points="470.4,0 381.5,0 381.5,207.4 470.4,207.4 470.4,170.4 422.2,170.4 422.2,40.7 470.4,40.7 "
   id="polygon16"
   style="fill:#e9e1d0;fill-opacity:1" />
	<rect
   x="429.60001"
   y="81.5"
   class="st0"
   width="29.6"
   height="37"
   id="rect18"
   style="fill:#e9e1d0;fill-opacity:1" />
	<polygon
   class="st0"
   points="600,29.6 600,85.2 579.6,105.6 600,125.9 600,207.4 559.3,207.4 559.3,125.9 537,125.9 537,85.2 555.6,85.2 555.6,37 537,37 537,0 570.4,0 "
   id="polygon20"
   style="fill:#e9e1d0;fill-opacity:1" />
	<rect
   x="485.20001"
   y="0"
   class="st0"
   width="44.400002"
   height="207.39999"
   id="rect22"
   style="fill:#e9e1d0;fill-opacity:1" />
	<polygon
   class="st0"
   points="79.6,281.5 91.7,293.5 159.3,293.5 159.3,255.6 122.2,255.6 122.2,266.7 148.1,266.7 148.1,281.5 96.3,281.5 96.3,240.7 159.3,240.7 159.3,229.6 88.9,229.6 79.6,238.9 "
   id="polygon24"
   style="fill:#e9e1d0;fill-opacity:1" />
	<polygon
   class="st0"
   points="314.8,229.6 348.1,292.6 329.6,292.6 303.7,244.4 296.3,244.4 274.1,292.6 255.6,292.6 285.2,229.6 "
   id="polygon26"
   style="fill:#e9e1d0;fill-opacity:1" />
	<path
   class="st0"
   d="M 248.1,257.4 V 240.7 L 237,229.6 h -63 v 63 h 14.8 v -25.9 h 25.9 l 18.5,25.9 H 248 l -18.5,-25.9 h 7.4 z m -14.8,-1.8 h -44.4 v -14.8 h 44.4 z"
   id="path28"
   style="fill:#e9e1d0;fill-opacity:1" />
	<polygon
   class="st0"
   points="366.7,292.6 366.7,266.7 414.8,266.7 414.8,255.6 366.7,255.6 366.7,240.7 422.2,240.7 422.2,229.6 351.8,229.6 351.8,292.6 "
   id="polygon30"
   style="fill:#e9e1d0;fill-opacity:1" />
	<polygon
   class="st0"
   points="425.9,292.6 448.1,292.6 470.4,270.4 492.6,292.6 514.8,292.6 481.5,259.3 514.8,229.6 492.6,229.6 470.4,251.9 448.1,229.6 429.6,229.6 459.3,259.3 "
   id="polygon32"
   style="fill:#e9e1d0;fill-opacity:1" />
</g>
</svg>
