<?xml version="1.0" encoding="UTF-8" standalone="no"?>
<!-- Generator: Adobe Illustrator 26.0.3, SVG Export Plug-In . SVG Version: 6.00 Build 0)  -->

<svg
   version="1.1"
   id="Layer_1"
   x="0px"
   y="0px"
   viewBox="0 0 264.10001 34.912006"
   xml:space="preserve"
   sodipodi:docname="supervision.svg"
   width="264.10001"
   height="34.912006"
   inkscape:version="1.1.2 (b8e25be833, 2022-02-05)"
   xmlns:inkscape="http://www.inkscape.org/namespaces/inkscape"
   xmlns:sodipodi="http://sodipodi.sourceforge.net/DTD/sodipodi-0.dtd"
   xmlns="http://www.w3.org/2000/svg"
   xmlns:svg="http://www.w3.org/2000/svg"><defs
   id="defs31" /><sodipodi:namedview
   id="namedview29"
   pagecolor="#ffffff"
   bordercolor="#666666"
   borderopacity="1.0"
   inkscape:pageshadow="2"
   inkscape:pageopacity="0.0"
   inkscape:pagecheckerboard="0"
   showgrid="false"
   inkscape:zoom="0.55104167"
   inkscape:cx="959.09263"
   inkscape:cy="540.79395"
   inkscape:window-width="2560"
   inkscape:window-height="1387"
   inkscape:window-x="-8"
   inkscape:window-y="-8"
   inkscape:window-maximized="1"
   inkscape:current-layer="Layer_1" />
<style
   type="text/css"
   id="style2">
	.st0{fill:#E9E1D0;}
</style>
<path
   class="st0"
   d="m 264,34.505764 c -1.9,0 -3.7,0 -5.7,0 -5.3,-7.2 -10.6,-14.5 -16.1,-21.9 0,7.4 0,14.6 0,21.9 -2.2,0 -4.2,0 -6.4,0 0,-11.3 0,-22.6 0,-34.00000045 1.8,0 3.5,0 5.5,0 5.4,7.30000005 10.8,14.70000045 16.2,22.00000045 0.1,0 0.1,-0.1 0.2,-0.1 0,-7.3 0,-14.6000004 0,-22.00000045 2.2,0 4.2,0 6.4,0 C 264,11.905764 264,23.205764 264,34.505764 Z"
   id="path4"
   style="fill:#e9e1d0;fill-opacity:1" />
<path
   class="st0"
   d="m 101.2,0.60576355 c 0.2,0 0.3,-0.1 0.4,-0.1 4,0 7.9,-0.1 11.9,0.1 4.8,0.2 8.8,4.10000005 9.4,8.90000005 0.5,4.9000004 -2.6,9.5000004 -7.2,10.9000004 -0.2,0.1 -0.4,0.1 -0.6,0.2 3.2,4.7 6.5,9.3 9.8,14 -2.6,0 -5.2,0 -7.8,0 -3.1,-4.4 -6.3,-8.9 -9.6,-13.6 0,4.7 0,9.1 0,13.6 -2.2,0 -4.3,0 -6.4,0 0.1,-11.4 0.1,-22.7 0.1,-34.00000045 z m 6.4,6.20000005 c 0,2.6 0,5.1000004 0,7.7000004 1.7,0 3.3,0.1 4.9,0 2,-0.2 3.4,-1.9 3.4,-3.8 0,-2.0000004 -1.4,-3.7000004 -3.4,-3.8000004 -1.6,-0.2 -3.2,-0.1 -4.9,-0.1 z"
   id="path6"
   style="fill:#e9e1d0;fill-opacity:1" />
<path
   class="st0"
   d="m 23.5,0.50576355 c 2.2,0 4.2,0 6.4,0 0,0.4 0,0.70000005 0,1.00000005 0,6.6 0.1,13.2000004 0,19.8000004 -0.1,3.7 2.8,6.7 6.1,7.1 4,0.5 7.8,-2.7 7.8,-6.7 0,-6.8 0,-13.5000004 0,-20.3000004 0,-0.3 0,-0.60000005 0,-1.00000005 2.2,0 4.3,0 6.4,0 0,0.3 0,0.5 0,0.70000005 0,6.8 -0.1,13.5000004 0,20.3000004 0.1,6.8 -5.4,12.1 -10.5,13.1 -9,1.9 -16.2,-5.3 -16.2,-12.5 0,-7.1 0,-14.2000004 0,-21.30000045 0,0.2 0,0 0,-0.2 z"
   id="path8"
   style="fill:#e9e1d0;fill-opacity:1" />
<path
   class="st0"
   d="m 86.1,14.305764 c 4,0 7.9,0 11.8,0 0,2.1 0,4.2 0,6.4 -3.9,0 -7.8,0 -11.8,0 0,2.5 0,5 0,7.6 3.9,0 7.8,0 11.8,0 0,2.2 0,4.2 0,6.3 -6,0 -12.1,0 -18.2,0 0,-11.3 0,-22.6 0,-33.90000045 6,0 12.1,0 18.2,0 0,2.10000005 0,4.10000005 0,6.30000005 -3.9,0 -7.8,0 -11.8,0 0,2.4 0,4.8000004 0,7.3000004 z"
   id="path10"
   style="fill:#e9e1d0;fill-opacity:1" />
<path
   class="st0"
   d="m 138.5,22.405764 c 2.6,-7.3 5.2,-14.6000004 7.8,-21.90000045 2.4,0 4.7,0 7.2,0 -4,11.40000045 -7.9,22.70000045 -11.8,34.10000045 -2.2,0 -4.2,0 -6.4,0 -3.9,-11.3 -7.9,-22.6 -11.9,-34.00000045 2.4,0 4.8,0 7.2,0 2.6,7.30000005 5.2,14.60000045 7.8,21.90000045 -0.1,-0.1 0,-0.1 0.1,-0.1 z"
   id="path12"
   style="fill:#e9e1d0;fill-opacity:1" />
<path
   class="st0"
   d="m 60.3,20.805764 c 0,4.6 0,9.2 0,13.8 -2.2,0 -4.2,0 -6.4,0 0,-11.3 0,-22.7 0,-33.90000045 0.1,-0.1 0.2,-0.1 0.2,-0.1 4.1,0 8.2,-0.1 12.2,0.1 5.3,0.2 9.3,4.70000005 9.3,10.00000045 0,5.1 -3.7,9.4 -8.7,10.1 -1.6,0.2 -3.3,0.1 -4.9,0.1 -0.5,-0.1 -1,-0.1 -1.7,-0.1 z M 60.5,6.8057636 c 0,2.6 0,5.1000004 0,7.7000004 1.7,0 3.3,0.1 4.9,0 2,-0.2 3.4,-1.9 3.4,-3.8 0,-2.0000004 -1.4,-3.7000004 -3.4,-3.8000004 -1.6,-0.2 -3.2,-0.1 -4.9,-0.1 z"
   id="path14"
   style="fill:#e9e1d0;fill-opacity:1" />
<path
   class="st0"
   d="m 184.2,3.8057636 c -1.5,1.7 -2.5,3.1 -4,4.6 -0.2,-0.3 -0.8,-0.8 -1,-1 -1.2,-1.5 -2.8,-1.9 -4.6,-1.6 -1.8,0.3 -2.9,1.4 -3.4,3.1 -0.4,1.3000004 -0.1,2.5000004 1,3.3000004 0.8,0.7 1.8,1.2 2.8,1.7 1.3,0.7 2.7,1.2 4,1.9 3.9,2.1 5.4,5.8 4.9,9.8 -0.6,5.2 -5.1,9.1 -10.4,9.2 -3.3,0.1 -6.1,-0.9 -8.4,-3.3 -0.1,-0.1 -0.1,-0.2 -0.2,-0.2 0,-0.1 -0.8,-0.5 -0.8,-0.7 1.3,-1.4 2.4,-3.2 3.7,-4.7 0.5,0.5 1.9,1.9 2.5,2.3 2,1.4 4.9,1.1 6.4,-0.8 1.5,-1.9 1.3,-4.6 -0.8,-6.2 -1,-0.8 -2.3,-1.4 -3.5,-2 -1.6,-0.9 -3.3,-1.6 -4.7,-2.8 -3.4,-2.8 -3.8,-7.9000004 -1.3,-11.7000004 4,-5.8 13.1,-6.3 17.8,-0.9 z"
   id="path16"
   style="fill:#e9e1d0;fill-opacity:1" />
<path
   class="st0"
   d="m 20.1,3.7057636 c -1.4,1.5 -2.2,2.9 -3.7,4.8 -0.2,-0.4 -0.8,-1 -1,-1.3 -1.1,-1.3 -3.2,-1.9 -5.1,-1.3 -1.7,0.5 -2.8,1.7 -3,3.5 -0.1,1.0000004 0.1,2.0000004 1,2.7000004 0.9,0.7 1.9,1.3 2.9,1.8 1.3,0.7 2.7,1.2 4,1.9 3.7,2 5.1,5.2 4.9,9.2 -0.1,5.2 -5,9.8 -10.5,9.9 -3.3,0.1 -6.1,-1 -8.5,-3.4 -0.1,-0.1 -1,-0.8 -1.1,-0.9 1.6,-1.9 2.2,-2.8 3.7,-4.7 0.5,0.5 2,2 2.5,2.3 1.9,1.4 4.8,1.1 6.3,-0.7 1.6,-1.7 1.4,-4.3 -0.4,-6.1 -0.8,-0.8 -1.9,-1.4 -2.8,-1.9 -1.2,-0.7 -2.5,-1.1 -3.7,-1.8 -5.8,-3 -5.8,-9.8000004 -2.9,-13.6000004 4.3,-5.2 12.8,-5.6 17.4,-0.4 z"
   id="path18"
   style="fill:#e9e1d0;fill-opacity:1" />
<path
   class="st0"
   d="m 161.5,34.505764 c -2.1,0 -4.2,0 -6.3,0 0,-11.3 0,-22.6 0,-34.00000045 2.1,0 4.2,0 6.3,0 0,11.40000045 0,22.70000045 0,34.00000045 z"
   id="path20"
   style="fill:#e9e1d0;fill-opacity:1" />
<path
   class="st0"
   d="m 188,0.60576355 c 2.1,0 4.2,0 6.3,0 0,11.30000045 0,22.70000045 0,34.00000045 -2.1,0 -4.2,0 -6.3,0 0,-11.4 0,-22.7 0,-34.00000045 z"
   id="path22"
   style="fill:#e9e1d0;fill-opacity:1" />
<polygon
   class="st0"
   points="227.7,34.5 214.4,12.7 201.1,34.5 "
   id="polygon24"
   transform="translate(0.1,0.00576355)"
   style="fill:#e9e1d0;fill-opacity:1" />
<path
   class="st0"
   d="m 196.9,18.605764 c 0,0.1 0,0.1 0,0.2 0.1,0.8 0.2,1.6 0.4,2.4 0,0.1 0.1,0.2 0.1,0.3 0.1,0.4 0.2,0.7 0.3,1 0.1,0.1 0.1,0.3 0.2,0.4 0.1,0.2 0.1,0.4 0.2,0.6 0.1,0.2 0.2,0.4 0.2,0.5 0.1,0.1 0.1,0.2 0.1,0.3 0.2,0.4 0.4,0.8 0.6,1.1 0.1,0.1 0.1,0.2 0.1,0.2 0.3,0.5 0.6,1.1 1,1.6 v 0 c 0.3,0.4 0.6,0.8 0.9,1.1 l 3.5,-5.8 c -0.9,-1.6 -1.4,-3.4 -1.4,-5.3 0,-0.5 0.1,-1 0.1,-1.4 0,-0.2 0.1,-0.3 0.1,-0.5 0.1,-0.2 0.1,-0.3 0.1,-0.5 0.1,-0.2 0.1,-0.4 0.1,-0.5 0.1,-0.1 0.1,-0.3 0.1,-0.4 1.5,-4.4000004 5.8,-7.7000004 10.7,-7.7000004 6.1,0 11.2,5.2000004 11.2,11.3000004 0,0.5 -0.1,1 -0.1,1.4 0,0.2 -0.1,0.3 -0.1,0.5 -0.1,0.2 -0.1,0.3 -0.1,0.5 -0.1,0.2 -0.1,0.4 -0.1,0.5 -0.1,0.1 -0.1,0.3 -0.1,0.4 -0.2,0.6 -0.5,1.1 -0.8,1.7 l 3.5,5.8 c 0.3,-0.4 0.6,-0.8 0.9,-1.1 v 0 c 1.3,-1.9 2.3,-4 2.8,-6.2 0.1,-0.2 0.1,-0.4 0.1,-0.5 0,-0.1 0.1,-0.3 0.1,-0.4 0.1,-0.4 0.1,-0.7 0.1,-1.1 0,-0.1 0,-0.2 0,-0.2 0.1,-0.4 0.1,-0.8 0.1,-1.1 v 0 0 c 0,-0.4 0,-0.8 -0.1,-1.2 0,-0.1 0,-0.1 0,-0.2 -0.1,-0.8 -0.2,-1.6 -0.4,-2.4 0,-0.1 -0.1,-0.2 -0.1,-0.3 -0.1,-0.4 -0.2,-0.7 -0.3,-1 -0.1,-0.1 -0.1,-0.3 -0.2,-0.4 -0.1,-0.2 -0.1,-0.4 -0.2,-0.6 -0.1,-0.2 -0.2,-0.4 -0.2,-0.5 -0.1,-0.1 -0.1,-0.2 -0.1,-0.3 -0.2,-0.4 -0.4,-0.8 -0.6,-1.1000004 -0.1,-0.1 -0.1,-0.2 -0.1,-0.2 -0.3,-0.5 -0.6,-1.1 -1,-1.6 v 0 c -3.3,-4.6 -8.7,-7.80000005 -14.3,-7.70000005 -5.7,-0.2 -10.9,3.10000005 -14.1,7.60000005 v 0 c -1.3,1.9 -2.3,4.0000004 -2.8,6.2000004 -0.1,0.2 -0.1,0.4 -0.1,0.5 0,0.1 -0.1,0.3 -0.1,0.4 -0.1,0.4 -0.1,0.7 -0.1,1.1 0,0.1 0,0.2 0,0.2 -0.1,0.4 -0.1,0.8 -0.1,1.1 v 0 0 c 0,0.5 0,0.9 0,1.3 z"
   id="path26"
   style="fill:#e9e1d0;fill-opacity:1" />
</svg>
