<?xml version="1.0" encoding="UTF-8" standalone="no"?>
<!-- Generator: Adobe Illustrator 26.0.3, SVG Export Plug-In . SVG Version: 6.00 Build 0)  -->

<svg
   version="1.1"
   id="Ebene_1"
   x="0px"
   y="0px"
   viewBox="0 0 264 57.049088"
   xml:space="preserve"
   sodipodi:docname="tg16.svg"
   width="264"
   height="57.049088"
   inkscape:version="1.1.2 (b8e25be833, 2022-02-05)"
   xmlns:inkscape="http://www.inkscape.org/namespaces/inkscape"
   xmlns:sodipodi="http://sodipodi.sourceforge.net/DTD/sodipodi-0.dtd"
   xmlns="http://www.w3.org/2000/svg"
   xmlns:svg="http://www.w3.org/2000/svg"><defs
   id="defs21" /><sodipodi:namedview
   id="namedview19"
   pagecolor="#ffffff"
   bordercolor="#666666"
   borderopacity="1.0"
   inkscape:pageshadow="2"
   inkscape:pageopacity="0.0"
   inkscape:pagecheckerboard="0"
   showgrid="false"
   inkscape:zoom="0.55104167"
   inkscape:cx="959.09263"
   inkscape:cy="540.79395"
   inkscape:window-width="2560"
   inkscape:window-height="1387"
   inkscape:window-x="-8"
   inkscape:window-y="-8"
   inkscape:window-maximized="1"
   inkscape:current-layer="Ebene_1" />
<style
   type="text/css"
   id="style2">
	.st0{fill:#E9E1D0;}
</style>
<g
   transform="scale(0.44,0.442241)"
   id="g16"
   style="fill:#e9e1d0;fill-opacity:1">
	<polygon
   id="polygon5"
   class="st0"
   points="29.7,8.7 21,8.7 21,127.4 10.5,127.4 10.5,8.7 0,8.7 0,0 29.7,0 "
   style="fill:#e9e1d0;fill-opacity:1" />
	<path
   id="path7"
   class="st0"
   d="M 56.6,118.8 H 68.2 V 35.6 h 10.1 v 83.2 c 0,5.4 -4.9,9.2 -9.9,9.2 H 56.6 c -5.3,0 -10,-4.3 -10,-9.3 V 35.6 h 10 z"
   style="fill:#e9e1d0;fill-opacity:1" />
	<path
   id="path9"
   class="st0"
   d="m 274.8,55.9 h 15.5 V 128 h -21.8 c -4.7,0 -10.4,-3.6 -10.4,-9 V 10 c 0,-4.6 4.8,-9.5 10.2,-9.5 h 11.9 c 5.3,0 10.1,4.8 10.1,9.4 V 35.7 H 279.9 V 10.3 H 268 v 108.9 h 12.1 V 64.7 h -5.3 z"
   style="fill:#e9e1d0;fill-opacity:1" />
	<path
   id="path11"
   class="st0"
   d="m 424.7,83.8 v 43.7 h -9.8 V 43.8 c 0,-3.8 3.8,-7.9 8.5,-7.9 h 16.1 V 44 h -14.9 v 30.9 h 12.2 v 8.9 z"
   style="fill:#e9e1d0;fill-opacity:1" />
	<path
   id="path13"
   class="st0"
   d="m 459.4,35.9 h 10.3 v 33.4 l 5.8,5.8 5.7,-5.7 V 35.9 h 10.1 v 31.7 c 0,3.9 -10,14.1 -10,14.1 0,0 10.1,10.2 10.1,14.3 v 31.7 h -9.5 v -33 l -6.2,-6.2 -6.2,6.1 v 33 H 459.4 V 96.1 c 0,-3.9 10.7,-14.5 10.7,-14.5 0,0 -10.7,-10.1 -10.7,-14.2 z"
   style="fill:#e9e1d0;fill-opacity:1" />
	<path
   id="path15"
   class="st0"
   d="m 122.4,84 c 3.4,0 8,-4.1 8,-9.6 V 44.3 c 0,-4.3 -4.9,-8.4 -10.6,-8.4 H 99 v 92 h 9.6 V 84.7 h 3.6 l 10.7,43 h 9.4 z m -1.9,-9 H 109 V 44.8 h 11.5 z"
   style="fill:#e9e1d0;fill-opacity:1" />
	<path
   id="path17"
   class="st0"
   d="m 334.9,83.7 c 3.4,0 8,-4.1 8,-9.6 V 44 c 0,-4.3 -4.9,-8.4 -10.6,-8.4 h -20.8 v 92 h 9.6 V 84.4 h 3.6 l 10.7,43 h 9.4 z m -2,-9.1 H 321.4 V 44.5 h 11.5 z"
   style="fill:#e9e1d0;fill-opacity:1" />
	<path
   id="path19"
   class="st0"
   d="m 181.7,86.1 c 0,-4.1 -4.3,-6.7 -4.3,-6.7 0,0 4.3,-2.8 4.3,-6.7 V 44.6 c 0,-5.3 -4.7,-8.7 -9.4,-8.7 h -21.9 v 91.8 h 21.9 c 4.4,0 9.4,-2.8 9.4,-8.7 0,-0.1 0.1,-28.7 0,-32.9 z m -9.8,32.6 H 160.4 V 84.5 h 11.5 z m 0,-43.7 H 160.4 V 44.8 h 11.5 z"
   style="fill:#e9e1d0;fill-opacity:1" />
	<path
   id="path21"
   class="st0"
   d="m 223.7,35.2 h -5.8 -5.6 c -5.8,0 -9.9,4.9 -9.9,8.7 v 74.6 c 0,4.8 5.4,9.2 9.9,9.2 h 12.4 c 4.8,0 9.7,-5 9.7,-9 v -75 c 0,-3.5 -4.6,-8.5 -10.7,-8.5 z m 0.4,82.9 H 213 V 44.3 h 11.1 z"
   style="fill:#e9e1d0;fill-opacity:1" />
	<path
   id="path23"
   class="st0"
   d="m 384.9,35.9 h -12.7 c -5.7,0 -9.1,4.7 -9.1,8.4 v 83.2 h 9.6 V 83.8 h 12.1 v 43.7 h 9.6 V 44.8 c 0.1,-5.5 -3.7,-8.9 -9.5,-8.9 z m -0.3,38.8 H 373.1 V 45.1 h 11.5 z"
   style="fill:#e9e1d0;fill-opacity:1" />
	<rect
   id="rect29"
   x="549.20001"
   y="84.599998"
   class="st0"
   width="29.700001"
   height="11.1"
   style="fill:#e9e1d0;fill-opacity:1" />
	<path
   id="path31"
   class="st0"
   d="m 552.8,34.6 c -26,0 -47.1,21.1 -47.1,47.2 0,26.1 21.1,47.2 47.1,47.2 26,0 47.2,-21.1 47.2,-47.2 0,-26.1 -21.1,-47.2 -47.2,-47.2 z m -16,66.5 h -15 v -5.2 h 4.8 V 68.2 h -4.7 V 62.8 H 532 v 33 h 4.7 v 5.3 z m 47.3,-28.3 h -4.8 V 68 H 549 v 11.5 h 32.4 l 2.7,2.8 v 15.2 l -3.4,3.4 h -33.2 l -3.4,-3.4 V 66.1 l 3.2,-3.2 h 33.9 l 2.9,2.9 z"
   style="fill:#e9e1d0;fill-opacity:1" />
</g>
</svg>
