<?xml version="1.0" encoding="UTF-8" standalone="no"?>
<!-- Generator: Adobe Illustrator 26.0.3, SVG Export Plug-In . SVG Version: 6.00 Build 0)  -->

<svg
   version="1.1"
   id="Layer_1"
   x="0px"
   y="0px"
   viewBox="0 0 264 65.982414"
   xml:space="preserve"
   sodipodi:docname="vectrex.svg"
   width="264"
   height="65.982414"
   inkscape:version="1.1.2 (b8e25be833, 2022-02-05)"
   xmlns:inkscape="http://www.inkscape.org/namespaces/inkscape"
   xmlns:sodipodi="http://sodipodi.sourceforge.net/DTD/sodipodi-0.dtd"
   xmlns="http://www.w3.org/2000/svg"
   xmlns:svg="http://www.w3.org/2000/svg"><defs
   id="defs16" /><sodipodi:namedview
   id="namedview14"
   pagecolor="#ffffff"
   bordercolor="#666666"
   borderopacity="1.0"
   inkscape:pageshadow="2"
   inkscape:pageopacity="0.0"
   inkscape:pagecheckerboard="0"
   showgrid="false"
   inkscape:zoom="0.55104167"
   inkscape:cx="959.09263"
   inkscape:cy="540.79395"
   inkscape:window-width="2560"
   inkscape:window-height="1387"
   inkscape:window-x="-8"
   inkscape:window-y="-8"
   inkscape:window-maximized="1"
   inkscape:current-layer="Layer_1" />
<style
   type="text/css"
   id="style2">
	.st0{fill:#E9E1D0;}
</style>
<g
   transform="scale(0.44,0.438203)"
   id="g11"
   style="fill:#e9e1d0;fill-opacity:1">
	<path
   id="path3"
   class="st0"
   d="m 254.6,81.8 c -15.7,15.8 -15.7,41.3 0,57 15.8,15.7 41.3,15.7 57,0 13.6,-13.6 15.5,-34.6 5.5,-50.2 l -21.7,21.7 c 0,3.1 -1.2,6.3 -3.6,8.7 -4.8,4.8 -12.6,4.8 -17.5,0 -4.8,-4.8 -4.8,-12.6 0,-17.5 4.8,-4.8 12.6,-4.8 17.5,0 l 0.4,0.4 19.8,-19.7 -0.4,-0.4 C 295.9,66 270.4,66 254.6,81.8 Z"
   style="fill:#e9e1d0;fill-opacity:1" />
	<path
   id="path5"
   class="st0"
   d="M 97.5,150.5 195,39.5 H 154.3 L 92,102.9 c -1.9,1.9 -5,1.9 -6.9,0 -1.9,-1.9 -1.9,-5.1 0,-7 L 140.5,39.5 H 0 Z"
   style="fill:#e9e1d0;fill-opacity:1" />
	<path
   id="path7"
   class="st0"
   d="m 532.5,110.1 -33.8,39.7 h 27.6 L 552.6,123 c 1.5,-1.6 4,-1.6 5.5,0 1.5,1.5 1.5,4.1 0,5.6 l -20.8,21.1 H 600 L 566.2,110 600,70.4 h -27.6 l -26.3,26.8 c -1.5,1.6 -4,1.6 -5.5,0 -1.5,-1.5 -1.5,-4.1 0,-5.6 l 20.8,-21.1 h -62.7 z"
   style="fill:#e9e1d0;fill-opacity:1" />
	<path
   id="path9"
   class="st0"
   d="m 377.1,70.4 v 79.4 h 25.3 V 98.2 h 19.2 l 23.6,-27.8 h -27.6 l -26.3,26.8 c -1.5,1.6 -4,1.6 -5.5,0 -1.5,-1.5 -1.5,-4.1 0,-5.6 l 20.8,-21.1 h -29.5 z"
   style="fill:#e9e1d0;fill-opacity:1" />
	<path
   id="path11"
   class="st0"
   d="m 358.2,70.8 h 15.3 L 398.8,44.7 H 358.2 V 0 l -61.8,70.8 h 27 L 342,53.6 c 1.5,-1.5 4,-1.5 5.5,0 1.5,1.6 1.5,4.1 0,5.6 l -14.6,14.9 v 75.7 h 25.3 z"
   style="fill:#e9e1d0;fill-opacity:1" />
	<path
   id="path13"
   class="st0"
   d="m 168.2,81.8 c -15.7,15.8 -15.7,41.3 0,57 15.8,15.7 41.3,15.7 57,0 13.6,-13.6 15.5,-34.6 5.5,-50.2 L 209,110.3 c 0,3.1 -1.2,6.3 -3.6,8.7 -4,4 -9.9,4.7 -14.6,2.1 l 36.8,-36.8 c -0.6,-0.8 -4.7,-4.8 -5.9,-5.7 -15.8,-12.5 -38.9,-11.5 -53.5,3.2 z m 17.1,33.2 c -1.9,-4.5 -1,-9.8 2.7,-13.5 3.6,-3.6 9,-4.5 13.5,-2.7 z"
   style="fill:#e9e1d0;fill-opacity:1" />
	<path
   id="path15"
   class="st0"
   d="m 443.1,81.8 c -15.7,15.8 -15.7,41.3 0,57 15.8,15.7 41.3,15.7 57,0 13.6,-13.6 15.5,-34.6 5.5,-50.2 L 484,110.3 c 0,3.1 -1.2,6.3 -3.6,8.7 -4,4 -9.9,4.7 -14.6,2.1 l 36.8,-36.8 c -0.6,-0.8 -4.7,-4.8 -5.9,-5.7 -15.9,-12.5 -39,-11.5 -53.6,3.2 z m 17.1,33.2 c -1.9,-4.5 -1,-9.8 2.7,-13.5 3.6,-3.6 9,-4.5 13.5,-2.7 z"
   style="fill:#e9e1d0;fill-opacity:1" />
</g>
</svg>
