<?xml version="1.0" encoding="UTF-8" standalone="no"?>
<!-- Generator: Adobe Illustrator 26.0.3, SVG Export Plug-In . SVG Version: 6.00 Build 0)  -->

<svg
   version="1.1"
   id="Layer_1"
   x="0px"
   y="0px"
   viewBox="0 0 263.99673 40.995129"
   xml:space="preserve"
   sodipodi:docname="vic20.svg"
   width="263.99673"
   height="40.995129"
   inkscape:version="1.1.2 (b8e25be833, 2022-02-05)"
   xmlns:inkscape="http://www.inkscape.org/namespaces/inkscape"
   xmlns:sodipodi="http://sodipodi.sourceforge.net/DTD/sodipodi-0.dtd"
   xmlns="http://www.w3.org/2000/svg"
   xmlns:svg="http://www.w3.org/2000/svg"
   xmlns:bx="https://boxy-svg.com"><defs
   id="defs23" /><sodipodi:namedview
   id="namedview21"
   pagecolor="#ffffff"
   bordercolor="#666666"
   borderopacity="1.0"
   inkscape:pageshadow="2"
   inkscape:pageopacity="0.0"
   inkscape:pagecheckerboard="0"
   showgrid="false"
   inkscape:zoom="0.55104167"
   inkscape:cx="959.09263"
   inkscape:cy="540.79395"
   inkscape:window-width="2560"
   inkscape:window-height="1387"
   inkscape:window-x="-8"
   inkscape:window-y="-8"
   inkscape:window-maximized="1"
   inkscape:current-layer="Layer_1" />
<style
   type="text/css"
   id="style2">
	.st0{fill:#E9E1D0;}
</style>
<g
   transform="scale(0.439555,0.43892)"
   id="g18"
   style="fill:#e9e1d0;fill-opacity:1">
	<path
   id="path1922"
   bx:origin="-1.563 -1.499"
   class="st0"
   d="m 60.9,26.6 h 38.9 l -17,17.8 H 60.9 Z"
   style="fill:#e9e1d0;fill-opacity:1" />
	<path
   id="path3805"
   bx:origin="-1.562 -2.757"
   class="st0"
   d="M 60.8,66.8 H 99.7 L 82.7,49 H 60.8 Z"
   style="fill:#e9e1d0;fill-opacity:1" />
	<path
   id="path4382"
   bx:origin="0 0"
   class="st0"
   d="m 60,1.8 v 22.4 c -4,-2.5 -8.4,-3.7 -13.3,-3.7 -4.7,0 -9,1.2 -13,3.5 -4,2.3 -7.1,5.5 -9.4,9.6 -2.3,4 -3.4,8.4 -3.4,13 0,4.7 1.1,9 3.4,12.9 2.3,4 5.4,7.1 9.4,9.4 4,2.3 8.3,3.5 12.9,3.5 4.8,0 9.3,-1.2 13.3,-3.5 v 22.5 c -4.3,1.3 -8.7,2 -13.3,2 -8.3,0 -16.1,-2.1 -23.3,-6.3 C 16.2,82.9 10.5,77.2 6.3,70 2.1,62.8 0,55 0,46.6 0,40.4 1.2,34.4 3.7,28.7 6.1,23 9.5,17.9 13.9,13.6 18.2,9.3 23.2,6 28.8,3.6 34.3,1.2 40.3,0 46.7,0 51.2,0 55.6,0.6 60,1.8"
   style="fill:#e9e1d0;fill-opacity:1" />
	<path
   id="path4340"
   bx:origin="-2.603 -0.838"
   class="st0"
   d="m 163.7,50.1 c -0.2,5.6 -0.9,7.9 -3.1,10.1 -3.2,3.2 -7.2,4.1 -20.3,4.1 -10.2,0 -14.5,-0.7 -17.7,-3.1 -3.2,-2.2 -4.3,-5.8 -4.3,-14.6 0,-8 1,-11.5 3.9,-13.9 3.2,-2.6 7.5,-3.4 18.7,-3.4 11,0 15.9,0.8 19,3.4 2.7,2.1 3.6,4.7 3.8,10.9 h -12.6 c -0.4,-3.8 -2.9,-5.1 -10.2,-5.1 -8.6,0 -10.2,1.3 -10.2,8.3 0,4.4 0.7,6 2.9,7 1.5,0.6 4.1,1 7.4,1 7.3,0 9.4,-1 10,-4.8 z"
   style="fill:#e9e1d0;fill-opacity:1" />
	<path
   id="path4342"
   bx:origin="-3.534 -0.841"
   class="st0"
   d="m 209,32.4 c 3.4,2.5 4.3,5.5 4.3,13.8 0,9.1 -0.8,12.2 -3.9,14.7 -3.2,2.6 -7.3,3.3 -19.6,3.3 -12.4,0 -16.6,-0.7 -19.7,-3.3 -3.1,-2.5 -3.9,-5.6 -3.9,-15.2 0,-7.8 1,-10.9 4.3,-13.3 3.1,-2.2 7.9,-3 19.2,-3 11.4,0 16.2,0.7 19.3,3 M 178.6,47 c 0,4.4 0.6,5.9 2.8,6.8 1.5,0.7 4.4,1 8.4,1 9.4,0 11,-1.2 11,-8.2 0,-4.5 -0.7,-6.1 -3,-7 -1.6,-0.6 -4.5,-1 -8,-1 -9.5,0.1 -11.2,1.4 -11.2,8.4"
   style="fill:#e9e1d0;fill-opacity:1" />
	<path
   id="path4344"
   bx:origin="-2.978 -0.863"
   class="st0"
   d="m 227.5,30.2 v 5 h 0.6 c 1.8,-4 6,-5.8 13.4,-5.8 8,0 12.4,2 15.1,7 2.1,-5 6.2,-7 14.3,-7 6.9,0 11,1.3 13.8,4.3 2.9,2.9 3.5,5.7 3.5,14.2 V 63.4 H 275.8 V 47.9 c -0.1,-5.5 -0.2,-6.2 -1.4,-7.4 -1.2,-1.3 -3.4,-1.8 -7,-1.8 -3.8,0 -6.1,0.6 -7.4,2.1 -1.4,1.5 -1.8,3.5 -1.8,8.9 V 63.4 H 245.8 V 47.9 c 0,-5.2 -0.1,-6.1 -1.3,-7.4 -1.1,-1.3 -3.3,-1.8 -6.9,-1.8 -3.8,0 -6.2,0.6 -7.6,2 -1.4,1.4 -1.8,3.5 -1.8,9 V 63.4 H 215.8 V 30.2 Z"
   style="fill:#e9e1d0;fill-opacity:1" />
	<path
   id="path4346"
   bx:origin="-4.018 -0.863"
   class="st0"
   d="m 302.9,30.2 v 5 h 0.6 c 1.8,-4 6,-5.8 13.4,-5.8 8,0 12.4,2 15.1,7 2.1,-5 6.2,-7 14.3,-7 6.9,0 10.9,1.3 13.8,4.3 2.9,2.9 3.5,5.7 3.5,14.2 V 63.4 H 351.2 V 47.9 c -0.1,-5.5 -0.2,-6.2 -1.4,-7.4 -1.3,-1.3 -3.4,-1.8 -7,-1.8 -3.7,0 -6,0.6 -7.4,2.1 -1.4,1.5 -1.8,3.5 -1.8,8.9 V 63.4 H 321.2 V 47.9 c 0,-5.2 -0.1,-6.1 -1.3,-7.4 -1.1,-1.3 -3.3,-1.8 -6.9,-1.8 -3.7,0 -6.2,0.6 -7.6,2 -1.4,1.4 -1.8,3.5 -1.8,9 V 63.4 H 291.2 V 30.2 Z"
   style="fill:#e9e1d0;fill-opacity:1" />
	<path
   id="path4348"
   bx:origin="-7.795 -0.841"
   class="st0"
   d="m 409,32.4 c 3.4,2.5 4.3,5.5 4.3,13.8 0,9.1 -0.8,12.2 -3.9,14.7 -3.2,2.6 -7.3,3.3 -19.6,3.3 -12.4,0 -16.5,-0.7 -19.7,-3.3 -3.1,-2.5 -3.9,-5.6 -3.9,-15.2 0,-7.8 1,-10.9 4.3,-13.3 3.1,-2.2 7.9,-3 19.2,-3 11.4,0 16.2,0.7 19.3,3 M 378.7,47 c 0,4.4 0.5,5.9 2.8,6.8 1.5,0.7 4.4,1 8.3,1 9.4,0 11,-1.2 11,-8.2 0,-4.5 -0.7,-6.1 -3,-7 -1.5,-0.6 -4.5,-1 -8,-1 -9.4,0.1 -11.1,1.4 -11.1,8.4"
   style="fill:#e9e1d0;fill-opacity:1" />
	<path
   id="path4350"
   bx:origin="-8.91 -0.348"
   class="st0"
   d="M 462.8,63.4 H 451.1 V 59 h -0.6 c -2.4,4 -5.7,5.2 -14.7,5.2 -9,0 -13.3,-0.9 -16.1,-3.5 -2.7,-2.5 -3.6,-5.9 -3.6,-14.2 0,-8.4 1.3,-12.4 4.8,-14.7 3,-2 6.4,-2.5 15,-2.5 8.7,0 11.6,1.1 14,5.3 h 0.5 v -18 h 12.4 z m -34.3,-17 c 0,7.3 1.4,8.4 10.7,8.4 4.6,0 7.9,-0.6 9.3,-1.5 1.4,-0.9 1.9,-2.7 1.9,-6.5 0,-6.9 -1.6,-8.1 -10.5,-8.1 -9.7,-0.1 -11.4,1.1 -11.4,7.7"
   style="fill:#e9e1d0;fill-opacity:1" />
	<path
   id="path4352"
   bx:origin="-9.897 -0.841"
   class="st0"
   d="m 507.7,32.4 c 3.4,2.5 4.3,5.5 4.3,13.8 0,9.1 -0.8,12.2 -3.9,14.7 -3.2,2.6 -7.3,3.3 -19.6,3.3 -12.4,0 -16.5,-0.7 -19.7,-3.3 -3.1,-2.5 -3.9,-5.6 -3.9,-15.2 0,-7.8 1,-10.9 4.3,-13.3 3.1,-2.2 8,-3 19.2,-3 11.5,0 16.3,0.7 19.3,3 M 477.5,47 c 0,4.4 0.5,5.9 2.8,6.8 1.5,0.7 4.3,1 8.3,1 9.4,0 11,-1.2 11,-8.2 0,-4.5 -0.7,-6.1 -3,-7 -1.5,-0.6 -4.5,-1 -8,-1 -9.4,0.1 -11.1,1.4 -11.1,8.4"
   style="fill:#e9e1d0;fill-opacity:1" />
	<path
   id="path4354"
   bx:origin="-13.37 -0.863"
   class="st0"
   d="m 526.3,30.2 v 5 h 0.6 c 2.3,-4.2 5.8,-5.8 12.8,-5.8 10,0 13.4,3.4 13.4,13.3 v 2.2 h -11.7 c 0,-4.9 -1.4,-6.2 -6.5,-6.2 -2.8,0 -5.1,0.8 -6.3,2.4 -1.2,1.6 -1.5,3.4 -1.5,8.6 V 63.5 H 514.7 V 30.2 Z"
   style="fill:#e9e1d0;fill-opacity:1" />
	<path
   id="path4356"
   bx:origin="-12.373 -0.838"
   class="st0"
   d="m 599.8,52.8 c -0.9,9.2 -5.5,11.4 -23.2,11.4 -9.6,0 -14.1,-0.8 -17.2,-3.1 -3.3,-2.5 -4.2,-5.8 -4.2,-14.3 0,-8.9 0.9,-12.2 4.5,-14.7 3.3,-2.2 7.4,-2.9 18.2,-2.9 11.2,0 15.1,0.7 18.2,3.1 2.9,2.5 4.1,6.2 4.1,13.7 0,0.4 0,2 -0.1,3.4 h -32.5 c 0,3.4 0.4,4.5 1.6,5.4 1.3,1 3.9,1.4 8.4,1.4 7.9,0 9.4,-0.6 9.9,-3.5 z M 587.5,42.7 c -0.1,-2.6 -0.2,-3.2 -1,-4 -1.1,-1.2 -3.7,-1.7 -8.6,-1.7 -8.4,0 -10.3,1.1 -10.5,5.7 z"
   style="fill:#e9e1d0;fill-opacity:1" />
	<path
   class="st0"
   d="m 523.2,90.3 -9.5,-20.6 h 3.6 l 6.2,14.1 6.2,-14.1 h 3.5 l -9.5,20.6 z m 12.1,0 V 69.8 h 3.1 v 20.6 h -3.1 z m 17.2,0.2 c -2.1,0 -4,-0.5 -5.5,-1.4 -1.6,-1 -2.8,-2.2 -3.6,-3.8 -0.8,-1.6 -1.2,-3.4 -1.2,-5.3 0,-2 0.4,-3.9 1.3,-5.5 0.9,-1.6 2.1,-2.9 3.7,-3.8 1.6,-0.9 3.4,-1.4 5.5,-1.4 0.9,0 1.8,0.1 2.6,0.3 0.8,0.2 1.5,0.4 2,0.7 0.5,0.3 0.9,0.5 1,0.6 l -1.4,2.8 c -1.1,-1 -2.6,-1.5 -4.4,-1.5 -1.3,0 -2.5,0.3 -3.5,0.9 -1,0.6 -1.9,1.5 -2.5,2.7 -0.6,1.2 -0.9,2.5 -0.9,4.1 0,1.4 0.3,2.7 0.8,3.9 0.5,1.2 1.3,2.1 2.3,2.7 1,0.7 2.2,1 3.7,1 1.6,0 3.2,-0.5 4.8,-1.4 l 0.9,2.7 c -0.4,0.4 -1.2,0.7 -2.3,1.1 -1.1,0.5 -2.2,0.6 -3.3,0.6 z m 15.5,-0.2 6.9,-8.7 c 0.9,-1.2 1.6,-2.3 2.2,-3.3 0.6,-1 0.9,-1.9 0.9,-2.8 0,-1 -0.3,-1.8 -0.8,-2.4 -0.6,-0.6 -1.4,-0.8 -2.5,-0.8 -1,0 -1.8,0.3 -2.4,0.8 -0.6,0.6 -1.1,1.2 -1.5,2.1 l -2.6,-1.4 c 0.7,-1.3 1.5,-2.3 2.6,-3.2 1.1,-0.9 2.4,-1.3 4.1,-1.3 2.1,0 3.7,0.5 4.8,1.6 1.1,1.1 1.7,2.5 1.7,4.2 0,2.3 -1.1,4.8 -3.4,7.5 l -3.8,4.8 h 8 v 2.8 H 568 Z m 25.1,0.5 c -2.6,0 -4.5,-1 -5.7,-3 -1.2,-2 -1.8,-4.6 -1.8,-7.7 0,-3.3 0.6,-5.9 1.8,-7.8 1.2,-1.9 3.1,-2.9 5.7,-2.9 5,0 7.5,3.5 7.5,10.6 0,3.2 -0.6,5.8 -1.8,7.8 -1.2,2 -3.1,3 -5.7,3 z m 0,-2.9 c 1.5,0 2.6,-0.7 3.2,-2.2 0.6,-1.5 0.9,-3.4 0.9,-5.7 0,-2.4 -0.3,-4.3 -0.9,-5.7 -0.6,-1.4 -1.6,-2.1 -3.2,-2.1 -1.5,0 -2.6,0.7 -3.2,2.1 -0.6,1.4 -0.9,3.3 -0.9,5.7 0,5.3 1.4,7.9 4.1,7.9 z"
   id="path16"
   style="fill:#e9e1d0;fill-opacity:1" />
</g>
</svg>
