<?xml version="1.0" encoding="UTF-8" standalone="no"?>
<!-- Generator: Adobe Illustrator 26.0.3, SVG Export Plug-In . SVG Version: 6.00 Build 0)  -->

<svg
   version="1.1"
   id="Layer_1"
   x="0px"
   y="0px"
   viewBox="0 0 264 35.996044"
   xml:space="preserve"
   sodipodi:docname="videopac.svg"
   width="264"
   height="35.996044"
   inkscape:version="1.1.2 (b8e25be833, 2022-02-05)"
   xmlns:inkscape="http://www.inkscape.org/namespaces/inkscape"
   xmlns:sodipodi="http://sodipodi.sourceforge.net/DTD/sodipodi-0.dtd"
   xmlns="http://www.w3.org/2000/svg"
   xmlns:svg="http://www.w3.org/2000/svg"><defs
   id="defs27" /><sodipodi:namedview
   id="namedview25"
   pagecolor="#ffffff"
   bordercolor="#666666"
   borderopacity="1.0"
   inkscape:pageshadow="2"
   inkscape:pageopacity="0.0"
   inkscape:pagecheckerboard="0"
   showgrid="false"
   inkscape:zoom="0.55104167"
   inkscape:cx="959.09263"
   inkscape:cy="540.79395"
   inkscape:window-width="2560"
   inkscape:window-height="1387"
   inkscape:window-x="-8"
   inkscape:window-y="-8"
   inkscape:window-maximized="1"
   inkscape:current-layer="Layer_1" />
<style
   type="text/css"
   id="style2">
	.st0{fill:#E9E1D0;}
</style>
<g
   transform="scale(0.44,0.441128)"
   id="g22"
   style="fill:#e9e1d0;fill-opacity:1">
	<path
   id="path3904"
   class="st0"
   d="M 55.4,59.9 43.7,81.6 0,0 h 23.3 z"
   style="fill:#e9e1d0;fill-opacity:1" />
	<path
   id="path2987"
   class="st0"
   d="M 46.6,32.6 64.1,0 H 87.4 L 58.3,54.4 Z"
   style="fill:#e9e1d0;fill-opacity:1" />
	<path
   id="path2989"
   class="st0"
   d="m 93.4,0 h 20.5 l -0.1,81.6 H 93.4 Z"
   style="fill:#e9e1d0;fill-opacity:1" />
	<path
   id="path3908"
   class="st0"
   d="M 122.5,0 H 143 l -0.1,81.6 h -20.4 z"
   style="fill:#e9e1d0;fill-opacity:1" />
	<path
   id="path2991"
   class="st0"
   d="M 148.8,20.4 V 0 h 8.7 c 11.3,0 20.9,4 28.9,11.9 8,8 11.9,17.6 11.9,28.9 0,11.3 -4,20.9 -11.9,28.9 -8,8 -17.6,11.9 -28.9,11.9 h -8.7 V 61.2 h 8.7 c 5.6,0 10.4,-2 14.4,-6 4,-4 6,-8.8 6,-14.4 0,-5.6 -2,-10.4 -6,-14.4 -4,-4 -8.8,-6 -14.4,-6 z"
   style="fill:#e9e1d0;fill-opacity:1" />
	<path
   id="path3916"
   class="st0"
   d="m 207.2,0 h 20.5 l -0.1,81.6 h -20.4 z"
   style="fill:#e9e1d0;fill-opacity:1" />
	<path
   id="path3914"
   class="st0"
   d="m 233.4,0 h 32.1 v 20.4 h -32.1 z"
   style="fill:#e9e1d0;fill-opacity:1" />
	<path
   id="path3912"
   class="st0"
   d="m 233.4,61.2 h 32.1 v 20.4 h -32.1 z"
   style="fill:#e9e1d0;fill-opacity:1" />
	<path
   id="path2993"
   class="st0"
   d="m 233.4,30.6 h 32.1 V 51 h -32.1 z"
   style="fill:#e9e1d0;fill-opacity:1" />
	<path
   id="path3920"
   class="st0"
   d="m 335.4,43.7 h 20.5 c -0.6,10 -4.6,18.7 -11.9,25.9 -8,8 -17.6,11.9 -28.9,11.9 -11.3,0 -20.9,-4 -28.9,-11.9 C 278.9,62.3 275,53.7 274.4,43.7 H 295 c 0.6,4.4 2.5,8.2 5.8,11.5 4,4 8.8,6 14.4,6 5.6,0 10.5,-2 14.5,-6 3.1,-3.3 5.1,-7.1 5.7,-11.5 z"
   style="fill:#e9e1d0;fill-opacity:1" />
	<path
   id="path2995"
   class="st0"
   d="m 295,37.9 h -20.5 c 0.6,-10 4.6,-18.7 11.8,-25.9 8,-8 17.6,-11.9 28.9,-11.9 C 326.4,0 336,4 344,11.9 c 7.3,7.3 11.3,15.9 11.9,25.9 h -20.5 c -0.6,-4.4 -2.5,-8.2 -5.8,-11.5 -4,-4 -8.8,-5.9 -14.5,-5.9 -5.6,0 -10.4,2 -14.4,5.9 -3.2,3.4 -5.2,7.2 -5.7,11.6 z"
   style="fill:#e9e1d0;fill-opacity:1" />
	<path
   id="path3924"
   class="st0"
   d="m 364.8,0 h 20.4 v 81.6 h -20.4 z"
   style="fill:#e9e1d0;fill-opacity:1" />
	<path
   id="path2997"
   class="st0"
   d="M 391,20.4 V 0 h 11 c 7,0 13,2.5 18,7.5 5,5 7.5,11 7.5,18 0,7.1 -2.5,13.1 -7.5,18.1 -5,5 -11,7.4 -18,7.4 H 391 V 30.6 h 11 c 1.4,0 2.6,-0.5 3.6,-1.5 1,-1 1.5,-2.2 1.5,-3.6 0,-1.4 -0.5,-2.6 -1.5,-3.6 -1,-1 -2.2,-1.5 -3.6,-1.5 z"
   style="fill:#e9e1d0;fill-opacity:1" />
	<path
   id="path3928"
   class="st0"
   d="M 472.6,49 455.1,81.6 H 431.8 L 461,27.2 Z"
   style="fill:#e9e1d0;fill-opacity:1" />
	<path
   id="path2999"
   class="st0"
   d="M 481.1,53.9 463.8,21.7 475.5,0 519.2,81.6 H 495.9 L 492,74.3 h -27.2 l 10.9,-20.4 z"
   style="fill:#e9e1d0;fill-opacity:1" />
	<path
   id="path3934"
   class="st0"
   d="m 563.1,61 v 20.5 c -10,-0.6 -18.7,-4.6 -25.9,-11.8 -8,-8 -11.9,-17.6 -11.9,-28.9 0,-11.3 4,-20.9 11.9,-28.9 7.3,-7.3 15.9,-11.2 25.9,-11.8 v 20.5 c -4.4,0.6 -8.2,2.5 -11.5,5.8 -4,4 -6,8.8 -6,14.5 0,5.6 2,10.4 6,14.4 3.3,3.2 7.1,5.1 11.5,5.7 z"
   style="fill:#e9e1d0;fill-opacity:1" />
	<path
   id="path3932"
   class="st0"
   d="m 583,29.4 c -0.7,-1.1 -1.6,-2.1 -2.6,-3.1 -3.3,-3.3 -7.2,-5.2 -11.5,-5.8 V 0.1 c 10,0.6 18.7,4.6 25.9,11.8 1.9,1.9 3.7,4 5.1,6.2 z"
   style="fill:#e9e1d0;fill-opacity:1" />
	<path
   id="path3001"
   class="st0"
   d="m 600,63.5 c -1.5,2.2 -3.2,4.2 -5.1,6.2 C 587.6,77 579,80.9 569,81.5 V 61 c 4.4,-0.6 8.2,-2.5 11.5,-5.8 1,-1 1.8,-2 2.6,-3 z"
   style="fill:#e9e1d0;fill-opacity:1" />
</g>
</svg>
