<?xml version="1.0" encoding="UTF-8" standalone="no"?>
<!-- Generator: Adobe Illustrator 26.0.3, SVG Export Plug-In . SVG Version: 6.00 Build 0)  -->

<svg
   version="1.1"
   id="Layer_1"
   x="0px"
   y="0px"
   viewBox="0 0 263.99121 75.934654"
   xml:space="preserve"
   sodipodi:docname="wonderswancolor.svg"
   width="263.99121"
   height="75.934654"
   inkscape:version="1.1.2 (b8e25be833, 2022-02-05)"
   xmlns:inkscape="http://www.inkscape.org/namespaces/inkscape"
   xmlns:sodipodi="http://sodipodi.sourceforge.net/DTD/sodipodi-0.dtd"
   xmlns="http://www.w3.org/2000/svg"
   xmlns:svg="http://www.w3.org/2000/svg"><defs
   id="defs25" /><sodipodi:namedview
   id="namedview23"
   pagecolor="#ffffff"
   bordercolor="#666666"
   borderopacity="1.0"
   inkscape:pageshadow="2"
   inkscape:pageopacity="0.0"
   inkscape:pagecheckerboard="0"
   showgrid="false"
   inkscape:zoom="0.55104167"
   inkscape:cx="959.09263"
   inkscape:cy="540.79395"
   inkscape:window-width="2560"
   inkscape:window-height="1387"
   inkscape:window-x="-8"
   inkscape:window-y="-8"
   inkscape:window-maximized="1"
   inkscape:current-layer="Layer_1" />
<style
   type="text/css"
   id="style2">
	.st0{fill:#E9E1D0;}
</style>
<g
   transform="scale(0.44)"
   id="g20"
   style="fill:#e9e1d0;fill-opacity:1">
	<polygon
   id="polygon9"
   class="st0"
   points="117.4,65.5 125.6,31.2 133.8,24.6 142,24.6 133.8,58.9 142,54 148.6,29.5 153.5,24.6 165,24.6 156.8,58.9 165,52.4 169.9,31.2 176.5,24.6 186.4,24.6 178.2,57.3 168.3,65.5 "
   style="fill:#e9e1d0;fill-opacity:1" />
	<polygon
   id="polygon11"
   class="st0"
   points="450.2,65.5 454.4,45.9 461.8,38.7 471.4,38.7 465.8,60.3 474,55.4 476.1,44.2 481.6,38.7 493.1,38.7 487.4,60.3 495.2,55.1 497.4,45.9 504.6,38.7 513.1,38.7 508.4,57.3 497.1,65.5 "
   style="fill:#e9e1d0;fill-opacity:1" />
	<path
   id="path13"
   class="st0"
   d="m 386.1,65.5 8.2,-8.2 h 35.4 c 0,0 3,0.9 4.8,-3 1.6,-3.6 -1.5,-3.6 -1.5,-3.6 h -16.4 c 0,0 -4.7,-1.1 -4.7,-6.9 C 411.7,29.7 423.4,26 423.4,26 h 34.5 l -6.9,6.8 h -18 c 0,0 -5.8,1.6 -5.9,6.5 -0.1,2.2 2.6,1.7 2.6,1.7 h 14.8 c 0,0 8.5,1.4 6.6,10.6 -2.6,12.1 -11.5,13.9 -11.5,13.9 z"
   style="fill:#e9e1d0;fill-opacity:1" />
	<path
   id="path15"
   class="st0"
   d="m 358,65.5 h 14.8 l 4.5,-17 c 0.5,-2 5.7,-4.2 4.4,-4 -1.3,0.2 4.7,-0.9 4.7,-0.9 0,0 1.9,0.5 2.9,1.9 1,1.3 -1,3.2 -1.2,4.7 -0.3,1.5 1.6,1.6 1.6,1.6 h 8.2 c 0,0 4.4,-1.6 5.6,-3.3 1.2,-1.7 2.6,-3.4 2.6,-4.9 0,-1.5 -3.3,-3.3 -3.3,-3.3 l -3.3,-1.6 h -24.6 c 0,0 -11.8,6.8 -13.2,8.2 -0.5,0.4 -3.7,18.6 -3.7,18.6 z"
   style="fill:#e9e1d0;fill-opacity:1" />
	<path
   id="path17"
   class="st0"
   d="m 185.5,46.7 c -1.1,1.3 -4.8,12.8 -4,14.7 0.8,1.8 5.4,4 5.4,4 h 24 c 0,0 11.2,-7 12.1,-8 0.8,-1 4,-12.2 4,-13.4 0,-1.2 -2.7,-5.3 -2.7,-5.3 h -28.1 c 0,0 -9.5,6.7 -10.7,8 z m 18.8,-2.6 h 7.4 c 0,0 -0.8,8.9 -2.7,11.4 -1.9,2.5 -6,4.7 -6,4.7 0,0 -4.7,0.5 -5.3,0 -0.7,-0.5 -0.2,-5.3 -0.2,-5.3 0,0 0.6,-5.2 1.5,-6.7 0.8,-1.6 5.3,-4.1 5.3,-4.1 z"
   style="fill:#e9e1d0;fill-opacity:1" />
	<path
   id="path19"
   class="st0"
   d="m 275.1,46.7 c -1.1,1.3 -4.8,12.8 -4,14.7 0.8,1.8 5.4,4 5.4,4 h 33.4 c 0,0 1.1,-5.3 2.5,-10.7 1.3,-5 2.9,-12.8 2.9,-13.4 0,-1.2 8.3,-11.7 8.3,-11.7 H 309 l -7.3,9 h -15.9 c 0,0.1 -9.5,6.8 -10.7,8.1 z m 18.7,-2.6 h 7.3 c 0,0 -0.8,8.9 -2.7,11.4 -1.8,2.5 -6,4.7 -6,4.7 0,0 -4.7,0.5 -5.3,0 -0.6,-0.5 -0.2,-5.3 -0.2,-5.3 0,0 0.6,-5.2 1.5,-6.7 0.9,-1.6 5.4,-4.1 5.4,-4.1 z"
   style="fill:#e9e1d0;fill-opacity:1" />
	<path
   id="path21"
   class="st0"
   d="M 223.4,65.5 231,38.8 h 32.1 c 0,0 4.2,0.4 5.7,2.8 1.5,2.4 1,6.5 1,6.5 l -4.4,17.4 H 252 c 0,0 1.6,-8.5 3,-14.7 1.5,-6.2 -2.7,-6.7 -2.7,-6.7 h -8 l -4.6,16 c 0,0 -4,4.7 -5.7,5.3 h -10.6 z"
   style="fill:#e9e1d0;fill-opacity:1" />
	<path
   id="path23"
   class="st0"
   d="m 552.6,65.5 8.5,-26.7 h 32.1 c 0,0 4.2,0.4 5.7,2.8 1.5,2.4 1,6.5 1,6.5 l -4.5,17.4 h -14.7 c 0,0 2.4,-7.2 4,-13.4 1.5,-6.2 -2.2,-8 -2.2,-8 h -8 l -4.5,16 c 0,0 -3.7,4.7 -5.3,5.3 h -12.1 z"
   style="fill:#e9e1d0;fill-opacity:1" />
	<path
   id="path25"
   class="st0"
   d="m 319.2,46.7 c -1.2,1.3 -4.8,12.8 -4,14.7 0.8,1.8 5.3,4 5.3,4 h 24 c 0,0 4.8,-3 8.3,-5.3 0,0 -20.4,0.1 -21.7,0 -0.6,-0.1 -0.4,-2.5 -0.3,-4 h 16.4 c 0,0 3.2,-0.7 7.9,-4.6 4.8,-3.9 5.4,-4.3 5.4,-7.4 0,-3.1 -2.7,-5.3 -2.7,-5.3 h -28.1 c 0.2,-0.1 -9.3,6.6 -10.5,7.9 z M 338,44.1 h 10.8 c 0,0 -1.2,4.1 -7.1,6.7 h -9 c -0.9,-2.3 1.3,-4.2 2.4,-5.2 1.3,-1.2 2.9,-1.5 2.9,-1.5 z"
   style="fill:#e9e1d0;fill-opacity:1" />
	<path
   id="path27"
   class="st0"
   d="m 535.2,65.5 c 0,0 4.5,-14.4 6,-19 0.7,-2.5 -1,-2.4 -4.1,-2.4 -3.1,0 -5.5,0.7 -9.9,8 -5.1,8.5 7.6,10.9 7.6,10.9 l -0.9,2.5 h -14.7 c 0,0 -8,0.3 -8,-9.3 0,-11.9 15.2,-17.4 15.2,-17.4 h 32.1 L 550,65.5 Z"
   style="fill:#e9e1d0;fill-opacity:1" />
	<path
   id="path29"
   class="st0"
   d="m 76.8,24.7 c 0.7,0 1.5,-0.1 2.3,-0.1 16.7,0 31.1,16.2 32.1,24.5 0.1,0.9 0.2,1.6 0.2,2.3 C 111.3,28.9 76.2,0 48,0 26.2,0 16.1,8.8 12.7,18.7 c -5,12.5 1.6,30.3 17,43 1.6,1.3 3.3,2.5 4.9,3.7 -0.7,0.1 -1.5,0.1 -2.3,0.1 C 15.6,65.4 1.3,49.2 0.2,41 0.1,40.1 0,39.4 0,38.7 c 0.2,22.5 35.3,51.4 63.5,51.4 21.7,0 31.9,-8.8 35.2,-18.7 5,-12.5 -1.6,-30.3 -17,-43 -1.6,-1.3 -3.2,-2.5 -4.9,-3.7 z M 45.4,62.1 C 33,51.9 28.8,37 35.8,28.5 42.8,20 58.7,21 71.4,30.9 84,40.7 88.8,55.6 82.4,64.5 85,59.2 82.1,51.1 75.2,45.7 67.8,39.8 58.4,39.2 54.3,44.3 c -4.2,5 -1.7,13.9 5.6,20 5.6,4.7 12.5,6.3 17.4,4.6 -8.3,4.4 -21.4,1.9 -31.9,-6.8 z"
   style="fill:#e9e1d0;fill-opacity:1" />
	<path
   id="path9"
   class="st0"
   d="m 330.1,82.1 c -4.8,-1.4 -10.1,5.3 -14.7,15.6 -4.1,17.1 -13.1,42.3 -13.7,59.7 -0.3,7.7 6.9,10 11.7,11.7 15.3,5.4 24.3,0.1 28.8,-5.4 3.3,-4 -0.2,-7.3 -4.3,-6 -5.9,1.7 -13.1,2.9 -14.5,-2.8 -1.6,-6.3 7.1,-32 13.1,-51.1 3.3,-10.6 6,-19.3 -6.4,-21.7 z"
   style="fill:#e9e1d0;fill-opacity:1" />
	<path
   id="path11"
   class="st0"
   d="m 250.7,112.4 c -10.4,1.1 -31,6.6 -31,33.2 0,1.3 -3.8,30.1 33.4,26.7 37.2,-3.3 43.5,-26.7 43.5,-26.7 0,0 9.2,-30.9 -13.4,-30.1 -13.8,0.5 -20.1,6.7 -20.1,6.7 0,0 9.2,1.8 11.2,8.4 3.8,12.5 2.4,33.6 -17.9,31.7 -20.3,-1.9 -10.4,-28.8 -4,-42.4 2.3,-4.6 1.8,-7.8 -1.7,-7.5 z"
   style="fill:#e9e1d0;fill-opacity:1" />
	<path
   id="path13-9"
   class="st0"
   d="m 374.4,112.4 c -10.4,1.1 -31,6.6 -31,33.2 0,1.3 -3.8,30.1 33.4,26.7 37.2,-3.3 43.5,-26.7 43.5,-26.7 0,0 9.2,-30.9 -13.4,-30.1 -13.8,0.5 -20.1,6.7 -20.1,6.7 0,0 9.2,1.8 11.2,8.4 3.8,12.5 2.4,33.6 -17.9,31.7 -20.3,-1.9 -10.4,-28.8 -4,-42.4 2.3,-4.6 1.8,-7.8 -1.7,-7.5 z"
   style="fill:#e9e1d0;fill-opacity:1" />
	<path
   id="path15-7"
   class="st0"
   d="m 129.5,132.3 c -1.7,-33 43.9,-47.8 60.2,-49.1 16.2,-1.3 33.4,2.3 33.4,2.3 0,0 -2.5,32.6 -10,33.4 -7.5,0.8 -5.8,-24.7 -20.1,-23.4 -26,2.3 -36.5,30.7 -36.8,40.1 -0.1,4.6 1.3,25.1 20.1,23.4 18.8,-1.7 23,-11.7 26.7,-13.4 3.8,-1.7 11,-5 10,3.3 -2.1,18.4 -36.8,23.4 -36.8,23.4 0,0 -44.5,2.6 -46.7,-40 z"
   style="fill:#e9e1d0;fill-opacity:1" />
	<path
   id="path17-8"
   class="st0"
   d="m 437,169.1 c -15.9,0.8 -7.1,-18.4 -3.3,-30.1 3.8,-11.7 3.1,-24.5 16.7,-23.4 15.1,1.2 3.3,20.1 3.3,20.1 0,0 22.9,-25.1 43.5,-23.4 5,0.4 -10,33.4 -10,33.4 0,0 -3.8,-12.1 -13.4,-10 -27.6,5.9 -20.9,32.5 -36.8,33.4 z"
   style="fill:#e9e1d0;fill-opacity:1" />
</g>
</svg>
