<?xml version="1.0" encoding="UTF-8" standalone="no"?>
<!-- Generator: Adobe Illustrator 26.0.3, SVG Export Plug-In . SVG Version: 6.00 Build 0)  -->

<svg
   version="1.1"
   id="Warstwa_1"
   x="0px"
   y="0px"
   viewBox="0 0 1168.6 369.99999"
   xml:space="preserve"
   sodipodi:docname="x1.svg"
   width="1168.6"
   height="370"
   inkscape:version="1.1.2 (b8e25be833, 2022-02-05)"
   xmlns:inkscape="http://www.inkscape.org/namespaces/inkscape"
   xmlns:sodipodi="http://sodipodi.sourceforge.net/DTD/sodipodi-0.dtd"
   xmlns="http://www.w3.org/2000/svg"
   xmlns:svg="http://www.w3.org/2000/svg"><defs
   id="defs13" /><sodipodi:namedview
   id="namedview11"
   pagecolor="#ffffff"
   bordercolor="#666666"
   borderopacity="1.0"
   inkscape:pageshadow="2"
   inkscape:pageopacity="0.0"
   inkscape:pagecheckerboard="0"
   showgrid="false"
   inkscape:zoom="0.90535686"
   inkscape:cx="583.74772"
   inkscape:cy="185.56219"
   inkscape:window-width="2560"
   inkscape:window-height="1387"
   inkscape:window-x="-8"
   inkscape:window-y="-8"
   inkscape:window-maximized="1"
   inkscape:current-layer="Warstwa_1" />
<style
   type="text/css"
   id="style2">
	.st0{fill:#E9E1D0;}
</style>
<path
   class="st0"
   d="m 109.6,0.1 h 6.2 c 91,0 182,0 273,-0.1 4.2,0 6.4,1.2 8.5,4.9 64.5,112.3 129,224.6 193.6,336.9 1.9,3.4 3.9,4.5 7.7,4.5 28.2,-0.2 56.3,-0.1 84.5,0 2.9,0 4.8,-0.5 6.4,-3.3 47.3,-84.3 94.7,-168.6 142.2,-252.9 0.6,-1 1,-2 1.9,-3.8 h -99.1 c 1.7,-2 2.5,-3.2 3.5,-4.2 25.1,-26.3 50.2,-52.5 75.4,-78.7 1.8,-1.8 4.2,-2.9 6.7,-3.1 C 935,0.1 1049.9,0 1164.7,0.1 h 3.9 c -1,1.9 -1.7,3.3 -2.4,4.6 -69.3,120.5 -138.6,241 -207.8,361.5 -1.8,3.2 -3.8,3.8 -7.1,3.8 -207.5,-0.1 -415,-0.1 -622.5,0 -3.1,0 -5.1,-0.6 -6.8,-3.6 C 252,245.7 181.9,124.9 111.8,4.1 c -0.6,-1 -1.1,-2 -2.2,-4 z M 874.5,62.2 714.9,345.9 c 2,0.1 3.2,0.2 4.5,0.2 73,0 146,0 219,0.1 3.5,0 4.9,-1.5 6.4,-4.1 60,-104.3 120,-208.7 180,-313 0.9,-1.5 1.7,-3.1 2.7,-5 -1.6,-0.1 -2.4,-0.3 -3.2,-0.3 -98.1,0 -196.3,0 -294.4,0.1 -2.2,0.2 -4.3,1.1 -5.9,2.7 -10.5,10.7 -20.8,21.6 -31.2,32.4 -0.8,1 -1.6,2 -2.2,3.1 z M 150.9,23.9 c 1.3,2.4 2.2,4.1 3.1,5.8 60.4,103.9 120.7,207.8 181,311.8 2,3.4 4,4.8 8.1,4.8 72.3,-0.1 144.6,-0.2 216.9,-0.1 h 5.9 c -1.2,-2.4 -2,-4 -2.9,-5.5 -59.8,-104 -119.6,-208 -179.4,-312.1 -2,-3.5 -4.1,-4.8 -8.1,-4.7 -73,0.1 -145.9,0.2 -218.9,0.1 h -5.7 z"
   id="path4"
   style="fill:#e9e1d0;fill-opacity:1" />
<path
   class="st0"
   d="m 177.3,195.7 103.1,174 H 0 Z m -5,38.1 -114.1,112 h 180.5 z"
   id="path6"
   style="fill:#e9e1d0;fill-opacity:1" />
<path
   class="st0"
   d="M 440.5,0.3 H 698 C 643,56 588.7,111.1 533.8,166.7 Z M 539.1,127.6 641,24.3 H 481.2 Z"
   id="path8"
   style="fill:#e9e1d0;fill-opacity:1" />
</svg>
