<?xml version="1.0" encoding="UTF-8" standalone="no"?>
<!-- Generator: Adobe Illustrator 26.0.3, SVG Export Plug-In . SVG Version: 6.00 Build 0)  -->

<svg
   version="1.1"
   id="Layer_1"
   x="0px"
   y="0px"
   viewBox="0 0 264.00659 45.001419"
   xml:space="preserve"
   sodipodi:docname="x68000.svg"
   width="264.00659"
   height="45.001419"
   inkscape:version="1.1.2 (b8e25be833, 2022-02-05)"
   xmlns:inkscape="http://www.inkscape.org/namespaces/inkscape"
   xmlns:sodipodi="http://sodipodi.sourceforge.net/DTD/sodipodi-0.dtd"
   xmlns="http://www.w3.org/2000/svg"
   xmlns:svg="http://www.w3.org/2000/svg"><defs
   id="defs25" /><sodipodi:namedview
   id="namedview23"
   pagecolor="#ffffff"
   bordercolor="#666666"
   borderopacity="1.0"
   inkscape:pageshadow="2"
   inkscape:pageopacity="0.0"
   inkscape:pagecheckerboard="0"
   showgrid="false"
   inkscape:zoom="0.55104167"
   inkscape:cx="959.09263"
   inkscape:cy="540.79395"
   inkscape:window-width="2560"
   inkscape:window-height="1387"
   inkscape:window-x="-8"
   inkscape:window-y="-8"
   inkscape:window-maximized="1"
   inkscape:current-layer="Layer_1" />
<style
   type="text/css"
   id="style2">
	.st0{fill:#E9E1D0;}
</style>
<g
   transform="scale(0.44,0.439467)"
   id="g20"
   style="fill:#e9e1d0;fill-opacity:1">
	<path
   class="st0"
   d="m 25.3,0 59.1,102.4 h 80.2 L 105.6,0 Z M 38,6.4 h 61.2 l 50.5,87.4 H 88.5 Z"
   id="path4"
   style="fill:#e9e1d0;fill-opacity:1" />
	<path
   class="st0"
   d="M 46.5,54.9 0,102.4 H 73.9 Z M 44,68.3 61.2,96 H 16.9 Z"
   id="path6"
   style="fill:#e9e1d0;fill-opacity:1" />
	<path
   class="st0"
   d="M 141.5,47.5 188,0 H 114.1 Z M 144,34.1 126.8,6.4 h 44.3 z"
   id="path8"
   style="fill:#e9e1d0;fill-opacity:1" />
	<path
   class="st0"
   d="m 200.7,66.7 c -0.1,-0.2 -0.4,1.2 -0.7,3.9 -0.4,2.8 -0.6,4.8 -0.6,6.1 0.4,2.9 1.3,2.9 2.9,4.3 1.3,0.8 2.4,0.6 5.5,0.9 3.1,0.4 21.8,0.4 24.9,0 3.1,-0.3 5.8,-0.8 7.5,-1.9 3.3,-2.1 5.6,-5.2 6.8,-13.4 0.9,-4.5 1.2,-5.6 1.1,-7.7 -0.1,-2.8 -1.5,-4.7 -4.3,-5.7 -2.7,-1 -6.7,-0.5 -11.1,-0.5 H 224 c -9.4,0 -15,0 -17.8,2 -3,2.2 -4.3,5.1 -5.5,12 z m 66.9,-32.9 h -13.2 c 0.4,-3.2 0.3,-5.4 0.2,-7.3 -0.1,-2 -0.3,-3.8 -1.2,-4.4 -1.9,-1.6 -9.6,-1.5 -17.7,-1.5 H 228 c -8.1,0 -12.9,0 -15.4,1.8 -3.2,2.5 -5.1,6.3 -5.8,11.5 l -2.2,8.9 c 0,0 1.4,-2.2 4.7,-2.5 5.7,-0.6 15.1,0 18.6,0 8.6,0.1 15.8,-0.4 20.4,0.4 4.6,0.8 9.7,1.8 12.1,4.4 2.1,2.2 3.3,5.6 3.5,10.2 0.1,3 -0.4,7.9 -1.8,14.8 -0.7,3.3 -1.6,6.3 -2.6,8.9 -1,2.6 -2.3,5.1 -4.1,7.4 -1.7,2.3 -3.8,6.2 -6.2,7.5 -3.8,1.9 -8.6,1.8 -13,2.3 -4.4,0.5 -11.4,0 -18.3,0 -6.2,0 -12.5,0.1 -17,-0.4 -4.5,-0.5 -8.2,-1.9 -11.1,-3.9 -3.6,-2.6 -5.6,-7 -6,-13 0,-3.1 0.3,-6.7 1,-10.7 l 7.4,-39.1 c 1.4,-8.6 4,-15.2 10.2,-19.2 3.4,-2.2 7.6,-3.6 12.5,-4.3 4.9,-0.7 13,-1.1 20,-1.1 H 246 c 7.4,0 9.4,1 14.6,3 5.2,2 7.9,5.9 8.2,11.9 0.1,1.5 -0.3,9.2 -1.2,14.4 z"
   id="path10"
   style="fill:#e9e1d0;fill-opacity:1" />
	<path
   class="st0"
   d="m 318.5,16.8 c -8.7,0 -16.6,0.4 -19.5,1.2 -2.9,0.8 -4.6,0.7 -5.9,2.8 -1.3,2.1 -2.1,4.2 -2.4,6.5 -0.4,2.3 -0.7,5.3 -0.9,9.1 0.3,2.3 1,3.9 2.2,4.7 2.3,1.4 10.1,1.6 20.4,1.6 9.2,0 16,-0.2 19.6,-1.8 1.5,-0.6 2.8,-2 3.9,-4.1 1.1,-2.1 1.8,-3.7 2.6,-7.7 0.4,-2.4 0.6,-4.5 0.6,-6.2 -0.1,-2.1 -0.7,-3.6 -2,-4.3 -1.4,-0.8 -3.5,-1.3 -6.4,-1.5 -3,-0.2 -7,-0.3 -12.2,-0.3 z m 22.2,31.8 c 5.5,2.3 5.5,7.6 5.6,13.7 0,0.9 0.2,5.5 -0.1,7.1 -0.3,1.6 -0.2,2.8 -0.3,3.4 -1.2,5.6 -1.6,8.1 -3.5,11.4 -1.9,3.3 -3,5.7 -6.3,7.5 -2.9,1.6 -6.5,2.8 -10.9,3.4 -4.4,0.6 -12.1,1 -18.9,1 h -8.8 c -7.6,0 -13.5,-0.3 -17.8,-0.8 -4.3,-0.6 -6.8,-2.5 -9.3,-4.9 -2.4,-2.1 -4.6,-7.2 -5,-12.1 0.1,-2.3 0.5,-3.4 1.2,-7.7 0.9,-4 1.1,-7.2 1.8,-9.3 0.7,-2.1 2.1,-4.6 3.6,-6.6 1.5,-1.9 3.8,-3.4 6.5,-4.9 1.6,-1 2.1,-1.3 0.5,-2.7 -1.9,-1.6 -2.3,-3 -2.9,-4.9 -0.3,-0.6 -0.4,-6.4 -0.4,-6.6 0.8,-13.2 4.2,-20 10.4,-25.1 3.6,-3.1 5.2,-5 13.2,-5.6 4.1,-0.3 15.4,-0.5 21.1,-0.5 7.9,0 15.7,0.2 18.9,0.5 2.9,0.4 5.4,1 7.5,1.9 2.1,0.8 1.9,2.2 3.6,4.2 1.4,1.8 2.2,4.7 2.3,8.7 0.1,2.7 -0.1,5.6 -0.5,8.6 -0.4,3 -1.2,5.8 -2.3,8.6 -1.1,2.8 -2.6,5 -4.3,6.6 -2.2,2.4 -1.9,4.2 -4.9,5.1 -0.6,0.2 -1,0.1 -1,0 0.2,-0.2 0.5,-0.3 1,0 z m -31.1,5.9 c -5.6,0 -11.3,0 -14.3,0.3 -3,0.3 -5.5,1 -7.4,2 -1.8,0.8 -3.2,2.3 -4.3,4.4 -1.1,2.1 -2,5.1 -2.9,8.9 -0.7,4.4 -0.6,5.3 -0.8,6.5 0.3,2.3 0.8,3.7 2.5,4.5 1.8,0.8 4.3,2.1 7.7,2.3 2.6,0.3 9.6,0.4 16.5,0.4 7.2,0 12.8,0.5 16.7,-1 1.8,-0.8 3.9,-1 5,-3.1 1.2,-2.1 1.7,-4.3 2.6,-8.3 0.7,-3.1 1,-5.5 1,-7.3 0,-2 -0.6,-5.7 -1.7,-6.7 -0.9,-1 -2.9,-1.8 -6,-2.3 -2.9,-0.6 -8.3,-0.6 -14.6,-0.6 z"
   id="path12"
   style="fill:#e9e1d0;fill-opacity:1" />
	<path
   class="st0"
   d="m 385.5,96 c -7.9,0 -16.3,-0.5 -20.9,-1.5 -4.6,-1 -8,-2.8 -10.1,-5.3 -2.6,-3 -2.1,-7.2 -2.5,-13 0.2,-4.6 0.7,-9.3 1.5,-13.7 l 4.8,-25.4 c 1,-5.4 2.4,-10.4 4.2,-14.8 1.8,-4.4 4.4,-8.1 7.7,-11 1.9,-1.9 4.4,-3.3 7.5,-4.4 3.1,-1.1 6.6,-1.8 10.5,-2.1 3.9,-0.3 8.8,-0.5 14.5,-0.5 4.3,0 8.2,0.1 11.7,0.4 3.5,0.3 6.5,0.8 9.1,1.6 2.6,0.8 4.8,2 6.6,3.5 3.3,3 5,7.8 5.2,14.3 0.1,2.6 -0.3,7.1 -1.2,13.5 l -4.9,25.5 c -2.6,14.5 -5.8,24 -13.7,28.5 -3.2,1.8 -7,3 -11.6,3.5 -4.4,0.6 -12,0.9 -18.4,0.9 z m 14.9,-78.6 c -6,0 -10.3,0.1 -12.9,0.3 -2.6,0.2 -4.8,0.7 -6.7,1.5 -1.4,0.6 -2.7,1.4 -3.9,2.5 -1.1,1.1 -2.3,3 -3.4,5.6 -1.1,2.6 -2.1,4 -3,8.4 l -5.4,29 c -0.6,4.3 -1,5.6 -1.2,8.3 0.2,2.4 0.6,4.2 1.2,5.3 0.6,1.1 1.6,2 2.8,2.7 1.6,0.8 3.6,1.4 6.1,1.6 2.5,0.2 6.5,0.4 12.2,0.4 6.9,0 12,-0.2 15.4,-0.6 3.4,-0.4 5.9,-1.4 7.7,-2.9 3.2,-2.9 5.1,-7.3 7,-16.4 l 5,-26.7 c 0.7,-5.1 1.1,-6.8 1,-9.5 -0.1,-3.6 -0.2,-5.6 -1.8,-6.7 C 419,19 416.9,18.3 414.2,18 411.6,17.6 407,17.4 400.4,17.4 Z"
   id="path14"
   style="fill:#e9e1d0;fill-opacity:1" />
	<path
   class="st0"
   d="m 467.8,96 c -7.9,0 -16.3,-0.5 -20.9,-1.5 -4.6,-1 -8,-2.8 -10.1,-5.3 -2.6,-3 -2.1,-7.2 -2.5,-13 0.2,-4.6 0.7,-9.3 1.5,-13.7 l 4.8,-25.4 c 1,-5.4 2.4,-10.4 4.2,-14.8 1.8,-4.4 4.4,-8.1 7.7,-11 1.9,-1.9 4.4,-3.3 7.5,-4.4 3.1,-1.1 6.6,-1.8 10.5,-2.1 3.9,-0.3 8.8,-0.5 14.5,-0.5 4.3,0 8.2,0.1 11.7,0.4 3.5,0.3 6.5,0.8 9.1,1.6 2.6,0.8 4.8,2 6.6,3.5 3.3,3 5,7.8 5.2,14.3 0.1,2.6 -0.3,7.1 -1.2,13.5 l -4.9,25.5 c -2.6,14.5 -5.8,24 -13.7,28.5 -3.2,1.8 -7.1,3 -11.6,3.5 -4.3,0.6 -11.9,0.9 -18.4,0.9 z m 15,-78.6 c -6,0 -10.3,0.1 -12.9,0.3 -2.6,0.2 -4.8,0.7 -6.7,1.5 -1.4,0.6 -2.7,1.4 -3.9,2.5 -1.1,1.1 -2.3,3 -3.4,5.6 -1.1,2.6 -2.1,4 -3,8.4 l -5.4,29 c -0.6,4.3 -1,5.6 -1.2,8.3 0.2,2.4 0.6,4.2 1.2,5.3 0.6,1.1 1.6,2 2.8,2.7 1.6,0.8 3.6,1.4 6.1,1.6 2.5,0.2 6.5,0.4 12.2,0.4 6.9,0 12,-0.2 15.4,-0.6 3.4,-0.4 5.9,-1.4 7.7,-2.9 3.2,-2.9 5.1,-7.3 7,-16.4 l 5,-26.7 c 0.7,-5.1 1.1,-6.8 1,-9.5 -0.1,-3.6 -0.2,-5.6 -1.8,-6.7 -1.5,-1.2 -3.6,-1.9 -6.3,-2.2 -2.7,-0.4 -7.3,-0.6 -13.8,-0.6 z"
   id="path16"
   style="fill:#e9e1d0;fill-opacity:1" />
	<path
   class="st0"
   d="m 550.2,96 c -7.9,0 -16.3,-0.5 -20.9,-1.5 -4.6,-1 -8,-2.8 -10.1,-5.3 -2.6,-3 -2.1,-7.2 -2.5,-13 0.2,-4.6 0.7,-9.3 1.5,-13.7 L 523,37.1 c 1,-5.4 2.4,-10.4 4.2,-14.8 1.8,-4.4 4.4,-8.1 7.7,-11 1.9,-1.9 4.4,-3.3 7.5,-4.4 3.1,-1.1 6.6,-1.8 10.5,-2.1 3.9,-0.3 8.8,-0.5 14.5,-0.5 4.3,0 8.2,0.1 11.7,0.4 3.5,0.3 6.5,0.8 9.1,1.6 2.6,0.8 4.8,2 6.6,3.5 3.3,3 5,7.8 5.2,14.3 0.1,2.6 -0.3,7.1 -1.2,13.5 l -4.9,25.5 c -2.6,14.5 -5.8,24 -13.7,28.5 -3.2,1.8 -7.1,3 -11.6,3.5 -4.4,0.6 -12,0.9 -18.4,0.9 z m 14.9,-78.6 c -6,0 -10.3,0.1 -12.9,0.3 -2.6,0.2 -4.8,0.7 -6.7,1.5 -1.4,0.6 -2.7,1.4 -3.9,2.5 -1.1,1.1 -2.3,3 -3.4,5.6 -1.1,2.6 -2.1,4 -3,8.4 l -5.4,29 c -0.6,4.3 -1,5.6 -1.2,8.3 0.2,2.4 0.6,4.2 1.2,5.3 0.6,1.1 1.6,2 2.8,2.7 1.6,0.8 3.6,1.4 6.1,1.6 2.5,0.2 6.5,0.4 12.2,0.4 6.9,0 12,-0.2 15.4,-0.6 3.4,-0.4 5.9,-1.4 7.7,-2.9 3.2,-2.9 5.1,-7.3 7,-16.4 l 5,-26.7 c 0.7,-5.1 1.1,-6.8 1,-9.5 -0.1,-3.6 -0.2,-5.6 -1.8,-6.7 -1.5,-1.2 -3.6,-1.9 -6.3,-2.2 -2.6,-0.4 -7.2,-0.6 -13.8,-0.6 z"
   id="path18"
   style="fill:#e9e1d0;fill-opacity:1" />
</g>
</svg>
