<?xml version="1.0" encoding="UTF-8" standalone="no"?>
<!-- Generator: Adobe Illustrator 26.0.3, SVG Export Plug-In . SVG Version: 6.00 Build 0)  -->

<svg
   version="1.1"
   id="Layer_1"
   x="0px"
   y="0px"
   viewBox="0 0 264 82"
   xml:space="preserve"
   sodipodi:docname="zx81.svg"
   width="264"
   height="82"
   inkscape:version="1.1.2 (b8e25be833, 2022-02-05)"
   xmlns:inkscape="http://www.inkscape.org/namespaces/inkscape"
   xmlns:sodipodi="http://sodipodi.sourceforge.net/DTD/sodipodi-0.dtd"
   xmlns="http://www.w3.org/2000/svg"
   xmlns:svg="http://www.w3.org/2000/svg"><defs
   id="defs35" /><sodipodi:namedview
   id="namedview33"
   pagecolor="#ffffff"
   bordercolor="#666666"
   borderopacity="1.0"
   inkscape:pageshadow="2"
   inkscape:pageopacity="0.0"
   inkscape:pagecheckerboard="0"
   showgrid="false"
   inkscape:zoom="0.55104167"
   inkscape:cx="959.09263"
   inkscape:cy="540.79395"
   inkscape:window-width="2560"
   inkscape:window-height="1387"
   inkscape:window-x="-8"
   inkscape:window-y="-8"
   inkscape:window-maximized="1"
   inkscape:current-layer="Layer_1" />
<style
   type="text/css"
   id="style2">
	.st0{fill:#E9E1D0;}
</style>
<path
   class="st0"
   d="m 47.4,3.6 v 3.6 h 4.4 4.4 V 3.6 0 h -4.4 -4.4 z"
   id="path4"
   style="fill:#e9e1d0;fill-opacity:1" />
<path
   class="st0"
   d="m 209.3,3.6 v 3.6 h 4.4 4.4 V 3.6 0 h -4.4 -4.4 z"
   id="path6"
   style="fill:#e9e1d0;fill-opacity:1" />
<path
   class="st0"
   d="m 152.1,18.8 v 18.3 h 4.4 4.4 V 18.8 0.5 h -4.4 -4.4 z"
   id="path8"
   style="fill:#e9e1d0;fill-opacity:1" />
<path
   class="st0"
   d="m 0,17.5 v 8.8 l 18.2,0.1 c 17.7,0.2 18.2,0.2 18.2,1.2 0,1 -0.4,1 -18.2,1.2 H 0 v 3.9 3.9 H 22.7 45.4 V 27.8 19 h -18 -18 v -1.3 -1.3 h 18 18 V 12.5 8.8 H 22.7 0 Z"
   id="path10"
   style="fill:#e9e1d0;fill-opacity:1" />
<path
   class="st0"
   d="m 47.4,22.7 v 13.9 h 4.4 4.4 V 22.7 8.8 h -4.4 -4.4 z"
   id="path12"
   style="fill:#e9e1d0;fill-opacity:1" />
<path
   class="st0"
   d="m 58.3,22.7 v 13.9 h 4.6 4.6 v -10 -10 H 81 94.4 v 10 10 h 4.6 4.6 V 22.7 8.8 H 81 58.3 Z"
   id="path14"
   style="fill:#e9e1d0;fill-opacity:1" />
<path
   class="st0"
   d="m 105.2,22.7 v 13.9 h 22.4 22.4 v -3.9 -3.9 h -18 -18 v -6.2 -6.2 h 18 18 V 12.5 8.8 h -22.4 -22.4 z"
   id="path16"
   style="fill:#e9e1d0;fill-opacity:1" />
<path
   class="st0"
   d="m 162.9,12.6 v 3.9 l 17.7,0.1 c 17.2,0.2 17.6,0.2 17.6,1.2 0,1 -0.4,1 -17.6,1.2 l -17.7,0.1 v 8.8 8.8 h 22.4 22.4 V 22.7 8.8 h -22.4 -22.4 z m 35.4,15 c 0,1 -0.4,1 -13.3,1.2 -12.6,0.1 -13.3,0.1 -13.3,-0.8 0,-0.5 0.2,-1.1 0.4,-1.3 0.2,-0.2 6.1,-0.3 13.3,-0.2 12.4,0 12.9,0.1 12.9,1.1 z"
   id="path18"
   style="fill:#e9e1d0;fill-opacity:1" />
<path
   class="st0"
   d="m 209.3,22.7 v 13.9 h 4.4 4.4 V 22.7 8.8 h -4.4 -4.4 z"
   id="path20"
   style="fill:#e9e1d0;fill-opacity:1" />
<path
   class="st0"
   d="m 219.7,22.7 v 13.9 h 4.6 4.6 l 0.1,-9.9 0.2,-9.9 17.4,-0.2 17.4,-0.1 V 12.6 8.8 h -22.2 -22.2 v 13.9 z"
   id="path22"
   style="fill:#e9e1d0;fill-opacity:1" />
<path
   class="st0"
   d="m 79.4,46.4 v 3.1 h 8.8 c 4.8,0 8.8,0.2 8.8,0.4 0,0.3 -4.4,5.8 -9.8,12.4 l -9.8,12 v 3.6 3.6 h 15.5 15.5 V 78.4 75.3 L 97.6,75.2 86.7,75 97.3,62 l 10.6,-13 -0.2,-2.7 -0.2,-2.7 -14,-0.2 -14.1,-0.1 z"
   id="path24"
   style="fill:#e9e1d0;fill-opacity:1" />
<path
   class="st0"
   d="m 111.3,44.2 c 0.3,0.6 2.9,4.6 5.7,8.9 2.9,4.3 5.1,8.2 5,8.7 -0.1,0.4 -2.9,4.9 -6.2,9.9 -3.4,5 -6,9.3 -6,9.4 0,0.2 2,0.3 4.5,0.3 h 4.5 l 4.2,-6.5 4.2,-6.5 4.2,6.5 4.2,6.5 h 4.6 c 3.6,0 4.5,-0.2 4.2,-0.6 -0.2,-0.4 -3.1,-4.8 -6.5,-9.8 l -6.1,-9.1 5.9,-9.2 5.9,-9.2 -3.9,-0.2 c -2.2,-0.1 -4.2,-0.1 -4.5,0.1 -0.4,0.1 -2.2,2.8 -4.1,5.9 -1.9,3.1 -3.6,5.7 -3.8,5.7 -0.2,0 -2,-2.6 -3.9,-5.8 l -3.6,-5.8 -4.5,-0.2 c -4.3,0 -4.5,0.1 -4,1 z"
   id="path26"
   style="fill:#e9e1d0;fill-opacity:1" />
<path
   class="st0"
   d="m 153.6,44.7 c -5.9,3.1 -6.9,10.8 -1.9,14.8 l 1.8,1.4 -1.5,1.1 c -4.9,3.3 -5.9,10.7 -2.1,15.7 2,2.6 6.2,4.3 10.4,4.3 4.3,0 7.3,-1.2 9.5,-3.8 4,-4.6 3.9,-11.4 -0.2,-15.1 -1.1,-1 -2.3,-1.9 -2.7,-1.9 -0.3,0 0.4,-0.9 1.5,-2 2.4,-2.2 3.5,-5.1 2.9,-7.9 -1,-5.4 -4.9,-8.2 -11.5,-8.2 -2.8,0.2 -4,0.4 -6.2,1.6 z m 9.6,5.5 c 0.9,0.8 1.3,1.8 1.3,3 0,2.5 -0.4,3.3 -2.1,4.2 -2.1,1.1 -3.8,0.9 -5.5,-0.5 -1.1,-1 -1.4,-1.6 -1.4,-3.4 0,-1.8 0.3,-2.4 1.4,-3.4 2,-1.6 4.6,-1.6 6.3,0.1 z m -0.8,14.4 c 3.6,1.9 4.1,7.4 1.1,10.1 -5,4.4 -11.3,-2.4 -7.8,-8.2 1.6,-2.5 4,-3.2 6.7,-1.9 z"
   id="path28"
   style="fill:#e9e1d0;fill-opacity:1" />
<path
   class="st0"
   d="m 178.9,62.3 v 19.1 h 3.9 3.9 v -19.1 -19 h -3.9 -3.9 z"
   id="path30"
   style="fill:#e9e1d0;fill-opacity:1" />
</svg>
