<svg id="Layer_1" data-name="Layer 1" xmlns="http://www.w3.org/2000/svg" viewBox="0 0 1920 300.67"><defs><style>.cls-1{fill:#fff;}</style></defs><path class="cls-1" d="M7964.51,7194.91c.51-2.43,1-4.87,1.53-7.3,7.88-34.91,27.33-59.67,62.5-70.2a84.63,84.63,0,0,1,43.92-1.19,67,67,0,0,1,27.4,13.66l5.94,4.84c.57-25.31-.13-49.6.4-74.2h52.45c1.39,4.72,1.9,228.85.6,238.57-4.48,1.38-42.32,1.72-50.5.31v-18a20.63,20.63,0,0,0-2.73,2.28c-8,10.94-18.83,17.5-31.93,20.08-29.46,5.8-56.43.55-79.45-19.56-15.79-13.79-24.51-31.72-28.62-52.06-.38-1.87-.79-3.75-1.13-5.39H7829c.61,2.73.91,4.79,1.54,6.74,6.62,20.36,27.25,28.75,45.59,26.82a36.06,36.06,0,0,0,24.41-12.93c1.89-2.22,3.75-3.69,7-3.66,15.89.17,31.79.08,47.68.11a28.15,28.15,0,0,1,3,.37,46.71,46.71,0,0,1-1.82,4.83c-12.8,25.37-31.39,44.46-59.17,53-51.23,15.72-106.68-16.49-119.05-68.9-11.74-49.73,17.5-101.07,65.69-115.3a93.93,93.93,0,0,1,118.31,69.5c.57,2.5,1.13,5,1.7,7.49Zm98.59,60.77c26.12-.09,45.85-20,45.81-46.33-.05-25.42-19.88-45-45.63-45-26.05,0-45.75,19.69-45.56,45.63C8017.91,7236.53,8037,7255.77,8063.1,7255.68Zm-152.89-65.9c-1.61-16.18-18.53-29.44-38.59-30.35-20.27-.93-38.16,12-41.57,30.35Z" transform="translate(-6240 -7059.15)"/><path class="cls-1" d="M7557.59,7137.48v-16.8h109.69l35.4,102.43,1.31.11c6.12-16.89,11.35-34.08,17.07-51.11s11.27-34.18,17-51.49h57.11l-89.9,239.19h-56.93c1-2.62,1.77-4.8,2.64-6.92,7.87-19,15.7-38.06,23.67-57a11.21,11.21,0,0,0,.25-9.18q-30.39-77.22-60.55-154.51a6.07,6.07,0,0,0-2.6-3.24V7299.8h-54.09v-18.28c-3.47,3.93-5.76,7-8.52,9.55-7.91,7.39-17.57,11.42-28,13.5-47.51,9.46-91.94-18.84-103.59-66.69-7.92-32.51-3.75-63.5,17.66-90.13,22.88-28.47,53-39,88.92-31.06a53,53,0,0,1,32.16,21.14Zm-45.28,118.43c25.31.13,45.1-19.64,45.29-45.25a45.67,45.67,0,0,0-45.24-46.34c-24.69-.16-44.48,20.32-44.58,46.14A44.92,44.92,0,0,0,7512.31,7255.91Z" transform="translate(-6240 -7059.15)"/><path class="cls-1" d="M6635,7252.74v47.07H6503V7060.57h61v184.67c5.06,1.39,60.47,1.78,69.36.61-1.4-6.67-3.33-13.28-4.09-20-4.3-38,5.74-70.84,37.07-94.66,21.12-16.06,45.31-20.79,71.32-14.66,13.4,3.16,24.49,10.11,33.82,21.19v-17h53.82V7299.8h-53.5v-18.22c-3.6,4-6,7.27-9,9.9-10.18,9.07-22.53,13.24-35.83,14.33-40.05,3.3-71.74-14.89-89.42-50.92-.38-.76-.84-1.48-1.27-2.21Zm91.35,3.17c25.36.17,45.15-19.54,45.36-45.16s-19.85-46.21-45.12-46.43c-24.72-.21-44.42,20.11-44.63,46A44.84,44.84,0,0,0,6726.34,7255.91Z" transform="translate(-6240 -7059.15)"/><path class="cls-1" d="M7170.13,7060.47c2.58-.12,4.68-.31,6.77-.31q39,0,77.93,0a173,173,0,0,1,36.44,3.63c29.52,6.4,47.62,24.82,56.15,53.29.72,2.42,1.24,4.91,2.82,7.35v-63.88h53.66v239.23h-53.54c-.08-15.69,0-31.24,0-46.79s0-30.9,0-46.34v-46.78l-1-.1c-.77,3-1.45,6.1-2.32,9.11-8.1,27.91-27.08,44.46-54.61,51.91a121.17,121.17,0,0,1-31.83,4.08h-31.73c-.16,12.81-.06,25.15-.08,37.5s0,24.43,0,36.51c-4.89,1.69-52.1,2-58.64.37Zm59,109.74c8.68,1.54,35.15,1.09,42.45-.93a29.33,29.33,0,0,0,8.83-3.68,26.66,26.66,0,0,0,7.66-7.56c10.46-17.16,1.78-37.84-17.73-42.23-13.5-3-27.22-1.45-41.21-1.68Z" transform="translate(-6240 -7059.15)"/><path class="cls-1" d="M6834.05,7246.88h52.8a15,15,0,0,1,.87,2.2c3.73,15.48,23.12,17.28,33.16,10,6.86-4.95,7.71-14.25,1.46-20.09a35.43,35.43,0,0,0-10.24-6.48c-6.9-2.91-14.15-5-21.11-7.76-9.73-3.89-19.35-8.08-29-12.2a22.9,22.9,0,0,1-3.32-2c-23.91-15.28-29.89-41.87-14.65-65.93,9.06-14.3,22.49-22.74,38.47-27.33a85.57,85.57,0,0,1,51.95,1.27c15.27,5.15,27.08,14.57,34.39,29.19a4.13,4.13,0,0,0,2.36,2v-29.38h26.53c.57-7.06.23-13.65.29-20.21s0-12.87,0-19.31v-20.33h53.81v59.54h25.56v40.78h-25.17c-.7,8.24-.27,15.88-.35,23.5s0,15.44,0,23.17v92.2h-53.93V7161.15H6974c.25,3.5.45,6.2.67,9.26h-51.8a5.22,5.22,0,0,1-.89-1.32,17.69,17.69,0,0,0-27-8.89c-6,4.21-7,12.05-1.71,17.27a27.57,27.57,0,0,0,9.11,5.85c6.57,2.57,13.41,4.44,20.13,6.64,7.53,2.47,15.1,4.81,22.54,7.55a70.78,70.78,0,0,1,10.95,5.38c19.32,11.21,26.74,27.48,23.75,50.59-2.29,17.68-11.75,31-26.69,40.55a76.1,76.1,0,0,1-31.27,11.18c-17.08,2.26-33.84,1.23-49.88-5.75C6850.18,7290,6836.45,7271.14,6834.05,7246.88Z" transform="translate(-6240 -7059.15)"/><path class="cls-1" d="M6435,7082.88l13-14.36c4.43,17.85,8.58,34.6,13,52.34-17.23-2.62-33.42-6.44-50.88-9.64l11.3-13.08c-30.26-24-85.08-29.41-125.45,4.74a102.49,102.49,0,0,0,105.45,172.92c44.23-18.27,76.67-70,57.64-129.17l16.3-8.25c15.85,31.36,13.72,93.48-32.33,134A122,122,0,0,1,6264.36,7108C6302.21,7057.49,6376.13,7041.18,6435,7082.88Z" transform="translate(-6240 -7059.15)"/><path class="cls-1" d="M6358.85,7181.45c-1.73-2.13-3.15-3.95-4.66-5.71q-17.52-20.53-35.06-41.05a34.62,34.62,0,0,1-3.9-5.08,7.54,7.54,0,0,1,10.93-9.9,17.54,17.54,0,0,1,3.21,3.12q22.5,26.41,44.95,52.87c5.06,6,4.8,8.84-1.13,13.93q-19,16.34-38.12,32.56c-2.12,1.82-4.2,3.79-7.35,3.21a8.32,8.32,0,0,1-6.57-5.53c-1.19-3.15-.35-5.86,2.22-8.06l18.08-15.44C6347.13,7191.51,6352.8,7186.64,6358.85,7181.45Z" transform="translate(-6240 -7059.15)"/><path class="cls-1" d="M6366.1,7257v19.11h-7.41v-18.74Z" transform="translate(-6240 -7059.15)"/><path class="cls-1" d="M6359.61,7085.28h7.15v19h-7.15Z" transform="translate(-6240 -7059.15)"/><path class="cls-1" d="M6267.62,7188.13v-7.26h18.87v7.26Z" transform="translate(-6240 -7059.15)"/><path class="cls-1" d="M6456,7180.55v7.53H6437c-.1-2.17-.2-4.37-.33-7.16C6443.14,7179.94,6449.2,7180.48,6456,7180.55Z" transform="translate(-6240 -7059.15)"/></svg>