<svg id="Layer_1" data-name="Layer 1" xmlns="http://www.w3.org/2000/svg" viewBox="0 0 1920 259.15"><defs><style>.cls-1{fill:#fff;}</style></defs><path class="cls-1" d="M7230.19,7232.11h-73v-49.53c4.59-1.32,138.88-1.62,146.86-.22v21.53l1.12.21c.71-2.19,1.4-4.4,2.14-6.59,10.95-32.71,32-55.09,65.88-64.35a84.26,84.26,0,0,1,36.26-1.64c16.28,2.7,30.18,9.85,41.18,23.35v-17.79h55.43V7322H7451.2v-17.56c-1.05,0-1.66-.08-1.79.11-9.81,14.46-24.27,21-40.87,23.23-51.46,7-95.7-25.89-104-77.34-1.59-9.91-1.66-20.07-2.4-29.71-1.31,4.79-2.62,10.11-4.23,15.34-15.61,51-57.73,85.53-110.86,90.55-46.64,4.41-86.39-10-116.81-46-57.21-67.64-33-182,69.37-206.35,54.67-13,101,3.73,137.65,46.36a93.69,93.69,0,0,1,19.14,36.62,45.1,45.1,0,0,1-4.7.51c-20.39,0-40.78-.06-61.17.1-3.52,0-5.56-1.08-7.48-4.07-25.23-39.28-82-35.65-106.43.21-18.4,27-17.37,67.92,3,93.47,15.79,19.79,37,26.42,61.5,23.88a62.22,62.22,0,0,0,24-7.35,51.7,51.7,0,0,0,23.95-27.43A40.25,40.25,0,0,0,7230.19,7232.11Zm220.62-2.64a46.83,46.83,0,0,0-47.27-47.1c-25.34.13-45.2,20.91-45.35,47.44-.15,26,20.83,47.31,46.51,47.16C7430.6,7276.81,7450.82,7256,7450.81,7229.47Z" transform="translate(-6239.5 -7069.92)"/><path class="cls-1" d="M6399.19,7112.05c25.48,0,51,.16,76.44,0,29.11-.23,49.23,13.29,61.52,39.25,5.94,12.56,8.48,26,10.5,39.62,3.89,26.27,7.71,52.54,11.7,78.79,3.33,21.93-7.72,42.35-27.7,50.77a45.81,45.81,0,0,1-56-16.25,375.56,375.56,0,0,1-23-37.3c-5.53-10.36-12.89-14.27-24.57-13.81-20.35.79-40.76.41-61.14.13-8.21-.12-13.77,2.92-17.88,10.08-7,12.28-14.7,24.22-22,36.34s-17.55,20.33-31.59,23.43c-31.26,6.9-60.23-20.16-55.46-51.76,4.69-31.07,9-62.19,14.06-93.2a140.63,140.63,0,0,1,7.67-28.06c9.2-23.66,27.38-35.57,52.37-37.61,3.52-.29,7.08-.36,10.62-.36Q6362,7112,6399.19,7112.05ZM6318,7201.24c0,3.32-.13,5.53,0,7.72.58,8.29,6.6,14.26,14.45,14.48s14-5.48,15-13.81c.29-2.58.39-5.19.61-8.39,2.52,0,4.7.1,6.86,0,8.75-.51,14.82-6.52,14.87-14.66s-5.8-14.23-14.6-14.86c-2.34-.17-4.68-.27-7.19-.41-.2-3.08-.26-5.49-.51-7.87-.89-8.5-6.75-14-14.78-14s-14.19,6.09-14.73,14.8c-.14,2.32-.24,4.65-.38,7.45-2.9,0-5.09-.13-7.26,0-8.66.6-14.79,6.89-14.65,14.9s6.42,14.11,15.09,14.59C6312.91,7201.34,6315.07,7201.24,6318,7201.24Zm163.41,15a14.7,14.7,0,1,0-14.77,14.56A14.7,14.7,0,0,0,6481.37,7216.23Zm-29.6-30.14a14.93,14.93,0,0,0-15.14-14.36,14.62,14.62,0,0,0-14.38,15,14.91,14.91,0,0,0,15,14.48C6445.16,7201,6452,7193.94,6451.77,7186.09Zm29.6-29.46a14.71,14.71,0,1,0-29.41,0,14.71,14.71,0,0,0,29.41,0Zm15,15.1a15,15,0,0,0-14.81,14.73,15.3,15.3,0,0,0,14.91,14.76,15,15,0,0,0,14.65-14.86A14.61,14.61,0,0,0,6496.39,7171.73Z" transform="translate(-6239.5 -7069.92)"/><path class="cls-1" d="M6865,7322.18H6741.8c-4-11.76-8-23.45-12.07-35.32H6643.8q-6.39,17.24-13.06,35.21h-67.91l99.11-246.81h50.28l96,241.51,1.44-.32V7075.37H6865Zm-152.12-86.25c-8.5-28.12-16.83-55.69-25.16-83.27-9.57,27.72-18.17,55.17-26.14,83.27Z" transform="translate(-6239.5 -7069.92)"/><path class="cls-1" d="M7695.43,7322.14h-55.69v-7.31c0-31,.08-62-.07-93a91.3,91.3,0,0,0-1.63-17.79c-2.68-13.09-11-20.5-22.89-21.28-15.62-1-26.08,4.83-31,17.46-2.89,7.34-3.38,15.05-3.37,22.84q0,45.49,0,91v8c-18.6.73-36.8.14-55.35.34V7137h51.3v17.53l1.15.79c12.89-19.77,32-25.56,53.93-24.82,22.94.77,38.91,12.82,50.47,32.51,1.89-2.44,3.32-4.3,4.77-6.15,12.76-16.21,29.28-25.63,50-26.15a97.52,97.52,0,0,1,25.64,2.43c24.34,6,38.14,22.72,44.36,46.37,2.79,10.59,3.18,21.42,3.18,32.28q0,50.47,0,101v8.5c-5,1.4-43.11,1.82-55.2.62-.09-2.41-.29-5-.29-7.52,0-29.22,0-58.44,0-87.67a154.79,154.79,0,0,0-.93-17.89c-2.51-20.94-16.81-30.37-37.33-25.06-9.17,2.38-15.47,8-18,16.88a74.43,74.43,0,0,0-2.85,19.57c-.29,31.43-.14,62.87-.14,94.31Z" transform="translate(-6239.5 -7069.92)"/><path class="cls-1" d="M8005.5,7265.05c-8.87,19.8-21.46,36.39-39.73,48.33-22.1,14.44-46.27,18.2-71.89,12.77-53.59-11.37-87.28-65.48-74.47-119.33,13-54.77,67.37-87.72,121.2-72.95,57.92,15.9,77.59,73.81,69.82,112.69H7872.19a41.43,41.43,0,0,0,.7,5.47c4.48,15.93,18.79,27.41,35.91,29.17,15.1,1.55,28.11-2.19,38-14.35a6.62,6.62,0,0,1,5.63-2.79c17.06.11,34.11.09,51.17.14C8003.93,7264.2,8004.3,7264.51,8005.5,7265.05Zm-132.78-56.44h83c-2-16.41-18.61-30.09-37.38-31.15C7895.36,7176.16,7877.84,7187.83,7872.72,7208.61Z" transform="translate(-6239.5 -7069.92)"/><path class="cls-1" d="M8153.05,7188.63h-53.34c-.38-.43-.82-.71-.93-1.08a18,18,0,0,0-28.58-9.07c-5.64,4.47-6.33,12.42-.9,17.45a33.42,33.42,0,0,0,10.65,6.51c7.23,2.74,14.8,4.53,22.13,7,8.78,3,17.8,5.59,26.12,9.6,32.31,15.59,41,52.61,19.51,81.58a63.27,63.27,0,0,1-28.28,21.33c-22.28,8.75-45,9.58-67.59,1.53-23.8-8.48-38.32-25.46-43.32-50.36a24.09,24.09,0,0,1-.48-3.27,11.32,11.32,0,0,1,.36-2.3h54c.51,1.28,1.13,2.64,1.6,4.05,5.37,16.21,29.07,15.18,36.58,5.7a13.21,13.21,0,0,0-1.46-18,33.18,33.18,0,0,0-9.41-6.08c-6.9-2.94-14.09-5.24-21.1-7.94-9.08-3.49-18.16-7-27.13-10.75a65.5,65.5,0,0,1-9.2-5.29c-25.1-15.77-26.32-40.81-17.09-61.51,5.42-12.17,14.67-21.09,26.36-27.19,25.15-13.1,51.08-13.81,76.92-2.63,19,8.24,30.09,23.45,34,43.79A66.79,66.79,0,0,1,8153.05,7188.63Z" transform="translate(-6239.5 -7069.92)"/><path class="cls-1" d="M6939.33,7322.09c-1.81.13-3.12.3-4.42.3-16.59,0-33.18,0-49.66,0-1.44-5-1.8-238.52-.42-247.09h54.5Z" transform="translate(-6239.5 -7069.92)"/><path class="cls-1" d="M6340.4,7094.07c-6,0-11.93.1-17.89,0-6.38-.14-10-3.41-10.19-8.88s3.76-9.65,10.19-9.76c11.69-.22,23.4-.19,35.1,0,6.45.1,10.56,4,10.59,9.45s-4,9.11-10.58,9.23C6351.88,7094.15,6346.14,7094.07,6340.4,7094.07Z" transform="translate(-6239.5 -7069.92)"/><path class="cls-1" d="M6459,7094.06c-6,0-11.92.13-17.88,0-5.75-.16-9.46-3.59-9.79-8.68a9.29,9.29,0,0,1,9.39-9.89q18.53-.44,37.07,0c5.94.14,9.65,4.49,9.4,9.84-.23,5.14-3.85,8.58-9.66,8.73C6471.31,7094.19,6465.13,7094.06,6459,7094.06Z" transform="translate(-6239.5 -7069.92)"/></svg>