<?xml version="1.0" encoding="UTF-8" standalone="no"?>
<svg
   id="Layer_1"
   data-name="Layer 1"
   viewBox="0 0 1920.0214 313.96957"
   version="1.1"
   sodipodi:docname="auto-favorites.svg"
   width="1920.0214"
   height="313.96957"
   inkscape:version="1.1.2 (b8e25be833, 2022-02-05)"
   xmlns:inkscape="http://www.inkscape.org/namespaces/inkscape"
   xmlns:sodipodi="http://sodipodi.sourceforge.net/DTD/sodipodi-0.dtd"
   xmlns="http://www.w3.org/2000/svg"
   xmlns:svg="http://www.w3.org/2000/svg">
  <sodipodi:namedview
     id="namedview29"
     pagecolor="#ffffff"
     bordercolor="#666666"
     borderopacity="1.0"
     inkscape:pageshadow="2"
     inkscape:pageopacity="0.0"
     inkscape:pagecheckerboard="0"
     showgrid="false"
     inkscape:zoom="0.55104167"
     inkscape:cx="959.99999"
     inkscape:cy="156.06805"
     inkscape:window-width="2560"
     inkscape:window-height="1387"
     inkscape:window-x="-8"
     inkscape:window-y="-8"
     inkscape:window-maximized="1"
     inkscape:current-layer="Layer_1" />
  <defs
     id="defs4">
    <style
       id="style2">.cls-1{fill:#fff;}</style>
  </defs>
  <path
     class="cls-1"
     d="m 407.72,123.5516 h 85.9 v 57.71 c 2.88,-11.58 4.58,-22.72 8.42,-33.07 14.57,-39.28 41.86,-64.690002 83.42,-73.550002 a 97.17,97.17 0 0 1 45.92,1.23 c 16.14,4.34 29.8,12.66 40.84,28.250002 V 81.821598 c 6.84,-2 114.84,-2.71 137.31,-1.11 14,45.510002 28.08,91.380002 42.18,137.250002 l 1.54,0.07 q 21.09,-68.65 42.2,-137.360002 h 69.22 L 884.4,303.2616 H 820.2 Q 780.81,193.5316 741.38,83.741598 l -1.48,0.27 V 303.2616 c -22.38,0.93 -44.07,0.15 -66.6,0.48 v -22.2 c -1.59,0.51 -2.53,0.51 -2.83,1 -12,17.72 -29.93,25.29 -50.12,27.66 -61.51,7.2 -112.75,-31.26 -123.41,-92.26 -1.55,-8.86 -2.19,-17.89 -3.3,-27.23 H 407.3 c -0.05,12.47 -0.11,24.86 -0.13,37.25 -0.02,12.39 0,25 0,37.53 v 37.77 H 335.5 c -1.81,-5.85 -2.66,-276.140002 -0.85,-297.0000019 17.81,-0.89 35.79,-0.28 53.74,-0.39 17.95,-0.11 35.7,0 53.55,0 h 54.54 V 72.261598 c -9.74,0.64 -19.49,0.22 -29.21,0.29 -9.72,0.07 -19.71,0 -29.57,0 h -29.94 z m 265,68.4 c 0.05,-31.41 -25.5,-57.08 -56.74,-57 -30.2,0.06 -54.53,25.39 -54.78,57 -0.24,31.32 24.87,56.88 55.79,56.79 31.16,-0.07 55.67,-25.05 55.72,-56.79 z"
     id="path6"
     style="fill:#e9e1d0;fill-opacity:1" />
  <path
     class="cls-1"
     d="m 1742.41,212.3316 h -167.43 c 0.79,3.52 1.15,6.31 2,8.93 6.3,18.71 23.8,31.46 44.86,33 17,1.24 31.54,-3.63 42.65,-17 2,-2.37 3.95,-3.82 7.34,-3.79 20.23,0.17 40.47,0.1 60.7,0.13 a 23.22,23.22 0 0 1 3.25,0.63 c -11.44,25.37 -27.55,46.21 -51.33,60.56 -26.9,16.25 -55.85,19.76 -86.13,12.39 -63.91,-15.6 -102.5,-80.92 -85.82,-144.92 16.86,-64.550002 80.78,-102.470002 144.28,-85.520002 30.86,8.23 54.35,26.370002 70.25,53.910002 14.47,24.94 19.3,51.94 15.38,81.68 z m -66.43,-45.73 c -3.51,-22.26 -25.53,-38.14 -51.44,-37.49 -24.68,0.62 -45.45,16.71 -47.92,37.49 z"
     id="path8"
     style="fill:#e9e1d0;fill-opacity:1" />
  <path
     class="cls-1"
     d="m 1065.13,72.621598 c 50.71,0.56 94.08,28.750002 111.86,73.610002 25.11,63.41 -4.92,145.89 -86.65,161.44 -50,9.51 -93.56,-4.38 -124,-46.78 -46.35,-64.55 -18.27,-168.490002 75.84,-185.680002 7.55,-1.38 15.32,-1.75 22.95,-2.59 z M 1011.55,193.7016 a 123,123 0 0 0 1.95,12.56 c 5.7,23.66 26.43,41 49.54,41.7 24.45,0.73 45.21,-14.38 52.78,-38.37 3.28,-10.41 4,-20.95 1.14,-31.49 -5.66,-21.2 -18.5,-36 -40.24,-41.12 -20.08,-4.69 -37.43,1.39 -51.07,17 -9.3,10.54 -13.74,23.15 -14.1,39.72 z"
     id="path10"
     style="fill:#e9e1d0;fill-opacity:1" />
  <path
     class="cls-1"
     d="m 1913.35,142.5916 h -63.71 c -3,-4.66 -4.81,-9.34 -8.15,-12.33 -6.66,-6 -21.55,-5.24 -28.43,0.5 -6.43,5.37 -7.18,14.37 -1,20.42 a 34.71,34.71 0 0 0 11.26,7.29 c 7.89,3.12 16.13,5.36 24.19,8.06 10.83,3.64 21.86,6.82 32.35,11.25 a 92.83,92.83 0 0 1 19.78,11.84 c 12.78,9.75 19.29,23.1 20.22,39.14 1.89,32.67 -12.85,58.28 -42.58,72 -29.49,13.62 -59.92,14.33 -90,2.43 -25.83,-10.22 -41.56,-29.79 -47.62,-57 a 39.85,39.85 0 0 1 -0.71,-4.74 28.31,28.31 0 0 1 0,-3.05 c 6.15,-1.9 40,-2.47 65,-1.13 a 39.4,39.4 0 0 1 2,4.68 c 5.42,18.67 32.44,19.54 43.17,8.26 a 16,16 0 0 0 -1.15,-22.89 46.88,46.88 0 0 0 -12.8,-7.93 c -8.57,-3.59 -17.5,-6.33 -26.22,-9.56 -8.48,-3.14 -17,-6.23 -25.29,-9.77 a 99.89,99.89 0 0 1 -14,-7.55 c -30.19,-19 -37.47,-53 -17.87,-83 a 75,75 0 0 1 33.27,-27.770002 c 27.7,-12.23 56,-12.76 83.84,-1.31 26.92,11.18 41.25,32.260002 44.45,62.160002 z"
     id="path12"
     style="fill:#e9e1d0;fill-opacity:1" />
  <path
     class="cls-1"
     d="m 1422.61,130.9916 h -32.77 V 80.371598 h 32.4 V 7.3715981 c 6.63,-2 58.95,-2.18 67.1,-0.32 V 80.171598 h 31.74 V 130.8916 h -31.58 c -0.23,29.36 -0.08,58 -0.11,86.62 0,28.4 0,56.81 0,85.68 h -66.81 z"
     id="path14"
     style="fill:#e9e1d0;fill-opacity:1" />
  <path
     class="cls-1"
     d="m 1196.01,80.611598 h 61.88 V 101.4416 l 1.31,0.6 c 3.21,-4.190002 6,-8.770002 9.73,-12.440002 a 58,58 0 0 1 13.2,-10.12 61.36,61.36 0 0 1 15.78,-5.35 c 5.33,-1.15 10.89,-1.21 16.9,-1.8 V 139.4216 c -4.21,0.43 -8.4,0.62 -12.51,1.32 -5.49,0.92 -11.07,1.75 -16.33,3.48 -14.46,4.76 -22,15.2 -23.24,30.22 -0.29,3.44 -0.22,6.92 -0.22,10.38 q 0,54.69 0,109.39 v 9 h -66.49 z"
     id="path16"
     style="fill:#e9e1d0;fill-opacity:1" />
  <path
     class="cls-1"
     d="m 1317.94,80.261598 c 20.12,0 39.8,0 59.48,0 1.83,0 3.66,0.19 6.05,0.31 V 302.2616 c -5.45,1.71 -47.75,2.34 -64.87,0.93 -0.2,-0.18 -0.4,-0.36 -0.58,-0.55 -0.18,-0.19 -0.43,-0.37 -0.48,-0.6 a 11.06,11.06 0 0 1 -0.37,-2.35 q 0,-108.14 0,-216.270002 a 18.11,18.11 0 0 1 0.77,-3.16 z"
     id="path18"
     style="fill:#e9e1d0;fill-opacity:1" />
  <path
     class="cls-1"
     d="m 0,90.441598 c 6,-0.77 10.47,-1.31 14.89,-1.89 a 87.28,87.28 0 0 0 76,-81.9999999 c 0.13,-2.44 -1.14,-6.33000003 2.54,-6.54000003 4.35,-0.26 3.43,3.91000003 3.5,6.62000003 1,37.7799999 31.3,78.9999999 82.18,82.7399999 2.66,0.19 6.05,-0.94 7.44,2.75 -0.83,3.36 -3.54,2.71 -5.81,3.07 -7.08,1.12 -14.34,1.65 -21.18,3.62 C 124.01,109.0016 99.39,140.0916 96.98,177.1016 c -0.19,2.9 1.09,7.62 -3.52,7.42 -3.92,-0.18 -2.43,-4.63 -2.59,-7.3 A 87.37,87.37 0 0 0 12.58,95.761598 c -2.91,-0.3 -5.91,-0.24 -8.71,-1 -1.23,-0.24 -2.02,-2.12 -3.87,-4.32 z"
     id="path20"
     style="fill:#e9e1d0;fill-opacity:1" />
  <path
     class="cls-1"
     d="m 317.31,169.7916 c -1.9,2.08 -2.56,3.39 -3.58,3.79 a 14.69,14.69 0 0 1 -4.71,0.6 c -30.93,1.16 -63.06,26.07 -66,66 a 19.8,19.8 0 0 1 -0.53,4.72 3.07,3.07 0 0 1 -2.4,1.53 3,3 0 0 1 -2.32,-1.58 33.7,33.7 0 0 1 -1,-6.26 70,70 0 0 0 -64.92,-64.37 c -2.63,-0.21 -7.06,1.1 -7.15,-2.92 -0.1,-4.93 4.72,-3 7.43,-3.21 34.12,-2.68 61.85,-30.08 64.6,-64 a 39.31,39.31 0 0 1 1.09,-7.000002 3,3 0 0 1 2.4,-1.55 3.22,3.22 0 0 1 2.28,1.72 13.88,13.88 0 0 1 0.46,3.910002 c 3.15,37.59 29.54,64 66.86,66.93 2.14,0.16 4.21,0.92 7.49,1.69 z"
     id="path22"
     style="fill:#e9e1d0;fill-opacity:1" />
  <path
     class="cls-1"
     d="m 131.18,195.5816 c 2.3,1.62 4,2.19 4.4,3.25 0.67,1.66 0.43,3.66 0.68,5.5 3.61,26.58 22.2,44.85 48.82,48.1 2.4,0.29 6.37,-1.1 6.56,2.59 0.23,4.3 -4.09,3.21 -6.68,3.52 -27.15,3.33 -45.42,21.55 -48.86,48.81 -0.31,2.43 1,6.42 -2.62,6.61 -4.29,0.22 -3.23,-4.16 -3.44,-6.73 -2.16,-27.06 -24.76,-47.26 -48.84,-48.66 -1.06,-0.06 -2.31,0.11 -3.13,-0.39 a 27.28,27.28 0 0 1 -3.78,-3.23 c 1.23,-0.79 2.36,-2 3.69,-2.31 3.9,-0.79 8,-0.88 11.81,-1.8 21,-5 37.18,-23.35 39.88,-44.89 0.39,-3.06 0.89,-6.11 1.51,-10.37 z"
     id="path24"
     style="fill:#e9e1d0;fill-opacity:1" />
  <path
     class="cls-1"
     d="m 1383.5,55.971598 h -65.84 V 6.3115981 h 65.84 z"
     id="path26"
     style="fill:#e9e1d0;fill-opacity:1" />
</svg>
