<?xml version="1.0" encoding="UTF-8" standalone="no"?>
<!-- Generator: Adobe Illustrator 26.0.3, SVG Export Plug-In . SVG Version: 6.00 Build 0)  -->

<svg
   version="1.1"
   id="build"
   x="0px"
   y="0px"
   viewBox="0 0 339.39999 140.39999"
   xml:space="preserve"
   sodipodi:docname="build.svg"
   width="339.39999"
   height="140.39999"
   inkscape:version="1.1.2 (b8e25be833, 2022-02-05)"
   xmlns:inkscape="http://www.inkscape.org/namespaces/inkscape"
   xmlns:sodipodi="http://sodipodi.sourceforge.net/DTD/sodipodi-0.dtd"
   xmlns="http://www.w3.org/2000/svg"
   xmlns:svg="http://www.w3.org/2000/svg"><defs
   id="defs33" /><sodipodi:namedview
   id="namedview31"
   pagecolor="#ffffff"
   bordercolor="#666666"
   borderopacity="1.0"
   inkscape:pageshadow="2"
   inkscape:pageopacity="0.0"
   inkscape:pagecheckerboard="0"
   showgrid="false"
   inkscape:zoom="0.55104167"
   inkscape:cx="877.42911"
   inkscape:cy="361.13422"
   inkscape:window-width="2560"
   inkscape:window-height="1387"
   inkscape:window-x="-8"
   inkscape:window-y="-8"
   inkscape:window-maximized="1"
   inkscape:current-layer="build" />
<style
   type="text/css"
   id="style2">
	.st0{fill:#E9E1D0;}
</style>
<g
   id="g28"
   transform="translate(-80.9,-180.3)"
   style="fill:#e9e1d0;fill-opacity:1">
	<g
   id="g26"
   style="fill:#e9e1d0;fill-opacity:1">
		<path
   class="st0"
   d="m 135.6,180.6 c 0,0.9 0,1.8 0,2.9 2.7,0 5.5,0 8.1,0 0.6,2.9 0.6,2.9 3.2,3.4 0.1,0.6 0.1,1.2 0.2,2 0.5,0 1,0 1.4,0 0.4,0 0.8,0 1.1,0 0.7,0.7 0.5,3.1 -0.5,5.2 1,0.4 1.9,0.8 3.1,1.2 0,2.5 0,5.1 0,7.9 -0.6,0.1 -1.3,0.2 -2.1,0.3 0,1.6 0,3.3 0,5 -1,0 -1.8,0 -2.9,0 -0.1,1.1 -0.2,2 -0.4,3.1 -1.9,0 -3.8,0 -6,0 0.2,2.2 -0.7,4.3 0.9,6.2 1.7,0 3.3,0 5,0 0,2.2 0.8,3.4 3.2,3.1 0,1.8 0,3.4 0,5.2 0.7,0 1.3,0 1.8,0 0.2,0.2 0.4,0.3 0.4,0.4 0,3.7 0,7.3 0,11.1 -0.6,0 -1.2,0 -2.1,0 0,1.8 0,3.6 0,5.4 -1.1,0.1 -2,0.1 -3,0.2 0,0.9 0,1.7 0,2.8 -1.1,0.1 -2,0.2 -3.1,0.3 0,0.6 0,1.2 0,2.1 -2.9,0 -5.6,0 -8.5,0 -0.1,1.1 -0.1,2 -0.1,3 -18,0 -36.1,0 -54.2,0 0,-4.5 0,-8.9 0,-13.5 1.6,0 3.2,0 5.1,0 0.1,-1.1 0.1,-2.1 0.1,-3 0,-12.1 0,-24.2 0,-36.4 0,-1.1 -0.5,-2.3 0.7,-3.2 -1.5,-2.3 -4,-0.5 -6.1,-1.6 0,-4.3 0,-8.9 0,-13.4 18.4,0.3 36.5,0.3 54.7,0.3 z m -5.4,54.2 c 2,0 3.6,0 5.3,0 0,-2 0,-3.9 0,-6 -1,0 -2,0 -2.9,0 -0.1,-0.9 -0.2,-1.5 -0.2,-2.1 -0.8,-0.1 -1.5,-0.2 -2.3,-0.4 0,-1 0,-1.9 0,-2.7 -1.3,-0.3 -2.7,-1.1 -3.4,-0.7 -1.3,0.8 -2.5,0.4 -3.6,0.5 -7.2,0.1 -14.5,0 -21.8,0 0,6 0,11.7 0,17.5 8.4,0 16.7,0 25.2,0 0.3,-1 0.7,-2 1.1,-3.1 0.8,0 1.7,0 2.7,0 -0.1,-0.9 -0.1,-1.7 -0.1,-3 z m -25.9,-22.9 c 6.8,0 13.2,0 19.7,0 0.1,-1.1 0.2,-2 0.3,-3.1 0.6,0.2 0.9,0.3 1.2,0.5 0.3,0.2 0.6,0.4 1,0.6 1.6,-2.1 4.1,-0.1 6.1,-1.4 0,-0.5 0,-1.1 0,-2 2.1,0 4.1,0 5.9,0 0,-2.1 0,-4 0,-6 -2,0 -3.9,0 -6,0 0,-1.1 0,-2 0,-3.1 -1.9,0 -3.5,0 -5,0 -0.4,-1.1 -0.8,-2.1 -1.1,-2.9 -8.6,0 -16.8,0 -25.2,0 0,4.8 0,9.4 0,14.5 0.9,0.3 1.9,0.7 2.9,1.1 0,0.5 0.1,1.1 0.2,1.8 z"
   id="path4"
   style="fill:#e9e1d0;fill-opacity:1" />
		<path
   class="st0"
   d="m 399.8,180.6 c 0,1.1 -0.4,2.4 1.7,3 0.9,0 2.4,0 4.2,0 0.2,1.6 0.4,3.6 3,3 0.1,0.8 0.3,1.5 0.4,2.3 0.9,0.1 1.7,0.1 2.8,0.1 0,0.9 0,1.9 0,2.9 1.1,0.1 2,0.1 3.1,0.1 0,1.7 0,3.5 0,5.2 0.9,0.1 1.5,0.2 2.2,0.2 0,3.7 0,7.4 0,11.2 1.1,0.1 2,0.2 3.1,0.2 0,4.8 0,9.4 0,14.4 -0.9,0 -1.9,0 -2.9,0 0,3.9 0,7.6 0,11.4 -0.7,0 -1.3,0 -2.2,0 0,1.8 0,3.6 0,5.4 -1.1,0 -2,0 -3,0 -0.1,1.1 -0.2,2 -0.2,3.1 -0.9,0.1 -1.8,0.1 -2.9,0.2 0,0.9 0,1.9 0,3 -1.1,0 -2,0 -3,0 0,0.7 0,1.3 0,2.1 -1.7,0 -3.3,0 -5.1,0 -0.4,0.5 -0.8,1 -1.3,1.7 0.2,0.4 0.5,0.9 0.8,1.5 -16.2,0 -32.4,0 -48.9,0 -0.2,-4.4 0,-8.9 -0.1,-13.5 1.8,0 3.4,0 4.9,0 0.5,-0.5 0.9,-0.9 1.3,-1.3 0,-13.2 0,-26.5 0,-39.7 0,-1 0.1,-2.1 -1.3,-2.8 -1.4,0 -3,0 -4.9,0 0,-4.7 0,-9.2 0,-13.8 16.2,0.1 32.2,0.1 48.3,0.1 z m -2.4,19.9 c 0,-1.3 0,-2.1 0,-3.1 -1.8,0 -3.4,0 -4.9,0 -0.4,-1.1 -0.8,-2.1 -1.1,-3.1 -5.9,0 -11.5,0 -17.1,0 -1,0 -2,-0.1 -2.6,1 0,14.2 0,28.4 0,42.6 6.9,0 13.6,0 20.5,0 0,-1 0.1,-2 0.1,-3.1 1.9,0 3.5,0 5.3,0 -0.5,-2.5 1.1,-3 3,-3.2 0.1,-0.6 0.1,-1.2 0.2,-1.9 1,-0.1 2,-0.1 2.9,-0.2 0,-8 0,-15.7 0,-23.5 -1,-0.1 -2,-0.1 -3.1,-0.2 0,-1.8 0,-3.5 0,-5.2 -1.1,-0.1 -1.9,-0.1 -3.2,-0.1 z"
   id="path6"
   style="fill:#e9e1d0;fill-opacity:1" />
		<path
   class="st0"
   d="m 235.9,180.6 c 0,4.5 0,8.9 0,13.7 -1.7,0 -3.4,0 -5.2,0 0,14.6 0,29 0,43.6 -1.1,0.1 -2,0.2 -3.1,0.3 0,1.7 0,3.3 0,5.1 -2,0.1 -3.5,0.7 -3.2,3.2 -0.7,0 -1.3,0 -2.1,0 -0.1,0.8 -0.2,1.5 -0.4,2.3 -1.6,0 -3.3,0 -5.1,0 -0.4,0.9 -0.7,1.8 -1.2,2.9 -10,0 -20.4,0 -30.9,0 0,-0.8 0,-1.7 0,-2.8 -1.8,0 -3.6,0 -5.3,0 -0.1,-0.9 -0.2,-1.5 -0.2,-2.2 -0.8,0 -1.7,0 -2.8,0 -0.1,-1.1 -0.2,-2 -0.3,-3.1 -0.8,0 -1.7,0 -2.8,0 0,-1.8 0,-3.6 0,-5.2 -1.2,-0.4 -2.1,-0.6 -3.1,-1 0,-14.4 0,-28.6 0,-43 -1.9,0 -3.5,0 -5.4,0 0,-4.7 0,-9.2 0,-13.8 8.4,0 16.9,0 25.3,0 0,4.6 0,9.1 0,13.9 -2,0 -3.7,0 -5.4,0 0,1.8 0,3.3 0,4.9 0,1.7 0,3.3 0,5 0,1.5 0,3.1 0,4.6 0,1.5 0,3.1 0,4.6 0,1.7 0,3.3 0,5 0,1.5 0,3.1 0,4.6 0,1.7 0.5,3.5 -0.1,4.9 -0.5,1.3 0.1,2.5 -0.5,3.6 2.3,0.3 2.3,0.3 3.5,1.6 -0.2,0.2 -0.4,0.4 -0.8,0.8 1.2,0.5 2.2,1 3.4,1.5 0,1.8 0,3.7 0,5.6 7,0 13.9,0 20.8,0 1,0 2.1,0.1 2.9,-1.5 0,-1.2 0,-2.9 0,-4.7 1.1,0 2,0 3,0 0,-1.8 0,-3.4 0,-5.1 0.8,-0.1 1.5,-0.2 2.2,-0.3 0,-10.7 0,-21.2 0,-31.9 -0.8,-0.1 -1.5,-0.2 -1.9,-0.3 -0.4,-1.1 -0.8,-2 -1.1,-3.1 -1.9,0 -3.6,0 -5.3,0 0,-4.7 0,-9.2 0,-13.6 8.3,-0.1 16.7,-0.1 25.1,-0.1 z"
   id="path8"
   style="fill:#e9e1d0;fill-opacity:1" />
		<path
   class="st0"
   d="m 311,180.6 c 0,4.5 0,8.9 0,13.7 -1.7,0 -3.4,0 -4.6,0 -1.6,0.9 -1.5,1.9 -1.5,2.9 0,4.9 0,9.7 0,14.5 0,8.4 0,16.8 0,25.2 0.4,0.4 0.8,0.8 1.1,1.1 6.4,0 12.8,0 19.4,0 0,-1.9 0,-3.9 0,-6 4.7,0 9.1,0 13.7,0 0.2,0.2 0.6,0.6 0.9,0.9 0,6.3 0,12.5 0,18.8 -18.1,0 -36,0 -54.1,0 0,-4.5 0,-9 0,-13.7 1.7,0 3.3,0 5.1,0 0,-14.6 0,-29.1 0,-43.7 -1.7,0 -3.3,0 -5.2,0 0,-4.7 0,-9.2 0,-13.8 8.3,0.1 16.7,0.1 25.2,0.1 z"
   id="path10"
   style="fill:#e9e1d0;fill-opacity:1" />
		<path
   class="st0"
   d="m 273.5,180.6 c 0,4.5 0,8.9 0,13.6 -1.7,0 -3.4,0 -5.2,0 0,14.7 0,29.2 0,43.8 1.7,0 3.4,0 5.1,0 0,4.6 0,9 0,13.6 0.1,-0.1 0,0.1 -0.1,0.1 -0.1,0 -0.2,0.1 -0.3,0.1 -8.1,0 -16.3,0 -24.6,0 0,-4.5 0,-9 0,-13.7 1.6,0 3.3,0 5.1,0 0,-14.6 0,-29 0,-43.6 -1.6,0 -3.3,0 -5.2,0 0,-4.8 0,-9.4 0,-13.9 8.3,0 16.7,0 25.2,0 z"
   id="path12"
   style="fill:#e9e1d0;fill-opacity:1" />
		<path
   class="st0"
   d="m 317.2,320.7 c -5.1,0 -9.8,0 -14.6,0 0,-21.6 0,-43.1 0,-64.9 4.7,0 9.4,0 14.4,0 0,0.6 0.1,1.2 0.1,2 0.9,0 1.9,0 3,0 -1.1,1.8 -0.6,3.5 -0.8,5.4 1,0.4 1.9,0.7 3,1.1 0,0.3 0,0.9 0,1.8 1.1,0.1 2,0.2 3.1,0.3 0,1.9 0,3.7 0,5.8 1.1,0.1 2,0.2 3.1,0.3 0,0.9 0,1.8 0,2.8 0.8,0.1 1.5,0.2 2.3,0.4 0,1.6 0,3.3 0,5 1,0 1.8,0 2.9,0 0.1,1.1 0.2,2 0.4,3.1 0.9,0 1.7,0 2.7,0 0,1.7 0,3.4 0,5.3 1,0.4 2,0.8 3.1,1.4 0,0.3 0,0.9 0,1.8 1.1,0 2,0.1 3.1,0.1 0,-12.3 0,-24.4 0,-36.6 4.6,0 9.2,0 13.8,0 0,21.6 0,43.1 0,64.8 -4.5,0 -9,0 -13.6,0 0,-0.9 -0.1,-1.8 -0.1,-2.8 -0.9,0 -1.7,0 -2.9,0 0,-1.8 0,-3.5 0,-5.4 -1.1,0 -2,0 -3.1,0 -0.1,-1.1 -0.1,-2 -0.2,-3.1 -0.7,-0.1 -1.3,-0.1 -2,-0.2 0,-1.6 0,-3.2 0,-5.1 -1.1,-0.1 -2,-0.2 -3.1,-0.3 0,-0.8 0,-1.7 0,-2.8 -1.1,-0.1 -2,-0.2 -3.1,-0.3 0,-1.9 0,-3.8 0,-5.9 -1.1,0 -2,0 -3,0 -0.1,-0.9 -0.2,-1.5 -0.2,-2 -1,-0.4 -2,-0.7 -3,-1.1 0,-1.9 0,-3.5 0,-5.2 -0.7,-0.1 -1.3,-0.1 -2.2,-0.2 0,-0.9 0,-1.9 0,-2.9 -1.1,0 -2,0 -3,0 -0.1,12.4 -0.1,24.7 -0.1,37.4 z"
   id="path14"
   style="fill:#e9e1d0;fill-opacity:1" />
		<path
   class="st0"
   d="m 161.5,272.5 c 1.3,0 2.1,0 3.1,0 0,1 0,1.9 0,2.8 0.8,0.1 1.5,0.2 2.3,0.4 0,1.6 0,3.3 0,5 1,0 1.8,0 2.9,0 0.1,1.1 0.2,2 0.4,3.1 0.8,0 1.7,0 2.7,0 0,1.7 0,3.3 0,5.1 0.9,0.6 1.7,1.1 2.5,1.6 0,0.5 0,1 0,1.7 1.2,0 2.4,0 3.7,0 0,-12 0,-24.1 0,-36.4 4.6,0 9.2,0 13.8,0 0,21.5 0,43 0,64.7 -4.4,0 -8.9,0 -13.6,0 0.2,-2.2 -1,-3.1 -3.2,-3 0,-1.7 0,-3.4 0,-5.1 -1,0 -1.8,0 -2.9,0 -0.1,-1.1 -0.2,-2 -0.2,-3.1 -0.9,0 -1.8,-0.1 -2.8,-0.2 0,-1.6 0,-3.2 0,-5 -1.8,-0.3 -3.8,-0.4 -3.1,-3.1 -0.8,-0.1 -1.5,-0.2 -2.4,-0.4 0,-1.6 0,-3.3 0,-5.1 -0.9,-0.4 -1.8,-0.7 -3,-1.2 -0.1,-0.3 -0.2,-1 -0.3,-1.8 -0.9,0 -1.7,-0.1 -2.8,-0.1 0,-1.9 0,-3.9 0,-5.9 -0.9,-0.1 -1.5,-0.2 -2.1,-0.2 -0.8,-3.3 -1.5,-3.7 -4.1,-1.9 0,12 0,24.1 0,36.3 -4.6,0 -9,0 -13.4,0 -0.6,-3.2 -0.8,-49.8 -0.3,-64.8 4.4,0 8.9,0 13.5,0 0.1,0.5 0.2,1.2 0.4,2.1 0.8,0 1.7,0 2.8,0 0,2.1 0,4.1 0,6.1 1.1,0.1 2,0.1 3,0.2 0.1,0.7 0.2,1.4 0.3,2.2 0.9,0 1.8,0 2.8,0 0,1.9 0,3.7 0,6 z"
   id="path16"
   style="fill:#e9e1d0;fill-opacity:1" />
		<path
   class="st0"
   d="m 250.2,317.7 c -1.7,0 -3.2,0 -4.9,0 -0.1,0.9 -0.2,1.9 -0.3,3 -9.3,0 -18.6,0 -27.9,0 -0.3,-0.9 -0.7,-1.9 -1.1,-2.9 -1.9,0 -3.5,0 -5.3,0 0,-0.7 0,-1.3 0,-2.1 -1.1,-0.1 -2,-0.2 -3.1,-0.3 0,-0.9 0,-1.8 0,-2.9 -1.1,0 -2,0 -3.1,0 0,-1.9 0,-3.5 0,-5.3 -0.7,0 -1.3,0 -1.8,0 -0.7,-0.6 -0.9,-25.4 -0.5,-37.5 0.6,0 1.2,0 2.1,0 0,-1.8 0,-3.5 0,-5.4 1.1,0 2,0 3.1,0 0.1,-1.1 0.1,-2 0.2,-3.1 0.9,0 1.8,-0.1 2.9,-0.2 0,-1 0,-1.9 0,-3 2.1,0 4,0 6,0 0,-0.7 0,-1.3 0,-2.1 9.5,0 18.9,0 28.4,0 0,0.5 0.1,1.1 0.1,2.1 0.8,0 1.7,0 2.5,0 0.9,0 1.7,0 2.7,0 0.1,1 0.1,1.9 0.2,2.9 0.9,0 1.7,0 2.8,0 0.1,1.1 0.2,2 0.3,3.1 0.8,0 1.7,0 2.4,0 0.2,0.2 0.4,0.3 0.4,0.4 0,1.6 0,3.2 0,5 1.1,0 2,0 3,0 0,1.8 0,3.5 0,5.4 -0.9,0 -1.8,0.1 -2.8,0.1 0,0.9 0,1.7 0,2.4 -0.2,0.3 -0.3,0.4 -0.4,0.4 -2.6,0 -5.3,0 -8.1,0 0,-0.9 0,-1.7 0,-2.8 -1.1,-0.1 -2,-0.2 -3.1,-0.3 -0.1,-0.7 -0.1,-1.3 -0.2,-2 -1.9,-0.1 -3.4,-0.7 -3,-3.1 -5.8,0 -11.5,0 -17.6,0 0.2,0.6 0.3,1.2 0.6,2 -0.2,0.1 -0.6,0.4 -1.2,1 -1.2,0 -2.9,0 -4.6,0 0,1.8 0,3.4 0,5.3 -1.1,0 -2,0 -3.1,0 0,7 0,13.7 0,20.7 0.9,0 1.9,0 3,0 0,1.9 0,3.5 0,5.3 1.8,0 3.4,0 4.9,0 0.4,1.1 0.8,2.1 1.2,3.1 3.9,0 7.6,0 11.4,0 0,-0.9 0,-1.7 0,-2.8 1.8,0 3.6,0 5.4,0 0,-3.2 0,-6.1 0,-9.2 -2.6,0 -5.4,0 -8.2,0 -0.1,-0.9 -0.1,-1.5 -0.2,-2.3 -0.9,0 -1.9,0 -2.9,0 0,-2.9 0,-5.5 0,-8.3 0.9,0 1.7,0 2.8,0 0.1,-1.1 0.2,-2 0.4,-3.1 3.4,0 6.8,0 10.6,0 0.3,0.8 0.7,1.8 1.1,2.9 1.5,0 3.1,0 4.9,0 0,2.1 0.8,3.5 3,3.2 0.6,2.7 0.6,2.7 3.2,3 0,1.7 0,3.4 0,5.2 1.1,0.1 2,0.1 3,0.1 0,3.4 0,6.8 0,10.6 -0.7,0.3 -1.6,0.7 -2.8,1.2 0,1.4 0,3 0,4.9 -1.1,0.1 -2,0.2 -3.1,0.2 -0.1,0.9 -0.1,1.8 -0.2,2.9 -0.9,0 -1.9,0 -2.8,0 0,0.9 -0.1,1.6 -0.3,2.3 z"
   id="path18"
   style="fill:#e9e1d0;fill-opacity:1" />
		<path
   class="st0"
   d="m 415.1,307 c 0,4.7 0,9.1 0,13.7 -16.2,0 -32.4,0 -48.8,0 0,-21.5 0,-43.1 0,-64.9 16.1,0 32.3,0 48.6,0 0,4.1 0,8.4 0,12.7 -0.7,1.3 -1.9,1 -3,1 -8.3,0 -16.6,0 -24.9,0 -2.3,0 -4.6,0 -7,0 0,3.8 0,7.6 0,11.5 7.6,0 15.1,0 22.7,0 0,4.6 0,9 0,13.6 0,0 0,0.1 -0.1,0.1 -0.1,0.1 -0.2,0.1 -0.3,0.1 -7.1,0 -14.2,0 -21.7,0 -0.2,0.8 -0.6,1.6 -0.7,2.4 -0.1,2.9 0,5.9 0,8.6 0.7,1.1 1.6,1.2 2.7,1.2 6.1,0 12.2,0 18.4,0 4.6,0 9.2,0 14.1,0 z"
   id="path20"
   style="fill:#e9e1d0;fill-opacity:1" />
		<path
   class="st0"
   d="m 129.4,255.8 c 0,4.6 0,9 0,13.6 -11.4,0 -22.7,0 -34.2,0 0,3.9 0,7.6 0,11.5 7.5,0 15,0 22.7,0 0,4.6 0,9.2 0,13.8 -7.3,0 -14.6,0 -22.1,0 -0.2,0.8 -0.7,1.6 -0.7,2.4 -0.1,3.2 0,6.4 0,9.8 11.5,0 22.9,0 34.4,0 0,4.7 0,9.1 0,13.7 -16,0 -32,0 -48.1,0 0,-21.6 0,-43.2 0,-64.8 15.8,0 31.7,0 48,0 z"
   id="path22"
   style="fill:#e9e1d0;fill-opacity:1" />
		<path
   class="st0"
   d="m 274.1,269.4 c -2,0 -3.9,0 -5.9,0 0,-4.6 0,-9 0,-13.6 8.5,0 17.1,0 25.8,0 0,4.5 0,8.9 0,13.5 -1.9,0 -3.7,0 -5.6,0 -0.6,3.2 -0.8,26.9 -0.3,37.6 1.9,0 3.8,0 5.8,0 0,4.6 0,9.2 0,13.8 -8.5,0 -17,0 -25.7,0 0,-4.5 0,-9 0,-13.7 1.9,0 3.8,0 5.8,0 0.1,-12.5 0.1,-24.8 0.1,-37.6 z"
   id="path24"
   style="fill:#e9e1d0;fill-opacity:1" />
	</g>
</g>
</svg>
