<?xml version="1.0" encoding="UTF-8" standalone="no"?>
<!-- Generator: Adobe Illustrator 26.0.3, SVG Export Plug-In . SVG Version: 6.00 Build 0)  -->

<svg
   version="1.1"
   id="svg2"
   x="0px"
   y="0px"
   viewBox="0 0 839.20001 434.2"
   xml:space="preserve"
   sodipodi:docname="doom.svg"
   width="839.20001"
   height="434.20001"
   inkscape:version="1.1.2 (b8e25be833, 2022-02-05)"
   xmlns:inkscape="http://www.inkscape.org/namespaces/inkscape"
   xmlns:sodipodi="http://sodipodi.sourceforge.net/DTD/sodipodi-0.dtd"
   xmlns="http://www.w3.org/2000/svg"
   xmlns:svg="http://www.w3.org/2000/svg"><defs
   id="defs9" /><sodipodi:namedview
   id="namedview7"
   pagecolor="#ffffff"
   bordercolor="#666666"
   borderopacity="1.0"
   inkscape:pageshadow="2"
   inkscape:pageopacity="0.0"
   inkscape:pagecheckerboard="0"
   showgrid="false"
   inkscape:zoom="1.2595238"
   inkscape:cx="419.60302"
   inkscape:cy="216.74858"
   inkscape:window-width="2560"
   inkscape:window-height="1387"
   inkscape:window-x="-8"
   inkscape:window-y="-8"
   inkscape:window-maximized="1"
   inkscape:current-layer="svg2" />
<style
   type="text/css"
   id="style2">
	.st0{fill:#E9E1D0;}
</style>
<g
   id="layer1"
   transform="translate(-7.5,-565.7)"
   style="fill:#e9e1d0;fill-opacity:1">
	<path
   id="path3347"
   class="st0"
   d="m 741.4,946.4 -0.1,-146.1 -23.4,81.6 -23.3,-81.3 -0.1,110.9 -76.2,-57.1 5.8,-4.3 -0.3,-284.4 72.4,0.2 21.7,76 21.7,-76.1 107.1,0.3 -35.1,26.3 -0.1,406.8 z M 43.1,592.4 7.5,565.7 208,566 230.9,583.5 V 850 l 6.1,4.4 -193.9,145.5 z m 117.6,207.9 -0.1,-153.8 -5.4,-4.4 -41.7,0.2 -0.1,193.4 z m 76.2,41.3 V 583.5 l 23.5,-17.6 h 140.7 l 23.5,17.7 0.1,298.7 -66.6,50.1 z m 111.4,-199.7 -35.5,0.2 -5.5,4.3 0.1,153.9 46.6,35 0.1,-188.8 z m 82.4,240.7 -0.2,-299.1 23.4,-17.6 140.9,0.1 23.6,17.6 -0.2,257.5 -120.6,91.1 z M 547.9,800.3 V 646.4 l -5.9,-4.5 -35.4,0.1 -5.7,4.4 0.4,188.5 z"
   style="fill:#e9e1d0;fill-opacity:1" />
</g>
</svg>
