<?xml version="1.0" encoding="UTF-8" standalone="no"?>
<!-- Generator: Adobe Illustrator 26.0.3, SVG Export Plug-In . SVG Version: 6.00 Build 0)  -->

<svg
   version="1.1"
   id="Layer_1"
   x="0px"
   y="0px"
   viewBox="0 0 264 66"
   xml:space="preserve"
   sodipodi:docname="easyrpg.svg"
   width="264"
   height="66"
   inkscape:version="1.1.2 (b8e25be833, 2022-02-05)"
   xmlns:inkscape="http://www.inkscape.org/namespaces/inkscape"
   xmlns:sodipodi="http://sodipodi.sourceforge.net/DTD/sodipodi-0.dtd"
   xmlns="http://www.w3.org/2000/svg"
   xmlns:svg="http://www.w3.org/2000/svg"><defs
   id="defs11" /><sodipodi:namedview
   id="namedview9"
   pagecolor="#ffffff"
   bordercolor="#666666"
   borderopacity="1.0"
   inkscape:pageshadow="2"
   inkscape:pageopacity="0.0"
   inkscape:pagecheckerboard="0"
   showgrid="false"
   inkscape:zoom="0.55104167"
   inkscape:cx="959.09263"
   inkscape:cy="540.79395"
   inkscape:window-width="2560"
   inkscape:window-height="1387"
   inkscape:window-x="-8"
   inkscape:window-y="-8"
   inkscape:window-maximized="1"
   inkscape:current-layer="Layer_1" />
<style
   type="text/css"
   id="style2">
	.st0{fill:#E9E1D0;}
</style>
<path
   class="st0"
   d="m 23.4,45.4 c -4.9,0 -9.2,-1 -12.7,-3.1 C 7.2,40.3 4.5,37.5 2.7,34 0.9,30.5 0,26.6 0,22.3 0,18.2 0.8,14.5 2.5,11 4.2,7.7 6.6,5 9.8,3 13,1 16.8,0 21.1,0 c 5.5,0 10,1.6 13.5,4.9 3.4,3.3 5.2,7.8 5.2,13.5 0,1.5 -0.1,2.9 -0.4,4.3 H 8.1 c 0.5,5.6 2.2,9.6 5.1,12 2.9,2.4 6.6,3.6 11.1,3.6 4.5,0 8.7,-0.9 12.4,-2.6 L 37.8,42 C 32.9,44.2 28,45.4 23.4,45.4 Z M 8.8,17.2 H 31.6 C 31.6,14.1 30.7,11.6 29,9.8 27.2,8 24.5,7.1 21,7.1 c -3.4,0 -6.1,0.8 -8,2.5 -2,1.7 -3.3,4.2 -4.2,7.6 z M 52,45.4 c -4,0 -7.2,-1.2 -9.7,-3.6 -2.4,-2.4 -3.7,-5.4 -3.7,-9.1 0,-5.5 2.6,-9.5 7.8,-11.8 5.2,-2.3 11.2,-3.6 18.1,-3.7 0,-3.9 -0.8,-6.6 -2.3,-8 C 60.7,7.8 58.3,7.1 55,7.1 53.2,7.1 51.4,7.4 49.5,7.9 47.7,8.5 45.7,9.5 43.6,11 L 42.5,4.5 C 44.3,3.1 46.4,2 49,1.2 51.6,0.4 54.3,0 57.2,0 c 3.7,0 6.7,0.7 8.9,2 2.2,1.3 3.8,3.5 4.9,6.5 1,3 1.5,7.2 1.5,12.5 v 8.9 c 0,2.4 0.1,4.2 0.3,5.4 0.2,1.2 0.7,2.1 1.4,2.8 0.7,0.7 1.8,1 3.3,1 h 0.8 l -1.2,6.4 h -0.6 c -2.5,0 -4.4,-0.2 -5.8,-0.7 -1.4,-0.5 -2.5,-1.2 -3.2,-2 -0.7,-0.8 -1.4,-2.1 -2.1,-3.6 -3.9,4 -8.3,6.2 -13.4,6.2 z M 53.5,39 c 2.1,0 4.2,-0.5 6.1,-1.6 2,-1.1 3.6,-2.5 4.9,-4.3 V 22.7 c -6.4,0.2 -10.9,1.1 -13.6,2.5 -2.7,1.5 -4.1,3.8 -4.1,7.1 0,2.3 0.6,3.9 1.8,5 1.2,1.1 2.8,1.7 4.9,1.7 z m 37.1,6.4 c -3.4,0 -6.4,-0.4 -9,-1.2 -2.6,-0.8 -4.5,-1.7 -5.9,-2.6 l 1,-7.7 c 1.2,1.1 3,2.1 5.4,3 2.4,1 5.1,1.4 8.1,1.4 2.8,0 4.9,-0.5 6.4,-1.4 1.5,-0.9 2.3,-2.3 2.3,-4 0,-2 -0.8,-3.5 -2.5,-4.6 -1.6,-1 -3.7,-1.9 -6.2,-2.6 -2.7,-0.7 -5,-1.5 -6.8,-2.3 -1.9,-0.8 -3.4,-2 -4.8,-3.7 -1.3,-1.7 -2,-3.9 -2,-6.6 0,-3.7 1.3,-6.9 4,-9.3 C 83.2,1.2 87.3,0 92.9,0 c 2.5,0 4.7,0.3 6.4,0.8 1.8,0.5 3.5,1.2 5.3,2.1 l -1,7.3 c -1.4,-1.2 -3,-2.1 -4.7,-2.8 -1.7,-0.7 -3.7,-1 -5.9,-1 -2.6,0 -4.6,0.5 -6.1,1.5 -1.5,1 -2.3,2.4 -2.3,4.4 0,1.3 0.4,2.4 1.1,3.2 0.7,0.8 1.7,1.5 3,2 1.3,0.5 3.3,1.2 6,2 3.4,1 6.3,2.4 8.7,4.3 2.4,1.9 3.7,4.7 3.7,8.7 0,3.6 -1.3,6.6 -3.8,9.2 -2.5,2.4 -6.7,3.7 -12.7,3.7 z m 21.6,20.6 10,-23.5 -18,-41.6 h 8.8 l 13.5,32.4 12.2,-32.4 h 8.8 L 121,66 Z"
   id="path4"
   style="fill:#e9e1d0;fill-opacity:1" />
<path
   class="st0"
   d="M 151.8,47.6 V 0.9 h 16.9 c 4.9,0 8.8,1.2 11.7,3.6 2.8,2.4 4.3,5.9 4.3,10.6 0,3.2 -0.7,5.9 -2.1,8 -1.4,2.1 -3.3,3.7 -5.8,5 l 10.5,19.6 h -9.5 l -8.9,-17.3 h -0.3 -8.3 v 17.3 h -8.5 z m 8.4,-24.5 h 6.2 c 6.2,0 9.3,-2.5 9.3,-7.6 0,-2.4 -0.7,-4.3 -2.1,-5.6 C 172.2,8.6 169.9,8 166.7,8 h -6.6 V 23.1 Z M 191,47.6 V 0.9 h 16.5 c 11,0 16.5,5 16.5,15.1 0,5.2 -1.4,9.1 -4.2,11.6 -2.8,2.5 -6.8,3.8 -12.1,3.8 h -8.2 v 16.2 z m 8.5,-23.3 h 7.2 c 2.9,0 5.1,-0.7 6.5,-2 1.4,-1.3 2.1,-3.4 2.1,-6.1 0,-2.8 -0.7,-4.8 -2.2,-6.1 -1.5,-1.3 -3.7,-2 -6.7,-2 h -7 v 16.2 z m 49.3,24.3 c -4.9,0 -9,-1 -12.5,-3 -3.5,-2 -6.2,-4.8 -8.1,-8.5 -1.9,-3.7 -2.8,-8 -2.8,-12.9 0,-4.8 1,-9 3.1,-12.7 2.1,-3.7 4.9,-6.5 8.6,-8.5 3.7,-2 7.9,-3 12.6,-3 2.4,0 4.7,0.2 7,0.7 2.3,0.5 4.2,1.2 5.8,2 l -0.9,8.1 C 257.8,9 253.8,8.1 249.7,8.1 c -4.9,0 -8.7,1.5 -11.2,4.4 -2.5,2.9 -3.8,6.7 -3.8,11.5 0,4.9 1.2,8.9 3.7,11.9 2.5,3 6,4.4 10.7,4.4 1.9,0 4,-0.2 6.4,-0.7 v -8.3 h -6.4 V 24.2 H 264 V 45 c -1.7,1 -3.9,1.9 -6.6,2.5 -2.7,0.7 -5.5,1.1 -8.6,1.1 z"
   id="path6"
   style="fill:#e9e1d0;fill-opacity:1" />
</svg>
