<?xml version="1.0" encoding="UTF-8" standalone="no"?>
<!-- Generator: Adobe Illustrator 26.0.3, SVG Export Plug-In . SVG Version: 6.00 Build 0)  -->

<svg
   version="1.1"
   id="Warstwa_1"
   x="0px"
   y="0px"
   viewBox="0 0 264.11249 112.1"
   xml:space="preserve"
   sodipodi:docname="ecwolf.svg"
   width="264.11249"
   height="112.1"
   inkscape:version="1.1.2 (b8e25be833, 2022-02-05)"
   xmlns:inkscape="http://www.inkscape.org/namespaces/inkscape"
   xmlns:sodipodi="http://sodipodi.sourceforge.net/DTD/sodipodi-0.dtd"
   xmlns="http://www.w3.org/2000/svg"
   xmlns:svg="http://www.w3.org/2000/svg"><defs
   id="defs35" /><sodipodi:namedview
   id="namedview33"
   pagecolor="#ffffff"
   bordercolor="#666666"
   borderopacity="1.0"
   inkscape:pageshadow="2"
   inkscape:pageopacity="0.0"
   inkscape:pagecheckerboard="0"
   showgrid="false"
   inkscape:zoom="4.0090944"
   inkscape:cx="131.82528"
   inkscape:cy="56.122399"
   inkscape:window-width="2560"
   inkscape:window-height="1387"
   inkscape:window-x="-8"
   inkscape:window-y="-8"
   inkscape:window-maximized="1"
   inkscape:current-layer="Warstwa_1" />
<style
   type="text/css"
   id="style2">
	.st0{fill:#E9E1D0;}
</style>
<path
   class="st0"
   d="m 200.9,112.1 c -3,-0.2 -4.5,-2.2 -6,-4.4 -1.9,-2.7 -3.7,-5.5 -5.6,-8.2 -1.4,-1.9 -2.1,-4.3 -2.1,-6.6 0,-3.8 -0.1,-7.6 0,-11.4 0,-1.2 0.4,-2.4 1,-3.4 1.6,-2.6 3.4,-5.1 5.3,-7.6 1.5,-2 2,-2 4.1,-0.8 1.9,1.1 3.8,2.3 5.6,3.4 0.6,0.3 1.2,0.6 1.8,0.8 1.8,-5.6 0,-10 -4.3,-13.5 l 7.5,-7.3 c 1.9,1.7 4,3.7 6.1,5.6 0.9,0.8 1.4,2 1.3,3.3 0,12.8 0,25.7 -0.1,38.5 0,0.8 -0.3,1.5 -0.7,2.1 -2.4,3.2 -4.8,6.3 -7.3,9.5 z M 205.7,86 c -0.1,-1.7 -0.1,-3.1 -0.4,-4.5 -0.1,-1.2 -1.2,-2.1 -2.4,-2 -0.2,0 -0.3,0 -0.5,0.1 -0.7,0.1 -1.4,0.4 -2,0.7 -2.3,1.3 -4.2,3.4 -5.4,5.8 -1.3,2.6 -1,5.3 -1.1,8.1 -0.1,3.7 1.9,6 4.7,7.8 1.6,1 3.1,0.9 4.2,-0.7 0.8,-1.1 1.4,-2.4 1.6,-3.8 0.6,-3.9 0.9,-7.8 1.3,-11.5 z"
   id="path4"
   style="fill:#e9e1d0;fill-opacity:1" />
<path
   class="st0"
   d="m 79,0 c 2.6,4 3.9,8.7 3.8,13.5 -0.1,6 0,12 0.1,18 0.1,4.3 0.1,4.3 2.4,8.4 l -4.7,5.9 c -0.5,0.6 -1,0.7 -1.6,0.1 -1.6,-1.6 -3.2,-3.3 -4.7,-5 C 74,40.6 74,40.3 74.1,40 c 1.9,-3 2,-6.4 2.1,-9.8 0.1,-4.4 0.1,-8.9 0.1,-13.3 C 76.3,14.1 75.1,11.4 73,9.5 72.6,9.1 72.2,8.6 71.7,8 l 7.2,-8 z"
   id="path6"
   style="fill:#e9e1d0;fill-opacity:1" />
<path
   class="st0"
   d="m 16.8,10.2 7.6,-7.9 c 2,2.6 4,4.9 5.8,7.4 1.5,2.1 0.8,4.6 0.6,6.9 -0.4,3.9 -1,7.9 -1.4,11.8 -0.4,2.7 0.9,5.5 3.3,6.9 2.6,-3.3 5.2,-6.6 5.2,-11.1 0,-2.4 -0.2,-4.8 -0.4,-7.2 -0.2,-2.2 -1,-4.2 -2.3,-6 C 35,10.7 34.9,10.3 35,9.9 36.3,7.8 37.6,5.7 39.1,3.7 40,2.5 40.6,2.5 41.5,3.6 c 3.5,4.2 5.7,8.9 4.9,14.6 -0.7,5.3 -2.2,10.4 -4.5,15.2 -0.8,1.5 -1.7,2.9 -2.7,4.2 l -0.7,1.1 c 1.1,0 2,0 2.9,0 0.9,0 1.7,-0.2 2.9,-0.4 -1.5,2.5 -2.8,4.7 -4.2,6.9 -0.3,0.3 -0.8,0.6 -1.2,0.6 -3.3,0.5 -6.6,1 -9.9,1.5 -2,0.2 -4,-0.5 -5.5,-1.9 -1.7,-1.5 -1.8,-1.5 -3.9,-0.5 -1.5,0.7 -3,1.4 -4.6,2.1 -1.7,0.8 -3.8,0.5 -5.1,-0.9 C 7.3,44 5.3,41.3 4,38.3 3.6,37.2 3.4,36 3.5,34.8 3.5,29.9 3.4,25 3.5,20.2 3.7,17.1 2.9,14.1 1.2,11.6 0.7,11 0.4,10.3 0,9.6 L 7.6,2.7 c 2.9,3.6 6.2,6.9 6.1,12 -0.1,3.3 -0.4,6.5 -0.5,9.8 -0.1,2.4 -0.2,4.9 -0.2,7.3 0,1.7 0.7,3.3 1.9,4.5 1.3,1.4 2.9,1.5 4.7,1 0.1,-0.2 0.1,-0.4 0.1,-0.5 0,-5.7 0,-11.4 0,-17.2 0.1,-2.9 -0.7,-5.8 -2.3,-8.3 -0.2,-0.4 -0.3,-0.7 -0.6,-1.1 z"
   id="path8"
   style="fill:#e9e1d0;fill-opacity:1" />
<path
   class="st0"
   d="m 183.1,57.1 -11.3,14.4 c 0.9,0.6 1.6,1.1 2.4,1.5 7.7,4.3 9.5,8 8,16.7 -0.8,5.2 -2.7,10.2 -5.6,14.7 -1.5,2.3 -3.5,4.3 -5.8,5.8 -1.6,1.1 -3.6,1.6 -5.5,1.1 -5.4,-1.2 -10.4,-3.5 -15.7,-5.7 l 5.5,-4.5 c 1,-0.8 2,-1.7 3,-2.4 0.4,-0.3 1,-0.3 1.5,-0.2 2.3,0.8 4.6,1.7 7,2.6 0.6,0.2 1.2,0.4 1.9,0.5 1.7,0.4 3.4,-0.4 4.1,-1.9 3,-4.8 2.5,-9.9 -1.7,-14.1 -2.4,-2.2 -5.2,-4.1 -8.2,-5.4 l -2.2,-1.1 c 3.4,-4.1 6.7,-8.1 10,-12.1 l -0.2,-0.4 c -1.6,-0.1 -3.3,-0.3 -4.9,-0.3 -2.5,-0.1 -5,0 -7.4,-0.1 -2.4,-0.1 -2.9,-0.7 -1.6,-2.8 1.2,-2 2.5,-3.9 3.8,-5.9 0.2,-0.3 0.6,-0.5 1,-0.6 7.1,0 14.3,0 21.5,0 0.1,0 0.2,0.1 0.4,0.2 z"
   id="path10"
   style="fill:#e9e1d0;fill-opacity:1" />
<path
   class="st0"
   d="m 72.7,25.2 c 0,5 -0.5,9.3 -2.4,13.4 -2.7,6.1 -7.1,8.2 -13.6,7.7 -5.4,-0.5 -10.4,-6.5 -10.3,-11.6 0,-5.4 1.6,-10.6 4.5,-15.2 2.6,-3.8 6.7,-6.3 11.2,-6.9 3.2,-0.5 5.8,1.3 7.8,3.7 2.1,2.5 3.1,5.7 2.8,8.9 z m -8.2,7.9 h -0.1 c 0,-0.4 0,-0.9 0,-1.3 -0.1,-3.6 -1.7,-7.1 -4.6,-9.4 -1.7,-1.4 -2.6,-1.1 -3.5,0.8 -1.4,2.8 -1.3,6.2 0.2,8.9 0.9,2.1 2.5,3.9 4.5,5.1 0.9,0.6 2.2,0.3 2.7,-0.7 0.1,-0.2 0.2,-0.4 0.3,-0.6 0.2,-0.8 0.4,-1.8 0.5,-2.8 z"
   id="path12"
   style="fill:#e9e1d0;fill-opacity:1" />
<path
   class="st0"
   d="m 90.3,19.2 h -2.6 c -0.6,0.1 -1.2,-0.4 -1.3,-1 0,-0.1 0,-0.2 0,-0.3 -0.1,-0.7 0.4,-1.3 1.1,-1.3 0,0 0.1,0 0.1,0 2.6,-0.3 2.6,-0.3 2.9,-2.9 0,-0.4 0.1,-0.8 0.1,-1.2 0.1,-3 2.1,-5.7 5,-6.6 2.7,-1 5.2,-2.2 7.9,-3 3.7,-1.1 8.5,2 9.2,5.8 0,0.4 -0.1,0.8 -0.4,1.1 -1.7,1 -3.4,1.9 -5.1,2.7 -0.2,0.1 -0.8,0 -1.1,-0.2 -0.9,-0.6 -1.8,-1.2 -2.7,-1.7 -1.2,-0.6 -2.1,-0.1 -2.3,1.2 -0.1,0.5 -0.1,1 -0.1,1.6 0,2.8 0.3,2.7 2.4,2.7 1.4,0 1.6,0.3 1.6,1.9 0,1.8 -0.2,2.1 -1.6,2.1 -1.1,0 -2.3,0 -3.6,0 v 1.4 c 0,7.4 0,14.7 -0.1,22.1 0,2.7 -0.3,5.4 -0.4,8.1 0.1,1 -0.7,1.9 -1.7,2 0,0 -0.1,0 -0.1,0 -1.9,0.1 -3.9,0 -5.9,0 -0.8,0 -0.9,-0.7 -0.9,-1.3 -0.1,-2.9 -0.3,-5.8 -0.3,-8.8 -0.1,-7.6 0,-15.3 -0.1,-22.9 z"
   id="path14"
   style="fill:#e9e1d0;fill-opacity:1" />
<path
   class="st0"
   d="m 147.6,47.2 c -2,-2.3 -4,-4.6 -6,-6.9 -0.4,-0.4 -0.5,-1 -0.1,-1.4 0.1,-0.1 0.2,-0.2 0.3,-0.2 1,-0.6 1.5,-1.7 1.4,-2.9 0,-3.1 0,-6.1 -0.2,-9.2 -0.1,-2.1 -1,-3 -3.1,-3.5 -3.9,-1 -4.9,-0.2 -5,3.8 -0.1,2.5 0,5 0,7.4 -0.1,1.8 0.6,3.5 2,4.7 0.5,0.4 0.9,0.9 1.4,1.5 l -5.9,6.9 c -1.9,-2.1 -3.6,-4.1 -5.3,-6.1 -0.4,-0.5 -0.5,-1.2 -0.3,-1.9 1.5,-3.5 1.3,-7.1 1.3,-10.7 0,-2.7 -0.5,-5.4 -1.6,-7.9 -0.1,-0.3 0,-0.7 0.2,-1 1.1,-1.1 2.3,-2.1 3.5,-3.1 1.7,-1.3 2.9,-1.1 4.2,0.5 1.6,1.9 1.6,1.9 3.6,0.4 1.3,-0.9 2.6,-1.9 3.9,-2.7 1.5,-1 3.5,-0.9 5,0.2 3.2,1.9 4.1,4.9 4.2,8.4 0.1,3.6 0.2,7.3 0.2,10.9 0,1.8 0.4,3.3 2.1,4.2 0.8,0.4 0.9,1.1 0.5,1.9 -1.3,2.7 -3.7,4.6 -6.3,6.7 z"
   id="path16"
   style="fill:#e9e1d0;fill-opacity:1" />
<path
   class="st0"
   d="m 250.6,39.8 c 3.5,-2.9 2.7,-6.8 2.8,-10.6 0,-0.5 -0.1,-1 -0.1,-1.6 0.2,-1.9 -1,-3.6 -2.8,-4.1 -0.9,-0.4 -1.9,-0.7 -2.8,-0.9 -1.3,-0.3 -2.6,0.4 -2.9,1.7 0,0.1 0,0.2 -0.1,0.3 -0.2,0.8 -0.4,1.6 -0.4,2.5 -0.1,1.9 -0.1,3.8 -0.1,5.7 0,2.4 0.9,4.7 2.6,6.4 0.7,0.5 0.8,1.4 0.3,2.1 -0.1,0.1 -0.2,0.2 -0.3,0.3 -1.2,1.2 -2.2,2.7 -3.3,3.9 -1.1,1.2 -1.9,1.3 -3,0.1 -1.4,-1.6 -2.8,-3.2 -4.1,-4.8 -0.2,-0.3 -0.2,-0.7 0,-1 2.5,-4.9 2.2,-10.1 1.1,-15.2 -0.4,-1.3 -0.9,-2.6 -1.5,-3.8 -0.3,-0.5 -0.2,-1.1 0.3,-1.4 0,0 0,0 0,0 1.3,-1 2.6,-2 3.9,-3.1 1.6,-1.4 3.4,-0.2 4.1,1.1 1,1.8 1.1,1.8 2.8,0.6 1.6,-1.2 3.2,-2.3 4.9,-3.3 2.2,-1.2 3.4,-1 5.2,0.7 3.7,3.3 3.7,3.3 3.7,8.2 0,3.1 0.1,6.2 0.1,9.2 -0.2,2.2 0.8,4.4 2.5,5.8 0.7,0.6 0.8,1.1 0.3,1.9 -1.3,2.3 -3.1,4.2 -5.3,5.6 -0.6,0.6 -1.5,0.6 -2.1,0 -0.1,-0.1 -0.1,-0.2 -0.2,-0.3 -1.9,-2 -3.8,-4 -5.6,-6 z"
   id="path18"
   style="fill:#e9e1d0;fill-opacity:1" />
<path
   class="st0"
   d="m 169.4,12.9 c 2.1,0.4 4.3,0.6 6.4,1.1 1.7,0.4 1.9,1.1 0.7,2.3 -1.2,1.2 -2.6,2.6 -4,3.7 -0.4,0.2 -0.8,0.3 -1.3,0.2 -1.8,-0.5 -3.5,-1.1 -5.3,-1.5 -1.8,-0.4 -2.5,0.1 -3,1.4 -0.7,2.1 -0.3,3.3 1.3,4 1.4,0.6 2.9,1 4.3,1.5 1.4,0.5 2.6,0.9 4,1.4 2.6,0.9 4.3,3.3 4.4,6 0.2,2 0.3,4.1 0.4,6.1 0,0.4 -0.2,0.7 -0.4,1 -4.5,5.7 -10.7,7.2 -17.6,6.7 -1.2,-0.1 -2.4,-0.3 -3.5,-0.7 -1.4,-0.5 -1.7,-1.3 -0.8,-2.5 1,-1.4 2.1,-2.6 3.2,-3.9 0.2,-0.2 0.9,-0.2 1.3,-0.1 2.5,0.7 5,1.6 7.6,1.3 1.2,-0.1 2.3,-0.5 3.4,-1.1 1.2,-0.8 1.7,-2.3 1.3,-3.6 -0.2,-1.2 -1.1,-2 -2.3,-2.1 -2.3,-0.5 -4.6,-0.9 -6.9,-1.3 -0.2,0 -0.3,0 -0.5,-0.1 -6,-1.3 -8.2,-5.7 -5.8,-11.4 2.2,-5.2 7.4,-8.5 13.1,-8.4 z"
   id="path20"
   style="fill:#e9e1d0;fill-opacity:1" />
<path
   class="st0"
   d="m 112,38.9 c 2.3,0 4.6,0 6.8,0 1.5,0 3,0.3 4.5,0.4 0.8,0.1 1,0.5 0.8,1.2 -0.6,2.1 -1.2,4.3 -1.9,6.6 -3.7,-0.1 -7.4,-0.1 -11,-0.4 -2.8,-0.2 -5.2,-2.2 -5.9,-4.9 -2.4,-7.5 -2,-14.7 2.4,-21.5 2,-2.9 4.9,-4.9 8.3,-5.8 1.6,-0.6 3.3,-0.1 4.3,1.2 1,1.1 1.8,2.3 2.6,3.6 0.8,1.1 0.7,2.7 -0.2,3.7 -0.8,1.1 -1.8,2.1 -2.8,3 -2,1.8 -4.1,3.6 -6.2,5.3 -1.4,0.9 -2.1,2.5 -1.8,4.1 0,1 0,2.1 0.1,3.5 z m -0.8,-9.6 c 1.5,-1.2 2.8,-2.1 4,-3.2 1.9,-1.6 1.9,-2.1 -0.1,-3.6 -0.1,-0.1 -0.3,-0.2 -0.4,-0.3 -0.6,-0.5 -1.4,-0.4 -1.9,0.2 -0.1,0.1 -0.1,0.2 -0.2,0.2 -1.1,2.1 -1.6,4.4 -1.4,6.7 z"
   id="path22"
   style="fill:#e9e1d0;fill-opacity:1" />
<path
   class="st0"
   d="m 204.5,39.8 c 2.6,0 5.1,0 7.6,0 1.8,0 3.5,0.2 5.3,0.3 0.8,0 1,0.4 0.8,1.1 -0.4,2 -0.8,4 -1.3,6 -0.2,0.3 -0.5,0.5 -0.8,0.6 -3.2,0 -6.5,-0.1 -9.7,-0.1 -2.3,-0.1 -4.4,-1.3 -5.5,-3.3 -1.8,-2.6 -2.8,-5.7 -3,-8.9 -0.4,-3.2 -0.1,-6.5 0.9,-9.6 0.5,-1.9 1.5,-3.6 2.9,-4.9 2.1,-1.9 4.3,-3.7 6.6,-5.3 2.2,-1.5 4.2,-1.2 6.1,0.6 1.1,1 1.9,2.2 2.6,3.5 1,2 0.7,3.4 -0.9,4.9 -2.6,2.4 -5.3,4.7 -8,7.1 -0.5,0.4 -1,1 -1.5,1.4 -2.2,1.6 -2.3,3.9 -2.1,6.6 z m -0.4,-11.6 c 0.3,1.3 0.8,1.9 1.4,1.4 1.8,-1.4 3.5,-2.9 5.2,-4.5 0.2,-0.3 0.2,-0.6 0.1,-0.9 -0.8,-1.6 -4.3,-1.8 -5.1,-0.3 -0.6,1.5 -1.2,2.8 -1.6,4.3 z"
   id="path24"
   style="fill:#e9e1d0;fill-opacity:1" />
<path
   class="st0"
   d="m 190.5,18 v 9.3 c 0,3 0,6 0,9 0,0.4 0.1,0.9 0.3,1.2 1.4,1.2 3,2.4 4.4,3.6 0.3,0.2 0.4,0.6 0.4,0.9 -0.1,0.5 -0.4,1 -0.7,1.5 -1.3,1.7 -2.6,3.3 -4,5 -4.4,-2.7 -7.7,-5.8 -7.7,-11.3 0.1,-6.3 0.2,-12.6 0.2,-18.9 v -0.9 c -0.7,0 -1.4,-0.1 -2.1,-0.1 -1.3,-0.1 -1.5,-0.4 -1.5,-2 0,-1.6 0.3,-1.9 1.5,-2 1.7,-0.1 1.9,-0.3 1.9,-2 -0.1,-1.4 0.5,-2.7 1.6,-3.6 l 5.7,-4.4 v 10 h 3.9 c 1.9,0 2.1,0.2 2.1,2.1 0,2.6 0,2.6 -2.7,2.7 C 192.7,18 191.7,18 190.5,18 Z"
   id="path26"
   style="fill:#e9e1d0;fill-opacity:1" />
<path
   class="st0"
   d="m 233,40.3 -5.6,6 c -2,-1.9 -3.9,-3.7 -5.8,-5.5 -0.1,-0.3 -0.1,-0.6 0,-0.8 1.9,-3.1 2,-6.6 2,-10.1 0,-3.1 0,-6.2 0,-9.2 -0.1,-0.8 0.3,-1.6 1,-2 1.4,-1 2.8,-2.1 4.5,-3.5 0.4,1.5 0.8,3 1,4.5 0.2,3.1 0.2,6.3 0.3,9.5 0,1 0,1.9 0,2.9 -0.2,2.9 0.7,5.9 2.6,8.2 z"
   id="path28"
   style="fill:#e9e1d0;fill-opacity:1" />
<path
   class="st0"
   d="m 222.3,6.9 c 1.6,-1.5 4.1,-1.5 5.8,-0.1 1.1,0.8 2.4,1.6 3.5,2.4 -1.3,1.5 -2.7,1.9 -4.1,1.1 -1.8,-1.1 -3.4,-2.3 -5.2,-3.4 z"
   id="path30"
   style="fill:#e9e1d0;fill-opacity:1" />
</svg>
