<svg id="Layer_1" data-name="Layer 1" xmlns="http://www.w3.org/2000/svg" viewBox="0 0 1920 230.21"><defs><style>.cls-1{fill:#fff;}</style></defs><path class="cls-1" d="M6536.51,7210.23h55c.68,3.81,1,7.5,2,11,2.57,9.28,7.57,16.4,17.77,18.42a21,21,0,0,0,22.41-10.66c4.39-8.14,3.24-17.26-3.73-23.71a53.26,53.26,0,0,0-12.55-8.65c-7.92-3.91-16.16-7.17-24.35-10.51a143.26,143.26,0,0,1-29.57-15.82c-31-22.25-30.22-63.91-7.07-87.39,12.61-12.8,28-20.2,45.54-23.06,21.61-3.51,41.89.37,60.51,12.15,19.41,12.28,27.59,30.47,27.8,52.83a8.19,8.19,0,0,1-.48,1.9h-54.38c-1.7-4.52-2.84-9-5-12.88-4-7.37-13.22-10-22.27-7-8.28,2.75-13.14,9.7-12.5,17.85a15.58,15.58,0,0,0,5.8,11.23,64.76,64.76,0,0,0,11.21,7.55c7.52,3.83,15.41,6.95,23,10.72,9.14,4.55,18.36,9.05,27.09,14.32,12.18,7.35,22.13,17,27.87,31l.54-6.49c2.26-27.31,14.42-49.13,36.64-65.14,44.4-32,119.29-14.86,136.58,49.38.3,1.12.42,2.28.7,3.82h-49.48c-.64-1-1.5-2.3-2.3-3.62-9.18-15.37-23.23-20.75-40.25-18.55-15.66,2-25.36,11.86-30.14,26.47a45.74,45.74,0,0,0,1.39,33.44c6,13.76,16.63,21.68,31.71,23s27.7-3.45,36.09-16.48c2.6-4,5.3-5.39,9.91-5.28,12.39.29,24.8.1,37.2.1H6865c-2.37,30.7-36.11,61.64-72.6,67.11-40.55,6.09-84.81-15.31-99.62-66.21-.42,2.86-.8,4.93-1,7-3.19,33.47-25.16,49.36-46.71,55.08s-42.87,5.58-64-1.44c-26.58-8.85-42.72-30.08-44.54-58C6536.27,7219.47,6536.51,7215.16,6536.51,7210.23Z" transform="translate(-6239.5 -7058.64)"/><path class="cls-1" d="M7124.32,7185c8.19-31.78,25.94-55.41,57.05-67.37,20.7-8,41.69-7.23,62.25,1,44.81,17.89,59,65.53,52.62,96.73H7173.16a48.89,48.89,0,0,0,1.06,5.66c4.85,14.85,15.62,22.81,30.6,25.1,13.48,2.05,25.44-1.21,34.49-12.16,1.44-1.75,2.92-2.9,5.42-2.88,15,.12,29.92.07,44.88.1a6.78,6.78,0,0,1,1.56.41c-6.61,28.4-42,54.68-76.37,56.68-32,1.85-78.59-18.32-90-72.52h-124a56.62,56.62,0,0,0,1.73,6.91c5.31,13.8,15.78,21.33,30.05,23.46,13.47,2,25.45-1.15,34.5-12.13,1.42-1.72,2.87-2.93,5.4-2.91,15.35.11,30.7.05,46.44.05a6.59,6.59,0,0,1,0,2.39c-11.85,25.2-29.77,43.94-57.21,51.69-47.38,13.38-97.56-17.28-107.79-65.48-9.37-44.11,15.74-89.25,57.86-103.05,45.91-15.06,97.25,9.23,110.85,61.13C7123.22,7180.13,7123.75,7182.56,7124.32,7185Zm123.22-3.2c-1.36-14.82-17.07-27.22-34.79-27.75-19.82-.58-36,10.92-38.51,27.75Zm-172.38,0c-.49-14.69-17.25-27.57-35.79-27.8-19.2-.24-36.2,12.36-37,27.8Z" transform="translate(-6239.5 -7058.64)"/><path class="cls-1" d="M8153.58,7164.1H8106.4c-3.75-10.91-12.58-15.12-22.64-11-8.62,3.51-10.19,13.14-2.72,18.74a43.68,43.68,0,0,0,11.51,5.8c6.47,2.29,13.23,3.77,19.74,6a204,204,0,0,1,20.35,7.77c30.82,14.29,30.4,43.66,21.89,63.19-5,11.45-13.61,19.77-24.71,25.21-23,11.27-46.65,12.08-70.23,2.21-18.56-7.76-29.56-22.25-33.81-41.85a58.37,58.37,0,0,1-.63-6h48.29c.4.83.77,1.51,1.05,2.23a19.64,19.64,0,0,0,30.06,9.07c6.33-4.49,7.29-13,1.71-18.42a27.43,27.43,0,0,0-8.28-5.49c-6.32-2.69-12.91-4.74-19.3-7.25-8.77-3.45-17.59-6.81-26.14-10.77a56,56,0,0,1-11.72-7.85c-10.89-9-15.19-20.68-13.61-34.63.13-1.17.3-2.34.41-3.51a17.39,17.39,0,0,0-.15-2c-6.43-.27-12.95-.26-20.27.08v127h-49.27c0-8.35-.09-16.71-.1-25.07s0-16.92,0-25.38V7155.5h-24.15v-37.59h24v-54.52H8007v54.29h24v25.65l1.08.23c.42-.56.88-1.09,1.24-1.68,10.93-17.83,27.7-26.3,47.71-28.95a76,76,0,0,1,38.88,4.46c19.35,7.78,30.63,22,34,42.59a15.25,15.25,0,0,1,.15,2.34A10.08,10.08,0,0,1,8153.58,7164.1Z" transform="translate(-6239.5 -7058.64)"/><path class="cls-1" d="M7654.37,7282.55h-49.12v-219.2h48.86v68.26a16.74,16.74,0,0,0,2.79-2.09c7.5-9.84,17.9-14.65,29.71-16.44a69.81,69.81,0,0,1,33.26,2.57c20.69,7,31.73,22.39,35.94,43.07a109.68,109.68,0,0,1,2.08,21.09c.22,32.47.11,64.93.09,97.4,0,1.72-.21,3.44-.33,5.35h-49.12c0-2.41,0-4.52,0-6.63,0-27.55.12-55.1-.11-82.64a68.8,68.8,0,0,0-2.31-17.45c-3-11.07-11.14-16.79-22.68-17.08-1.57,0-3.15,0-4.72.06-12.1.67-20.44,7.44-23,19.23a68.74,68.74,0,0,0-1.33,14c-.12,27.94-.06,55.88-.06,83.82Z" transform="translate(-6239.5 -7058.64)"/><path class="cls-1" d="M7854.28,7288.11c-35.47-1.23-63.28-15-79.72-46.64-24.8-47.76-3.32-113.34,59.08-126.78,39-8.4,77.95,7.58,97.22,40.69,28.07,48.22,5.75,120.33-61.89,131.25C7863.94,7287.44,7858.81,7287.67,7854.28,7288.11Zm-1.39-46.33c13.53-.18,23.75-5.28,31.44-15.24a43.36,43.36,0,0,0,2.82-48.3c-15.21-25.71-50.8-26.23-66.44-.78-9,14.67-9.16,29.95-.51,44.79C7827.57,7234.89,7838.94,7241.49,7852.89,7241.78Z" transform="translate(-6239.5 -7058.64)"/><path class="cls-1" d="M7305,7118.09h45.63v15.77l1,.26c.83-1,1.72-1.91,2.47-2.94a43.42,43.42,0,0,1,29.43-17.93c12.82-2,25.55-1.36,37.78,3.41,19.49,7.59,30.38,22.37,34.34,42.46a96.93,96.93,0,0,1,1.67,18.16c.16,33.44.09,66.87.07,100.31,0,1.53-.18,3.07-.3,4.93h-49v-7.16c0-27.14.11-54.28-.08-81.42a83.19,83.19,0,0,0-1.93-18.1c-2.57-11-9.9-16.52-21.15-17.05-.59,0-1.18,0-1.77-.05-18.23-.31-27.74,8.46-29,26.76-.2,3.14-.19,6.29-.19,9.44q0,40.41,0,80.83v6.72H7305Z" transform="translate(-6239.5 -7058.64)"/><path class="cls-1" d="M6396.52,7103.52h96.83c1.58,0,3.16-.06,4.72,0,9.2.55,15.85,7.2,16,16.41.18,10.62.05,21.24.05,31.86v109.75c0,1.57.05,3.15,0,4.72-.36,8-5.55,14.21-13.45,15.68a45.07,45.07,0,0,1-8.22.52q-95.94,0-191.88,0a47.43,47.43,0,0,1-7.64-.41,16.22,16.22,0,0,1-14-15.23c-.11-1.37-.08-2.75-.08-4.13q0-69.63,0-139.25c0-1.38,0-2.76.06-4.13.66-8.91,7.11-15.24,16.09-15.79,1.57-.09,3.15,0,4.73,0Zm95.11,22.64H6301.44v133.31c6.69,1.35,185.89,1.07,190.19-.26Z" transform="translate(-6239.5 -7058.64)"/><path class="cls-1" d="M7545.16,7163.91a1.71,1.71,0,0,1-.34-.47c-3.45-10.37-12.86-14.59-22.75-10.21-8,3.53-9.52,12.62-2.82,18.17a31.61,31.61,0,0,0,9.21,5.12c6.07,2.24,12.4,3.8,18.53,5.89,8,2.72,16.22,5,23.78,8.68,28.92,14,36.47,47.4,16.85,73a54.84,54.84,0,0,1-22.12,17.24c-21.59,9.3-43.6,10.07-65.48,1.39-19.35-7.67-31-22.24-35.48-42.55a26.74,26.74,0,0,1-.51-4.09,8.33,8.33,0,0,1,.43-2h47.74c.37.78.76,1.45,1,2.17a19.67,19.67,0,0,0,30.06,9.13c6.35-4.48,7.32-13,1.75-18.42a27.28,27.28,0,0,0-8.28-5.5c-6.32-2.7-12.91-4.74-19.3-7.26-8.77-3.45-17.49-7-26.18-10.68a37.75,37.75,0,0,1-5.08-3c-26-15.86-23.77-42.17-13.85-59,8.57-14.58,22-22.83,38-26.81,17.5-4.34,34.82-3.5,51.39,4,18.14,8.23,28.2,22.64,31,42.25a4.67,4.67,0,0,1,0,1.18,9.21,9.21,0,0,1-.23,1.14C7588.49,7164.61,7554.16,7165,7545.16,7163.91Z" transform="translate(-6239.5 -7058.64)"/><path class="cls-1" d="M6959.57,7112.7v49.07a57.49,57.49,0,0,0-6.89.58c-5.56,1.1-11.31,1.83-16.57,3.79-8.4,3.13-13.19,9.7-14.41,18.63a81.14,81.14,0,0,0-.73,10.57q-.09,40.14,0,80.28v6.84h-48.87V7118.21h45.81v16.25c4.2-4.86,7.19-9.48,11.27-12.73a50.61,50.61,0,0,1,13.92-7.37A35.35,35.35,0,0,1,6959.57,7112.7Z" transform="translate(-6239.5 -7058.64)"/><path class="cls-1" d="M6434.4,7087.21H6277.15c-1.77,0-3.55-.08-5.31,0-4.45.32-7.35,2.66-8.27,7a34.31,34.31,0,0,0-.48,7q0,67.26,0,134.51v7c-5.47,1-10.12,1-14.47-1.28-6.17-3.19-9.11-8.4-9.09-15.34,0-10,0-20.06,0-30.09q0-54.85,0-109.73c0-1.77-.05-3.54,0-5.31.36-9.1,6.3-15.51,15.34-16.48a57.77,57.77,0,0,1,5.89-.13h154.67C6429.49,7064.56,6436.22,7072.27,6434.4,7087.21Z" transform="translate(-6239.5 -7058.64)"/><path class="cls-1" d="M6327.76,7242.28c1.53-4.93,34.66-53.67,39.12-57.47,6,7.13,10.36,15.49,16.93,23.5l29.24-42.48c4.38,3.51,50.43,70.88,52.21,75.95C6461,7243,6338.32,7243.44,6327.76,7242.28Z" transform="translate(-6239.5 -7058.64)"/><path class="cls-1" d="M6343.65,7143.29a17.29,17.29,0,0,1,17.87,17.19,17.68,17.68,0,1,1-35.35.42A17.41,17.41,0,0,1,6343.65,7143.29Z" transform="translate(-6239.5 -7058.64)"/></svg>