<?xml version="1.0" encoding="UTF-8" standalone="no"?>
<!-- Generator: Adobe Illustrator 26.0.3, SVG Export Plug-In . SVG Version: 6.00 Build 0)  -->

<svg
   version="1.1"
   id="Layer_1"
   x="0px"
   y="0px"
   viewBox="0 0 154.95111 75.01239"
   xml:space="preserve"
   sodipodi:docname="j2me.svg"
   width="154.95111"
   height="75.01239"
   inkscape:version="1.1.2 (b8e25be833, 2022-02-05)"
   xmlns:inkscape="http://www.inkscape.org/namespaces/inkscape"
   xmlns:sodipodi="http://sodipodi.sourceforge.net/DTD/sodipodi-0.dtd"
   xmlns="http://www.w3.org/2000/svg"
   xmlns:svg="http://www.w3.org/2000/svg"><defs
   id="defs32" /><sodipodi:namedview
   id="namedview30"
   pagecolor="#ffffff"
   bordercolor="#666666"
   borderopacity="1.0"
   inkscape:pageshadow="2"
   inkscape:pageopacity="0.0"
   inkscape:pagecheckerboard="0"
   showgrid="false"
   inkscape:zoom="6.8258065"
   inkscape:cx="77.280246"
   inkscape:cy="37.504726"
   inkscape:window-width="2560"
   inkscape:window-height="1387"
   inkscape:window-x="-8"
   inkscape:window-y="-8"
   inkscape:window-maximized="1"
   inkscape:current-layer="Layer_1" />
<style
   type="text/css"
   id="style2">
	.st0{fill:#E9E1D0;}
</style>
<g
   id="surface1"
   transform="translate(-0.16)"
   style="fill:#e9e1d0;fill-opacity:1">
	<path
   class="st0"
   d="m 155,57.8 c -1.2,0 -2.3,0 -3.5,0 -0.7,0 -1,-0.4 -1.2,-1.1 -0.1,-0.4 -0.1,-0.8 -0.1,-1.1 -0.1,-0.6 -0.5,-0.8 -1,-0.5 -0.3,0.2 -0.6,0.4 -0.9,0.6 -3.3,2.5 -6.9,3.3 -10.9,2.3 -3.2,-0.8 -5.3,-3.4 -5.5,-6.8 -0.4,-5.3 3.1,-8.7 7.2,-9.8 1.6,-0.4 3.3,-0.5 4.9,-0.7 1.5,-0.2 2.9,-0.2 4.4,-0.4 0.8,-0.1 1.1,-0.4 1,-1.2 -0.1,-1.3 -0.2,-2.7 -0.5,-4 -0.5,-2.1 -2,-3.2 -4.1,-3.4 -3.2,-0.3 -6.3,0.1 -9.3,1.2 -0.2,0.1 -0.5,0.2 -0.7,0.2 -0.2,0 -0.5,-0.2 -0.6,-0.4 -0.2,-0.5 -0.3,-1 -0.5,-1.6 -0.2,-0.7 -0.1,-1.1 0.6,-1.4 3.7,-1.4 7.5,-2.4 11.6,-2.1 1.3,0.1 2.5,0.4 3.8,0.8 3,1 4.4,3.4 5.1,6.3 0.4,1.4 0.3,2.8 0.3,4.2 0,5.9 0,11.9 0,17.8 z m -8.5,-14.1 c -1.8,0 -3.6,0.1 -5.3,0.6 -2.3,0.7 -3.5,2.1 -3.8,4.5 -0.3,3 1.5,5.3 4.5,5.5 1.5,0.1 3,-0.4 4.3,-1 1.6,-0.7 2.7,-2 2.8,-3.7 0.2,-1.8 0.1,-3.5 0.2,-5.3 0,-0.4 -0.3,-0.7 -0.7,-0.7 -0.6,0.1 -1.3,0.1 -2,0.1 z"
   id="path4"
   style="fill:#e9e1d0;fill-opacity:1" />
	<path
   class="st0"
   d="m 98.8,45.8 c 0,3.5 0,7 0,10.5 0,1.2 -0.2,1.5 -1.5,1.5 -0.4,0 -0.7,0 -1.1,0 -1.3,-0.1 -1.8,-0.6 -2,-1.9 0,-0.4 -0.2,-0.7 -0.3,-1 -0.4,0.2 -0.8,0.3 -1.1,0.5 -2,1.6 -4.3,2.6 -6.8,3 -2.5,0.4 -5,-0.1 -7.2,-1.5 -1.6,-1 -2.3,-2.6 -2.7,-4.3 -0.9,-4.1 0.3,-8.6 5.9,-10.7 2.2,-0.8 4.6,-1.3 7,-1.3 0.9,0 1.8,0 2.7,-0.1 0.8,0 1.2,-0.3 1.4,-1 0.4,-1.9 0.3,-3.7 -0.7,-5.5 -0.9,-1.6 -2.4,-2.1 -4.1,-2.3 -2.8,-0.4 -5.4,0.2 -8.1,1 -0.5,0.1 -0.9,0.3 -1.4,0.5 -0.5,0.2 -0.7,-0.1 -0.9,-0.5 -0.1,-0.4 -0.2,-0.8 -0.3,-1.2 -0.4,-1 -0.2,-1.4 0.8,-1.7 1.6,-0.5 3.3,-1 5,-1.4 3.2,-0.7 6.3,-0.9 9.5,0.1 3.5,1 5.6,3.7 5.6,7.4 0,1.7 0,3.3 0,5 z m -5.4,1.5 v 0 c 0,-0.9 0,-1.8 0,-2.7 0,-0.7 -0.2,-0.9 -0.9,-0.9 -1,0 -2.1,0 -3.1,0.1 -1.2,0.1 -2.5,0.2 -3.7,0.5 -2.5,0.6 -3.7,2 -4,4.4 -0.2,1.8 0.1,3.4 1.6,4.6 1.3,1 2.9,1.3 4.5,1 1.8,-0.4 3.4,-1.4 4.8,-2.4 0.7,-0.5 0.8,-1.2 0.8,-2 0,-0.9 0,-1.7 0,-2.6 z"
   id="path6"
   style="fill:#e9e1d0;fill-opacity:1" />
	<path
   class="st0"
   d="m 116.7,52.3 c 0.8,-2.3 1.7,-4.6 2.3,-7 1.1,-3.8 2.1,-7.7 3,-11.6 0.3,-1.3 0.4,-2.7 0.6,-4.1 0.1,-1 0.2,-1.1 1.2,-1.1 1.3,0 2.6,0 3.9,0 0.7,0 0.9,0.3 0.7,1 -1.8,7.7 -3.6,15.3 -6.4,22.7 -0.6,1.4 -1.2,2.9 -1.8,4.3 -0.5,1.1 -1,1.4 -2.2,1.3 -1.4,0 -2.9,0 -4.3,0 -1,0 -1.3,-0.2 -1.6,-1.1 -2.8,-9 -5.6,-18 -8.4,-27 -0.1,-0.2 -0.1,-0.4 -0.1,-0.6 -0.1,-0.4 0.1,-0.6 0.5,-0.6 1.1,0 2.3,0 3.4,0 1.1,0 1.9,0.6 2.3,1.6 0.6,1.7 1.2,3.5 1.8,5.2 1.5,5.2 3,10.3 4.5,15.5 0.1,0.5 0.4,1 0.6,1.4 z"
   id="path8"
   style="fill:#e9e1d0;fill-opacity:1" />
	<path
   class="st0"
   d="m 71,37.4 c 0,4.4 0.1,8.8 0,13.2 0,2.4 -0.1,4.8 -0.5,7.2 -0.7,4.4 -3,7.7 -6.9,9.9 -1.6,0.9 -3.7,-0.3 -4.2,-1.5 -0.2,-0.4 -0.2,-0.8 0.3,-1.1 3.3,-1.9 4.9,-4.9 5.3,-8.6 0.2,-1.6 0.2,-3.1 0.2,-4.7 0,-7.2 0,-14.4 0,-21.6 0,-3.5 -0.1,-6.9 -0.1,-10.3 0,-1.8 0.4,-2.2 2.2,-2.1 0.8,0 1.5,0.1 2.2,0.2 0.8,0.1 1.2,0.4 1.3,1.3 0.1,0.4 0.1,0.9 0.1,1.3 0,5.5 0,11.1 0.1,16.8 z"
   id="path10"
   style="fill:#e9e1d0;fill-opacity:1" />
	<path
   class="st0"
   d="m 36.5,0 c 0.1,0.1 0.2,0.2 0.2,0.3 0.7,2.7 0.9,5.4 -0.1,8.1 -0.7,1.9 -1.8,3.5 -3.3,5 -2.4,2.4 -4.8,4.7 -7.2,7.1 -0.8,0.8 -1.5,1.7 -2.2,2.5 -2.3,2.7 -2.7,5.7 -1.2,8.8 0.7,1.6 1.7,3.1 2.5,4.6 0.1,0.2 0.2,0.4 0.3,0.6 l -0.2,0.1 c -0.2,-0.3 -0.5,-0.5 -0.7,-0.8 -2.1,-2.1 -3.9,-4.5 -5.4,-7.1 -1.2,-2 -1.2,-4 0.1,-5.9 0.9,-1.3 2,-2.7 3.2,-3.8 2.4,-2.2 4.9,-4.2 7.3,-6.3 1.1,-1 2.3,-2 3.3,-3.1 2.2,-2.4 3.3,-5.3 3.5,-8.6 0,-0.3 -0.1,-0.6 -0.1,-0.9 0,-0.2 0,-0.4 0,-0.6 z"
   id="path12"
   style="fill:#e9e1d0;fill-opacity:1" />
	<path
   class="st0"
   d="m 43,14.9 c -2.2,1.6 -4.3,3.1 -6.3,4.7 -1.2,1 -2.3,2.3 -3.3,3.5 -1.4,1.8 -1.4,3.7 -0.2,5.6 0.7,1.2 1.5,2.3 2.2,3.5 0.7,1.3 1.3,2.6 1,4.1 0,0.4 -0.2,0.8 -0.3,1.2 -0.9,1.8 -2.4,3.2 -4,4.3 H 32 c 0.1,-0.2 0.2,-0.3 0.3,-0.5 1.3,-1.9 1.3,-3.8 0.1,-5.7 C 32,34.9 31.5,34.3 31,33.7 30,32.3 29.1,30.8 28.7,29 c -0.5,-2.7 0.2,-5 2.1,-7 1.9,-2.1 4.3,-3.7 6.9,-4.9 1.6,-0.7 3.2,-1.3 4.8,-2 0.1,-0.2 0.3,-0.2 0.5,-0.2 z"
   id="path14"
   style="fill:#e9e1d0;fill-opacity:1" />
	<path
   class="st0"
   d="m 52.4,64.8 c 0.4,0.5 0.3,0.9 0,1.1 -0.8,0.6 -1.6,1.2 -2.5,1.7 -2.2,1 -4.6,1.6 -7,2 C 37.8,70.5 32.7,70.8 27.6,71 22.2,71.2 16.8,71.1 11.5,70.7 8.5,70.5 5.4,70.1 2.5,69.3 1.9,69.1 1.2,68.8 0.7,68.5 0.1,68.1 0,67.6 0.4,67 c 0.3,-0.4 0.7,-0.8 1.2,-1.1 1.8,-1 3.8,-1.6 5.9,-1.7 -0.2,0.1 -0.4,0.2 -0.6,0.3 -0.6,0.3 -1.1,0.5 -1.6,0.8 -0.4,0.2 -0.7,0.6 -0.7,1.2 0,0.5 0.4,0.8 0.9,1 1.4,0.4 2.9,0.8 4.4,1.1 6.6,1 13.3,1.2 20,0.8 4.3,-0.3 8.7,-0.5 13,-0.9 2.8,-0.2 5.5,-0.6 8.1,-1.7 0.6,-0.6 1.2,-1 1.4,-2 z"
   id="path16"
   style="fill:#e9e1d0;fill-opacity:1" />
	<path
   class="st0"
   d="m 39.3,61.5 c -2,0.5 -4,1.1 -6.1,1.5 C 28.1,64 23,63.9 18,62.6 17.1,62.4 16.2,62 15.4,61.5 c -1.2,-0.7 -1.1,-1.7 0,-2.5 0.4,-0.3 0.9,-0.5 1.5,-0.9 0.1,1.5 1,1.9 2.1,2 5,0.5 10.1,0.4 15.1,-0.4 1.3,-0.2 2.4,-0.1 3.5,0.6 0.5,0.4 1.2,0.7 1.7,1 z"
   id="path18"
   style="fill:#e9e1d0;fill-opacity:1" />
	<path
   class="st0"
   d="m 40.3,53.3 c -2.3,0.5 -4.5,1 -6.8,1.4 -4.5,0.8 -9,0.5 -13.5,0.2 -2.2,-0.2 -4.3,-0.4 -6.4,-1.2 -0.6,-0.2 -1.2,-0.5 -1.3,-1.2 -0.1,-0.8 0.3,-1.4 0.9,-1.7 0.6,-0.3 1.1,-0.6 1.8,-1 -0.2,1.8 0.1,2.1 1.9,2.6 1,0.3 2.1,0.3 3.2,0.4 5.8,0.3 11.6,-0.3 17.3,-1.2 0.4,0 0.8,0 1.1,0.2 0.6,0.4 1.2,0.9 1.8,1.3 z"
   id="path20"
   style="fill:#e9e1d0;fill-opacity:1" />
	<path
   class="st0"
   d="m 42.7,43.9 c -1.1,1.3 -2.6,1.4 -4,1.6 C 33.2,46.2 27.6,47 22,46.9 17.2,46.9 12.4,46.8 7.7,45.6 7.3,45.5 7,45.4 6.7,45.3 6.5,45.2 6.2,44.9 6.2,44.8 c 0,-0.2 0.2,-0.6 0.4,-0.7 0.9,-0.5 1.9,-1 2.9,-1.4 1.7,-0.6 3.4,-1 5,-1.5 0.2,-0.1 0.4,0 0.6,0.1 -0.4,0.2 -0.7,0.3 -1.1,0.5 -0.7,0.3 -1.3,0.6 -2,1 -0.5,0.2 -0.8,0.6 -0.7,1.2 0.1,0.6 0.6,0.7 1.1,0.8 2.7,0.6 5.4,0.6 8.1,0.7 6.4,0.2 12.8,-0.5 19.2,-1.2 z"
   id="path22"
   style="fill:#e9e1d0;fill-opacity:1" />
	<path
   class="st0"
   d="m 15,73.6 c 1.2,0 2.4,-0.1 3.6,0 5.9,0.4 11.8,0.5 17.7,0 5,-0.4 10.1,-1 14.8,-2.7 1.3,-0.5 2.5,-1.1 3.7,-1.7 0.1,-0.1 0.3,-0.1 0.4,-0.2 l 0.1,0.1 c -0.4,0.4 -0.9,0.8 -1.3,1.2 -2.3,1.6 -4.9,2.4 -7.6,3 C 40,74.6 33.5,75.1 27,75 23,74.9 19,74.7 15.1,73.8 c -0.1,0 -0.1,0 -0.2,-0.1 z"
   id="path24"
   style="fill:#e9e1d0;fill-opacity:1" />
	<path
   class="st0"
   d="m 46.8,53.6 c 0.6,-0.4 1.2,-0.9 1.7,-1.3 1.4,-1.1 2.7,-2.2 3.6,-3.7 0.5,-0.8 0.9,-1.8 1.1,-2.7 0.6,-2.7 -1.1,-4.8 -3.8,-5.2 -0.5,-0.1 -1,-0.1 -1.5,-0.1 v -0.2 c 0.7,-0.1 1.4,-0.3 2.2,-0.3 1.9,0 3.5,0.7 4.8,2.1 1.3,1.4 1.6,3.7 0.6,5.4 -0.4,0.7 -0.9,1.4 -1.5,2 -1.8,1.8 -3.9,3.1 -6.2,3.9 -0.3,0.1 -0.6,0.2 -0.9,0.2 z"
   id="path26"
   style="fill:#e9e1d0;fill-opacity:1" />
</g>
</svg>
