<?xml version="1.0" encoding="UTF-8" standalone="no"?>
<!-- Generator: Adobe Illustrator 26.0.3, SVG Export Plug-In . SVG Version: 6.00 Build 0)  -->

<svg
   version="1.1"
   id="Layer_1"
   x="0px"
   y="0px"
   viewBox="0 0 262.98599 59.927101"
   xml:space="preserve"
   sodipodi:docname="mplayer.svg"
   width="262.98599"
   height="59.927101"
   inkscape:version="1.1.2 (b8e25be833, 2022-02-05)"
   xmlns:inkscape="http://www.inkscape.org/namespaces/inkscape"
   xmlns:sodipodi="http://sodipodi.sourceforge.net/DTD/sodipodi-0.dtd"
   xmlns="http://www.w3.org/2000/svg"
   xmlns:svg="http://www.w3.org/2000/svg"><defs
   id="defs15" /><sodipodi:namedview
   id="namedview13"
   pagecolor="#ffffff"
   bordercolor="#666666"
   borderopacity="1.0"
   inkscape:pageshadow="2"
   inkscape:pageopacity="0.0"
   inkscape:pagecheckerboard="0"
   showgrid="false"
   inkscape:zoom="4.0075758"
   inkscape:cx="131.87524"
   inkscape:cy="29.943289"
   inkscape:window-width="2560"
   inkscape:window-height="1387"
   inkscape:window-x="-8"
   inkscape:window-y="-8"
   inkscape:window-maximized="1"
   inkscape:current-layer="Layer_1" />
<style
   type="text/css"
   id="style2">
	.st0{fill:#E9E1D0;}
	.st1{fill:#E9E1D0;stroke:#FFFFFF;stroke-width:4;stroke-linejoin:bevel;stroke-miterlimit:1;}
	.st2{fill-rule:evenodd;clip-rule:evenodd;fill:#FFFFFF;}
</style>
<path
   class="st0"
   d="M 6.7,8.9271015 H 14 L 23,36.127102 32.2,8.9271015 h 7.2 L 46,47.927102 h -7.2 l -4.2,-24.6 -8.4,24.6 h -6.5 l -8.2,-24.6 -4.3,24.6 H 0 L 6.7,8.9271015 m 45.1,0 h 7.9 c 4.3,0 7.3,0.4 9.2,1.2000005 1.9,0.8 3.4,2.1 4.5,3.8 1.1,1.8 1.6,3.9 1.6,6.3 0,2.7 -0.7,5 -2.1,6.8 -1.4,1.8 -3.3,3.1 -5.8,3.8 -1.4,0.4 -4,0.6 -7.8,0.6 v 16.5 H 51.9 V 8.9271015 m 7.4,15.2000005 h 2.4 c 1.9,0 3.1,-0.1 3.9,-0.4 0.7,-0.3 1.3,-0.7 1.7,-1.3 0.4,-0.6 0.6,-1.4 0.6,-2.2 0,-1.5 -0.6,-2.6 -1.8,-3.3 -0.8,-0.5 -2.4,-0.8 -4.7,-0.8 h -2.1 v 8"
   id="path4"
   style="fill:#e9e1d0;fill-opacity:1" />
<path
   class="st0"
   d="m 84.8,12.627102 -5.3,29.1 c -0.2,1.3 -0.4,2.2 -0.4,2.9 0,2.6 1.7,4 4.8,4 1.8,0 4.6,-0.8 8.4,-2.2 v -2.1 c -1.7,0.5 -3.1,0.8 -4.3,0.8 -1.2,0 -2.2,-1.1 -2.2,-2.8 0,-1.1 0.3,-2.4 0.6,-4 L 91.9,7.9271015 h -2.4 l -9.2,2.1000005 v 1.9 l 4.5,0.7 m 33.2,8.6 -2,1.3 c -2.2,-0.9 -4.2,-1.4 -6.2,-1.4 -4.8,0 -9.2,2.5 -11.9,6.6 -2.1,3.3 -3.2,6.9 -3.2,10.9 0,6.3 2.9,9.9 7.7,9.9 2.6,0 5.5,-1.5 8.5,-4.4 0,0.1 0,0.2 0,0.3 0,2.6 1.4,4 4,4 2,0 4.7,-0.7 8.1,-1.9 v -2 c -1.3,0.4 -2.5,0.6 -3.5,0.6 -1.2,0 -2.3,-1.1 -2.3,-3 0,-0.7 0.2,-2 0.5,-3.8 l 1.6,-8.8 c 0.8,-4.5 1.5,-7.3 1.8,-8.3 H 118 m -6.6,2.6 2.1,3.3 -2.5,14.5 c -2,1.7 -3.8,2.6 -5.4,2.6 -2.6,0 -4.1,-2.1 -4.1,-6.3 0,-8.3 4.2,-14.1 9.2,-14.1 0.3,-0.1 0.5,0 0.7,0 m 20.6,-2.7 -8.3,1.9 v 1.8 l 4.7,0.4 c 0.6,1.1 1.1,2.6 1.3,4.1 l 3.2,17.3 h 2 c -2.9,5.6 -5.6,8.6 -8,8.8 l -3.6,-3.4 c -1.9,0.4 -3.1,1.8 -3.1,3.7 0,2.2 1.9,4.2 4.5,4.2 4.4,0 8.9,-4.3 13.6,-12.9 4.1,-7.5 6.3,-15.4 10.5,-21.1 l 3.2,-1.8 v -1.5 l -4.2,-1.4 h -1.7 c -3.3,7.9 -6,14.6 -8.2,20.3 l -1.9,-12 c -0.8,-5.2 -1.7,-7.9 -4,-8.4 m 26.5,14.6 c 0.6,0 1.1,0.1 1.7,0.1 9,0 13.9,-3.3 13.9,-8.5 0,-3.6 -2.5,-6 -6.7,-6 -3.2,0 -6.7,1.3 -9.4,3.7 -4,3.4 -6.1,8.1 -6.1,13.3 0,6.5 3.5,10.4 9.5,10.4 3.2,0 7.1,-1.5 11,-4.6 l 0.1,-3.3 c -3.2,2.6 -6.1,3.8 -8.4,3.8 -3.6,0 -5.7,-2.5 -5.7,-7.2 0,-0.5 0.1,-1.1 0.1,-1.7 m 0.5,-2.3 c 1.5,-6.2 4.3,-9.4 7.1,-9.4 1.6,0 2.6,1.1 2.6,2.8 0,3.2 -3.7,6.3 -9.7,6.6 m 27.6,-12.2 -9.2,2.2 v 1.9 l 4.5,0.7 -4.3,22.2 h 6.6 l 2.1,-12.7 c 0.8,-4.9 2.8,-7.9 7.1,-9.7 l 1.4,4.2 c 0.1,0 0.1,0 0.1,0 3.2,0 5.2,-2 5.2,-4.6 0,-2.4 -1.7,-4 -4,-4 -2.5,0 -5.7,2.4 -9.2,7.3 l 1.5,-7.3 h -1.8"
   id="path6"
   style="fill:#e9e1d0;fill-opacity:1" />
<path
   class="st1"
   d="m 210,27.427102 c 0,-19.6000005 21.3,-31.8000005 38.3,-22.0000005 17,9.8000005 17,34.3000005 0,44.1000005 -17,9.7 -38.3,-2.5 -38.3,-22.1"
   id="path8"
   style="fill:#e9e1d0;fill-opacity:1" />
<path
   class="st2"
   d="m 225.1,10.927102 29.9,17.5 -30,16.5 z"
   id="path10" />
</svg>
