<?xml version="1.0" encoding="UTF-8" standalone="no"?>
<!-- Generator: Adobe Illustrator 26.0.3, SVG Export Plug-In . SVG Version: 6.00 Build 0)  -->

<svg
   version="1.1"
   id="Layer_1"
   x="0px"
   y="0px"
   viewBox="0 0 264 44"
   xml:space="preserve"
   sodipodi:docname="pico-8.svg"
   width="264"
   height="44"
   inkscape:version="1.1.2 (b8e25be833, 2022-02-05)"
   xmlns:inkscape="http://www.inkscape.org/namespaces/inkscape"
   xmlns:sodipodi="http://sodipodi.sourceforge.net/DTD/sodipodi-0.dtd"
   xmlns="http://www.w3.org/2000/svg"
   xmlns:svg="http://www.w3.org/2000/svg"><defs
   id="defs19" /><sodipodi:namedview
   id="namedview17"
   pagecolor="#ffffff"
   bordercolor="#666666"
   borderopacity="1.0"
   inkscape:pageshadow="2"
   inkscape:pageopacity="0.0"
   inkscape:pagecheckerboard="0"
   showgrid="false"
   inkscape:zoom="0.55104167"
   inkscape:cx="959.09263"
   inkscape:cy="540.79395"
   inkscape:window-width="2560"
   inkscape:window-height="1387"
   inkscape:window-x="-8"
   inkscape:window-y="-8"
   inkscape:window-maximized="1"
   inkscape:current-layer="Layer_1" />
<style
   type="text/css"
   id="style2">
	.st0{fill:#E9E1D0;}
</style>
<path
   class="st0"
   d="m 17.6,8.8 h 9.3 v 9.1 H 17.6 Z M 0,44 H 17.4 L 17.5,26.4 H 44 L 43.9,0 H 9.1 L 0,9.1 Z"
   id="path4"
   style="fill:#e9e1d0;fill-opacity:1" />
<path
   class="st0"
   d="m 53,0 h 34.9 v 8.6 h -8.6 v 26.6 h 8.6 V 44 H 53 v -8.6 h 8.9 v -27 h -9 z"
   id="path6"
   style="fill:#e9e1d0;fill-opacity:1" />
<path
   class="st0"
   d="M 96.8,9.4 106.2,0 h 25.7 v 8.7 h -17.4 v 26.6 h 17.2 V 44 H 97 Z"
   id="path8"
   style="fill:#e9e1d0;fill-opacity:1" />
<path
   class="st0"
   d="m 158.6,8.8 h 8.8 v 26.3 h -8.8 z m -17.7,35 h 34.6 l 9.3,-9.3 V 0 H 150.3 L 141,9.2 Z"
   id="path10"
   style="fill:#e9e1d0;fill-opacity:1" />
<path
   class="st0"
   d="m 193.8,17.5 h 17.5 v 8.8 h -17.5 z"
   id="path12"
   style="fill:#e9e1d0;fill-opacity:1" />
<path
   class="st0"
   d="m 237.7,8.8 h 17.9 v 8.8 h -17.9 z m 0.1,17.5 h 17.9 v 8.8 H 237.8 Z M 264,43.9 V 0 h -35 v 9.4 l -8.7,8.7 v 25.8 z"
   id="path14"
   style="fill:#e9e1d0;fill-opacity:1" />
</svg>
