<?xml version="1.0" encoding="UTF-8" standalone="no"?>
<svg
   id="Layer_1"
   data-name="Layer 1"
   viewBox="0 0 1920 462.11"
   version="1.1"
   sodipodi:docname="ports.svg"
   inkscape:version="1.1.2 (b8e25be833, 2022-02-05)"
   xmlns:inkscape="http://www.inkscape.org/namespaces/inkscape"
   xmlns:sodipodi="http://sodipodi.sourceforge.net/DTD/sodipodi-0.dtd"
   xmlns="http://www.w3.org/2000/svg"
   xmlns:svg="http://www.w3.org/2000/svg">
  <sodipodi:namedview
     id="namedview41"
     pagecolor="#ffffff"
     bordercolor="#666666"
     borderopacity="1.0"
     inkscape:pageshadow="2"
     inkscape:pageopacity="0.0"
     inkscape:pagecheckerboard="0"
     showgrid="false"
     inkscape:zoom="0.5546875"
     inkscape:cx="604.84507"
     inkscape:cy="230.76056"
     inkscape:window-width="2560"
     inkscape:window-height="1387"
     inkscape:window-x="-8"
     inkscape:window-y="-8"
     inkscape:window-maximized="1"
     inkscape:current-layer="Layer_1" />
  <defs
     id="defs28">
    <style
       id="style26">.cls-1{fill:#fff;}</style>
  </defs>
  <path
     class="cls-1"
     d="M7849.33,7416.82H7748.57V7159c-11.82-2.58-22.44-1.34-33.81-1.06-.84,4.06-1.63,7.82-2.49,12-8,.94-16,1.55-23.79,2.88a124.18,124.18,0,0,0-19.82,4.79c-21.2,7.35-32.49,22.56-34.16,44.87-.41,5.6-.51,11.23-.52,16.85q0,81.9,0,163.8v13.75H7533.87V7083c8.16-2.48,70.06-3.36,93.15-1.15v33.23c8.65-10.11,15-18.5,22.36-25.85a58,58,0,0,1,29.44-15.57c10.51-2.22,21.21-3.58,32.46-5.42,1.34,4.62,2.29,7.9,3.48,12h33.1V6969.32H7849v111.41h47.92v54.62c2.81-2.45,4.15-3.14,4.79-4.23,19.36-33.13,49.56-50.68,85.93-58.39,32.61-6.91,64.89-4.44,95.59,9,37.57,16.4,59.26,45.37,65,86.07a24.06,24.06,0,0,1,.19,3.6c0,.8-.2,1.59-.42,3.26h-97.53c-1.39-8.2-4-16.17-12.27-20.4-9-4.6-18.64-4.89-28.21-2.83s-17.15,7.16-19.16,17.58c-2,10.27,2.13,18.49,10.85,23.48a149.27,149.27,0,0,0,26.18,11.86c15.56,5.26,31.76,8.71,47.14,14.39,14.6,5.39,29.15,11.57,42.57,19.37,29.34,17.09,42.62,43.88,41.93,77.43-.75,37-16.37,66.48-46.85,87.75-18.8,13.11-39.88,20.6-62.44,23.7-29.85,4.09-59.36,2.79-87.74-8.34-42.26-16.58-67.61-47.4-76.09-92-.5-2.62-.31-5.38-.47-8.63h98.35c.66,1.29,1.7,2.59,2,4.05,6.08,28.88,44.8,33.17,63.81,17.22,10.92-9.16,12-24.87,1.59-35.17a61.58,61.58,0,0,0-18.85-12.54c-13.24-5.66-27.13-9.8-40.6-15-15.7-6-31.55-11.84-46.72-19a140.93,140.93,0,0,1-27.2-17.58c-20.09-16.09-29.82-37.3-28.64-63.23.25-5.61.6-11.21.9-16.75-8.22-3.06-26.58-3.54-41.2-.88Z"
     transform="translate(-6239.5 -6968.45)"
     id="path30"
     style="fill:#e9e1d0;fill-opacity:1" />
  <path
     class="cls-1"
     d="M6944.33,7276.72v140H6835.17V6969.09c4.56-.21,8.47-.54,12.38-.55,48.59-.05,97.17-.16,145.75,0a350,350,0,0,1,67,6.54c66.33,13.05,100.06,63.12,109.25,114.15,5.57,31,3.52,61.62-6.8,91.43-16.5,47.71-51.2,75.77-98.92,88-17.72,4.55-36.33,6.3-54.66,7.67-17.17,1.27-34.51.35-51.77.39Zm.67-208.26v106.25c24.1,0,47.33.51,70.51-.31,7.34-.25,14.8-3.47,21.78-6.36,33-13.63,30.92-69.86,9.35-84.34-4-2.66-8-5.43-12.47-7.1-5.95-2.24-12.22-4.53-18.48-4.92C6992.53,7070.2,6969.32,7069.5,6945,7068.46Z"
     transform="translate(-6239.5 -6968.45)"
     id="path32"
     style="fill:#e9e1d0;fill-opacity:1" />
  <path
     class="cls-1"
     d="M7517.63,7248.27c-.18,90.09-57.72,160.88-146.59,176.26-69.77,12.08-131.59-6.15-176.88-62.56-44.75-55.72-51.45-119.53-24.53-184.79,26.29-63.71,77.3-97.19,145.06-105.81,35.1-4.47,68.86,1,101,15.56C7479.18,7115.74,7517.77,7177.15,7517.63,7248.27Zm-100.54.9c-.64-22.7-7.6-42.36-22.5-58.88-30.53-33.85-81.56-35.07-113.69-2.77-32.64,32.81-33.49,87.3-1.88,121.09,30.39,32.48,80.69,33.81,112.18,2.81C7408.71,7294.18,7416.52,7272.81,7417.09,7249.17Z"
     transform="translate(-6239.5 -6968.45)"
     id="path34"
     style="fill:#e9e1d0;fill-opacity:1" />
  <path
     class="cls-1"
     d="M6352.2,7053,6466,7200.81c-20.05,1.48-38.19-.17-57.1,1.1,1.86,41.5,19.1,73.18,52.83,95.55,29.65,19.68,80.69,31,134-6.47l69.56,90.46c-65.5,47.8-135.78,61.47-212.48,37.62-47.09-14.64-85-42.75-114.22-82.38s-43.56-84.4-44.45-134.78H6239.5C6242.85,7192.69,6337.71,7067.78,6352.2,7053Z"
     transform="translate(-6239.5 -6968.45)"
     id="path36"
     style="fill:#e9e1d0;fill-opacity:1" />
  <path
     class="cls-1"
     d="M6451.19,7111.63l-68.47-88.95c44.66-42.2,128.54-65.09,203.38-41.54,105.93,33.33,159,109.22,167.91,219.73,8.54.13,17.6.33,26.67.4,8.71.07,17.43,0,29.17,0-38.93,50.61-76.17,99-114.63,149.05l-113.33-147.22c9.74-3.34,18.82-1.41,27.67-1.76s17.53-.07,26-.07c6.54-28.68-14.77-72.34-46.79-93.61C6543.16,7077.35,6497.53,7080.49,6451.19,7111.63Z"
     transform="translate(-6239.5 -6968.45)"
     id="path38"
     style="fill:#e9e1d0;fill-opacity:1" />
</svg>
