<?xml version="1.0" encoding="UTF-8" standalone="no"?>
<!-- Generator: Adobe Illustrator 26.0.3, SVG Export Plug-In . SVG Version: 6.00 Build 0)  -->

<svg
   version="1.1"
   id="Layer_1"
   x="0px"
   y="0px"
   viewBox="0 0 268 68.400002"
   xml:space="preserve"
   sodipodi:docname="quake.svg"
   width="268"
   height="68.400002"
   inkscape:version="1.1.2 (b8e25be833, 2022-02-05)"
   xmlns:inkscape="http://www.inkscape.org/namespaces/inkscape"
   xmlns:sodipodi="http://sodipodi.sourceforge.net/DTD/sodipodi-0.dtd"
   xmlns="http://www.w3.org/2000/svg"
   xmlns:svg="http://www.w3.org/2000/svg"><defs
   id="defs17" /><sodipodi:namedview
   id="namedview15"
   pagecolor="#ffffff"
   bordercolor="#666666"
   borderopacity="1.0"
   inkscape:pageshadow="2"
   inkscape:pageopacity="0.0"
   inkscape:pagecheckerboard="0"
   showgrid="false"
   inkscape:zoom="0.55104167"
   inkscape:cx="959.09263"
   inkscape:cy="540.79395"
   inkscape:window-width="2560"
   inkscape:window-height="1387"
   inkscape:window-x="-8"
   inkscape:window-y="-8"
   inkscape:window-maximized="1"
   inkscape:current-layer="Layer_1" />
<style
   type="text/css"
   id="style2">
	.st0{fill:#E9E1D0;}
</style>
<path
   class="st0"
   d="m 44.9,14.8 c 1.2,3.3 1.8,6.6 1.8,10.1 0,3 -0.5,5.7 -1.4,8.2 -1.6,4.2 -4,7.7 -7.4,10.5 -3.5,2.9 -7.4,4.6 -11.8,5 v 6 c 0,0.2 -0.2,1.2 -0.5,2.8 -0.7,3.2 -1.3,6.9 -1.9,11 -1.9,-8.6 -3,-13.2 -3.2,-13.8 V 48.5 C 16.3,48.1 12.4,46.4 9,43.6 3,38.7 0,32.4 0,24.8 0,21.6 0.5,18.5 1.6,15.5 2.6,12.6 4,10 6,7.7 8.1,5.2 10.6,3.4 13.2,2.4 10.4,4.1 8,6.2 6.1,8.8 c -2.5,3.5 -3.8,7.5 -3.8,12 0,1.6 0.2,3.3 0.5,4.8 0.7,3.4 2.3,6.5 4.9,9.4 2.6,3 5.6,4.9 8.8,5.7 1.7,0.6 3,0.9 3.9,0.9 v -6.1 c 0,-0.6 0,-1.3 -0.1,-2.1 -0.3,-1.3 -1,-2 -2.2,-2.2 -0.1,-0.1 -0.2,-0.1 -0.3,-0.1 h 10.6 c 0.3,0 0.4,0 0.4,0.1 -1.4,0.2 -2.3,1 -2.5,2.2 -0.1,0.6 -0.2,1.3 -0.2,2.2 v 6 c 2,-0.4 3.4,-0.7 4.1,-0.9 3.2,-0.8 6,-2.6 8.6,-5.4 3.7,-4 5.5,-8.8 5.5,-14.4 0,-3.9 -1,-7.4 -2.9,-10.6 -1.9,-3.2 -4.6,-5.8 -8,-7.7 5.3,1.9 9.1,6 11.5,12.2 z"
   id="path4"
   style="fill:#e9e1d0;fill-opacity:1" />
<path
   class="st0"
   d="M 61.6,6.9 C 61.2,4.2 60.1,2.5 58.2,2 h 14.2 c -2.9,1 -4.2,2.6 -3.9,5 v 30.2 c 0,2.1 0.3,4 0.8,5.5 2.2,4.4 5.4,6.6 9.6,6.8 -5.3,-0.2 -9.5,-1.8 -12.4,-4.8 -3.3,-3.4 -4.9,-7.2 -4.9,-11.3 z m 39,-0.1 c 0.3,-2.7 1.6,-4.4 3.7,-4.9 H 90 c 2.8,0.9 4.1,2.5 3.8,4.9 v 31 c 0,2.1 -0.3,3.7 -0.9,4.9 -2.2,4.4 -5.4,6.7 -9.6,6.9 3.2,-0.1 6,-0.7 8.3,-1.9 1.2,-0.6 2.6,-1.6 4.2,-3 3.2,-2.8 4.9,-6.6 4.9,-11.2 z"
   id="path6"
   style="fill:#e9e1d0;fill-opacity:1" />
<path
   class="st0"
   d="m 146.4,45.2 -2.3,-5.7 c -1.3,-3.3 -3.1,-5.3 -5.3,-6 -0.8,-0.1 -1.8,-0.2 -3.2,-0.2 -0.4,0 -0.6,-0.1 -0.6,-0.1 l 1,-0.3 c 2,-0.6 3,-1.6 3,-2.9 0,-0.4 -0.2,-1 -0.5,-1.8 -1.6,-3.7 -2.7,-6.5 -3.4,-8.4 -1.4,-3.3 -2.5,-5.2 -3.3,-5.7 -0.6,-0.3 -1.5,0.9 -2.9,3.5 -1.4,2.8 -2.3,4.8 -2.7,5.7 l -2,5.1 c -0.3,0.7 -0.4,1.3 -0.4,1.8 0,1.8 1.2,2.7 3.7,2.9 -3.3,0 -5.5,0.8 -6.8,2.5 -1.3,2.3 -2.4,4.9 -3.3,8 l -0.4,2 c 0.2,1.5 1.1,2.4 2.6,2.6 h -9.3 c 1.7,-0.8 3.8,-3.4 6.3,-7.8 1.3,-2.3 2.9,-5.6 4.8,-9.8 2.8,-6.2 4.5,-10 5,-11.2 1.9,-4.5 3.2,-7.5 3.9,-9 l 3.4,-9 8.2,19.5 h 0.1 c 0.9,2 1.5,3.2 1.8,3.7 2.1,4.3 4.7,9.9 7.9,16.8 1.6,3.5 3.5,5.7 5.6,6.8 h -13.7 c 2.1,0.1 3,-1 2.8,-3 z"
   id="path8"
   style="fill:#e9e1d0;fill-opacity:1" />
<path
   class="st0"
   d="m 178.7,43.7 c 0,2.6 1.1,4.1 3.3,4.6 h -13.1 c 1.9,-0.5 3,-2 3.2,-4.6 V 6.7 C 172.1,4 171,2.5 168.9,2 H 182 c -1.6,0.4 -2.7,1.8 -3.3,4.5 v 13 c 0,2.5 1.6,4.3 4.9,5.3 -3.3,0.7 -4.9,2.8 -4.9,6.3 z m 18.7,-21 C 203,15.4 208.8,7.9 214.8,0 L 188,25 h 0.1 -0.1 0.2 c 4.2,1.6 8,3.5 11.2,5.7 7.6,5.3 11.7,11.7 12.3,19.3 0.1,-1.1 0.2,-2.2 0.2,-3.3 0,-7.4 -2.1,-13.4 -6.2,-18.1 -2.5,-2.7 -5.2,-4.7 -8.3,-5.9 z"
   id="path10"
   style="fill:#e9e1d0;fill-opacity:1" />
<path
   class="st0"
   d="m 239,26.7 c -1.1,0.9 -1.6,2 -1.6,3.6 v 4 c 0,1.2 0.3,3.6 1,7.2 0.5,1.1 1.2,2.2 2,3.2 1.9,2.2 4.1,3.4 6.7,3.6 -3.9,-0.1 -7.5,-1.5 -10.8,-4.1 -3.7,-2.8 -5.5,-6.1 -5.5,-9.9 V 6.7 c -0.7,-2.8 -1.9,-4.4 -3.6,-5 h 13.7 c -2.3,0.5 -3.4,2.3 -3.4,5.2 v 13.2 c 0,1.8 0.5,3.1 1.5,3.9 0,0.4 2.7,0.7 8,0.9 -3.7,0.1 -6.3,0.7 -8,1.8 z M 249.7,1.6 h 15.8 l 0.1,15.7 c -0.5,-4.3 -2.2,-7.9 -5.2,-10.7 -2.7,-2.3 -6.2,-4 -10.7,-5 z m 2.8,46.8 C 257.9,48 263.1,42.9 268,33.2 v 15.2 c -0.7,-1.1 -1.9,-1.6 -3.5,-1.6 -1.1,0 -2.5,0.3 -4,0.8 -1.5,0.6 -4.2,0.8 -8,0.8 z"
   id="path12"
   style="fill:#e9e1d0;fill-opacity:1" />
</svg>
