<?xml version="1.0" encoding="UTF-8" standalone="no"?>
<!-- Generator: Adobe Illustrator 26.0.3, SVG Export Plug-In . SVG Version: 6.00 Build 0)  -->

<svg
   version="1.1"
   id="Layer_1"
   x="0px"
   y="0px"
   viewBox="0 0 264.0336 53.883968"
   xml:space="preserve"
   sodipodi:docname="residualvm.svg"
   width="264.0336"
   height="53.883968"
   inkscape:version="1.1.2 (b8e25be833, 2022-02-05)"
   xmlns:inkscape="http://www.inkscape.org/namespaces/inkscape"
   xmlns:sodipodi="http://sodipodi.sourceforge.net/DTD/sodipodi-0.dtd"
   xmlns="http://www.w3.org/2000/svg"
   xmlns:svg="http://www.w3.org/2000/svg"><defs
   id="defs18" /><sodipodi:namedview
   id="namedview16"
   pagecolor="#ffffff"
   bordercolor="#666666"
   borderopacity="1.0"
   inkscape:pageshadow="2"
   inkscape:pageopacity="0.0"
   inkscape:pagecheckerboard="0"
   showgrid="false"
   inkscape:zoom="0.55104167"
   inkscape:cx="959.09263"
   inkscape:cy="540.79395"
   inkscape:window-width="2560"
   inkscape:window-height="1387"
   inkscape:window-x="-8"
   inkscape:window-y="-8"
   inkscape:window-maximized="1"
   inkscape:current-layer="Layer_1" />
<style
   type="text/css"
   id="style2">
	.st0{fill:#E9E1D0;}
</style>
<path
   id="path5729"
   class="st0"
   d="m 213.45625,3.5 c 0,0 0,0.1 0.1,0.2 -0.1,-0.2 -0.2,-0.3 -0.1,-0.2 z m -0.8,0.7 c 0,0 -0.1,0.1 -0.1,0.3 0.1,-0.2 0.1,-0.3 0.1,-0.3 z m 1.1,1 c -0.5,0 -1,0.1 -1.3,0.2 0,0.4 -0.1,0.8 -0.1,1.3 -0.1,2 -0.2,5.3 -0.3,10 -0.1,5.2 -0.2,9.1 -0.3,12 -0.1,2.9 -0.2,4.7 -0.7,6.6 -0.3,0.9 -0.6,2.4 -2.6,3.4 -1,0.5 -2.4,0.6 -3.2,0.3 -0.9,-0.2 -1.4,-0.6 -1.8,-0.9 -1.7,-1.3 -2.2,-2.3 -3.2,-3.7 -2.8,-3.8 -5.1,-8.2 -9.6,-18.2 -1.1,-2.3 -1.9,-4.1 -2.6,-5.4 l 0.1,0.9 c 0.2,0.4 0.3,0.8 0.5,1.3 0.5,1.3 1.2,3.2 2.1,5.4 1.8,4.4 4.2,10.1 6.5,14.2 1.9,3.4 4.4,7.6 6.5,11 1.1,1.7 2,3.2 2.8,4.4 0.3,0.4 0.5,0.8 0.8,1.1 0.1,0 0.1,0 0.2,0 0.8,-0.1 2.1,-0.3 3.1,-0.5 0,0 0.1,0 0.1,0 0.2,-1.2 0.5,-3 0.9,-5.2 2.1,-13.9 2.8,-24.2 2.5,-33.3 -0.2,-2 -0.3,-3.7 -0.4,-4.9 z m 1.7,0.1 c 0.1,0 0.2,0 0.2,0 0.1,0 0,0 -0.1,0 0,0 0,0 -0.1,0 z m -3.6,0.3 c 0,0 0,0 0,0 z m -0.1,42.7 c 0,0 -0.1,0 -0.1,0.1 0.1,0 0.2,-0.1 0.1,-0.1 z m -1.3,1.5 c -0.1,0.2 -0.1,0.3 -0.1,0.3 0,0 0,0 0,0 0,-0.1 0,-0.3 0.1,-0.3 z"
   style="fill:#e9e1d0;fill-opacity:1" />
<path
   id="path4525"
   class="st0"
   d="m 7.0562516,10.3 c -4.6,0.4 -8.4,2 -6.59999998,7.6 1.19999998,10 1.19999998,21.4 -0.2,31.5 -0.9,4.4 11.00000038,3.7 11.60000038,1.7 -0.2,-3.4 -1.1,-5.4 1.6,-7.3 2.5,-1.1 3.5,0.1 4.6,1 2.1,2.8 0.8,4.6 2.3,6.7 0.9,1.4 9.4,1.9 11.3,0.3 2.1,-1.8 0.9,-4.7 -0.4,-6.8 -1.6,-3.1 -5.2,-5.7 -5.3,-8.4 0.5,-4 6.1,-4.8 6.4,-11.2 -0.4,-9.3 -5,-11.1 -11.4,-13.3 -4.1,-1.5 -9.3,-1.6 -13.9000004,-1.8 z m 7.9000004,11.1 c 3.4,0.1 4.1,3 4.1,4.5 0.1,1.6 -0.3,5.4 -4,5.4 -3.4,-0.2 -4,-3.8 -4,-5.4 0.1,-1.5 0.7,-4.4 3.9,-4.5 z"
   style="fill:#e9e1d0;fill-opacity:1" />
<path
   id="path4701"
   class="st0"
   d="m 48.056252,25 c -0.8,0 -1.7,0 -2.7,0 -9.2,0.2 -13.1,6.9 -13.6,15.6 0.4,6.1 2.6,9.1 6.6,11.6 1.9,0.9 3.4,1.4 4.9,1.5 1.9,0.2 3.8,-0.3 6.3,-1.2 6.1,-2.4 10.7,-5.8 6.1,-10.3 -2,-0.9 -4.5,0.5 -10.4,2.3 -1.6,0.5 -2.9,-1.1 -0.4,-1.8 8.9,-2.5 12.6,-3.4 12.8,-9.6 -0.1,-6.1 -3.8,-8 -9.6,-8.1 z m -2.3,6.2 c 1.3,-0.1 2.6,0.4 3,1.7 1.5,3.9 -6.3,6.6 -7.1,2.4 -0.6,-2.3 1.9,-4 4.1,-4.1 z"
   style="fill:#e9e1d0;fill-opacity:1" />
<path
   id="path4705"
   class="st0"
   d="m 70.956252,25.9 c -5,0.3 -11.6,2.4 -11.6,8.3 0.5,7.2 11.4,8.5 11.9,10.2 -0.2,3 -8.4,-3.7 -10.2,-2 -3.3,3.3 -2.1,6 0.5,7.9 1.7,1.3 4.1,2.3 6.1,2.9 4.4,1.2 8.4,-0.1 10.9,-1.3 2.7,-1.1 3.7,-4.7 3.6,-7.7 -1.3,-5.9 -10.4,-7.2 -11.2,-9.4 0.1,-3.5 8.2,4.2 10.3,1.8 4,-7.4 -1.2,-8.8 -6.1,-10.5 -1,-0.2 -2.5,-0.3 -4.2,-0.2 z"
   style="fill:#e9e1d0;fill-opacity:1" />
<path
   id="path4707"
   class="st0"
   d="m 89.856252,16.3 c -3.5,0.1 -5.2,1.9 -5.3,4.7 0.5,3.2 2.1,4.5 5.3,4.7 3.1,-0.2 4.4,-1.3 4.9,-4.7 -0.3,-2.6 -2,-4.5 -4.9,-4.7 z m -0.9,11.1 c -2.6,0.1 -5.1,1.5 -4.7,3.8 0.9,5.4 0.8,12.6 -0.3,18.8 -1.3,5.2 11.3,4.9 9.6,0 -1.4,-5.6 -1,-11.8 0.3,-18.8 0.2,-2.9 -2.4,-4 -4.9,-3.8 z"
   style="fill:#e9e1d0;fill-opacity:1" />
<path
   id="path4709"
   class="st0"
   d="m 116.95625,12.2 c -1.2,-0.1 -2.3,0.2 -3.3,1 -0.8,0.8 -1.7,1 -0.6,5.8 0.1,3.7 0.5,5.3 -4.9,5.1 -8.899998,0.2 -12.999998,7.5 -13.499998,15.7 0.1,7.8 5.3,13.2 12.899998,13.7 2.7,0.3 4,-0.3 5.9,-1.7 0.8,0.7 1.9,1.7 2.9,1.7 3.2,-0.1 4.7,-1.7 4.5,-4.7 -3.7,-8.5 4.5,-31.3 -0.9,-35.4 -0.7,-0.7 -1.8,-1.1 -3,-1.2 z m -9.3,21.6 c 5.4,-0.2 4.8,9.5 0.1,9.8 -5,0.1 -5.2,-9.6 -0.1,-9.8 z"
   style="fill:#e9e1d0;fill-opacity:1" />
<path
   id="path4518"
   class="st0"
   d="m 123.05625,26.6 c -1,9.7 -3,24.9 10,25.9 1.7,0 3.3,-0.8 5,-1.3 0.9,0.8 1.1,1.7 3.6,1.6 5.4,0.1 4.6,-3.9 4.5,-7.7 -1.4,-5.5 -0.9,-12.8 -0.2,-19 -0.3,-3.3 -8.4,-3.7 -9.9,-0.5 -1,3.3 1.4,15.1 -1.6,15.8 -2.7,-0.8 0.1,-13.7 -0.5,-15.7 -0.3,-3.5 -9.6,-3.4 -10.9,0.9 z"
   style="fill:#e9e1d0;fill-opacity:1" />
<path
   id="path4711"
   class="st0"
   d="m 160.95625,24.3 c -3.7,0 -7.1,1.6 -9.7,4.5 -2.7,2.9 -4.1,6.7 -4.1,10.9 0.1,8.2 3,12.9 11.3,13.8 1.9,-0.1 3.7,-0.9 5.4,-1.7 0.9,1 1.9,1.9 3.2,2 2.6,-0.1 4.1,-2.2 4.3,-4.7 -0.8,-3.7 -1.4,-6.9 -1.6,-10.7 -0.1,-2.5 0.1,-5 0.2,-7.4 -0.1,-4.6 -5.2,-6.2 -9,-6.7 z m -1.8,9.7 c 5.2,0.3 4.8,9.8 0.1,9.7 -4.8,-0.1 -4.6,-9.5 -0.1,-9.7 z"
   style="fill:#e9e1d0;fill-opacity:1" />
<path
   id="path4713"
   class="st0"
   d="m 177.15625,13.5 c -2.6,-0.1 -5.2,0.9 -5.4,3.1 1.1,12.6 1.2,23.5 0.5,31.1 v 3 c 0.8,4.2 9.7,3.9 10.1,0.3 -0.6,-5.9 -1.4,-21.7 -0.2,-34.3 0.1,-2 -2.4,-3.2 -5,-3.2 z"
   style="fill:#e9e1d0;fill-opacity:1" />
<path
   id="path5747"
   class="st0"
   d="m 227.35625,48.4 c -1.2,-4.9 -6,-32.8 -6.5,-37.2 -0.9,-3.9 3.5,-6 6.2,-4.7 2.1,1.1 5.4,5.1 11.2,13.7 2.9,4.4 3.7,5.1 4.3,4.2 0.1,-0.2 0.8,-3.3 1.4,-6.8 1.3,-7.2 2.6,-11.7 4,-14 1.4,-2.2 4.4,-3.3 6.2,-2.2 0.7,0.4 1.9,1.9 3.8,11.6 3.5,18.5 6.9,29.3 5.9,33 -0.7,2.3 -6.6,2.6 -7.7,1.4 -2,-2.1 -1.5,-3 -2.3,-9.6 -0.6,-5.5 -1.9,-12.2 -2.6,-13.5 -1,-2 -2,1.7 -3.2,12.1 -0.4,3.1 -0.8,5.3 -1.1,5.6 -0.8,0.8 -3.6,1.1 -4.3,0.5 -0.3,-0.3 -2.2,-3.4 -4.1,-7 -3.9,-7.1 -5.1,-8.8 -5.8,-8.1 -0.5,0.5 0.1,5.6 1.1,9.6 2.4,8.9 3.9,10.9 3.6,13 -0.3,2 -0.6,2.7 -4.2,3.8 -3.6,0.6 -5,-2.1 -5.9,-5.4 z"
   style="fill:#e9e1d0;fill-opacity:1" />
<path
   id="path5745"
   class="st0"
   d="m 203.65625,50.9 c -3.9,-5.5 -5.5,-9.1 -9.5,-16.2 -5.2,-9.3 -11,-24.2 -11,-27.1 0,-1.8 1.1,-2.6 3.9,-2.6 3.6,0 3.2,-0.7 9.9,13.7 4.9,10.5 6.3,13 8.5,15.5 1.1,1.3 1.5,1.5 1.8,1.1 0.5,-0.7 0.8,-6.7 1.2,-20.4 0.3,-9.9 0.4,-10.9 1.1,-12.4 0.9,-1.8 2.3,-2.5 4.8,-2.5 1.1,0 1.7,0.2 2.3,1.1 0.8,1.1 0.9,1.2 0.6,12.1 -0.1,6 -0.2,14.3 -0.4,18.1 -0.7,10.3 0.2,12.3 -2,19.3 -2.6,3.4 -9,4.1 -11.2,0.3 z"
   style="fill:#e9e1d0;fill-opacity:1" />
</svg>
