<?xml version="1.0" encoding="UTF-8" standalone="no"?>
<!-- Generator: Adobe Illustrator 26.0.3, SVG Export Plug-In . SVG Version: 6.00 Build 0)  -->

<svg
   version="1.1"
   id="Layer_1"
   x="0px"
   y="0px"
   viewBox="0 0 263.8111 42.500721"
   xml:space="preserve"
   sodipodi:docname="retroarch.svg"
   width="263.8111"
   height="42.500721"
   inkscape:version="1.1.2 (b8e25be833, 2022-02-05)"
   xmlns:inkscape="http://www.inkscape.org/namespaces/inkscape"
   xmlns:sodipodi="http://sodipodi.sourceforge.net/DTD/sodipodi-0.dtd"
   xmlns="http://www.w3.org/2000/svg"
   xmlns:svg="http://www.w3.org/2000/svg"><defs
   id="defs29" /><sodipodi:namedview
   id="namedview27"
   pagecolor="#ffffff"
   bordercolor="#666666"
   borderopacity="1.0"
   inkscape:pageshadow="2"
   inkscape:pageopacity="0.0"
   inkscape:pagecheckerboard="0"
   showgrid="false"
   inkscape:zoom="0.55104167"
   inkscape:cx="959.09263"
   inkscape:cy="540.79395"
   inkscape:window-width="2560"
   inkscape:window-height="1387"
   inkscape:window-x="-8"
   inkscape:window-y="-8"
   inkscape:window-maximized="1"
   inkscape:current-layer="Layer_1" />
<style
   type="text/css"
   id="style2">
	.st0{fill:#E9E1D0;}
</style>
<g
   id="g24"
   transform="translate(-0.18888889,-0.0961328)"
   style="fill:#e9e1d0;fill-opacity:1">
	<path
   class="st0"
   d="m 247.9,10.9 c 0.2,0.9 0.5,1.7 0.7,2.6 0.3,1 0.3,1.1 1.4,1 0.6,0 0.7,0.2 0.7,0.7 0,5.8 0,11.7 0,17.6 0,2.9 0,5.9 0,8.9 0,0.4 0.1,0.6 0.6,0.6 0.7,0 1.3,0 2,0 0.6,0 0.7,-0.2 0.7,-0.7 0,-8.7 0,-17.5 0,-26.3 0,-0.6 0.1,-0.8 0.8,-0.8 1.8,0 3.5,0 5.3,0 0.6,0 0.7,0.1 0.7,0.7 0,8.1 0,16.3 0,24.4 0,0.7 0,1.4 0,2.2 0,0.4 0.1,0.5 0.5,0.5 0.7,0 1.3,0 2,0 0.7,0 0.7,-0.1 0.7,-0.7 0,-13.3 0,-26.6 0,-39.9 0,-0.1 0,-0.2 0,-0.3 0,-0.3 -0.1,-0.4 -0.4,-0.4 -0.7,0 -1.5,0 -2.2,0 -0.5,0 -0.7,0.1 -0.7,0.7 0,2.9 0,5.8 0,8.6 0,0.5 -0.1,0.7 -0.7,0.7 -1.8,0 -3.6,0 -5.5,0 -0.5,0 -0.7,-0.1 -0.7,-0.7 0,-2.9 0,-5.8 0,-8.7 0,-0.5 -0.1,-0.6 -0.6,-0.6 -0.7,0 -1.3,0 -2,0 -0.5,0 -0.7,0.1 -0.7,0.7 0,2.9 0,5.8 0,8.7 0,0.4 -0.1,0.6 -0.6,0.6 -0.5,-0.1 -1.2,-0.1 -2,-0.1 z"
   id="path4"
   style="fill:#e9e1d0;fill-opacity:1" />
	<path
   class="st0"
   d="m 85.1,10.9 c 0.3,1 0.6,1.9 0.8,2.8 0.1,0.7 0.5,1 1.2,0.8 0.6,-0.1 0.8,0.1 0.7,0.7 0,8.3 0,16.7 0,25 0,0.5 0,1.1 0,1.6 0,0.4 0.1,0.4 0.5,0.4 2.9,0 5.9,0 8.8,0 0.4,0 0.5,-0.1 0.5,-0.5 0,-0.8 0,-1.7 0,-2.5 0,-0.5 -0.1,-0.7 -0.6,-0.7 -1.8,0 -3.5,0 -5.3,0 -0.6,0 -0.7,-0.2 -0.7,-0.7 0,-7.6 0,-15.3 0,-22.9 0,-0.5 0.1,-0.7 0.7,-0.7 2.2,0 4.3,0 6.5,0 0.5,0 0.6,-0.1 0.4,-0.6 -0.3,-0.8 -0.6,-1.6 -0.8,-2.4 -0.1,-0.5 -0.4,-0.7 -0.9,-0.7 -1.7,0 -3.4,0 -5.1,0 -0.6,0 -0.7,-0.2 -0.7,-0.7 0,-1.7 0,-3.5 0,-5.2 0,-0.6 0.2,-0.7 0.7,-0.7 1.8,0 3.5,0 5.3,0 0.5,0 0.7,-0.1 0.6,-0.7 0,-0.7 0,-1.5 0,-2.2 0,-0.5 -0.2,-0.6 -0.7,-0.6 -2.9,0 -5.7,0 -8.5,0 -0.6,0 -0.7,0.2 -0.7,0.7 0,2.9 0,5.8 0,8.7 0,0.4 -0.1,0.6 -0.6,0.6 -0.6,0.5 -1.3,0.5 -2.1,0.5 z"
   id="path6"
   style="fill:#e9e1d0;fill-opacity:1" />
	<path
   class="st0"
   d="m 224.9,21.1 c 0,4.6 0.9,8.7 3.1,12.3 3.4,5.7 8.5,8.7 15.2,8.9 0.6,0 0.7,-0.2 0.7,-0.7 0,-0.7 0,-1.5 0,-2.2 0,-0.5 -0.1,-0.7 -0.7,-0.7 -6,-0.2 -10.3,-3.1 -13,-8.3 -2,-4 -2.5,-8.3 -1.7,-12.7 0.7,-3.5 2,-6.6 4.5,-9.1 2.8,-2.8 6.1,-4.2 10,-4.2 0.7,0 0.8,-0.2 0.7,-0.8 0,-0.7 0,-1.5 0,-2.3 0,-0.4 -0.1,-0.6 -0.5,-0.6 -0.7,0 -1.4,0 -2,0.1 -4.4,0.5 -8.2,2.4 -11.2,5.8 -3.6,4.2 -5,9.3 -5.1,14.5 z"
   id="path8"
   style="fill:#e9e1d0;fill-opacity:1" />
	<path
   class="st0"
   d="m 106,23.3 c 0,6 0,12.1 0,18.2 0,0.6 0.1,0.9 0.8,0.8 0.6,0 1.1,0 1.7,0 0.7,0 0.9,-0.1 0.9,-0.8 0,-12 0,-24 0,-36.1 0,-0.7 0.2,-0.9 0.9,-0.8 0.9,0 1.9,0 2.8,0 0.4,0 0.5,-0.1 0.5,-0.5 0,-0.9 0,-1.8 0,-2.7 0,-0.3 -0.1,-0.4 -0.4,-0.4 -3.6,0 -7.1,0 -10.7,0 -0.4,0 -0.5,0.1 -0.5,0.5 0,0.8 0,1.7 0,2.5 0,0.5 0.1,0.7 0.6,0.6 0.9,0 1.9,0 2.8,0 0.6,0 0.7,0.1 0.7,0.7 -0.1,5.9 -0.1,12 -0.1,18 z"
   id="path10"
   style="fill:#e9e1d0;fill-opacity:1" />
	<path
   class="st0"
   d="m 60,25.1 c -1.1,-4.2 -2.1,-8.3 -3.1,-12.5 -0.1,-0.4 -0.3,-0.5 -0.7,-0.5 -0.9,0 -1.7,0 -2.6,0 -0.5,0 -0.6,0.1 -0.4,0.6 0.5,2.1 1,4.1 1.5,6.2 0.1,0.5 0.1,0.7 -0.5,0.7 -1.6,0 -3.3,0 -4.9,0 -0.5,0 -0.7,-0.1 -0.8,-0.6 -0.5,-2.1 -1,-4.2 -1.5,-6.2 -0.1,-0.4 -0.2,-0.6 -0.7,-0.6 -2.6,0 -5.1,0 -7.7,0 -0.2,0 -0.4,0.1 -0.5,-0.1 1.3,-1.5 2.5,-3.1 3.9,-4.8 -1.1,0 -2.2,0 -3.1,0 -0.4,0 -0.7,0.1 -0.9,0.4 -1.2,1.4 -2.4,2.8 -3.6,4.1 -0.2,0.3 -0.5,0.4 -0.9,0.4 -2.3,0 -4.6,0 -6.9,0 -0.4,0 -0.7,-0.1 -0.9,-0.4 C 24.5,10.4 23.3,9 22.1,7.7 22,7.5 21.9,7.3 21.6,7.3 c -1.1,0 -2.2,0 -3.5,0 1.4,1.7 2.6,3.3 4,4.9 -0.4,0 -0.6,0 -0.8,0 -2.5,0 -4.9,0 -7.4,0 -0.5,0 -0.7,0.1 -0.8,0.6 -0.5,2 -1,4 -1.4,5.9 -0.1,0.7 -0.4,0.9 -1.1,0.8 -1.5,0 -3.1,0 -4.6,0 -0.6,0 -0.7,-0.1 -0.5,-0.7 0.6,-2.1 1,-4.1 1.6,-6.2 0.1,-0.5 0,-0.6 -0.5,-0.6 -0.7,0 -1.5,0 -2.3,0 -0.6,0 -0.8,0.1 -1,0.7 -1,4 -2,8 -3,12.1 -0.2,0.8 -0.2,0.8 0.6,0.8 2.9,0 5.7,0 8.5,0 0.5,0 0.6,0.1 0.5,0.6 -0.4,1.3 -0.6,2.5 -1,3.8 -0.1,0.5 0,0.6 0.5,0.6 2.6,0 5.2,0 7.8,0 0.2,0 0.5,-0.1 0.7,0.1 -2.1,2.4 -4.2,4.8 -6.4,7.3 1.9,0 3.7,0 5.4,0 0.2,0 0.3,-0.2 0.5,-0.4 1.8,-2.2 3.6,-4.4 5.3,-6.5 0.3,-0.3 0.6,-0.5 1,-0.5 4.3,0 8.6,0 12.9,0 0.5,0 0.8,0.1 1.1,0.5 1.7,2.2 3.5,4.3 5.2,6.4 0.1,0.2 0.3,0.5 0.6,0.5 1.8,0 3.6,0 5.4,0 -2.2,-2.5 -4.3,-4.9 -6.5,-7.4 3.1,0 6.1,0 9.2,0 -0.4,-1.6 -0.8,-3.2 -1.2,-4.9 0.3,0 0.6,0 0.8,0 2.8,0 5.6,0 8.4,0 0.3,0 0.5,0 0.4,-0.6 z M 22.4,21.9 c -1.7,0 -3.5,0 -5.3,0 -0.3,0 -0.4,-0.1 -0.4,-0.4 0,-1.8 0,-3.6 0,-5.3 0,-0.3 0.1,-0.4 0.4,-0.4 1.8,0 3.5,0 5.3,0 0.4,0 0.5,0.2 0.5,0.6 0,0.8 0,1.7 0,2.6 0,0.8 0,1.7 0,2.5 0.1,0.3 0,0.5 -0.5,0.4 z m 20.4,0 c -0.9,0 -1.8,0 -2.7,0 -0.9,0 -1.7,0 -2.6,0 -0.3,0 -0.4,0 -0.4,-0.4 0,-1.8 0,-3.6 0,-5.3 0,-0.3 0.1,-0.4 0.4,-0.4 1.8,0 3.5,0 5.3,0 0.4,0 0.5,0.1 0.5,0.5 0,1.7 0,3.5 0,5.2 0.1,0.4 -0.1,0.5 -0.5,0.4 z"
   id="path12"
   style="fill:#e9e1d0;fill-opacity:1" />
	<path
   class="st0"
   d="m 200.3,6 c 0,-0.3 0,-0.6 0,-0.8 -0.1,-2 -1,-3.6 -2.9,-4.4 -1.7,-0.7 -3.4,-0.9 -5.2,-0.5 -2.6,0.7 -4,2.2 -4.3,4.9 -0.1,1.7 -0.1,3.4 0,5.1 0,0.5 -0.1,0.7 -0.7,0.7 -0.7,0 -1.4,0 -2.1,0 0.3,1 0.6,1.9 0.8,2.8 0.1,0.7 0.5,0.9 1.1,0.8 0.7,-0.1 0.8,0.2 0.8,0.8 0,8.7 0,17.5 0,26.3 0,0.5 0.1,0.7 0.7,0.7 0.6,0 1.3,0 1.9,0 0.7,0.1 0.8,-0.2 0.8,-0.8 0,-8.7 0,-17.5 0,-26.3 0,-0.7 0.2,-0.7 0.7,-0.7 1.4,0 2.9,0 4.4,0 0.6,0 0.7,0.1 0.7,0.7 0,7.4 0,14.9 0,22.3 0,1.5 0,2.9 0,4.4 0,0.4 0.1,0.5 0.5,0.5 0.7,0 1.4,0 2.1,0 0.6,0 0.8,-0.1 0.7,-0.7 0,-12.1 0,-23.9 0,-35.8 z m -4,4.9 c -0.7,0 -1.5,0 -2.3,0 -0.8,0 -1.6,0 -2.5,0 -0.3,0 -0.4,-0.1 -0.4,-0.4 0,-1.5 0,-3.1 0,-4.7 0,-0.7 0.3,-1.2 0.9,-1.5 1.3,-0.7 2.6,-0.7 3.9,0 0.7,0.3 1,0.8 1,1.6 0,1.5 0,3 0,4.5 0,0.4 -0.2,0.5 -0.6,0.5 z"
   id="path14"
   style="fill:#e9e1d0;fill-opacity:1" />
	<path
   class="st0"
   d="m 171,6.6 c -6.4,-7.3 -17,-8.4 -24.6,-2.4 -5.5,4.4 -8,10.3 -8.1,16.7 0,6.4 1.9,11.6 6,15.9 6.3,6.6 15.8,7.7 23.2,2.6 5.4,-3.7 8.3,-9.1 9,-15.5 C 177,17.4 175.3,11.6 171,6.6 Z m -2,26.7 c -6.8,8.1 -18.4,7.4 -24.3,-1.4 -2.1,-3.1 -3.1,-6.5 -3.1,-11.4 0.1,-4.6 2.1,-9.5 6.6,-13.1 6.5,-5.2 15.2,-4.1 20.7,2.3 5.6,6.6 5.6,17 0.1,23.6 z"
   id="path16"
   style="fill:#e9e1d0;fill-opacity:1" />
	<path
   class="st0"
   d="M 134.9,18.4 C 135,14.1 133.8,10.1 131.3,6.5 129.5,3.9 127.1,2.1 123.9,1.3 122,0.8 120,1 118.1,0.9 c -0.7,0 -0.8,0.2 -0.8,0.8 0,13.3 0,26.5 0,39.8 0,0.1 0,0.2 0,0.3 0,0.3 0.1,0.5 0.4,0.4 0.7,0 1.4,0 2.1,0 0.6,0 0.8,-0.1 0.8,-0.7 0,-2.3 0,-4.7 0,-7.1 0,-0.2 -0.1,-0.6 0.2,-0.6 0.6,0 1.1,-0.1 1.6,0.5 2.2,2.5 4.4,5 6.5,7.5 0.1,0.2 0.3,0.4 0.6,0.4 1.4,0 2.7,0 4.2,0 -2.9,-3.2 -5.6,-6.4 -8.4,-9.6 1.3,-0.5 2.5,-1 3.5,-1.9 4,-3.1 6,-7.3 6.1,-12.3 z M 122.4,30 c -0.2,0 -0.4,0 -0.6,0 -1.1,0 -1.2,-0.1 -1.2,-1.2 0,-3.9 0,-7.9 0,-11.8 0,-4.1 0,-8.1 0,-12.2 0,-0.5 0.1,-0.7 0.7,-0.7 2.1,-0.2 3.8,0.4 5.4,1.8 4,3.5 6.9,10.8 4.3,17.1 -1.7,3.9 -4.5,6.3 -8.6,7 z"
   id="path18"
   style="fill:#e9e1d0;fill-opacity:1" />
	<path
   class="st0"
   d="M 81.7,18.3 C 81.8,14 80.5,10 78.1,6.4 76.3,3.8 73.9,1.9 70.7,1.2 68.8,0.7 66.8,0.9 64.8,0.8 c -0.7,0 -0.7,0.2 -0.7,0.7 0,13.3 0,26.6 0,39.9 0,0.1 0,0.2 0,0.3 0,0.3 0.1,0.4 0.4,0.4 0.7,0 1.5,0 2.2,0 0.5,0 0.7,-0.1 0.7,-0.7 0,-2.4 0,-4.8 0,-7.2 0,-0.2 -0.1,-0.6 0.2,-0.6 0.5,0 1.1,-0.2 1.5,0.4 2.2,2.5 4.4,5.1 6.6,7.5 0.1,0.2 0.2,0.4 0.5,0.4 1.4,0 2.8,0 4.3,0 -2.9,-3.2 -5.6,-6.4 -8.4,-9.6 1.4,-0.5 2.5,-1 3.5,-1.9 3.9,-2.8 5.9,-7.1 6.1,-12.1 z M 69.2,30 c -0.1,0 -0.3,0 -0.4,0 -1.2,0.1 -1.4,-0.1 -1.4,-1.3 0,-3.9 0,-7.8 0,-11.7 0,-4.1 0,-8.1 0,-12.2 0,-0.5 0.1,-0.6 0.6,-0.7 2,-0.1 3.8,0.5 5.4,1.9 4,3.5 6.8,10.8 4.3,17 -1.6,3.8 -4.4,6.2 -8.5,7 z"
   id="path20"
   style="fill:#e9e1d0;fill-opacity:1" />
	<path
   class="st0"
   d="m 221.4,18.4 c 0.1,-4.3 -1.1,-8.3 -3.6,-11.9 -1.8,-2.6 -4.2,-4.4 -7.4,-5.2 -1.9,-0.5 -3.9,-0.3 -5.8,-0.4 -0.6,0 -0.8,0.1 -0.8,0.8 0,13.3 0,26.5 0,39.8 0,0 0,0.1 0,0.1 -0.1,0.5 0,0.7 0.6,0.7 0.6,0 1.3,0 1.9,0 0.6,0 0.7,-0.1 0.7,-0.7 0,-2.3 0,-4.7 0,-7.1 0,-0.2 -0.1,-0.6 0.2,-0.6 0.6,0 1.1,-0.1 1.6,0.5 2.2,2.5 4.4,5 6.5,7.5 0.1,0.2 0.3,0.4 0.6,0.4 1.4,0 2.7,0 4.2,0 -2.9,-3.2 -5.6,-6.4 -8.4,-9.6 1.3,-0.5 2.5,-1 3.5,-1.9 4,-3.2 6.1,-7.4 6.2,-12.4 z M 208.9,30 c -0.1,0 -0.3,0 -0.4,0 -1.2,0 -1.4,-0.1 -1.4,-1.3 0,-3.9 0,-7.9 0,-11.8 0,-4 0,-8.1 0,-12.1 0,-0.5 0.1,-0.7 0.6,-0.7 2.1,-0.2 3.8,0.4 5.4,1.8 4,3.5 6.9,10.8 4.3,17.1 -1.6,3.9 -4.4,6.2 -8.5,7 z"
   id="path22"
   style="fill:#e9e1d0;fill-opacity:1" />
</g>
</svg>
