<?xml version="1.0" encoding="UTF-8" standalone="no"?>
<!-- Generator: Adobe Illustrator 26.0.3, SVG Export Plug-In . SVG Version: 6.00 Build 0)  -->

<svg
   version="1.1"
   id="Layer_1"
   x="0px"
   y="0px"
   viewBox="0 0 263.79999 36.5"
   xml:space="preserve"
   sodipodi:docname="retropie.svg"
   width="263.79999"
   height="36.5"
   inkscape:version="1.1.2 (b8e25be833, 2022-02-05)"
   xmlns:inkscape="http://www.inkscape.org/namespaces/inkscape"
   xmlns:sodipodi="http://sodipodi.sourceforge.net/DTD/sodipodi-0.dtd"
   xmlns="http://www.w3.org/2000/svg"
   xmlns:svg="http://www.w3.org/2000/svg"><defs
   id="defs13" /><sodipodi:namedview
   id="namedview11"
   pagecolor="#ffffff"
   bordercolor="#666666"
   borderopacity="1.0"
   inkscape:pageshadow="2"
   inkscape:pageopacity="0.0"
   inkscape:pagecheckerboard="0"
   showgrid="false"
   inkscape:zoom="0.55104167"
   inkscape:cx="959.09263"
   inkscape:cy="540.79395"
   inkscape:window-width="2560"
   inkscape:window-height="1387"
   inkscape:window-x="-8"
   inkscape:window-y="-8"
   inkscape:window-maximized="1"
   inkscape:current-layer="Layer_1" />
<style
   type="text/css"
   id="style2">
	.st0{fill:#E9E1D0;}
</style>
<path
   class="st0"
   d="m 35.4,34.6 3,-9 c 3,0.8 5.8,1.3 8.3,1.3 2.5,0 4.6,-0.1 6.1,-0.3 l 0.4,-2.7 -4.5,-0.4 C 45.3,23.2 42.8,22.4 41.4,21.2 40,20 39.3,18.2 39.3,16 c 0,-1 0.1,-2.1 0.3,-3.3 0.8,-4.6 2.3,-7.8 4.5,-9.6 2.2,-1.7 5.6,-2.6 10.2,-2.6 4.6,0 8.6,0.5 12.1,1.4 l -2.8,8.7 C 60.5,10.1 57.9,9.8 56,9.8 c -1.9,0 -3.5,0.1 -4.9,0.3 l -0.4,2.7 3.6,0.4 c 3.7,0.4 6.3,1.3 7.8,2.7 1.6,1.4 2.3,3.2 2.3,5.5 0,2.3 -0.5,4.7 -1.5,7.2 -0.5,1.3 -1.1,2.3 -1.7,3.2 -0.6,0.8 -1.3,1.6 -2.3,2.2 -0.9,0.6 -1.8,1.1 -2.5,1.4 -0.8,0.3 -1.7,0.5 -2.9,0.7 -1.7,0.3 -3.8,0.4 -6.2,0.4 -4.2,-0.5 -8.2,-1 -11.9,-1.9 z M 91.7,14.4 90.3,22.3 H 80 l -0.7,4.1 h 12.6 l -1.5,8.7 H 67.5 l 6,-34 H 96.1 L 93.3,9.8 H 82.2 l -0.8,4.6 z m 33.2,-13.3 -1.6,8.7 h -7.4 l -4.4,25.3 h -10.3 l 4.4,-25.3 h -7.4 l 1.6,-8.7 z m 27.1,0 -1.6,8.7 h -7.5 l -4.4,25.3 h -10.3 l 4.4,-25.3 h -7.4 l 1.6,-8.7 z m 8.2,34.1 h -10.3 l 6,-34 h 10.3 z m 35,0 h -9.7 l -5.6,-12.1 c -0.1,-0.3 -0.2,-0.6 -0.2,-1.1 0,-0.4 0,-1 0.1,-1.5 h -0.4 l -2.5,14.7 h -10.3 l 6,-34 h 9.7 l 5.5,12.1 c 0.1,0.3 0.2,0.6 0.2,1.1 0,0.4 0,1 -0.1,1.5 h 0.4 l 2.6,-14.7 h 10.3 z m 25.2,-10 0.3,-1.5 h -2.6 l 1.5,-8.3 H 232 l -3.2,18.2 c -4.4,1.6 -8.8,2.5 -13.3,2.5 -4.5,0 -7.6,-0.9 -9.6,-2.7 -2,-1.8 -2.9,-4.5 -2.9,-8.2 0,-1.6 0.3,-3.9 0.8,-6.9 1.1,-6.3 3,-10.9 5.7,-13.7 2.7,-2.8 7.3,-4.2 13.6,-4.2 1.3,0 3,0.1 5.1,0.4 2.1,0.3 3.6,0.6 4.6,1 l -3,8.3 c -2.7,-0.5 -5.2,-0.8 -7.5,-0.8 -2.2,0 -3.9,0.2 -4.8,0.5 -1,0.4 -1.6,1.1 -1.7,2.2 l -2.7,15.4 h 3.4 c 1.2,0 2.1,-0.1 2.7,-0.4 0.7,-0.2 1.1,-0.9 1.2,-1.8 z m 12.4,9.4 3,-9 c 3,0.8 5.8,1.3 8.3,1.3 2.5,0 4.6,-0.1 6.1,-0.3 l 0.4,-2.7 -4.5,-0.4 c -3.4,-0.3 -5.9,-1.1 -7.3,-2.3 -1.4,-1.2 -2.1,-3 -2.1,-5.2 0,-1 0.1,-2.1 0.3,-3.3 0.8,-4.6 2.3,-7.8 4.5,-9.6 2.2,-1.7 5.6,-2.6 10.2,-2.6 4.6,0 8.6,0.5 12.1,1.4 l -2.8,8.7 c -3.1,-0.5 -5.7,-0.8 -7.6,-0.8 -1.9,0 -3.5,0.1 -4.9,0.3 l -0.4,2.7 3.6,0.4 c 3.7,0.4 6.3,1.3 7.8,2.7 1.6,1.4 2.3,3.2 2.3,5.5 0,2.3 -0.5,4.7 -1.5,7.2 -0.5,1.3 -1.1,2.3 -1.7,3.2 -0.6,0.8 -1.3,1.6 -2.3,2.2 -0.9,0.6 -1.8,1.1 -2.5,1.4 -0.8,0.3 -1.7,0.5 -2.9,0.7 -1.7,0.3 -3.8,0.4 -6.2,0.4 -4.2,-0.5 -8.3,-1 -11.9,-1.9 z"
   id="path4"
   style="fill:#e9e1d0;fill-opacity:1" />
<path
   class="st0"
   d="m 26,24.3 v -3.1 l -2.8,-1 c -0.2,-1 -0.6,-1.9 -1.1,-2.7 v 0 l 1.3,-2.8 -2.2,-2.2 -2.8,1.3 v 0 C 17.6,13.3 16.7,13 15.7,12.7 l -1,-2.9 h -3.1 l -1,2.9 c -1,0.2 -1.9,0.6 -2.7,1.1 v 0 l -2.8,-1.4 -2.2,2.2 1.3,2.8 v 0 c -0.5,0.8 -1,1.7 -1.2,2.7 l -3,1 v 3.1 l 3,1 c 0.2,1 0.7,1.9 1.2,2.7 v 0 l -1.3,2.8 2.2,2.2 2.8,-1.3 v 0 c 0.8,0.5 1.7,1 2.7,1.2 l 1,3 h 3.1 l 1,-3 c 1,-0.2 1.9,-0.7 2.7,-1.2 v 0 l 2.8,1.3 2.2,-2.2 -1.3,-2.7 v 0 c 0.5,-0.8 0.8,-1.7 1,-2.7 z m -12.9,3.6 c -2.9,0 -5.2,-2.3 -5.2,-5.2 0,-2.9 2.3,-5.2 5.2,-5.2 2.9,0 5.2,2.4 5.2,5.2 0.1,2.9 -2.3,5.2 -5.2,5.2 z"
   id="path6"
   style="fill:#e9e1d0;fill-opacity:1" />
<path
   class="st0"
   d="M 36,5.2 35.3,3.5 33.5,3.6 C 33.2,3.1 32.8,2.8 32.3,2.4 v 0 L 32.4,0.6 30.8,0 29.6,1.3 v 0 C 29.1,1.2 28.5,1.2 27.9,1.3 L 26.7,0 25,0.7 25.1,2.5 c -0.4,0.3 -0.8,0.7 -1.2,1.2 v 0 l -1.8,-0.1 -0.7,1.7 1.5,1.1 v 0 c -0.1,0.5 -0.1,1.1 0,1.7 l -1.3,1.2 0.7,1.7 1.8,-0.1 c 0.3,0.5 0.7,0.8 1.2,1.2 v 0 l -0.1,1.8 1.8,0.7 1.4,-1.3 v 0 c 0.4,0.1 0.9,0.1 1.5,0 l 1.1,1.3 1.6,-0.7 -0.1,-1.8 c 0.5,-0.3 0.8,-0.7 1.2,-1.2 v 0 L 35.5,11 36.2,9.3 34.9,8.1 v 0 C 35,7.6 35,7 34.9,6.4 Z M 29.9,10 C 28.4,10.6 26.6,9.9 26,8.4 25.4,6.9 26.1,5.1 27.6,4.5 c 1.5,-0.6 3.3,0.1 3.9,1.6 0.6,1.6 -0.1,3.3 -1.6,3.9 z"
   id="path8"
   style="fill:#e9e1d0;fill-opacity:1" />
</svg>
