<?xml version="1.0" encoding="UTF-8" standalone="no"?>
<!-- Generator: Adobe Illustrator 26.0.3, SVG Export Plug-In . SVG Version: 6.00 Build 0)  -->

<svg
   version="1.1"
   id="Layer_1"
   x="0px"
   y="0px"
   viewBox="0 0 263.91275 68.027946"
   xml:space="preserve"
   sodipodi:docname="scummvm.svg"
   width="263.91275"
   height="68.027946"
   inkscape:version="1.1.2 (b8e25be833, 2022-02-05)"
   xmlns:inkscape="http://www.inkscape.org/namespaces/inkscape"
   xmlns:sodipodi="http://sodipodi.sourceforge.net/DTD/sodipodi-0.dtd"
   xmlns="http://www.w3.org/2000/svg"
   xmlns:svg="http://www.w3.org/2000/svg"><defs
   id="defs13" /><sodipodi:namedview
   id="namedview11"
   pagecolor="#ffffff"
   bordercolor="#666666"
   borderopacity="1.0"
   inkscape:pageshadow="2"
   inkscape:pageopacity="0.0"
   inkscape:pagecheckerboard="0"
   showgrid="false"
   inkscape:zoom="0.55104167"
   inkscape:cx="959.09263"
   inkscape:cy="540.79395"
   inkscape:window-width="2560"
   inkscape:window-height="1387"
   inkscape:window-x="-8"
   inkscape:window-y="-8"
   inkscape:window-maximized="1"
   inkscape:current-layer="Layer_1" />
<style
   type="text/css"
   id="style2">
	.st0{fill:#E9E1D0;}
</style>
<path
   class="st0"
   d="m 262.5,25.015206 h -6.6 -0.3 l -0.1,0.3 -2.2,8.1 v 0 0.1 11.7 h -4.7 l 1.1,-12.8 c 0.1,-0.7 -0.2,-0.8 -0.5,-0.2 l -18.4,32.1 c -0.3,0.6 -1.2,1 -1.9,1 l -5.3,-0.6 c -0.7,-0.1 -1.4,-0.7 -1.6,-1.3 l -4,-13.3 h 2 0.4 v -0.4 -13.8 h 5.2 l 3.3,12.2 c 0.2,0.7 0.6,0.7 0.9,0.1 l 17.2,-31.6 h 7 0.3 l 0.1,-0.3 3.2,-9.4999997 5.2,0.5 c 0.7,0.1 1.2,0.7 1.1,1.4 z m -2.9,33.4 h -3.2 -0.2 l -0.1,0.2 -0.6,1.3 -2.5,0.3 h -0.3 v 0.3 l -0.5,6.9 -4.2,-0.4 c -0.7,-0.1 -1.2,-0.7 -1.1,-1.4 l 1.7,-19.7 h 5.2 0.4 v -0.4 -12 l 2.1,-7.8 h 6.3 z m -2.1,9.6 -4.6,-0.5 0.5,-6.6 2.4,-0.3 h 0.2 l 0.1,-0.2 0.6,-1.2 h 2.9 l -0.7,7.7 c -0.1,0.7 -0.8,1.2 -1.4,1.1 z m -46.3,-41.2 c -0.2,-0.7 -0.4,-0.6 -0.5,0 l -2.8,20.2 h -5.2 l -1.7,-1 h -0.1 -0.1 -3.2 l 3.9,-26.3 h 5.1 0.3 l 0.1,-0.3 1.5,-4.7 h 11.4 l 5.5,20.4 h -5.4 -0.4 v 0.4 13.8 h -1.9 z m -6.7,35.8 -8,-0.7 c -0.7,-0.1 -1.2,-0.7 -1.1,-1.4 l 1.2,-8.1 10.3,1.2 -1.1,7.8 c 0,0.7 -0.6,1.3 -1.3,1.2 z m -3.8,-15.9 1.7,0.9 h 0.1 0.1 5.2 l -0.7,5.2 -10.3,-1.2 0.7,-5 z m 4.8,-45.1999997 9.9,1 c 0.7,0.1 1.4,0.7 1.6,1.3 l 2.7,10.0999997 h -11.5 -0.3 l -0.1,0.3 -1.5,4.7 h -4.7 L 204,2.6152063 c 0.2,-0.7 0.8,-1.2 1.5,-1.1 z m 46.5,6 c 0.3,-0.6 1.2,-1.1 1.9,-1 l 3,0.3 -3,9.0999997 h -6.4 z"
   id="path4"
   style="fill:#e9e1d0;fill-opacity:1" />
<path
   class="st0"
   d="m 202.4,1.0152063 -4,23.8999997 h -4.2 -0.4 v 0.4 2 l -1,1 -0.1,0.1 v 0.2 8 0.4 h 0.4 3.3 l -1.4,8 -2.9,2.2 h -2.7 -0.1 l -0.1,0.1 -2.1,1.6 -0.1,0.1 v 0.2 3.3 l -7.5,2.8 -8.3,-14.1 9.2,-7.7 4.5,7.9 c 0.3,0.6 0.7,0.5 0.8,-0.1 l 3.5,-25.7 h 3.5 0.1 l 0.1,-0.1 1.4,-1.2 0.1,-0.1 v -0.2 -5.7999997 l 0.9,-1 0.1,-0.1 v -0.1 -1.9 l 0.9,-0.8 0.1,-0.1 v -0.2 -3 l 4.9,-1.00000005 c 0.8,-0.1 1.3,0.3 1.1,1.00000005 z m -8.9,27.6999997 1,-1 0.1,-0.1 v -0.2 -1.8 h 3.7 l -1.8,10.4 h -3.1 z m -1.2,32.1 c -0.1,0.7 -0.8,1.3 -1.4,1.5 l -5.4,1 c -0.7,0.1 -1.5,-0.3 -1.9,-0.8 l -3.8,-6.4 7.6,-2.8 0.2,-0.1 v -0.3 -3.4 l 1.9,-1.4 h 2.7 0.1 l 0.1,-0.1 2.3,-1.8 z m -38.7,-51.4999997 10.6,-2.2 c 0.7,-0.1 1.5,0.2 1.8,0.8 l 2.2,3.9999997 h -2.3 -0.2 l -0.1,0.2 -0.7,0.9 h -3.5 -0.4 v 0.4 4.6 h -3.7 l -4.4,-7.4 c -0.3,-0.6 0,-1.1999997 0.7,-1.2999997 z m 7.8,9.3999997 h 0.4 v -0.4 -4.6 h 3.4 0.2 l 0.1,-0.2 0.7,-0.9 h 2.5 l 11.3,20.3 -9.2,7.7 -13,-21.9 z M 190.8,3.4152063 c 0.1,-0.7 0.7,-1.4 1.4,-1.5 l 3.5,-0.7 v 2.7 l -0.9,0.8 -0.1,0.1 v 0.2 1.9 l -0.9,1 -0.1,0.1 v 0.1 5.8999997 l -1.2,1 h -3.3 z"
   id="path6"
   style="fill:#e9e1d0;fill-opacity:1" />
<path
   class="st0"
   d="m 28.3,42.915206 c 0.8,1.5 1.2,3.3 1.2,5.5 0,2 -0.4,3.8 -1.3,5.3 -0.8,1.5 -1.9,2.7 -3.3,3.7 -1.4,1 -2.9,1.7 -4.6,2.1 -1.7,0.5 -3.4,0.7 -5.2,0.7 -3.5,0 -6.4,-0.6 -8.7,-1.9 -2.4,-1.4 -4.5,-3.3 -6.4,-5.9 l 4,-5.1 c 0.4,-0.5 1,-0.5 1.4,0 0,0 0.5,0.5 1.3,1.1 0.8,0.6 1.6,1.2 2.5,1.6 0.9,0.5 1.9,0.9 2.8,1.2 1,0.3 1.9,0.5 2.7,0.5 0.8,0 1.5,-0.2 1.9,-0.5 0.4,-0.3 0.7,-0.9 0.7,-1.7 0,-0.7 -0.4,-1.4 -1.2,-2 -0.8,-0.6 -1.7,-1.3 -2.9,-2 -1.1,-0.7 -2.4,-1.4 -3.7,-2.3 -1.3,-0.8 -2.6,-1.8 -3.7,-2.9 -1.1,-1.1 -2.1,-2.3 -2.9,-3.8 -0.8,-1.4 -1.2,-3 -1.2,-4.9 0,-1.8 0.3,-3.4 1,-4.7 0.7,-1.4 1.6,-2.5 2.7,-3.4 1.1,-0.9 2.5,-1.6 4,-2.1 1.5,-0.5 3.1,-0.7 4.8,-0.7 3,0 5.7,0.6 8.1,1.7 2.4,1.1 4.7,2.8 6.8,4.9 l -3.3,5 c -0.3,0.5 -1,0.6 -1.4,0.2 0,0 -0.8,-0.7 -1.7,-1.3 -0.9,-0.6 -1.8,-1.1 -2.7,-1.5 -0.9,-0.4 -1.7,-0.7 -2.4,-0.9 -0.8,-0.2 -1.4,-0.3 -2,-0.3 -0.7,0 -1.2,0.2 -1.5,0.5 -0.3,0.3 -0.5,0.8 -0.5,1.3 0,0.7 0.4,1.3 1.2,1.9 0.8,0.6 1.7,1.2 2.9,1.8 1.2,0.6 2.4,1.3 3.8,2.1 1.3,0.8 2.6,1.7 3.8,2.8 1.2,1.1 2.2,2.4 3,4 z m 13.8,-2.2 c 0.4,-0.5 0.9,-0.8 1.5,-1.1 0.5,-0.2 1.1,-0.4 1.6,-0.4 1.6,0 2.7,0.4 3.5,1.2 0.8,0.8 1.1,1.6 1.1,1.6 0.2,0.5 0.9,0.9 1.5,0.7 l 6.8,-1.7 c -0.7,-3.1 -2.2,-5.6 -4.3,-7.5 -2.2,-1.9 -5.1,-2.9 -8.8,-2.9 -2.3,0 -4.3,0.3 -6,1 -1.8,0.7 -3.2,1.7 -4.4,3 -1.2,1.3 -2.1,2.9 -2.7,4.7 -0.6,1.8 -0.9,3.9 -0.9,6.1 0,2 0.3,3.8 0.8,5.6 0.6,1.8 1.4,3.3 2.6,4.6 1.2,1.3 2.7,2.4 4.5,3.2 1.8,0.8 4,1.2 6.5,1.2 1.4,0 2.8,-0.2 4.2,-0.6 1.4,-0.4 2.6,-1.1 3.7,-2 1.1,-0.9 2.1,-2 3,-3.4 0.8,-1.4 1.6,-3.7 1.6,-3.7 0.2,-0.6 -0.2,-1.2 -0.7,-1.3 l -6.6,-1.9 c -0.1,0.6 -0.4,1.1 -0.7,1.6 -0.4,0.5 -0.8,0.9 -1.3,1.3 -0.5,0.4 -0.9,0.6 -1.4,0.8 -0.5,0.2 -0.9,0.3 -1.4,0.3 -1.5,0 -2.7,-0.6 -3.6,-1.7 -0.9,-1.1 -1.4,-2.6 -1.4,-4.4 0,-1 0.1,-1.8 0.4,-2.5 0.1,-0.8 0.5,-1.3 0.9,-1.8 z m 46.4,4.8 c -0.1,-2.3 -0.2,-4.7 -0.3,-7.1 -0.1,-2.4 -0.2,-6.7 -0.2,-6.7 0,-0.6 -0.5,-1.1 -1.1,-1.1 l -9.2,0.2 c 0.1,1.8 0.2,3.4 0.3,4.7 0.1,1.3 0.2,2.6 0.2,3.8 0.1,1.2 0.1,2.4 0.1,3.7 0,1.3 0,2.8 0,4.5 0,1.3 -0.4,2.4 -1.3,3.1 -0.9,0.8 -1.9,1.2 -3.1,1.2 -1.3,0 -2.2,-0.4 -2.9,-1.2 -0.6,-0.8 -1,-1.7 -1,-2.8 0,-2 0.1,-3.8 0.3,-5.7 0.2,-1.9 0.4,-3.6 0.6,-5.2 0.2,-1.8 0.6,-4.1 0.6,-4.1 0.1,-0.6 -0.3,-1.1 -0.9,-1.1 l -9.6,0.1 c -0.3,1.9 -0.5,3.8 -0.7,5.6 -0.2,1.6 -0.3,3.3 -0.5,5.1 -0.1,1.8 -0.2,3.4 -0.2,4.9 0,2 0.2,3.9 0.7,5.5 0.5,1.6 1.2,3 2.3,4.2 1,1.1 2.3,2 3.9,2.6 1.6,0.6 3.5,0.9 5.7,0.9 0.6,0 1.3,-0.1 2,-0.3 0.7,-0.2 1.3,-0.4 1.9,-0.7 0.6,-0.3 1.2,-0.6 1.7,-1 0.2,-0.2 0.7,-0.7 1,-0.6 0.4,0.2 0.2,1.2 0.2,1.5 0,0.6 0.5,1.1 1.1,1.1 l 8.8,-0.2 c -0.1,-2.8 -0.2,-5.4 -0.3,-7.8 0.1,-2.4 0,-4.8 -0.1,-7.1 z m 39.6,-9.5 c -0.9,-1.3 -2,-2.4 -3.5,-3.1 -1.5,-0.8 -3.5,-1.1 -5.9,-1.1 -1.8,0 -3.3,0.4 -4.6,1.2 -0.3,0.2 -0.7,0.4 -1,0.7 -0.3,0.2 -0.6,0.4 -0.8,0.7 -0.2,0.2 -0.4,0.5 -0.7,0.5 -0.1,0 -0.1,0 -0.2,0 -0.3,0 -0.3,-0.2 -0.5,-0.4 -0.4,-0.5 -0.9,-1 -1.4,-1.4 -0.9,-0.7 -2.1,-1 -3.5,-1 -0.7,0 -1.4,0.1 -2,0.3 -0.6,0.2 -1.2,0.5 -1.7,0.9 -0.4,0.3 -0.8,0.7 -1.2,1 -0.2,0.2 -0.3,0.4 -0.6,0.4 -0.3,0 -0.2,-0.4 -0.3,-0.6 0,-0.2 -0.1,-0.5 -0.1,-0.7 0,-0.2 0,-0.3 -0.1,-0.5 -0.1,-0.6 -0.6,-1.1 -1.2,-1.1 l -8.1,0.2 c 0.1,2.3 0.2,4.5 0.3,6.6 0.1,2.1 0.1,4.2 0.1,6.4 0,2.2 0,4.4 0,6.8 0,2.4 0,6.9 0,6.9 0,0.6 0.5,1.1 1.1,1.1 l 7.9,-0.1 c 0.6,0 1.1,-0.5 1.1,-1.1 l 0.3,-15.5 c 0,-0.5 0.1,-1.1 0.4,-1.6 0.3,-0.5 0.9,-0.8 1.9,-0.8 0.5,0 0.8,0.2 1.1,0.5 0.3,0.3 0.5,0.8 0.6,1.4 0.2,0.6 0.3,1.2 0.3,1.9 0.1,0.7 0.1,1.5 0.1,2.3 0,2 0,3.5 0,4.8 0,1.2 0,2.3 0,3.2 0,0.9 0,1.8 -0.1,2.6 0,0.8 -0.1,1.7 -0.1,1.7 0,0.6 0.4,1.1 1,1.1 l 9.2,0.2 c -0.1,-0.6 -0.1,-1.3 -0.2,-2.1 -0.1,-0.8 -0.1,-1.7 -0.1,-2.5 0,-0.9 0,-1.7 -0.1,-2.5 0,-0.8 0,-1.4 0,-1.9 0,-3.6 0.1,-6.3 0.5,-8 0.3,-1.8 1.1,-2.6 2.4,-2.6 0.8,0 1.4,0.3 1.8,1 0.4,0.7 0.6,1.8 0.6,3.3 0,1.5 -0.2,3.3 -0.5,5.6 -0.4,2.3 -1.5,7.2 -1.5,7.2 -0.1,0.6 0.2,1.1 0.8,1.2 l 9.3,1.2 c 0.4,-2.3 0.8,-4.6 1,-6.8 0.3,-2.2 0.4,-4.3 0.4,-6.4 0,-2.2 -0.2,-4.2 -0.5,-6.1 -0.2,-2.1 -0.8,-3.7 -1.7,-5 z m 42.9,4.7 c -0.3,-1.9 -0.9,-3.5 -1.8,-4.8 -0.9,-1.3 -2,-2.4 -3.5,-3.1 -1.5,-0.8 -3.5,-1.1 -5.9,-1.1 -1.8,0 -3.3,0.4 -4.6,1.2 -0.3,0.2 -0.7,0.4 -1,0.6 -0.3,0.2 -0.6,0.4 -0.8,0.7 -0.2,0.2 -0.5,0.7 -0.9,0.6 -0.2,-0.1 -0.5,-0.4 -0.6,-0.6 -0.4,-0.5 -0.8,-0.9 -1.3,-1.2 -0.9,-0.7 -2.1,-1 -3.5,-1 -0.7,0 -1.4,0.1 -2,0.3 -0.6,0.2 -1.2,0.5 -1.7,0.9 -0.5,0.4 -0.9,0.7 -1.2,1.1 -0.1,0.1 -0.1,0.1 -0.2,0.2 -0.1,0.1 -0.2,0.2 -0.3,0.2 -0.1,0 -0.2,-0.2 -0.3,-0.4 -0.1,-0.2 -0.1,-0.5 -0.1,-0.7 0,-0.3 -0.1,-0.6 -0.1,-0.9 -0.1,-0.6 -0.6,-1.1 -1.2,-1.1 l -8.1,0.2 c 0.1,2.3 0.2,4.5 0.3,6.6 0.1,2.1 0.1,4.2 0.1,6.4 0,2.2 0,4.4 0,6.8 0,2.4 0,6.8 0,6.8 0,0.6 0.5,1.1 1.1,1.1 l 7.9,-0.1 c 0.6,0 1.1,-0.5 1.1,-1.1 l 0.3,-15.5 c 0,-0.5 0.1,-1.1 0.4,-1.6 0.3,-0.5 0.9,-0.8 1.9,-0.8 0.4,0 0.8,0.2 1.1,0.5 0.3,0.3 0.5,0.8 0.6,1.4 0.2,0.6 0.3,1.2 0.3,1.9 0.1,0.7 0.1,1.5 0.1,2.3 0,2 0,3.5 0,4.8 0,1.2 0,2.3 0,3.2 0,0.9 0,1.8 -0.1,2.6 0,0.8 -0.1,1.7 -0.1,1.7 0,0.6 0.4,1.1 1,1.1 0,0 0,0 0,0 0.3,0 0.6,0 0.9,0 0.6,0 1.3,0 1.9,0 0.8,0 1.6,0 2.4,0.1 0.7,0 1.5,0 2.2,0 0.5,0 1,0.1 1.4,0 0.4,-0.1 0.3,-0.4 0.3,-0.7 0,-0.5 -0.1,-0.9 -0.1,-1.4 -0.1,-0.8 -0.1,-1.7 -0.1,-2.5 0,-0.9 0,-1.7 -0.1,-2.5 0,-0.8 0,-1.4 0,-1.9 0,-3.6 0.2,-6.3 0.5,-8.1 0.3,-1.8 1.1,-2.6 2.4,-2.6 0.8,0 1.4,0.3 1.8,1 0.4,0.7 0.6,1.8 0.6,3.3 0,1.5 -0.2,3.3 -0.5,5.6 -0.4,2.3 -1.5,7.2 -1.5,7.2 -0.1,0.6 0.2,1.1 0.8,1.2 0.3,0 0.5,0.1 0.8,0.1 1.3,0.2 2.5,0.3 3.8,0.5 0.8,0.1 1.6,0.2 2.4,0.3 0.5,0.1 1,0.2 1.5,0.2 0.3,0 0.7,0.2 0.9,-0.1 0.2,-0.3 0.2,-0.7 0.3,-1.1 0.1,-0.5 0.1,-1 0.2,-1.5 0.1,-0.7 0.2,-1.5 0.3,-2.2 0.1,-0.6 0.2,-1.2 0.3,-1.9 0.3,-2.2 0.4,-4.3 0.4,-6.4 -0.2,-1.9 -0.4,-3.9 -0.7,-5.8 z"
   id="path8"
   style="fill:#e9e1d0;fill-opacity:1" />
</svg>
