<svg id="Layer_1" data-name="Layer 1" xmlns="http://www.w3.org/2000/svg" viewBox="0 0 1920 415.37"><defs><style>.cls-1{fill:#fff;}</style></defs><path class="cls-1" d="M6895.12,7187.51c2.19-70.21,62.15-130.66,139.7-119.57,34.46,4.93,62,22.07,81.56,50.88,18.68,27.5,24.86,58,20.74,91.56H6963.49c1,4,1.44,7.12,2.54,10,7.63,20,22.84,30.38,43.55,33.07,18.7,2.44,35-2.48,47.25-17.57,1.82-2.25,3.8-3.58,6.94-3.55,21.22.13,42.44.1,63.66.15a5,5,0,0,1,1.48.52c-5.75,33.31-54.26,72.69-95,78.2-50.58,6.83-114.45-20.34-135.77-90.86-.72,5.56-1.13,9.67-1.79,13.74-5.69,35.44-26.08,58.78-60.08,69.5-32.7,10.32-65.81,10-98.11-2-33.77-12.6-52.53-37.68-57.59-73-1.15-8-1.29-16.26-1.94-25H6757c.44,3.16.86,6.36,1.34,9.55,1.28,8.29,4.08,16,9.78,22.29,9.4,10.46,24.63,12.62,36.94,5.34,11.68-6.91,17.2-21.24,12.85-33.4a28.35,28.35,0,0,0-11.54-14.66,210.53,210.53,0,0,0-23.72-13.19c-10.46-4.86-21.39-8.72-32-13.24a160.9,160.9,0,0,1-36.94-21.57c-36.17-28.54-37-77.35-15-108,15.27-21.26,36.2-34.17,61.28-40.6,33.65-8.63,65.56-4.31,95.29,13.95,23.41,14.38,36.24,35.39,39,62.59.46,4.55.77,9.12,1.19,14.2h-77.7c-1.15-4-2.05-8-3.44-11.79-7.11-19.49-32.68-23.91-46.27-8.07a22.62,22.62,0,0,0,.8,30.75,58.05,58.05,0,0,0,14.44,10.78c10.2,5.39,20.95,9.72,31.26,14.91,14.72,7.41,29.64,14.55,43.76,23,15.35,9.18,27.83,21.52,34.47,38.72C6893.07,7185.91,6894,7186.44,6895.12,7187.51Zm70.49-23.89h102.57c-3.44-23.27-26.2-39.41-53.93-38.74C6989.44,7125.47,6967.49,7142.76,6965.61,7163.62Z" transform="translate(-6239.5 -6991.82)"/><path class="cls-1" d="M7891.73,7095.07v-20.13h68.44a62.6,62.6,0,0,1,.65,6.3c0,68.62.28,137.25-.24,205.87-.11,14.42-2.29,29-4.94,43.21-3.59,19.37-14.33,34.8-29.88,46.92-18.66,14.54-40,22.79-63.16,26.82-27,4.7-53.76,4.62-80.06-3.89-21-6.77-38.82-18.14-52.15-35.93a74.52,74.52,0,0,1-15.08-38.06c26.38-.13,52.64,0,78.86-.07.82,1.19,1.51,2,2,3,6.16,10.72,15.56,16.57,27.62,18.91,31.92,6.2,58-10.4,65.2-41.81a116.21,116.21,0,0,0,2.06-14.66c.31-3.17.06-6.4.06-11.16a39.55,39.55,0,0,0-3,3.18c-11.53,16.82-28.29,25.06-47.87,27.54-62.45,7.91-117.52-33.47-127.53-95.46-4.76-29.5-1.78-58,11.65-85,26-52.16,80.27-71.71,127.69-60.49,14.6,3.45,27.15,10.47,36.52,22.49A24.21,24.21,0,0,0,7891.73,7095.07Zm-.17,93.65c-.07-1.24-.09-4.26-.45-7.25a63.38,63.38,0,0,0-1.57-8.06c-5.95-23.46-25.31-40.11-48.5-41.76-25.42-1.8-47.07,11.23-56.7,34.1-4.27,10.13-5.05,20.67-3.95,31.48,3.6,35.15,35.6,57.46,70,48.75C7876.05,7239.48,7891.6,7218.54,7891.56,7188.72Z" transform="translate(-6239.5 -6991.82)"/><path class="cls-1" d="M7158.75,7126.53H7125.1v-52h33.29v-74.93c6.7-2.08,59.88-2.43,69.61-.55v74.78h57.89c.55-8.21.16-16.62.23-25s0-16.47,0-24.7v-25.77h69.12v75.86h32.93v52.34h-32.72c-.06,15.34,0,30,0,44.73s0,29.64,0,44.46v88.38H7286.3V7127.2h-58.1c-.06,11.57-.14,23.23-.17,34.89s0,23.6,0,35.4v106.6h-69.25C7158.74,7245.35,7158.78,7186.54,7158.75,7126.53Z" transform="translate(-6239.5 -6991.82)"/><path class="cls-1" d="M7631.83,7303.63V7295c0-39.25.17-78.5-.15-117.75a94.79,94.79,0,0,0-3.23-24.31c-3.73-13.34-13.37-20.25-27.27-21.26-2.75-.2-5.51-.2-8.27-.13-20.6.53-32.86,11.32-35.56,31.69a154.36,154.36,0,0,0-1.21,19.7c-.11,37.33-.05,74.66-.05,112v9.28h-68.43V7074.82h63.87v21.3l1.49.53c1.34-1.48,2.8-2.87,4-4.45,11.71-15.38,27.47-23.21,46.55-24.93,12.43-1.12,24.82-.86,36.93,2.36,34.1,9.07,52.82,32,58.75,65.91a126.56,126.56,0,0,1,1.77,21.29c.16,46.94.1,93.87.1,140.81v5.57C7694.87,7305,7642.06,7305.33,7631.83,7303.63Z" transform="translate(-6239.5 -6991.82)"/><path class="cls-1" d="M6283.58,7115.75a34,34,0,0,0-7-18.15c-1.34-1.74-2.93-3.29-4.26-5-3.94-5.22-4-10,.48-14.87,5.41-5.84,11.09-11.47,16.94-16.88,5.09-4.71,10-4.63,15.56-.33,2,1.52,3.72,3.29,5.75,4.7,19.76,13.64,43.89,2.95,47.06-20.83,2.15-16.09,2.68-16.56,19-16.56,5,0,9.92-.09,14.88,0,8.58.19,11.86,3.34,12.68,11.73a59.17,59.17,0,0,0,1.37,8.91c5.26,20.52,25.9,28.94,44.08,17.94,2.8-1.69,5.23-4,7.83-6,5.5-4.24,10.42-4.22,15.53.57q8.42,7.89,16.38,16.28c5.25,5.54,5.17,9.92.4,16-2.37,3-4.92,6-6.71,9.32-9.41,17.53-.67,37.15,18.66,42a88.8,88.8,0,0,0,10.61,1.48c6.93.88,10.27,4.25,10.49,11.35q.36,11.52,0,23.05c-.22,7-3.5,10.36-10.53,11.39-2.45.36-5,.35-7.4.73-22.18,3.47-32.55,26-20.65,44.92,1.74,2.77,4.1,5.15,6.09,7.77,4.08,5.37,4.16,9.89-.42,14.81-5.61,6-11.48,11.86-17.55,17.44-4.3,3.95-9.59,3.87-14.31.4-1.77-1.29-3.3-2.92-5.05-4.24-19.25-14.46-42.58-6-47.86,17.38a57.74,57.74,0,0,0-1,7.32c-.78,8.19-3.86,11.29-11.95,11.45q-11.16.23-22.32,0c-8-.18-11.19-3.42-12-11.52a56.34,56.34,0,0,0-1.47-9.71c-5.7-20.09-26-28-43.84-17.13-2.8,1.7-5.23,4-7.84,6-5.36,4.12-10.55,4.07-15.54-.6q-8.41-7.9-16.38-16.28c-5.13-5.39-5.06-10.07-.33-16.07a73.4,73.4,0,0,0,5.95-7.86c11.16-19,.63-40.78-21.24-44.11-2.44-.37-4.95-.36-7.4-.73-6.75-1-10.08-4-10.42-10.65a236.24,236.24,0,0,1,0-24.68c.36-6.57,4-9.49,10.59-10.47,4.87-.73,9.91-1.22,14.48-2.9A28.22,28.22,0,0,0,6283.58,7115.75Zm168,52c-1-38.61-32.93-69.46-71-68.67a70.05,70.05,0,0,0-68.88,72.33c1,38.05,33.41,68.31,72.14,67.29C6421.65,7237.7,6452.54,7205.36,6451.54,7167.74Z" transform="translate(-6239.5 -6991.82)"/><path class="cls-1" d="M7972.18,7236.27c21.74-.16,44.16,0,66.34-.06A27.63,27.63,0,0,1,8040,7239c6.15,17.11,24.2,23.67,40.26,14.62,11.67-6.57,13.2-20.37,2.62-28.64a67,67,0,0,0-16.58-9c-9.71-3.82-19.95-6.35-29.59-10.32-11.67-4.8-23.48-9.64-34.29-16-36.83-21.77-32.92-59.11-19.47-82.24,8.59-14.77,21.39-25,36.95-31.72,28.17-12.1,56.88-12.44,85.26-1.26,24.19,9.52,39.36,27.47,45,53,.76,3.42.92,7,1.34,10.32-6.5,2-50.49,2.59-66.32,1.08a6.67,6.67,0,0,1-1.38-1.86c-4.55-15-23.65-20.56-35.77-10.34a14,14,0,0,0-1.35,20.51,32.92,32.92,0,0,0,11.48,7.71c9.75,3.7,19.88,6.39,29.75,9.77,10.92,3.74,22.15,6.9,32.5,11.86,42.95,20.61,52.13,72.47,19.34,107.34-13.48,14.33-30.44,22.26-49.53,26.18-21.81,4.47-43.38,3.72-64.34-3.86-31.23-11.3-49.42-33.64-54.77-66.32a6.42,6.42,0,0,1,0-1.64A10.92,10.92,0,0,1,7972.18,7236.27Z" transform="translate(-6239.5 -6991.82)"/><path class="cls-1" d="M7395.11,7304.19V7074.85h67c2,5.7,2.61,218.31.63,229.34Z" transform="translate(-6239.5 -6991.82)"/><path class="cls-1" d="M6535.88,7022.86c-.37-1.56-1.1-4.47-1.76-7.4-1.14-5.06-.37-7.31,4-9.48a116.22,116.22,0,0,1,13.68-5.73c4.58-1.57,7.06-.42,9.7,3.73,1,1.62,1.79,3.41,2.92,5,8.36,11.41,23.15,11.2,31.24-.39,7.26-10.4,7.26-10.4,18.89-5.61l3,1.27c9.17,3.86,9.34,4.21,7.1,14.11-3.72,16.44,7.78,27.69,24.27,23.74,9.17-2.2,10-1.78,13.68,6.76,1.4,3.28,2.93,6.52,4.08,9.88,1.62,4.76.73,7-3.48,9.71-1.85,1.18-3.93,2-5.66,3.35-10.73,8.17-10.72,22,0,30.08,1.74,1.32,3.8,2.21,5.64,3.4,4.2,2.72,5.16,5,3.48,9.7a130.88,130.88,0,0,1-5.42,12.88c-2.41,5-4.42,5.73-9.91,4.51-3.2-.71-6.47-1.82-9.68-1.72-12,.36-19.46,10.43-17.34,22.95,2.07,12.26,2.08,12.26-9.67,17.13-.76.31-1.56.55-2.32.86-9.94,4.05-10.22,4-15.72-4.86-8.7-14-24.75-14.05-33.46-.17-.87,1.39-1.45,3-2.39,4.31-1.92,2.72-4.6,4.12-7.86,2.91-5.16-1.91-10.28-4-15.26-6.27-3.78-1.75-4.82-5-3.73-9a45,45,0,0,0,1.68-7.18c1.36-13.22-9.19-22.77-22.26-20.29-12.71,2.43-12.71,2.43-17.79-9.78-.42-1-.86-2-1.27-3-3.49-8.56-3.16-9.5,4.89-14.4,14.85-9,14.73-25.23-.25-34.2-.24-.14-.51-.23-.74-.37-6.62-3.91-7.18-5.46-4.38-12.58,1.41-3.57,2.83-7.15,4.49-10.6,2.4-5,4.5-5.93,9.87-4.87,3,.58,5.9,1.53,8.86,1.59C6528.1,7043,6536,7035.15,6535.88,7022.86Zm88.85,63.77a44.85,44.85,0,1,0-45.06,44.93A44.63,44.63,0,0,0,6624.73,7086.63Z" transform="translate(-6239.5 -6991.82)"/><path class="cls-1" d="M7463.22,6998.39v50.22c-6,1.77-56.4,2.27-68,.63v-50.85Z" transform="translate(-6239.5 -6991.82)"/></svg>