<?xml version="1.0" encoding="UTF-8" standalone="no"?>
<!-- Generator: Adobe Illustrator 26.0.3, SVG Export Plug-In . SVG Version: 6.00 Build 0)  -->

<svg
   version="1.1"
   id="Layer_1"
   x="0px"
   y="0px"
   viewBox="0 0 264.04999 66.983002"
   xml:space="preserve"
   sodipodi:docname="solarus.svg"
   width="264.04999"
   height="66.983002"
   inkscape:version="1.1.2 (b8e25be833, 2022-02-05)"
   xmlns:inkscape="http://www.inkscape.org/namespaces/inkscape"
   xmlns:sodipodi="http://sodipodi.sourceforge.net/DTD/sodipodi-0.dtd"
   xmlns="http://www.w3.org/2000/svg"
   xmlns:svg="http://www.w3.org/2000/svg"><defs
   id="defs31" /><sodipodi:namedview
   id="namedview29"
   pagecolor="#ffffff"
   bordercolor="#666666"
   borderopacity="1.0"
   inkscape:pageshadow="2"
   inkscape:pageopacity="0.0"
   inkscape:pagecheckerboard="0"
   showgrid="false"
   inkscape:zoom="0.55104167"
   inkscape:cx="959.09263"
   inkscape:cy="540.79395"
   inkscape:window-width="2560"
   inkscape:window-height="1387"
   inkscape:window-x="-8"
   inkscape:window-y="-8"
   inkscape:window-maximized="1"
   inkscape:current-layer="Layer_1" />
<style
   type="text/css"
   id="style2">
	.st0{fill:#E9E1D0;}
</style>
<g
   id="solarus_letters"
   transform="matrix(0.557538,0,0,0.558193,-1.672614,-1.59e-4)"
   style="fill:#e9e1d0;fill-opacity:1">
	<path
   id="solarus_letter_s2"
   class="st0"
   d="m 36,37.1 c -6.5,-2.2 -10.6,-4 -12.3,-5.4 -1.6,-1.2 -2.5,-3 -2.5,-4.9 -0.1,-2.5 1.1,-5 3.3,-6.3 2.2,-1.4 5.2,-2.1 9,-2.1 5.7,-0.1 11.4,1.1 16.6,3.5 l 1.3,-14 C 48.7,7 46,6.3 43.2,5.9 39.8,5.4 36.4,5.1 33,5.2 c -9.3,0 -16.7,2 -22,5.9 -5.3,3.9 -8,9.5 -8,16.8 0,6.1 1.7,10.8 5.2,14 3.5,3.2 8.8,6 15.9,8.3 5.3,1.8 8.9,3.5 10.7,5.2 1.6,1.4 2.6,3.4 2.7,5.5 0,2.5 -1.4,4.9 -3.6,6.1 -2.8,1.6 -6,2.4 -9.3,2.3 -4,0 -7.9,-0.7 -11.6,-1.9 C 10.3,66.7 7.8,65.6 5.4,64.2 L 4,79.2 c 2.4,0.7 5.6,1.5 9.4,2.2 4,0.8 8.1,1.1 12.2,1.1 9.2,0 16.4,-2 21.8,-6 5.4,-4 8.1,-9.6 8.1,-16.9 C 55.5,53.7 54,49 51.1,45.6 48.2,42.2 43.2,39.5 36,37.1 Z"
   style="fill:#e9e1d0;fill-opacity:1" />
	<path
   id="solarus_letter_la"
   class="st0"
   d="M 245.8,6.5 221.9,68.1 H 192.2 V 6.5 h -17.6 v 74.9 l 60.2,-0.1 6.1,-16.4 h 29.7 l 6,16.4 H 296 L 266.5,6.5 Z m -0.2,45.4 10.5,-30.4 10.1,30.4 z"
   style="fill:#e9e1d0;fill-opacity:1" />
	<path
   id="solarus_letter_r"
   class="st0"
   d="m 347.4,59.4 c -1.1,-2.9 -2.3,-6 -3.8,-9.1 -1.3,-3 -3.8,-5.2 -6.9,-6 5.2,-1.1 9.1,-3.3 11.5,-6.7 2.4,-3.2 3.7,-7.2 3.6,-11.2 0,-6.8 -2.3,-11.8 -7,-15.1 C 340.1,8 333.4,6.4 324.7,6.4 H 296 v 74.8 h 17.6 V 50.9 h 5.4 c 2.6,-0.2 5,0.9 6.8,2.7 1.7,2 3,4.4 3.8,6.9 l 7.5,20.7 H 356 l -8,-20.9 z m -17,-23.7 C 328.2,37.2 325,38 321,38 h -7.4 V 19.3 h 6.9 c 4.4,0 7.8,0.7 10,2.2 2.2,1.5 3.4,3.9 3.4,7.1 0.1,2.8 -1.1,5.5 -3.5,7.1 z"
   style="fill:#e9e1d0;fill-opacity:1" />
	<path
   id="solarus_letter_u"
   class="st0"
   d="m 402.3,49.6 c 0,6.4 -1.2,11.2 -3.5,14.5 -2.3,3.3 -6,5 -10.9,5 -4.9,0 -8.5,-1.6 -10.9,-4.8 -2.4,-3.2 -3.5,-7.9 -3.5,-14.1 V 6.5 h -17.6 v 47.1 c 0,9.5 2.8,16.7 8.3,21.6 5.5,4.9 13.5,7.4 23.8,7.4 10.6,0 18.5,-2.5 23.9,-7.6 5.3,-5.1 8,-12.7 8,-23 V 6.5 h -17.6 z"
   style="fill:#e9e1d0;fill-opacity:1" />
	<path
   id="solarus_letter_s"
   class="st0"
   d="m 472.2,45.7 c -2.9,-3.3 -8,-6.2 -15.2,-8.6 -6.5,-2.2 -10.6,-4 -12.3,-5.4 -1.6,-1.2 -2.5,-3 -2.5,-4.9 -0.1,-2.5 1.1,-5 3.3,-6.3 2.2,-1.4 5.2,-2.1 9,-2.1 5.7,-0.1 11.3,1.1 16.5,3.5 l 1.3,-14 C 469.6,7 466.9,6.3 464.1,5.9 460.8,5.3 457.4,5 454,5.1 c -9.3,0 -16.7,2 -22,5.9 -5.3,3.9 -8,9.5 -8,16.8 0,6.1 1.8,10.8 5.2,14.1 3.4,3.3 8.8,6 15.9,8.3 5.3,1.8 8.9,3.5 10.7,5.2 1.6,1.4 2.6,3.4 2.7,5.5 0,2.5 -1.4,4.9 -3.6,6.1 -2.8,1.6 -6,2.4 -9.3,2.3 -3.9,0 -7.8,-0.6 -11.6,-1.9 -3.9,-1.2 -6.4,-2.3 -7.6,-3.2 l -1.4,15 c 2.4,0.7 5.6,1.4 9.4,2.2 4,0.8 8.1,1.1 12.1,1.1 9.2,0 16.4,-2 21.8,-6 5.4,-4 8.1,-9.6 8.1,-16.9 0.1,-5.9 -1.3,-10.5 -4.2,-13.9 z"
   style="fill:#e9e1d0;fill-opacity:1" />
</g>
<path
   id="logo"
   class="st0"
   d="m 61.900002,0 c -22.9,0 -37.3,24.8 -25.8,44.7 0.1,0.2 0.2,0.4 0.4,0.6 h 1.7 l 22.7,-22.7 c 2.1,2.1 4.9,-0.7 5.7,-1.6 l -1.4,-1.4 c -2,-2 -3.7,1 -3.7,1 l -4.3,-4.3 c 0,0 6.7,-3.1 10.4,0.6 1.3,1.3 2.2,2.2 2.7,2.7 l 5,-5 c -1,-2.7 1.3,-5.4 4.2,-4.9 2.8,0.5 4,3.9 2.2,6.1 -1,1.2 -2.7,1.6 -4.1,1.1 l -5,5 2.7,2.7 c 3.7,3.7 0.6,10.4 0.6,10.4 l -4.3,-4.3 c 0,0 3,-1.7 1,-3.7 l -1.4,-1.4 c -0.9,0.8 -3.7,3.7 -1.6,5.8 l -13.9,14 h 31.9 c 11.8,-19.7 -2,-44.9 -24.9,-45.4 -0.3,0 -0.5,0 -0.8,0 z"
   style="fill:#e9e1d0;fill-opacity:1" />
<g
   id="catchphrase_letters"
   transform="matrix(0.557538,0,0,0.558193,-1.672614,-1.59e-4)"
   style="fill:#e9e1d0;fill-opacity:1">
	<path
   id="catchphrase_letter_a"
   class="st0"
   d="m 32.4,119.5 h -7.2 l -2.3,-6.1 H 12 l -2.3,6.1 H 3 L 13.8,91.7 h 7.7 z M 21.3,108.6 17.6,97.3 13.7,108.6 Z"
   style="fill:#e9e1d0;fill-opacity:1" />
	<path
   id="catchphrase_letter_n"
   class="st0"
   d="M 53.9,111.5 V 91.7 H 60 v 27.8 H 52.1 L 51.9,119.1 41.7,99.9 v 19.7 H 35.6 V 91.7 h 8.1 z"
   style="fill:#e9e1d0;fill-opacity:1" />
	<path
   id="catchphrase_letter_a2"
   class="st0"
   d="m 104.3,119.5 h -7.2 l -2.2,-6.1 H 83.8 l -2.3,6.1 H 74.8 L 85.6,91.7 h 7.7 z M 93.2,108.6 89.4,97.3 85.5,108.6 Z"
   style="fill:#e9e1d0;fill-opacity:1" />
	<path
   id="catchphrase_letter_r"
   class="st0"
   d="m 113.6,108.2 v 11.3 H 107 V 91.7 h 10.7 c 3.3,0 5.8,0.6 7.5,1.8 1.8,1.3 2.7,3.4 2.6,5.6 0,1.5 -0.5,2.9 -1.3,4.1 -1.1,1.3 -2.6,2.2 -4.3,2.5 1.2,0.3 2.1,1.1 2.6,2.2 0.6,1.2 1,2.3 1.4,3.4 l 0.2,0.4 3,7.8 h -7 l -2.8,-7.7 c -0.3,-0.9 -0.8,-1.8 -1.4,-2.6 -0.6,-0.7 -1.6,-1.1 -2.5,-1 z m 0,-4.8 h 2.7 c 1.2,0.1 2.5,-0.2 3.5,-0.9 0.9,-0.6 1.4,-1.6 1.3,-2.6 0.1,-1 -0.4,-2.1 -1.2,-2.7 -1.1,-0.6 -2.4,-0.9 -3.8,-0.8 h -2.5 z"
   style="fill:#e9e1d0;fill-opacity:1" />
	<path
   id="catchphrase_letter_p"
   class="st0"
   d="m 139.2,109.3 v 10.2 h -6.6 V 91.7 h 8.6 c 3.7,0 6.6,0.7 8.6,2.1 2,1.4 3,3.6 3,6.5 0.1,2.5 -0.9,5 -2.8,6.6 -1.9,1.6 -4.5,2.3 -7.8,2.3 h -3 z m 0,-4.8 2.2,0.1 c 1.2,0.1 2.5,-0.3 3.4,-1.1 0.9,-0.8 1.3,-1.9 1.3,-3 0.1,-1.1 -0.4,-2.2 -1.3,-2.9 -1,-0.7 -2.2,-1.1 -3.4,-1 h -2.2 z"
   style="fill:#e9e1d0;fill-opacity:1" />
	<path
   id="catchphrase_letter_g"
   class="st0"
   d="m 162.1,105.7 c -0.1,2.5 0.8,5 2.6,6.8 1.8,1.7 4.3,2.7 6.8,2.6 0.6,0 1.3,0 1.9,-0.2 0.5,-0.1 0.9,-0.2 1.3,-0.4 v -6.2 h -5 v -4.8 H 181 v 15 c -1.4,0.4 -2.8,0.7 -4.2,1 -1.8,0.3 -3.7,0.5 -5.5,0.5 -5,0 -8.9,-1.3 -11.8,-3.8 -2.8,-2.5 -4.2,-6 -4.2,-10.6 0,-4.6 1.5,-8.1 4.4,-10.6 2.9,-2.5 6.9,-3.8 12.1,-3.8 1.6,0 3.3,0.1 4.9,0.3 1.3,0.2 2.5,0.5 3.7,1 v 0.3 l -0.4,5.1 c -1.1,-0.6 -2.2,-1 -3.4,-1.3 -1.3,-0.3 -2.5,-0.4 -3.8,-0.4 -2.8,-0.1 -5.5,0.8 -7.7,2.5 -2.1,1.9 -3.1,4.4 -3,7 z"
   style="fill:#e9e1d0;fill-opacity:1" />
	<path
   id="catchphrase_letter_g2"
   class="st0"
   d="m 203.8,105.7 c -0.1,2.5 0.8,5 2.6,6.8 1.8,1.7 4.3,2.7 6.8,2.6 0.6,0 1.3,0 1.9,-0.2 0.5,-0.1 0.9,-0.2 1.3,-0.4 v -6.2 h -5 v -4.8 h 11.3 v 15 c -1.4,0.4 -2.8,0.7 -4.2,1 -1.8,0.3 -3.6,0.5 -5.5,0.5 -5,0 -8.9,-1.3 -11.8,-3.8 -2.8,-2.5 -4.2,-6 -4.2,-10.6 0,-4.6 1.5,-8.1 4.4,-10.6 2.9,-2.5 6.9,-3.8 12.1,-3.8 1.6,0 3.3,0.1 4.9,0.3 1.2,0.2 2.5,0.5 3.6,1 v 0.3 l -0.4,5.1 c -1.1,-0.6 -2.2,-1 -3.4,-1.3 -1.3,-0.3 -2.5,-0.4 -3.8,-0.4 -2.8,-0.1 -5.5,0.8 -7.7,2.5 -2,1.9 -3,4.4 -2.9,7 z"
   style="fill:#e9e1d0;fill-opacity:1" />
	<path
   id="catchphrase_letter_a3"
   class="st0"
   d="M 255.1,119.5 H 248 l -2.2,-6.1 h -11 l -2.3,6.1 h -6.7 l 10.8,-27.8 h 7.7 z m -11.1,-10.9 -3.7,-11.3 -3.9,11.3 z"
   style="fill:#e9e1d0;fill-opacity:1" />
	<path
   id="catchphrase_letter_m"
   class="st0"
   d="m 281.5,91.7 h 9.9 v 27.8 H 285 l 0.1,-22.1 -7.5,21.6 h -5.8 l -7.3,-21.7 0.1,22.1 h -6.3 V 91.7 h 10.1 l 6.5,19.4 z"
   style="fill:#e9e1d0;fill-opacity:1" />
	<path
   id="catchphrase_letter_e"
   class="st0"
   d="M 315.3,119.5 H 296.9 V 91.7 h 18.2 v 4.8 h -11.7 v 6.3 h 10.8 v 4.8 h -10.8 v 7.1 h 11.9 z"
   style="fill:#e9e1d0;fill-opacity:1" />
	<path
   id="catchphrase_letter_e2"
   class="st0"
   d="M 350.4,119.5 H 332 V 91.7 h 18.2 v 4.8 h -11.7 v 6.3 h 10.8 v 4.8 h -10.8 v 7.1 h 11.9 z"
   style="fill:#e9e1d0;fill-opacity:1" />
	<path
   id="catchphrase_letter_n2"
   class="st0"
   d="M 373.7,111.5 V 91.7 h 6.1 v 27.8 h -7.9 l -0.3,-0.4 -10.1,-19.2 v 19.7 h -6.1 V 91.7 h 8.1 z"
   style="fill:#e9e1d0;fill-opacity:1" />
	<path
   id="catchphrase_letter_g3"
   class="st0"
   d="m 391.2,105.7 c -0.1,2.5 0.8,5 2.6,6.8 1.8,1.7 4.3,2.7 6.8,2.6 0.7,0 1.3,0 1.9,-0.2 0.4,-0.1 0.9,-0.2 1.3,-0.4 v -6.2 h -5 v -4.8 h 11.3 v 15 c -1.4,0.4 -2.8,0.7 -4.2,1 -1.8,0.3 -3.6,0.5 -5.5,0.5 -5,0 -9,-1.3 -11.8,-3.8 -2.8,-2.5 -4.2,-6 -4.2,-10.6 0,-4.6 1.5,-8.1 4.4,-10.6 2.9,-2.5 6.9,-3.8 12.1,-3.8 1.6,0 3.3,0.1 4.9,0.3 1.2,0.2 2.5,0.5 3.6,1 v 0.3 l -0.4,5 c -1.1,-0.6 -2.2,-1 -3.4,-1.3 -1.3,-0.3 -2.5,-0.4 -3.8,-0.4 -2.8,-0.2 -5.6,0.8 -7.7,2.5 -2,1.9 -3.1,4.5 -2.9,7.1 z"
   style="fill:#e9e1d0;fill-opacity:1" />
	<path
   id="catchphrase_letter_i"
   class="st0"
   d="m 422.2,119.5 h -6.5 V 91.7 h 6.5 z"
   style="fill:#e9e1d0;fill-opacity:1" />
	<path
   id="catchphrase_letter_n-2"
   class="st0"
   d="M 446.2,111.5 V 91.7 h 6.1 v 27.8 h -7.9 l -0.2,-0.4 -10.1,-19.2 v 19.7 H 428 V 91.7 h 8.1 z"
   style="fill:#e9e1d0;fill-opacity:1" />
	<path
   id="catchphrase_letter_e-2"
   class="st0"
   d="M 476.5,119.5 H 458.1 V 91.7 h 18.2 v 4.8 h -11.6 v 6.3 h 10.8 v 4.8 h -10.8 v 7.1 h 11.9 v 4.8 z"
   style="fill:#e9e1d0;fill-opacity:1" />
</g>
</svg>
