<?xml version="1.0" encoding="UTF-8" standalone="no"?>
<svg
   id="Layer_1"
   data-name="Layer 1"
   viewBox="0 0 1920.0144 488.77078"
   version="1.1"
   sodipodi:docname="tools.svg"
   width="1920.0144"
   height="488.77078"
   inkscape:version="1.1.2 (b8e25be833, 2022-02-05)"
   xmlns:inkscape="http://www.inkscape.org/namespaces/inkscape"
   xmlns:sodipodi="http://sodipodi.sourceforge.net/DTD/sodipodi-0.dtd"
   xmlns="http://www.w3.org/2000/svg"
   xmlns:svg="http://www.w3.org/2000/svg">
  <sodipodi:namedview
     id="namedview21"
     pagecolor="#ffffff"
     bordercolor="#666666"
     borderopacity="1.0"
     inkscape:pageshadow="2"
     inkscape:pageopacity="0.0"
     inkscape:pagecheckerboard="0"
     showgrid="false"
     inkscape:zoom="0.55104167"
     inkscape:cx="958.18525"
     inkscape:cy="244.99055"
     inkscape:window-width="2560"
     inkscape:window-height="1387"
     inkscape:window-x="-8"
     inkscape:window-y="-8"
     inkscape:window-maximized="1"
     inkscape:current-layer="Layer_1" />
  <defs
     id="defs4">
    <style
       id="style2">.cls-1{fill:#fff;}</style>
  </defs>
  <path
     class="cls-1"
     d="m 1134.2021,265.5313 c 0.5,-1.69 1.63,-4.65 2.26,-7.71 16.07,-78.63 79.24,-135.23 159.71,-143.34 54.5,-5.48 103.95,7.19 145.56,43.26 50.18,43.49 69.15,99.75 59.93,164.81 -10.16,71.76 -49.85,122.21 -118.54,145.28 -73.88,24.81 -142,11.67 -199.34,-43.38 -25.26,-24.25 -40,-54.78 -47.14,-88.95 -0.74,-3.52 -1.67,-7 -3.14,-13.19 -2.63,10.78 -4.34,18.9 -6.59,26.87 -19.67,69.48 -79.66,119.86 -151.49999,128.15 -52.45,6.06 -100.77,-4.13 -142.82,-36.67 -48.59,-37.61 -70.6,-88.58 -69,-149.35 2.4,-90.88 61.74,-159.61 151.64,-175.28 82,-14.3 163.87999,22.76 200.17999,97.22 8.15,16.71 12.75,35.16 18.79,52.28 z m 266.71,27.12 c -0.73,-4.57 -1.34,-12.4 -3.28,-19.88 -15.92,-61.65 -89,-84.08 -134.2,-41.31 -35.07,33.2 -36.85,90.22 -3.92,125.53 27.49,29.47 71.76,34.7 104.28,11.71 24.96,-17.64 36.26,-42.63 37.12,-76.05 z m -369,3.94 c -1.37,-8.47 -1.94,-17.16 -4.23,-25.38 -16.93,-60.86 -89.38999,-82.11 -133.99999,-39.48 -35.28,33.69 -36.43,91.37 -2.53,126.43 31.27,32.34 82,33.22 113.87999,1.69 17.47,-17.29 25.89,-38.56 26.9,-63.26 z"
     id="path6"
     style="fill:#e9e1d0;fill-opacity:1" />
  <path
     class="cls-1"
     d="m 808.64211,10.2913 v 101.8 c -29.19,1.17 -58.51,-0.21 -88.78,0.82 v 353.32 c -10.43,3.12 -106.25,3.34 -118.13,0.31 v -353.82 h -89.82 v -102.43 z"
     id="path8"
     style="fill:#e9e1d0;fill-opacity:1" />
  <path
     class="cls-1"
     d="m 1908.2721,220.3013 h -98.56 c -0.35,-0.31 -1.38,-0.77 -1.48,-1.38 -1.61,-10 -6,-18.13 -16.2,-21.26 -12.14,-3.73 -24.39,-4.21 -35.5,3.25 -11.52,7.73 -13.26,23.25 -3.2,33 a 53.31,53.31 0 0 0 17.45,11.13 c 12.57,4.9 25.66,8.48 38.5,12.7 14.79,4.87 29.71,9.38 44.24,14.94 a 145.83,145.83 0 0 1 24,12.42 c 32.42,19.95 45.11,49.88 42.05,86.85 -3.26,39.39 -22.72,69.38 -57.36,87.8 -50.61,26.9 -103.26,28.57 -155.25,4.56 -40.41,-18.66 -61.57,-52.43 -67.58,-97.25 h 101.42 c 0.43,0.68 1.45,1.61 1.64,2.68 5.43,29.4 43.1,35 63.69,20.19 12.88,-9.27 14.81,-26.24 3.48,-37.5 a 63.18,63.18 0 0 0 -19.3,-12.8 c -13.54,-5.78 -27.72,-10.08 -41.52,-15.28 -14.57,-5.49 -29.12,-11 -43.44,-17.13 -6.75,-2.88 -13.07,-6.86 -19.36,-10.71 -51.39,-31.53 -49.34,-83.73 -30,-120.14 11.77,-22.18 30.08,-37.93 52.56,-48.38 43.59,-20.25 88.2,-21.28 132.58,-3.13 35.48,14.51 57.46,41.27 65.76,78.9 a 71.64,71.64 0 0 1 1.37,8.48 c 0.19,2.44 0.01,4.9 0.01,8.06 z"
     id="path10"
     style="fill:#e9e1d0;fill-opacity:1" />
  <path
     class="cls-1"
     d="m 1521.5021,10.0313 h 100.14 c 2.73,8.79 4,431.56 1.37,456.34 -8.58,2.86 -88.83,3.39 -101.51,0.61 z"
     id="path12"
     style="fill:#e9e1d0;fill-opacity:1" />
  <path
     class="cls-1"
     d="m 459.66211,0.16130025 29.67,29.26999975 -18.07,27.43 a 34.87,34.87 0 0 0 -2.05,3.07 c -10.05,19.08 -24.08,33.28 -44.83,41.32 -8.84,3.43 -16.86,10.33 -23.76,17.17 q -90.51,89.73 -180.43,180.06 c -0.87,0.86 -1.57,1.89 -3.45,4.2 l 14.16,14.3 c 12.06,12.2 12,17.24 -0.35,29.66 -1.16,1.16 -2.37,2.28 -3.47,3.49 -5.54,6.06 -12,8.44 -19.88,4.93 a 18.12,18.12 0 0 0 -3.51,-1.11 c -21.45,-4.82 -39.45,13 -32.85,34 3.61,11.46 0.38,18.43 -7.41,26 -20,19.42 -40.1,38.88 -59.19,59.23 -19.09,20.35 -47.63,21.37 -66.87,-0.45 -7.58,-8.6 -16.31,-16.19 -24.26,-24.48 -17.1799997,-17.89 -17.6399997,-41.75 -0.42,-59.5 21.71,-22.4 44.09,-44.15 66.07,-66.29 5.86,-5.91 12.16,-7.52 20.09,-4.58 10.95,4.06 21.13,2.33 29.46,-6.18 8.33,-8.51 9.95,-18.58 5.73,-29.55 -2.83,-7.38 -1.31,-13.43 4.15,-19.08 12.8,-13.22 19.61,-21.64 37.57,-1.11 3.22,3.68 6.28,7.5 9.9,11.84 4.76,-4.6 8,-7.66 11.17,-10.82 54,-54 107.8,-108.15 162.15,-161.77 15.71,-15.5 29.29,-32.12 37.72,-52.56 3,-7.18 7.82,-12.11 14.28,-16.25 16.22,-10.39 32.14,-21.25 48.68,-32.23999975 z"
     id="path14"
     style="fill:#e9e1d0;fill-opacity:1" />
  <path
     class="cls-1"
     d="m 248.00211,303.1613 55.65,-55.54 c 1.95,1.83 4.95,4.5 7.79,7.32 13.37,13.31 27,26.35 39.93,40.09 9.29,9.88 19.44,13.21 33.05,10.91 46.42,-7.82 91.29,23.05 102.71,69.76 11.24,46 -15.6,94.19 -60.65,108.39 -64.28,20.27 -129.72,-29.12 -120.05,-100.94 1.85,-13.77 -1.92,-23.68 -11.61,-32.85 -13.4,-12.68 -26.21,-26 -39.23,-39.06 -2.85,-2.85 -5.53,-5.87 -7.59,-8.08 z m 135.37,43.11 c -10.69,10.9 -21.19,21.8 -31.94,32.46 -3.29,3.26 -4.34,6.54 -3.1,11 3.53,12.63 6.87,25.3 10.21,38 1.14,4.32 3.37,6.81 8.1,8 14.68,3.56 29.21,7.72 45.11,12 10.74,-11.09 21.76,-22.06 32.18,-33.58 2,-2.2 2.82,-6.82 2.14,-9.86 -2.89,-12.77 -6.61,-25.35 -9.9,-38 -1.13,-4.38 -3.41,-6.82 -8.09,-8 -14.67,-3.7 -29.21,-7.84 -44.72,-12.02 z"
     id="path16"
     style="fill:#e9e1d0;fill-opacity:1" />
  <path
     class="cls-1"
     d="m 68.68211,3.9313002 c 16.34,-5.54 30.84,-4.60999995 45.15,-1 a 90,90 0 0 1 67.24,101.7699998 c -1.92,12.08 1.12,21.52 9.86,29.94 14.48,13.94 28.53,28.33 42.72,42.56 2.87,2.87 5.61,5.87 7.31,7.66 l -55.4,55.59 a 64,64 0 0 1 -5.35,-4.56 c -14.85,-14.75 -29.84,-29.35 -44.34,-44.42 -8.68,-9 -18.18,-12.2 -30.89,-10.62 -52,6.46 -95.1299997,-25.27 -103.6399997,-75.71 -1.91000003,-11.3 -2.31000003,-22.8 2.47,-35.63 3.36,2.63 6.2799997,4.5 8.6899997,6.87 12.55,12.39 25,24.93 37.47,37.37 10.46,10.4 12.54,10.67 25.5,3.23 a 110.7,110.7 0 0 0 42,-42.22 c 6.78,-12 6.38,-14.85 -3.28,-24.56 -12.15,-12.21 -24.38,-24.35 -36.53,-36.57 -2.73,-2.77 -5.28,-5.6999998 -8.98,-9.6999998 z"
     id="path18"
     style="fill:#e9e1d0;fill-opacity:1" />
</svg>
