<?xml version="1.0" encoding="UTF-8" standalone="no"?>
<!-- Generator: Adobe Illustrator 26.0.3, SVG Export Plug-In . SVG Version: 6.00 Build 0)  -->

<svg
   version="1.1"
   id="Layer_1"
   x="0px"
   y="0px"
   viewBox="0 0 264 81"
   xml:space="preserve"
   sodipodi:docname="uzebox.svg"
   width="264"
   height="81"
   inkscape:version="1.1.2 (b8e25be833, 2022-02-05)"
   xmlns:inkscape="http://www.inkscape.org/namespaces/inkscape"
   xmlns:sodipodi="http://sodipodi.sourceforge.net/DTD/sodipodi-0.dtd"
   xmlns="http://www.w3.org/2000/svg"
   xmlns:svg="http://www.w3.org/2000/svg"><defs
   id="defs15" /><sodipodi:namedview
   id="namedview13"
   pagecolor="#ffffff"
   bordercolor="#666666"
   borderopacity="1.0"
   inkscape:pageshadow="2"
   inkscape:pageopacity="0.0"
   inkscape:pagecheckerboard="0"
   showgrid="false"
   inkscape:zoom="0.55104167"
   inkscape:cx="959.09263"
   inkscape:cy="540.79395"
   inkscape:window-width="2560"
   inkscape:window-height="1387"
   inkscape:window-x="-8"
   inkscape:window-y="-8"
   inkscape:window-maximized="1"
   inkscape:current-layer="Layer_1" />
<style
   type="text/css"
   id="style2">
	.st0{fill:#E9E1D0;}
</style>
<path
   class="st0"
   d="M 0,56.7 7.7,20.5 19,20.6 13.2,47.1 28.7,47 34.2,20.5 44.1,20.6 41.6,31 110.5,0 70.1,53.8 96.6,41.2 l 4.7,-20.6 36.2,0.3 -2.4,9.2 -26.5,-0.4 -1,4.4 18.7,0.1 -2.2,9 -18.9,-0.3 -0.5,3.9 27,0.2 -1.9,9.8 -36.6,-0.4 1.6,-7.9 -69.4,32.5 31.8,-46.2 -17.9,8 -2.8,14.4 z"
   id="path4"
   style="fill:#e9e1d0;fill-opacity:1" />
<path
   class="st0"
   d="m 225.4,24.8 1,-4.3 11.2,0.1 5.6,9.8 10.3,-10 10.5,0.1 -0.3,3.8 -15.8,14 8.6,13.9 0.1,4.3 -11.3,0.1 -5.8,-9.9 -10.2,9.8 -11.1,0.1 0.5,-3.6 15.4,-14.5 z"
   id="path6"
   style="fill:#e9e1d0;fill-opacity:1" />
<path
   class="st0"
   d="m 189.1,46.8 3.4,-16.4 h 16.2 L 205.5,47 Z m 23.2,10.3 8.3,-36.4 H 184.3 L 176.4,57 Z"
   id="path8"
   style="fill:#e9e1d0;fill-opacity:1" />
<path
   class="st0"
   d="m 150.1,33.6 0.5,-3.3 h 16.9 l -0.6,3.4 z m -2.4,13.3 0.5,-3.3 h 16.9 l -0.6,3.4 z m 17.7,9.4 6.8,-5.1 1.6,-8 -4.5,-5.7 7,-4.5 1.9,-8.3 -4.6,-4.1 -30.3,-0.1 -7.8,35.7 z"
   id="path10"
   style="fill:#e9e1d0;fill-opacity:1" />
</svg>
