<?xml version="1.0" encoding="UTF-8" standalone="no"?>
<!-- Generator: Adobe Illustrator 26.0.3, SVG Export Plug-In . SVG Version: 6.00 Build 0)  -->

<svg
   version="1.1"
   id="Layer_1"
   x="0px"
   y="0px"
   viewBox="0 0 264 85.975777"
   xml:space="preserve"
   sodipodi:docname="psp.svg"
   width="264"
   height="85.975777"
   inkscape:version="1.1.2 (b8e25be833, 2022-02-05)"
   xmlns:inkscape="http://www.inkscape.org/namespaces/inkscape"
   xmlns:sodipodi="http://sodipodi.sourceforge.net/DTD/sodipodi-0.dtd"
   xmlns="http://www.w3.org/2000/svg"
   xmlns:svg="http://www.w3.org/2000/svg"><defs
   id="defs32" /><sodipodi:namedview
   id="namedview30"
   pagecolor="#ffffff"
   bordercolor="#666666"
   borderopacity="1.0"
   inkscape:pageshadow="2"
   inkscape:pageopacity="0.0"
   inkscape:pagecheckerboard="0"
   showgrid="false"
   inkscape:zoom="0.55104167"
   inkscape:cx="959.09263"
   inkscape:cy="540.79395"
   inkscape:window-width="2560"
   inkscape:window-height="1387"
   inkscape:window-x="-8"
   inkscape:window-y="-8"
   inkscape:window-maximized="1"
   inkscape:current-layer="Layer_1" />
<style
   type="text/css"
   id="style2">
	.st0{fill:#E9E1D0;}
</style>
<g
   transform="scale(0.44,0.4391)"
   id="g27"
   style="fill:#e9e1d0;fill-opacity:1">
	<path
   id="path6905"
   class="st0"
   d="m 109.3,170.3 c 5.6,0 9,-1.1 9,-6.5 0,-4 -2.5,-6.1 -8.1,-6.1 h -7.8 v 12.6 z m -9.9,16.6 V 155.2 H 111 c 8.2,0 10.4,4.1 10.4,8.9 0,7.1 -6.4,8.9 -12.2,8.9 h -6.8 v 14 h -3"
   style="fill:#e9e1d0;fill-opacity:1" />
	<path
   id="path6907"
   class="st0"
   d="m 125.4,186.9 h 2.6 v -31.7 h -2.6 z"
   style="fill:#e9e1d0;fill-opacity:1" />
	<path
   id="path6909"
   class="st0"
   d="m 149.5,174.9 c -2.3,0.9 -4.6,1.1 -6.9,1.3 -4,0.3 -6.5,1.8 -6.5,4.8 0,2.8 2.5,4.1 4.9,4.1 4.2,0 8.4,-2 8.4,-6.7 z m -4.5,-1.3 c 1,-0.1 2.7,-0.4 3.5,-0.8 0.9,-0.4 1,-1.6 1,-2.4 0,-2.7 -1.6,-4.6 -5.7,-4.6 -3.6,0 -6.2,1.2 -6.7,5.2 h -2.7 c 0.4,-5.4 4.4,-7.5 9.4,-7.5 4.6,0 8.2,1.8 8.2,7.1 V 183 c 0,2.1 0.6,2.6 2.8,1.8 v 2.1 c -0.3,0.1 -1.2,0.4 -2.1,0.4 -0.4,0 -0.7,0 -1.1,-0.1 -1.8,-0.3 -2.2,-1.8 -2.2,-3.4 -2.2,2.5 -5.2,3.8 -8.5,3.8 -4,0 -7.6,-2.2 -7.6,-6.6 0,-3.8 2.7,-6.2 8,-6.9 l 3.7,-0.5"
   style="fill:#e9e1d0;fill-opacity:1" />
	<path
   id="path6911"
   class="st0"
   d="m 158.6,193.1 c 0.7,0.1 1.4,0.3 2.2,0.3 3.1,0 3.5,-4.3 4.5,-6.3 l -8.9,-23 h 3 l 7.4,19.6 7.2,-19.7 h 2.9 l -8.5,22.5 c -2.2,5.7 -3.6,9.3 -7.3,9.3 -0.9,0 -1.7,-0.1 -2.5,-0.3 v -2.4"
   style="fill:#e9e1d0;fill-opacity:1" />
	<path
   id="path6913"
   class="st0"
   d="m 183.1,177.4 c 0.5,5.7 4.2,7.8 9.1,7.8 5.6,0 8,-3.1 8,-6.6 0,-9.8 -19.3,-3.3 -19.3,-15.8 0,-4.4 3.6,-8.5 10.8,-8.5 7.1,0 10.7,4.3 10.6,9.5 h -2.8 c 0,-4.9 -3.8,-6.9 -7.8,-6.9 -6.2,0 -8.3,3.7 -7.8,7 1.3,8.2 19.4,2.3 19.4,14.6 0,5.8 -4.3,9.3 -11.6,9.3 -6.7,0 -11.6,-3.4 -11.6,-10.3 h 3"
   style="fill:#e9e1d0;fill-opacity:1" />
	<path
   id="path6915"
   class="st0"
   d="m 217.1,186.9 c -0.6,0.1 -1.7,0.5 -3.1,0.5 -2.6,0 -4,-1.1 -4,-4.5 v -16.7 h -3.3 V 164 h 3.3 v -6.4 h 2.7 v 6.4 h 4.2 v 2.2 h -4.2 v 15.6 c 0,2.3 0,3.2 2.3,3.2 0.7,0 1.4,-0.1 2.2,-0.3 v 2.2"
   style="fill:#e9e1d0;fill-opacity:1" />
	<path
   id="path6917"
   class="st0"
   d="m 236.9,174.9 c -2.3,0.9 -4.5,1.1 -6.8,1.3 -4,0.3 -6.5,1.8 -6.5,4.8 0,2.8 2.5,4.1 4.9,4.1 4.2,0 8.3,-2 8.3,-6.7 v -3.5 z m -4.4,-1.3 c 0.9,-0.1 2.6,-0.4 3.5,-0.8 0.8,-0.4 0.9,-1.6 0.9,-2.4 0,-2.7 -1.5,-4.6 -5.6,-4.6 -3.7,0 -6.2,1.2 -6.7,5.2 h -2.7 c 0.4,-5.4 4.4,-7.5 9.3,-7.5 4.6,0 8.3,1.8 8.3,7.1 V 183 c 0,2.1 0.5,2.6 2.8,1.8 v 2.1 c -0.4,0.1 -1.3,0.4 -2.1,0.4 -0.4,0 -0.8,0 -1.2,-0.1 -1.7,-0.3 -2.1,-1.8 -2.1,-3.4 -2.3,2.5 -5.2,3.8 -8.5,3.8 -4,0 -7.7,-2.2 -7.7,-6.6 0,-3.8 2.7,-6.2 8,-6.9 l 3.8,-0.5"
   style="fill:#e9e1d0;fill-opacity:1" />
	<path
   id="path6919"
   class="st0"
   d="m 255.2,186.9 c -0.6,0.1 -1.7,0.5 -3.1,0.5 -2.6,0 -4,-1.1 -4,-4.5 v -16.7 h -3.2 V 164 h 3.2 v -6.4 h 2.7 v 6.4 h 4.2 v 2.2 h -4.2 v 15.6 c 0,2.3 0,3.2 2.3,3.2 0.7,0 1.4,-0.1 2.2,-0.3 v 2.2"
   style="fill:#e9e1d0;fill-opacity:1" />
	<path
   id="path6921"
   class="st0"
   d="m 263.1,186.9 h -2.6 V 164 h 2.6 z m -2.8,-27.8 v -3.9 h 3 v 3.9 h -3"
   style="fill:#e9e1d0;fill-opacity:1" />
	<path
   id="path6923"
   class="st0"
   d="m 278.7,165.8 c -5.5,0 -7.7,4.7 -7.7,9.6 0,5.7 2.7,9.7 7.7,9.7 5.5,0 7.8,-4.8 7.8,-9.7 0,-5.3 -2.2,-9.6 -7.8,-9.6 z m -10.6,9.6 c 0,-6.6 3.6,-12 10.6,-12 7.2,0 10.7,5.3 10.7,12 0,7.2 -4.2,12 -10.7,12 -5.8,0 -10.6,-4 -10.6,-12"
   style="fill:#e9e1d0;fill-opacity:1" />
	<path
   id="path6925"
   class="st0"
   d="M 295.7,186.9 H 293 V 164 h 2.7 v 3.2 c 2.1,-2.2 4.2,-3.8 7.3,-3.8 2.9,0 5.3,0.9 7,3.3 1.1,1.6 1.2,3.4 1.2,5.2 v 14.9 h -2.7 V 172 c 0,-4.1 -1.7,-6.2 -5.9,-6.2 -3.3,0 -5.5,2.1 -6.4,4.4 -0.5,1.5 -0.5,2.7 -0.5,4.3 v 12.4"
   style="fill:#e9e1d0;fill-opacity:1" />
	<path
   id="path6927"
   class="st0"
   d="m 321.5,179.4 c -0.3,-0.1 -0.7,-0.2 -1.3,-0.2 h -0.8 v 2.1 h 0.9 c 0.4,0 0.8,0 1,-0.1 0.4,-0.2 0.6,-0.5 0.6,-0.9 0.1,-0.4 -0.1,-0.7 -0.4,-0.9 z m -1.1,-0.9 c 0.7,0 1.2,0.1 1.6,0.2 0.6,0.3 0.8,0.8 0.8,1.5 0,0.5 -0.1,0.9 -0.5,1.1 -0.2,0.1 -0.5,0.2 -0.8,0.3 0.4,0.1 0.7,0.3 0.9,0.6 0.2,0.3 0.3,0.6 0.3,0.9 v 0.4 c 0,0.1 0,0.3 0.1,0.4 0,0.2 0,0.3 0,0.3 v 0.1 H 322 c 0,0 0,0 0,-0.1 0,0 0,-0.1 0,-0.1 l -0.1,-0.2 v -0.5 c 0,-0.7 -0.2,-1.2 -0.5,-1.4 -0.2,-0.1 -0.6,-0.2 -1.1,-0.2 h -0.8 v 2.3 h -1 v -5.9 h 1.9 z m -3.2,-0.3 c -0.9,0.9 -1.3,2 -1.3,3.3 0,1.3 0.4,2.4 1.3,3.3 0.9,0.9 1.9,1.4 3.3,1.4 1.3,0 2.4,-0.5 3.3,-1.4 0.9,-0.9 1.3,-2 1.3,-3.3 0,-1.3 -0.4,-2.4 -1.3,-3.3 -0.9,-0.9 -2,-1.4 -3.3,-1.4 -1.3,0.1 -2.3,0.5 -3.3,1.4 z m 7.1,7.1 c -1,1 -2.4,1.6 -3.8,1.6 -1.4,0 -2.8,-0.5 -3.8,-1.6 -1,-1 -1.5,-2.3 -1.5,-3.8 0,-1.5 0.5,-2.7 1.5,-3.8 1,-1.1 2.4,-1.6 3.8,-1.6 1.4,0 2.8,0.5 3.8,1.6 1,1 1.5,2.3 1.5,3.8 0.1,1.5 -0.5,2.7 -1.5,3.8"
   style="fill:#e9e1d0;fill-opacity:1" />
	<path
   id="path6929"
   class="st0"
   d="m 343.9,170.3 c 5.6,0 9.1,-1.1 9.1,-6.5 0,-4 -2.6,-6.1 -8.2,-6.1 H 337 v 12.6 z m -9.8,16.6 v -31.7 h 11.6 c 8.2,0 10.4,4.1 10.4,8.9 0,7.1 -6.3,8.9 -12.2,8.9 H 337 v 14 h -2.9"
   style="fill:#e9e1d0;fill-opacity:1" />
	<path
   id="path6931"
   class="st0"
   d="m 367.8,165.8 c -5.5,0 -7.8,4.7 -7.8,9.6 0,5.7 2.8,9.7 7.8,9.7 5.5,0 7.8,-4.8 7.8,-9.7 -0.1,-5.3 -2.1,-9.6 -7.8,-9.6 z m -10.5,9.6 c 0,-6.6 3.5,-12 10.6,-12 7.2,0 10.6,5.3 10.6,12 0,7.2 -4.2,12 -10.6,12 -5.9,0 -10.6,-4 -10.6,-12"
   style="fill:#e9e1d0;fill-opacity:1" />
	<path
   id="path6933"
   class="st0"
   d="m 385,186.9 h -2.7 V 164 h 2.7 v 4.3 h 0.1 c 1.4,-3.7 3.6,-4.9 7.4,-4.9 v 2.9 c -6,-0.1 -7.5,4.3 -7.5,9.4 v 11.2"
   style="fill:#e9e1d0;fill-opacity:1" />
	<path
   id="path6935"
   class="st0"
   d="m 407.2,186.9 c -0.6,0.1 -1.7,0.5 -3,0.5 -2.7,0 -4.1,-1.1 -4.1,-4.5 V 166.2 H 397 V 164 h 3.2 v -6.4 h 2.7 v 6.4 h 4.3 v 2.2 h -4.3 v 15.6 c 0,2.3 0.1,3.2 2.3,3.2 0.7,0 1.5,-0.1 2.2,-0.3 l -0.2,2.2"
   style="fill:#e9e1d0;fill-opacity:1" />
	<path
   id="path6937"
   class="st0"
   d="m 426.2,174.9 c -2.3,0.9 -4.5,1.1 -6.8,1.3 -4,0.3 -6.5,1.8 -6.5,4.8 0,2.8 2.5,4.1 4.9,4.1 4.2,0 8.3,-2 8.3,-6.7 z m -4.4,-1.3 c 0.9,-0.1 2.6,-0.4 3.5,-0.8 0.8,-0.4 0.9,-1.6 0.9,-2.4 0,-2.7 -1.5,-4.6 -5.6,-4.6 -3.7,0 -6.2,1.2 -6.7,5.2 h -2.7 c 0.4,-5.4 4.4,-7.5 9.3,-7.5 4.6,0 8.3,1.8 8.3,7.1 V 183 c 0,2.1 0.5,2.6 2.8,1.8 v 2.1 c -0.4,0.1 -1.3,0.4 -2.1,0.4 -0.4,0 -0.8,0 -1.2,-0.1 -1.7,-0.3 -2.1,-1.8 -2.1,-3.4 -2.3,2.5 -5.2,3.8 -8.5,3.8 -4,0 -7.7,-2.2 -7.7,-6.6 0,-3.8 2.7,-6.2 8,-6.9 l 3.8,-0.5"
   style="fill:#e9e1d0;fill-opacity:1" />
	<path
   id="path6939"
   class="st0"
   d="m 447.1,185.1 c 4.4,0 7.7,-3.2 7.8,-8.9 0.2,-5.7 -2.4,-10.4 -7.8,-10.4 -4.8,0 -7.7,4.4 -7.7,9.6 0,5.5 2.7,9.7 7.7,9.7 z m -7.7,1.8 h -2.7 v -31.7 h 2.7 v 12.6 c 1.6,-2.8 4.9,-4.3 8.1,-4.3 7,0 10.2,5.7 10.2,12.1 0,6.7 -2.9,12 -10.3,12 -3,0 -6.4,-1.6 -8,-4.6 v 0 3.9"
   style="fill:#e9e1d0;fill-opacity:1" />
	<path
   id="path6941"
   class="st0"
   d="m 463.5,186.9 h 2.7 v -31.7 h -2.7 z"
   style="fill:#e9e1d0;fill-opacity:1" />
	<path
   id="path6943"
   class="st0"
   d="m 489.2,173.9 c 0,-4.4 -2.5,-8.1 -7.2,-8.1 -4.7,0 -7.2,3.7 -7.7,8.1 z m -14.9,2.2 c 0,4.9 2.7,9 7.7,9 3.4,0 6.2,-1.9 6.9,-5.2 h 3 c -1.3,4.3 -4,7.6 -9.8,7.6 -7.3,0 -10.5,-5.2 -10.5,-11.9 0,-6.7 3.9,-12.1 10.5,-12.1 6.3,0 10.1,4.5 10.1,12.7 h -17.9"
   style="fill:#e9e1d0;fill-opacity:1" />
	<path
   id="path6945"
   class="st0"
   d="M 0,0 H 186.9 V 55.4 H 7.4 v 48 H 0 V 48 H 179.6 V 7.4 H 0 V 0"
   style="fill:#e9e1d0;fill-opacity:1" />
	<path
   id="path6947"
   class="st0"
   d="m 420.5,55.4 v 48 h -7.4 V 48 H 592.6 V 7.4 H 413.1 V 0 H 600 V 55.4 H 420.5"
   style="fill:#e9e1d0;fill-opacity:1" />
	<path
   id="path6949"
   class="st0"
   d="M 282.3,0 V 96.1 H 187 v 7.4 H 290 V 7.4 h 95.3 V 0 h -103"
   style="fill:#e9e1d0;fill-opacity:1" />
</g>
</svg>
