<?xml version="1.0" encoding="UTF-8" standalone="no"?>
<!-- Generator: Adobe Illustrator 26.0.3, SVG Export Plug-In . SVG Version: 6.00 Build 0)  -->

<svg
   version="1.1"
   id="Layer_1"
   x="0px"
   y="0px"
   viewBox="0 0 264.01785 104.01376"
   xml:space="preserve"
   sodipodi:docname="pspminis.svg"
   width="264.01785"
   height="104.01376"
   inkscape:version="1.1.2 (b8e25be833, 2022-02-05)"
   xmlns:inkscape="http://www.inkscape.org/namespaces/inkscape"
   xmlns:sodipodi="http://sodipodi.sourceforge.net/DTD/sodipodi-0.dtd"
   xmlns="http://www.w3.org/2000/svg"
   xmlns:svg="http://www.w3.org/2000/svg"><defs
   id="defs28" /><sodipodi:namedview
   id="namedview26"
   pagecolor="#ffffff"
   bordercolor="#666666"
   borderopacity="1.0"
   inkscape:pageshadow="2"
   inkscape:pageopacity="0.0"
   inkscape:pagecheckerboard="0"
   showgrid="false"
   inkscape:zoom="0.55104167"
   inkscape:cx="959.09263"
   inkscape:cy="540.79395"
   inkscape:window-width="2560"
   inkscape:window-height="1387"
   inkscape:window-x="-8"
   inkscape:window-y="-8"
   inkscape:window-maximized="1"
   inkscape:current-layer="Layer_1" />
<style
   type="text/css"
   id="style2">
	.st0{fill:#E9E1D0;}
</style>
<g
   transform="scale(0.439517,0.441672)"
   id="g7"
   style="fill:#e9e1d0;fill-opacity:1">
	<path
   id="path6945"
   class="st0"
   d="M 0,0 H 186.9 V 55.4 H 7.4 v 48 H 0 V 48 H 179.6 V 7.4 H 0 V 0"
   style="fill:#e9e1d0;fill-opacity:1" />
	<path
   id="path6947"
   class="st0"
   d="m 420.5,55.4 v 48 h -7.4 V 48 H 592.6 V 7.4 H 413.1 V 0 H 600 V 55.4 H 420.5"
   style="fill:#e9e1d0;fill-opacity:1" />
	<path
   id="path6949"
   class="st0"
   d="M 282.3,0 V 96.1 H 187 v 7.4 H 290 V 7.4 h 95.3 V 0 h -103"
   style="fill:#e9e1d0;fill-opacity:1" />
</g>
<g
   transform="scale(0.439517,0.441672)"
   id="g23"
   style="fill:#e9e1d0;fill-opacity:1">
	<path
   class="st0"
   d="m 567.2,120.1 c -21.5,3 -34.7,14.1 -40.1,34 -0.9,3.4 -1.9,13 -2.4,22.8 -0.9,20.4 -2.5,26 -9.4,32.3 -8.1,7.5 -13.7,9.2 -32.5,10.1 l -13.3,0.6 v 7.5 7.5 l 15.4,-0.2 c 23.8,-0.2 35.9,-3.6 45.6,-12.7 10.3,-9.7 14.1,-21 15.1,-46.1 0.7,-14.3 1.1,-17.8 3,-22 5.9,-13.4 19.7,-19.5 44.2,-19.5 h 7.9 v -7.5 -7.5 l -15.2,0.1 c -8.4,0.1 -16.6,0.4 -18.3,0.6 z"
   id="path9"
   style="fill:#e9e1d0;fill-opacity:1" />
	<path
   class="st0"
   d="M 39.2,145.3 C 30,148 24.8,151.1 18.1,157.9 6.2,170 3.8,179.4 3.7,213.1 v 22.3 h 9.9 9.9 l 0.4,-25.8 c 0.4,-23.3 0.7,-26.2 2.7,-31.3 3,-7.9 7.8,-13 15.3,-16.5 5.9,-2.7 7.2,-2.9 18.3,-2.9 10.8,0 12.5,0.3 17.5,2.6 7,3.3 11.6,7.9 14.9,14.9 2.5,5.4 2.6,6.1 3.1,32 l 0.5,26.5 10.2,0.3 10.2,0.3 0.3,-26.8 c 0.3,-26.5 0.3,-26.9 2.9,-32.3 3.4,-7 8,-11.6 14.9,-14.9 5,-2.3 6.7,-2.6 17.5,-2.6 11.6,0 12.3,0.1 18.7,3.3 7.8,3.8 11.9,8.3 15,16.2 1.9,5 2.2,8 2.6,31.2 l 0.4,25.8 h 9.9 9.9 v -22.3 c -0.1,-33.7 -2.5,-43.1 -14.4,-55.2 -10.8,-11 -20.8,-14.5 -41.8,-14.5 -20.3,0 -31.3,3.6 -41.1,13.6 l -5.1,5.2 -5.2,-5.2 c -5.8,-5.8 -13.1,-9.8 -21.9,-12.1 -8.5,-2.2 -32,-2 -40,0.4 z"
   id="path11"
   style="fill:#e9e1d0;fill-opacity:1" />
	<path
   class="st0"
   d="m 235.7,150.9 v 7.5 h 10 10 v -7.5 -7.5 h -10 -10 z"
   id="path13"
   style="fill:#e9e1d0;fill-opacity:1" />
	<path
   class="st0"
   d="m 320,144.9 c -8.3,2.3 -14.2,5.5 -20.3,11.2 -13.6,12.5 -16,20.6 -16.3,54.8 l -0.2,24 10.2,0.3 10.1,0.3 0.4,-26.8 c 0.4,-30.3 0.7,-31.9 8.7,-40.6 5.9,-6.4 12.3,-8.9 24.2,-9.5 21.7,-1.1 34.8,8.2 37.8,26.8 0.6,3.6 1.1,16.3 1.1,28.2 v 21.8 h 10.1 10.1 l -0.4,-26.3 c -0.4,-23.1 -0.7,-26.9 -2.5,-32.4 -5.3,-16.1 -17.5,-27.5 -34,-31.7 -7.8,-2 -31.5,-2.1 -39,-0.1 z"
   id="path15"
   style="fill:#e9e1d0;fill-opacity:1" />
	<path
   class="st0"
   d="m 422.7,150.9 v 7.5 h 10.5 10.5 v -7.5 -7.5 h -10.5 -10.5 z"
   id="path17"
   style="fill:#e9e1d0;fill-opacity:1" />
	<path
   class="st0"
   d="m 235.7,204.9 v 30.5 h 10 10 v -30.5 -30.5 h -10 -10 z"
   id="path19"
   style="fill:#e9e1d0;fill-opacity:1" />
	<path
   class="st0"
   d="m 422.7,204.9 v 30.5 h 10.5 10.5 l -0.2,-30.3 -0.3,-30.2 -10.2,-0.3 -10.3,-0.3 z"
   id="path21"
   style="fill:#e9e1d0;fill-opacity:1" />
</g>
</svg>
