<?xml version="1.0" encoding="UTF-8" standalone="no"?>
<!-- Generator: Adobe Illustrator 26.0.3, SVG Export Plug-In . SVG Version: 6.00 Build 0)  -->

<svg
   version="1.1"
   id="svg2"
   x="0px"
   y="0px"
   viewBox="0 0 264.00772 54.018391"
   xml:space="preserve"
   sodipodi:docname="psx.svg"
   width="264.00772"
   height="54.018391"
   inkscape:version="1.1.2 (b8e25be833, 2022-02-05)"
   xmlns:inkscape="http://www.inkscape.org/namespaces/inkscape"
   xmlns:sodipodi="http://sodipodi.sourceforge.net/DTD/sodipodi-0.dtd"
   xmlns="http://www.w3.org/2000/svg"
   xmlns:svg="http://www.w3.org/2000/svg"><defs
   id="defs12" /><sodipodi:namedview
   id="namedview10"
   pagecolor="#ffffff"
   bordercolor="#666666"
   borderopacity="1.0"
   inkscape:pageshadow="2"
   inkscape:pageopacity="0.0"
   inkscape:pagecheckerboard="0"
   showgrid="false"
   inkscape:zoom="0.55104167"
   inkscape:cx="959.09263"
   inkscape:cy="540.79395"
   inkscape:window-width="2560"
   inkscape:window-height="1387"
   inkscape:window-x="-8"
   inkscape:window-y="-8"
   inkscape:window-maximized="1"
   inkscape:current-layer="svg2" />
<style
   type="text/css"
   id="style2">
	.st0{fill:#E9E1D0;}
</style>
<g
   transform="matrix(0.44,0,0,0.437042,0.00772329,0)"
   id="g7"
   style="fill:#e9e1d0;fill-opacity:1">
	<path
   id="path2998"
   class="st0"
   d="M 181.1,31.6 V 63 94.4 h 5.5 5.5 v -28 -28 h 6.8 c 4.9,0 7.1,0.1 7.9,0.5 1.6,0.7 3.3,2.8 4,4.9 0.4,1.1 0.7,3.6 0.8,6.4 0.2,5.6 -0.4,9.1 -2.2,11.4 -1.8,2.4 -2.9,2.7 -8,2.7 H 197 v 3.4 3.4 l 6.8,-0.1 6.8,-0.1 2.4,-1.1 c 4.4,-2.1 7.6,-6.4 8.9,-11.8 0.7,-3.1 0.7,-9.9 0,-13.2 -0.7,-3.2 -2.2,-6.4 -3.8,-8.3 -0.7,-0.8 -2,-2 -3,-2.6 -3.2,-2.1 -4.4,-2.2 -20.1,-2.2 h -13.9 z m 48.6,0 V 63 94.4 h 5.5 5.5 V 63.1 31.6 h -5.5 z m 138.2,0 c -4.9,0 -10,0.2 -11.3,0.4 -2.9,0.5 -6.2,2 -8.1,3.7 -1.9,1.7 -3.5,4.3 -4.4,7 -0.5,1.7 -0.7,3.2 -0.7,6.5 0,4.5 0.3,6.4 1.9,9.4 1,2 3.7,4.8 5.5,5.9 2.1,1.2 4.9,1.9 9.5,2.3 3.6,0.3 4.4,0.5 5.6,1.2 0.9,0.6 1.7,1.6 2.4,3 1,1.9 1,2.3 1,6.5 0,4.2 -0.1,4.6 -1,6.3 -0.6,1.2 -1.5,2.2 -2.5,2.8 l -1.5,1 -9.4,0.1 -9.4,0.1 v 3.4 3.4 h 10.6 c 6.5,0 11.4,-0.2 12.5,-0.4 4.4,-0.9 8,-3.7 9.7,-7.6 1.5,-3.2 2,-6.6 1.8,-11.6 -0.2,-5.3 -1,-8.1 -3.1,-11.3 -2.6,-3.9 -5.5,-5.2 -13,-5.9 -2.7,-0.3 -5.6,-0.7 -6.3,-1 -1.5,-0.6 -3,-2.3 -3.6,-4.1 -0.6,-1.8 -0.6,-7 0,-9.1 0.6,-2.2 2.5,-4.1 4.5,-4.7 1,-0.3 4.2,-0.4 9.7,-0.4 h 8.2 V 35 31.6 Z m 126.6,0 v 4.6 4.6 h 5.5 5.5 V 36.2 31.6 H 500 Z m -106,7.1 0.1,22.7 c 0.1,22.3 0.1,22.7 0.9,24.7 0.4,1.1 1.3,2.8 2,3.8 1.4,1.9 3.3,3.3 5.6,4.1 1.1,0.4 3,0.5 6.6,0.6 h 5.1 v -3.4 -3.4 h -3.3 c -3.1,0 -3.4,0 -4.3,-1 -0.6,-0.6 -1.1,-1.7 -1.3,-2.8 -0.2,-1.1 -0.3,-7 -0.3,-16.2 l 0.1,-14.4 6,-0.1 6,-0.1 v -3.4 -3.4 h -6 -6 v -3.9 -3.9 h -5.5 -5.7 z m 76.1,0 v 22.4 c 0,21.6 0,22.5 0.7,24.6 0.8,2.6 2.6,5.1 4.4,6.5 0.7,0.5 2.1,1.3 3.1,1.6 1.4,0.5 3,0.6 6.7,0.6 h 4.9 V 91 87.6 h -3.2 c -2.6,0 -3.3,-0.1 -4.1,-0.7 -0.5,-0.4 -1.1,-1.3 -1.3,-2 -0.2,-0.8 -0.4,-7.2 -0.4,-16.5 V 53.3 h 6.1 6.1 l -0.1,-3.3 -0.1,-3.3 -6,-0.1 -5.9,-0.1 V 42.6 38.7 H 470 Z m -9.7,7.7 -11.8,0.2 c -12.6,0.2 -14,0.3 -17.7,2.2 -4.2,2.1 -7,6.2 -8.4,11.8 -0.5,2.3 -0.6,4.4 -0.6,13.2 0,10.1 0,10.6 0.8,12.5 1.6,3.9 3.9,6.3 7.3,7.5 1.5,0.5 3,0.6 8.2,0.6 H 439 V 91 87.6 h -4.4 c -4.2,0 -4.5,-0.1 -5.5,-0.9 -0.7,-0.6 -1.2,-1.5 -1.4,-2.5 -0.5,-2 -0.5,-17.4 0,-21.2 0.7,-5.3 1.9,-7.8 4.4,-9.2 0.9,-0.5 2.3,-0.6 6.5,-0.7 L 444,53 v 20.7 20.6 h 5.7 5.7 V 81.2 c 0,-7.3 -0.1,-18.1 -0.2,-24 z M 288,46.5 276.2,46.7 c -12.8,0.2 -14.7,0.4 -18.2,2.3 -4.1,2.2 -7,6.5 -8.2,12.2 -0.8,3.6 -1.1,18.4 -0.5,21.9 0.5,3.1 2,6.2 3.7,8 1.3,1.3 3.4,2.6 5.2,3.1 0.5,0.2 3.8,0.3 7.4,0.3 h 6.5 v -3.4 -3.4 h -4.5 c -5.1,0 -5.8,-0.2 -6.8,-2.4 -0.4,-1 -0.6,-2.9 -0.7,-8.1 -0.2,-7.4 0.4,-15.4 1.2,-18.1 0.7,-2.4 2.1,-4.2 3.6,-5 1.1,-0.6 2.2,-0.7 6.7,-0.7 h 5.3 l 0.1,20.5 0.1,20.5 h 5.5 5.5 v -24 -23.9 z m 11.9,0 c -3.2,0 -5.8,0 -5.8,0.1 0,0.1 3.7,10.8 8.1,23.8 l 8.1,23.8 -4.6,11.8 c -2.5,6.5 -4.6,11.8 -4.6,11.9 0,0.1 2.2,0.1 4.8,0 l 4.8,-0.1 14.3,-35.6 c 7.8,-19.5 14.2,-35.6 14.2,-35.6 0,0 -2.3,-0.1 -5.1,-0.1 -3.7,0 -5.2,0.1 -5.4,0.4 -0.1,0.2 -2.9,7.2 -6,15.4 -3.2,8.2 -5.9,15 -6.1,15 -0.2,0.1 -2.7,-6.9 -5.6,-15.4 l -5.2,-15.5 h -5.9 z m 194.6,0 v 24 24 h 5.5 5.5 v -24 -24 H 500 Z m 66.6,0.2 -0.1,23.9 v 0 l -0.1,23.9 h 5.7 5.7 V 73.9 53.2 l 5.4,0.1 c 5.8,0.1 6.7,0.4 8.3,2.1 1.3,1.4 2.2,3.8 2.6,7 0.2,1.7 0.4,9.4 0.4,17.5 v 14.5 h 5.5 5.5 V 80.3 c 0,-15 -0.3,-18.5 -1.7,-22.6 -2,-5.5 -5.6,-8.8 -11.5,-10.4 -1.9,-0.5 -4,-0.6 -14,-0.6 z m -27.9,0.1 c -3.1,0 -6.2,0.4 -8.4,1.2 -3,1 -4.8,2.2 -6.7,4.3 -2,2.3 -3.5,5.3 -4.3,9 -0.5,2.3 -0.7,4.2 -0.6,9.8 0,5.9 0.1,7.4 0.8,9.7 1.1,3.9 2.5,6.6 4.6,8.7 2.1,2.1 5.2,3.7 8.7,4.5 1.6,0.4 3.7,0.5 7.1,0.4 5.7,-0.2 8.5,-0.9 11.8,-3.2 2.8,-1.9 4.9,-4.9 6.1,-8.7 1.7,-5.4 2,-14.4 0.7,-21 -0.6,-3.2 -2.2,-6.7 -3.9,-8.8 -1.6,-2 -4.3,-3.7 -7.2,-4.7 -2.4,-0.8 -5.6,-1.2 -8.7,-1.2 z m 0.2,6.6 c 1.6,0 3.2,0.3 4.5,1 1.7,0.8 2.7,2.3 3.6,5.1 0.6,1.8 0.7,3.5 0.9,9.4 0.2,7.8 -0.2,11.5 -1.4,14.3 -0.9,2 -2.2,3.5 -3.8,4.1 -0.6,0.3 -2.4,0.5 -3.9,0.5 -2.2,0 -3.1,-0.2 -4.4,-0.8 -1,-0.5 -1.9,-1.4 -2.6,-2.4 -1.6,-2.6 -2.1,-6 -2.2,-13.6 0,-7.3 0.4,-10.2 1.7,-13.2 0.5,-1 1.4,-2.2 2.1,-2.8 1.3,-1 3.4,-1.6 5.5,-1.6 z"
   style="fill:#e9e1d0;fill-opacity:1" />
	<path
   id="path7"
   class="st0"
   d="M 87.7,25.7 87.6,123.6 61.4,115 V 0 l 33.5,8.9 c 21.4,5.8 34.5,16.9 34.3,36.6 -0.2,22.8 -10.8,32 -31.3,26 v -45 C 97.9,21 87.7,20.7 87.7,25.7 Z"
   style="fill:#e9e1d0;fill-opacity:1" />
	<path
   id="path11"
   class="st0"
   d="m 148.8,102.1 -24.7,-7.7 6.8,-2.3 c 13.7,-4.4 8,-9.1 -6.3,-6.4 L 111,90.3 87.6,83 89.7,82.3 c 13,-4.5 26.3,-7.5 39.9,-6.5 18.9,1.4 31.1,5.5 32.8,13.2 1.1,4.6 -3.2,9.5 -13.2,13 z M 61.4,68.2 v 6.7 L 51.1,71.7 Z m 49.4,47.4 -23.1,-7.4 v -1.3 l 36.5,-12.5 24.7,7.7 z M 61.4,92 v 7.9 l -12,-3.8 z m 26.2,-9 23.3,7.2 -23.3,8 z M 35.5,91.7 13,84.5 c 0.2,0 0.4,-0.1 0.5,-0.1 L 51,71.7 61.3,74.9 v 7.5 z m 13.9,4.4 12,3.8 v 7.4 C 51.7,110.7 41,111.8 29.3,109.9 16.7,107.9 0.4,106.2 0,99 -0.4,92 6.1,87 13,84.6 l 22.5,7.1 -6,2.1 c -7.4,2.7 -0.5,9.2 7.5,6.4 z m 38.4,27.5 -0.2,-0.5 v -14.8 l 23.1,7.4 z"
   style="fill:#e9e1d0;fill-opacity:1" />
</g>
</svg>
